<?xml version="1.0" standalone="no"?>
<!DOCTYPE svg PUBLIC "-//W3C//DTD SVG 1.1//EN" "http://www.w3.org/Graphics/SVG/1.1/DTD/svg11.dtd" >
<svg xmlns="http://www.w3.org/2000/svg" xmlns:xlink="http://www.w3.org/1999/xlink" version="1.1">
<metadata>
Created by FontForge 20161013 at Fri Apr 11 05:20:55 2008
 By ,,,
Copyright (c) 2008 by Mrio Feliciano. All rights reserved.
</metadata>
<defs>
<font id="Flama-BookItalic" horiz-adv-x="560" >
  <font-face 
    font-family="Flama Book Italic"
    font-weight="575"
    font-style="italic"
    font-stretch="normal"
    units-per-em="1000"
    panose-1="2 0 0 0 0 0 0 0 0 0"
    ascent="800"
    descent="-200"
    x-height="501"
    cap-height="713"
    bbox="-193 -208 1080 1032"
    underline-thickness="50"
    underline-position="-200"
    unicode-range="U+0002-F8FF"
  />
<missing-glyph horiz-adv-x="915" 
d="M235 118l-40 40l185 185l-185 185l40 40l185 -185l185 185l40 -40l-185 -185l185 -185l-40 -40l-185 185zM55 -18v716h712v-716h-712zM115 42h592v596h-592v-596z" />
    <glyph glyph-name="fi" unicode="fi" horiz-adv-x="535" 
d="M359 0l88 501h71l-88 -501h-71zM464 600l20 108h71l-20 -108h-71zM51 -184l110 628h-93l10 56h93l15 88q24 139 158 139q34 0 54 -6l-10 -59q-20 5 -47 5q-31 0 -54 -18.5t-30 -56.5l-16 -92h112l-11 -56h-111l-109 -617z" />
    <glyph glyph-name="fl" unicode="fl" horiz-adv-x="603" 
d="M479 -6q-48 0 -72.5 23.5t-24.5 64.5q0 21 4 40l104 591h71l-105 -594q0 -3 -0.5 -11t-0.5 -10q0 -43 53 -43q11 0 34.5 2t24.5 2l-10 -54q-44 -11 -78 -11zM51 -184l110 628h-93l10 56h93l15 88q24 139 158 139q34 0 54 -6l-10 -59q-20 5 -47 5q-31 0 -54 -18.5
t-30 -56.5l-16 -92h112l-11 -56h-111l-109 -617z" />
    <glyph glyph-name=".notdef" horiz-adv-x="915" 
d="M235 118l-40 40l185 185l-185 185l40 40l185 -185l185 185l40 -40l-185 -185l185 -185l-40 -40l-185 185zM55 -18v716h712v-716h-712zM115 42h592v596h-592v-596z" />
    <glyph glyph-name=".null" horiz-adv-x="0" 
 />
    <glyph glyph-name="nonmarkingreturn" horiz-adv-x="333" 
 />
    <glyph glyph-name="CR" horiz-adv-x="214" 
 />
    <glyph glyph-name="space" unicode=" " horiz-adv-x="214" 
 />
    <glyph glyph-name="exclam" unicode="!" horiz-adv-x="281" 
d="M72 0l20 116h77l-20 -116h-77zM123 197l31 267l44 249h77l-44 -250l-62 -266h-46z" />
    <glyph glyph-name="quotedbl" unicode="&#x22;" horiz-adv-x="373" 
d="M139 495l9 120l17 100h68l-17 -100l-34 -120h-43zM292 495l9 120l18 100h67l-17 -100l-33 -120h-44z" />
    <glyph glyph-name="numbersign" unicode="#" horiz-adv-x="571" 
d="M75 -3l59 195h-107l16 49h106l73 237h-111l16 47h108l55 180h47l-54 -180h177l54 180h47l-54 -180h106l-15 -47h-105l-73 -237h108l-15 -49h-107l-59 -195h-48l57 195h-175l-57 -195h-49zM197 241h175l73 237h-176z" />
    <glyph glyph-name="dollar" unicode="$" horiz-adv-x="538" 
d="M203 -49l19 103q-69 7 -114 45t-60 98l63 24q18 -54 54 -80t96 -26q67 0 112 32t45 88q0 35 -27.5 54t-74.5 34l-74 24q-113 36 -114 129q0 79 55.5 127.5t141.5 56.5l18 101h58l-18 -102q116 -16 149 -113l-65 -25q-35 78 -130 78q-55 0 -96.5 -30.5t-41.5 -84.5
q0 -48 85 -77l76 -24q62 -21 96 -51.5t34 -83.5q0 -79 -57.5 -131.5t-153.5 -60.5l-18 -105h-58z" />
    <glyph glyph-name="percent" unicode="%" horiz-adv-x="763" 
d="M214 352q-51 0 -81 24t-30 69q0 7 2 27l24 133q11 60 53 90t98 30q50 0 82 -23t32 -70q0 -12 -3 -27l-24 -137q-10 -56 -54 -86t-99 -30zM222 395q38 0 63 21t30 52l25 143q2 10 2 15q0 25 -17.5 41.5t-51.5 16.5q-37 0 -61 -20.5t-30 -52.5l-25 -143q-1 -6 -1 -17
q0 -26 16.5 -41t49.5 -15zM116 -9l541 731h52l-540 -731h-53zM541 -11q-50 0 -80 23t-30 68q0 16 2 25l23 134q11 60 53.5 91.5t97.5 31.5q51 0 83 -23t32 -70q0 -12 -3 -27l-24 -137q-10 -55 -54 -85.5t-100 -30.5zM549 31q39 0 63.5 21t30.5 52l25 144q2 10 2 14
q0 26 -17.5 42.5t-51.5 16.5q-38 0 -62 -20.5t-29 -52.5l-26 -144q-1 -6 -1 -17q0 -56 66 -56z" />
    <glyph glyph-name="ampersand" unicode="&#x26;" horiz-adv-x="688" 
d="M291 -14q-90 0 -155.5 47t-65.5 136q0 82 53.5 139.5t127.5 72.5l1 2q-43 19 -67.5 57.5t-24.5 79.5q0 99 70.5 153.5t176.5 54.5q78 0 132 -35.5t54 -103.5q0 -18 -3 -39h-68q2 16 2 29q0 46 -36.5 69t-94.5 23q-68 0 -113.5 -40.5t-45.5 -104.5q0 -48 37.5 -83
t78.5 -35h362q0 -2 -3 -16.5t-5.5 -28t-2.5 -14.5h-101l-25 -140q-19 -107 -91 -165t-193 -58zM297 43q168 0 202 158l26 148h-209q-72 0 -119.5 -52t-47.5 -120q0 -62 44 -98t104 -36z" />
    <glyph glyph-name="quotesingle" unicode="'" horiz-adv-x="219" 
d="M143 495l9 120l17 100h68l-18 -100l-33 -120h-43z" />
    <glyph glyph-name="parenleft" unicode="(" horiz-adv-x="306" 
d="M163 -182q-64 109 -64 300q0 167 58 328.5t164 282.5l46 -1q-96 -131 -152 -295t-56 -333q0 -149 47 -281z" />
    <glyph glyph-name="parenright" unicode=")" horiz-adv-x="306" 
d="M9 -182l-46 1q100 140 155 309t55 327q0 123 -49 273l43 1q65 -122 65 -299q0 -158 -58.5 -322t-164.5 -290z" />
    <glyph glyph-name="asterisk" unicode="*" horiz-adv-x="419" 
d="M159 398l-34 24l100 115l-109 72l29 37l110 -72l24 139h46l-25 -139l134 72l17 -37l-137 -73l62 -114l-40 -24l-68 123z" />
    <glyph glyph-name="plus" unicode="+" 
d="M233 65l40 227h-226l10 50h225l40 227h53l-40 -227h224l-9 -50h-224l-40 -227h-53z" />
    <glyph glyph-name="comma" unicode="," horiz-adv-x="221" 
d="M32 -114l41 116h-26l20 114h78l-20 -113l-55 -117h-38z" />
    <glyph glyph-name="hyphen" unicode="-" horiz-adv-x="357" 
d="M50 259l11 65h263l-11 -65h-263z" />
    <glyph glyph-name="period" unicode="." horiz-adv-x="221" 
d="M47 0l20 116h78l-21 -116h-77z" />
    <glyph glyph-name="slash" unicode="/" horiz-adv-x="341" 
d="M-33 -178l355 896h57l-353 -896h-59z" />
    <glyph glyph-name="zero" unicode="0" horiz-adv-x="582" 
d="M264 -12q-90 0 -148.5 41.5t-58.5 120.5q0 20 3 41q33 180 58 328q21 100 97.5 153.5t174.5 53.5q88 0 143 -43t55 -122q0 -22 -4 -42l-57 -320q-17 -99 -92 -155t-171 -56zM275 48q70 0 116.5 44t59.5 109l57 321q3 12 3 32q0 50 -35 80.5t-98 30.5q-71 0 -121 -42.5
t-62 -105.5l-57 -322q-3 -15 -3 -29q0 -56 36.5 -87t103.5 -31z" />
    <glyph glyph-name="one" unicode="1" horiz-adv-x="517" 
d="M34 0l10 55h169l104 591l-166 -29l6 54l223 44h23l-116 -660h167l-10 -55h-410z" />
    <glyph glyph-name="two" unicode="2" horiz-adv-x="533" 
d="M42 0l9 49l238 225q84 76 127.5 141t43.5 144q0 47 -33 77.5t-85 30.5q-63 0 -102.5 -36.5t-50.5 -102.5h-66q1 16 6 31q41 166 225 166q80 0 130 -43t50 -117q0 -30 -6.5 -58.5t-13 -50t-25.5 -50l-29 -43.5t-38 -45t-38.5 -40.5t-46.5 -44t-45 -42.5l-139 -125l-1 -3
h312l-11 -63h-411z" />
    <glyph glyph-name="three" unicode="3" horiz-adv-x="549" 
d="M231 -12q-83 0 -135.5 35.5t-52.5 99.5q0 18 7 53h72q-4 -24 -4 -39q0 -45 37.5 -67.5t90.5 -22.5q70 0 122 51.5t52 127.5q0 59 -41.5 87.5t-88.5 28.5h-62l10 54h61q69 0 116.5 46t47.5 122q0 49 -31.5 75t-80.5 26q-63 0 -106.5 -32t-54.5 -99h-69q0 2 1.5 11t1.5 10
q15 79 81.5 124.5t158.5 45.5q81 0 127 -39t46 -105q0 -67 -39 -128t-111 -79l-1 -3q51 -14 82 -51.5t31 -89.5q0 -107 -80.5 -175.5t-187.5 -66.5z" />
    <glyph glyph-name="four" unicode="4" horiz-adv-x="577" 
d="M325 0l34 198h-311l10 59l370 456h81l-374 -454h235l28 159l79 40l-35 -199h100l-11 -61h-100l-34 -198h-72z" />
    <glyph glyph-name="five" unicode="5" horiz-adv-x="546" 
d="M238 -12q-83 0 -135 35t-52 96q0 26 9 57h71q-6 -22 -6 -39q0 -44 37 -66.5t87 -22.5q67 0 114 41t63 115q10 42 10 74q0 55 -33.5 83t-86.5 28q-73 0 -145 -54q-1 0 -32.5 5t-33.5 5q76 324 88 368h362l-11 -61h-303l-63 -264q82 55 171 55q69 0 117 -39.5t48 -108.5
q0 -30 -14 -100q-20 -101 -90.5 -154t-171.5 -53z" />
    <glyph glyph-name="six" unicode="6" horiz-adv-x="558" 
d="M257 -12q-82 0 -134.5 43.5t-52.5 118.5q0 22 4 41q20 120 58 332q18 93 88 147.5t165 54.5q80 0 132.5 -33.5t52.5 -100.5q0 -17 -6 -53h-71q4 23 4 36q0 45 -32.5 68.5t-87.5 23.5q-67 0 -112 -39t-57 -102l-29 -171q74 93 197 93q69 0 111 -35t42 -103q0 -16 -24 -142
q-17 -90 -84 -134.5t-164 -44.5zM271 48q64 0 109 34.5t54 89.5q19 108 19 124q0 96 -116 96q-57 0 -111.5 -38t-63.5 -92q-15 -95 -15 -101q0 -51 32.5 -82t91.5 -31z" />
    <glyph glyph-name="seven" unicode="7" horiz-adv-x="527" 
d="M110 0q39 192 144.5 365.5t229.5 281.5h-351l12 66h439l-9 -54q-58 -55 -106 -108.5t-107 -136.5t-104.5 -189.5t-68.5 -224.5h-79z" />
    <glyph glyph-name="eight" unicode="8" horiz-adv-x="552" 
d="M249 -12q-83 0 -137 36.5t-54 110.5q0 17 10 73q10 55 49.5 97t94.5 59q-41 13 -63 45t-22 71q0 16 9 62q16 87 86.5 135t158.5 48q77 0 130.5 -34.5t53.5 -105.5q0 -30 -11 -83q-8 -45 -45.5 -83t-90.5 -53q44 -14 70 -46.5t26 -81.5q0 -3 -10 -65q-16 -88 -87.5 -136.5
t-167.5 -48.5zM260 46q64 0 109.5 33.5t57.5 93.5q10 47 10 65q0 50 -35 74t-90 24q-60 0 -108 -32t-59 -92q-9 -44 -9 -62q0 -49 35.5 -76.5t88.5 -27.5zM323 389q54 0 102.5 33.5t58.5 87.5q9 51 9 62q0 47 -35 71t-91 24q-54 0 -100.5 -32.5t-56.5 -86.5q-9 -45 -9 -62
q0 -49 35 -73t87 -24z" />
    <glyph glyph-name="nine" unicode="9" horiz-adv-x="562" 
d="M241 -12q-78 0 -127 33.5t-49 100.5q0 17 6 53h71q-5 -28 -5 -36q0 -45 31 -68.5t86 -23.5q68 0 114.5 39.5t57.5 101.5q2 13 14.5 84.5t14.5 84.5q-35 -45 -88 -68t-109 -23q-66 0 -109 35.5t-43 102.5q0 17 20 134q17 91 86.5 139.5t165.5 48.5q82 0 134.5 -43.5
t52.5 -119.5q0 -19 -3 -40q-8 -44 -33 -186t-26 -148q-18 -93 -91 -147t-171 -54zM295 319q57 0 113 42t67 101q13 87 13 91q0 51 -32.5 82.5t-90.5 31.5q-65 0 -109.5 -35t-54.5 -90q-20 -114 -20 -124q0 -52 32.5 -75.5t81.5 -23.5z" />
    <glyph glyph-name="colon" unicode=":" horiz-adv-x="221" 
d="M38 0l21 115h77l-21 -115h-77zM102 380l20 115h77l-20 -115h-77z" />
    <glyph glyph-name="semicolon" unicode=";" horiz-adv-x="221" 
d="M31 -104l38 106h-26l20 113h78l-20 -112l-52 -107h-38zM107 380l20 115h78l-21 -115h-77z" />
    <glyph glyph-name="less" unicode="&#x3c;" 
d="M447 89l-387 208l8 42l461 202l16 -47l-407 -177l340 -182z" />
    <glyph glyph-name="equal" unicode="=" 
d="M35 196l8 50h490l-9 -50h-489zM68 389l9 51h490l-8 -51h-491z" />
    <glyph glyph-name="greater" unicode="&#x3e;" 
d="M67 89l-16 47l403 183l-343 176l32 46l390 -202l-7 -42z" />
    <glyph glyph-name="question" unicode="?" horiz-adv-x="524" 
d="M171 0l20 116h79l-20 -116h-79zM212 193l8 46q9 43 33 75t64 66q7 6 29 24t32 26.5t27.5 27t25.5 32.5t15 35t7 43q0 46 -29 71.5t-80 25.5q-50 0 -94.5 -28.5t-59.5 -92.5q-4 -12 -4 -23h-67l6 31q16 87 81 129.5t154 42.5q79 0 123 -36.5t44 -102.5q0 -40 -11 -73.5
t-33 -61.5t-40.5 -46t-48.5 -41q-5 -4 -28 -21.5t-30 -24t-21 -21t-20 -28.5t-9 -30l-8 -45h-66z" />
    <glyph glyph-name="at" unicode="@" horiz-adv-x="958" 
d="M513 -139q-95 0 -168 25q-122 43 -196 140t-72 244q1 205 132 326.5t328 121.5q159 0 271 -96t112 -246q0 -81 -27 -144.5t-71 -100t-94 -55t-102 -18.5h-48l15 85h-3q-30 -48 -75.5 -72.5t-88.5 -24.5q-65 0 -102.5 33.5t-37.5 93.5q0 21 4 37q19 121 24 143
q14 86 69.5 133t130.5 47q44 0 81 -23t46 -66h3l15 83h61l-73 -426q39 2 76 19.5t69.5 50t52.5 87t20 122.5q0 128 -100.5 210.5t-232.5 82.5q-173 0 -288 -108t-115 -291q0 -136 69 -225.5t179 -122.5q66 -19 145 -19q102 0 206 30l11 -40q-96 -36 -226 -36zM452 102
q56 0 101.5 42.5t56.5 108.5l15 87q0 2 1.5 12.5t1.5 15.5q0 54 -32.5 82t-79.5 28q-54 0 -91 -30.5t-47 -87.5l-25 -146q-2 -14 -2 -29q0 -40 26.5 -61.5t74.5 -21.5z" />
    <glyph glyph-name="A" unicode="A" horiz-adv-x="656" 
d="M0 0l391 715h73l136 -715h-79l-36 209h-294l-112 -209h-79zM223 274h251l-62 347h-3z" />
    <glyph glyph-name="B" unicode="B" horiz-adv-x="625" 
d="M48 0l126 713h271q76 0 126 -39.5t50 -111.5t-41.5 -122t-115.5 -65l-1 -3q56 -10 87.5 -50.5t31.5 -94.5q0 -72 -39 -125.5t-95 -77.5t-120 -24h-280zM136 65h187q76 0 129.5 39.5t53.5 118.5q0 54 -40 82t-98 28h-184zM195 399h176q70 0 120.5 37t50.5 110q0 50 -36 76
t-89 26h-178z" />
    <glyph glyph-name="C" unicode="C" horiz-adv-x="639" 
d="M302 -12q-101 0 -167 50.5t-66 144.5q0 26 4 47q4 20 21.5 122t20.5 122q22 116 108 184t206 68q97 0 158.5 -46.5t61.5 -127.5q0 -26 -9 -73h-73q6 37 6 54q0 58 -42 91.5t-116 33.5q-85 0 -147 -51t-76 -132l-42 -240q-3 -18 -3 -37q0 -67 46 -104.5t121 -37.5
q82 0 137 43t68 113l1 6q2 6 2 7h73l-5 -26q-19 -96 -97.5 -153.5t-190.5 -57.5z" />
    <glyph glyph-name="D" unicode="D" horiz-adv-x="659" 
d="M48 0l126 713h264q97 0 157.5 -49t60.5 -140q0 -21 -5 -51l-21 -119t-21 -118q-19 -110 -99.5 -173t-196.5 -63h-265zM137 67h183q87 0 143.5 47t68.5 120q3 18 21 120t21 120q5 32 5 40q0 62 -42.5 97t-116.5 35h-181z" />
    <glyph glyph-name="E" unicode="E" horiz-adv-x="590" 
d="M48 0l126 713h455l-11 -67h-379l-43 -244h318l-12 -68h-318l-47 -267h380l-11 -67h-458z" />
    <glyph glyph-name="F" unicode="F" horiz-adv-x="556" 
d="M48 0l126 713h447l-12 -67h-369l-44 -247h305l-12 -68h-305l-58 -331h-78z" />
    <glyph glyph-name="G" unicode="G" horiz-adv-x="656" 
d="M302 -12q-101 0 -167 50.5t-66 144.5q0 30 4 50q4 18 12.5 67.5t18 106t11.5 67.5q20 112 107 182t206 70q99 0 159.5 -44.5t60.5 -126.5q0 -26 -9 -71h-72q7 43 7 56q0 57 -42.5 87.5t-116.5 30.5q-85 0 -147 -51t-76 -132l-42 -240q-3 -19 -3 -39q0 -67 46 -103.5
t121 -36.5q85 0 139.5 41t67.5 111l15 84h-197l12 70h270q-13 -87 -28 -163q-17 -96 -97 -153.5t-194 -57.5z" />
    <glyph glyph-name="H" unicode="H" horiz-adv-x="680" 
d="M48 0l126 713h77l-55 -311h367l54 311h77l-125 -713h-77l59 334h-367l-59 -334h-77z" />
    <glyph glyph-name="I" unicode="I" horiz-adv-x="237" 
d="M48 0l126 713h77l-126 -713h-77z" />
    <glyph glyph-name="J" unicode="J" horiz-adv-x="564" 
d="M220 -12q-87 0 -139.5 42.5t-52.5 121.5q0 28 13 102h73q-10 -68 -10 -80q0 -117 133 -117q75 0 120 45t57 108l88 503h76l-90 -510q-18 -98 -89 -156.5t-179 -58.5z" />
    <glyph glyph-name="K" unicode="K" horiz-adv-x="635" 
d="M48 0l125 713h78l-67 -377h2l414 377h94l-316 -285l211 -428h-87l-182 376l-152 -133l-43 -243h-77z" />
    <glyph glyph-name="L" unicode="L" horiz-adv-x="558" 
d="M48 0l126 713h77l-114 -646h370l-11 -67h-448z" />
    <glyph glyph-name="M" unicode="M" horiz-adv-x="797" 
d="M48 0l126 713h91l149 -440h2l296 440h99l-125 -713h-75l102 577h-4l-281 -410h-61l-140 408h-3l-102 -575h-74z" />
    <glyph glyph-name="N" unicode="N" horiz-adv-x="683" 
d="M48 0l126 713h77l267 -583h2l103 583h73l-126 -713h-73l-269 589h-2l-104 -589h-74z" />
    <glyph glyph-name="O" unicode="O" horiz-adv-x="666" 
d="M303 -12q-101 0 -167.5 49t-66.5 143q0 25 4 45q3 20 21.5 122t21.5 122q20 115 108.5 186t206.5 71q102 0 167.5 -52t65.5 -145q0 -26 -4 -49q-3 -18 -20.5 -117t-21.5 -118q-21 -115 -109.5 -186t-205.5 -71zM314 56q84 0 147.5 50t78.5 132q2 10 12.5 68t19 108.5
t11.5 68.5q4 17 4 38q0 66 -45.5 101.5t-121.5 35.5q-88 0 -149 -49.5t-78 -138.5q-35 -200 -42 -235q-3 -21 -3 -39q0 -66 46 -103t120 -37z" />
    <glyph glyph-name="P" unicode="P" horiz-adv-x="606" 
d="M48 0l126 713h253q88 0 142 -50.5t54 -131.5q0 -116 -79.5 -181.5t-201.5 -65.5h-168l-49 -284h-77zM187 350h152q93 0 150 44t57 131q0 57 -38.5 90t-98.5 33h-170z" />
    <glyph glyph-name="Q" unicode="Q" horiz-adv-x="666" 
d="M517 -115l-161 107q-36 -4 -53 -4q-101 0 -167.5 49t-66.5 143q0 25 4 45q3 20 21.5 122t21.5 122q20 115 108.5 186t206.5 71q102 0 167.5 -52t65.5 -145q0 -26 -4 -49q-3 -18 -20.5 -117t-21.5 -118q-15 -80 -63 -138t-119 -85l137 -80zM314 56q84 0 147.5 50t78.5 132
q2 10 12.5 68t19 108.5t11.5 68.5q4 17 4 38q0 66 -45.5 101.5t-121.5 35.5q-88 0 -149 -49.5t-78 -138.5q-35 -200 -42 -235q-3 -21 -3 -39q0 -66 46 -103t120 -37z" />
    <glyph glyph-name="R" unicode="R" horiz-adv-x="623" 
d="M48 0l126 713h240q93 0 150.5 -45.5t57.5 -135.5q0 -93 -58.5 -157.5t-157.5 -76.5q13 -23 74 -148t77 -150h-86l-140 288h-156l-50 -288h-77zM187 354h155q93 0 148.5 43.5t55.5 130.5q0 120 -149 120h-158z" />
    <glyph glyph-name="S" unicode="S" horiz-adv-x="595" 
d="M278 -12q-94 0 -159.5 41.5t-91.5 123.5l69 29q16 -61 67.5 -94.5t123.5 -33.5q75 0 130.5 36t55.5 101q0 48 -38.5 81t-122.5 64q-93 35 -139 76t-46 106q0 96 70.5 152t179.5 56q81 0 141.5 -31.5t85.5 -100.5l-63 -26q-44 93 -167 93q-69 0 -119.5 -35.5t-50.5 -97.5
q0 -40 42 -72t136 -68q165 -65 165 -180q0 -103 -76.5 -161.5t-192.5 -58.5z" />
    <glyph glyph-name="T" unicode="T" horiz-adv-x="595" 
d="M228 0l113 647h-233l12 66h542l-12 -66h-232l-114 -647h-76z" />
    <glyph glyph-name="U" unicode="U" horiz-adv-x="673" 
d="M303 -12q-61 0 -109.5 17.5t-81.5 61.5t-33 111q0 24 5 54l85 481h77l-83 -466q-5 -30 -5 -49q0 -72 43 -106.5t113 -34.5q92 0 149 49t72 137l84 470h75q-7 -40 -42 -238t-42 -238q-20 -116 -102.5 -182.5t-204.5 -66.5z" />
    <glyph glyph-name="V" unicode="V" horiz-adv-x="584" 
d="M217 -2l-113 715h79l91 -607h3l306 607h80l-368 -715h-78z" />
    <glyph glyph-name="W" unicode="W" horiz-adv-x="870" 
d="M176 -2l-57 715h77l38 -591h2l256 591h72l46 -591h3l248 591h76l-310 -715h-74l-45 591h-3l-254 -591h-75z" />
    <glyph glyph-name="X" unicode="X" horiz-adv-x="567" 
d="M-21 0l292 372l-146 341h83l113 -282l216 282h85l-268 -343l160 -370h-84l-127 306l-238 -306h-86z" />
    <glyph glyph-name="Y" unicode="Y" horiz-adv-x="581" 
d="M217 0l52 296l-157 417h81l125 -341l244 341h86l-305 -418l-51 -295h-75z" />
    <glyph glyph-name="Z" unicode="Z" horiz-adv-x="556" 
d="M5 0q0 1 5.5 30t5.5 30l483 588h-363l11 65h462q0 -1 -5.5 -29.5t-5.5 -29.5l-482 -587h380l-12 -67h-479z" />
    <glyph glyph-name="bracketleft" unicode="[" horiz-adv-x="330" 
d="M34 -187l163 919h193l-9 -47h-129l-145 -824h130l-10 -48h-193z" />
    <glyph glyph-name="backslash" unicode="\" horiz-adv-x="341" 
d="M319 -157l-248 879h57l248 -879h-57z" />
    <glyph glyph-name="bracketright" unicode="]" horiz-adv-x="330" 
d="M-40 -187l9 48h129l144 824h-129l9 47h193l-162 -919h-193z" />
    <glyph glyph-name="asciicircum" unicode="^" horiz-adv-x="499" 
d="M102 161l154 428h78l54 -428h-65l-38 360l-119 -360h-64z" />
    <glyph glyph-name="underscore" unicode="_" horiz-adv-x="500" 
d="M-37 -123l8 49h500l-9 -49h-499z" />
    <glyph glyph-name="grave" unicode="`" horiz-adv-x="308" 
d="M246 581l-123 160h85l97 -160h-59z" />
    <glyph glyph-name="a" unicode="a" horiz-adv-x="533" 
d="M196 -12q-71 0 -112.5 36.5t-41.5 101.5q0 21 4 37q2 11 13.5 78.5t13.5 78.5q17 92 76.5 142t141.5 50q48 0 87.5 -23.5t50.5 -67.5h4l15 80h69l-89 -501h-68l16 89h-3q-32 -49 -82 -75t-95 -26zM224 49q56 0 107 43t63 110l18 105q3 17 3 30q0 54 -34.5 84.5
t-86.5 30.5q-54 0 -95.5 -33.5t-51.5 -92.5l-28 -159q-3 -12 -3 -25q0 -43 29 -68t79 -25z" />
    <glyph glyph-name="b" unicode="b" horiz-adv-x="534" 
d="M253 -12q-44 0 -81.5 25.5t-48.5 66.5h-3q-1 -7 -8 -39.5t-9 -40.5h-66l126 713h71l-52 -294h2q32 45 80 69t95 24q70 0 110.5 -37.5t40.5 -102.5q0 -18 -3 -38q-2 -11 -14 -77.5t-14 -77.5q-16 -92 -78.5 -141.5t-147.5 -49.5zM256 47q58 0 99.5 33t51.5 93l28 161
q2 8 2 23q0 46 -29.5 69.5t-80.5 23.5q-57 0 -106.5 -42.5t-60.5 -111.5l-19 -104q-2 -18 -2 -29q0 -54 33.5 -85t83.5 -31z" />
    <glyph glyph-name="c" unicode="c" horiz-adv-x="476" 
d="M221 -12q-80 0 -131 39.5t-51 110.5q0 39 24 164q20 97 82.5 153.5t157.5 56.5q77 0 123 -36.5t46 -101.5q0 -13 -7 -48h-66q4 23 4 35q0 39 -28 64.5t-82 25.5q-126 0 -155 -143q-23 -126 -23 -158q0 -49 31.5 -75t87.5 -26q84 0 164 67l27 -51q-83 -77 -204 -77z" />
    <glyph glyph-name="d" unicode="d" horiz-adv-x="535" 
d="M195 -12q-71 0 -112.5 36.5t-41.5 101.5q0 21 4 37q2 11 14 78.5t13 78.5q17 92 77 142t142 50q46 0 86 -24t51 -67h2l52 292h71l-126 -713h-68l16 89h-3q-32 -49 -82 -75t-95 -26zM223 49q56 0 107 43t63 110l18 105q3 16 3 32q0 52 -33.5 82.5t-84.5 30.5
q-55 0 -97 -33t-53 -93l-28 -159q-3 -12 -3 -25q0 -43 29 -68t79 -25z" />
    <glyph glyph-name="e" unicode="e" horiz-adv-x="504" 
d="M228 -12q-83 0 -135 39t-52 116q0 24 23 154q18 99 85.5 157t162.5 58q77 0 123 -39t46 -112q0 -28 -17 -125h-337q-13 -69 -13 -83q0 -51 34.5 -78.5t92.5 -27.5q84 0 166 54l25 -46q-73 -67 -204 -67zM136 287h267q8 48 8 63q0 48 -27.5 74.5t-82.5 26.5
q-62 0 -104.5 -38.5t-54.5 -93.5q-6 -30 -6 -32z" />
    <glyph glyph-name="f" unicode="f" horiz-adv-x="321" 
d="M51 -184l110 628h-93l10 56h93l15 88q24 139 158 139q34 0 54 -6l-10 -59q-20 5 -47 5q-31 0 -54 -18.5t-30 -56.5l-16 -92h112l-11 -56h-111l-109 -617z" />
    <glyph glyph-name="g" unicode="g" horiz-adv-x="532" 
d="M174 -207q-53 0 -97 20t-68 55l50 39q46 -56 130 -56q67 0 112 39t57 106q1 5 8.5 50.5t8.5 51.5h-3q-62 -92 -170 -92q-72 0 -113 35.5t-41 101.5q0 22 4 43q1 10 12.5 73.5t12.5 71.5q16 87 74 134.5t138 47.5q46 0 88 -23.5t52 -71.5h2l15 82h69l-88 -501
q-17 -97 -85.5 -151.5t-167.5 -54.5zM231 63q58 0 105.5 39.5t59.5 110.5q20 115 20 126q0 55 -34 83.5t-86 28.5q-55 0 -95.5 -32.5t-51.5 -92.5q-27 -152 -27 -168q0 -44 29 -69.5t80 -25.5z" />
    <glyph glyph-name="h" unicode="h" horiz-adv-x="540" 
d="M37 0l126 713h71l-53 -300h3q33 46 82 72.5t101 26.5q63 0 99 -35t36 -85q0 -19 -6 -45l-61 -347h-71l56 319q6 26 6 47q0 83 -94 83q-62 0 -111.5 -45t-60.5 -112l-51 -292h-72z" />
    <glyph glyph-name="i" unicode="i" horiz-adv-x="214" 
d="M38 0l88 501h71l-88 -501h-71zM143 600l20 108h71l-20 -108h-71z" />
    <glyph glyph-name="j" unicode="j" horiz-adv-x="239" 
d="M-54 -203q-19 0 -37 2l10 61q8 -1 35 -1q75 0 91 85l98 557h71l-99 -563q-25 -141 -169 -141zM160 600l20 108h71l-20 -108h-71z" />
    <glyph glyph-name="k" unicode="k" horiz-adv-x="490" 
d="M37 0l126 713h71l-82 -463l273 251h84l-209 -189l141 -312h-76l-118 265l-109 -96l-30 -169h-71z" />
    <glyph glyph-name="l" unicode="l" horiz-adv-x="281" 
d="M158 -6q-48 0 -72.5 23.5t-24.5 64.5q0 21 4 40l104 591h71l-105 -594q0 -3 -0.5 -11t-0.5 -10q0 -43 53 -43q11 0 34.5 2t24.5 2l-10 -54q-44 -11 -78 -11z" />
    <glyph glyph-name="m" unicode="m" horiz-adv-x="866" 
d="M38 0l88 501h68l-15 -88h3q34 48 83 73.5t102 25.5q59 0 93 -31t38 -79q37 55 89 82.5t106 27.5q63 0 99 -34.5t36 -85.5q0 -12 -5 -45q-5 -28 -31 -173t-31 -174h-71l57 319q6 36 6 47q0 83 -95 83q-60 0 -108 -43.5t-62 -108.5l-53 -297h-71l56 319q6 36 6 47
q0 83 -94 83q-61 0 -110.5 -45t-60.5 -112l-52 -292h-71z" />
    <glyph glyph-name="n" unicode="n" horiz-adv-x="540" 
d="M38 0q7 45 47 270.5t41 230.5h68l-15 -88h3q34 48 83 73.5t102 25.5q63 0 98.5 -34.5t35.5 -85.5q0 -15 -5 -45l-61 -347h-71l56 319q6 36 6 47q0 83 -94 83q-61 0 -110.5 -45t-60.5 -112l-52 -292h-71z" />
    <glyph glyph-name="o" unicode="o" horiz-adv-x="514" 
d="M222 -12q-81 0 -131 38t-50 111q0 23 4 43l23 131q16 92 83.5 146.5t159.5 54.5q80 0 129 -40t49 -113q0 -20 -5 -47l-21 -124q-16 -92 -82.5 -146t-158.5 -54zM230 48q66 0 107.5 36t52.5 101l23 133q4 24 4 33q0 48 -30.5 74t-86.5 26q-66 0 -107.5 -37.5t-52.5 -99.5
l-23 -132q-4 -24 -3 -34q0 -47 30.5 -73.5t85.5 -26.5z" />
    <glyph glyph-name="p" unicode="p" horiz-adv-x="534" 
d="M3 -194l123 695h69l-15 -82h3q32 44 80 68.5t95 24.5q71 0 112.5 -37t41.5 -101q0 -21 -4 -38q-2 -12 -14 -79t-13 -77q-17 -92 -79 -142t-145 -50q-45 0 -82 25t-48 68h-3l-50 -275h-71zM256 48q55 0 98 33t53 92l29 159q2 18 2 26q0 45 -30 69t-82 24
q-56 0 -104.5 -42.5t-60.5 -108.5l-19 -107q0 -3 -1 -9.5t-1.5 -11.5t-0.5 -9q0 -54 33.5 -84.5t83.5 -30.5z" />
    <glyph glyph-name="q" unicode="q" horiz-adv-x="535" 
d="M322 -198l50 282h-2q-34 -47 -82.5 -71.5t-92.5 -24.5q-71 0 -112.5 37t-41.5 102q0 20 4 37q7 50 27 156q16 92 75.5 142t141.5 50q48 0 88.5 -24t50.5 -68h2l14 81h71l-123 -699h-70zM223 49q56 0 106.5 43t62.5 110l18 106q4 20 4 31q0 53 -35.5 83t-86.5 30
q-53 0 -94.5 -34t-52.5 -93l-28 -161q-2 -14 -2 -21q0 -44 28.5 -69t79.5 -25z" />
    <glyph glyph-name="r" unicode="r" horiz-adv-x="375" 
d="M38 0l88 501h69l-18 -102h3q35 57 90 83t111 26q14 0 34 -2l-12 -66q-15 2 -49 2q-75 0 -128.5 -44.5t-68.5 -124.5l-48 -273h-71z" />
    <glyph glyph-name="s" unicode="s" horiz-adv-x="458" 
d="M198 -12q-129 0 -187 71l45 44q61 -58 146 -58q55 0 96 22.5t41 73.5q0 29 -25.5 47.5t-81.5 39.5q-78 30 -112 57.5t-34 76.5q0 67 52 109t139 42q107 0 165 -54l-43 -45q-54 43 -130 43q-49 0 -82.5 -24t-33.5 -64q0 -25 19 -41.5t61 -32.5q96 -38 122 -56
q54 -35 54 -87q0 -84 -62 -124t-149 -40z" />
    <glyph glyph-name="t" unicode="t" horiz-adv-x="348" 
d="M189 -7q-108 0 -108 84q0 8 2 26l60 340h-90l10 57h90l28 157h71l-28 -157h137l-10 -57h-137l-56 -321q-2 -14 -2 -21q0 -45 61 -45q34 0 75 9l-10 -61q-45 -11 -93 -11z" />
    <glyph glyph-name="u" unicode="u" horiz-adv-x="537" 
d="M190 -11q-65 0 -99.5 33.5t-34.5 90.5q0 15 4 41l62 347h71l-57 -319q-5 -32 -5 -47q0 -84 94 -84q61 0 110 45.5t61 112.5l52 292h71q-7 -38 -44.5 -250.5t-44.5 -250.5h-68l16 87l-4 1q-34 -48 -82.5 -73.5t-101.5 -25.5z" />
    <glyph glyph-name="v" unicode="v" horiz-adv-x="466" 
d="M160 0l-93 501h73l70 -411h3l210 411h74l-265 -501h-72z" />
    <glyph glyph-name="w" unicode="w" horiz-adv-x="747" 
d="M137 -1l-68 502h75l45 -408h2l196 408h66l52 -408h3l192 408h74l-247 -502h-72l-50 408h-3l-193 -408h-72z" />
    <glyph glyph-name="x" unicode="x" horiz-adv-x="463" 
d="M-19 0l223 262l-121 239h77l91 -186l154 186h82l-205 -239l132 -262h-78l-100 206l-172 -206h-83z" />
    <glyph glyph-name="y" unicode="y" horiz-adv-x="482" 
d="M15 -204q-27 0 -60 8l12 61q29 -6 59 -6t56.5 18.5t42.5 47.5l47 87l-103 489h76l78 -404h2l205 404h77l-318 -592q-60 -113 -174 -113z" />
    <glyph glyph-name="z" unicode="z" horiz-adv-x="451" 
d="M0 0l9 54l344 389h-267l11 58h363l-10 -54l-345 -387h282l-10 -60h-377z" />
    <glyph glyph-name="braceleft" unicode="{" horiz-adv-x="325" 
d="M107 -184q-61 0 -61 60q0 15 2 24l57 322q2 18 2 22q0 16 -8.5 24t-28.5 11l10 51q28 5 38 15t14 33l45 251q7 41 31 62.5t58 21.5h120l-9 -48h-110q-19 0 -23 -21l-44 -255q-11 -62 -64 -82l-1 -4q38 -18 38 -53q0 -4 -1.5 -15t-1.5 -15l-59 -335q-1 -3 -1 -7
q0 -14 17 -14h110l-10 -48h-120z" />
    <glyph glyph-name="bar" unicode="|" horiz-adv-x="325" 
d="M71 -53l137 778h60l-137 -778h-60z" />
    <glyph glyph-name="braceright" unicode="}" horiz-adv-x="325" 
d="M-44 -184l9 48h109q19 0 23 21l59 335q6 36 20 54t43 29l1 4q-37 15 -37 56q0 11 3 26l44 255v6q0 15 -15 15h-110l9 48h120q61 0 61 -61q0 -5 -2 -23l-45 -251q-2 -14 -2 -17q0 -24 39 -31l-9 -51q-26 -3 -38 -15.5t-17 -41.5l-56 -322q-7 -41 -31 -62.5t-59 -21.5h-119
z" />
    <glyph glyph-name="asciitilde" unicode="~" horiz-adv-x="563" 
d="M80 262l-42 8q34 97 109 97q27 0 156 -18t156 -18q14 0 25 7.5t16 15.5t15 25l41 -9q-37 -98 -107 -98q-29 0 -159 18t-156 18q-13 0 -23 -7t-15 -14t-16 -25z" />
    <glyph glyph-name="nbspace" unicode="&#xa0;" horiz-adv-x="110" 
 />
    <glyph glyph-name="exclamdown" unicode="&#xa1;" horiz-adv-x="281" 
d="M39 -174l39 219l67 297h47l-37 -298l-39 -218h-77zM145 422l20 117h78l-21 -117h-77z" />
    <glyph glyph-name="cent" unicode="&#xa2;" horiz-adv-x="529" 
d="M195 -73l17 103q-67 6 -105 42t-38 96q1 35 29 192q15 83 70 134.5t136 59.5l16 101h61l-16 -102q62 -6 96.5 -39.5t34.5 -87.5q0 -10 -7 -52h-68q5 33 5 37q0 36 -26.5 60.5t-77.5 24.5q-62 0 -102.5 -38t-50.5 -97q-2 -14 -12 -69t-13 -69q-4 -24 -4 -37
q0 -47 29.5 -73t82.5 -25q57 1 95 30.5t46 91.5h67q-21 -156 -187 -180l-17 -103h-61z" />
    <glyph glyph-name="sterling" unicode="&#xa3;" horiz-adv-x="580" 
d="M33 0l11 61h83l48 275h-74l8 48h74l28 151q17 96 79 143t151 47q71 0 112.5 -33t41.5 -96q0 -27 -8 -64h-67q7 35 7 52q0 85 -101 85q-54 0 -92.5 -30t-49.5 -94l-29 -161h216l-8 -48h-215l-49 -275h323l-27 -61h-462z" />
    <glyph glyph-name="currency" unicode="&#xa4;" horiz-adv-x="437" 
d="M81 175l-36 37l45 47q-29 41 -29 91q0 47 29 89l-12.5 12.5t-21 21.5t-11.5 12l36 36l45 -43q43 30 92 30q52 0 93 -30l44 44l38 -37l-45 -45q30 -41 30 -91q0 -48 -31 -92l45 -45l-37 -37l-45 45q-40 -28 -90 -28q-49 0 -93 28zM219 241q48 0 75 30.5t27 78.5
q0 46 -28.5 77.5t-72.5 31.5q-48 0 -75 -31t-27 -80q0 -44 27.5 -75.5t73.5 -31.5z" />
    <glyph glyph-name="yen" unicode="&#xa5;" horiz-adv-x="585" 
d="M218 0l48 270h-197l8 50h187l-144 393h80l122 -347l246 347h77l-282 -393h184l-8 -50h-195l-47 -270h-79z" />
    <glyph glyph-name="brokenbar" unicode="&#xa6;" horiz-adv-x="436" 
d="M155 -49l64 363h46l-64 -363h-46zM231 385l59 328h46l-58 -328h-47z" />
    <glyph glyph-name="section" unicode="&#xa7;" horiz-adv-x="567" 
d="M224 -90q-72 0 -122.5 28.5t-50.5 89.5q0 26 8 57h62q-5 -24 -5 -40q0 -78 120 -78q66 0 111 31.5t45 79.5q0 33 -27 51t-96 38q-83 25 -119 54.5t-37 73.5q0 97 114 155q-69 37 -69 95q0 72 57.5 123t158.5 51q78 0 121 -30.5t43 -86.5q0 -22 -8 -55h-61q6 32 6 39
q0 35 -29 56t-83 21q-57 0 -98 -26.5t-41 -74.5q0 -18 12 -32t25 -21t35 -16q115 -45 147 -65q55 -38 56 -86q0 -43 -31.5 -86t-80.5 -65q71 -33 71 -95q0 -79 -65.5 -132.5t-168.5 -53.5zM330 218q41 13 71.5 43.5t30.5 60.5q0 27 -33 49.5t-118 49.5q-38 -15 -69.5 -44
t-31.5 -65q0 -26 22 -43t70 -32q2 -1 15.5 -5t26 -8.5t16.5 -5.5z" />
    <glyph glyph-name="dieresis" unicode="&#xa8;" horiz-adv-x="445" 
d="M156 583l18 104h72l-19 -104h-71zM348 583l19 104h72l-19 -104h-72z" />
    <glyph glyph-name="copyright" unicode="&#xa9;" horiz-adv-x="937" 
d="M447 74q-78 0 -124 39t-46 107q0 13 32 194q16 92 80 145t154 53q77 0 121.5 -34t44.5 -95q0 -8 -8 -59h-66q6 36 6 44q0 38 -25.5 62t-81.5 24q-65 0 -104.5 -39.5t-50.5 -101.5q-6 -36 -13 -72.5t-10 -52.5t-5 -31.5t-2 -25.5q0 -100 110 -100q65 0 100 31.5t44 74.5
q4 20 4 24h65q0 -2 -3 -15.5t-4 -17.5q-15 -74 -74 -114t-144 -40zM421 -63q-160 0 -248.5 88t-88.5 232q0 130 63 244t174.5 183.5t244.5 69.5q159 0 249.5 -92t90.5 -236q0 -128 -63 -240t-175.5 -180.5t-246.5 -68.5zM427 -23q108 0 206 56t160.5 160.5t62.5 230.5
q0 135 -84 212.5t-213 77.5q-106 0 -202.5 -54.5t-159.5 -159.5t-63 -236q0 -135 80 -211t213 -76z" />
    <glyph glyph-name="ordfeminine" unicode="&#xaa;" horiz-adv-x="392" 
d="M199 376q-39 0 -66 19t-27 55q0 37 17 63t45 38t55 17t57 5h58q9 56 9 60q0 51 -61 51q-31 0 -55.5 -14.5t-30.5 -42.5q0 -1 -1 -6l-1 -5h-49l1 5q1 5 1 6q9 48 51.5 72t95.5 24q45 0 74.5 -19t29.5 -60q0 -10 -3 -20q-36 -217 -38 -240h-49q0 3 2 23.5t3 23.5
q-47 -55 -118 -55zM222 416q37 0 67 23t36 60l7 41h-66q-103 0 -103 -77q0 -23 17 -35t42 -12zM90 273l10 47h247l-10 -47h-247z" />
    <glyph glyph-name="guillemotleft" unicode="&#xab;" horiz-adv-x="549" 
d="M226 79l-158 188l224 190l30 -35l-166 -156l111 -157zM449 79l-158 188l223 190l31 -35l-166 -156l111 -157z" />
    <glyph glyph-name="logicalnot" unicode="&#xac;" horiz-adv-x="622" 
d="M477 100l35 200h-454l9 51h512l-45 -251h-57z" />
    <glyph glyph-name="registered" unicode="&#xae;" horiz-adv-x="525" 
d="M285 314q-81 0 -129 47.5t-48 121.5q0 104 75 179t177 75q83 0 131 -46.5t48 -122.5q0 -101 -74.5 -177.5t-179.5 -76.5zM289 344q82 0 147.5 62.5t65.5 156.5q0 68 -39 107t-108 39q-81 0 -145 -61.5t-64 -158.5q0 -66 40.5 -105.5t102.5 -39.5zM220 404l44 249h96
q35 0 54.5 -16.5t19.5 -44.5q0 -31 -19.5 -55t-53.5 -32q5 -9 25.5 -51t25.5 -50h-43l-49 97h-43l-17 -97h-40zM282 531h48q29 0 46 14.5t17 40.5q0 34 -48 34h-47z" />
    <glyph glyph-name="macron" unicode="&#xaf;" horiz-adv-x="400" 
d="M131 598l12 63h269l-12 -63h-269z" />
    <glyph glyph-name="degree" unicode="&#xb0;" horiz-adv-x="333" 
d="M217 513q-42 0 -67.5 24.5t-25.5 62.5q0 51 39 89.5t92 38.5q42 0 67.5 -25t25.5 -64q0 -51 -39.5 -88.5t-91.5 -37.5zM223 548q34 0 59.5 25.5t25.5 59.5q0 26 -16 43t-45 17q-32 0 -57.5 -26t-25.5 -60q0 -26 16.5 -42.5t42.5 -16.5z" />
    <glyph glyph-name="plusminus" unicode="&#xb1;" 
d="M5 14l8 52h482l-9 -52h-481zM243 150l39 220h-220l9 51h219l39 220h53l-39 -220h218l-8 -51h-219l-38 -220h-53z" />
    <glyph glyph-name="twosuperior" unicode="&#xb2;" horiz-adv-x="345" 
d="M93 380l7 39l144 134q25 23 39.5 39.5t28.5 44t14 54.5q0 49 -57 49q-28 0 -48.5 -15t-27.5 -44q-1 -1 -2 -7t-1 -7h-54q3 6 3 17q10 51 48.5 77t94.5 26q51 0 77.5 -23.5t26.5 -62.5q0 -24 -9.5 -49.5t-19 -42.5t-34 -43.5t-34.5 -36.5t-41 -39l-67 -61h166l-8 -49h-246
z" />
    <glyph glyph-name="threesuperior" unicode="&#xb3;" horiz-adv-x="348" 
d="M202 368q-55 0 -83 21.5t-28 57.5q0 13 2 19q0 8 3 14h56l-2 -6q0 -1 -0.5 -7t-0.5 -9q0 -44 64 -44q34 0 60.5 24t26.5 63q0 31 -21.5 43.5t-44.5 12.5h-39l7 44h37q35 0 59.5 21t24.5 61q0 25 -16 37.5t-40 12.5q-30 0 -51 -14.5t-26 -42.5l-2 -10h-56l3 15
q8 45 46.5 72.5t96.5 27.5q52 0 77.5 -24t25.5 -61q0 -39 -22 -71.5t-61 -42.5v-1q28 -8 45.5 -28t17.5 -50q0 -63 -49 -99t-110 -36z" />
    <glyph glyph-name="acute" unicode="&#xb4;" horiz-adv-x="283" 
d="M140 581l117 160h86l-143 -160h-60z" />
    <glyph glyph-name="mu" unicode="&#xb5;" horiz-adv-x="539" 
d="M4 -178l119 679h72l-59 -338q-3 -12 -3 -23q0 -39 25 -63t68 -24q57 0 107.5 43t60.5 99l54 306h73l-60 -340q-4 -22 -4 -31q0 -45 31 -51l-15 -82q-84 13 -82 105q-70 -114 -181 -114q-77 0 -102 69l-4 -1l-25 -229z" />
    <glyph glyph-name="paragraph" unicode="&#xb6;" horiz-adv-x="621" 
d="M210 -90l57 323q-49 3 -83.5 24t-49.5 53.5t-20 74t5 86.5q17 96 85.5 169t153.5 73h295l-7 -44h-75l-134 -759h-49l134 759h-130l-134 -759h-48z" />
    <glyph glyph-name="periodcentered" unicode="&#xb7;" horiz-adv-x="221" 
d="M99 345l21 116h77l-21 -116h-77z" />
    <glyph glyph-name="periodcentered" unicode="&#x22c5;" horiz-adv-x="221" 
d="M99 345l21 116h77l-21 -116h-77z" />
    <glyph glyph-name="cedilla" unicode="&#xb8;" horiz-adv-x="345" 
d="M117 -208q-53 0 -95 20l8 41q48 -19 88 -19q75 0 75 49q0 31 -74 33h-22l36 102h38l-23 -65q106 0 106 -62q0 -42 -37 -70.5t-100 -28.5z" />
    <glyph glyph-name="onesuperior" unicode="&#xb9;" horiz-adv-x="314" 
d="M84 380l8 42h90l53 301l-87 -13l4 40l124 28h29l-63 -356h83l-7 -42h-234z" />
    <glyph glyph-name="ordmasculine" unicode="&#xba;" horiz-adv-x="395" 
d="M227 375q-54 0 -85 24.5t-31 73.5q0 18 18 115q11 64 54 99t105 35q54 0 84.5 -25t30.5 -74q0 -16 -17 -116q-11 -62 -54 -97t-105 -35zM234 418q79 0 96 90q17 100 17 110q0 61 -65 61q-82 0 -96 -90q-2 -10 -7 -34t-8 -44t-3 -33q0 -60 66 -60zM85 273l10 47h247
l-10 -47h-247z" />
    <glyph glyph-name="guillemotright" unicode="&#xbb;" horiz-adv-x="549" 
d="M64 79l-32 38l168 152l-113 156l42 32l158 -189zM287 79l-32 38l168 152l-113 156l42 32l158 -189z" />
    <glyph glyph-name="onequarter" unicode="&#xbc;" horiz-adv-x="831" 
d="M67 316l8 42h90l53 301l-87 -13l4 40l124 28h29l-63 -356h83l-7 -42h-234zM643 0l18 102h-174l7 45l204 253h66l-208 -251h113l13 77l64 37l-20 -114h52l-8 -47h-52l-19 -102h-56zM173 -2l498 715h52l-497 -715h-53z" />
    <glyph glyph-name="onehalf" unicode="&#xbd;" horiz-adv-x="831" 
d="M67 316l8 42h90l53 301l-87 -13l4 40l124 28h29l-63 -356h83l-7 -42h-234zM508 0l7 39l144 134q25 23 39.5 39.5t28.5 44t14 54.5q0 49 -57 49q-28 0 -48.5 -15t-27.5 -44q-1 -1 -2 -7t-1 -7h-54q3 6 3 17q10 51 48.5 77t94.5 26q51 0 77.5 -23.5t26.5 -62.5
q0 -24 -9.5 -49.5t-19 -42.5t-34 -43.5t-34.5 -36.5t-41 -39l-67 -61h166l-8 -49h-246zM173 -2l498 715h52l-497 -715h-53z" />
    <glyph glyph-name="threequarters" unicode="&#xbe;" horiz-adv-x="831" 
d="M643 0l18 102h-174l7 45l204 253h66l-208 -251h113l13 77l64 37l-20 -114h52l-8 -47h-52l-19 -102h-56zM185 304q-55 0 -83 21.5t-28 57.5q0 13 2 19q0 8 3 14h56l-2 -6q0 -1 -0.5 -7t-0.5 -9q0 -44 64 -44q34 0 60.5 24t26.5 63q0 31 -21.5 43.5t-44.5 12.5h-39l7 44h37
q35 0 59.5 21t24.5 61q0 25 -16 37.5t-40 12.5q-30 0 -51 -14.5t-26 -42.5l-2 -10h-56l3 15q8 45 46.5 72.5t96.5 27.5q52 0 77.5 -24t25.5 -61q0 -39 -22 -71.5t-61 -42.5v-1q63 -18 63 -78q0 -63 -49 -99t-110 -36zM180 -2l498 715h52l-497 -715h-53z" />
    <glyph glyph-name="questiondown" unicode="&#xbf;" horiz-adv-x="524" 
d="M203 -186q-79 0 -123 36.5t-44 102.5q0 40 11 74t33 61.5t40.5 45t48.5 41.5q5 4 28 22t30 24t21 21t20 28.5t9 30.5l8 45h67l-8 -46q-15 -72 -97 -142q-6 -5 -29.5 -23.5t-32.5 -27t-27 -27t-26 -32.5t-15 -35t-7 -43q0 -46 29 -71.5t80 -25.5q50 0 95 28.5t59 92.5
q4 16 4 23h67l-5 -31q-16 -87 -81.5 -129.5t-154.5 -42.5zM293 422l21 116h79l-21 -116h-79z" />
    <glyph glyph-name="Agrave" unicode="&#xc0;" horiz-adv-x="656" 
d="M0 0l391 715h73l136 -715h-79l-36 209h-294l-112 -209h-79zM223 274h251l-62 347h-3zM393 787l-123 160h85l97 -160h-59z" />
    <glyph glyph-name="Aacute" unicode="&#xc1;" horiz-adv-x="656" 
d="M0 0l391 715h73l136 -715h-79l-36 209h-294l-112 -209h-79zM223 274h251l-62 347h-3zM402 789l117 160h86l-143 -160h-60z" />
    <glyph glyph-name="Acircumflex" unicode="&#xc2;" horiz-adv-x="656" 
d="M0 0l391 715h73l136 -715h-79l-36 209h-294l-112 -209h-79zM223 274h251l-62 347h-3zM299 780l123 159h69l60 -159h-62l-41 111l-84 -111h-65z" />
    <glyph glyph-name="Atilde" unicode="&#xc3;" horiz-adv-x="656" 
d="M0 0l391 715h73l136 -715h-79l-36 209h-294l-112 -209h-79zM223 274h251l-62 347h-3zM294 772q-35 6 -41 8q34 98 108 98q28 0 79 -18t80 -18q34 0 58 49l38 -10q-34 -98 -107 -98q-29 0 -81.5 18t-78.5 18q-19 0 -30 -10.5t-25 -36.5z" />
    <glyph glyph-name="Adieresis" unicode="&#xc4;" horiz-adv-x="656" 
d="M0 0l391 715h73l136 -715h-79l-36 209h-294l-112 -209h-79zM223 274h251l-62 347h-3zM300 790l18 104h72l-19 -104h-71zM492 790l19 104h72l-19 -104h-72z" />
    <glyph glyph-name="Aring" unicode="&#xc5;" horiz-adv-x="656" 
d="M0 0l391 715h73l136 -715h-79l-36 209h-294l-112 -209h-79zM223 274h251l-62 347h-3zM437 759q-37 0 -59 19t-22 51q0 44 32.5 76.5t75.5 32.5q37 0 59.5 -18.5t22.5 -51.5q0 -45 -32.5 -77t-76.5 -32zM440 793q25 0 45 19t20 48q0 44 -47 44q-25 0 -43 -19.5t-18 -48.5
q0 -20 12.5 -31.5t30.5 -11.5z" />
    <glyph glyph-name="AE" unicode="&#xc6;" horiz-adv-x="964" 
d="M-16 0l527 713h491l-10 -63h-368l-44 -251h291l-12 -62h-290l-48 -274h367l-11 -63h-444l35 204h-251l-151 -204h-82zM258 264h221l68 391z" />
    <glyph glyph-name="Ccedilla" unicode="&#xc7;" horiz-adv-x="639" 
d="M259 -208q-53 0 -95 20l8 41q48 -19 88 -19q75 0 75 49q0 31 -74 33h-22l25 73q-92 6 -150.5 55.5t-58.5 138.5q0 26 4 47q3 20 21 122t21 122q22 116 108 184t206 68q97 0 158.5 -46.5t61.5 -127.5q0 -26 -9 -73h-73q6 37 6 54q0 58 -42 91.5t-116 33.5q-85 0 -147 -51
t-76 -132l-42 -240q-3 -18 -3 -37q0 -67 46 -104.5t121 -37.5q82 0 137 43t68 113l1 6q2 6 2 7h73l-5 -26q-18 -93 -93 -150t-181 -61l-12 -35q106 0 106 -62q0 -42 -37 -70.5t-100 -28.5z" />
    <glyph glyph-name="Egrave" unicode="&#xc8;" horiz-adv-x="594" 
d="M48 0l126 713h455l-11 -67h-379l-43 -244h318l-12 -68h-318l-47 -267h380l-11 -67h-458zM394 788l-123 160h85l97 -160h-59z" />
    <glyph glyph-name="Eacute" unicode="&#xc9;" horiz-adv-x="594" 
d="M371 789l117 160h86l-143 -160h-60zM48 0l126 713h455l-11 -67h-379l-43 -244h318l-12 -68h-318l-47 -267h380l-11 -67h-458z" />
    <glyph glyph-name="Ecircumflex" unicode="&#xca;" horiz-adv-x="594" 
d="M287 785l123 159h69l60 -159h-62l-41 111l-84 -111h-65zM48 0l126 713h455l-11 -67h-379l-43 -244h318l-12 -68h-318l-47 -267h380l-11 -67h-458z" />
    <glyph glyph-name="Edieresis" unicode="&#xcb;" horiz-adv-x="594" 
d="M285 790l18 104h72l-19 -104h-71zM477 790l19 104h72l-19 -104h-72zM48 0l126 713h455l-11 -67h-379l-43 -244h318l-12 -68h-318l-47 -267h380l-11 -67h-458z" />
    <glyph glyph-name="Igrave" unicode="&#xcc;" horiz-adv-x="237" 
d="M48 0l126 713h77l-126 -713h-77zM180 788l-123 160h85l97 -160h-59z" />
    <glyph glyph-name="Iacute" unicode="&#xcd;" horiz-adv-x="237" 
d="M48 0l126 713h77l-126 -713h-77zM189 788l117 160h86l-143 -160h-60z" />
    <glyph glyph-name="Icircumflex" unicode="&#xce;" horiz-adv-x="237" 
d="M48 0l126 713h77l-126 -713h-77zM91 786l123 159h69l60 -159h-62l-41 111l-84 -111h-65z" />
    <glyph glyph-name="Idieresis" unicode="&#xcf;" horiz-adv-x="237" 
d="M48 0l126 713h77l-126 -713h-77zM85 790l18 104h72l-19 -104h-71zM277 790l19 104h72l-19 -104h-72z" />
    <glyph glyph-name="Eth" unicode="&#xd0;" horiz-adv-x="666" 
d="M39 342l10 56h76l56 315h264q97 0 157.5 -49t60.5 -140q0 -21 -5 -51l-21 -119t-21 -118q-19 -110 -99.5 -173t-196.5 -63h-265l60 342h-76zM144 67h183q87 0 143.5 47t68.5 120q3 18 21 120t21 120q5 32 5 40q0 62 -42.5 97t-116.5 35h-181l-44 -248h204l-10 -56h-204z
" />
    <glyph glyph-name="Ntilde" unicode="&#xd1;" horiz-adv-x="683" 
d="M48 0l126 713h77l267 -583h2l103 583h73l-126 -713h-73l-269 589h-2l-104 -589h-74zM315 772q-35 6 -41 8q34 98 108 98q28 0 79 -18t80 -18q20 0 33 12t25 37l38 -10q-34 -98 -107 -98q-29 0 -81.5 18t-78.5 18q-19 0 -30 -10.5t-25 -36.5z" />
    <glyph glyph-name="Ograve" unicode="&#xd2;" horiz-adv-x="666" 
d="M303 -12q-101 0 -167.5 49t-66.5 143q0 25 4 45q3 20 21.5 122t21.5 122q20 115 108.5 186t206.5 71q102 0 167.5 -52t65.5 -145q0 -26 -4 -49q-3 -18 -20.5 -117t-21.5 -118q-21 -115 -109.5 -186t-205.5 -71zM314 56q84 0 147.5 50t78.5 132q2 10 12.5 68t19 108.5
t11.5 68.5q4 17 4 38q0 66 -45.5 101.5t-121.5 35.5q-88 0 -149 -49.5t-78 -138.5q-35 -200 -42 -235q-3 -21 -3 -39q0 -66 46 -103t120 -37zM416 788l-123 160h85l97 -160h-59z" />
    <glyph glyph-name="Oacute" unicode="&#xd3;" horiz-adv-x="666" 
d="M407 788l117 160h86l-143 -160h-60zM303 -12q-101 0 -167.5 49t-66.5 143q0 25 4 45q3 20 21.5 122t21.5 122q20 115 108.5 186t206.5 71q102 0 167.5 -52t65.5 -145q0 -26 -4 -49q-3 -18 -20.5 -117t-21.5 -118q-21 -115 -109.5 -186t-205.5 -71zM314 56q84 0 147.5 50
t78.5 132q2 10 12.5 68t19 108.5t11.5 68.5q4 17 4 38q0 66 -45.5 101.5t-121.5 35.5q-88 0 -149 -49.5t-78 -138.5q-35 -200 -42 -235q-3 -21 -3 -39q0 -66 46 -103t120 -37z" />
    <glyph glyph-name="Ocircumflex" unicode="&#xd4;" horiz-adv-x="666" 
d="M315 787l123 159h69l60 -159h-62l-41 111l-84 -111h-65zM303 -12q-101 0 -167.5 49t-66.5 143q0 25 4 45q3 20 21.5 122t21.5 122q20 115 108.5 186t206.5 71q102 0 167.5 -52t65.5 -145q0 -26 -4 -49q-3 -18 -20.5 -117t-21.5 -118q-21 -115 -109.5 -186t-205.5 -71z
M314 56q84 0 147.5 50t78.5 132q2 10 12.5 68t19 108.5t11.5 68.5q4 17 4 38q0 66 -45.5 101.5t-121.5 35.5q-88 0 -149 -49.5t-78 -138.5q-35 -200 -42 -235q-3 -21 -3 -39q0 -66 46 -103t120 -37z" />
    <glyph glyph-name="Otilde" unicode="&#xd5;" horiz-adv-x="666" 
d="M303 -12q-101 0 -167.5 49t-66.5 143q0 25 4 45q3 20 21.5 122t21.5 122q20 115 108.5 186t206.5 71q102 0 167.5 -52t65.5 -145q0 -26 -4 -49q-3 -18 -20.5 -117t-21.5 -118q-21 -115 -109.5 -186t-205.5 -71zM314 56q84 0 147.5 50t78.5 132q2 10 12.5 68t19 108.5
t11.5 68.5q4 17 4 38q0 66 -45.5 101.5t-121.5 35.5q-88 0 -149 -49.5t-78 -138.5q-35 -200 -42 -235q-3 -21 -3 -39q0 -66 46 -103t120 -37zM302 772q-35 6 -41 8q34 98 108 98q28 0 79 -18t80 -18q34 0 58 49l38 -10q-34 -98 -107 -98q-29 0 -81.5 18t-78.5 18
q-19 0 -30 -10.5t-25 -36.5z" />
    <glyph glyph-name="Odieresis" unicode="&#xd6;" horiz-adv-x="666" 
d="M305 790l18 104h72l-19 -104h-71zM497 790l19 104h72l-19 -104h-72zM303 -12q-101 0 -167.5 49t-66.5 143q0 25 4 45q3 20 21.5 122t21.5 122q20 115 108.5 186t206.5 71q102 0 167.5 -52t65.5 -145q0 -26 -4 -49q-3 -18 -20.5 -117t-21.5 -118q-21 -115 -109.5 -186
t-205.5 -71zM314 56q84 0 147.5 50t78.5 132q2 10 12.5 68t19 108.5t11.5 68.5q4 17 4 38q0 66 -45.5 101.5t-121.5 35.5q-88 0 -149 -49.5t-78 -138.5q-35 -200 -42 -235q-3 -21 -3 -39q0 -66 46 -103t120 -37z" />
    <glyph glyph-name="multiply" unicode="&#xd7;" 
d="M92 101l-34 41l209 177l-149 182l45 37l148 -182l204 176l35 -42l-204 -175l153 -180l-46 -37l-153 180z" />
    <glyph glyph-name="Oslash" unicode="&#xd8;" horiz-adv-x="666" 
d="M117 -56l-39 25l51 73q-60 52 -60 138q0 25 4 45q3 20 21.5 122t21.5 122q20 115 108.5 186t206.5 71q87 0 148 -38l49 70l39 -26l-52 -74q49 -51 49 -129q0 -26 -4 -49q-3 -18 -20.5 -117t-21.5 -118q-21 -115 -109.5 -186t-205.5 -71q-77 0 -135 29zM148 196
q0 -52 28 -86l360 516q-44 32 -116 32q-88 0 -149 -49.5t-78 -138.5q-35 -200 -42 -235q-3 -21 -3 -39zM314 56q84 0 147.5 50t78.5 132q2 10 12.5 68t19 108.5t11.5 68.5q4 17 4 38q0 39 -18 70l-357 -511q40 -24 102 -24z" />
    <glyph glyph-name="Ugrave" unicode="&#xd9;" horiz-adv-x="673" 
d="M303 -12q-61 0 -109.5 17.5t-81.5 61.5t-33 111q0 24 5 54l85 481h77l-83 -466q-5 -30 -5 -49q0 -72 43 -106.5t113 -34.5q92 0 149 49t72 137l84 470h75q-7 -40 -42 -238t-42 -238q-20 -116 -102.5 -182.5t-204.5 -66.5zM424 789l-123 160h85l97 -160h-59z" />
    <glyph glyph-name="Uacute" unicode="&#xda;" horiz-adv-x="673" 
d="M409 789l117 160h86l-143 -160h-60zM303 -12q-61 0 -109.5 17.5t-81.5 61.5t-33 111q0 24 5 54l85 481h77l-83 -466q-5 -30 -5 -49q0 -72 43 -106.5t113 -34.5q92 0 149 49t72 137l84 470h75q-7 -40 -42 -238t-42 -238q-20 -116 -102.5 -182.5t-204.5 -66.5z" />
    <glyph glyph-name="Ucircumflex" unicode="&#xdb;" horiz-adv-x="673" 
d="M319 786l123 159h69l60 -159h-62l-41 111l-84 -111h-65zM303 -12q-61 0 -109.5 17.5t-81.5 61.5t-33 111q0 24 5 54l85 481h77l-83 -466q-5 -30 -5 -49q0 -72 43 -106.5t113 -34.5q92 0 149 49t72 137l84 470h75q-7 -40 -42 -238t-42 -238q-20 -116 -102.5 -182.5
t-204.5 -66.5z" />
    <glyph glyph-name="Udieresis" unicode="&#xdc;" horiz-adv-x="673" 
d="M311 790l18 104h72l-19 -104h-71zM503 790l19 104h72l-19 -104h-72zM303 -12q-61 0 -109.5 17.5t-81.5 61.5t-33 111q0 24 5 54l85 481h77l-83 -466q-5 -30 -5 -49q0 -72 43 -106.5t113 -34.5q92 0 149 49t72 137l84 470h75q-7 -40 -42 -238t-42 -238
q-20 -116 -102.5 -182.5t-204.5 -66.5z" />
    <glyph glyph-name="Yacute" unicode="&#xdd;" horiz-adv-x="581" 
d="M217 0l52 296l-157 417h81l125 -341l244 341h86l-305 -418l-51 -295h-75zM358 788l117 160h86l-143 -160h-60z" />
    <glyph glyph-name="Thorn" unicode="&#xde;" horiz-adv-x="601" 
d="M48 0l125 713h77l-22 -124h174q89 0 142.5 -45.5t53.5 -125.5q0 -119 -81.5 -189.5t-203.5 -70.5h-160l-28 -158h-77zM164 222h146q93 0 152 47.5t59 136.5q0 56 -39 87.5t-101 31.5h-163z" />
    <glyph glyph-name="germandbls" unicode="&#xdf;" horiz-adv-x="647" 
d="M51 -181l110 625h-93l10 56h93q19 115 86.5 170.5t165.5 55.5q82 0 135.5 -39t53.5 -109q0 -71 -40.5 -127.5t-117.5 -82.5l-1 -4q69 -15 105.5 -58.5t36.5 -101.5q0 -95 -70 -155t-169 -60q-70 0 -114 18l12 60q55 -13 97 -13q70 0 119.5 41.5t49.5 109.5
q0 64 -50.5 93.5t-120.5 30.5l10 53h26q78 20 115.5 69.5t37.5 115.5q0 53 -35 79t-93 26q-67 0 -111 -42.5t-56 -116.5l-121 -687z" />
    <glyph glyph-name="agrave" unicode="&#xe0;" horiz-adv-x="533" 
d="M196 -12q-71 0 -112.5 36.5t-41.5 101.5q0 21 4 37q2 11 13.5 78.5t13.5 78.5q17 92 76.5 142t141.5 50q48 0 87.5 -23.5t50.5 -67.5h4l15 80h69l-89 -501h-68l16 89h-3q-32 -49 -82 -75t-95 -26zM224 49q56 0 107 43t63 110l18 105q3 17 3 30q0 54 -34.5 84.5
t-86.5 30.5q-54 0 -95.5 -33.5t-51.5 -92.5l-28 -159q-3 -12 -3 -25q0 -43 29 -68t79 -25zM277 581l-123 160h85l97 -160h-59z" />
    <glyph glyph-name="aacute" unicode="&#xe1;" horiz-adv-x="533" 
d="M196 -12q-71 0 -112.5 36.5t-41.5 101.5q0 21 4 37q2 11 13.5 78.5t13.5 78.5q17 92 76.5 142t141.5 50q48 0 87.5 -23.5t50.5 -67.5h4l15 80h69l-89 -501h-68l16 89h-3q-32 -49 -82 -75t-95 -26zM224 49q56 0 107 43t63 110l18 105q3 17 3 30q0 54 -34.5 84.5
t-86.5 30.5q-54 0 -95.5 -33.5t-51.5 -92.5l-28 -159q-3 -12 -3 -25q0 -43 29 -68t79 -25zM274 581l117 160h86l-143 -160h-60z" />
    <glyph glyph-name="acircumflex" unicode="&#xe2;" horiz-adv-x="533" 
d="M196 -12q-71 0 -112.5 36.5t-41.5 101.5q0 21 4 37q2 11 13.5 78.5t13.5 78.5q17 92 76.5 142t141.5 50q48 0 87.5 -23.5t50.5 -67.5h4l15 80h69l-89 -501h-68l16 89h-3q-32 -49 -82 -75t-95 -26zM224 49q56 0 107 43t63 110l18 105q3 17 3 30q0 54 -34.5 84.5
t-86.5 30.5q-54 0 -95.5 -33.5t-51.5 -92.5l-28 -159q-3 -12 -3 -25q0 -43 29 -68t79 -25zM179 579l123 159h69l60 -159h-62l-41 111l-84 -111h-65z" />
    <glyph glyph-name="atilde" unicode="&#xe3;" horiz-adv-x="533" 
d="M196 -12q-71 0 -112.5 36.5t-41.5 101.5q0 21 4 37q2 11 13.5 78.5t13.5 78.5q17 92 76.5 142t141.5 50q48 0 87.5 -23.5t50.5 -67.5h4l15 80h69l-89 -501h-68l16 89h-3q-32 -49 -82 -75t-95 -26zM224 49q56 0 107 43t63 110l18 105q3 17 3 30q0 54 -34.5 84.5
t-86.5 30.5q-54 0 -95.5 -33.5t-51.5 -92.5l-28 -159q-3 -12 -3 -25q0 -43 29 -68t79 -25zM185 579q-35 6 -41 8q34 98 108 98q28 0 79 -18t80 -18q20 0 33 12t25 37l38 -10q-34 -98 -107 -98q-29 0 -81.5 18t-78.5 18q-19 0 -30 -10.5t-25 -36.5z" />
    <glyph glyph-name="adieresis" unicode="&#xe4;" horiz-adv-x="533" 
d="M196 -12q-71 0 -112.5 36.5t-41.5 101.5q0 21 4 37q2 11 13.5 78.5t13.5 78.5q17 92 76.5 142t141.5 50q48 0 87.5 -23.5t50.5 -67.5h4l15 80h69l-89 -501h-68l16 89h-3q-32 -49 -82 -75t-95 -26zM224 49q56 0 107 43t63 110l18 105q3 17 3 30q0 54 -34.5 84.5
t-86.5 30.5q-54 0 -95.5 -33.5t-51.5 -92.5l-28 -159q-3 -12 -3 -25q0 -43 29 -68t79 -25zM189 583l18 104h72l-19 -104h-71zM381 583l19 104h72l-19 -104h-72z" />
    <glyph glyph-name="aring" unicode="&#xe5;" horiz-adv-x="533" 
d="M196 -12q-71 0 -112.5 36.5t-41.5 101.5q0 21 4 37q2 11 13.5 78.5t13.5 78.5q17 92 76.5 142t141.5 50q48 0 87.5 -23.5t50.5 -67.5h4l15 80h69l-89 -501h-68l16 89h-3q-32 -49 -82 -75t-95 -26zM224 49q56 0 107 43t63 110l18 105q3 17 3 30q0 54 -34.5 84.5
t-86.5 30.5q-54 0 -95.5 -33.5t-51.5 -92.5l-28 -159q-3 -12 -3 -25q0 -43 29 -68t79 -25zM311 565q-37 0 -59 19t-22 51q0 44 32.5 76.5t75.5 32.5q37 0 59.5 -18.5t22.5 -51.5q0 -45 -32.5 -77t-76.5 -32zM314 599q25 0 45 19t20 48q0 44 -47 44q-25 0 -43 -19.5
t-18 -48.5q0 -20 12.5 -31.5t30.5 -11.5z" />
    <glyph glyph-name="ae" unicode="&#xe6;" horiz-adv-x="833" 
d="M170 -12q-61 0 -102 30t-41 88q0 60 35.5 102.5t82 59.5t96.5 17h145q14 87 14 97q0 73 -105 73q-50 0 -90.5 -22t-47.5 -73h-65q14 80 74 116.5t142 36.5q52 0 94 -21t59 -62q71 82 180 82q77 0 123 -39t46 -112q0 -35 -17 -125h-338q-1 -9 -4.5 -26t-5.5 -31t-2 -26
q0 -51 37.5 -78.5t96.5 -27.5q84 0 166 54l25 -46q-73 -67 -205 -67q-68 0 -117.5 27t-65.5 79q-36 -56 -93.5 -81t-116.5 -25zM200 44q68 0 112 35.5t55 102.5l9 50h-132q-26 0 -49 -4.5t-46.5 -16t-37.5 -34.5t-14 -56q0 -39 29 -58t74 -19zM465 287h266q8 41 8 63
q0 101 -109 101q-60 0 -102 -32t-54 -84q-9 -36 -9 -48z" />
    <glyph glyph-name="ccedilla" unicode="&#xe7;" horiz-adv-x="476" 
d="M198 -208q-53 0 -95 20l8 41q48 -19 88 -19q75 0 75 49q0 31 -74 33h-22l25 73q-73 4 -118.5 42.5t-45.5 106.5q0 39 24 164q20 97 82.5 153.5t157.5 56.5q77 0 123 -36.5t46 -101.5q0 -13 -7 -48h-66q4 23 4 35q0 39 -28 64.5t-82 25.5q-126 0 -155 -143
q-23 -126 -23 -158q0 -49 31.5 -75t87.5 -26q84 0 164 67l27 -51q-74 -70 -184 -76l-12 -36q106 0 106 -62q0 -42 -37 -70.5t-100 -28.5z" />
    <glyph glyph-name="egrave" unicode="&#xe8;" horiz-adv-x="504" 
d="M228 -12q-83 0 -135 39t-52 116q0 24 23 154q18 99 85.5 157t162.5 58q77 0 123 -39t46 -112q0 -28 -17 -125h-337q-13 -69 -13 -83q0 -51 34.5 -78.5t92.5 -27.5q84 0 166 54l25 -46q-73 -67 -204 -67zM136 287h267q8 48 8 63q0 48 -27.5 74.5t-82.5 26.5
q-62 0 -104.5 -38.5t-54.5 -93.5q-6 -30 -6 -32zM285 581l-123 160h85l97 -160h-59z" />
    <glyph glyph-name="eacute" unicode="&#xe9;" horiz-adv-x="504" 
d="M286 581l117 160h86l-143 -160h-60zM228 -12q-83 0 -135 39t-52 116q0 24 23 154q18 99 85.5 157t162.5 58q77 0 123 -39t46 -112q0 -28 -17 -125h-337q-13 -69 -13 -83q0 -51 34.5 -78.5t92.5 -27.5q84 0 166 54l25 -46q-73 -67 -204 -67zM136 287h267q8 48 8 63
q0 48 -27.5 74.5t-82.5 26.5q-62 0 -104.5 -38.5t-54.5 -93.5q-6 -30 -6 -32z" />
    <glyph glyph-name="ecircumflex" unicode="&#xea;" horiz-adv-x="504" 
d="M192 579l123 159h69l60 -159h-62l-41 111l-84 -111h-65zM228 -12q-83 0 -135 39t-52 116q0 24 23 154q18 99 85.5 157t162.5 58q77 0 123 -39t46 -112q0 -28 -17 -125h-337q-13 -69 -13 -83q0 -51 34.5 -78.5t92.5 -27.5q84 0 166 54l25 -46q-73 -67 -204 -67zM136 287
h267q8 48 8 63q0 48 -27.5 74.5t-82.5 26.5q-62 0 -104.5 -38.5t-54.5 -93.5q-6 -30 -6 -32z" />
    <glyph glyph-name="edieresis" unicode="&#xeb;" horiz-adv-x="504" 
d="M187 583l18 104h72l-19 -104h-71zM379 583l19 104h72l-19 -104h-72zM228 -12q-83 0 -135 39t-52 116q0 24 23 154q18 99 85.5 157t162.5 58q77 0 123 -39t46 -112q0 -28 -17 -125h-337q-13 -69 -13 -83q0 -51 34.5 -78.5t92.5 -27.5q84 0 166 54l25 -46q-73 -67 -204 -67
zM136 287h267q8 48 8 63q0 48 -27.5 74.5t-82.5 26.5q-62 0 -104.5 -38.5t-54.5 -93.5q-6 -30 -6 -32z" />
    <glyph glyph-name="igrave" unicode="&#xec;" horiz-adv-x="214" 
d="M38 0l88 501h71l-88 -501h-71zM133 581l-123 160h85l97 -160h-59z" />
    <glyph glyph-name="iacute" unicode="&#xed;" horiz-adv-x="214" 
d="M143 581l117 160h86l-143 -160h-60zM38 0l88 501h71l-88 -501h-71z" />
    <glyph glyph-name="icircumflex" unicode="&#xee;" horiz-adv-x="214" 
d="M38 579l123 159h69l60 -159h-62l-41 111l-84 -111h-65zM38 0l88 501h71l-88 -501h-71z" />
    <glyph glyph-name="idieresis" unicode="&#xef;" horiz-adv-x="214" 
d="M40 583l18 104h72l-19 -104h-71zM232 583l19 104h72l-19 -104h-72zM38 0l88 501h71l-88 -501h-71z" />
    <glyph glyph-name="eth" unicode="&#xf0;" horiz-adv-x="514" 
d="M220 -12q-82 0 -130.5 37t-48.5 111q0 26 4 47q3 17 11.5 65.5t10.5 59.5q18 97 84 150t155 53q36 0 64 -14l-48 110l-117 -31l-15 47l113 29l-31 68l68 18l31 -69l108 28l15 -46l-103 -27q8 -16 43 -99.5t40 -94.5q12 -27 12 -67q0 -39 -6 -67q-8 -64 -18 -104
q-17 -96 -81.5 -150t-160.5 -54zM231 47q133 0 158 143l22 124q4 28 4 43q0 96 -108 96q-141 0 -167 -143q-3 -12 -13 -68.5t-10 -59.5q-3 -12 -3 -35q0 -100 117 -100z" />
    <glyph glyph-name="ntilde" unicode="&#xf1;" horiz-adv-x="540" 
d="M38 0q7 45 47 270.5t41 230.5h68l-15 -88h3q34 48 83 73.5t102 25.5q63 0 98.5 -34.5t35.5 -85.5q0 -15 -5 -45l-61 -347h-71l56 319q6 36 6 47q0 83 -94 83q-61 0 -110.5 -45t-60.5 -112l-52 -292h-71zM199 579q-35 6 -41 8q34 98 108 98q28 0 79 -18t80 -18q20 0 33 12
t25 37l38 -10q-34 -98 -107 -98q-29 0 -81.5 18t-78.5 18q-19 0 -30 -10.5t-25 -36.5z" />
    <glyph glyph-name="ograve" unicode="&#xf2;" horiz-adv-x="514" 
d="M222 -12q-81 0 -131 38t-50 111q0 23 4 43l23 131q16 92 83.5 146.5t159.5 54.5q80 0 129 -40t49 -113q0 -20 -5 -47l-21 -124q-16 -92 -82.5 -146t-158.5 -54zM230 48q66 0 107.5 36t52.5 101l23 133q4 24 4 33q0 48 -30.5 74t-86.5 26q-66 0 -107.5 -37.5t-52.5 -99.5
l-23 -132q-4 -24 -3 -34q0 -47 30.5 -73.5t85.5 -26.5zM293 581l-123 160h85l97 -160h-59z" />
    <glyph glyph-name="oacute" unicode="&#xf3;" horiz-adv-x="514" 
d="M280 581l117 160h86l-143 -160h-60zM222 -12q-81 0 -131 38t-50 111q0 23 4 43l23 131q16 92 83.5 146.5t159.5 54.5q80 0 129 -40t49 -113q0 -20 -5 -47l-21 -124q-16 -92 -82.5 -146t-158.5 -54zM230 48q66 0 107.5 36t52.5 101l23 133q4 24 4 33q0 48 -30.5 74
t-86.5 26q-66 0 -107.5 -37.5t-52.5 -99.5l-23 -132q-4 -24 -3 -34q0 -47 30.5 -73.5t85.5 -26.5z" />
    <glyph glyph-name="ocircumflex" unicode="&#xf4;" horiz-adv-x="514" 
d="M195 579l123 159h69l60 -159h-62l-41 111l-84 -111h-65zM222 -12q-81 0 -131 38t-50 111q0 23 4 43l23 131q16 92 83.5 146.5t159.5 54.5q80 0 129 -40t49 -113q0 -20 -5 -47l-21 -124q-16 -92 -82.5 -146t-158.5 -54zM230 48q66 0 107.5 36t52.5 101l23 133q4 24 4 33
q0 48 -30.5 74t-86.5 26q-66 0 -107.5 -37.5t-52.5 -99.5l-23 -132q-4 -24 -3 -34q0 -47 30.5 -73.5t85.5 -26.5z" />
    <glyph glyph-name="otilde" unicode="&#xf5;" horiz-adv-x="514" 
d="M222 -12q-81 0 -131 38t-50 111q0 23 4 43l23 131q16 92 83.5 146.5t159.5 54.5q80 0 129 -40t49 -113q0 -20 -5 -47l-21 -124q-16 -92 -82.5 -146t-158.5 -54zM230 48q66 0 107.5 36t52.5 101l23 133q4 24 4 33q0 48 -30.5 74t-86.5 26q-66 0 -107.5 -37.5t-52.5 -99.5
l-23 -132q-4 -24 -3 -34q0 -47 30.5 -73.5t85.5 -26.5zM186 579q-35 6 -41 8q34 98 108 98q28 0 79 -18t80 -18q34 0 58 49l38 -10q-34 -98 -107 -98q-29 0 -81.5 18t-78.5 18q-19 0 -30 -10.5t-25 -36.5z" />
    <glyph glyph-name="odieresis" unicode="&#xf6;" horiz-adv-x="514" 
d="M192 583l18 104h72l-19 -104h-71zM384 583l19 104h72l-19 -104h-72zM222 -12q-81 0 -131 38t-50 111q0 23 4 43l23 131q16 92 83.5 146.5t159.5 54.5q80 0 129 -40t49 -113q0 -20 -5 -47l-21 -124q-16 -92 -82.5 -146t-158.5 -54zM230 48q66 0 107.5 36t52.5 101l23 133
q4 24 4 33q0 48 -30.5 74t-86.5 26q-66 0 -107.5 -37.5t-52.5 -99.5l-23 -132q-4 -24 -3 -34q0 -47 30.5 -73.5t85.5 -26.5z" />
    <glyph glyph-name="divide" unicode="&#xf7;" 
d="M224 88l18 104h78l-18 -104h-78zM59 292l9 50h480l-9 -50h-480zM285 436l19 105h77l-18 -105h-78z" />
    <glyph glyph-name="oslash" unicode="&#xf8;" horiz-adv-x="514" 
d="M108 -60l-36 19l34 56q-65 39 -65 122q0 23 4 43l23 131q16 92 83.5 146.5t159.5 54.5q50 0 88 -16l34 56l37 -19l-35 -57q54 -41 54 -117q0 -20 -5 -47l-21 -124q-16 -92 -82.5 -146t-158.5 -54q-42 0 -78 11zM114 148q0 -47 29 -73l221 364q-27 12 -64 12
q-66 0 -107.5 -37.5t-52.5 -99.5l-23 -132q-4 -24 -3 -34zM230 48q66 0 107.5 36t52.5 101l23 133q4 24 4 33q0 38 -20 63l-219 -359q21 -7 52 -7z" />
    <glyph glyph-name="ugrave" unicode="&#xf9;" horiz-adv-x="537" 
d="M190 -11q-65 0 -99.5 33.5t-34.5 90.5q0 15 4 41l62 347h71l-57 -319q-5 -32 -5 -47q0 -84 94 -84q61 0 110 45.5t61 112.5l52 292h71q-7 -38 -44.5 -250.5t-44.5 -250.5h-68l16 87l-4 1q-34 -48 -82.5 -73.5t-101.5 -25.5zM297 581l-123 160h85l97 -160h-59z" />
    <glyph glyph-name="uacute" unicode="&#xfa;" horiz-adv-x="537" 
d="M301 581l117 160h86l-143 -160h-60zM190 -11q-65 0 -99.5 33.5t-34.5 90.5q0 15 4 41l62 347h71l-57 -319q-5 -32 -5 -47q0 -84 94 -84q61 0 110 45.5t61 112.5l52 292h71q-7 -38 -44.5 -250.5t-44.5 -250.5h-68l16 87l-4 1q-34 -48 -82.5 -73.5t-101.5 -25.5z" />
    <glyph glyph-name="ucircumflex" unicode="&#xfb;" horiz-adv-x="537" 
d="M208 579l123 159h69l60 -159h-62l-41 111l-84 -111h-65zM190 -11q-65 0 -99.5 33.5t-34.5 90.5q0 15 4 41l62 347h71l-57 -319q-5 -32 -5 -47q0 -84 94 -84q61 0 110 45.5t61 112.5l52 292h71q-7 -38 -44.5 -250.5t-44.5 -250.5h-68l16 87l-4 1q-34 -48 -82.5 -73.5
t-101.5 -25.5z" />
    <glyph glyph-name="udieresis" unicode="&#xfc;" horiz-adv-x="537" 
d="M210 583l18 104h72l-19 -104h-71zM402 583l19 104h72l-19 -104h-72zM190 -11q-65 0 -99.5 33.5t-34.5 90.5q0 15 4 41l62 347h71l-57 -319q-5 -32 -5 -47q0 -84 94 -84q61 0 110 45.5t61 112.5l52 292h71q-7 -38 -44.5 -250.5t-44.5 -250.5h-68l16 87l-4 1
q-34 -48 -82.5 -73.5t-101.5 -25.5z" />
    <glyph glyph-name="yacute" unicode="&#xfd;" horiz-adv-x="482" 
d="M15 -204q-27 0 -60 8l12 61q29 -6 59 -6t56.5 18.5t42.5 47.5l47 87l-103 489h76l78 -404h2l205 404h77l-318 -592q-60 -113 -174 -113zM257 581l117 160h86l-143 -160h-60z" />
    <glyph glyph-name="thorn" unicode="&#xfe;" horiz-adv-x="534" 
d="M2 -195l161 908h72l-53 -296h4q31 47 77.5 71t96.5 24q68 0 110 -36.5t42 -96.5q0 -15 -3 -33q-1 -6 -8.5 -48t-13.5 -78t-9 -48q-16 -89 -78 -136.5t-142 -47.5q-45 0 -83 25t-48 67h-3l-50 -275h-72zM260 47q56 0 96.5 34t50.5 94q27 149 28 161q3 12 3 26q0 43 -30 66
t-82 23q-56 0 -104.5 -41.5t-60.5 -108.5l-18 -110q-3 -15 -3 -30q0 -53 35 -83.5t85 -30.5z" />
    <glyph glyph-name="ydieresis" unicode="&#xff;" horiz-adv-x="482" 
d="M15 -204q-27 0 -60 8l12 61q29 -6 59 -6t56.5 18.5t42.5 47.5l47 87l-103 489h76l78 -404h2l205 404h77l-318 -592q-60 -113 -174 -113zM168 583l18 104h72l-19 -104h-71zM360 583l19 104h72l-19 -104h-72z" />
    <glyph glyph-name="Amacron" unicode="&#x100;" horiz-adv-x="656" 
d="M0 0l391 715h73l136 -715h-79l-36 209h-294l-112 -209h-79zM223 274h251l-62 347h-3zM285 805l12 63h269l-12 -63h-269z" />
    <glyph glyph-name="amacron" unicode="&#x101;" horiz-adv-x="533" 
d="M196 -12q-71 0 -112.5 36.5t-41.5 101.5q0 21 4 37q2 11 13.5 78.5t13.5 78.5q17 92 76.5 142t141.5 50q48 0 87.5 -23.5t50.5 -67.5h4l15 80h69l-89 -501h-68l16 89h-3q-32 -49 -82 -75t-95 -26zM224 49q56 0 107 43t63 110l18 105q3 17 3 30q0 54 -34.5 84.5
t-86.5 30.5q-54 0 -95.5 -33.5t-51.5 -92.5l-28 -159q-3 -12 -3 -25q0 -43 29 -68t79 -25zM182 598l12 63h269l-12 -63h-269z" />
    <glyph glyph-name="Abreve" unicode="&#x102;" horiz-adv-x="656" 
d="M0 0l391 715h73l136 -715h-79l-36 209h-294l-112 -209h-79zM223 274h251l-62 347h-3zM430 790q-59 0 -94 40t-26 103h54q-5 -41 16.5 -65.5t61.5 -24.5q34 0 62 25t36 65h55q-14 -69 -61.5 -106t-103.5 -37z" />
    <glyph glyph-name="abreve" unicode="&#x103;" horiz-adv-x="533" 
d="M196 -12q-71 0 -112.5 36.5t-41.5 101.5q0 21 4 37q2 11 13.5 78.5t13.5 78.5q17 92 76.5 142t141.5 50q48 0 87.5 -23.5t50.5 -67.5h4l15 80h69l-89 -501h-68l16 89h-3q-32 -49 -82 -75t-95 -26zM224 49q56 0 107 43t63 110l18 105q3 17 3 30q0 54 -34.5 84.5
t-86.5 30.5q-54 0 -95.5 -33.5t-51.5 -92.5l-28 -159q-3 -12 -3 -25q0 -43 29 -68t79 -25zM313 583q-59 0 -94 40t-26 103h54q-5 -41 16.5 -65.5t61.5 -24.5q34 0 62 25t36 65h55q-14 -69 -61.5 -106t-103.5 -37z" />
    <glyph glyph-name="Aogonek" unicode="&#x104;" horiz-adv-x="656" 
d="M532 -204q-41 0 -70.5 21t-29.5 61q0 79 88 128l-35 203h-294l-112 -209h-79l391 715h73l136 -715q-50 -13 -78.5 -42t-28.5 -60q0 -23 14.5 -35.5t38.5 -12.5q36 0 70 21l21 -41q-45 -34 -105 -34zM223 274h251l-62 347h-3z" />
    <glyph glyph-name="aogonek" unicode="&#x105;" horiz-adv-x="533" 
d="M359 -204q-41 0 -70.5 21t-29.5 61q0 45 29.5 80t73.5 55l14 76h-3q-32 -49 -82 -75t-95 -26q-71 0 -112.5 36.5t-41.5 101.5q0 21 4 37q2 11 13.5 78.5t13.5 78.5q17 92 76.5 142t141.5 50q48 0 87.5 -23.5t50.5 -67.5h4l15 80h69l-89 -501h-1q-50 -13 -78.5 -42
t-28.5 -60q0 -23 14.5 -35.5t38.5 -12.5q36 0 70 21l21 -41q-45 -34 -105 -34zM224 49q56 0 107 43t63 110l18 105q3 17 3 30q0 54 -34.5 84.5t-86.5 30.5q-54 0 -95.5 -33.5t-51.5 -92.5l-28 -159q-3 -12 -3 -25q0 -43 29 -68t79 -25z" />
    <glyph glyph-name="Cacute" unicode="&#x106;" horiz-adv-x="639" 
d="M302 -12q-101 0 -167 50.5t-66 144.5q0 26 4 47q4 20 21.5 122t20.5 122q22 116 108 184t206 68q97 0 158.5 -46.5t61.5 -127.5q0 -26 -9 -73h-73q6 37 6 54q0 58 -42 91.5t-116 33.5q-85 0 -147 -51t-76 -132l-42 -240q-3 -18 -3 -37q0 -67 46 -104.5t121 -37.5
q82 0 137 43t68 113l1 6q2 6 2 7h73l-5 -26q-19 -96 -97.5 -153.5t-190.5 -57.5zM410 788l117 160h86l-143 -160h-60z" />
    <glyph glyph-name="cacute" unicode="&#x107;" horiz-adv-x="476" 
d="M280 581l117 160h86l-143 -160h-60zM221 -12q-80 0 -131 39.5t-51 110.5q0 39 24 164q20 97 82.5 153.5t157.5 56.5q77 0 123 -36.5t46 -101.5q0 -13 -7 -48h-66q4 23 4 35q0 39 -28 64.5t-82 25.5q-126 0 -155 -143q-23 -126 -23 -158q0 -49 31.5 -75t87.5 -26
q84 0 164 67l27 -51q-83 -77 -204 -77z" />
    <glyph glyph-name="Ccircumflex" unicode="&#x108;" horiz-adv-x="639" 
d="M302 -12q-101 0 -167 50.5t-66 144.5q0 26 4 47q4 20 21.5 122t20.5 122q22 116 108 184t206 68q97 0 158.5 -46.5t61.5 -127.5q0 -26 -9 -73h-73q6 37 6 54q0 58 -42 91.5t-116 33.5q-85 0 -147 -51t-76 -132l-42 -240q-3 -18 -3 -37q0 -67 46 -104.5t121 -37.5
q82 0 137 43t68 113l1 6q2 6 2 7h73l-5 -26q-19 -96 -97.5 -153.5t-190.5 -57.5zM311 786l123 159h69l60 -159h-62l-41 111l-84 -111h-65z" />
    <glyph glyph-name="ccircumflex" unicode="&#x109;" horiz-adv-x="476" 
d="M189 579l123 159h69l60 -159h-62l-41 111l-84 -111h-65zM221 -12q-80 0 -131 39.5t-51 110.5q0 39 24 164q20 97 82.5 153.5t157.5 56.5q77 0 123 -36.5t46 -101.5q0 -13 -7 -48h-66q4 23 4 35q0 39 -28 64.5t-82 25.5q-126 0 -155 -143q-23 -126 -23 -158
q0 -49 31.5 -75t87.5 -26q84 0 164 67l27 -51q-83 -77 -204 -77z" />
    <glyph glyph-name="Cdotaccent" unicode="&#x10a;" horiz-adv-x="639" 
d="M302 -12q-101 0 -167 50.5t-66 144.5q0 26 4 47q4 20 21.5 122t20.5 122q22 116 108 184t206 68q97 0 158.5 -46.5t61.5 -127.5q0 -26 -9 -73h-73q6 37 6 54q0 58 -42 91.5t-116 33.5q-85 0 -147 -51t-76 -132l-42 -240q-3 -18 -3 -37q0 -67 46 -104.5t121 -37.5
q82 0 137 43t68 113l1 6q2 6 2 7h73l-5 -26q-19 -96 -97.5 -153.5t-190.5 -57.5zM405 789l19 108h77l-19 -108h-77z" />
    <glyph glyph-name="cdotaccent" unicode="&#x10b;" horiz-adv-x="476" 
d="M221 -12q-80 0 -131 39.5t-51 110.5q0 39 24 164q20 97 82.5 153.5t157.5 56.5q77 0 123 -36.5t46 -101.5q0 -13 -7 -48h-66q4 23 4 35q0 39 -28 64.5t-82 25.5q-126 0 -155 -143q-23 -126 -23 -158q0 -49 31.5 -75t87.5 -26q84 0 164 67l27 -51q-83 -77 -204 -77z
M284 582l19 108h77l-19 -108h-77z" />
    <glyph glyph-name="Ccaron" unicode="&#x10c;" horiz-adv-x="639" 
d="M302 -12q-101 0 -167 50.5t-66 144.5q0 26 4 47q4 20 21.5 122t20.5 122q22 116 108 184t206 68q97 0 158.5 -46.5t61.5 -127.5q0 -26 -9 -73h-73q6 37 6 54q0 58 -42 91.5t-116 33.5q-85 0 -147 -51t-76 -132l-42 -240q-3 -18 -3 -37q0 -67 46 -104.5t121 -37.5
q82 0 137 43t68 113l1 6q2 6 2 7h73l-5 -26q-19 -96 -97.5 -153.5t-190.5 -57.5zM407 787l-60 159h62l41 -114l84 114h64l-122 -159h-69z" />
    <glyph glyph-name="ccaron" unicode="&#x10d;" horiz-adv-x="476" 
d="M269 580l-60 159h62l41 -114l84 114h64l-122 -159h-69zM221 -12q-80 0 -131 39.5t-51 110.5q0 39 24 164q20 97 82.5 153.5t157.5 56.5q77 0 123 -36.5t46 -101.5q0 -13 -7 -48h-66q4 23 4 35q0 39 -28 64.5t-82 25.5q-126 0 -155 -143q-23 -126 -23 -158q0 -49 31.5 -75
t87.5 -26q84 0 164 67l27 -51q-83 -77 -204 -77z" />
    <glyph glyph-name="Dcaron" unicode="&#x10e;" horiz-adv-x="659" 
d="M366 787l-60 159h62l41 -114l84 114h64l-122 -159h-69zM48 0l126 713h264q97 0 157.5 -49t60.5 -140q0 -21 -5 -51l-21 -119t-21 -118q-19 -110 -99.5 -173t-196.5 -63h-265zM137 67h183q87 0 143.5 47t68.5 120q3 18 21 120t21 120q5 32 5 40q0 62 -42.5 97t-116.5 35
h-181z" />
    <glyph glyph-name="dcaron" unicode="&#x10f;" horiz-adv-x="535" 
d="M563 542l37 171h78l-57 -171h-58zM195 -12q-71 0 -112.5 36.5t-41.5 101.5q0 21 4 37q2 11 14 78.5t13 78.5q17 92 77 142t142 50q46 0 86 -24t51 -67h2l52 292h71l-126 -713h-68l16 89h-3q-32 -49 -82 -75t-95 -26zM223 49q56 0 107 43t63 110l18 105q3 16 3 32
q0 52 -33.5 82.5t-84.5 30.5q-55 0 -97 -33t-53 -93l-28 -159q-3 -12 -3 -25q0 -43 29 -68t79 -25z" />
    <glyph glyph-name="Dcroat" unicode="&#x110;" horiz-adv-x="666" 
d="M39 342l10 56h76l56 315h264q97 0 157.5 -49t60.5 -140q0 -21 -5 -51l-21 -119t-21 -118q-19 -110 -99.5 -173t-196.5 -63h-265l60 342h-76zM144 67h183q87 0 143.5 47t68.5 120q3 18 21 120t21 120q5 32 5 40q0 62 -42.5 97t-116.5 35h-181l-44 -248h204l-10 -56h-204z
" />
    <glyph glyph-name="dcroat" unicode="&#x111;" horiz-adv-x="535" 
d="M338 593l9 46h121l14 74h71l-13 -74h37l-8 -46h-37l-105 -593h-68l16 89h-3q-32 -49 -82 -75t-95 -26q-71 0 -112.5 36.5t-41.5 101.5q0 21 4 37q2 11 14 78.5t13 78.5q17 92 77 142t142 50q46 0 86 -24t51 -67h2l30 172h-122zM223 49q56 0 107 43t63 110l18 105
q3 16 3 32q0 52 -33.5 82.5t-84.5 30.5q-55 0 -97 -33t-53 -93l-28 -159q-3 -12 -3 -25q0 -43 29 -68t79 -25z" />
    <glyph glyph-name="Emacron" unicode="&#x112;" horiz-adv-x="590" 
d="M48 0l126 713h455l-11 -67h-379l-43 -244h318l-12 -68h-318l-47 -267h380l-11 -67h-458zM269 805l12 63h269l-12 -63h-269z" />
    <glyph glyph-name="emacron" unicode="&#x113;" horiz-adv-x="504" 
d="M228 -12q-83 0 -135 39t-52 116q0 24 23 154q18 99 85.5 157t162.5 58q77 0 123 -39t46 -112q0 -28 -17 -125h-337q-13 -69 -13 -83q0 -51 34.5 -78.5t92.5 -27.5q84 0 166 54l25 -46q-73 -67 -204 -67zM136 287h267q8 48 8 63q0 48 -27.5 74.5t-82.5 26.5
q-62 0 -104.5 -38.5t-54.5 -93.5q-6 -30 -6 -32zM186 598l12 63h269l-12 -63h-269z" />
    <glyph glyph-name="Ebreve" unicode="&#x114;" horiz-adv-x="590" 
d="M48 0l126 713h455l-11 -67h-379l-43 -244h318l-12 -68h-318l-47 -267h380l-11 -67h-458zM408 790q-59 0 -94 40t-26 103h54q-5 -41 16.5 -65.5t61.5 -24.5q34 0 62 25t36 65h55q-14 -69 -61.5 -106t-103.5 -37z" />
    <glyph glyph-name="ebreve" unicode="&#x115;" horiz-adv-x="504" 
d="M228 -12q-83 0 -135 39t-52 116q0 24 23 154q18 99 85.5 157t162.5 58q77 0 123 -39t46 -112q0 -28 -17 -125h-337q-13 -69 -13 -83q0 -51 34.5 -78.5t92.5 -27.5q84 0 166 54l25 -46q-73 -67 -204 -67zM136 287h267q8 48 8 63q0 48 -27.5 74.5t-82.5 26.5
q-62 0 -104.5 -38.5t-54.5 -93.5q-6 -30 -6 -32zM324 583q-59 0 -94 40t-26 103h54q-5 -41 16.5 -65.5t61.5 -24.5q34 0 62 25t36 65h55q-14 -69 -61.5 -106t-103.5 -37z" />
    <glyph glyph-name="Edotaccent" unicode="&#x116;" horiz-adv-x="590" 
d="M48 0l126 713h455l-11 -67h-379l-43 -244h318l-12 -68h-318l-47 -267h380l-11 -67h-458zM375 789l19 108h77l-19 -108h-77z" />
    <glyph glyph-name="edotaccent" unicode="&#x117;" horiz-adv-x="504" 
d="M228 -12q-83 0 -135 39t-52 116q0 24 23 154q18 99 85.5 157t162.5 58q77 0 123 -39t46 -112q0 -28 -17 -125h-337q-13 -69 -13 -83q0 -51 34.5 -78.5t92.5 -27.5q84 0 166 54l25 -46q-73 -67 -204 -67zM136 287h267q8 48 8 63q0 48 -27.5 74.5t-82.5 26.5
q-62 0 -104.5 -38.5t-54.5 -93.5q-6 -30 -6 -32zM287 582l19 108h77l-19 -108h-77z" />
    <glyph glyph-name="Eogonek" unicode="&#x118;" horiz-adv-x="590" 
d="M48 0l126 713h455l-11 -67h-379l-43 -244h318l-12 -68h-318l-47 -267h380l-11 -67h-6q-50 -13 -78.5 -42t-28.5 -60q0 -23 14.5 -35.5t38.5 -12.5q36 0 70 21l21 -41q-45 -34 -105 -34q-41 0 -70.5 21t-29.5 61q0 75 78 122h-362z" />
    <glyph glyph-name="eogonek" unicode="&#x119;" horiz-adv-x="504" 
d="M228 -12q-83 0 -135 39t-52 116q0 24 23 154q18 99 85.5 157t162.5 58q77 0 123 -39t46 -112q0 -28 -17 -125h-337q-13 -69 -13 -83q0 -51 34.5 -78.5t92.5 -27.5q84 0 166 54l25 -46q-28 -24 -57 -37q-41 -23 -61 -56t-20 -64q0 -23 14.5 -35.5t39.5 -12.5q36 0 70 21
l21 -41q-45 -34 -106 -34q-41 0 -70 21t-29 61q0 68 60 116q-33 -6 -66 -6zM136 287h267q8 48 8 63q0 48 -27.5 74.5t-82.5 26.5q-62 0 -104.5 -38.5t-54.5 -93.5q-6 -30 -6 -32z" />
    <glyph glyph-name="Ecaron" unicode="&#x11a;" horiz-adv-x="590" 
d="M371 787l-60 159h62l41 -114l84 114h64l-122 -159h-69zM48 0l126 713h455l-11 -67h-379l-43 -244h318l-12 -68h-318l-47 -267h380l-11 -67h-458z" />
    <glyph glyph-name="ecaron" unicode="&#x11b;" horiz-adv-x="504" 
d="M286 580l-60 159h62l41 -114l84 114h64l-122 -159h-69zM228 -12q-83 0 -135 39t-52 116q0 24 23 154q18 99 85.5 157t162.5 58q77 0 123 -39t46 -112q0 -28 -17 -125h-337q-13 -69 -13 -83q0 -51 34.5 -78.5t92.5 -27.5q84 0 166 54l25 -46q-73 -67 -204 -67zM136 287
h267q8 48 8 63q0 48 -27.5 74.5t-82.5 26.5q-62 0 -104.5 -38.5t-54.5 -93.5q-6 -30 -6 -32z" />
    <glyph glyph-name="Gcircumflex" unicode="&#x11c;" horiz-adv-x="656" 
d="M302 -12q-101 0 -167 50.5t-66 144.5q0 30 4 50q4 18 12.5 67.5t18 106t11.5 67.5q20 112 107 182t206 70q99 0 159.5 -44.5t60.5 -126.5q0 -26 -9 -71h-72q7 43 7 56q0 57 -42.5 87.5t-116.5 30.5q-85 0 -147 -51t-76 -132l-42 -240q-3 -19 -3 -39q0 -67 46 -103.5
t121 -36.5q85 0 139.5 41t67.5 111l15 84h-197l12 70h270q-13 -87 -28 -163q-17 -96 -97 -153.5t-194 -57.5zM313 786l123 159h69l60 -159h-62l-41 111l-84 -111h-65z" />
    <glyph glyph-name="gcircumflex" unicode="&#x11d;" horiz-adv-x="532" 
d="M186 579l123 159h69l60 -159h-62l-41 111l-84 -111h-65zM174 -207q-53 0 -97 20t-68 55l50 39q46 -56 130 -56q67 0 112 39t57 106q1 5 8.5 50.5t8.5 51.5h-3q-62 -92 -170 -92q-72 0 -113 35.5t-41 101.5q0 22 4 43q1 10 12.5 73.5t12.5 71.5q16 87 74 134.5t138 47.5
q46 0 88 -23.5t52 -71.5h2l15 82h69l-88 -501q-17 -97 -85.5 -151.5t-167.5 -54.5zM231 63q58 0 105.5 39.5t59.5 110.5q20 115 20 126q0 55 -34 83.5t-86 28.5q-55 0 -95.5 -32.5t-51.5 -92.5q-27 -152 -27 -168q0 -44 29 -69.5t80 -25.5z" />
    <glyph glyph-name="Gbreve" unicode="&#x11e;" horiz-adv-x="656" 
d="M302 -12q-101 0 -167 50.5t-66 144.5q0 30 4 50q4 18 12.5 67.5t18 106t11.5 67.5q20 112 107 182t206 70q99 0 159.5 -44.5t60.5 -126.5q0 -26 -9 -71h-72q7 43 7 56q0 57 -42.5 87.5t-116.5 30.5q-85 0 -147 -51t-76 -132l-42 -240q-3 -19 -3 -39q0 -67 46 -103.5
t121 -36.5q85 0 139.5 41t67.5 111l15 84h-197l12 70h270q-13 -87 -28 -163q-17 -96 -97 -153.5t-194 -57.5zM440 790q-59 0 -94 40t-26 103h54q-5 -41 16.5 -65.5t61.5 -24.5q34 0 62 25t36 65h55q-14 -69 -61.5 -106t-103.5 -37z" />
    <glyph glyph-name="gbreve" unicode="&#x11f;" horiz-adv-x="532" 
d="M174 -207q-53 0 -97 20t-68 55l50 39q46 -56 130 -56q67 0 112 39t57 106q1 5 8.5 50.5t8.5 51.5h-3q-62 -92 -170 -92q-72 0 -113 35.5t-41 101.5q0 22 4 43q1 10 12.5 73.5t12.5 71.5q16 87 74 134.5t138 47.5q46 0 88 -23.5t52 -71.5h2l15 82h69l-88 -501
q-17 -97 -85.5 -151.5t-167.5 -54.5zM231 63q58 0 105.5 39.5t59.5 110.5q20 115 20 126q0 55 -34 83.5t-86 28.5q-55 0 -95.5 -32.5t-51.5 -92.5q-27 -152 -27 -168q0 -44 29 -69.5t80 -25.5zM305 583q-59 0 -94 40t-26 103h54q-5 -41 16.5 -65.5t61.5 -24.5q34 0 62 25
t36 65h55q-14 -69 -61.5 -106t-103.5 -37z" />
    <glyph glyph-name="Gdotaccent" unicode="&#x120;" horiz-adv-x="656" 
d="M302 -12q-101 0 -167 50.5t-66 144.5q0 30 4 50q4 18 12.5 67.5t18 106t11.5 67.5q20 112 107 182t206 70q99 0 159.5 -44.5t60.5 -126.5q0 -26 -9 -71h-72q7 43 7 56q0 57 -42.5 87.5t-116.5 30.5q-85 0 -147 -51t-76 -132l-42 -240q-3 -19 -3 -39q0 -67 46 -103.5
t121 -36.5q85 0 139.5 41t67.5 111l15 84h-197l12 70h270q-13 -87 -28 -163q-17 -96 -97 -153.5t-194 -57.5zM403 789l19 108h77l-19 -108h-77z" />
    <glyph glyph-name="gdotaccent" unicode="&#x121;" horiz-adv-x="532" 
d="M174 -207q-53 0 -97 20t-68 55l50 39q46 -56 130 -56q67 0 112 39t57 106q1 5 8.5 50.5t8.5 51.5h-3q-62 -92 -170 -92q-72 0 -113 35.5t-41 101.5q0 22 4 43q1 10 12.5 73.5t12.5 71.5q16 87 74 134.5t138 47.5q46 0 88 -23.5t52 -71.5h2l15 82h69l-88 -501
q-17 -97 -85.5 -151.5t-167.5 -54.5zM231 63q58 0 105.5 39.5t59.5 110.5q20 115 20 126q0 55 -34 83.5t-86 28.5q-55 0 -95.5 -32.5t-51.5 -92.5q-27 -152 -27 -168q0 -44 29 -69.5t80 -25.5zM273 582l19 108h77l-19 -108h-77z" />
    <glyph glyph-name="Gcommaaccent" unicode="&#x122;" horiz-adv-x="656" 
d="M302 -12q-101 0 -167 50.5t-66 144.5q0 30 4 50q4 18 12.5 67.5t18 106t11.5 67.5q20 112 107 182t206 70q99 0 159.5 -44.5t60.5 -126.5q0 -26 -9 -71h-72q7 43 7 56q0 57 -42.5 87.5t-116.5 30.5q-85 0 -147 -51t-76 -132l-42 -240q-3 -19 -3 -39q0 -67 46 -103.5
t121 -36.5q85 0 139.5 41t67.5 111l15 84h-197l12 70h270q-13 -87 -28 -163q-17 -96 -97 -153.5t-194 -57.5zM236 -190l33 149h77l-52 -149h-58z" />
    <glyph glyph-name="gcommaaccent" unicode="&#x123;" horiz-adv-x="532" 
d="M174 -207q-53 0 -97 20t-68 55l50 39q46 -56 130 -56q67 0 112 39t57 106q1 5 8.5 50.5t8.5 51.5h-3q-62 -92 -170 -92q-72 0 -113 35.5t-41 101.5q0 22 4 43q1 10 12.5 73.5t12.5 71.5q16 87 74 134.5t138 47.5q46 0 88 -23.5t52 -71.5h2l15 82h69l-88 -501
q-17 -97 -85.5 -151.5t-167.5 -54.5zM231 63q58 0 105.5 39.5t59.5 110.5q20 115 20 126q0 55 -34 83.5t-86 28.5q-55 0 -95.5 -32.5t-51.5 -92.5q-27 -152 -27 -168q0 -44 29 -69.5t80 -25.5zM266 590l12 63l41 78h42l-27 -63h27l-14 -78h-81z" />
    <glyph glyph-name="Hcircumflex" unicode="&#x124;" horiz-adv-x="680" 
d="M307 786l123 159h69l60 -159h-62l-41 111l-84 -111h-65zM48 0l126 713h77l-55 -311h367l54 311h77l-125 -713h-77l59 334h-367l-59 -334h-77z" />
    <glyph glyph-name="hcircumflex" unicode="&#x125;" horiz-adv-x="540" 
d="M75 751l123 159h69l60 -159h-62l-41 111l-84 -111h-65zM37 0l126 713h71l-53 -300h3q33 46 82 72.5t101 26.5q63 0 99 -35t36 -85q0 -19 -6 -45l-61 -347h-71l56 319q6 26 6 47q0 83 -94 83q-62 0 -111.5 -45t-60.5 -112l-51 -292h-72z" />
    <glyph glyph-name="Hbar" unicode="&#x126;" horiz-adv-x="680" 
d="M95 559l10 52h51l18 102h77l-18 -102h366l18 102h77l-18 -102h50l-9 -52h-50l-98 -559h-77l59 334h-367l-59 -334h-77l99 559h-52zM196 402h367l27 157h-366z" />
    <glyph glyph-name="hbar" unicode="&#x127;" horiz-adv-x="540" 
d="M87 593l8 46h55l13 74h71l-13 -74h127l-8 -46h-127l-32 -180h3q33 46 82 72.5t101 26.5q63 0 99 -35t36 -85q0 -19 -6 -45l-61 -347h-71l56 319q6 26 6 47q0 83 -94 83q-62 0 -111.5 -45t-60.5 -112l-51 -292h-72l105 593h-55z" />
    <glyph glyph-name="Itilde" unicode="&#x128;" horiz-adv-x="237" 
d="M48 0l126 713h77l-126 -713h-77zM79 786q-35 6 -41 8q34 98 108 98q28 0 79 -18t80 -18q20 0 33 12t25 37l38 -10q-34 -98 -107 -98q-29 0 -81.5 18t-78.5 18q-19 0 -30 -10.5t-25 -36.5z" />
    <glyph glyph-name="itilde" unicode="&#x129;" horiz-adv-x="219" 
d="M38 0l88 501h71l-88 -501h-71zM29 579q-35 6 -41 8q34 98 108 98q28 0 79 -18t80 -18q20 0 33 12t25 37l38 -10q-34 -98 -107 -98q-29 0 -81.5 18t-78.5 18q-19 0 -30 -10.5t-25 -36.5z" />
    <glyph glyph-name="Imacron" unicode="&#x12a;" horiz-adv-x="237" 
d="M48 0l126 713h77l-126 -713h-77zM79 805l12 63h269l-12 -63h-269z" />
    <glyph glyph-name="imacron" unicode="&#x12b;" horiz-adv-x="219" 
d="M38 0l88 501h71l-88 -501h-71zM28 598l12 63h269l-12 -63h-269z" />
    <glyph glyph-name="Ibreve" unicode="&#x12c;" horiz-adv-x="237" 
d="M48 0l126 713h77l-126 -713h-77zM216 790q-59 0 -94 40t-26 103h54q-5 -41 16.5 -65.5t61.5 -24.5q34 0 62 25t36 65h55q-14 -69 -61.5 -106t-103.5 -37z" />
    <glyph glyph-name="ibreve" unicode="&#x12d;" horiz-adv-x="219" 
d="M38 0l88 501h71l-88 -501h-71zM159 583q-59 0 -94 40t-26 103h54q-5 -41 16.5 -65.5t61.5 -24.5q34 0 62 25t36 65h55q-14 -69 -61.5 -106t-103.5 -37z" />
    <glyph glyph-name="Iogonek" unicode="&#x12e;" horiz-adv-x="237" 
d="M48 0l126 713h77l-124 -702l15 -11q-49 -13 -73.5 -41.5t-24.5 -60.5q0 -48 49 -48q33 0 67 21l22 -41q-45 -34 -103 -34q-40 0 -68 21t-28 61q0 75 70 122h-5z" />
    <glyph glyph-name="iogonek" unicode="&#x12f;" horiz-adv-x="214" 
d="M47 -204q-40 0 -68 21t-28 61q0 44 25 78.5t64 54.5l86 490h71l-88 -501h1q-49 -13 -73.5 -41.5t-24.5 -60.5q0 -48 49 -48q33 0 67 21l22 -41q-45 -34 -103 -34zM143 600l20 108h71l-20 -108h-71z" />
    <glyph glyph-name="Idotaccent" unicode="&#x130;" horiz-adv-x="237" 
d="M48 0l126 713h77l-126 -713h-77zM185 789l19 108h77l-19 -108h-77z" />
    <glyph glyph-name="dotlessi" unicode="&#x131;" horiz-adv-x="214" 
d="M38 0l88 501h71l-88 -501h-71z" />
    <glyph glyph-name="IJ" unicode="&#x132;" horiz-adv-x="782" 
d="M48 0l126 713h77l-126 -713h-77zM432 -12q-87 0 -139.5 42.5t-52.5 121.5q0 28 13 102h73q-10 -68 -10 -80q0 -117 133 -117q75 0 120 45t57 108l88 503h76l-90 -510q-18 -98 -89 -156.5t-179 -58.5z" />
    <glyph glyph-name="ij" unicode="&#x133;" horiz-adv-x="428" 
d="M38 0l88 501h71l-88 -501h-71zM143 600l20 108h71l-20 -108h-71zM135 -203q-19 0 -37 2l10 61q8 -1 35 -1q75 0 91 85l98 557h71l-99 -563q-25 -141 -169 -141zM349 600l20 108h71l-20 -108h-71z" />
    <glyph glyph-name="Jcircumflex" unicode="&#x134;" horiz-adv-x="564" 
d="M388 784l123 159h69l60 -159h-62l-41 111l-84 -111h-65zM220 -12q-87 0 -139.5 42.5t-52.5 121.5q0 28 13 102h73q-10 -68 -10 -80q0 -117 133 -117q75 0 120 45t57 108l88 503h76l-90 -510q-18 -98 -89 -156.5t-179 -58.5z" />
    <glyph glyph-name="jcircumflex" unicode="&#x135;" horiz-adv-x="239" 
d="M-54 -203q-19 0 -37 2l10 61q8 -1 35 -1q75 0 91 85l98 557h71l-99 -563q-25 -141 -169 -141zM61 579l123 159h69l60 -159h-62l-41 111l-84 -111h-65z" />
    <glyph glyph-name="Kcommaaccent" unicode="&#x136;" horiz-adv-x="635" 
d="M241 -190l33 149h77l-52 -149h-58zM48 0l125 713h78l-67 -377h2l414 377h94l-316 -285l211 -428h-87l-182 376l-152 -133l-43 -243h-77z" />
    <glyph glyph-name="kcommaaccent" unicode="&#x137;" horiz-adv-x="490" 
d="M163 -190l33 149h77l-52 -149h-58zM37 0l126 713h71l-82 -463l273 251h84l-209 -189l141 -312h-76l-118 265l-109 -96l-30 -169h-71z" />
    <glyph glyph-name="kgreenlandic" unicode="&#x138;" horiz-adv-x="490" 
d="M126 501h70l-44 -251l273 251h84l-209 -189l141 -312h-76l-118 265l-109 -96l-30 -169h-71z" />
    <glyph glyph-name="Lacute" unicode="&#x139;" horiz-adv-x="558" 
d="M195 788l117 160h86l-143 -160h-60zM48 0l126 713h77l-114 -646h370l-11 -67h-448z" />
    <glyph glyph-name="lacute" unicode="&#x13a;" horiz-adv-x="281" 
d="M183 760l117 160h86l-143 -160h-60zM158 -6q-48 0 -72.5 23.5t-24.5 64.5q0 21 4 40l104 591h71l-105 -594q0 -3 -0.5 -11t-0.5 -10q0 -43 53 -43q11 0 34.5 2t24.5 2l-10 -54q-44 -11 -78 -11z" />
    <glyph glyph-name="Lcommaaccent" unicode="&#x13b;" horiz-adv-x="558" 
d="M209 -190l33 149h77l-52 -149h-58zM48 0l126 713h77l-114 -646h370l-11 -67h-448z" />
    <glyph glyph-name="lcommaaccent" unicode="&#x13c;" horiz-adv-x="281" 
d="M73 -190l33 149h77l-52 -149h-58zM158 -6q-48 0 -72.5 23.5t-24.5 64.5q0 21 4 40l104 591h71l-105 -594q0 -3 -0.5 -11t-0.5 -10q0 -43 53 -43q11 0 34.5 2t24.5 2l-10 -54q-44 -11 -78 -11z" />
    <glyph glyph-name="Lcaron" unicode="&#x13d;" horiz-adv-x="558" 
d="M333 542l37 171h78l-57 -171h-58zM48 0l126 713h77l-114 -646h370l-11 -67h-448z" />
    <glyph glyph-name="lcaron" unicode="&#x13e;" horiz-adv-x="281" 
d="M259 542l37 171h78l-57 -171h-58zM158 -6q-48 0 -72.5 23.5t-24.5 64.5q0 21 4 40l104 591h71l-105 -594q0 -3 -0.5 -11t-0.5 -10q0 -43 53 -43q11 0 34.5 2t24.5 2l-10 -54q-44 -11 -78 -11z" />
    <glyph glyph-name="Ldot" unicode="&#x13f;" 
d="M48 0l126 713h77l-114 -646h370l-11 -67h-448zM308 354l19 100h79l-20 -100h-78z" />
    <glyph glyph-name="ldot" unicode="&#x140;" horiz-adv-x="313" 
d="M158 -6q-48 0 -72.5 23.5t-24.5 64.5q0 21 4 40l104 591h71l-105 -594q0 -3 -0.5 -11t-0.5 -10q0 -43 53 -43q11 0 34.5 2t24.5 2l-10 -54q-44 -11 -78 -11zM250 350l18 99h74l-18 -99h-74z" />
    <glyph glyph-name="Lslash" unicode="&#x141;" horiz-adv-x="563" 
d="M37 238l12 68l66 47l64 360h77l-53 -298l131 92l-12 -68l-131 -92l-49 -280h370l-11 -67h-448l50 285z" />
    <glyph glyph-name="lslash" unicode="&#x142;" horiz-adv-x="285" 
d="M34 239l11 62l64 54l63 358h71l-51 -287l90 76l-11 -62l-90 -76l-43 -245q0 -3 -0.5 -11t-0.5 -10q0 -43 53 -43q11 0 34.5 2t24.5 2l-10 -54q-44 -11 -78 -11q-48 0 -72.5 23.5t-24.5 64.5q0 21 4 40l30 171z" />
    <glyph glyph-name="Nacute" unicode="&#x143;" horiz-adv-x="683" 
d="M414 788l117 160h86l-143 -160h-60zM48 0l126 713h77l267 -583h2l103 583h73l-126 -713h-73l-269 589h-2l-104 -589h-74z" />
    <glyph glyph-name="nacute" unicode="&#x144;" horiz-adv-x="540" 
d="M313 581l117 160h86l-143 -160h-60zM38 0q7 45 47 270.5t41 230.5h68l-15 -88h3q34 48 83 73.5t102 25.5q63 0 98.5 -34.5t35.5 -85.5q0 -15 -5 -45l-61 -347h-71l56 319q6 36 6 47q0 83 -94 83q-61 0 -110.5 -45t-60.5 -112l-52 -292h-71z" />
    <glyph glyph-name="Ncommaaccent" unicode="&#x145;" horiz-adv-x="683" 
d="M244 -190l33 149h77l-52 -149h-58zM48 0l126 713h77l267 -583h2l103 583h73l-126 -713h-73l-269 589h-2l-104 -589h-74z" />
    <glyph glyph-name="ncommaaccent" unicode="&#x146;" horiz-adv-x="540" 
d="M163 -190l33 149h77l-52 -149h-58zM38 0q7 45 47 270.5t41 230.5h68l-15 -88h3q34 48 83 73.5t102 25.5q63 0 98.5 -34.5t35.5 -85.5q0 -15 -5 -45l-61 -347h-71l56 319q6 36 6 47q0 83 -94 83q-61 0 -110.5 -45t-60.5 -112l-52 -292h-71z" />
    <glyph glyph-name="Ncaron" unicode="&#x147;" horiz-adv-x="683" 
d="M416 787l-60 159h62l41 -114l84 114h64l-122 -159h-69zM48 0l126 713h77l267 -583h2l103 583h73l-126 -713h-73l-269 589h-2l-104 -589h-74z" />
    <glyph glyph-name="ncaron" unicode="&#x148;" horiz-adv-x="540" 
d="M301 580l-60 159h62l41 -114l84 114h64l-122 -159h-69zM38 0q7 45 47 270.5t41 230.5h68l-15 -88h3q34 48 83 73.5t102 25.5q63 0 98.5 -34.5t35.5 -85.5q0 -15 -5 -45l-61 -347h-71l56 319q6 36 6 47q0 83 -94 83q-61 0 -110.5 -45t-60.5 -112l-52 -292h-71z" />
    <glyph glyph-name="Eng" unicode="&#x14a;" horiz-adv-x="683" 
d="M390 -203q-19 0 -37 2l10 61q8 -1 35 -1q75 0 91 85l9 53l-270 592h-2l-104 -589h-74l126 713h77l267 -583h2l103 583h73l-137 -775q-25 -141 -169 -141z" />
    <glyph glyph-name="eng" unicode="&#x14b;" horiz-adv-x="540" 
d="M255 -203q-19 0 -37 2l10 61q8 -1 35 -1q75 0 91 85l66 375q6 36 6 47q0 83 -94 83q-61 0 -110.5 -45t-60.5 -112l-52 -292h-71q7 45 47 270.5t41 230.5h68l-15 -88h3q34 48 83 73.5t102 25.5q63 0 98.5 -34.5t35.5 -85.5q0 -15 -5 -45l-72 -409q-25 -141 -169 -141z" />
    <glyph glyph-name="Omacron" unicode="&#x14c;" horiz-adv-x="666" 
d="M305 805l12 63h269l-12 -63h-269zM303 -12q-101 0 -167.5 49t-66.5 143q0 25 4 45q3 20 21.5 122t21.5 122q20 115 108.5 186t206.5 71q102 0 167.5 -52t65.5 -145q0 -26 -4 -49q-3 -18 -20.5 -117t-21.5 -118q-21 -115 -109.5 -186t-205.5 -71zM314 56q84 0 147.5 50
t78.5 132q2 10 12.5 68t19 108.5t11.5 68.5q4 17 4 38q0 66 -45.5 101.5t-121.5 35.5q-88 0 -149 -49.5t-78 -138.5q-35 -200 -42 -235q-3 -21 -3 -39q0 -66 46 -103t120 -37z" />
    <glyph glyph-name="omacron" unicode="&#x14d;" horiz-adv-x="514" 
d="M192 598l12 63h269l-12 -63h-269zM222 -12q-81 0 -131 38t-50 111q0 23 4 43l23 131q16 92 83.5 146.5t159.5 54.5q80 0 129 -40t49 -113q0 -20 -5 -47l-21 -124q-16 -92 -82.5 -146t-158.5 -54zM230 48q66 0 107.5 36t52.5 101l23 133q4 24 4 33q0 48 -30.5 74t-86.5 26
q-66 0 -107.5 -37.5t-52.5 -99.5l-23 -132q-4 -24 -3 -34q0 -47 30.5 -73.5t85.5 -26.5z" />
    <glyph glyph-name="Obreve" unicode="&#x14e;" horiz-adv-x="666" 
d="M303 -12q-101 0 -167.5 49t-66.5 143q0 25 4 45q3 20 21.5 122t21.5 122q20 115 108.5 186t206.5 71q102 0 167.5 -52t65.5 -145q0 -26 -4 -49q-3 -18 -20.5 -117t-21.5 -118q-21 -115 -109.5 -186t-205.5 -71zM314 56q84 0 147.5 50t78.5 132q2 10 12.5 68t19 108.5
t11.5 68.5q4 17 4 38q0 66 -45.5 101.5t-121.5 35.5q-88 0 -149 -49.5t-78 -138.5q-35 -200 -42 -235q-3 -21 -3 -39q0 -66 46 -103t120 -37zM438 790q-59 0 -94 40t-26 103h54q-5 -41 16.5 -65.5t61.5 -24.5q34 0 62 25t36 65h55q-14 -69 -61.5 -106t-103.5 -37z" />
    <glyph glyph-name="obreve" unicode="&#x14f;" horiz-adv-x="514" 
d="M222 -12q-81 0 -131 38t-50 111q0 23 4 43l23 131q16 92 83.5 146.5t159.5 54.5q80 0 129 -40t49 -113q0 -20 -5 -47l-21 -124q-16 -92 -82.5 -146t-158.5 -54zM230 48q66 0 107.5 36t52.5 101l23 133q4 24 4 33q0 48 -30.5 74t-86.5 26q-66 0 -107.5 -37.5t-52.5 -99.5
l-23 -132q-4 -24 -3 -34q0 -47 30.5 -73.5t85.5 -26.5zM331 583q-59 0 -94 40t-26 103h54q-5 -41 16.5 -65.5t61.5 -24.5q34 0 62 25t36 65h55q-14 -69 -61.5 -106t-103.5 -37z" />
    <glyph glyph-name="Ohungarumlaut" unicode="&#x150;" horiz-adv-x="666" 
d="M322 793l64 130h81l-85 -130h-60zM475 793l64 130h81l-85 -130h-60zM303 -12q-101 0 -167.5 49t-66.5 143q0 25 4 45q3 20 21.5 122t21.5 122q20 115 108.5 186t206.5 71q102 0 167.5 -52t65.5 -145q0 -26 -4 -49q-3 -18 -20.5 -117t-21.5 -118q-21 -115 -109.5 -186
t-205.5 -71zM314 56q84 0 147.5 50t78.5 132q2 10 12.5 68t19 108.5t11.5 68.5q4 17 4 38q0 66 -45.5 101.5t-121.5 35.5q-88 0 -149 -49.5t-78 -138.5q-35 -200 -42 -235q-3 -21 -3 -39q0 -66 46 -103t120 -37z" />
    <glyph glyph-name="ohungarumlaut" unicode="&#x151;" horiz-adv-x="514" 
d="M210 586l64 130h81l-85 -130h-60zM363 586l64 130h81l-85 -130h-60zM222 -12q-81 0 -131 38t-50 111q0 23 4 43l23 131q16 92 83.5 146.5t159.5 54.5q80 0 129 -40t49 -113q0 -20 -5 -47l-21 -124q-16 -92 -82.5 -146t-158.5 -54zM230 48q66 0 107.5 36t52.5 101l23 133
q4 24 4 33q0 48 -30.5 74t-86.5 26q-66 0 -107.5 -37.5t-52.5 -99.5l-23 -132q-4 -24 -3 -34q0 -47 30.5 -73.5t85.5 -26.5z" />
    <glyph glyph-name="OE" unicode="&#x152;" horiz-adv-x="1041" 
d="M298 -12q-100 0 -164.5 48t-64.5 141q0 27 4 48q3 20 21.5 122t21.5 122q20 115 106.5 186t203.5 71q135 0 187 -84l13 71h454l-12 -68h-378l-44 -243h319l-12 -68h-319l-47 -266h381l-12 -68h-456l14 80q-38 -43 -95 -67.5t-121 -24.5zM314 56q84 0 147.5 50t78.5 132
q3 20 22 122.5t22 122.5q3 19 3 36q0 67 -45.5 103t-121.5 36q-88 0 -149 -49.5t-78 -138.5q-3 -20 -20 -117.5t-21 -117.5q-4 -19 -4 -39q0 -66 46 -103t120 -37z" />
    <glyph glyph-name="oe" unicode="&#x153;" horiz-adv-x="854" 
d="M223 -12q-81 0 -131 38t-50 111q0 32 26 174q19 93 86 147t158 54q125 0 158 -95q70 95 191 95q77 0 123.5 -39.5t46.5 -112.5q0 -16 -19 -124h-337q-12 -71 -12 -83q0 -51 34 -78.5t92 -27.5q85 0 167 54l24 -46q-71 -67 -204 -67q-131 0 -167 91q-66 -91 -186 -91z
M231 48q67 0 108.5 36.5t52.5 103.5l22 130q4 16 4 33q0 48 -30.5 74t-86.5 26q-66 0 -107.5 -37.5t-52.5 -99.5l-23 -132q-4 -24 -3 -34q0 -47 30.5 -73.5t85.5 -26.5zM484 287h267q8 48 8 63q0 48 -27.5 74.5t-82.5 26.5q-67 0 -110 -45.5t-55 -118.5z" />
    <glyph glyph-name="Racute" unicode="&#x154;" horiz-adv-x="623" 
d="M341 788l117 160h86l-143 -160h-60zM48 0l126 713h240q93 0 150.5 -45.5t57.5 -135.5q0 -93 -58.5 -157.5t-157.5 -76.5q13 -23 74 -148t77 -150h-86l-140 288h-156l-50 -288h-77zM187 354h155q93 0 148.5 43.5t55.5 130.5q0 120 -149 120h-158z" />
    <glyph glyph-name="racute" unicode="&#x155;" horiz-adv-x="375" 
d="M228 581l117 160h86l-143 -160h-60zM38 0l88 501h69l-18 -102h3q35 57 90 83t111 26q14 0 34 -2l-12 -66q-15 2 -49 2q-75 0 -128.5 -44.5t-68.5 -124.5l-48 -273h-71z" />
    <glyph glyph-name="Rcommaaccent" unicode="&#x156;" horiz-adv-x="623" 
d="M209 -190l33 149h77l-52 -149h-58zM48 0l126 713h240q93 0 150.5 -45.5t57.5 -135.5q0 -93 -58.5 -157.5t-157.5 -76.5q13 -23 74 -148t77 -150h-86l-140 288h-156l-50 -288h-77zM187 354h155q93 0 148.5 43.5t55.5 130.5q0 120 -149 120h-158z" />
    <glyph glyph-name="rcommaaccent" unicode="&#x157;" horiz-adv-x="375" 
d="M5 -190l33 149h77l-52 -149h-58zM38 0l88 501h69l-18 -102h3q35 57 90 83t111 26q14 0 34 -2l-12 -66q-15 2 -49 2q-75 0 -128.5 -44.5t-68.5 -124.5l-48 -273h-71z" />
    <glyph glyph-name="Rcaron" unicode="&#x158;" horiz-adv-x="623" 
d="M340 787l-60 159h62l41 -114l84 114h64l-122 -159h-69zM48 0l126 713h240q93 0 150.5 -45.5t57.5 -135.5q0 -93 -58.5 -157.5t-157.5 -76.5q13 -23 74 -148t77 -150h-86l-140 288h-156l-50 -288h-77zM187 354h155q93 0 148.5 43.5t55.5 130.5q0 120 -149 120h-158z" />
    <glyph glyph-name="rcaron" unicode="&#x159;" horiz-adv-x="375" 
d="M227 580l-60 159h62l41 -114l84 114h64l-122 -159h-69zM38 0l88 501h69l-18 -102h3q35 57 90 83t111 26q14 0 34 -2l-12 -66q-15 2 -49 2q-75 0 -128.5 -44.5t-68.5 -124.5l-48 -273h-71z" />
    <glyph glyph-name="Sacute" unicode="&#x15a;" horiz-adv-x="595" 
d="M354 788l117 160h86l-143 -160h-60zM278 -12q-94 0 -159.5 41.5t-91.5 123.5l69 29q16 -61 67.5 -94.5t123.5 -33.5q75 0 130.5 36t55.5 101q0 48 -38.5 81t-122.5 64q-93 35 -139 76t-46 106q0 96 70.5 152t179.5 56q81 0 141.5 -31.5t85.5 -100.5l-63 -26
q-44 93 -167 93q-69 0 -119.5 -35.5t-50.5 -97.5q0 -40 42 -72t136 -68q165 -65 165 -180q0 -103 -76.5 -161.5t-192.5 -58.5z" />
    <glyph glyph-name="sacute" unicode="&#x15b;" horiz-adv-x="458" 
d="M257 581l117 160h86l-143 -160h-60zM198 -12q-129 0 -187 71l45 44q61 -58 146 -58q55 0 96 22.5t41 73.5q0 29 -25.5 47.5t-81.5 39.5q-78 30 -112 57.5t-34 76.5q0 67 52 109t139 42q107 0 165 -54l-43 -45q-54 43 -130 43q-49 0 -82.5 -24t-33.5 -64q0 -25 19 -41.5
t61 -32.5q96 -38 122 -56q54 -35 54 -87q0 -84 -62 -124t-149 -40z" />
    <glyph glyph-name="Scircumflex" unicode="&#x15c;" horiz-adv-x="595" 
d="M261 786l123 159h69l60 -159h-62l-41 111l-84 -111h-65zM278 -12q-94 0 -159.5 41.5t-91.5 123.5l69 29q16 -61 67.5 -94.5t123.5 -33.5q75 0 130.5 36t55.5 101q0 48 -38.5 81t-122.5 64q-93 35 -139 76t-46 106q0 96 70.5 152t179.5 56q81 0 141.5 -31.5t85.5 -100.5
l-63 -26q-44 93 -167 93q-69 0 -119.5 -35.5t-50.5 -97.5q0 -40 42 -72t136 -68q165 -65 165 -180q0 -103 -76.5 -161.5t-192.5 -58.5z" />
    <glyph glyph-name="scircumflex" unicode="&#x15d;" horiz-adv-x="458" 
d="M168 579l123 159h69l60 -159h-62l-41 111l-84 -111h-65zM198 -12q-129 0 -187 71l45 44q61 -58 146 -58q55 0 96 22.5t41 73.5q0 29 -25.5 47.5t-81.5 39.5q-78 30 -112 57.5t-34 76.5q0 67 52 109t139 42q107 0 165 -54l-43 -45q-54 43 -130 43q-49 0 -82.5 -24
t-33.5 -64q0 -25 19 -41.5t61 -32.5q96 -38 122 -56q54 -35 54 -87q0 -84 -62 -124t-149 -40z" />
    <glyph glyph-name="Scedilla" unicode="&#x15e;" horiz-adv-x="595" 
d="M255 -208q-53 0 -95 20l8 41q48 -19 88 -19q75 0 75 49q0 31 -74 33h-22l25 73q-87 4 -148 44.5t-85 119.5l69 29q16 -61 67.5 -94.5t123.5 -33.5q75 0 130.5 36t55.5 101q0 48 -38.5 81t-122.5 64q-93 35 -139 76t-46 106q0 96 70.5 152t179.5 56q81 0 141.5 -31.5
t85.5 -100.5l-63 -26q-44 93 -167 93q-69 0 -119.5 -35.5t-50.5 -97.5q0 -40 42 -72t136 -68q165 -65 165 -180q0 -99 -70 -156.5t-179 -62.5l-12 -36q106 0 106 -62q0 -42 -37 -70.5t-100 -28.5z" />
    <glyph glyph-name="scedilla" unicode="&#x15f;" horiz-adv-x="458" 
d="M173 -208q-53 0 -95 20l8 41q48 -19 88 -19q75 0 75 49q0 31 -74 33h-22l25 73q-115 5 -167 70l45 44q61 -58 146 -58q55 0 96 22.5t41 73.5q0 29 -25.5 47.5t-81.5 39.5q-78 30 -112 57.5t-34 76.5q0 67 52 109t139 42q107 0 165 -54l-43 -45q-54 43 -130 43
q-49 0 -82.5 -24t-33.5 -64q0 -25 19 -41.5t61 -32.5q96 -38 122 -56q54 -35 54 -87q0 -80 -55.5 -119.5t-137.5 -43.5l-12 -36q106 0 106 -62q0 -42 -37 -70.5t-100 -28.5z" />
    <glyph glyph-name="Scaron" unicode="&#x160;" horiz-adv-x="595" 
d="M354 787l-60 159h62l41 -114l84 114h64l-122 -159h-69zM268 -12q-94 0 -159.5 41.5t-91.5 123.5l69 29q16 -61 67.5 -94.5t123.5 -33.5q75 0 130.5 36t55.5 101q0 48 -38.5 81t-122.5 64q-93 35 -139 76t-46 106q0 96 70.5 152t179.5 56q81 0 141.5 -31.5t85.5 -100.5
l-63 -26q-44 93 -167 93q-69 0 -119.5 -35.5t-50.5 -97.5q0 -40 42 -72t136 -68q165 -65 165 -180q0 -103 -76.5 -161.5t-192.5 -58.5z" />
    <glyph glyph-name="scaron" unicode="&#x161;" horiz-adv-x="464" 
d="M262 580l-60 159h62l41 -114l84 114h64l-122 -159h-69zM201 -12q-129 0 -187 71l45 44q61 -58 146 -58q55 0 96 22.5t41 73.5q0 29 -25.5 47.5t-81.5 39.5q-78 30 -112 57.5t-34 76.5q0 67 52 109t139 42q107 0 165 -54l-43 -45q-54 43 -130 43q-49 0 -82.5 -24
t-33.5 -64q0 -25 19 -41.5t61 -32.5q96 -38 122 -56q54 -35 54 -87q0 -84 -62 -124t-149 -40z" />
    <glyph glyph-name="Tcommaaccent" unicode="&#x162;" horiz-adv-x="595" 
d="M192 -190l33 149h77l-52 -149h-58zM228 0l113 647h-233l12 66h542l-12 -66h-232l-114 -647h-76z" />
    <glyph glyph-name="tcommaaccent" unicode="&#x163;" horiz-adv-x="348" 
d="M97 -190l33 149h77l-52 -149h-58zM189 -7q-108 0 -108 84q0 8 2 26l60 340h-90l10 57h90l28 157h71l-28 -157h137l-10 -57h-137l-56 -321q-2 -14 -2 -21q0 -45 61 -45q34 0 75 9l-10 -61q-45 -11 -93 -11z" />
    <glyph glyph-name="Tcaron" unicode="&#x164;" horiz-adv-x="595" 
d="M363 787l-60 159h62l41 -114l84 114h64l-122 -159h-69zM228 0l113 647h-233l12 66h542l-12 -66h-232l-114 -647h-76z" />
    <glyph glyph-name="tcaron" unicode="&#x165;" horiz-adv-x="348" 
d="M293 562l32 151h78l-52 -151h-58zM189 -7q-108 0 -108 84q0 8 2 26l60 340h-90l10 57h90l28 157h71l-28 -157h137l-10 -57h-137l-56 -321q-2 -14 -2 -21q0 -45 61 -45q34 0 75 9l-10 -61q-45 -11 -93 -11z" />
    <glyph glyph-name="Tbar" unicode="&#x166;" horiz-adv-x="595" 
d="M154 334l9 52h132l46 261h-233l12 66h542l-12 -66h-232l-46 -261h133l-9 -52h-133l-59 -334h-76l58 334h-132z" />
    <glyph glyph-name="tbar" unicode="&#x167;" horiz-adv-x="348" 
d="M55 272l8 46h58l22 125h-90l10 57h90l28 157h71l-28 -157h137l-10 -57h-137l-22 -125h71l-8 -46h-71l-26 -150q-2 -14 -2 -21q0 -45 61 -45q34 0 75 9l-10 -61q-45 -11 -93 -11q-108 0 -108 84q0 8 2 26l30 169h-58z" />
    <glyph glyph-name="Utilde" unicode="&#x168;" horiz-adv-x="673" 
d="M303 -12q-61 0 -109.5 17.5t-81.5 61.5t-33 111q0 24 5 54l85 481h77l-83 -466q-5 -30 -5 -49q0 -72 43 -106.5t113 -34.5q92 0 149 49t72 137l84 470h75q-7 -40 -42 -238t-42 -238q-20 -116 -102.5 -182.5t-204.5 -66.5zM312 786q-35 6 -41 8q34 98 108 98q28 0 79 -18
t80 -18q34 0 58 49l38 -10q-34 -98 -107 -98q-29 0 -81.5 18t-78.5 18q-19 0 -30 -10.5t-25 -36.5z" />
    <glyph glyph-name="utilde" unicode="&#x169;" horiz-adv-x="537" 
d="M190 -11q-65 0 -99.5 33.5t-34.5 90.5q0 15 4 41l62 347h71l-57 -319q-5 -32 -5 -47q0 -84 94 -84q61 0 110 45.5t61 112.5l52 292h71q-7 -38 -44.5 -250.5t-44.5 -250.5h-68l16 87l-4 1q-34 -48 -82.5 -73.5t-101.5 -25.5zM202 579q-35 6 -41 8q34 98 108 98
q28 0 79 -18t80 -18q34 0 58 49l38 -10q-34 -98 -107 -98q-29 0 -81.5 18t-78.5 18q-19 0 -30 -10.5t-25 -36.5z" />
    <glyph glyph-name="Umacron" unicode="&#x16a;" horiz-adv-x="673" 
d="M303 -12q-61 0 -109.5 17.5t-81.5 61.5t-33 111q0 24 5 54l85 481h77l-83 -466q-5 -30 -5 -49q0 -72 43 -106.5t113 -34.5q92 0 149 49t72 137l84 470h75q-7 -40 -42 -238t-42 -238q-20 -116 -102.5 -182.5t-204.5 -66.5zM307 805l12 63h269l-12 -63h-269z" />
    <glyph glyph-name="umacron" unicode="&#x16b;" horiz-adv-x="537" 
d="M190 -11q-65 0 -99.5 33.5t-34.5 90.5q0 15 4 41l62 347h71l-57 -319q-5 -32 -5 -47q0 -84 94 -84q61 0 110 45.5t61 112.5l52 292h71q-7 -38 -44.5 -250.5t-44.5 -250.5h-68l16 87l-4 1q-34 -48 -82.5 -73.5t-101.5 -25.5zM187 598l12 63h269l-12 -63h-269z" />
    <glyph glyph-name="Ubreve" unicode="&#x16c;" horiz-adv-x="673" 
d="M303 -12q-61 0 -109.5 17.5t-81.5 61.5t-33 111q0 24 5 54l85 481h77l-83 -466q-5 -30 -5 -49q0 -72 43 -106.5t113 -34.5q92 0 149 49t72 137l84 470h75q-7 -40 -42 -238t-42 -238q-20 -116 -102.5 -182.5t-204.5 -66.5zM448 790q-59 0 -94 40t-26 103h54
q-5 -41 16.5 -65.5t61.5 -24.5q34 0 62 25t36 65h55q-14 -69 -61.5 -106t-103.5 -37z" />
    <glyph glyph-name="ubreve" unicode="&#x16d;" horiz-adv-x="537" 
d="M190 -11q-65 0 -99.5 33.5t-34.5 90.5q0 15 4 41l62 347h71l-57 -319q-5 -32 -5 -47q0 -84 94 -84q61 0 110 45.5t61 112.5l52 292h71q-7 -38 -44.5 -250.5t-44.5 -250.5h-68l16 87l-4 1q-34 -48 -82.5 -73.5t-101.5 -25.5zM334 583q-59 0 -94 40t-26 103h54
q-5 -41 16.5 -65.5t61.5 -24.5q34 0 62 25t36 65h55q-14 -69 -61.5 -106t-103.5 -37z" />
    <glyph glyph-name="Uring" unicode="&#x16e;" horiz-adv-x="673" 
d="M444 772q-37 0 -59 19t-22 51q0 44 32.5 76.5t75.5 32.5q37 0 59.5 -18.5t22.5 -51.5q0 -45 -32.5 -77t-76.5 -32zM447 806q25 0 45 19t20 48q0 44 -47 44q-25 0 -43 -19.5t-18 -48.5q0 -20 12.5 -31.5t30.5 -11.5zM303 -12q-61 0 -109.5 17.5t-81.5 61.5t-33 111
q0 24 5 54l85 481h77l-83 -466q-5 -30 -5 -49q0 -72 43 -106.5t113 -34.5q92 0 149 49t72 137l84 470h75q-7 -40 -42 -238t-42 -238q-20 -116 -102.5 -182.5t-204.5 -66.5z" />
    <glyph glyph-name="uring" unicode="&#x16f;" horiz-adv-x="537" 
d="M336 565q-37 0 -59 19t-22 51q0 44 32.5 76.5t75.5 32.5q37 0 59.5 -18.5t22.5 -51.5q0 -45 -32.5 -77t-76.5 -32zM339 599q25 0 45 19t20 48q0 44 -47 44q-25 0 -43 -19.5t-18 -48.5q0 -20 12.5 -31.5t30.5 -11.5zM190 -11q-65 0 -99.5 33.5t-34.5 90.5q0 15 4 41
l62 347h71l-57 -319q-5 -32 -5 -47q0 -84 94 -84q61 0 110 45.5t61 112.5l52 292h71q-7 -38 -44.5 -250.5t-44.5 -250.5h-68l16 87l-4 1q-34 -48 -82.5 -73.5t-101.5 -25.5z" />
    <glyph glyph-name="Uhungarumlaut" unicode="&#x170;" horiz-adv-x="673" 
d="M303 -12q-61 0 -109.5 17.5t-81.5 61.5t-33 111q0 24 5 54l85 481h77l-83 -466q-5 -30 -5 -49q0 -72 43 -106.5t113 -34.5q92 0 149 49t72 137l84 470h75q-7 -40 -42 -238t-42 -238q-20 -116 -102.5 -182.5t-204.5 -66.5zM323 793l64 130h81l-85 -130h-60zM476 793
l64 130h81l-85 -130h-60z" />
    <glyph glyph-name="uhungarumlaut" unicode="&#x171;" horiz-adv-x="537" 
d="M190 -11q-65 0 -99.5 33.5t-34.5 90.5q0 15 4 41l62 347h71l-57 -319q-5 -32 -5 -47q0 -84 94 -84q61 0 110 45.5t61 112.5l52 292h71q-7 -38 -44.5 -250.5t-44.5 -250.5h-68l16 87l-4 1q-34 -48 -82.5 -73.5t-101.5 -25.5zM213 586l64 130h81l-85 -130h-60zM366 586
l64 130h81l-85 -130h-60z" />
    <glyph glyph-name="Uogonek" unicode="&#x172;" horiz-adv-x="673" 
d="M303 -12q-61 0 -109.5 17.5t-81.5 61.5t-33 111q0 24 5 54l85 481h77l-83 -466q-5 -30 -5 -49q0 -72 43 -106.5t113 -34.5q92 0 149 49t72 137l84 470h75q-7 -40 -42 -238t-42 -238q-15 -85 -64 -144t-124 -86q-43 -14 -67 -46t-24 -63q0 -23 14.5 -35.5t38.5 -12.5
q36 0 70 21l21 -41q-45 -34 -105 -34q-41 0 -70.5 21t-29.5 61q0 64 57 111q-8 -1 -24 -1z" />
    <glyph glyph-name="uogonek" unicode="&#x173;" horiz-adv-x="537" 
d="M190 -11q-65 0 -99.5 33.5t-34.5 90.5q0 15 4 41l62 347h71l-57 -319q-5 -32 -5 -47q0 -84 94 -84q61 0 110 45.5t61 112.5l52 292h71q-7 -38 -44.5 -250.5t-44.5 -250.5q-50 -13 -78.5 -42t-28.5 -60q0 -23 14.5 -35.5t38.5 -12.5q36 0 70 21l21 -41q-45 -34 -105 -34
q-41 0 -70.5 21t-29.5 61q0 45 29 80t73 55l14 74l-4 1q-34 -48 -82.5 -73.5t-101.5 -25.5z" />
    <glyph glyph-name="Wcircumflex" unicode="&#x174;" horiz-adv-x="870" 
d="M402 786l123 159h69l60 -159h-62l-41 111l-84 -111h-65zM176 -2l-57 715h77l38 -591h2l256 591h72l46 -591h3l248 591h76l-310 -715h-74l-45 591h-3l-254 -591h-75z" />
    <glyph glyph-name="wcircumflex" unicode="&#x175;" horiz-adv-x="747" 
d="M302 579l123 159h69l60 -159h-62l-41 111l-84 -111h-65zM137 -1l-68 502h75l45 -408h2l196 408h66l52 -408h3l192 408h74l-247 -502h-72l-50 408h-3l-193 -408h-72z" />
    <glyph glyph-name="Ycircumflex" unicode="&#x176;" horiz-adv-x="581" 
d="M217 0l52 296l-157 417h81l125 -341l244 341h86l-305 -418l-51 -295h-75zM265 786l123 159h69l60 -159h-62l-41 111l-84 -111h-65z" />
    <glyph glyph-name="ycircumflex" unicode="&#x177;" horiz-adv-x="482" 
d="M15 -204q-27 0 -60 8l12 61q29 -6 59 -6t56.5 18.5t42.5 47.5l47 87l-103 489h76l78 -404h2l205 404h77l-318 -592q-60 -113 -174 -113zM180 579l123 159h69l60 -159h-62l-41 111l-84 -111h-65z" />
    <glyph glyph-name="Ydieresis" unicode="&#x178;" horiz-adv-x="581" 
d="M217 0l52 296l-157 417h81l125 -341l244 341h86l-305 -418l-51 -295h-75zM255 770l18 104h72l-19 -104h-71zM447 770l19 104h72l-19 -104h-72z" />
    <glyph glyph-name="Zacute" unicode="&#x179;" horiz-adv-x="556" 
d="M351 788l117 160h86l-143 -160h-60zM5 0q0 1 5.5 30t5.5 30l483 588h-363l11 65h462q0 -1 -5.5 -29.5t-5.5 -29.5l-482 -587h380l-12 -67h-479z" />
    <glyph glyph-name="zacute" unicode="&#x17a;" horiz-adv-x="451" 
d="M251 581l117 160h86l-143 -160h-60zM0 0l9 54l344 389h-267l11 58h363l-10 -54l-345 -387h282l-10 -60h-377z" />
    <glyph glyph-name="Zdotaccent" unicode="&#x17b;" horiz-adv-x="556" 
d="M5 0q0 1 5.5 30t5.5 30l483 588h-363l11 65h462q0 -1 -5.5 -29.5t-5.5 -29.5l-482 -587h380l-12 -67h-479zM346 789l19 108h77l-19 -108h-77z" />
    <glyph glyph-name="zdotaccent" unicode="&#x17c;" horiz-adv-x="451" 
d="M0 0l9 54l344 389h-267l11 58h363l-10 -54l-345 -387h282l-10 -60h-377zM250 582l19 108h77l-19 -108h-77z" />
    <glyph glyph-name="Zcaron" unicode="&#x17d;" horiz-adv-x="556" 
d="M333 788l-60 159h62l41 -114l84 114h64l-122 -159h-69zM-12 0q0 1 5.5 30t5.5 30l483 588h-363l11 65h462q0 -1 -5.5 -29.5t-5.5 -29.5l-482 -587h380l-12 -67h-479z" />
    <glyph glyph-name="zcaron" unicode="&#x17e;" horiz-adv-x="455" 
d="M259 580l-60 159h62l41 -114l84 114h64l-122 -159h-69zM-3 0l9 54l344 389h-267l11 58h363l-10 -54l-345 -387h282l-10 -60h-377z" />
    <glyph glyph-name="florin" unicode="&#x192;" horiz-adv-x="369" 
d="M-9 -202q-20 0 -38 2l11 63q17 -3 36 -3q38 0 57.5 20.5t28.5 62.5l93 448h-101l12 57h102l29 139q31 140 165 140q32 0 54 -6l-14 -62q-19 5 -48 5q-68 0 -83 -73l-30 -143h112l-12 -57h-113l-94 -452q-15 -71 -55 -106t-112 -35z" />
    <glyph glyph-name="Aringacute" unicode="&#x1fa;" horiz-adv-x="656" 
d="M0 0l391 715h73l136 -715h-79l-36 209h-294l-112 -209h-79zM223 274h251l-62 347h-3zM435 763q-38 0 -58 19.5t-20 50.5q0 49 44 86l138 113l38 -51l-89 -51q23 -2 40 -17.5t17 -40.5q0 -45 -33 -77t-77 -32zM441 797q25 0 45 18.5t20 49.5q0 42 -47 42
q-25 0 -43.5 -19.5t-18.5 -48.5q0 -20 12.5 -31t31.5 -11z" />
    <glyph glyph-name="aringacute" unicode="&#x1fb;" horiz-adv-x="533" 
d="M196 -12q-71 0 -112.5 36.5t-41.5 101.5q0 21 4 37q2 11 13.5 78.5t13.5 78.5q17 92 76.5 142t141.5 50q48 0 87.5 -23.5t50.5 -67.5h4l15 80h69l-89 -501h-68l16 89h-3q-32 -49 -82 -75t-95 -26zM224 49q56 0 107 43t63 110l18 105q3 17 3 30q0 54 -34.5 84.5
t-86.5 30.5q-54 0 -95.5 -33.5t-51.5 -92.5l-28 -159q-3 -12 -3 -25q0 -43 29 -68t79 -25zM309 569q-38 0 -58 19.5t-20 50.5q0 49 44 86l138 113l38 -51l-89 -51q23 -2 40 -17.5t17 -40.5q0 -45 -33 -77t-77 -32zM315 603q25 0 45 18.5t20 49.5q0 42 -47 42
q-25 0 -43.5 -19.5t-18.5 -48.5q0 -20 12.5 -31t31.5 -11z" />
    <glyph glyph-name="AEacute" unicode="&#x1fc;" horiz-adv-x="964" 
d="M596 788l117 160h86l-143 -160h-60zM-16 0l527 713h491l-10 -63h-368l-44 -251h291l-12 -62h-290l-48 -274h367l-11 -63h-444l35 204h-251l-151 -204h-82zM258 264h221l68 391z" />
    <glyph glyph-name="aeacute" unicode="&#x1fd;" horiz-adv-x="833" 
d="M452 581l117 160h86l-143 -160h-60zM170 -12q-61 0 -102 30t-41 88q0 60 35.5 102.5t82 59.5t96.5 17h145q14 87 14 97q0 73 -105 73q-50 0 -90.5 -22t-47.5 -73h-65q14 80 74 116.5t142 36.5q52 0 94 -21t59 -62q71 82 180 82q77 0 123 -39t46 -112q0 -35 -17 -125h-338
q-1 -9 -4.5 -26t-5.5 -31t-2 -26q0 -51 37.5 -78.5t96.5 -27.5q84 0 166 54l25 -46q-73 -67 -205 -67q-68 0 -117.5 27t-65.5 79q-36 -56 -93.5 -81t-116.5 -25zM200 44q68 0 112 35.5t55 102.5l9 50h-132q-26 0 -49 -4.5t-46.5 -16t-37.5 -34.5t-14 -56q0 -39 29 -58
t74 -19zM465 287h266q8 41 8 63q0 101 -109 101q-60 0 -102 -32t-54 -84q-9 -36 -9 -48z" />
    <glyph glyph-name="Oslashacute" unicode="&#x1fe;" horiz-adv-x="666" 
d="M95 -55l-37 25l61 82q-50 50 -50 128q0 25 4 45q3 20 21.5 122t21.5 122q20 115 108.5 186t206.5 71q95 0 157 -44l57 76l37 -25l-61 -82q43 -49 43 -122q0 -26 -4 -49q-3 -18 -20.5 -117t-21.5 -118q-21 -115 -109.5 -186t-205.5 -71q-87 0 -149 36zM148 196
q0 -46 21 -77l374 502q-46 37 -123 37q-88 0 -149 -49.5t-78 -138.5q-35 -200 -42 -235q-3 -21 -3 -39zM314 56q84 0 147.5 50t78.5 132q2 10 12.5 68t19 108.5t11.5 68.5q4 17 4 38q0 38 -15 65l-371 -499q45 -31 113 -31zM407 788l117 160h86l-143 -160h-60z" />
    <glyph glyph-name="oslashacute" unicode="&#x1ff;" horiz-adv-x="514" 
d="M94 -60l-35 19l40 61q-58 39 -58 117q0 23 4 43l23 131q16 92 83.5 146.5t159.5 54.5q56 0 98 -20l40 60l35 -19l-42 -63q47 -41 47 -111q0 -20 -5 -47l-21 -124q-16 -92 -82.5 -146t-158.5 -54q-48 0 -88 14zM114 148q0 -44 24 -69l234 355q-29 17 -72 17
q-66 0 -107.5 -37.5t-52.5 -99.5l-23 -132q-4 -24 -3 -34zM230 48q66 0 107.5 36t52.5 101l23 133q4 24 4 33q0 33 -16 57l-230 -350q24 -10 59 -10zM280 581l117 160h86l-143 -160h-60z" />
    <glyph glyph-name="Scommaaccent" unicode="&#x218;" horiz-adv-x="595" 
d="M208 -190l33 149h77l-52 -149h-58zM278 -12q-94 0 -159.5 41.5t-91.5 123.5l69 29q16 -61 67.5 -94.5t123.5 -33.5q75 0 130.5 36t55.5 101q0 48 -38.5 81t-122.5 64q-93 35 -139 76t-46 106q0 96 70.5 152t179.5 56q81 0 141.5 -31.5t85.5 -100.5l-63 -26
q-44 93 -167 93q-69 0 -119.5 -35.5t-50.5 -97.5q0 -40 42 -72t136 -68q165 -65 165 -180q0 -103 -76.5 -161.5t-192.5 -58.5z" />
    <glyph glyph-name="scommaaccent" unicode="&#x219;" horiz-adv-x="458" 
d="M134 -190l33 149h77l-52 -149h-58zM198 -12q-129 0 -187 71l45 44q61 -58 146 -58q55 0 96 22.5t41 73.5q0 29 -25.5 47.5t-81.5 39.5q-78 30 -112 57.5t-34 76.5q0 67 52 109t139 42q107 0 165 -54l-43 -45q-54 43 -130 43q-49 0 -82.5 -24t-33.5 -64q0 -25 19 -41.5
t61 -32.5q96 -38 122 -56q54 -35 54 -87q0 -84 -62 -124t-149 -40z" />
    <glyph glyph-name="uni021A" unicode="&#x21a;" horiz-adv-x="595" 
d="M192 -190l33 149h77l-52 -149h-58zM228 0l113 647h-233l12 66h542l-12 -66h-232l-114 -647h-76z" />
    <glyph glyph-name="uni021B" unicode="&#x21b;" horiz-adv-x="348" 
d="M97 -190l33 149h77l-52 -149h-58zM189 -7q-108 0 -108 84q0 8 2 26l60 340h-90l10 57h90l28 157h71l-28 -157h137l-10 -57h-137l-56 -321q-2 -14 -2 -21q0 -45 61 -45q34 0 75 9l-10 -61q-45 -11 -93 -11z" />
    <glyph glyph-name="dotlessj" unicode="&#x237;" horiz-adv-x="239" 
d="M-54 -203q-19 0 -37 2l10 61q8 -1 35 -1q75 0 91 85l98 557h71l-99 -563q-25 -141 -169 -141z" />
    <glyph glyph-name="circumflex" unicode="&#x2c6;" horiz-adv-x="392" 
d="M124 579l123 159h69l60 -159h-62l-41 111l-84 -111h-65z" />
    <glyph glyph-name="caron" unicode="&#x2c7;" horiz-adv-x="321" 
d="M197 580l-60 159h62l41 -114l84 114h64l-122 -159h-69z" />
    <glyph glyph-name="breve" unicode="&#x2d8;" horiz-adv-x="380" 
d="M256 583q-59 0 -94 40t-26 103h54q-5 -41 16.5 -65.5t61.5 -24.5q34 0 62 25t36 65h55q-14 -69 -61.5 -106t-103.5 -37z" />
    <glyph glyph-name="dotaccent" unicode="&#x2d9;" horiz-adv-x="218" 
d="M95 582l19 108h77l-19 -108h-77z" />
    <glyph glyph-name="ring" unicode="&#x2da;" horiz-adv-x="309" 
d="M192 565q-37 0 -59 19t-22 51q0 44 32.5 76.5t75.5 32.5q37 0 59.5 -18.5t22.5 -51.5q0 -45 -32.5 -77t-76.5 -32zM195 599q25 0 45 19t20 48q0 44 -47 44q-25 0 -43 -19.5t-18 -48.5q0 -20 12.5 -31.5t30.5 -11.5z" />
    <glyph glyph-name="ogonek" unicode="&#x2db;" horiz-adv-x="400" 
d="M167 -204q-41 0 -70.5 21t-29.5 61q0 53 40 92t94 55l34 -25q-50 -13 -78.5 -42t-28.5 -60q0 -23 14.5 -35.5t38.5 -12.5q36 0 70 21l21 -41q-45 -34 -105 -34z" />
    <glyph glyph-name="tilde" unicode="&#x2dc;" horiz-adv-x="442" 
d="M153 579q-35 6 -41 8q34 98 108 98q28 0 79 -18t80 -18q20 0 33 12t25 37l38 -10q-34 -98 -107 -98q-29 0 -81.5 18t-78.5 18q-19 0 -30 -10.5t-25 -36.5z" />
    <glyph glyph-name="hungarumlaut" unicode="&#x2dd;" horiz-adv-x="401" 
d="M138 586l64 130h81l-85 -130h-60zM291 586l64 130h81l-85 -130h-60z" />
    <glyph glyph-name="pi" unicode="&#x3c0;" horiz-adv-x="561" 
d="M432 -5q-79 0 -79 79q0 13 3 31l57 328h-192q-51 -242 -101 -433h-78q60 218 104 433h-93l23 69h511l-12 -69h-87l-54 -306q-3 -13 -3 -25q0 -41 39 -41q27 0 45 5l-8 -60q-36 -11 -75 -11z" />
    <glyph glyph-name="Wgrave" unicode="&#x1e80;" horiz-adv-x="870" 
d="M176 -2l-57 715h77l38 -591h2l256 591h72l46 -591h3l248 591h76l-310 -715h-74l-45 591h-3l-254 -591h-75zM498 788l-123 160h85l97 -160h-59z" />
    <glyph glyph-name="wgrave" unicode="&#x1e81;" horiz-adv-x="747" 
d="M137 -1l-68 502h75l45 -408h2l196 408h66l52 -408h3l192 408h74l-247 -502h-72l-50 408h-3l-193 -408h-72zM388 581l-123 160h85l97 -160h-59z" />
    <glyph glyph-name="Wacute" unicode="&#x1e82;" horiz-adv-x="870" 
d="M503 788l117 160h86l-143 -160h-60zM176 -2l-57 715h77l38 -591h2l256 591h72l46 -591h3l248 591h76l-310 -715h-74l-45 591h-3l-254 -591h-75z" />
    <glyph glyph-name="wacute" unicode="&#x1e83;" horiz-adv-x="747" 
d="M403 581l117 160h86l-143 -160h-60zM137 -1l-68 502h75l45 -408h2l196 408h66l52 -408h3l192 408h74l-247 -502h-72l-50 408h-3l-193 -408h-72z" />
    <glyph glyph-name="Wdieresis" unicode="&#x1e84;" horiz-adv-x="870" 
d="M397 790l18 104h72l-19 -104h-71zM589 790l19 104h72l-19 -104h-72zM176 -2l-57 715h77l38 -591h2l256 591h72l46 -591h3l248 591h76l-310 -715h-74l-45 591h-3l-254 -591h-75z" />
    <glyph glyph-name="wdieresis" unicode="&#x1e85;" horiz-adv-x="747" 
d="M286 583l18 104h72l-19 -104h-71zM478 583l19 104h72l-19 -104h-72zM137 -1l-68 502h75l45 -408h2l196 408h66l52 -408h3l192 408h74l-247 -502h-72l-50 408h-3l-193 -408h-72z" />
    <glyph glyph-name="Ygrave" unicode="&#x1ef2;" horiz-adv-x="581" 
d="M217 0l52 296l-157 417h81l125 -341l244 341h86l-305 -418l-51 -295h-75zM355 788l-123 160h85l97 -160h-59z" />
    <glyph glyph-name="ygrave" unicode="&#x1ef3;" horiz-adv-x="482" 
d="M15 -204q-27 0 -60 8l12 61q29 -6 59 -6t56.5 18.5t42.5 47.5l47 87l-103 489h76l78 -404h2l205 404h77l-318 -592q-60 -113 -174 -113zM275 581l-123 160h85l97 -160h-59z" />
    <glyph glyph-name="endash" unicode="&#x2013;" horiz-adv-x="461" 
d="M7 269l9 54h461l-9 -54h-461z" />
    <glyph glyph-name="emdash" unicode="&#x2014;" horiz-adv-x="766" 
d="M12 269l8 54h765l-9 -54h-764z" />
    <glyph glyph-name="quoteleft" unicode="&#x2018;" horiz-adv-x="224" 
d="M112 488l20 112l55 118h39l-42 -116h26l-20 -114h-78z" />
    <glyph glyph-name="quoteright" unicode="&#x2019;" horiz-adv-x="211" 
d="M106 487l42 116h-26l20 114h78l-20 -112l-55 -118h-39z" />
    <glyph glyph-name="quotesinglbase" unicode="&#x201a;" horiz-adv-x="221" 
d="M31 -114l42 116h-26l20 114h78l-20 -113l-55 -117h-39z" />
    <glyph glyph-name="quotedblleft" unicode="&#x201c;" horiz-adv-x="376" 
d="M115 488l20 112l55 118h39l-42 -116h26l-20 -114h-78zM267 488l20 112l55 118h39l-42 -116h25l-19 -114h-78z" />
    <glyph glyph-name="quotedblright" unicode="&#x201d;" horiz-adv-x="376" 
d="M120 487l41 116h-25l20 114h77l-19 -112l-56 -118h-38zM271 487l42 116h-25l19 114h78l-20 -112l-55 -118h-39z" />
    <glyph glyph-name="quotedblbase" unicode="&#x201e;" horiz-adv-x="375" 
d="M31 -114l42 116h-26l20 114h78l-20 -113l-55 -117h-39zM184 -114l42 116h-25l20 114h77l-20 -113l-55 -117h-39z" />
    <glyph glyph-name="dagger" unicode="&#x2020;" horiz-adv-x="561" 
d="M190 -156l112 631h-206l9 54h206l33 186h61l-33 -186h206l-9 -54h-207l-111 -631h-61z" />
    <glyph glyph-name="daggerdbl" unicode="&#x2021;" horiz-adv-x="561" 
d="M190 -156l34 191h-206l9 53h206l69 387h-206l9 54h206l33 186h61l-33 -186h206l-9 -54h-207l-68 -387h206l-9 -53h-207l-33 -191h-61z" />
    <glyph glyph-name="bullet" unicode="&#x2022;" horiz-adv-x="386" 
d="M209 262q-38 0 -61.5 23.5t-23.5 59.5q0 48 36.5 84.5t84.5 36.5q38 0 61.5 -24t23.5 -60q0 -47 -37.5 -83.5t-83.5 -36.5z" />
    <glyph glyph-name="ellipsis" unicode="&#x2026;" horiz-adv-x="703" 
d="M61 0l21 116h78l-22 -116h-77zM296 0l21 116h78l-21 -116h-78zM531 0l21 116h78l-21 -116h-78z" />
    <glyph glyph-name="perthousand" unicode="&#x2030;" horiz-adv-x="1090" 
d="M874 -11q-49 0 -80 22.5t-31 68.5q0 9 2 25l24 134q10 59 52 91t99 32q50 0 82 -23t32 -70q0 -18 -2 -27l-25 -137q-9 -55 -52.5 -85.5t-100.5 -30.5zM882 31q37 1 62.5 21t30.5 52l26 144q1 5 1 14q0 27 -18.5 43t-49.5 16q-37 0 -61.5 -20t-30.5 -53l-25 -144
q-1 -6 -1 -17q0 -56 66 -56zM214 352q-51 0 -81 24t-30 69q0 7 2 27l24 133q11 60 53 90t98 30q50 0 82 -23t32 -70q0 -12 -3 -27l-24 -137q-10 -56 -54 -86t-99 -30zM222 395q38 0 63 21t30 52l25 143q2 10 2 15q0 25 -17.5 41.5t-51.5 16.5q-37 0 -61 -20.5t-30 -52.5
l-25 -143q-1 -6 -1 -17q0 -26 16.5 -41t49.5 -15zM116 -9l541 731h52l-540 -731h-53zM541 -11q-50 0 -80 23t-30 68q0 16 2 25l23 134q11 60 53.5 91.5t97.5 31.5q51 0 83 -23t32 -70q0 -12 -3 -27l-24 -137q-10 -55 -54 -85.5t-100 -30.5zM549 31q39 0 63.5 21t30.5 52
l25 144q2 10 2 14q0 26 -17.5 42.5t-51.5 16.5q-38 0 -62 -20.5t-29 -52.5l-26 -144q-1 -6 -1 -17q0 -56 66 -56z" />
    <glyph glyph-name="guilsinglleft" unicode="&#x2039;" horiz-adv-x="326" 
d="M226 79l-158 188l224 190l30 -35l-166 -156l111 -157z" />
    <glyph glyph-name="guilsinglright" unicode="&#x203a;" horiz-adv-x="326" 
d="M64 79l-32 38l168 152l-113 156l42 32l158 -189z" />
    <glyph glyph-name="fraction" unicode="&#x2044;" horiz-adv-x="122" 
d="M-193 -2l498 715h52l-497 -715h-53z" />
    <glyph glyph-name="uni2070" unicode="&#x2070;" horiz-adv-x="362" 
d="M214 368q-51 0 -86 24t-35 70q0 7 2 23l32 178q11 57 56 87.5t104 30.5q51 0 84.5 -24.5t33.5 -71.5q0 -7 -2 -23l-32 -177q-10 -56 -55.5 -86.5t-101.5 -30.5zM222 416q36 0 59 20.5t29 51.5l32 174q1 4 1 17q0 25 -17 39.5t-49 14.5q-34 0 -59 -20.5t-30 -50.5
l-31 -176q-2 -10 -2 -15q0 -25 17.5 -40t49.5 -15z" />
    <glyph glyph-name="uni2074" unicode="&#x2074;" horiz-adv-x="351" 
d="M244 380l18 102h-174l7 45l204 253h66l-208 -251h113l13 77l64 37l-20 -114h52l-8 -47h-52l-19 -102h-56z" />
    <glyph glyph-name="uni2075" unicode="&#x2075;" horiz-adv-x="348" 
d="M205 368q-53 0 -82.5 21.5t-29.5 54.5q0 14 5 36h57q-3 -15 -3 -22q0 -20 17.5 -31.5t44.5 -11.5q67 0 86 73q0 2 5 29q0 2 0.5 7t0.5 8q0 25 -16.5 38.5t-41.5 13.5q-39 0 -73 -27l-52 7l48 210h216l-8 -50h-169l-29 -124q42 27 95 27q38 0 64.5 -21t26.5 -61
q0 -15 -1 -23q-5 -30 -9 -42q-14 -55 -55.5 -83.5t-96.5 -28.5z" />
    <glyph glyph-name="uni2076" unicode="&#x2076;" horiz-adv-x="357" 
d="M211 368q-50 0 -80.5 24.5t-30.5 66.5q0 15 3 26l31 181q9 53 53 84t101 31q51 0 79.5 -20.5t28.5 -57.5q0 -15 -4 -34h-56q2 18 2 21q0 45 -58 45q-34 0 -56.5 -19.5t-27.5 -49.5l-16 -85q45 47 107 47q39 0 63.5 -20.5t24.5 -53.5q0 -7 -2 -17l-10 -61
q-9 -51 -51.5 -79.5t-100.5 -28.5zM223 415q33 0 55 17.5t26 43.5q11 53 11 63q0 47 -59 47q-27 0 -54 -19.5t-33 -51.5q-8 -42 -8 -48q0 -23 16 -37.5t46 -14.5z" />
    <glyph glyph-name="uni2077" unicode="&#x2077;" horiz-adv-x="344" 
d="M131 380q19 96 80 196.5t124 152.5h-193l9 50h258l-7 -42q-69 -61 -128.5 -154.5t-79.5 -202.5h-63z" />
    <glyph glyph-name="uni2078" unicode="&#x2078;" horiz-adv-x="357" 
d="M212 368q-53 0 -83.5 21t-30.5 62q0 14 5 41q5 30 26 52.5t50 33.5q-43 13 -43 63q0 16 4 36q9 49 50.5 76.5t94.5 27.5q48 0 79.5 -21t31.5 -61q0 -38 -18 -72.5t-59 -48.5q49 -18 49 -70q0 -9 -5 -35q-10 -49 -51.5 -77t-99.5 -28zM220 412q32 0 54.5 17t28.5 48
q3 20 3 29q0 25 -18 37t-43 12q-29 0 -53 -15.5t-29 -44.5q-5 -30 -5 -35q0 -23 17.5 -35.5t44.5 -12.5zM254 598q27 0 50.5 16.5t28.5 44.5q5 27 5 30q0 23 -18 35t-44 12q-29 0 -51.5 -15t-26.5 -42q-5 -30 -5 -32q0 -24 18.5 -36.5t42.5 -12.5z" />
    <glyph glyph-name="uni2079" unicode="&#x2079;" horiz-adv-x="357" 
d="M206 367q-50 0 -78.5 21t-28.5 58q0 11 4 34h57q-3 -18 -3 -23q0 -42 58 -42q34 0 57 19t28 49l15 86q-35 -49 -107 -49q-40 0 -64 20.5t-24 54.5q0 11 1 16l11 59q9 52 51.5 81.5t100.5 29.5q51 0 81 -25.5t30 -68.5q0 -8 -2 -22l-32 -182q-9 -53 -53.5 -84.5
t-101.5 -31.5zM239 563q27 0 54 19.5t33 51.5q7 38 7 45q0 24 -15.5 40t-44.5 16q-34 0 -55.5 -18.5t-26.5 -45.5q-11 -56 -11 -63q0 -45 59 -45z" />
    <glyph glyph-name="uni207D" unicode="&#x207d;" horiz-adv-x="177" 
d="M148 305q-35 62 -35 163q0 89 32 179.5t92 162.5h33q-53 -91 -80 -177t-27 -194q0 -71 16 -134h-31z" />
    <glyph glyph-name="uni207E" unicode="&#x207e;" horiz-adv-x="175" 
d="M77 305h-31q49 84 77 183.5t28 185.5q0 58 -16 136h30q36 -68 36 -162q0 -92 -33.5 -184t-90.5 -159z" />
    <glyph glyph-name="uni2080" unicode="&#x2080;" horiz-adv-x="362" 
d="M128 -145q-51 0 -86 24t-35 70q0 7 2 23l32 178q11 57 56 87.5t104 30.5q51 0 84.5 -24.5t33.5 -71.5q0 -7 -2 -23l-32 -177q-10 -56 -55.5 -86.5t-101.5 -30.5zM136 -97q36 0 59 20.5t29 51.5l32 174q1 4 1 17q0 25 -17 39.5t-49 14.5q-34 0 -59 -20.5t-30 -50.5
l-31 -176q-2 -10 -2 -15q0 -25 17.5 -40t49.5 -15z" />
    <glyph glyph-name="uni2081" unicode="&#x2081;" horiz-adv-x="314" 
d="M-2 -133l8 42h90l53 301l-87 -13l4 40l124 28h29l-63 -356h83l-7 -42h-234z" />
    <glyph glyph-name="uni2082" unicode="&#x2082;" horiz-adv-x="345" 
d="M7 -133l7 39l144 134q25 23 39.5 39.5t28.5 44t14 54.5q0 49 -57 49q-28 0 -48.5 -15t-27.5 -44q-1 -1 -2 -7t-1 -7h-54q3 6 3 17q10 51 48.5 77t94.5 26q51 0 77.5 -23.5t26.5 -62.5q0 -24 -9.5 -49.5t-19 -42.5t-34 -43.5t-34.5 -36.5t-41 -39l-67 -61h166l-8 -49h-246
z" />
    <glyph glyph-name="uni2083" unicode="&#x2083;" horiz-adv-x="348" 
d="M116 -145q-55 0 -83 21.5t-28 57.5q0 13 2 19q0 8 3 14h56l-2 -6q0 -1 -0.5 -7t-0.5 -9q0 -44 64 -44q34 0 60.5 24t26.5 63q0 31 -21.5 43.5t-44.5 12.5h-39l7 44h37q35 0 59.5 21t24.5 61q0 25 -16 37.5t-40 12.5q-30 0 -51 -14.5t-26 -42.5l-2 -10h-56l3 15
q8 45 46.5 72.5t96.5 27.5q52 0 77.5 -24t25.5 -61q0 -39 -22 -71.5t-61 -42.5v-1q63 -18 63 -78q0 -63 -49 -99t-110 -36z" />
    <glyph glyph-name="uni2084" unicode="&#x2084;" horiz-adv-x="351" 
d="M158 -133l18 102h-174l7 45l204 253h66l-208 -251h113l13 77l64 37l-20 -114h52l-8 -47h-52l-19 -102h-56z" />
    <glyph glyph-name="uni2085" unicode="&#x2085;" horiz-adv-x="348" 
d="M119 -145q-53 0 -82.5 21.5t-29.5 54.5q0 13 5 36h57q-3 -15 -3 -22q0 -20 17.5 -31.5t44.5 -11.5q67 0 86 73q0 2 5 29q0 2 0.5 7t0.5 8q0 25 -16.5 38.5t-41.5 13.5q-39 0 -73 -27l-52 7l48 210h216l-8 -50h-169l-29 -124q42 27 95 27q38 0 64.5 -21t26.5 -61
q0 -15 -1 -23q-5 -30 -9 -42q-14 -55 -55.5 -83.5t-96.5 -28.5z" />
    <glyph glyph-name="uni2086" unicode="&#x2086;" horiz-adv-x="357" 
d="M125 -145q-50 0 -80.5 24.5t-30.5 66.5q0 16 3 26l31 181q9 53 53 84t101 31q51 0 79.5 -20.5t28.5 -57.5q0 -15 -4 -34h-56q2 18 2 21q0 45 -58 45q-34 0 -56.5 -19.5t-27.5 -49.5l-16 -85q45 47 107 47q39 0 63.5 -20.5t24.5 -53.5q0 -7 -2 -17l-10 -61
q-9 -51 -51.5 -79.5t-100.5 -28.5zM137 -98q33 0 55 17.5t26 43.5q11 53 11 63q0 47 -59 47q-27 0 -54 -19.5t-33 -51.5q-8 -42 -8 -48q0 -23 16 -37.5t46 -14.5z" />
    <glyph glyph-name="uni2087" unicode="&#x2087;" horiz-adv-x="344" 
d="M45 -133q19 96 80 196.5t124 152.5h-193l9 50h258l-7 -42q-69 -61 -128.5 -154.5t-79.5 -202.5h-63z" />
    <glyph glyph-name="uni2088" unicode="&#x2088;" horiz-adv-x="357" 
d="M126 -145q-53 0 -83.5 21t-30.5 62q0 14 5 41q5 30 26 52.5t50 33.5q-43 13 -43 63q0 16 4 36q9 49 50.5 76.5t94.5 27.5q48 0 79.5 -21t31.5 -61q0 -38 -18 -72.5t-59 -48.5q22 -8 35.5 -26.5t13.5 -43.5q0 -9 -5 -35q-10 -49 -51.5 -77t-99.5 -28zM134 -101
q32 0 54.5 17t28.5 48q3 20 3 29q0 25 -18 37t-43 12q-29 0 -53 -15.5t-29 -44.5q-5 -30 -5 -35q0 -23 17.5 -35.5t44.5 -12.5zM168 85q27 0 50.5 16.5t28.5 44.5t5 30q0 23 -18 35t-44 12q-29 0 -51.5 -15t-26.5 -42q-5 -30 -5 -32q0 -24 18.5 -36.5t42.5 -12.5z" />
    <glyph glyph-name="uni2089" unicode="&#x2089;" horiz-adv-x="357" 
d="M120 -146q-50 0 -78.5 21t-28.5 58q0 11 4 34h57q-3 -18 -3 -23q0 -42 58 -42q34 0 57 19t28 49l15 86q-35 -49 -107 -49q-40 0 -64 20.5t-24 54.5q0 11 1 16l11 59q9 52 51.5 81.5t100.5 29.5q51 0 81 -25.5t30 -68.5q0 -8 -2 -22l-32 -182q-9 -53 -53.5 -84.5
t-101.5 -31.5zM153 50q27 0 54 19.5t33 51.5q7 39 7 45q0 24 -15.5 40t-44.5 16q-34 0 -55.5 -18.5t-26.5 -45.5q-11 -56 -11 -63q0 -45 59 -45z" />
    <glyph glyph-name="uni208D" unicode="&#x208d;" horiz-adv-x="177" 
d="M76 -208q-35 62 -35 163q0 89 32 179.5t92 162.5h33q-53 -91 -80 -177t-27 -194q0 -71 16 -134h-31z" />
    <glyph glyph-name="uni208E" unicode="&#x208e;" horiz-adv-x="175" 
d="M2 -208h-31q49 84 77 183.5t28 185.5q0 58 -16 136h30q36 -67 36 -162q0 -92 -33.5 -184t-90.5 -159z" />
    <glyph glyph-name="Euro" unicode="&#x20ac;" horiz-adv-x="702" 
d="M355 -12q-98 0 -156 48.5t-58 141.5q0 26 8 74h-90l8 46h90l20 117h-92l8 46h93q25 128 99 196.5t192 68.5q97 0 158.5 -47t61.5 -127q0 -21 -10 -73h-73q6 37 6 54q0 58 -42 91.5t-115 33.5q-84 0 -134.5 -52t-66.5 -145h253l-9 -46h-252l-20 -117h255l-9 -46h-254
q-7 -43 -7 -59q0 -66 38 -101.5t110 -35.5q84 0 138.5 45t65.5 124h71q-5 -28 -7 -35q-24 -95 -99 -148.5t-181 -53.5z" />
    <glyph glyph-name="trademark" unicode="&#x2122;" horiz-adv-x="651" 
d="M345 408l54 308h52l53 -163l110 163h51l-54 -308h-40l42 240l-106 -159h-29l-51 159l-42 -240h-40zM168 408l47 269h-95l7 39h232l-6 -39h-94l-48 -269h-43z" />
    <glyph glyph-name="Omega" unicode="&#x2126;" horiz-adv-x="672" 
d="M27 0l12 70l135 -3l1 6q-84 99 -84 245q0 40 5 73q3 24 5 33q25 143 115.5 222t212.5 79q109 0 170.5 -62t61.5 -166q0 -34 -9 -79q0 -3 -2 -14.5t-3 -15.5q-22 -106 -75 -185.5t-117 -129.5l-1 -6l137 4l-12 -71h-216l10 59q5 5 35.5 34.5t41.5 43t33 43.5t36 64t25 77
q15 40 27 116q7 35 7 65q0 72 -46 113.5t-116 41.5q-78 0 -143.5 -55.5t-83.5 -162.5q-11 -50 -13 -77q-4 -26 -4 -70q0 -55 14 -102.5t28.5 -72.5t40.5 -59l-10 -58h-218z" />
    <glyph glyph-name="uni2153" unicode="&#x2153;" horiz-adv-x="831" 
d="M67 316l8 42h90l53 301l-87 -13l4 40l124 28h29l-63 -356h83l-7 -42h-234zM179 -2l498 715h52l-497 -715h-53zM625 -12q-55 0 -83 21.5t-28 57.5q0 13 2 19q0 8 3 14h56l-2 -6q0 -1 -0.5 -7t-0.5 -9q0 -44 64 -44q34 0 60.5 24t26.5 63q0 31 -21.5 43.5t-44.5 12.5h-39
l7 44h37q35 0 59.5 21t24.5 61q0 25 -16 37.5t-40 12.5q-30 0 -51 -14.5t-26 -42.5l-2 -10h-56l3 15q8 45 46.5 72.5t96.5 27.5q52 0 77.5 -24t25.5 -61q0 -39 -22 -71.5t-61 -42.5v-1q63 -18 63 -78q0 -63 -49 -99t-110 -36z" />
    <glyph glyph-name="uni2154" unicode="&#x2154;" horiz-adv-x="831" 
d="M76 316l7 39l144 134q25 23 39.5 39.5t28.5 44t14 54.5q0 49 -57 49q-28 0 -48.5 -15t-27.5 -44q-1 -1 -2 -7t-1 -7h-54q3 6 3 17q10 51 48.5 77t94.5 26q51 0 77.5 -23.5t26.5 -62.5q0 -24 -9.5 -49.5t-19 -42.5t-34 -43.5t-34.5 -36.5t-41 -39l-67 -61h166l-8 -49h-246
zM179 -2l498 715h52l-497 -715h-53zM625 -12q-55 0 -83 21.5t-28 57.5q0 13 2 19q0 8 3 14h56l-2 -6q0 -1 -0.5 -7t-0.5 -9q0 -44 64 -44q34 0 60.5 24t26.5 63q0 31 -21.5 43.5t-44.5 12.5h-39l7 44h37q35 0 59.5 21t24.5 61q0 25 -16 37.5t-40 12.5q-30 0 -51 -14.5
t-26 -42.5l-2 -10h-56l3 15q8 45 46.5 72.5t96.5 27.5q52 0 77.5 -24t25.5 -61q0 -39 -22 -71.5t-61 -42.5v-1q63 -18 63 -78q0 -63 -49 -99t-110 -36z" />
    <glyph glyph-name="uni2155" unicode="&#x2155;" horiz-adv-x="831" 
d="M67 316l8 42h90l53 301l-87 -13l4 40l124 28h29l-63 -356h83l-7 -42h-234zM628 -12q-53 0 -82.5 21.5t-29.5 54.5q0 14 5 36h57q-3 -15 -3 -22q0 -20 17.5 -31.5t44.5 -11.5q67 0 86 73q1 2 5 29q0 2 0.5 7t0.5 8q0 25 -16.5 38.5t-41.5 13.5q-39 0 -73 -27l-52 7l48 210
h216l-8 -50h-169l-29 -124q42 27 95 27q38 0 64.5 -21t26.5 -61q0 -15 -1 -23q-5 -30 -9 -42q-14 -55 -55.5 -83.5t-96.5 -28.5zM179 -2l498 715h52l-497 -715h-53z" />
    <glyph glyph-name="uni2156" unicode="&#x2156;" horiz-adv-x="831" 
d="M76 316l7 39l144 134q25 23 39.5 39.5t28.5 44t14 54.5q0 49 -57 49q-28 0 -48.5 -15t-27.5 -44q-1 -1 -2 -7t-1 -7h-54q3 6 3 17q10 51 48.5 77t94.5 26q51 0 77.5 -23.5t26.5 -62.5q0 -24 -9.5 -49.5t-19 -42.5t-34 -43.5t-34.5 -36.5t-41 -39l-67 -61h166l-8 -49h-246
zM628 -12q-53 0 -82.5 21.5t-29.5 54.5q0 14 5 36h57q-3 -15 -3 -22q0 -20 17.5 -31.5t44.5 -11.5q67 0 86 73q1 2 5 29q0 2 0.5 7t0.5 8q0 25 -16.5 38.5t-41.5 13.5q-39 0 -73 -27l-52 7l48 210h216l-8 -50h-169l-29 -124q42 27 95 27q38 0 64.5 -21t26.5 -61
q0 -15 -1 -23q-5 -30 -9 -42q-14 -55 -55.5 -83.5t-96.5 -28.5zM179 -2l498 715h52l-497 -715h-53z" />
    <glyph glyph-name="uni2157" unicode="&#x2157;" horiz-adv-x="831" 
d="M185 304q-55 0 -83 21.5t-28 57.5q0 13 2 19q0 8 3 14h56l-2 -6q0 -1 -0.5 -7t-0.5 -9q0 -44 64 -44q34 0 60.5 24t26.5 63q0 31 -21.5 43.5t-44.5 12.5h-39l7 44h37q35 0 59.5 21t24.5 61q0 25 -16 37.5t-40 12.5q-30 0 -51 -14.5t-26 -42.5l-2 -10h-56l3 15
q8 45 46.5 72.5t96.5 27.5q52 0 77.5 -24t25.5 -61q0 -39 -22 -71.5t-61 -42.5v-1q63 -18 63 -78q0 -63 -49 -99t-110 -36zM179 -2l498 715h52l-497 -715h-53zM628 -12q-53 0 -82.5 21.5t-29.5 54.5q0 14 5 36h57q-3 -15 -3 -22q0 -20 17.5 -31.5t44.5 -11.5q67 0 86 73
q1 2 5 29q0 2 0.5 7t0.5 8q0 25 -16.5 38.5t-41.5 13.5q-39 0 -73 -27l-52 7l48 210h216l-8 -50h-169l-29 -124q42 27 95 27q38 0 64.5 -21t26.5 -61q0 -15 -1 -23q-5 -30 -9 -42q-14 -55 -55.5 -83.5t-96.5 -28.5z" />
    <glyph glyph-name="uni2158" unicode="&#x2158;" horiz-adv-x="831" 
d="M227 316l18 102h-174l7 45l204 253h66l-208 -251h113l13 77l64 37l-20 -114h52l-8 -47h-52l-19 -102h-56zM628 -12q-53 0 -82.5 21.5t-29.5 54.5q0 14 5 36h57q-3 -15 -3 -22q0 -20 17.5 -31.5t44.5 -11.5q67 0 86 73q1 2 5 29q0 2 0.5 7t0.5 8q0 25 -16.5 38.5
t-41.5 13.5q-39 0 -73 -27l-52 7l48 210h216l-8 -50h-169l-29 -124q42 27 95 27q38 0 64.5 -21t26.5 -61q0 -15 -1 -23q-5 -30 -9 -42q-14 -55 -55.5 -83.5t-96.5 -28.5zM179 -2l498 715h52l-497 -715h-53z" />
    <glyph glyph-name="uni2159" unicode="&#x2159;" horiz-adv-x="831" 
d="M80 316l8 42h90l53 301l-87 -13l4 40l124 28h29l-63 -356h83l-7 -42h-234zM626 -12q-50 0 -80.5 24.5t-30.5 66.5q0 15 3 26l31 181q9 53 53 84t101 31q51 0 79.5 -20.5t28.5 -57.5q0 -15 -4 -34h-56q2 18 2 21q0 45 -58 45q-34 0 -56.5 -19.5t-27.5 -49.5l-16 -85
q45 47 107 47q39 0 63.5 -20.5t24.5 -53.5q0 -7 -2 -17l-10 -61q-9 -51 -51.5 -79.5t-100.5 -28.5zM638 35q33 0 55 17.5t26 43.5q11 53 11 63q0 47 -59 47q-27 0 -54 -19.5t-33 -51.5q-8 -42 -8 -48q0 -23 16 -37.5t46 -14.5zM182 -2l498 715h52l-497 -715h-53z" />
    <glyph glyph-name="uni215A" unicode="&#x215a;" horiz-adv-x="831" 
d="M626 -12q-50 0 -80.5 24.5t-30.5 66.5q0 15 3 26l31 181q9 53 53 84t101 31q51 0 79.5 -20.5t28.5 -57.5q0 -15 -4 -34h-56q2 18 2 21q0 45 -58 45q-34 0 -56.5 -19.5t-27.5 -49.5l-16 -85q45 47 107 47q39 0 63.5 -20.5t24.5 -53.5q0 -7 -2 -17l-10 -61
q-9 -51 -51.5 -79.5t-100.5 -28.5zM638 35q33 0 55 17.5t26 43.5q11 53 11 63q0 47 -59 47q-27 0 -54 -19.5t-33 -51.5q-8 -42 -8 -48q0 -23 16 -37.5t46 -14.5zM201 304q-53 0 -82.5 21.5t-29.5 54.5q0 14 5 36h57q-3 -15 -3 -22q0 -20 17.5 -31.5t44.5 -11.5q67 0 86 73
q0 2 5 29q0 2 0.5 7t0.5 8q0 25 -16.5 38.5t-41.5 13.5q-39 0 -73 -27l-52 7l48 210h216l-8 -50h-169l-29 -124q42 27 95 27q38 0 64.5 -21t26.5 -61q0 -15 -1 -23q-5 -30 -9 -42q-14 -55 -55.5 -83.5t-96.5 -28.5zM182 -2l498 715h52l-497 -715h-53z" />
    <glyph glyph-name="uni215B" unicode="&#x215b;" horiz-adv-x="831" 
d="M80 316l8 42h90l53 301l-87 -13l4 40l124 28h29l-63 -356h83l-7 -42h-234zM627 -12q-53 0 -83.5 21t-30.5 62q0 14 5 41q5 30 26 52.5t50 33.5q-43 13 -43 63q0 16 4 36q9 49 50.5 76.5t94.5 27.5q48 0 79.5 -21t31.5 -61q0 -38 -18 -72.5t-59 -48.5q22 -8 35.5 -26.5
t13.5 -43.5q0 -9 -5 -35q-10 -49 -51.5 -77t-99.5 -28zM635 32q32 0 54.5 17t28.5 48q3 20 3 29q0 25 -18 37t-43 12q-29 0 -53 -15.5t-29 -44.5q-5 -30 -5 -35q0 -23 17.5 -35.5t44.5 -12.5zM669 218q27 0 50.5 16.5t28.5 44.5t5 30q0 23 -18 35t-44 12q-29 0 -51.5 -15
t-26.5 -42q-5 -30 -5 -32q0 -24 18.5 -36.5t42.5 -12.5zM182 -2l498 715h52l-497 -715h-53z" />
    <glyph glyph-name="uni215C" unicode="&#x215c;" horiz-adv-x="831" 
d="M627 -12q-53 0 -83.5 21t-30.5 62q0 14 5 41q5 30 26 52.5t50 33.5q-43 13 -43 63q0 16 4 36q9 49 50.5 76.5t94.5 27.5q48 0 79.5 -21t31.5 -61q0 -38 -18 -72.5t-59 -48.5q22 -8 35.5 -26.5t13.5 -43.5q0 -9 -5 -35q-10 -49 -51.5 -77t-99.5 -28zM635 32q32 0 54.5 17
t28.5 48q3 20 3 29q0 25 -18 37t-43 12q-29 0 -53 -15.5t-29 -44.5q-5 -30 -5 -35q0 -23 17.5 -35.5t44.5 -12.5zM669 218q27 0 50.5 16.5t28.5 44.5t5 30q0 23 -18 35t-44 12q-29 0 -51.5 -15t-26.5 -42q-5 -30 -5 -32q0 -24 18.5 -36.5t42.5 -12.5zM198 304
q-55 0 -83 21.5t-28 57.5q0 13 2 19q0 8 3 14h56l-2 -6q0 -1 -0.5 -7t-0.5 -9q0 -44 64 -44q34 0 60.5 24t26.5 63q0 31 -21.5 43.5t-44.5 12.5h-39l7 44h37q35 0 59.5 21t24.5 61q0 25 -16 37.5t-40 12.5q-30 0 -51 -14.5t-26 -42.5l-2 -10h-56l3 15q8 45 46.5 72.5
t96.5 27.5q52 0 77.5 -24t25.5 -61q0 -39 -22 -71.5t-61 -42.5v-1q63 -18 63 -78q0 -63 -49 -99t-110 -36zM182 -2l498 715h52l-497 -715h-53z" />
    <glyph glyph-name="uni215D" unicode="&#x215d;" horiz-adv-x="831" 
d="M627 -12q-53 0 -83.5 21t-30.5 62q0 14 5 41q5 30 26 52.5t50 33.5q-43 13 -43 63q0 16 4 36q9 49 50.5 76.5t94.5 27.5q48 0 79.5 -21t31.5 -61q0 -38 -18 -72.5t-59 -48.5q22 -8 35.5 -26.5t13.5 -43.5q0 -9 -5 -35q-10 -49 -51.5 -77t-99.5 -28zM635 32q32 0 54.5 17
t28.5 48q3 20 3 29q0 25 -18 37t-43 12q-29 0 -53 -15.5t-29 -44.5q-5 -30 -5 -35q0 -23 17.5 -35.5t44.5 -12.5zM669 218q27 0 50.5 16.5t28.5 44.5t5 30q0 23 -18 35t-44 12q-29 0 -51.5 -15t-26.5 -42q-5 -30 -5 -32q0 -24 18.5 -36.5t42.5 -12.5zM201 304
q-53 0 -82.5 21.5t-29.5 54.5q0 14 5 36h57q-3 -15 -3 -22q0 -20 17.5 -31.5t44.5 -11.5q67 0 86 73q0 2 5 29q0 2 0.5 7t0.5 8q0 25 -16.5 38.5t-41.5 13.5q-39 0 -73 -27l-52 7l48 210h216l-8 -50h-169l-29 -124q42 27 95 27q38 0 64.5 -21t26.5 -61q0 -15 -1 -23
q-5 -30 -9 -42q-14 -55 -55.5 -83.5t-96.5 -28.5zM182 -2l498 715h52l-497 -715h-53z" />
    <glyph glyph-name="uni215E" unicode="&#x215e;" horiz-adv-x="831" 
d="M625 -12q-53 0 -83.5 21t-30.5 62q0 14 5 41q5 30 26 52.5t50 33.5q-43 13 -43 63q0 16 4 36q9 49 50.5 76.5t94.5 27.5q48 0 79.5 -21t31.5 -61q0 -38 -18 -72.5t-59 -48.5q22 -8 35.5 -26.5t13.5 -43.5q0 -9 -5 -35q-10 -49 -51.5 -77t-99.5 -28zM633 32q32 0 54.5 17
t28.5 48q3 20 3 29q0 25 -18 37t-43 12q-29 0 -53 -15.5t-29 -44.5q-5 -30 -5 -35q0 -23 17.5 -35.5t44.5 -12.5zM667 218q27 0 50.5 16.5t28.5 44.5t5 30q0 23 -18 35t-44 12q-29 0 -51.5 -15t-26.5 -42q-5 -30 -5 -32q0 -24 18.5 -36.5t42.5 -12.5zM154 316
q19 96 80 196.5t124 152.5h-193l9 50h258l-7 -42q-69 -61 -128.5 -154.5t-79.5 -202.5h-63zM161 -2l498 715h52l-497 -715h-53z" />
    <glyph glyph-name="arrowleft" unicode="&#x2190;" horiz-adv-x="736" 
d="M289 135l-211 213v18l211 213l45 -43l-152 -150h475v-58h-475l151 -153z" />
    <glyph glyph-name="arrowup" unicode="&#x2191;" horiz-adv-x="736" 
d="M338 68v475l-153 -152l-39 45l213 210h17l213 -210l-42 -46l-150 153v-475h-59z" />
    <glyph glyph-name="arrowright" unicode="&#x2192;" horiz-adv-x="736" 
d="M447 135l-46 43l152 150h-475v58h475l-151 154l45 39l210 -213v-18z" />
    <glyph glyph-name="arrowdown" unicode="&#x2193;" horiz-adv-x="736" 
d="M359 68l-213 210l42 46l150 -153v475h59v-475l153 151l39 -44l-213 -210h-17z" />
    <glyph glyph-name="uni2196" unicode="&#x2196;" horiz-adv-x="736" 
d="M552 131l-337 337l-1 -216l-59 4l1 299l13 13l299 1l3 -62l-214 2l336 -336z" />
    <glyph glyph-name="uni2197" unicode="&#x2197;" horiz-adv-x="736" 
d="M196 131l-41 42l336 336l-214 -2l3 62l299 -1l13 -13l1 -299l-59 -4l-2 216z" />
    <glyph glyph-name="uni2198" unicode="&#x2198;" horiz-adv-x="736" 
d="M280 131l-3 63l214 -2l-336 335l41 42l336 -336l2 215l59 -3l-1 -299l-13 -13z" />
    <glyph glyph-name="uni2199" unicode="&#x2199;" horiz-adv-x="736" 
d="M468 131l-299 2l-13 13l-1 299l59 3l1 -215l337 336l41 -42l-336 -335l214 2z" />
    <glyph glyph-name="partialdiff" unicode="&#x2202;" horiz-adv-x="513" 
d="M220 -12q-82 0 -130.5 37t-48.5 111q0 27 26 172q18 97 84 150t155 53q40 0 64 -14l-103 223l71 18q19 -41 76 -171t60 -137q13 -29 13 -67q0 -34 -25 -171q-17 -96 -81.5 -150t-160.5 -54zM231 47q133 0 158 143l22 124q4 28 4 43q0 96 -111 96q-66 0 -108.5 -36.5
t-55.5 -106.5q-3 -12 -13 -68.5t-10 -59.5q-3 -12 -3 -35q0 -100 117 -100z" />
    <glyph glyph-name="Delta" unicode="&#x2206;" horiz-adv-x="656" 
d="M9 0l6 33l375 683h73l130 -683l-7 -33h-577zM110 60h398l-99 559h-2z" />
    <glyph glyph-name="product" unicode="&#x220f;" horiz-adv-x="749" 
d="M88 -133l137 774h-104l12 72h655l-13 -72h-99l-136 -774h-78l137 774h-296l-137 -774h-78z" />
    <glyph glyph-name="summation" unicode="&#x2211;" horiz-adv-x="564" 
d="M-12 -133l11 62l373 380l-249 344l10 60h482l-11 -67h-380l235 -323l-3 -23l-358 -366h382l-12 -67h-480z" />
    <glyph glyph-name="minus" unicode="&#x2212;" 
d="M51 291l9 51h482l-9 -51h-482z" />
    <glyph glyph-name="radical" unicode="&#x221a;" horiz-adv-x="502" 
d="M170 -2l-78 502h67l61 -413h1l343 626h63l-404 -715h-53z" />
    <glyph glyph-name="infinity" unicode="&#x221e;" horiz-adv-x="834" 
d="M216 166q-67 0 -104 37.5t-37 94.5q0 79 60.5 134.5t141.5 55.5q55 0 97.5 -31t81.5 -87q131 111 218 111q67 0 105.5 -32t38.5 -88q0 -84 -61 -141t-145 -57q-96 0 -174 118q-133 -115 -222 -115zM220 213q42 0 89 30t106 84q-61 110 -145 110q-57 0 -97.5 -37.5
t-40.5 -89.5q0 -42 22.5 -69.5t65.5 -27.5zM620 212q59 0 101 40.5t42 95.5q0 39 -24 62.5t-72 23.5q-64 0 -190 -110q31 -52 64 -82t79 -30z" />
    <glyph glyph-name="integral" unicode="&#x222b;" horiz-adv-x="379" 
d="M-8 -189q-34 0 -57 6l21 57q27 -3 31 -3q35 0 52.5 20t26.5 57l161 649q15 62 55 97.5t94 35.5q43 0 66 -9l-19 -55q-20 5 -46 5q-27 0 -50 -19.5t-31 -54.5l-160 -656q-15 -61 -52 -95.5t-92 -34.5z" />
    <glyph glyph-name="approxequal" unicode="&#x2248;" horiz-adv-x="563" 
d="M68 155l-41 8q15 43 42.5 70t65.5 27q27 0 156 -18t157 -18q20 0 31 11.5t24 36.5l41 -9q-37 -99 -107 -99q-29 0 -159.5 18.5t-155.5 18.5q-13 0 -23 -7.5t-14 -12.5t-17 -26zM107 372l-43 8q37 97 109 97q27 0 156 -18t157 -18q20 0 31 11.5t25 36.5l40 -9
q-37 -99 -107 -99q-29 0 -159 18.5t-156 18.5q-13 0 -23 -7t-14 -13t-16 -26z" />
    <glyph glyph-name="notequal" unicode="&#x2260;" 
d="M203 72l-45 16l62 108h-183l9 50h202l83 143h-260l9 51h280l62 108l45 -17l-53 -91h156l-9 -51h-176l-82 -143h233l-9 -50h-253z" />
    <glyph glyph-name="lessequal" unicode="&#x2264;" 
d="M7 14l8 52h482l-9 -52h-481zM471 168l-387 208l7 41l461 202l16 -47l-407 -176l340 -182z" />
    <glyph glyph-name="greaterequal" unicode="&#x2265;" 
d="M-6 14l9 52h481l-9 -52h-481zM67 167l-17 46l404 183l-343 177l31 45l391 -202l-7 -41z" />
    <glyph glyph-name="blacksquare" unicode="&#x25a0;" horiz-adv-x="772" 
d="M46 0v714h680v-714h-680z" />
    <glyph glyph-name="whitesquare" unicode="&#x25a1;" horiz-adv-x="773" 
d="M47 0v713h679v-713h-679zM103 53h567v607h-567v-607z" />
    <glyph glyph-name="blacksmallsquare" unicode="&#x25aa;" horiz-adv-x="658" 
d="M52 0v553h554v-553h-554z" />
    <glyph glyph-name="triagup" unicode="&#x25b2;" horiz-adv-x="600" 
d="M78 157v9l211 390h8l225 -390v-9h-444z" />
    <glyph glyph-name="triagrt" unicode="&#x25ba;" horiz-adv-x="600" 
d="M100 134v444h9l390 -211v-8l-390 -225h-9z" />
    <glyph glyph-name="triagdn" unicode="&#x25bc;" horiz-adv-x="600" 
d="M303 157l-225 390v9h444v-9l-211 -390h-8z" />
    <glyph glyph-name="triaglf" unicode="&#x25c4;" horiz-adv-x="600" 
d="M490 134l-390 225v8l390 211h9v-444h-9z" />
    <glyph glyph-name="lozenge" unicode="&#x25ca;" horiz-adv-x="524" 
d="M202 -1l-141 342l2 12l266 365h55l137 -365l-2 -12l-262 -342h-55zM240 54l220 290l-115 317l-223 -312z" />
    <glyph glyph-name="uni25E2" unicode="&#x25e2;" horiz-adv-x="600" 
d="M513 84l-432 95l-3 8l316 326l7 -1l120 -422z" />
    <glyph glyph-name="uni25E3" unicode="&#x25e3;" horiz-adv-x="600" 
d="M85 84l-7 6l120 422l7 1l316 -326l-3 -8z" />
    <glyph glyph-name="uni25E4" unicode="&#x25e4;" horiz-adv-x="600" 
d="M198 84l-120 423l7 6l433 -95l3 -8l-316 -326h-7z" />
    <glyph glyph-name="uni25E5" unicode="&#x25e5;" horiz-adv-x="600" 
d="M394 84l-316 326l3 8l432 95l8 -6l-120 -423h-7z" />
    <glyph glyph-name="I.alt" unicode="&#xe131;" horiz-adv-x="510" 
d="M16 0l12 67h162l102 579h-163l12 67h403l-12 -67h-163l-102 -579h163l-12 -67h-402z" />
    <glyph glyph-name="I.alt" unicode="&#xe488;" horiz-adv-x="510" 
d="M16 0l12 67h162l102 579h-163l12 67h403l-12 -67h-163l-102 -579h163l-12 -67h-402z" />
    <glyph glyph-name="Igrave.alt" unicode="&#xe132;" horiz-adv-x="510" 
d="M16 0l12 67h162l102 579h-163l12 67h403l-12 -67h-163l-102 -579h163l-12 -67h-402zM317 788l-123 160h85l97 -160h-59z" />
    <glyph glyph-name="Iacute.alt" unicode="&#xe133;" horiz-adv-x="510" 
d="M16 0l12 67h162l102 579h-163l12 67h403l-12 -67h-163l-102 -579h163l-12 -67h-402zM319 788l117 160h86l-143 -160h-60z" />
    <glyph glyph-name="Icircumflex.alt" unicode="&#xe134;" horiz-adv-x="510" 
d="M16 0l12 67h162l102 579h-163l12 67h403l-12 -67h-163l-102 -579h163l-12 -67h-402zM220 786l123 159h69l60 -159h-62l-41 111l-84 -111h-65z" />
    <glyph glyph-name="Idieresis.alt" unicode="&#xe135;" horiz-adv-x="510" 
d="M16 0l12 67h162l102 579h-163l12 67h403l-12 -67h-163l-102 -579h163l-12 -67h-402zM216 790l18 104h72l-19 -104h-71zM408 790l19 104h72l-19 -104h-72z" />
    <glyph glyph-name="Itilde.alt" unicode="&#xe136;" horiz-adv-x="510" 
d="M16 0l12 67h162l102 579h-163l12 67h403l-12 -67h-163l-102 -579h163l-12 -67h-402zM214 772q-35 6 -41 8q34 98 108 98q28 0 79 -18t80 -18q34 0 58 49l38 -10q-34 -98 -107 -98q-29 0 -81.5 18t-78.5 18q-19 0 -30 -10.5t-25 -36.5z" />
    <glyph glyph-name="Imacron.alt" unicode="&#xe138;" horiz-adv-x="510" 
d="M16 0l12 67h162l102 579h-163l12 67h403l-12 -67h-163l-102 -579h163l-12 -67h-402zM214 805l12 63h269l-12 -63h-269z" />
    <glyph glyph-name="Ibreve.alt" unicode="&#xe139;" horiz-adv-x="510" 
d="M16 0l12 67h162l102 579h-163l12 67h403l-12 -67h-163l-102 -579h163l-12 -67h-402zM348 790q-59 0 -94 40t-26 103h54q-5 -41 16.5 -65.5t61.5 -24.5q34 0 62 25t36 65h55q-14 -69 -61.5 -106t-103.5 -37z" />
    <glyph glyph-name="Idotaccent.alt" unicode="&#xe13c;" horiz-adv-x="510" 
d="M16 0l12 67h162l102 579h-163l12 67h403l-12 -67h-163l-102 -579h163l-12 -67h-402zM319 789l19 108h77l-19 -108h-77z" />
    <glyph glyph-name="Iogonek.alt" unicode="&#xe13e;" horiz-adv-x="510" 
d="M16 0l12 67h162l102 579h-163l12 67h403l-12 -67h-163l-102 -579h163l-12 -67h-10q-50 -13 -78.5 -42t-28.5 -60q0 -23 14.5 -35.5t38.5 -12.5q36 0 70 21l21 -41q-45 -34 -105 -34q-41 0 -70.5 21t-29.5 61q0 75 78 122h-302z" />
    <glyph glyph-name="zero.dnom" unicode="&#xe402;" horiz-adv-x="362" 
d="M153 -12q-51 0 -86 24t-35 70q0 7 2 23l32 178q11 57 56 87.5t104 30.5q51 0 84.5 -24.5t33.5 -71.5q0 -7 -2 -23l-32 -177q-10 -56 -55.5 -86.5t-101.5 -30.5zM161 36q36 0 59 20.5t29 51.5l32 174q1 4 1 17q0 25 -17 39.5t-49 14.5q-34 0 -59 -20.5t-30 -50.5l-31 -176
q-2 -10 -2 -15q0 -25 17.5 -40t49.5 -15z" />
    <glyph glyph-name="one.dnom" unicode="&#xe403;" horiz-adv-x="314" 
d="M23 0l8 42h90l53 301l-87 -13l4 40l124 28h29l-63 -356h83l-7 -42h-234z" />
    <glyph glyph-name="two.dnom" unicode="&#xe404;" horiz-adv-x="345" 
d="M32 0l7 39l144 134q25 23 39.5 39.5t28.5 44t14 54.5q0 49 -57 49q-28 0 -48.5 -15t-27.5 -44q-1 -1 -2 -7t-1 -7h-54q3 6 3 17q10 51 48.5 77t94.5 26q51 0 77.5 -23.5t26.5 -62.5q0 -24 -9.5 -49.5t-19 -42.5t-34 -43.5t-34.5 -36.5t-41 -39l-67 -61h166l-8 -49h-246z
" />
    <glyph glyph-name="three.dnom" unicode="&#xe405;" horiz-adv-x="348" 
d="M141 -12q-55 0 -83 21.5t-28 57.5q0 13 2 19q0 8 3 14h56l-2 -6q0 -1 -0.5 -7t-0.5 -9q0 -44 64 -44q34 0 60.5 24t26.5 63q0 31 -21.5 43.5t-44.5 12.5h-39l7 44h37q35 0 59.5 21t24.5 61q0 25 -16 37.5t-40 12.5q-30 0 -51 -14.5t-26 -42.5l-2 -10h-56l3 15
q8 45 46.5 72.5t96.5 27.5q52 0 77.5 -24t25.5 -61q0 -39 -22 -71.5t-61 -42.5v-1q28 -8 45.5 -28t17.5 -50q0 -63 -49 -99t-110 -36z" />
    <glyph glyph-name="four.dnom" unicode="&#xe406;" horiz-adv-x="351" 
d="M183 0l18 102h-174l7 45l204 253h66l-208 -251h113l13 77l64 37l-20 -114h52l-8 -47h-52l-19 -102h-56z" />
    <glyph glyph-name="five.dnom" unicode="&#xe407;" horiz-adv-x="348" 
d="M144 -12q-53 0 -82.5 21.5t-29.5 54.5q0 14 5 36h57q-3 -15 -3 -22q0 -20 17.5 -31.5t44.5 -11.5q67 0 86 73q1 2 5 29q0 2 0.5 7t0.5 8q0 25 -16.5 38.5t-41.5 13.5q-39 0 -73 -27l-52 7l48 210h216l-8 -50h-169l-29 -124q42 27 95 27q38 0 64.5 -21t26.5 -61
q0 -15 -1 -23q-5 -30 -9 -42q-14 -55 -55.5 -83.5t-96.5 -28.5z" />
    <glyph glyph-name="six.dnom" unicode="&#xe408;" horiz-adv-x="357" 
d="M150 -12q-50 0 -80.5 24.5t-30.5 66.5q0 15 3 26l31 181q9 53 53 84t101 31q51 0 79.5 -20.5t28.5 -57.5q0 -15 -4 -34h-56q2 18 2 21q0 45 -58 45q-34 0 -56.5 -19.5t-27.5 -49.5l-16 -85q45 47 107 47q39 0 63.5 -20.5t24.5 -53.5q0 -7 -2 -17l-10 -61
q-9 -51 -51.5 -79.5t-100.5 -28.5zM162 35q33 0 55 17.5t26 43.5q11 53 11 63q0 47 -59 47q-27 0 -54 -19.5t-33 -51.5q-8 -42 -8 -48q0 -23 16 -37.5t46 -14.5z" />
    <glyph glyph-name="seven.dnom" unicode="&#xe409;" horiz-adv-x="344" 
d="M70 0q19 96 80 196.5t124 152.5h-193l9 50h258l-7 -42q-69 -61 -128.5 -154.5t-79.5 -202.5h-63z" />
    <glyph glyph-name="eight.dnom" unicode="&#xe40a;" horiz-adv-x="357" 
d="M151 -12q-53 0 -83.5 21t-30.5 62q0 14 5 41q5 30 26 52.5t50 33.5q-43 13 -43 63q0 16 4 36q9 49 50.5 76.5t94.5 27.5q48 0 79.5 -21t31.5 -61q0 -38 -18 -72.5t-59 -48.5q49 -18 49 -70q0 -9 -5 -35q-10 -49 -51.5 -77t-99.5 -28zM159 32q32 0 54.5 17t28.5 48
q3 20 3 29q0 25 -18 37t-43 12q-29 0 -53 -15.5t-29 -44.5q-5 -30 -5 -35q0 -23 17.5 -35.5t44.5 -12.5zM193 218q27 0 50.5 16.5t28.5 44.5q5 27 5 30q0 23 -18 35t-44 12q-29 0 -51.5 -15t-26.5 -42q-5 -30 -5 -32q0 -24 18.5 -36.5t42.5 -12.5z" />
    <glyph glyph-name="nine.dnom" unicode="&#xe40b;" horiz-adv-x="357" 
d="M145 -13q-50 0 -78.5 21t-28.5 58q0 11 4 34h57q-3 -18 -3 -23q0 -42 58 -42q34 0 57 19t28 49l15 86q-35 -49 -107 -49q-40 0 -64 20.5t-24 54.5q0 11 1 16l11 59q9 52 51.5 81.5t100.5 29.5q51 0 81 -25.5t30 -68.5q0 -8 -2 -22l-32 -182q-9 -53 -53.5 -84.5
t-101.5 -31.5zM178 183q27 0 54 19.5t33 51.5q7 38 7 45q0 24 -15.5 40t-44.5 16q-34 0 -55.5 -18.5t-26.5 -45.5q-11 -56 -11 -63q0 -45 59 -45z" />
    <glyph glyph-name="comma.dnom" unicode="&#xe40d;" horiz-adv-x="224" 
d="M25 -55l20 55h-20l11 65h58l-11 -61l-32 -59h-26z" />
    <glyph glyph-name="period.dnom" unicode="&#xe40e;" horiz-adv-x="159" 
d="M34 0l11 65h58l-11 -65h-58z" />
    <glyph glyph-name="parenleft.dnom" unicode="&#xe40f;" horiz-adv-x="177" 
d="M85 -75q-35 62 -35 163q0 89 32 179.5t92 162.5h33q-53 -91 -80 -177t-27 -194q0 -71 16 -134h-31z" />
    <glyph glyph-name="parenright.dnom" unicode="&#xe410;" horiz-adv-x="175" 
d="M15 -75h-31q49 84 77 183.5t28 185.5q0 58 -16 136h30q36 -67 36 -162q0 -92 -33.5 -184t-90.5 -159z" />
    <glyph glyph-name="caronSlovak" unicode="&#xe413;" horiz-adv-x="215" 
d="M77 542l37 171h78l-57 -171h-58z" />
    <glyph glyph-name="commaaccent" unicode="&#xe414;" horiz-adv-x="213" 
d="M3 -190l33 149h77l-52 -149h-58z" />
    <glyph glyph-name="commaaccent" unicode="&#xf6c3;" horiz-adv-x="213" 
d="M3 -190l33 149h77l-52 -149h-58z" />
    <glyph glyph-name="zero.numr" unicode="&#xe416;" horiz-adv-x="362" 
d="M201 306q-51 0 -86 24t-35 70q0 7 2 23l32 178q11 57 56 87.5t104 30.5q51 0 84.5 -24.5t33.5 -71.5q0 -7 -2 -23l-32 -177q-10 -56 -55.5 -86.5t-101.5 -30.5zM209 354q36 0 59 20.5t29 51.5l32 174q1 4 1 17q0 25 -17 39.5t-49 14.5q-34 0 -59 -20.5t-30 -50.5
l-31 -176q-2 -10 -2 -15q0 -25 17.5 -40t49.5 -15z" />
    <glyph glyph-name="one.numr" unicode="&#xe417;" horiz-adv-x="314" 
d="M71 318l8 42h90l53 301l-87 -13l4 40l124 28h29l-63 -356h83l-7 -42h-234z" />
    <glyph glyph-name="two.numr" unicode="&#xe418;" horiz-adv-x="345" 
d="M80 318l7 39l144 134q25 23 39.5 39.5t28.5 44t14 54.5q0 49 -57 49q-28 0 -48.5 -15t-27.5 -44q-1 -1 -2 -7t-1 -7h-54q3 6 3 17q10 51 48.5 77t94.5 26q51 0 77.5 -23.5t26.5 -62.5q0 -24 -9.5 -49.5t-19 -42.5t-34 -43.5t-34.5 -36.5t-41 -39l-67 -61h166l-8 -49h-246
z" />
    <glyph glyph-name="three.numr" unicode="&#xe419;" horiz-adv-x="348" 
d="M189 306q-55 0 -83 21.5t-28 57.5q0 13 2 19q0 8 3 14h56l-2 -6q0 -1 -0.5 -7t-0.5 -9q0 -44 64 -44q34 0 60.5 24t26.5 63q0 31 -21.5 43.5t-44.5 12.5h-39l7 44h37q35 0 59.5 21t24.5 61q0 25 -16 37.5t-40 12.5q-30 0 -51 -14.5t-26 -42.5l-2 -10h-56l3 15
q8 45 46.5 72.5t96.5 27.5q52 0 77.5 -24t25.5 -61q0 -39 -22 -71.5t-61 -42.5v-1q28 -8 45.5 -28t17.5 -50q0 -63 -49 -99t-110 -36z" />
    <glyph glyph-name="four.numr" unicode="&#xe41a;" horiz-adv-x="351" 
d="M231 318l18 102h-174l7 45l204 253h66l-208 -251h113l13 77l64 37l-20 -114h52l-8 -47h-52l-19 -102h-56z" />
    <glyph glyph-name="five.numr" unicode="&#xe41b;" horiz-adv-x="348" 
d="M192 306q-53 0 -82.5 21.5t-29.5 54.5q0 14 5 36h57q-3 -15 -3 -22q0 -20 17.5 -31.5t44.5 -11.5q67 0 86 73q1 2 5 29q0 2 0.5 7t0.5 8q0 25 -16.5 38.5t-41.5 13.5q-39 0 -73 -27l-52 7l48 210h216l-8 -50h-169l-29 -124q42 27 95 27q38 0 64.5 -21t26.5 -61
q0 -15 -1 -23q-5 -30 -9 -42q-14 -55 -55.5 -83.5t-96.5 -28.5z" />
    <glyph glyph-name="six.numr" unicode="&#xe41c;" horiz-adv-x="357" 
d="M198 306q-50 0 -80.5 24.5t-30.5 66.5q0 15 3 26l31 181q9 53 53 84t101 31q51 0 79.5 -20.5t28.5 -57.5q0 -15 -4 -34h-56q2 18 2 21q0 45 -58 45q-34 0 -56.5 -19.5t-27.5 -49.5l-16 -85q45 47 107 47q39 0 63.5 -20.5t24.5 -53.5q0 -7 -2 -17l-10 -61
q-9 -51 -51.5 -79.5t-100.5 -28.5zM210 353q33 0 55 17.5t26 43.5q11 53 11 63q0 47 -59 47q-27 0 -54 -19.5t-33 -51.5q-8 -42 -8 -48q0 -23 16 -37.5t46 -14.5z" />
    <glyph glyph-name="seven.numr" unicode="&#xe41d;" horiz-adv-x="344" 
d="M118 318q19 96 80 196.5t124 152.5h-193l9 50h258l-7 -42q-69 -61 -128.5 -154.5t-79.5 -202.5h-63z" />
    <glyph glyph-name="eight.numr" unicode="&#xe41e;" horiz-adv-x="357" 
d="M199 306q-53 0 -83.5 21t-30.5 62q0 14 5 41q5 30 26 52.5t50 33.5q-43 13 -43 63q0 16 4 36q9 49 50.5 76.5t94.5 27.5q48 0 79.5 -21t31.5 -61q0 -38 -18 -72.5t-59 -48.5q49 -18 49 -70q0 -9 -5 -35q-10 -49 -51.5 -77t-99.5 -28zM207 350q32 0 54.5 17t28.5 48
q3 20 3 29q0 25 -18 37t-43 12q-29 0 -53 -15.5t-29 -44.5q-5 -30 -5 -35q0 -23 17.5 -35.5t44.5 -12.5zM241 536q27 0 50.5 16.5t28.5 44.5t5 30q0 23 -18 35t-44 12q-29 0 -51.5 -15t-26.5 -42q-5 -30 -5 -32q0 -24 18.5 -36.5t42.5 -12.5z" />
    <glyph glyph-name="nine.numr" unicode="&#xe41f;" horiz-adv-x="357" 
d="M193 305q-50 0 -78.5 21t-28.5 58q0 11 4 34h57q-3 -18 -3 -23q0 -42 58 -42q34 0 57 19t28 49l15 86q-35 -49 -107 -49q-40 0 -64 20.5t-24 54.5q0 11 1 16l11 59q9 52 51.5 81.5t100.5 29.5q51 0 81 -25.5t30 -68.5q0 -8 -2 -22l-32 -182q-9 -53 -53.5 -84.5
t-101.5 -31.5zM226 501q27 0 54 19.5t33 51.5q7 38 7 45q0 24 -15.5 40t-44.5 16q-34 0 -55.5 -18.5t-26.5 -45.5q-11 -56 -11 -63q0 -45 59 -45z" />
    <glyph glyph-name="comma.numr" unicode="&#xe421;" horiz-adv-x="224" 
d="M75 263l20 55h-20l11 65h58l-11 -61l-32 -59h-26z" />
    <glyph glyph-name="period.numr" unicode="&#xe422;" horiz-adv-x="159" 
d="M84 318l11 65h58l-11 -65h-58z" />
    <glyph glyph-name="parenleft.numr" unicode="&#xe423;" horiz-adv-x="177" 
d="M132 243q-35 62 -35 163q0 89 32 179.5t92 162.5h33q-53 -91 -80 -177t-27 -194q0 -71 16 -134h-31z" />
    <glyph glyph-name="parenright.numr" unicode="&#xe424;" horiz-adv-x="175" 
d="M59 243h-31q49 84 77 183.5t28 185.5q0 58 -16 136h30q36 -67 36 -162q0 -92 -33.5 -184t-90.5 -159z" />
    <glyph glyph-name="numbersign.LP" unicode="&#xe533;" 
d="M64 -3l58 195h-106l16 49h105l73 237h-111l17 47h107l56 180h47l-54 -180h176l54 180h48l-54 -180h105l-14 -47h-105l-74 -237h108l-14 -49h-108l-58 -195h-49l58 195h-175l-57 -195h-49zM186 241h174l73 237h-176z" />
    <glyph glyph-name="zero.LT" unicode="&#xe53f;" 
d="M253 -12q-90 0 -148.5 41.5t-58.5 120.5q0 20 3 41q33 180 58 328q21 100 97.5 153.5t174.5 53.5q88 0 143 -43t55 -122q0 -22 -4 -42l-57 -320q-17 -99 -92 -155t-171 -56zM264 48q70 0 116.5 44t59.5 109l57 321q3 12 3 32q0 50 -35 80.5t-98 30.5q-71 0 -121 -42.5
t-62 -105.5l-57 -322q-3 -15 -3 -29q0 -56 36.5 -87t103.5 -31z" />
    <glyph glyph-name="one.LT" unicode="&#xe541;" 
d="M44 0l10 55h169l104 591l-166 -29l6 54l223 44h23l-116 -660h167l-10 -55h-410z" />
    <glyph glyph-name="two.LT" unicode="&#xe542;" 
d="M47 0l9 49l238 225q84 76 127.5 141t43.5 144q0 47 -33 77.5t-85 30.5q-63 0 -102.5 -36.5t-50.5 -102.5h-66q1 16 6 31q41 166 225 166q80 0 130 -43t50 -117q0 -30 -6.5 -58.5t-13 -50t-25.5 -50l-29 -43.5t-38 -45t-38.5 -40.5t-46.5 -44t-45 -42.5l-139 -125l-1 -3
h312l-11 -63h-411z" />
    <glyph glyph-name="three.LT" unicode="&#xe543;" 
d="M233 -12q-83 0 -135.5 35.5t-52.5 99.5q0 18 7 53h72q-4 -24 -4 -39q0 -45 37.5 -67.5t90.5 -22.5q70 0 122 51.5t52 127.5q0 59 -41.5 87.5t-88.5 28.5h-62l10 54h61q69 0 116.5 46t47.5 122q0 49 -31.5 75t-80.5 26q-63 0 -106.5 -32t-54.5 -99h-69q0 2 1.5 11t1.5 10
q15 79 81.5 124.5t158.5 45.5q81 0 127 -39t46 -105q0 -67 -39 -128t-111 -79l-1 -3q51 -14 82 -51.5t31 -89.5q0 -107 -80.5 -175.5t-187.5 -66.5z" />
    <glyph glyph-name="four.LT" unicode="&#xe544;" 
d="M318 0l34 198h-311l10 59l370 456h81l-374 -454h235l28 159l79 40l-35 -199h100l-11 -61h-100l-34 -198h-72z" />
    <glyph glyph-name="five.LT" unicode="&#xe545;" 
d="M236 -12q-83 0 -135 35t-52 96q0 26 9 57h71q-6 -22 -6 -39q0 -44 37 -66.5t87 -22.5q67 0 114 41t63 115q10 42 10 74q0 55 -33.5 83t-86.5 28q-73 0 -145 -54q-1 0 -33 5t-33 5q76 324 88 368h362l-11 -61h-303l-63 -264q82 55 171 55q69 0 117 -39.5t48 -108.5
q0 -30 -14 -100q-20 -101 -90.5 -154t-171.5 -53z" />
    <glyph glyph-name="six.LT" unicode="&#xe546;" 
d="M255 -12q-82 0 -134.5 43.5t-52.5 118.5q0 22 4 41q20 120 58 332q18 93 88 147.5t165 54.5q80 0 132.5 -33.5t52.5 -100.5q0 -17 -6 -53h-71q4 23 4 36q0 45 -32.5 68.5t-87.5 23.5q-67 0 -112 -39t-57 -102l-29 -171q74 93 197 93q69 0 111 -35t42 -103q0 -16 -24 -142
q-17 -90 -84 -134.5t-164 -44.5zM269 48q64 0 109 34.5t54 89.5q19 108 19 124q0 96 -116 96q-57 0 -111.5 -38t-63.5 -92q-15 -95 -15 -101q0 -51 32.5 -82t91.5 -31z" />
    <glyph glyph-name="seven.LT" unicode="&#xe547;" 
d="M121 0q39 192 144.5 365.5t229.5 281.5h-351l12 66h439l-9 -54q-58 -55 -106 -108.5t-107 -136.5t-104.5 -189.5t-68.5 -224.5h-79z" />
    <glyph glyph-name="eight.LT" unicode="&#xe548;" 
d="M247 -12q-83 0 -137 36.5t-54 110.5q0 17 10 73q10 55 49.5 97t94.5 59q-41 13 -63 45t-22 71q0 16 9 62q16 87 86.5 135t158.5 48q77 0 130.5 -34.5t53.5 -105.5q0 -30 -11 -83q-8 -45 -45.5 -83t-90.5 -53q44 -14 70 -46.5t26 -81.5q0 -3 -10 -65q-16 -88 -87.5 -136.5
t-167.5 -48.5zM258 46q64 0 109.5 33.5t57.5 93.5q10 47 10 65q0 50 -35 74t-90 24q-60 0 -108 -32t-59 -92q-9 -44 -9 -62q0 -49 35.5 -76.5t88.5 -27.5zM321 389q54 0 102.5 33.5t58.5 87.5q9 51 9 62q0 47 -35 71t-91 24q-54 0 -100.5 -32.5t-56.5 -86.5q-9 -45 -9 -62
q0 -49 35 -73t87 -24z" />
    <glyph glyph-name="nine.LT" unicode="&#xe549;" 
d="M234 -12q-78 0 -127 33.5t-49 100.5q0 17 6 53h71q-5 -28 -5 -36q0 -45 31 -68.5t86 -23.5q68 0 114.5 39.5t57.5 101.5q2 13 14.5 84.5t14.5 84.5q-35 -45 -88 -68t-109 -23q-66 0 -109 35.5t-43 102.5q0 17 20 134q17 91 86.5 139.5t165.5 48.5q82 0 134.5 -43.5
t52.5 -119.5q0 -19 -3 -40q-8 -44 -33 -186t-26 -148q-18 -93 -91 -147t-171 -54zM288 319q57 0 113 42t67 101q13 87 13 91q0 51 -32.5 82.5t-90.5 31.5q-65 0 -109.5 -35t-54.5 -90q-20 -114 -20 -124q0 -52 32.5 -75.5t81.5 -23.5z" />
    <glyph glyph-name="apple" unicode="&#xf8ff;" horiz-adv-x="1009" 
d="M627 -77l-154 3l-18 -2l-6 7q9 3 21.5 6t18.5 5q45 15 55 60q7 67 14 219q-64 -2 -98 -3l2 11l97 6q8 147 10 219l39 23q-54 3 -178 7q-1 -30 -7 -139q-4 -73 -26.5 -130t-54 -87t-60.5 -44.5t-52 -14.5q-28 0 -78 15t-72 27l23 37q2 -1 34 -13.5t68 -23t56 -10.5
q48 1 87 63.5t37 135.5q1 28 5 185q-10 0 -30 0.5t-31 0.5q-59 0 -106.5 -43t-47.5 -104q18 -40 77 -67q0 -5 -6 -19t-10 -18q-66 28 -73 96q0 73 55 125t142 67h31q1 34 5 166l40 18q-203 8 -243 8q-59 0 -106.5 -42.5t-47.5 -102.5q18 -38 78 -63q0 -2 -21 -37
q-67 28 -74 96q0 69 56.5 118.5t131.5 68.5q64 0 180.5 -5t162.5 -6q14 0 62 -2q5 0 20.5 -0.5t19.5 -0.5q12 -1 33 3q15 11 22 27l8 -3q-8 -21 -24 -34q-57 -29 -113 -29q-46 0 -140 4q-3 -14 -4.5 -70.5t-2.5 -64.5q-1 -7 -1.5 -24.5t-0.5 -25.5q14 0 165.5 -7t230.5 -7
h67q63 3 88 15l4 -6q-97 -43 -224 -43q-67 0 -147 3q-3 -20 -8 -102.5t-5 -84.5q0 -9 -2 -53l147 10h4l4 -3l-35 -52l-7 4l23 35q-44 -3 -137 -9q-6 -107 -13 -193q-2 -17 -20 -42t-35 -33l1 -1q30 5 89.5 6t75.5 2v-1q0 -10 -8.5 -22t-19.5 -13q-11 -2 -43 -2z" />
    <glyph glyph-name="ringacute" horiz-adv-x="309" 
d="M212 569q-38 0 -58 19.5t-20 50.5q0 49 44 86l138 113l38 -51l-89 -51q23 -2 40 -17.5t17 -40.5q0 -45 -33 -77t-77 -32zM218 603q25 0 45 18.5t20 49.5q0 42 -47 42q-25 0 -43.5 -19.5t-18.5 -48.5q0 -20 12.5 -31t31.5 -11z" />
    <glyph glyph-name="commatop" horiz-adv-x="225" 
d="M135 588l12 63l41 78h42l-27 -63h27l-14 -78h-81z" />
    <glyph glyph-name="altogonek" horiz-adv-x="400" 
d="M167 -204q-40 0 -68 21t-28 61q0 54 36.5 93t87.5 54l35 -25q-49 -13 -73.5 -41.5t-24.5 -60.5q0 -48 49 -48q33 0 67 21l22 -41q-45 -34 -103 -34z" />
    <glyph glyph-name="ogonekplus" horiz-adv-x="400" 
d="M167 -204q-41 0 -70.5 21t-29.5 61q0 54 38.5 93t89.5 54l24 -18q-43 -14 -67 -46t-24 -63q0 -23 14.5 -35.5t38.5 -12.5q36 0 70 21l21 -41q-45 -34 -105 -34z" />
    <glyph glyph-name="period.sub" horiz-adv-x="159" 
d="M12 -133l11 65h58l-11 -65h-58z" />
    <glyph glyph-name="comma.sub" horiz-adv-x="224" 
d="M3 -188l20 55h-20l11 65h58l-11 -61l-32 -59h-26z" />
    <glyph glyph-name="period.sup" horiz-adv-x="159" 
d="M98 380l11 65h58l-11 -65h-58z" />
    <glyph glyph-name="comma.sup" horiz-adv-x="224" 
d="M89 325l20 55h-20l11 65h58l-11 -61l-32 -59h-26z" />
    <glyph glyph-name="IJ.alt" horiz-adv-x="1009" 
d="M16 0l12 67h162l102 579h-163l12 67h403l-12 -67h-163l-102 -579h163l-12 -67h-402zM659 -12q-87 0 -139.5 42.5t-52.5 121.5q0 28 13 102h73q-10 -67 -10 -80q0 -117 133 -117q75 0 120 45t57 108l88 503h76l-90 -510q-18 -98 -89 -156.5t-179 -58.5z" />
    <glyph glyph-name="idotaccent" horiz-adv-x="214" 
d="M38 0l88 501h71l-88 -501h-71zM143 600l20 108h71l-20 -108h-71z" />
    </font>
</defs>
</svg>
