<?xml version="1.0" standalone="no"?>
<!DOCTYPE svg PUBLIC "-//W3C//DTD SVG 1.1//EN" "http://www.w3.org/Graphics/SVG/1.1/DTD/svg11.dtd" >
<svg xmlns="http://www.w3.org/2000/svg" xmlns:xlink="http://www.w3.org/1999/xlink" version="1.1">
<metadata>
Created by FontForge 20161013 at Fri Apr 11 05:21:04 2008
 By ,,,
Copyright (c) 2008 by Mrio Feliciano. All rights reserved.
</metadata>
<defs>
<font id="Flama-SemiboldItalic" horiz-adv-x="575" >
  <font-face 
    font-family="Flama Semibold Italic"
    font-weight="725"
    font-style="italic"
    font-stretch="normal"
    units-per-em="1000"
    panose-1="2 0 0 0 0 0 0 0 0 0"
    ascent="800"
    descent="-200"
    x-height="519"
    cap-height="713"
    bbox="-193 -221 1138 1077"
    underline-thickness="50"
    underline-position="-200"
    unicode-range="U+0002-F8FF"
  />
<missing-glyph horiz-adv-x="956" 
d="M235 118l-40 40l185 185l-185 185l40 40l185 -185l185 185l40 -40l-185 -185l185 -185l-40 -40l-185 185zM55 -18v716h712v-716h-712zM115 42h592v596h-592v-596z" />
    <glyph glyph-name="fi" unicode="fi" horiz-adv-x="605" 
d="M364 0l91 519h140l-91 -519h-140zM467 590l25 138h141l-26 -138h-140zM21 -200l107 611h-73l19 104h73l11 63q13 74 61 111.5t121 37.5q40 0 71 -8l-18 -103q-45 3 -46 3q-43 0 -50 -40l-11 -64h88l-19 -104h-88l-106 -597z" />
    <glyph glyph-name="fl" unicode="fl" horiz-adv-x="658" 
d="M502 -8q-56 0 -87 27t-31 74q0 22 4 42l102 578h141l-100 -561q0 -2 -0.5 -8t-0.5 -8q0 -27 33 -27q11 0 32 2t24 2l-19 -106q-53 -15 -98 -15zM21 -200l107 611h-73l19 104h73l11 63q13 74 61 111.5t121 37.5q40 0 71 -8l-18 -103q-45 3 -46 3q-43 0 -50 -40l-11 -64h88
l-19 -104h-88l-106 -597z" />
    <glyph glyph-name=".notdef" horiz-adv-x="956" 
d="M235 118l-40 40l185 185l-185 185l40 40l185 -185l185 185l40 -40l-185 -185l185 -185l-40 -40l-185 185zM55 -18v716h712v-716h-712zM115 42h592v596h-592v-596z" />
    <glyph glyph-name=".null" horiz-adv-x="0" 
 />
    <glyph glyph-name="nonmarkingreturn" horiz-adv-x="333" 
 />
    <glyph glyph-name="CR" horiz-adv-x="200" 
 />
    <glyph glyph-name="space" unicode=" " horiz-adv-x="200" 
 />
    <glyph glyph-name="exclam" unicode="!" horiz-adv-x="300" 
d="M46 0l28 160h146l-28 -160h-146zM116 218l14 266l40 229h150l-40 -229l-80 -266h-84z" />
    <glyph glyph-name="quotedbl" unicode="&#x22;" horiz-adv-x="454" 
d="M130 430l9 158l21 125h122l-22 -125l-49 -158h-81zM322 430l8 158l22 125h121l-22 -125l-48 -158h-81z" />
    <glyph glyph-name="numbersign" unicode="#" horiz-adv-x="601" 
d="M79 -1l54 179h-113l28 87h111l62 198h-118l27 85h113l52 165h82l-49 -165h133l50 165h82l-51 -165h111l-24 -85h-111l-61 -198h113l-25 -87h-115l-53 -179h-83l53 179h-133l-53 -179h-82zM242 265h132l61 198h-133z" />
    <glyph glyph-name="dollar" unicode="$" horiz-adv-x="581" 
d="M195 -59l16 94q-123 19 -182 135l110 65q27 -46 59.5 -67t79.5 -21q45 0 78 19.5t33 57.5q0 22 -19 34t-52 23q-5 1 -7 2q-43 11 -81 25q-56 18 -89.5 56.5t-34.5 93.5q0 91 61 143t156 63l17 94h105l-17 -97q103 -19 146 -116l-112 -62q-41 68 -114 68q-38 0 -68 -18
t-30 -52q0 -33 73 -56q3 -1 37 -12t37 -12q140 -43 140 -150q0 -90 -61.5 -145t-158.5 -69l-17 -96h-105z" />
    <glyph glyph-name="percent" unicode="%" horiz-adv-x="814" 
d="M585 -11q-55 0 -91.5 24.5t-36.5 75.5q0 7 2 25q11 48 26 145q11 63 58.5 94.5t110.5 31.5q56 0 93.5 -24.5t37.5 -76.5q0 -12 -3 -26q-1 -7 -13 -72.5t-13 -71.5q-11 -61 -60 -93t-111 -32zM215 329q-54 0 -90.5 24.5t-36.5 74.5q0 9 2 25q1 7 12.5 73t12.5 72
q12 63 59.5 95t110.5 32q55 0 92 -25.5t37 -76.5q0 -12 -3 -27q-1 -7 -12.5 -73t-12.5 -70q-11 -60 -60.5 -92t-110.5 -32zM126 -11l527 732h86l-526 -732h-87zM229 404q26 0 42 14t20 35l27 150q0 1 0.5 5t0.5 5q0 39 -46 39q-51 0 -62 -49l-27 -150v-12q0 -37 45 -37z
M598 64q54 0 63 51l26 149q1 3 1 10q0 38 -45 38q-54 0 -62 -48l-27 -151q-1 -4 -1 -12q0 -37 45 -37z" />
    <glyph glyph-name="ampersand" unicode="&#x26;" horiz-adv-x="717" 
d="M294 -16q-60 0 -112.5 18t-90.5 62.5t-38 107.5q0 71 46 125.5t117 73.5l1 4q-34 14 -53.5 51t-19.5 78q0 110 84 166.5t201 56.5q87 0 149.5 -41.5t62.5 -119.5q0 -21 -5 -49h-133q3 15 3 28q0 37 -25 57t-71 20q-51 0 -86.5 -31.5t-35.5 -80.5q0 -40 28 -61t68 -21h357
l-20 -113h-88l-20 -110q-20 -111 -106 -166t-213 -55zM313 92q132 0 153 117l18 106h-161q-47 0 -81 -37t-34 -86q0 -45 31 -72.5t74 -27.5z" />
    <glyph glyph-name="quotesingle" unicode="'" horiz-adv-x="263" 
d="M134 430l8 158l21 125h122l-22 -125l-48 -158h-81z" />
    <glyph glyph-name="parenleft" unicode="(" horiz-adv-x="331" 
d="M166 -180q-73 102 -73 310q0 160 60.5 317.5t172.5 273.5l70 -1q-194 -306 -194 -640q0 -135 33 -258z" />
    <glyph glyph-name="parenright" unicode=")" horiz-adv-x="331" 
d="M29 -181l-69 2q96 152 146 322t50 329q0 120 -36 247l70 2q74 -114 74 -302q0 -156 -63.5 -323.5t-171.5 -276.5z" />
    <glyph glyph-name="asterisk" unicode="*" horiz-adv-x="453" 
d="M171 359l-58 42l100 117l-109 67l50 65l103 -63l21 126h80l-23 -126l123 63l30 -65l-138 -69l62 -116l-71 -41l-64 121z" />
    <glyph glyph-name="plus" unicode="+" 
d="M216 45l40 227h-227l17 90h226l40 228h92l-40 -228h227l-17 -90h-226l-40 -227h-92z" />
    <glyph glyph-name="comma" unicode="," horiz-adv-x="272" 
d="M28 -138l58 141h-51l28 156h146l-27 -151l-85 -146h-69z" />
    <glyph glyph-name="hyphen" unicode="-" horiz-adv-x="363" 
d="M42 239l23 119h290l-22 -119h-291z" />
    <glyph glyph-name="period" unicode="." horiz-adv-x="272" 
d="M34 0l28 160h146l-28 -160h-146z" />
    <glyph glyph-name="slash" unicode="/" horiz-adv-x="354" 
d="M-31 -178l331 896h106l-328 -896h-109z" />
    <glyph glyph-name="zero" unicode="0" horiz-adv-x="608" 
d="M273 -12q-94 0 -157.5 42.5t-63.5 130.5q0 23 4 43q2 12 26 150t26 150q19 107 103 164t192 57q94 0 155.5 -45t61.5 -134q0 -23 -4 -44q-2 -12 -26 -148.5t-26 -147.5q-19 -103 -102.5 -160.5t-188.5 -57.5zM294 107q48 0 80.5 29.5t40.5 72.5l53 298q2 12 2 22
q0 35 -23.5 56t-64.5 21q-48 0 -81.5 -28t-41.5 -72l-52 -298q-2 -14 -2 -21q0 -36 23.5 -58t65.5 -22z" />
    <glyph glyph-name="one" unicode="1" horiz-adv-x="547" 
d="M37 0l18 104h147l85 482l-141 -12l15 103l244 41h49l-109 -614h136l-18 -104h-426z" />
    <glyph glyph-name="two" unicode="2" horiz-adv-x="582" 
d="M40 0l16 91l270 262q110 106 110 187q0 33 -24.5 52t-58.5 19q-90 0 -105 -111h-133q1 5 3 18.5t2 16.5q19 91 85.5 140t170.5 49q88 0 147.5 -40.5t59.5 -125.5q0 -36 -11.5 -71.5t-25.5 -61t-44 -60.5t-47 -51.5t-55.5 -52.5t-50.5 -47l-97 -88l-1 -5h267l-21 -121
h-457z" />
    <glyph glyph-name="three" unicode="3" horiz-adv-x="590" 
d="M256 -12q-40 0 -74.5 7.5t-66 23.5t-49.5 46.5t-18 72.5q0 28 7 60h139q0 -3 -2 -14.5t-2 -17.5q0 -63 92 -63q50 0 83 37.5t33 87.5q0 39 -29 61t-69 22h-44l18 102h46q53 -1 87 32t34 88q0 34 -21.5 53.5t-55.5 19.5q-96 0 -110 -94h-136l4 23q16 92 91 141t174 49
q84 0 142 -39.5t58 -119.5q0 -65 -37 -120.5t-98 -74.5l-1 -3q47 -14 74 -50.5t27 -85.5q0 -75 -45.5 -133t-112 -85t-138.5 -26z" />
    <glyph glyph-name="four" unicode="4" horiz-adv-x="602" 
d="M307 0l29 168h-302l20 112l340 433h163l-351 -427h151l18 100l156 86l-33 -186h79l-20 -118h-80l-29 -168h-141z" />
    <glyph glyph-name="five" unicode="5" horiz-adv-x="582" 
d="M254 -12q-37 0 -71.5 7t-66.5 23t-51 45t-19 69q0 30 10 66h139q0 -3 -2 -13.5t-2 -15.5q0 -33 26 -48.5t61 -15.5q96 0 117 113q10 63 10 67q0 34 -24.5 52.5t-60.5 18.5q-53 0 -101 -43l-126 18l88 382h411l-21 -120h-295l-42 -183q75 45 154 45q68 0 119 -36t51 -102
q0 -17 -17 -116q-20 -106 -97.5 -159.5t-189.5 -53.5z" />
    <glyph glyph-name="six" unicode="6" horiz-adv-x="595" 
d="M269 -12q-88 0 -150 44.5t-62 129.5q0 18 3 38q39 222 55 309q18 101 98.5 158.5t185.5 57.5q54 0 99 -12.5t79.5 -47.5t34.5 -89q0 -21 -8 -61h-141q5 25 5 31q0 32 -26 47.5t-62 15.5q-45 0 -74.5 -25.5t-37.5 -71.5q-1 -6 -11 -64t-11 -65q67 67 174 67
q71 0 113.5 -34.5t42.5 -100.5q0 -22 -24 -141q-19 -96 -97.5 -141t-185.5 -45zM296 104q43 0 75.5 23t39.5 64q16 83 16 95q0 33 -25.5 48.5t-60.5 15.5q-44 0 -77 -26.5t-40 -62.5q-13 -72 -13 -81q0 -36 23.5 -56t61.5 -20z" />
    <glyph glyph-name="seven" unicode="7" horiz-adv-x="572" 
d="M101 0q31 160 131.5 324t209.5 263h-318l23 126h488l-20 -106q-47 -43 -92.5 -93.5t-102 -128t-100.5 -178t-64 -207.5h-155z" />
    <glyph glyph-name="eight" unicode="8" horiz-adv-x="590" 
d="M265 -12q-42 0 -77.5 7t-69 22.5t-53 47t-19.5 75.5q0 20 11 79q9 48 40.5 85.5t76.5 57.5q-61 28 -61 105q0 16 9 63q11 62 53.5 107.5t99 66.5t120.5 21q52 0 97 -13t79 -48.5t34 -89.5q0 -50 -13 -92q-7 -39 -36.5 -71t-68.5 -48q34 -14 53 -45.5t19 -69.5
q0 -12 -10 -69q-17 -94 -99.5 -142.5t-184.5 -48.5zM284 98q45 0 77 22.5t40 65.5q8 38 8 58q0 65 -87 65q-43 0 -74.5 -19.5t-39.5 -59.5q-10 -47 -10 -61q0 -34 25 -52.5t61 -18.5zM341 409q40 0 73 22.5t39 61.5q9 46 9 53q0 34 -25.5 51.5t-62.5 17.5q-39 0 -71 -21.5
t-38 -58.5q-10 -47 -10 -60q0 -34 25 -50t61 -16z" />
    <glyph glyph-name="nine" unicode="9" horiz-adv-x="592" 
d="M255 -12q-84 0 -143 35t-59 113q0 13 7 62h141q0 -4 -2 -14.5t-2 -16.5q0 -33 24 -48.5t59 -15.5q46 0 77.5 26.5t39.5 71.5q5 34 22 128q-59 -66 -176 -66q-66 0 -110 35t-44 99q0 21 19 129q18 97 100.5 148t187.5 51q88 0 150 -44.5t62 -129.5q0 -19 -3 -37
q-10 -52 -28 -156l-27 -156q-18 -100 -103.5 -157t-191.5 -57zM320 361q44 0 80 31.5t44 75.5q10 57 10 66q0 37 -23.5 57.5t-60.5 20.5q-43 0 -76 -23t-40 -64q-16 -92 -16 -97q0 -33 24 -50t58 -17z" />
    <glyph glyph-name="colon" unicode=":" horiz-adv-x="272" 
d="M21 0l28 158h147l-28 -158h-147zM81 369l28 158h147l-28 -158h-147z" />
    <glyph glyph-name="semicolon" unicode=";" horiz-adv-x="272" 
d="M26 -123l54 126h-51l28 155h146l-27 -150l-81 -131h-69zM90 369l28 158h146l-28 -158h-146z" />
    <glyph glyph-name="less" unicode="&#x3c;" 
d="M456 69l-399 214l12 72l472 213l29 -84l-372 -166l315 -168z" />
    <glyph glyph-name="equal" unicode="=" 
d="M19 162l14 90h527l-15 -90h-526zM55 375l16 90h527l-16 -90h-527z" />
    <glyph glyph-name="greater" unicode="&#x3e;" 
d="M71 69l-30 85l374 167l-314 166l56 81l398 -213l-12 -72z" />
    <glyph glyph-name="question" unicode="?" horiz-adv-x="546" 
d="M148 0l28 160h146l-28 -160h-146zM195 212l7 40q16 78 78 127q9 7 40 28t49.5 35.5t35.5 41t17 54.5q0 32 -21 52t-57 20q-88 0 -113 -93q-2 -8 -4 -22h-128q0 2 3 20.5t4 19.5q17 92 93.5 140t175.5 48q87 0 138 -40t51 -114q0 -71 -32.5 -118.5t-88.5 -87.5
q-10 -8 -36.5 -25t-37.5 -26t-24 -25.5t-16 -34.5q0 -1 -3.5 -20t-3.5 -20h-127z" />
    <glyph glyph-name="at" unicode="@" horiz-adv-x="960" 
d="M516 -150q-106 0 -178 25q-122 43 -197 141.5t-74 245.5q0 143 66.5 248t171.5 156t233 51q73 0 141.5 -22t123 -63t87 -104.5t32.5 -140.5q0 -80 -25 -143t-67 -101.5t-91.5 -59t-103.5 -23.5h-99l9 51h-3q-23 -26 -61.5 -44t-72.5 -18q-63 0 -102 34.5t-39 97.5
q0 22 4 39q14 82 21 122q14 78 66.5 126t129.5 48q35 0 67 -13.5t47 -39.5h3l9 45h116l-64 -375q71 11 119 74.5t48 179.5q0 82 -47 142t-115 87t-143 27q-162 0 -267.5 -99.5t-105.5 -276.5q0 -118 61.5 -202t160.5 -118q61 -21 150 -21q114 0 243 37l19 -66
q-110 -47 -273 -47zM463 147q39 0 66 22.5t34 61.5l19 109q1 6 1 15q0 32 -23.5 49.5t-55.5 17.5q-37 0 -61.5 -23t-31.5 -62l-19 -109q-2 -10 -2 -16q0 -31 20.5 -48t52.5 -17z" />
    <glyph glyph-name="A" unicode="A" horiz-adv-x="692" 
d="M-16 0l385 713h153l129 -713h-154l-22 144h-265l-74 -144h-152zM270 267h187l-42 279h-4z" />
    <glyph glyph-name="B" unicode="B" horiz-adv-x="675" 
d="M37 0l126 713h331q78 0 132.5 -39.5t54.5 -116.5q0 -141 -134 -181l-1 -3q46 -13 71.5 -52t25.5 -89q0 -104 -76.5 -168t-182.5 -64h-347zM211 124h157q54 0 88.5 26t34.5 77q0 37 -27 56.5t-65 19.5h-156zM264 423h150q49 0 80.5 25t31.5 72q0 35 -26 53t-61 18h-145z
" />
    <glyph glyph-name="C" unicode="C" horiz-adv-x="665" 
d="M311 -12q-68 0 -123.5 20t-93.5 67.5t-38 116.5q0 20 5 47q19 121 39 224q21 121 116 191.5t221 70.5q99 0 170 -48.5t71 -142.5q0 -33 -8 -70h-143q4 24 4 35q0 47 -33.5 72t-81.5 25q-62 0 -107 -34.5t-56 -94.5q-3 -18 -12 -66.5t-16 -89.5t-11 -66q-2 -16 -2 -25
q0 -50 36 -76.5t87 -26.5q58 0 99.5 32.5t52.5 88.5q0 1 1 5.5t1 5.5h143l-5 -27q-21 -111 -110 -172.5t-206 -61.5z" />
    <glyph glyph-name="D" unicode="D" horiz-adv-x="689" 
d="M37 0l126 713h286q103 0 173.5 -54.5t70.5 -155.5q0 -22 -5 -49q-15 -90 -37 -211q-21 -117 -111 -180t-215 -63h-288zM212 128h128q62 0 105.5 31.5t53.5 90.5q2 8 17 93t20 116q3 21 3 23q0 50 -36.5 76.5t-87.5 26.5h-122z" />
    <glyph glyph-name="E" unicode="E" horiz-adv-x="632" 
d="M37 0l126 713h507l-22 -128h-355l-28 -159h306l-22 -128h-307l-30 -170h358l-23 -128h-510z" />
    <glyph glyph-name="F" unicode="F" horiz-adv-x="595" 
d="M37 0l126 713h495l-22 -128h-342l-30 -166h288l-23 -128h-287l-51 -291h-154z" />
    <glyph glyph-name="G" unicode="G" horiz-adv-x="669" 
d="M310 -12q-67 0 -123 20t-94 67.5t-38 116.5q0 22 5 47q6 37 19.5 112t19.5 112q22 121 116.5 191.5t220.5 70.5q62 0 114.5 -17t90 -60.5t37.5 -107.5q0 -23 -8 -65h-142q4 22 4 32q0 47 -34 69t-82 22q-62 0 -107 -34.5t-56 -94.5q-16 -88 -40 -224q-2 -18 -2 -25
q0 -50 35.5 -77t87.5 -27q61 0 101 31t51 89l3 18h-164l21 124h309l-27 -156q-13 -74 -62 -128.5t-115 -80t-141 -25.5z" />
    <glyph glyph-name="H" unicode="H" horiz-adv-x="703" 
d="M37 0l126 713h153l-51 -283h262l51 283h152l-126 -713h-152l52 296h-262l-52 -296h-153z" />
    <glyph glyph-name="I" unicode="I" horiz-adv-x="289" 
d="M37 0l126 713h153l-126 -713h-153z" />
    <glyph glyph-name="J" unicode="J" horiz-adv-x="597" 
d="M244 -11q-95 0 -156 44.5t-61 132.5q0 25 13 99h144q-9 -47 -9 -66q0 -80 95 -80q49 0 79 30.5t39 79.5l85 484h153l-89 -497q-19 -106 -100.5 -166.5t-192.5 -60.5z" />
    <glyph glyph-name="K" unicode="K" horiz-adv-x="691" 
d="M37 0l126 713h153l-59 -329h3l325 329h172l-294 -289l191 -424h-167l-143 322l-116 -106l-38 -216h-153z" />
    <glyph glyph-name="L" unicode="L" horiz-adv-x="590" 
d="M37 0l126 713h153l-104 -585h343l-22 -128h-496z" />
    <glyph glyph-name="M" unicode="M" horiz-adv-x="842" 
d="M37 0l126 713h186l92 -411h3l234 411h191l-126 -713h-143l82 467h-4l-216 -378h-112l-84 376h-3l-83 -465h-143z" />
    <glyph glyph-name="N" unicode="N" horiz-adv-x="720" 
d="M37 0l126 713h143l216 -458h2l80 458h143l-126 -713h-139l-217 465h-3l-81 -465h-144z" />
    <glyph glyph-name="O" unicode="O" horiz-adv-x="688" 
d="M312 -12q-68 0 -123.5 19.5t-93.5 67t-38 117.5q0 28 4 49q5 25 12 65t15 87t11 65q21 120 118 193.5t220 73.5q107 0 181 -55.5t74 -158.5q0 -29 -5 -50q-22 -130 -36 -206q-22 -121 -118 -194t-221 -73zM336 117q61 0 106 35.5t56 95.5q5 29 19.5 110.5t18.5 109.5
q2 8 2 26q0 50 -35.5 76t-87.5 26q-62 0 -106.5 -35t-55.5 -95q-33 -186 -39 -219q-2 -18 -2 -26q0 -50 36 -77t88 -27z" />
    <glyph glyph-name="P" unicode="P" horiz-adv-x="653" 
d="M37 0l126 713h305q89 0 148.5 -53.5t59.5 -145.5q0 -117 -81 -186.5t-202 -69.5h-158l-45 -258h-153zM257 380h129q61 0 100 31.5t39 89.5q0 44 -29.5 66.5t-73.5 22.5h-128z" />
    <glyph glyph-name="Q" unicode="Q" horiz-adv-x="688" 
d="M510 -115l-143 108q-30 -5 -55 -5q-68 0 -123.5 19.5t-93.5 67t-38 117.5q0 28 4 49q5 25 12 65t15 87t11 65q21 120 118 193.5t220 73.5q107 0 181 -55.5t74 -158.5q0 -29 -5 -50q-22 -130 -36 -206q-24 -128 -130 -202l93 -57zM336 117q61 0 106 35.5t56 95.5
q5 29 19.5 110.5t18.5 109.5q2 8 2 26q0 50 -35.5 76t-87.5 26q-62 0 -106.5 -35t-55.5 -95q-33 -186 -39 -219q-2 -18 -2 -26q0 -50 36 -77t88 -27z" />
    <glyph glyph-name="R" unicode="R" horiz-adv-x="664" 
d="M37 0l126 713h280q97 0 162 -49.5t65 -151.5q0 -85 -50 -147.5t-131 -81.5l113 -283h-164l-95 260h-107l-46 -260h-153zM257 380h123q62 0 100.5 30t38.5 89q0 91 -103 91h-122z" />
    <glyph glyph-name="S" unicode="S" horiz-adv-x="627" 
d="M301 -11q-209 0 -290 147l117 76q24 -48 74 -73.5t105 -25.5q30 0 56.5 6t48.5 24.5t22 47.5q0 36 -31 58.5t-91 45.5q-48 18 -74.5 30.5t-61.5 36.5t-51.5 57t-16.5 77q0 108 76 168.5t193 60.5q193 0 260 -134l-109 -66q-22 36 -62.5 56.5t-84.5 20.5q-50 0 -86 -19
t-36 -61q0 -16 8.5 -29.5t27.5 -25t35 -18.5t45.5 -18.5t43.5 -17.5q168 -70 168 -190q0 -79 -43 -133.5t-105.5 -77.5t-137.5 -23z" />
    <glyph glyph-name="T" unicode="T" horiz-adv-x="614" 
d="M198 0l103 587h-203l22 126h559l-22 -126h-204l-103 -587h-152z" />
    <glyph glyph-name="U" unicode="U" horiz-adv-x="700" 
d="M316 -12q-108 0 -176.5 50t-68.5 153q0 25 5 58l82 464h153l-80 -450q-3 -20 -3 -39q0 -53 30 -79t83 -26q135 0 160 144l79 450h150q-76 -435 -80 -455q-22 -129 -113 -199.5t-221 -70.5z" />
    <glyph glyph-name="V" unicode="V" horiz-adv-x="623" 
d="M196 0l-103 713h155l60 -514h5l242 514h154l-359 -713h-154z" />
    <glyph glyph-name="W" unicode="W" horiz-adv-x="920" 
d="M155 0l-55 713h151l23 -467h4l202 467h135l35 -469h4l189 469h148l-307 -713h-142l-37 476h-4l-206 -476h-140z" />
    <glyph glyph-name="X" unicode="X" horiz-adv-x="624" 
d="M-35 0l292 370l-150 343h160l93 -231l176 231h161l-272 -345l162 -368h-162l-104 250l-192 -250h-164z" />
    <glyph glyph-name="Y" unicode="Y" horiz-adv-x="623" 
d="M201 0l50 284l-160 429h157l103 -293l202 293h160l-313 -431l-50 -282h-149z" />
    <glyph glyph-name="Z" unicode="Z" horiz-adv-x="612" 
d="M4 0l19 111l425 476h-322l23 126h516l-20 -112l-421 -473h340l-22 -128h-538z" />
    <glyph glyph-name="bracketleft" unicode="[" horiz-adv-x="336" 
d="M13 -184l158 897h229l-14 -79h-111l-130 -740h111l-15 -78h-228z" />
    <glyph glyph-name="backslash" unicode="\" horiz-adv-x="354" 
d="M316 -178l-267 896h104l267 -896h-104z" />
    <glyph glyph-name="bracketright" unicode="]" horiz-adv-x="336" 
d="M-40 -184l15 78h110l130 740h-111l14 79h229l-159 -897h-228z" />
    <glyph glyph-name="asciicircum" unicode="^" horiz-adv-x="563" 
d="M82 123l213 492h132l32 -492h-109l-11 380l-150 -380h-107z" />
    <glyph glyph-name="underscore" unicode="_" horiz-adv-x="500" 
d="M-46 -145l16 94h500l-17 -94h-499z" />
    <glyph glyph-name="grave" unicode="`" horiz-adv-x="342" 
d="M239 593l-138 177h151l91 -177h-104z" />
    <glyph glyph-name="a" unicode="a" horiz-adv-x="583" 
d="M198 -12q-75 0 -120.5 39.5t-45.5 113.5q0 25 4 45q4 23 12.5 70.5t12.5 71.5q17 91 79 146t153 55q40 0 78.5 -15.5t55.5 -45.5h4l10 52h137l-92 -520h-137l11 59h-3q-28 -30 -73.5 -50.5t-85.5 -20.5zM263 102q46 0 78.5 26.5t39.5 70.5l22 127q2 12 2 17
q0 37 -27.5 56.5t-65.5 19.5q-44 0 -73 -26.5t-37 -70.5l-22 -126q-2 -12 -2 -19q0 -36 24 -55.5t61 -19.5z" />
    <glyph glyph-name="b" unicode="b" horiz-adv-x="586" 
d="M292 -12q-81 0 -119 62h-5l-10 -50h-134l126 713h140l-45 -255h3q66 71 155 71q74 0 120 -40t46 -114q0 -24 -4 -44q-4 -26 -12.5 -74t-12.5 -69q-17 -90 -86 -145t-162 -55zM285 97q44 0 75.5 26t38.5 70l22 129q2 12 2 19q0 36 -24 55t-61 19q-46 0 -78.5 -29
t-40.5 -75l-22 -120q-1 -6 -1 -19q0 -36 25.5 -55.5t63.5 -19.5z" />
    <glyph glyph-name="c" unicode="c" horiz-adv-x="525" 
d="M251 -12q-42 0 -80 10t-69.5 30t-50.5 53.5t-19 77.5q0 49 20 143q21 105 95 166t180 61q82 0 139 -40.5t57 -118.5q0 -12 -7 -54h-129q3 16 3 31q0 34 -22.5 52t-57.5 18q-90 0 -110 -97q-21 -93 -21 -141q0 -38 29.5 -57.5t70.5 -19.5q62 0 151 39l35 -101
q-99 -52 -214 -52z" />
    <glyph glyph-name="d" unicode="d" horiz-adv-x="586" 
d="M198 -12q-75 0 -120.5 39.5t-45.5 113.5q0 25 4 45q4 23 12.5 70.5t12.5 71.5q17 91 80 146t155 55q38 0 75.5 -16t54.5 -45h2l43 245h140l-125 -713h-137l11 59h-4q-27 -30 -72.5 -50.5t-85.5 -20.5zM263 102q46 0 78.5 26.5t39.5 70.5l22 127q2 12 2 18
q0 36 -25.5 55.5t-63.5 19.5q-44 0 -75 -26.5t-39 -70.5l-22 -126q-2 -12 -2 -19q0 -36 24 -55.5t61 -19.5z" />
    <glyph glyph-name="e" unicode="e" horiz-adv-x="551" 
d="M245 -12q-89 0 -151 42.5t-62 127.5q0 18 3 41.5t10 58t8 41.5q19 105 98.5 167.5t186.5 62.5q82 0 136.5 -42t54.5 -122q0 -25 -20 -142h-325q-6 -30 -6 -44q0 -40 29.5 -59.5t71.5 -19.5q65 0 166 41l35 -90q-86 -63 -235 -63zM200 311h189q5 33 5 38q0 34 -21.5 52
t-55.5 18q-88 0 -112 -84q-1 -3 -3 -12t-2 -12z" />
    <glyph glyph-name="f" unicode="f" horiz-adv-x="340" 
d="M21 -200l107 611h-73l19 104h73l11 63q13 74 61 111.5t121 37.5q40 0 71 -8l-18 -103q-45 3 -46 3q-43 0 -50 -40l-11 -64h88l-19 -104h-88l-106 -597z" />
    <glyph glyph-name="g" unicode="g" horiz-adv-x="584" 
d="M197 -200q-124 0 -192 73l84 83q50 -45 131 -45q54 0 88.5 29.5t44.5 83.5q2 9 5 28.5t5 29.5h-4q-61 -67 -150 -67q-77 0 -122.5 37t-45.5 112q0 20 5 50q2 10 21 123q17 91 74 142t150 51q42 0 82 -17t57 -50h2l10 56h136q-48 -274 -86 -486q-20 -113 -99 -173
t-196 -60zM272 122q45 0 76.5 26t39.5 71q20 121 20 124q0 37 -25 55.5t-68 18.5q-92 0 -108 -97q-19 -108 -19 -123q0 -36 23.5 -55.5t60.5 -19.5z" />
    <glyph glyph-name="h" unicode="h" horiz-adv-x="586" 
d="M25 0l125 713h141l-46 -260h3q73 77 161 77q65 0 107.5 -37.5t42.5 -93.5q0 -21 -7 -56l-60 -343h-141l53 302q6 24 6 43q0 30 -19.5 49t-55.5 19q-51 0 -80.5 -34t-37.5 -87l-52 -292h-140z" />
    <glyph glyph-name="i" unicode="i" horiz-adv-x="266" 
d="M25 0l91 519h140l-91 -519h-140zM128 590l25 138h141l-26 -138h-140z" />
    <glyph glyph-name="j" unicode="j" horiz-adv-x="280" 
d="M-19 -193q-23 0 -51 4l19 110q3 0 15 -0.5t16 -0.5q49 0 58 50l97 549h140l-98 -558q-13 -75 -64 -114.5t-132 -39.5zM147 590l26 138h140l-26 -138h-140z" />
    <glyph glyph-name="k" unicode="k" horiz-adv-x="551" 
d="M25 0l126 713h140l-72 -407l215 213h155l-209 -198l131 -321h-148l-94 232l-75 -71l-29 -161h-140z" />
    <glyph glyph-name="l" unicode="l" horiz-adv-x="319" 
d="M163 -8q-56 0 -87 27t-31 74q0 22 4 42l102 578h141l-100 -561q0 -2 -0.5 -8t-0.5 -8q0 -27 33 -27q11 0 32 2t24 2l-19 -106q-53 -15 -98 -15z" />
    <glyph glyph-name="m" unicode="m" horiz-adv-x="913" 
d="M25 0l91 519h137l-11 -65h3q68 76 164 76q54 0 93 -26t52 -69q75 95 182 95q65 0 107.5 -37.5t42.5 -93.5q0 -3 -7 -56l-61 -343h-140l53 302q5 27 5 43q0 30 -19.5 49t-55.5 19q-50 0 -79 -33.5t-39 -87.5l-51 -292h-141l54 307q5 25 5 39q0 31 -19.5 49t-55.5 18
q-51 0 -80 -33.5t-38 -87.5l-52 -292h-140z" />
    <glyph glyph-name="n" unicode="n" horiz-adv-x="586" 
d="M25 0l91 519h137l-11 -65h3q68 76 164 76q65 0 107.5 -37.5t42.5 -93.5q0 -21 -7 -56l-60 -343h-141l53 302q6 33 6 43q0 30 -19.5 49t-55.5 19q-51 0 -80 -33.5t-38 -87.5l-52 -292h-140z" />
    <glyph glyph-name="o" unicode="o" horiz-adv-x="563" 
d="M242 -12q-88 0 -149 41.5t-61 124.5q0 19 3 40l21 115q18 98 97 159t180 61q88 0 148.5 -45t60.5 -129q0 -15 -4 -43l-19 -107q-18 -97 -97 -157t-180 -60zM261 100q45 0 76 25.5t38 68.5l22 129q2 14 2 19q0 36 -24 55t-61 19q-44 0 -75.5 -26t-38.5 -70l-22 -128
q-2 -14 -2 -20q0 -36 24 -54t61 -18z" />
    <glyph glyph-name="p" unicode="p" horiz-adv-x="586" 
d="M-9 -191l126 710h137l-11 -61h3q72 72 158 72q75 0 120.5 -40t45.5 -114q0 -24 -4 -44q-16 -96 -25 -143q-17 -92 -84 -146t-160 -54q-36 0 -68.5 16t-49.5 45h-5l-43 -241h-140zM286 98q44 0 75 25.5t39 69.5l23 130q2 12 2 18q0 36 -24.5 55.5t-61.5 19.5
q-46 0 -78.5 -29t-40.5 -74l-21 -121q-2 -12 -2 -19q0 -36 25.5 -55.5t63.5 -19.5z" />
    <glyph glyph-name="q" unicode="q" horiz-adv-x="586" 
d="M313 -196l46 256h-4q-27 -30 -72 -50.5t-85 -20.5q-75 0 -120.5 39.5t-45.5 113.5q0 24 4 44q4 26 12.5 73.5t12.5 68.5q17 92 79 147t154 55q39 0 77.5 -16.5t56.5 -46.5h2l10 53h138l-127 -716h-138zM263 103q46 0 78.5 26.5t39.5 70.5l22 127q2 12 2 18q0 36 -28 55.5
t-66 19.5q-43 0 -72 -26.5t-37 -70.5l-22 -126q-2 -12 -2 -19q0 -36 24 -55.5t61 -19.5z" />
    <glyph glyph-name="r" unicode="r" horiz-adv-x="424" 
d="M25 0l91 519h137l-15 -87h5q29 40 81 68t98 28q24 0 44 -3l-22 -124q-27 4 -64 4q-65 0 -110.5 -35t-57.5 -102l-47 -268h-140z" />
    <glyph glyph-name="s" unicode="s" horiz-adv-x="509" 
d="M225 -11q-142 0 -216 77l78 88q63 -61 141 -61q100 0 100 56q0 6 -1.5 11t-5 9t-7 7.5t-10.5 7l-12 6t-14 5.5t-14.5 5t-16.5 5t-17 5q-29 10 -44 15.5t-39.5 18.5t-36.5 26.5t-22 35t-10 48.5q0 84 64 130t157 46q122 0 193 -62l-74 -86q-23 19 -57.5 32.5t-66.5 13.5
q-33 0 -61 -14t-28 -44q0 -20 35 -33q14 -5 52.5 -17t62.5 -22t53 -27t44 -42t15 -57q0 -66 -37.5 -108.5t-89.5 -58.5t-115 -16z" />
    <glyph glyph-name="t" unicode="t" horiz-adv-x="352" 
d="M180 -7q-56 0 -92.5 24t-36.5 78q0 15 3 32l50 282h-67l19 106h66l28 153h140l-27 -153h109l-18 -106h-110l-43 -247q-2 -10 -2 -14q0 -35 41 -35q28 0 63 5l-20 -114q-53 -11 -103 -11z" />
    <glyph glyph-name="u" unicode="u" horiz-adv-x="582" 
d="M193 -11q-68 0 -108 36.5t-40 103.5q0 23 5 48l60 342h140l-54 -302q0 -4 -1.5 -13t-2 -16.5t-0.5 -12.5q0 -68 75 -68q95 0 118 121l52 291h140l-92 -519h-136l11 65h-4q-68 -76 -163 -76z" />
    <glyph glyph-name="v" unicode="v" horiz-adv-x="516" 
d="M142 0l-94 519h146l48 -345h4l167 345h139l-268 -519h-142z" />
    <glyph glyph-name="w" unicode="w" horiz-adv-x="796" 
d="M120 0l-71 519h145l29 -336h4l154 336h126l34 -336h5l148 336h139l-254 -519h-132l-34 344h-4l-155 -344h-134z" />
    <glyph glyph-name="x" unicode="x" horiz-adv-x="528" 
d="M-28 0l223 271l-122 248h151l67 -149l117 149h148l-209 -249l130 -270h-150l-75 165l-132 -165h-148z" />
    <glyph glyph-name="y" unicode="y" horiz-adv-x="538" 
d="M55 -195q-25 0 -70 8l22 115q33 -6 60 -6q21 0 40 12t28 29l23 47l-101 509h150l53 -349h3l168 349h146l-317 -589q-68 -125 -205 -125z" />
    <glyph glyph-name="z" unicode="z" horiz-adv-x="497" 
d="M-5 0l18 101l294 309h-232l19 109h416l-18 -102l-296 -305h250l-20 -112h-431z" />
    <glyph glyph-name="braceleft" unicode="{" horiz-adv-x="336" 
d="M130 -184q-88 0 -88 90q0 19 4 38l43 246q4 26 4 33q0 18 -8 26t-28 10l15 86q32 6 40.5 15.5t13.5 37.5l33 187q11 63 45.5 95.5t84.5 32.5h122l-15 -79h-88q-22 0 -26 -23l-33 -187q-8 -49 -27 -76.5t-56 -40.5l-1 -6q26 -11 36.5 -25.5t10.5 -39.5q0 -17 -5 -50
l-47 -269q-1 -2 -1 -6q0 -17 19 -17h88l-14 -78h-122z" />
    <glyph glyph-name="bar" unicode="|" horiz-adv-x="323" 
d="M45 -53l137 778h108l-137 -778h-108z" />
    <glyph glyph-name="braceright" unicode="}" horiz-adv-x="336" 
d="M-48 -184l15 78h88q22 0 26 23l47 269q9 54 25 77t57 38l1 6q-46 18 -46 74q0 16 5 43l33 187v6q0 17 -18 17h-89l15 79h121q41 0 64 -23t23 -68q0 -16 -3 -37l-33 -187q-3 -15 -3 -24q0 -13 8 -19t31 -10l-15 -86q-28 -3 -39.5 -17t-18.5 -52l-43 -246
q-11 -63 -45.5 -95.5t-84.5 -32.5h-121z" />
    <glyph glyph-name="asciitilde" unicode="~" horiz-adv-x="570" 
d="M95 237l-69 15q47 134 142 134q28 0 146.5 -15.5t147.5 -15.5q6 0 11 1t9 4t7 5t7 7.5t6 8t6 10t6 9.5l67 -15q-45 -134 -136 -134q-29 0 -149.5 15.5t-148.5 15.5q-16 0 -25.5 -8.5t-26.5 -36.5z" />
    <glyph glyph-name="nbspace" unicode="&#xa0;" horiz-adv-x="210" 
 />
    <glyph glyph-name="exclamdown" unicode="&#xa1;" horiz-adv-x="300" 
d="M12 -163l40 230l80 266h84l-14 -266l-40 -230h-150zM112 391l28 160h147l-28 -160h-147z" />
    <glyph glyph-name="cent" unicode="&#xa2;" horiz-adv-x="562" 
d="M190 -59l15 95q-65 11 -106.5 49.5t-41.5 97.5q0 25 29 186q15 82 72.5 134t140.5 66l14 89h111l-14 -89q60 -11 98.5 -46.5t38.5 -94.5q0 -6 -8 -59h-133q4 22 4 33q0 31 -21.5 47t-53.5 16q-42 0 -72 -23t-37 -64q-4 -25 -13 -75.5t-14 -75.5q-1 -6 -1 -17
q0 -34 24 -51.5t58 -17.5q46 0 70.5 21t31.5 76h133q-15 -100 -62 -142.5t-136 -59.5l-16 -95h-111z" />
    <glyph glyph-name="sterling" unicode="&#xa3;" horiz-adv-x="612" 
d="M16 0l21 116h80l34 193h-64l14 85h65q1 4 11.5 63t11.5 64q18 98 89 151t173 53q76 0 126.5 -38.5t50.5 -111.5q0 -27 -10 -75h-128q7 35 7 47q0 68 -71 68q-80 0 -95 -84q-2 -7 -12.5 -69t-11.5 -68h186l-14 -85h-187l-34 -193h307l-46 -116h-503z" />
    <glyph glyph-name="currency" unicode="&#xa4;" horiz-adv-x="577" 
d="M109 121l-52 52l62 64q-34 53 -34 113q0 59 33 112q-12 15 -61 64l52 51l61 -59q54 38 120 38t118 -38l59 59l52 -51l-59 -62q35 -51 35 -114t-36 -115l60 -62l-52 -52l-61 60q-53 -35 -116 -35q-66 0 -118 37l-16.5 -16.5t-30 -29.5t-16.5 -16zM290 219q59 0 90.5 38
t31.5 93q0 56 -32.5 95t-89.5 39q-59 0 -90.5 -38.5t-31.5 -95.5q0 -54 33 -92.5t89 -38.5z" />
    <glyph glyph-name="yen" unicode="&#xa5;" horiz-adv-x="631" 
d="M205 0l43 247h-189l14 87h167l-135 379h154l99 -299l203 299h151l-271 -379h162l-14 -87h-186l-43 -247h-155z" />
    <glyph glyph-name="brokenbar" unicode="&#xa6;" horiz-adv-x="414" 
d="M130 -47l63 356h86l-63 -356h-86zM206 383l59 330h86l-59 -330h-86z" />
    <glyph glyph-name="section" unicode="&#xa7;" horiz-adv-x="552" 
d="M216 -89q-47 0 -85.5 11t-67.5 41.5t-29 77.5q0 33 10 69h112q-6 -29 -6 -37q0 -62 91 -62q54 0 85 24t31 54q0 22 -15.5 32.5t-44.5 20.5q-115 35 -161 66.5t-46 86.5q0 95 86 148q-45 33 -45 87q0 86 66 140t173 54q83 0 131 -33t48 -95q0 -31 -9 -67h-108q5 28 5 39
q0 25 -22.5 41.5t-66.5 16.5q-41 0 -70.5 -18t-29.5 -48q0 -17 16.5 -27.5t52.5 -23.5q3 -1 4 -1.5t3 -1t4 -1.5q6 -2 29.5 -10t35.5 -13t34 -14.5t34.5 -19.5t26.5 -23t20.5 -29t6.5 -35q0 -46 -22 -86.5t-61 -65.5q44 -32 44 -85q0 -89 -73 -151t-187 -62zM336 257
q30 10 46 28.5t16 37.5q0 18 -24 32t-102 36q-65 -21 -65 -69q0 -28 63 -45q1 0 31.5 -9.5t34.5 -10.5z" />
    <glyph glyph-name="dieresis" unicode="&#xa8;" horiz-adv-x="500" 
d="M149 590l25 141h130l-25 -141h-130zM359 590l25 141h130l-25 -141h-130z" />
    <glyph glyph-name="copyright" unicode="&#xa9;" horiz-adv-x="934" 
d="M453 79q-78 0 -129 36.5t-51 108.5q0 14 33 203q16 88 84.5 137t157.5 49q76 0 126.5 -34.5t50.5 -101.5q0 -14 -10 -72h-121q6 37 6 49q0 55 -69 55q-39 0 -64.5 -22t-32.5 -61q-30 -169 -30 -182q0 -62 69 -62q37 0 63 19.5t32 53.5l6 33h120q-1 -8 -5.5 -28.5
t-4.5 -23.5q-12 -56 -50.5 -93t-84 -50.5t-96.5 -13.5zM425 -62q-162 0 -251 92t-89 236q0 130 64 242t176 178.5t243 66.5q160 0 252 -92t92 -236q0 -95 -37.5 -184t-101.5 -155.5t-155.5 -107t-192.5 -40.5zM436 4q102 0 192 53.5t145 149t55 210.5q0 124 -76.5 198
t-194.5 74q-98 0 -185 -48t-145 -145t-58 -222q0 -124 75.5 -197t191.5 -73z" />
    <glyph glyph-name="ordfeminine" unicode="&#xaa;" horiz-adv-x="420" 
d="M194 364q-41 0 -69.5 19.5t-28.5 58.5t19 67t51.5 42t65.5 19.5t70 5.5h28l3 17q3 17 3 25q0 40 -46 40q-54 0 -63 -45l-3 -12h-88l3 14q10 56 60 83.5t111 27.5q52 0 89 -23t37 -71q0 -12 -3 -24q-3 -18 -13 -71.5t-15.5 -91t-7.5 -73.5h-92l3 43q-48 -51 -114 -51z
M242 434q26 0 47.5 17t25.5 42l6 30h-41q-80 0 -80 -57q0 -32 42 -32zM76 223l16 83h281l-15 -83h-282z" />
    <glyph glyph-name="guillemotleft" unicode="&#xab;" horiz-adv-x="583" 
d="M212 59l-176 205l250 207l54 -59l-147 -148l94 -150zM454 59l-176 205l249 207l55 -59l-147 -148l94 -150z" />
    <glyph glyph-name="logicalnot" unicode="&#xac;" horiz-adv-x="678" 
d="M489 106l31 180l-444 1l16 91l548 -1l-48 -271h-103z" />
    <glyph glyph-name="registered" unicode="&#xae;" horiz-adv-x="530" 
d="M283 305q-86 0 -133.5 49t-47.5 125q0 104 76.5 182t181.5 78q86 0 135 -49.5t49 -126.5q0 -102 -77.5 -180t-183.5 -78zM291 351q76 0 136.5 60.5t60.5 146.5q0 63 -38 100.5t-98 37.5q-76 0 -135 -58.5t-59 -151.5q0 -62 38 -98.5t95 -36.5zM214 410l42 236h105
q35 0 54 -16.5t19 -43.5q0 -26 -15.5 -49.5t-41.5 -34.5l36 -92h-68l-29 83h-25l-15 -83h-62zM299 538h34q17 0 27.5 10.5t10.5 26.5q0 22 -27 22h-35z" />
    <glyph glyph-name="macron" unicode="&#xaf;" horiz-adv-x="419" 
d="M131 598l21 111h306l-21 -111h-306z" />
    <glyph glyph-name="degree" unicode="&#xb0;" horiz-adv-x="310" 
d="M204 503q-48 0 -75.5 26.5t-27.5 67.5q0 56 43.5 97.5t101.5 41.5q48 0 75.5 -27.5t27.5 -69.5q0 -57 -44.5 -96.5t-100.5 -39.5zM215 562q26 0 46 20t20 48q0 20 -12 33.5t-34 13.5q-25 0 -44.5 -20.5t-19.5 -48.5q0 -20 12 -33t32 -13z" />
    <glyph glyph-name="plusminus" unicode="&#xb1;" 
d="M-5 0l15 91h514l-15 -91h-514zM232 154l37 207h-218l16 90h217l37 208h92l-36 -208h217l-16 -90h-217l-37 -207h-92z" />
    <glyph glyph-name="twosuperior" unicode="&#xb2;" horiz-adv-x="359" 
d="M84 380l11 66l163 152q47 43 47 79q0 29 -34 29q-40 0 -47 -45l-2 -12h-99l3 21q9 56 55.5 86.5t111.5 30.5q58 0 88.5 -26t30.5 -69q0 -17 -3.5 -32.5t-13.5 -32t-16 -26.5t-23.5 -28t-22.5 -23t-27.5 -24.5t-24.5 -21.5l-43 -40h139l-14 -84h-279z" />
    <glyph glyph-name="threesuperior" unicode="&#xb3;" horiz-adv-x="364" 
d="M207 368q-126 0 -126 90q0 12 3 24l3 13h102l-2 -10q0 -1 -0.5 -4.5t-0.5 -5.5q0 -27 41 -27q20 0 35.5 16t15.5 41q0 34 -46 34h-32l13 72h31q58 0 58 55q0 16 -10 24.5t-25 8.5q-41 0 -47 -38l-1 -8h-101l2 14q8 51 53 82.5t111 31.5q60 0 92 -25t32 -67
q0 -39 -23 -68.5t-56 -39.5v-2q27 -8 43 -27.5t16 -46.5q0 -69 -57.5 -103t-123.5 -34z" />
    <glyph glyph-name="acute" unicode="&#xb4;" horiz-adv-x="307" 
d="M138 593l118 177h151l-165 -177h-104z" />
    <glyph glyph-name="mu" unicode="&#xb5;" horiz-adv-x="592" 
d="M-9 -178l122 697h143l-57 -323q-2 -12 -2 -17q0 -30 19.5 -50t56.5 -20q34 0 69 26.5t43 67.5l55 316h143l-58 -331q0 -1 -1.5 -8.5t-1.5 -11.5q0 -27 31 -27l-27 -145q-63 0 -95 24.5t-36 64.5q-53 -97 -145 -97q-79 0 -97 62l-9 -2l-5 -216z" />
    <glyph glyph-name="paragraph" unicode="&#xb6;" horiz-adv-x="621" 
d="M193 -90l55 310q-64 6 -102.5 42.5t-45 88t1.5 113.5q17 99 87 174t159 75h301l-12 -71h-51l-129 -732h-86l129 732h-93l-129 -732h-85z" />
    <glyph glyph-name="periodcentered" unicode="&#xb7;" horiz-adv-x="272" 
d="M81 311l29 159h146l-28 -159h-147z" />
    <glyph glyph-name="periodcentered" unicode="&#x22c5;" horiz-adv-x="272" 
d="M81 311l29 159h146l-28 -159h-147z" />
    <glyph glyph-name="cedilla" unicode="&#xb8;" horiz-adv-x="312" 
d="M96 -221q-48 0 -100 18l13 67q52 -18 89 -18q59 0 59 36q0 21 -61 23l-32 1l48 127h63l-27 -70q116 -2 116 -70q0 -49 -48 -81.5t-120 -32.5z" />
    <glyph glyph-name="onesuperior" unicode="&#xb9;" horiz-adv-x="340" 
d="M77 380l13 74h74l41 230l-73 -5l7 72l136 28h53l-58 -325h67l-13 -74h-247z" />
    <glyph glyph-name="ordmasculine" unicode="&#xba;" horiz-adv-x="428" 
d="M239 363q-61 0 -99.5 26.5t-38.5 83.5q0 20 18 110q12 70 62.5 109.5t122.5 39.5q60 0 98.5 -27.5t38.5 -85.5q0 -17 -2.5 -34.5t-7 -43t-6.5 -34.5q-13 -68 -64 -106t-122 -38zM252 437q57 0 71 68q0 1 8 45t8 60q0 47 -46 47q-61 0 -71 -70q-18 -94 -18 -105
q0 -45 48 -45zM76 223l15 83h281l-15 -83h-281z" />
    <glyph glyph-name="guillemotright" unicode="&#xbb;" horiz-adv-x="583" 
d="M76 59l-56 64l149 143l-96 148l77 57l176 -205zM318 59l-56 64l149 143l-96 148l77 57l176 -205z" />
    <glyph glyph-name="onequarter" unicode="&#xbc;" horiz-adv-x="881" 
d="M83 315l13 74h74l41 230l-73 -5l7 72l136 28h53l-58 -325h67l-13 -74h-247zM658 0l16 84h-174l13 75l191 241h115l-198 -237h67l7 46l111 64l-19 -110h41l-14 -79h-41l-15 -84h-100zM193 -2l472 716h88l-473 -716h-87z" />
    <glyph glyph-name="onehalf" unicode="&#xbd;" horiz-adv-x="881" 
d="M83 315l13 74h74l41 230l-73 -5l7 72l136 28h53l-58 -325h67l-13 -74h-247zM524 0l11 66l163 152q47 43 47 79q0 29 -34 29q-40 0 -47 -45l-2 -12h-99l3 21q9 56 55.5 86.5t111.5 30.5q58 0 88.5 -26t30.5 -69q0 -17 -3.5 -32.5t-13.5 -32t-16 -26.5t-23.5 -28t-22.5 -23
t-27.5 -24.5t-24.5 -21.5l-43 -40h139l-14 -84h-279zM191 -2l472 716h88l-473 -716h-87z" />
    <glyph glyph-name="threequarters" unicode="&#xbe;" horiz-adv-x="881" 
d="M658 0l16 84h-174l13 75l191 241h115l-198 -237h67l7 46l111 64l-19 -110h41l-14 -79h-41l-15 -84h-100zM198 303q-126 0 -126 90q0 12 3 24l3 13h102l-2 -10q0 -1 -0.5 -4.5t-0.5 -5.5q0 -27 41 -27q20 0 35.5 16t15.5 41q0 34 -46 34h-32l13 72h31q58 0 58 55
q0 16 -10 24.5t-25 8.5q-41 0 -47 -38l-1 -8h-101l2 14q8 51 53 82.5t111 31.5q60 0 92 -25t32 -67q0 -39 -23 -68.5t-56 -39.5v-2q27 -8 43 -27.5t16 -46.5q0 -69 -57.5 -103t-123.5 -34zM203 -2l472 716h88l-473 -716h-87z" />
    <glyph glyph-name="questiondown" unicode="&#xbf;" horiz-adv-x="546" 
d="M205 -173q-87 0 -138 39.5t-51 113.5q0 72 32.5 120t88.5 88q8 6 36 25t38.5 27.5t23.5 25t16 33.5q0 1 3.5 20t3.5 20h127l-7 -40q-16 -78 -78 -127q-9 -7 -40 -28t-49.5 -36t-35.5 -41t-17 -54q0 -32 21 -52t55 -20q37 0 69.5 21.5t45.5 71.5q2 5 4 21h128l-7 -39
q-17 -92 -94 -140.5t-175 -48.5zM258 391l28 160h146l-28 -160h-146z" />
    <glyph glyph-name="Agrave" unicode="&#xc0;" horiz-adv-x="692" 
d="M-16 0l385 713h153l129 -713h-154l-22 144h-265l-74 -144h-152zM270 267h187l-42 279h-4zM386 778l-138 177h151l91 -177h-104z" />
    <glyph glyph-name="Aacute" unicode="&#xc1;" horiz-adv-x="692" 
d="M-16 0l385 713h153l129 -713h-154l-22 144h-265l-74 -144h-152zM270 267h187l-42 279h-4zM400 778l118 177h151l-165 -177h-104z" />
    <glyph glyph-name="Acircumflex" unicode="&#xc2;" horiz-adv-x="692" 
d="M-16 0l385 713h153l129 -713h-154l-22 144h-265l-74 -144h-152zM270 267h187l-42 279h-4zM277 779l139 180h118l73 -180h-110l-36 98l-72 -98h-112z" />
    <glyph glyph-name="Atilde" unicode="&#xc3;" horiz-adv-x="692" 
d="M-16 0l385 713h153l129 -713h-154l-22 144h-265l-74 -144h-152zM270 267h187l-42 279h-4zM312 767q-56 11 -73 15q45 138 143 138q30 0 82.5 -16.5t82.5 -16.5q18 0 27.5 10.5t22.5 37.5l69 -16q-44 -138 -138 -138q-30 0 -84.5 16.5t-80.5 16.5q-15 0 -25.5 -9.5
t-25.5 -37.5z" />
    <glyph glyph-name="Adieresis" unicode="&#xc4;" horiz-adv-x="692" 
d="M-16 0l385 713h153l129 -713h-154l-22 144h-265l-74 -144h-152zM270 267h187l-42 279h-4zM283 775l25 141h130l-25 -141h-130zM493 775l25 141h130l-25 -141h-130z" />
    <glyph glyph-name="Aring" unicode="&#xc5;" horiz-adv-x="692" 
d="M-16 0l385 713h153l129 -713h-154l-22 144h-265l-74 -144h-152zM270 267h187l-42 279h-4zM460 765q-41 0 -68 21t-27 58q0 50 40.5 87t90.5 37q42 0 69.5 -20t27.5 -59q0 -51 -41 -87.5t-92 -36.5zM469 818q23 0 41 17.5t18 40.5q0 38 -41 38q-24 0 -40.5 -17t-16.5 -40
q0 -17 11 -28t28 -11z" />
    <glyph glyph-name="AE" unicode="&#xc6;" horiz-adv-x="1019" 
d="M-19 0l494 713h583l-21 -121h-338l-30 -170h267l-22 -120h-267l-31 -180h338l-21 -122h-492l28 160h-220l-112 -160h-156zM323 276h167l58 329z" />
    <glyph glyph-name="Ccedilla" unicode="&#xc7;" horiz-adv-x="665" 
d="M271 -221q-48 0 -100 18l13 67q52 -18 89 -18q59 0 59 36q0 21 -61 23l-32 1l32 84q-93 9 -154 59.5t-61 142.5q0 20 5 47q19 121 39 224q21 121 116 191.5t221 70.5q99 0 170 -48.5t71 -142.5q0 -33 -8 -70h-143q4 24 4 35q0 47 -33.5 72t-81.5 25q-62 0 -107 -34.5
t-56 -94.5q-3 -18 -12 -66.5t-16 -89.5t-11 -66q-2 -16 -2 -25q0 -50 36 -76.5t87 -26.5q58 0 99.5 32.5t52.5 88.5q0 1 1 5.5t1 5.5h143l-5 -27q-20 -106 -102 -166.5t-192 -66.5l-10 -26q116 -2 116 -70q0 -49 -48 -81.5t-120 -32.5z" />
    <glyph glyph-name="Egrave" unicode="&#xc8;" horiz-adv-x="632" 
d="M37 0l126 713h507l-22 -128h-355l-28 -159h306l-22 -128h-307l-30 -170h358l-23 -128h-510zM386 778l-138 177h151l91 -177h-104z" />
    <glyph glyph-name="Eacute" unicode="&#xc9;" horiz-adv-x="632" 
d="M371 778l118 177h151l-165 -177h-104zM37 0l126 713h507l-22 -128h-355l-28 -159h306l-22 -128h-307l-30 -170h358l-23 -128h-510z" />
    <glyph glyph-name="Ecircumflex" unicode="&#xca;" horiz-adv-x="632" 
d="M262 779l139 180h118l73 -180h-110l-36 98l-72 -98h-112zM37 0l126 713h507l-22 -128h-355l-28 -159h306l-22 -128h-307l-30 -170h358l-23 -128h-510z" />
    <glyph glyph-name="Edieresis" unicode="&#xcb;" horiz-adv-x="632" 
d="M264 775l25 141h130l-25 -141h-130zM474 775l25 141h130l-25 -141h-130zM37 0l126 713h507l-22 -128h-355l-28 -159h306l-22 -128h-307l-30 -170h358l-23 -128h-510z" />
    <glyph glyph-name="Igrave" unicode="&#xcc;" horiz-adv-x="289" 
d="M37 0l126 713h153l-126 -713h-153zM183 778l-138 177h151l91 -177h-104z" />
    <glyph glyph-name="Iacute" unicode="&#xcd;" horiz-adv-x="289" 
d="M37 0l126 713h153l-126 -713h-153zM193 778l118 177h151l-165 -177h-104z" />
    <glyph glyph-name="Icircumflex" unicode="&#xce;" horiz-adv-x="289" 
d="M37 0l126 713h153l-126 -713h-153zM81 779l139 180h118l73 -180h-110l-36 98l-72 -98h-112z" />
    <glyph glyph-name="Idieresis" unicode="&#xcf;" horiz-adv-x="289" 
d="M37 0l126 713h153l-126 -713h-153zM76 775l25 141h130l-25 -141h-130zM286 775l25 141h130l-25 -141h-130z" />
    <glyph glyph-name="Eth" unicode="&#xd0;" horiz-adv-x="702" 
d="M36 315l19 96h67l54 302h286q103 0 173.5 -54.5t70.5 -155.5q0 -22 -5 -49q-15 -90 -37 -211q-21 -117 -111 -180t-215 -63h-288l55 315h-69zM225 128h128q62 0 105.5 31.5t53.5 90.5q2 8 17 93t20 116q3 21 3 23q0 50 -36.5 76.5t-87.5 26.5h-122l-31 -174h147l-19 -96
h-145z" />
    <glyph glyph-name="Ntilde" unicode="&#xd1;" horiz-adv-x="720" 
d="M37 0l126 713h143l216 -458h2l80 458h143l-126 -713h-139l-217 465h-3l-81 -465h-144zM340 767q-56 11 -73 15q45 138 143 138q30 0 82.5 -16.5t82.5 -16.5q18 0 27.5 10.5t22.5 37.5l69 -16q-44 -138 -138 -138q-30 0 -84.5 16.5t-80.5 16.5q-15 0 -25.5 -9.5
t-25.5 -37.5z" />
    <glyph glyph-name="Ograve" unicode="&#xd2;" horiz-adv-x="688" 
d="M312 -12q-68 0 -123.5 19.5t-93.5 67t-38 117.5q0 28 4 49q5 25 12 65t15 87t11 65q21 120 118 193.5t220 73.5q107 0 181 -55.5t74 -158.5q0 -29 -5 -50q-22 -130 -36 -206q-22 -121 -118 -194t-221 -73zM336 117q61 0 106 35.5t56 95.5q5 29 19.5 110.5t18.5 109.5
q2 8 2 26q0 50 -35.5 76t-87.5 26q-62 0 -106.5 -35t-55.5 -95q-33 -186 -39 -219q-2 -18 -2 -26q0 -50 36 -77t88 -27zM398 778l-138 177h151l91 -177h-104z" />
    <glyph glyph-name="Oacute" unicode="&#xd3;" horiz-adv-x="688" 
d="M395 778l118 177h151l-165 -177h-104zM312 -12q-68 0 -123.5 19.5t-93.5 67t-38 117.5q0 28 4 49q5 25 12 65t15 87t11 65q21 120 118 193.5t220 73.5q107 0 181 -55.5t74 -158.5q0 -29 -5 -50q-22 -130 -36 -206q-22 -121 -118 -194t-221 -73zM336 117q61 0 106 35.5
t56 95.5q5 29 19.5 110.5t18.5 109.5q2 8 2 26q0 50 -35.5 76t-87.5 26q-62 0 -106.5 -35t-55.5 -95q-33 -186 -39 -219q-2 -18 -2 -26q0 -50 36 -77t88 -27z" />
    <glyph glyph-name="Ocircumflex" unicode="&#xd4;" horiz-adv-x="688" 
d="M280 779l139 180h118l73 -180h-110l-36 98l-72 -98h-112zM312 -12q-68 0 -123.5 19.5t-93.5 67t-38 117.5q0 28 4 49q5 25 12 65t15 87t11 65q21 120 118 193.5t220 73.5q107 0 181 -55.5t74 -158.5q0 -29 -5 -50q-22 -130 -36 -206q-22 -121 -118 -194t-221 -73z
M336 117q61 0 106 35.5t56 95.5q5 29 19.5 110.5t18.5 109.5q2 8 2 26q0 50 -35.5 76t-87.5 26q-62 0 -106.5 -35t-55.5 -95q-33 -186 -39 -219q-2 -18 -2 -26q0 -50 36 -77t88 -27z" />
    <glyph glyph-name="Otilde" unicode="&#xd5;" horiz-adv-x="688" 
d="M312 -12q-68 0 -123.5 19.5t-93.5 67t-38 117.5q0 28 4 49q5 25 12 65t15 87t11 65q21 120 118 193.5t220 73.5q107 0 181 -55.5t74 -158.5q0 -29 -5 -50q-22 -130 -36 -206q-22 -121 -118 -194t-221 -73zM336 117q61 0 106 35.5t56 95.5q5 29 19.5 110.5t18.5 109.5
q2 8 2 26q0 50 -35.5 76t-87.5 26q-62 0 -106.5 -35t-55.5 -95q-33 -186 -39 -219q-2 -18 -2 -26q0 -50 36 -77t88 -27zM307 767q-56 11 -73 15q45 138 143 138q30 0 82.5 -16.5t82.5 -16.5q18 0 27.5 10.5t22.5 37.5l69 -16q-44 -138 -138 -138q-30 0 -84.5 16.5
t-80.5 16.5q-15 0 -25.5 -9.5t-25.5 -37.5z" />
    <glyph glyph-name="Odieresis" unicode="&#xd6;" horiz-adv-x="688" 
d="M266 775l25 141h130l-25 -141h-130zM476 775l25 141h130l-25 -141h-130zM312 -12q-68 0 -123.5 19.5t-93.5 67t-38 117.5q0 28 4 49q5 25 12 65t15 87t11 65q21 120 118 193.5t220 73.5q107 0 181 -55.5t74 -158.5q0 -29 -5 -50q-22 -130 -36 -206q-22 -121 -118 -194
t-221 -73zM336 117q61 0 106 35.5t56 95.5q5 29 19.5 110.5t18.5 109.5q2 8 2 26q0 50 -35.5 76t-87.5 26q-62 0 -106.5 -35t-55.5 -95q-33 -186 -39 -219q-2 -18 -2 -26q0 -50 36 -77t88 -27z" />
    <glyph glyph-name="multiply" unicode="&#xd7;" 
d="M194 74l-76 93l102 86l-127 156l102 90l73 -90l172 150l77 -94l-100 -85l134 -152l-105 -91l-78 86z" />
    <glyph glyph-name="Oslash" unicode="&#xd8;" horiz-adv-x="688" 
d="M150 -62l-61 41l41 60q-73 55 -73 153q0 28 4 49q5 25 12 65t15 87t11 65q21 120 118 193.5t220 73.5q74 0 137 -29l43 64l60 -41l-43 -64q58 -58 58 -144q0 -29 -5 -50q-22 -130 -36 -206q-22 -121 -118 -194t-221 -73q-63 0 -117 18zM212 221q0 -27 10 -46l271 401
q-31 20 -78 20q-62 0 -106.5 -35t-55.5 -95q-33 -186 -39 -219q-2 -18 -2 -26zM336 117q61 0 106 35.5t56 95.5q5 29 19.5 110.5t18.5 109.5q2 8 2 26q0 11 -1 17l-260 -384q26 -10 59 -10z" />
    <glyph glyph-name="Ugrave" unicode="&#xd9;" horiz-adv-x="700" 
d="M316 -12q-108 0 -176.5 50t-68.5 153q0 25 5 58l82 464h153l-80 -450q-3 -20 -3 -39q0 -53 30 -79t83 -26q135 0 160 144l79 450h150q-76 -435 -80 -455q-22 -129 -113 -199.5t-221 -70.5zM404 778l-138 177h151l91 -177h-104z" />
    <glyph glyph-name="Uacute" unicode="&#xda;" horiz-adv-x="700" 
d="M410 778l118 177h151l-165 -177h-104zM316 -12q-108 0 -176.5 50t-68.5 153q0 25 5 58l82 464h153l-80 -450q-3 -20 -3 -39q0 -53 30 -79t83 -26q135 0 160 144l79 450h150q-76 -435 -80 -455q-22 -129 -113 -199.5t-221 -70.5z" />
    <glyph glyph-name="Ucircumflex" unicode="&#xdb;" horiz-adv-x="700" 
d="M288 779l139 180h118l73 -180h-110l-36 98l-72 -98h-112zM316 -12q-108 0 -176.5 50t-68.5 153q0 25 5 58l82 464h153l-80 -450q-3 -20 -3 -39q0 -53 30 -79t83 -26q135 0 160 144l79 450h150q-76 -435 -80 -455q-22 -129 -113 -199.5t-221 -70.5z" />
    <glyph glyph-name="Udieresis" unicode="&#xdc;" horiz-adv-x="700" 
d="M289 775l25 141h130l-25 -141h-130zM499 775l25 141h130l-25 -141h-130zM316 -12q-108 0 -176.5 50t-68.5 153q0 25 5 58l82 464h153l-80 -450q-3 -20 -3 -39q0 -53 30 -79t83 -26q135 0 160 144l79 450h150q-76 -435 -80 -455q-22 -129 -113 -199.5t-221 -70.5z" />
    <glyph glyph-name="Yacute" unicode="&#xdd;" horiz-adv-x="623" 
d="M201 0l50 284l-160 429h157l103 -293l202 293h160l-313 -431l-50 -282h-149zM358 779l118 177h151l-165 -177h-104z" />
    <glyph glyph-name="Thorn" unicode="&#xde;" horiz-adv-x="646" 
d="M37 0l125 713h153l-20 -114h147q96 0 153.5 -47t57.5 -133q0 -116 -82 -191.5t-207 -75.5h-148l-26 -152h-153zM237 269h121q63 0 102.5 34.5t39.5 95.5q0 42 -29.5 61.5t-76.5 19.5h-119z" />
    <glyph glyph-name="germandbls" unicode="&#xdf;" horiz-adv-x="667" 
d="M22 -200l107 610h-74l19 105h75q22 106 92.5 159t177.5 53q90 0 156 -41.5t66 -126.5q0 -62 -37 -111t-96 -69l-1 -7q54 -18 86.5 -61t32.5 -100q0 -97 -71 -160t-173 -63q-80 0 -124 19l22 114q50 -12 80 -12q53 0 87 26.5t34 76.5q0 47 -41.5 69t-93.5 22l18 100h26
q107 30 107 137q0 44 -28 63.5t-70 19.5q-96 0 -113 -112l-124 -699z" />
    <glyph glyph-name="agrave" unicode="&#xe0;" horiz-adv-x="583" 
d="M198 -12q-75 0 -120.5 39.5t-45.5 113.5q0 25 4 45q4 23 12.5 70.5t12.5 71.5q17 91 79 146t153 55q40 0 78.5 -15.5t55.5 -45.5h4l10 52h137l-92 -520h-137l11 59h-3q-28 -30 -73.5 -50.5t-85.5 -20.5zM263 102q46 0 78.5 26.5t39.5 70.5l22 127q2 12 2 17
q0 37 -27.5 56.5t-65.5 19.5q-44 0 -73 -26.5t-37 -70.5l-22 -126q-2 -12 -2 -19q0 -36 24 -55.5t61 -19.5zM291 593l-138 177h151l91 -177h-104z" />
    <glyph glyph-name="aacute" unicode="&#xe1;" horiz-adv-x="583" 
d="M198 -12q-75 0 -120.5 39.5t-45.5 113.5q0 25 4 45q4 23 12.5 70.5t12.5 71.5q17 91 79 146t153 55q40 0 78.5 -15.5t55.5 -45.5h4l10 52h137l-92 -520h-137l11 59h-3q-28 -30 -73.5 -50.5t-85.5 -20.5zM263 102q46 0 78.5 26.5t39.5 70.5l22 127q2 12 2 17
q0 37 -27.5 56.5t-65.5 19.5q-44 0 -73 -26.5t-37 -70.5l-22 -126q-2 -12 -2 -19q0 -36 24 -55.5t61 -19.5zM263 593l118 177h151l-165 -177h-104z" />
    <glyph glyph-name="acircumflex" unicode="&#xe2;" horiz-adv-x="583" 
d="M198 -12q-75 0 -120.5 39.5t-45.5 113.5q0 25 4 45q4 23 12.5 70.5t12.5 71.5q17 91 79 146t153 55q40 0 78.5 -15.5t55.5 -45.5h4l10 52h137l-92 -520h-137l11 59h-3q-28 -30 -73.5 -50.5t-85.5 -20.5zM263 102q46 0 78.5 26.5t39.5 70.5l22 127q2 12 2 17
q0 37 -27.5 56.5t-65.5 19.5q-44 0 -73 -26.5t-37 -70.5l-22 -126q-2 -12 -2 -19q0 -36 24 -55.5t61 -19.5zM147 594l139 180h118l73 -180h-110l-36 98l-72 -98h-112z" />
    <glyph glyph-name="atilde" unicode="&#xe3;" horiz-adv-x="583" 
d="M198 -12q-75 0 -120.5 39.5t-45.5 113.5q0 25 4 45q4 23 12.5 70.5t12.5 71.5q17 91 79 146t153 55q40 0 78.5 -15.5t55.5 -45.5h4l10 52h137l-92 -520h-137l11 59h-3q-28 -30 -73.5 -50.5t-85.5 -20.5zM263 102q46 0 78.5 26.5t39.5 70.5l22 127q2 12 2 17
q0 37 -27.5 56.5t-65.5 19.5q-44 0 -73 -26.5t-37 -70.5l-22 -126q-2 -12 -2 -19q0 -36 24 -55.5t61 -19.5zM210 582q-56 11 -73 15q45 138 143 138q30 0 82.5 -16.5t82.5 -16.5q18 0 27.5 10.5t22.5 37.5l69 -16q-44 -138 -138 -138q-30 0 -84.5 16.5t-80.5 16.5
q-15 0 -25.5 -9.5t-25.5 -37.5z" />
    <glyph glyph-name="adieresis" unicode="&#xe4;" horiz-adv-x="583" 
d="M198 -12q-75 0 -120.5 39.5t-45.5 113.5q0 25 4 45q4 23 12.5 70.5t12.5 71.5q17 91 79 146t153 55q40 0 78.5 -15.5t55.5 -45.5h4l10 52h137l-92 -520h-137l11 59h-3q-28 -30 -73.5 -50.5t-85.5 -20.5zM263 102q46 0 78.5 26.5t39.5 70.5l22 127q2 12 2 17
q0 37 -27.5 56.5t-65.5 19.5q-44 0 -73 -26.5t-37 -70.5l-22 -126q-2 -12 -2 -19q0 -36 24 -55.5t61 -19.5zM172 590l25 141h130l-25 -141h-130zM382 590l25 141h130l-25 -141h-130z" />
    <glyph glyph-name="aring" unicode="&#xe5;" horiz-adv-x="583" 
d="M198 -12q-75 0 -120.5 39.5t-45.5 113.5q0 25 4 45q4 23 12.5 70.5t12.5 71.5q17 91 79 146t153 55q40 0 78.5 -15.5t55.5 -45.5h4l10 52h137l-92 -520h-137l11 59h-3q-28 -30 -73.5 -50.5t-85.5 -20.5zM263 102q46 0 78.5 26.5t39.5 70.5l22 127q2 12 2 17
q0 37 -27.5 56.5t-65.5 19.5q-44 0 -73 -26.5t-37 -70.5l-22 -126q-2 -12 -2 -19q0 -36 24 -55.5t61 -19.5zM333 580q-41 0 -68 21t-27 58q0 50 40.5 87t90.5 37q42 0 69.5 -20t27.5 -59q0 -51 -41 -87.5t-92 -36.5zM342 633q23 0 41 17.5t18 40.5q0 38 -41 38
q-24 0 -40.5 -17t-16.5 -40q0 -17 11 -28t28 -11z" />
    <glyph glyph-name="ae" unicode="&#xe6;" horiz-adv-x="879" 
d="M168 -12q-64 0 -107 31t-43 93q0 91 74 143t168 52h116q8 53 8 65q0 54 -79 54q-38 0 -66.5 -16.5t-32.5 -52.5h-125q16 90 86 131t161 41q111 0 167 -52q76 52 169 52q83 0 137.5 -42t54.5 -122q0 -49 -20 -142h-325q-6 -30 -6 -44q0 -39 34 -59t77 -20q14 0 28.5 1.5
t29.5 4.5t26 6t26 8t22 7.5t21.5 8t16.5 6.5l35 -90q-41 -29 -106 -46.5t-133 -17.5q-65 0 -122.5 22.5t-82.5 68.5q-73 -91 -209 -91zM235 93q103 0 120 97l5 29h-101q-42 0 -70 -17.5t-28 -57.5q0 -51 74 -51zM527 311h189q5 32 5 38q0 34 -21.5 52t-55.5 18
q-94 0 -113 -83q-4 -24 -4 -25z" />
    <glyph glyph-name="ccedilla" unicode="&#xe7;" horiz-adv-x="525" 
d="M211 -221q-48 0 -100 18l13 67q52 -18 89 -18q59 0 59 36q0 21 -61 23l-32 1l32 85q-76 8 -127.5 50.5t-51.5 117.5q0 49 20 143q21 105 95 166t180 61q82 0 139 -40.5t57 -118.5q0 -12 -7 -54h-129q3 16 3 31q0 34 -22.5 52t-57.5 18q-90 0 -110 -97q-21 -93 -21 -141
q0 -38 29.5 -57.5t70.5 -19.5q62 0 151 39l35 -101q-88 -47 -192 -51l-10 -26q116 -2 116 -70q0 -49 -48 -81.5t-120 -32.5z" />
    <glyph glyph-name="egrave" unicode="&#xe8;" horiz-adv-x="551" 
d="M245 -12q-89 0 -151 42.5t-62 127.5q0 18 3 41.5t10 58t8 41.5q19 105 98.5 167.5t186.5 62.5q82 0 136.5 -42t54.5 -122q0 -25 -20 -142h-325q-6 -30 -6 -44q0 -40 29.5 -59.5t71.5 -19.5q65 0 166 41l35 -90q-86 -63 -235 -63zM200 311h189q5 33 5 38q0 34 -21.5 52
t-55.5 18q-88 0 -112 -84q-1 -3 -3 -12t-2 -12zM287 593l-138 177h151l91 -177h-104z" />
    <glyph glyph-name="eacute" unicode="&#xe9;" horiz-adv-x="551" 
d="M288 593l118 177h151l-165 -177h-104zM245 -12q-89 0 -151 42.5t-62 127.5q0 18 3 41.5t10 58t8 41.5q19 105 98.5 167.5t186.5 62.5q82 0 136.5 -42t54.5 -122q0 -25 -20 -142h-325q-6 -30 -6 -44q0 -40 29.5 -59.5t71.5 -19.5q65 0 166 41l35 -90q-86 -63 -235 -63z
M200 311h189q5 33 5 38q0 34 -21.5 52t-55.5 18q-88 0 -112 -84q-1 -3 -3 -12t-2 -12z" />
    <glyph glyph-name="ecircumflex" unicode="&#xea;" horiz-adv-x="551" 
d="M174 594l139 180h118l73 -180h-110l-36 98l-72 -98h-112zM245 -12q-89 0 -151 42.5t-62 127.5q0 18 3 41.5t10 58t8 41.5q19 105 98.5 167.5t186.5 62.5q82 0 136.5 -42t54.5 -122q0 -25 -20 -142h-325q-6 -30 -6 -44q0 -40 29.5 -59.5t71.5 -19.5q65 0 166 41l35 -90
q-86 -63 -235 -63zM200 311h189q5 33 5 38q0 34 -21.5 52t-55.5 18q-88 0 -112 -84q-1 -3 -3 -12t-2 -12z" />
    <glyph glyph-name="edieresis" unicode="&#xeb;" horiz-adv-x="551" 
d="M170 590l25 141h130l-25 -141h-130zM380 590l25 141h130l-25 -141h-130zM245 -12q-89 0 -151 42.5t-62 127.5q0 18 3 41.5t10 58t8 41.5q19 105 98.5 167.5t186.5 62.5q82 0 136.5 -42t54.5 -122q0 -25 -20 -142h-325q-6 -30 -6 -44q0 -40 29.5 -59.5t71.5 -19.5
q65 0 166 41l35 -90q-86 -63 -235 -63zM200 311h189q5 33 5 38q0 34 -21.5 52t-55.5 18q-88 0 -112 -84q-1 -3 -3 -12t-2 -12z" />
    <glyph glyph-name="igrave" unicode="&#xec;" horiz-adv-x="266" 
d="M25 0l91 519h140l-91 -519h-140zM137 593l-138 177h151l91 -177h-104z" />
    <glyph glyph-name="iacute" unicode="&#xed;" horiz-adv-x="266" 
d="M145 593l118 177h151l-165 -177h-104zM25 0l91 519h140l-91 -519h-140z" />
    <glyph glyph-name="icircumflex" unicode="&#xee;" horiz-adv-x="266" 
d="M29 594l139 180h118l73 -180h-110l-36 98l-72 -98h-112zM25 0l91 519h140l-91 -519h-140z" />
    <glyph glyph-name="idieresis" unicode="&#xef;" horiz-adv-x="266" 
d="M31 590l25 141h130l-25 -141h-130zM241 590l25 141h130l-25 -141h-130zM25 0l91 519h140l-91 -519h-140z" />
    <glyph glyph-name="eth" unicode="&#xf0;" horiz-adv-x="563" 
d="M240 -12q-89 0 -148.5 40t-59.5 125q0 24 4 44q1 6 9 53t10 53q16 91 83 149.5t153 63.5q21 0 30 1l-24 55l-119 -29l-28 79l113 27l-33 66l141 30l31 -62l97 24l28 -79l-89 -23l83 -183q16 -34 16 -75q0 -33 -6 -65q-3 -35 -14 -79q-17 -100 -96 -157.5t-181 -57.5z
M261 100q44 0 73.5 26t37.5 70l21 119q2 14 2 23q0 35 -22.5 53t-59.5 18q-45 0 -75 -26t-38 -71l-21 -117q-2 -18 -2 -25q0 -35 23 -52.5t61 -17.5z" />
    <glyph glyph-name="ntilde" unicode="&#xf1;" horiz-adv-x="586" 
d="M25 0l91 519h137l-11 -65h3q68 76 164 76q65 0 107.5 -37.5t42.5 -93.5q0 -21 -7 -56l-60 -343h-141l53 302q6 33 6 43q0 30 -19.5 49t-55.5 19q-51 0 -80 -33.5t-38 -87.5l-52 -292h-140zM228 582q-56 11 -73 15q45 138 143 138q30 0 82.5 -16.5t82.5 -16.5
q18 0 27.5 10.5t22.5 37.5l69 -16q-44 -138 -138 -138q-30 0 -84.5 16.5t-80.5 16.5q-15 0 -25.5 -9.5t-25.5 -37.5z" />
    <glyph glyph-name="ograve" unicode="&#xf2;" horiz-adv-x="563" 
d="M242 -12q-88 0 -149 41.5t-61 124.5q0 19 3 40l21 115q18 98 97 159t180 61q88 0 148.5 -45t60.5 -129q0 -15 -4 -43l-19 -107q-18 -97 -97 -157t-180 -60zM261 100q45 0 76 25.5t38 68.5l22 129q2 14 2 19q0 36 -24 55t-61 19q-44 0 -75.5 -26t-38.5 -70l-22 -128
q-2 -14 -2 -20q0 -36 24 -54t61 -18zM289 593l-138 177h151l91 -177h-104z" />
    <glyph glyph-name="oacute" unicode="&#xf3;" horiz-adv-x="563" 
d="M278 593l118 177h151l-165 -177h-104zM242 -12q-88 0 -149 41.5t-61 124.5q0 19 3 40l21 115q18 98 97 159t180 61q88 0 148.5 -45t60.5 -129q0 -15 -4 -43l-19 -107q-18 -97 -97 -157t-180 -60zM261 100q45 0 76 25.5t38 68.5l22 129q2 14 2 19q0 36 -24 55t-61 19
q-44 0 -75.5 -26t-38.5 -70l-22 -128q-2 -14 -2 -20q0 -36 24 -54t61 -18z" />
    <glyph glyph-name="ocircumflex" unicode="&#xf4;" horiz-adv-x="563" 
d="M183 594l139 180h118l73 -180h-110l-36 98l-72 -98h-112zM242 -12q-88 0 -149 41.5t-61 124.5q0 19 3 40l21 115q18 98 97 159t180 61q88 0 148.5 -45t60.5 -129q0 -15 -4 -43l-19 -107q-18 -97 -97 -157t-180 -60zM261 100q45 0 76 25.5t38 68.5l22 129q2 14 2 19
q0 36 -24 55t-61 19q-44 0 -75.5 -26t-38.5 -70l-22 -128q-2 -14 -2 -20q0 -36 24 -54t61 -18z" />
    <glyph glyph-name="otilde" unicode="&#xf5;" horiz-adv-x="563" 
d="M242 -12q-88 0 -149 41.5t-61 124.5q0 19 3 40l21 115q18 98 97 159t180 61q88 0 148.5 -45t60.5 -129q0 -15 -4 -43l-19 -107q-18 -97 -97 -157t-180 -60zM261 100q45 0 76 25.5t38 68.5l22 129q2 14 2 19q0 36 -24 55t-61 19q-44 0 -75.5 -26t-38.5 -70l-22 -128
q-2 -14 -2 -20q0 -36 24 -54t61 -18zM210 582q-56 11 -73 15q45 138 143 138q30 0 82.5 -16.5t82.5 -16.5q18 0 27.5 10.5t22.5 37.5l69 -16q-44 -138 -138 -138q-30 0 -84.5 16.5t-80.5 16.5q-15 0 -25.5 -9.5t-25.5 -37.5z" />
    <glyph glyph-name="odieresis" unicode="&#xf6;" horiz-adv-x="563" 
d="M177 590l25 141h130l-25 -141h-130zM387 590l25 141h130l-25 -141h-130zM242 -12q-88 0 -149 41.5t-61 124.5q0 19 3 40l21 115q18 98 97 159t180 61q88 0 148.5 -45t60.5 -129q0 -15 -4 -43l-19 -107q-18 -97 -97 -157t-180 -60zM261 100q45 0 76 25.5t38 68.5l22 129
q2 14 2 19q0 36 -24 55t-61 19q-44 0 -75.5 -26t-38.5 -70l-22 -128q-2 -14 -2 -20q0 -36 24 -54t61 -18z" />
    <glyph glyph-name="divide" unicode="&#xf7;" 
d="M201 52l23 134h137l-24 -134h-136zM53 272l16 90h507l-16 -90h-507zM268 442l23 136h137l-24 -136h-136z" />
    <glyph glyph-name="oslash" unicode="&#xf8;" horiz-adv-x="563" 
d="M143 -75l-57 29l33 59q-87 44 -87 141q0 19 3 40l21 115q18 98 97 159t180 61q34 0 69 -8l37 65l57 -29l-34 -60q80 -47 80 -142q0 -15 -4 -43l-19 -107q-18 -97 -97 -157t-180 -60q-31 0 -61 6zM176 172q0 -21 10 -39l156 280q-14 3 -28 3q-44 0 -75.5 -26t-38.5 -70
l-22 -128q-2 -14 -2 -20zM261 100q45 0 76 25.5t38 68.5l22 129q2 14 2 19q0 18 -6 31l-152 -272q7 -1 20 -1z" />
    <glyph glyph-name="ugrave" unicode="&#xf9;" horiz-adv-x="582" 
d="M193 -11q-68 0 -108 36.5t-40 103.5q0 23 5 48l60 342h140l-54 -302q0 -4 -1.5 -13t-2 -16.5t-0.5 -12.5q0 -68 75 -68q95 0 118 121l52 291h140l-92 -519h-136l11 65h-4q-68 -76 -163 -76zM299 593l-138 177h151l91 -177h-104z" />
    <glyph glyph-name="uacute" unicode="&#xfa;" horiz-adv-x="582" 
d="M313 593l118 177h151l-165 -177h-104zM193 -11q-68 0 -108 36.5t-40 103.5q0 23 5 48l60 342h140l-54 -302q0 -4 -1.5 -13t-2 -16.5t-0.5 -12.5q0 -68 75 -68q95 0 118 121l52 291h140l-92 -519h-136l11 65h-4q-68 -76 -163 -76z" />
    <glyph glyph-name="ucircumflex" unicode="&#xfb;" horiz-adv-x="582" 
d="M196 594l139 180h118l73 -180h-110l-36 98l-72 -98h-112zM193 -11q-68 0 -108 36.5t-40 103.5q0 23 5 48l60 342h140l-54 -302q0 -4 -1.5 -13t-2 -16.5t-0.5 -12.5q0 -68 75 -68q95 0 118 121l52 291h140l-92 -519h-136l11 65h-4q-68 -76 -163 -76z" />
    <glyph glyph-name="udieresis" unicode="&#xfc;" horiz-adv-x="582" 
d="M192 590l25 141h130l-25 -141h-130zM402 590l25 141h130l-25 -141h-130zM193 -11q-68 0 -108 36.5t-40 103.5q0 23 5 48l60 342h140l-54 -302q0 -4 -1.5 -13t-2 -16.5t-0.5 -12.5q0 -68 75 -68q95 0 118 121l52 291h140l-92 -519h-136l11 65h-4q-68 -76 -163 -76z" />
    <glyph glyph-name="yacute" unicode="&#xfd;" horiz-adv-x="538" 
d="M55 -195q-25 0 -70 8l22 115q33 -6 60 -6q21 0 40 12t28 29l23 47l-101 509h150l53 -349h3l168 349h146l-317 -589q-68 -125 -205 -125zM265 593l118 177h151l-165 -177h-104z" />
    <glyph glyph-name="thorn" unicode="&#xfe;" horiz-adv-x="586" 
d="M-11 -192l161 905h142l-46 -259h4q60 75 157 75q71 0 117.5 -38.5t46.5 -106.5q0 -19 -4 -39q-3 -16 -13 -75.5t-16 -91.5q-17 -88 -83.5 -138.5t-155.5 -50.5q-36 0 -70 15.5t-50 44.5h-5l-43 -241h-142zM291 97q91 0 108 98q22 116 23 132q2 14 2 20q0 34 -24 51.5
t-61 17.5q-47 0 -78.5 -27.5t-39.5 -73.5l-21 -126q-2 -6 -2 -19q0 -35 27.5 -54t65.5 -19z" />
    <glyph glyph-name="ydieresis" unicode="&#xff;" horiz-adv-x="538" 
d="M55 -195q-25 0 -70 8l22 115q33 -6 60 -6q21 0 40 12t28 29l23 47l-101 509h150l53 -349h3l168 349h146l-317 -589q-68 -125 -205 -125zM156 590l25 141h130l-25 -141h-130zM366 590l25 141h130l-25 -141h-130z" />
    <glyph glyph-name="Amacron" unicode="&#x100;" horiz-adv-x="692" 
d="M-16 0l385 713h153l129 -713h-154l-22 144h-265l-74 -144h-152zM270 267h187l-42 279h-4zM282 783l21 111h306l-21 -111h-306z" />
    <glyph glyph-name="amacron" unicode="&#x101;" horiz-adv-x="583" 
d="M198 -12q-75 0 -120.5 39.5t-45.5 113.5q0 25 4 45q4 23 12.5 70.5t12.5 71.5q17 91 79 146t153 55q40 0 78.5 -15.5t55.5 -45.5h4l10 52h137l-92 -520h-137l11 59h-3q-28 -30 -73.5 -50.5t-85.5 -20.5zM263 102q46 0 78.5 26.5t39.5 70.5l22 127q2 12 2 17
q0 37 -27.5 56.5t-65.5 19.5q-44 0 -73 -26.5t-37 -70.5l-22 -126q-2 -12 -2 -19q0 -36 24 -55.5t61 -19.5zM189 598l21 111h306l-21 -111h-306z" />
    <glyph glyph-name="Abreve" unicode="&#x102;" horiz-adv-x="692" 
d="M-16 0l385 713h153l129 -713h-154l-22 144h-265l-74 -144h-152zM270 267h187l-42 279h-4zM446 776q-73 0 -115.5 49t-30.5 128h94q-3 -85 73 -85q30 0 57 22.5t35 62.5h95q-16 -84 -77 -130.5t-131 -46.5z" />
    <glyph glyph-name="abreve" unicode="&#x103;" horiz-adv-x="583" 
d="M198 -12q-75 0 -120.5 39.5t-45.5 113.5q0 25 4 45q4 23 12.5 70.5t12.5 71.5q17 91 79 146t153 55q40 0 78.5 -15.5t55.5 -45.5h4l10 52h137l-92 -520h-137l11 59h-3q-28 -30 -73.5 -50.5t-85.5 -20.5zM263 102q46 0 78.5 26.5t39.5 70.5l22 127q2 12 2 17
q0 37 -27.5 56.5t-65.5 19.5q-44 0 -73 -26.5t-37 -70.5l-22 -126q-2 -12 -2 -19q0 -36 24 -55.5t61 -19.5zM334 591q-73 0 -115.5 49t-30.5 128h94q-3 -85 73 -85q30 0 57 22.5t35 62.5h95q-16 -84 -77 -130.5t-131 -46.5z" />
    <glyph glyph-name="Aogonek" unicode="&#x104;" horiz-adv-x="692" 
d="M541 -220q-51 0 -84.5 24.5t-33.5 68.5q0 78 74 127l-22 144h-265l-74 -144h-152l385 713h153l129 -713q-58 -9 -89.5 -35t-31.5 -56q0 -33 43 -33q29 0 67 20l38 -71q-64 -45 -137 -45zM270 267h187l-42 279h-4z" />
    <glyph glyph-name="aogonek" unicode="&#x105;" horiz-adv-x="583" 
d="M368 -220q-51 0 -84.5 24.5t-33.5 68.5q0 92 102 143l8 43h-3q-28 -30 -73.5 -50.5t-85.5 -20.5q-75 0 -120.5 39.5t-45.5 113.5q0 25 4 45q4 23 12.5 70.5t12.5 71.5q17 91 79 146t153 55q40 0 78.5 -15.5t55.5 -45.5h4l10 52h137l-92 -520h-8q-58 -9 -89.5 -35
t-31.5 -56q0 -33 43 -33q29 0 67 20l38 -71q-64 -45 -137 -45zM263 102q46 0 78.5 26.5t39.5 70.5l22 127q2 12 2 17q0 37 -27.5 56.5t-65.5 19.5q-44 0 -73 -26.5t-37 -70.5l-22 -126q-2 -12 -2 -19q0 -36 24 -55.5t61 -19.5z" />
    <glyph glyph-name="Cacute" unicode="&#x106;" horiz-adv-x="665" 
d="M391 778l118 177h151l-165 -177h-104zM311 -12q-68 0 -123.5 20t-93.5 67.5t-38 116.5q0 20 5 47q19 121 39 224q21 121 116 191.5t221 70.5q99 0 170 -48.5t71 -142.5q0 -33 -8 -70h-143q4 24 4 35q0 47 -33.5 72t-81.5 25q-62 0 -107 -34.5t-56 -94.5q-3 -18 -12 -66.5
t-16 -89.5t-11 -66q-2 -16 -2 -25q0 -50 36 -76.5t87 -26.5q58 0 99.5 32.5t52.5 88.5q0 1 1 5.5t1 5.5h143l-5 -27q-21 -111 -110 -172.5t-206 -61.5z" />
    <glyph glyph-name="cacute" unicode="&#x107;" horiz-adv-x="525" 
d="M275 593l118 177h151l-165 -177h-104zM251 -12q-42 0 -80 10t-69.5 30t-50.5 53.5t-19 77.5q0 49 20 143q21 105 95 166t180 61q82 0 139 -40.5t57 -118.5q0 -12 -7 -54h-129q3 16 3 31q0 34 -22.5 52t-57.5 18q-90 0 -110 -97q-21 -93 -21 -141q0 -38 29.5 -57.5
t70.5 -19.5q62 0 151 39l35 -101q-99 -52 -214 -52z" />
    <glyph glyph-name="Ccircumflex" unicode="&#x108;" horiz-adv-x="665" 
d="M279 779l139 180h118l73 -180h-110l-36 98l-72 -98h-112zM311 -12q-68 0 -123.5 20t-93.5 67.5t-38 116.5q0 20 5 47q19 121 39 224q21 121 116 191.5t221 70.5q99 0 170 -48.5t71 -142.5q0 -33 -8 -70h-143q4 24 4 35q0 47 -33.5 72t-81.5 25q-62 0 -107 -34.5
t-56 -94.5q-3 -18 -12 -66.5t-16 -89.5t-11 -66q-2 -16 -2 -25q0 -50 36 -76.5t87 -26.5q58 0 99.5 32.5t52.5 88.5q0 1 1 5.5t1 5.5h143l-5 -27q-21 -111 -110 -172.5t-206 -61.5z" />
    <glyph glyph-name="ccircumflex" unicode="&#x109;" horiz-adv-x="525" 
d="M166 594l139 180h118l73 -180h-110l-36 98l-72 -98h-112zM251 -12q-42 0 -80 10t-69.5 30t-50.5 53.5t-19 77.5q0 49 20 143q21 105 95 166t180 61q82 0 139 -40.5t57 -118.5q0 -12 -7 -54h-129q3 16 3 31q0 34 -22.5 52t-57.5 18q-90 0 -110 -97q-21 -93 -21 -141
q0 -38 29.5 -57.5t70.5 -19.5q62 0 151 39l35 -101q-99 -52 -214 -52z" />
    <glyph glyph-name="Cdotaccent" unicode="&#x10a;" horiz-adv-x="665" 
d="M311 -12q-68 0 -123.5 20t-93.5 67.5t-38 116.5q0 20 5 47q19 121 39 224q21 121 116 191.5t221 70.5q99 0 170 -48.5t71 -142.5q0 -33 -8 -70h-143q4 24 4 35q0 47 -33.5 72t-81.5 25q-62 0 -107 -34.5t-56 -94.5q-3 -18 -12 -66.5t-16 -89.5t-11 -66q-2 -16 -2 -25
q0 -50 36 -76.5t87 -26.5q58 0 99.5 32.5t52.5 88.5q0 1 1 5.5t1 5.5h143l-5 -27q-21 -111 -110 -172.5t-206 -61.5zM378 774l24 143h134l-25 -143h-133z" />
    <glyph glyph-name="cdotaccent" unicode="&#x10b;" horiz-adv-x="525" 
d="M251 -12q-42 0 -80 10t-69.5 30t-50.5 53.5t-19 77.5q0 49 20 143q21 105 95 166t180 61q82 0 139 -40.5t57 -118.5q0 -12 -7 -54h-129q3 16 3 31q0 34 -22.5 52t-57.5 18q-90 0 -110 -97q-21 -93 -21 -141q0 -38 29.5 -57.5t70.5 -19.5q62 0 151 39l35 -101
q-99 -52 -214 -52zM275 589l24 143h134l-25 -143h-133z" />
    <glyph glyph-name="Ccaron" unicode="&#x10c;" horiz-adv-x="665" 
d="M387 780l-70 180h111l35 -101l72 101h112l-139 -180h-121zM311 -12q-68 0 -123.5 20t-93.5 67.5t-38 116.5q0 20 5 47q19 121 39 224q21 121 116 191.5t221 70.5q99 0 170 -48.5t71 -142.5q0 -33 -8 -70h-143q4 24 4 35q0 47 -33.5 72t-81.5 25q-62 0 -107 -34.5
t-56 -94.5q-3 -18 -12 -66.5t-16 -89.5t-11 -66q-2 -16 -2 -25q0 -50 36 -76.5t87 -26.5q58 0 99.5 32.5t52.5 88.5q0 1 1 5.5t1 5.5h143l-5 -27q-21 -111 -110 -172.5t-206 -61.5z" />
    <glyph glyph-name="ccaron" unicode="&#x10d;" horiz-adv-x="525" 
d="M260 595l-70 180h111l35 -101l72 101h112l-139 -180h-121zM251 -12q-42 0 -80 10t-69.5 30t-50.5 53.5t-19 77.5q0 49 20 143q21 105 95 166t180 61q82 0 139 -40.5t57 -118.5q0 -12 -7 -54h-129q3 16 3 31q0 34 -22.5 52t-57.5 18q-90 0 -110 -97q-21 -93 -21 -141
q0 -38 29.5 -57.5t70.5 -19.5q62 0 151 39l35 -101q-99 -52 -214 -52z" />
    <glyph glyph-name="Dcaron" unicode="&#x10e;" horiz-adv-x="689" 
d="M363 780l-70 180h111l35 -101l72 101h112l-139 -180h-121zM37 0l126 713h286q103 0 173.5 -54.5t70.5 -155.5q0 -22 -5 -49q-15 -90 -37 -211q-21 -117 -111 -180t-215 -63h-288zM212 128h128q62 0 105.5 31.5t53.5 90.5q2 8 17 93t20 116q3 21 3 23q0 50 -36.5 76.5
t-87.5 26.5h-122z" />
    <glyph glyph-name="dcaron" unicode="&#x10f;" horiz-adv-x="586" 
d="M613 511l43 202h134l-74 -202h-103zM198 -12q-75 0 -120.5 39.5t-45.5 113.5q0 25 4 45q4 23 12.5 70.5t12.5 71.5q17 91 80 146t155 55q38 0 75.5 -16t54.5 -45h2l43 245h140l-125 -713h-137l11 59h-4q-27 -30 -72.5 -50.5t-85.5 -20.5zM263 102q46 0 78.5 26.5
t39.5 70.5l22 127q2 12 2 18q0 36 -25.5 55.5t-63.5 19.5q-44 0 -75 -26.5t-39 -70.5l-22 -126q-2 -12 -2 -19q0 -36 24 -55.5t61 -19.5z" />
    <glyph glyph-name="Dcroat" unicode="&#x110;" horiz-adv-x="702" 
d="M36 315l19 96h67l54 302h286q103 0 173.5 -54.5t70.5 -155.5q0 -22 -5 -49q-15 -90 -37 -211q-21 -117 -111 -180t-215 -63h-288l55 315h-69zM225 128h128q62 0 105.5 31.5t53.5 90.5q2 8 17 93t20 116q3 21 3 23q0 50 -36.5 76.5t-87.5 26.5h-122l-31 -174h147l-19 -96
h-145z" />
    <glyph glyph-name="dcroat" unicode="&#x111;" horiz-adv-x="586" 
d="M331 579l13 75h116l11 59h140l-11 -59h36l-13 -75h-36l-101 -579h-137l11 59h-4q-27 -30 -72.5 -50.5t-85.5 -20.5q-75 0 -120.5 39.5t-45.5 113.5q0 25 4 45q4 23 12.5 70.5t12.5 71.5q17 91 80 146t155 55q38 0 75.5 -16t54.5 -45h2l19 111h-116zM263 102
q46 0 78.5 26.5t39.5 70.5l22 127q2 12 2 18q0 36 -25.5 55.5t-63.5 19.5q-44 0 -75 -26.5t-39 -70.5l-22 -126q-2 -12 -2 -19q0 -36 24 -55.5t61 -19.5z" />
    <glyph glyph-name="Emacron" unicode="&#x112;" horiz-adv-x="632" 
d="M37 0l126 713h507l-22 -128h-355l-28 -159h306l-22 -128h-307l-30 -170h358l-23 -128h-510zM261 783l21 111h306l-21 -111h-306z" />
    <glyph glyph-name="emacron" unicode="&#x113;" horiz-adv-x="551" 
d="M245 -12q-89 0 -151 42.5t-62 127.5q0 18 3 41.5t10 58t8 41.5q19 105 98.5 167.5t186.5 62.5q82 0 136.5 -42t54.5 -122q0 -25 -20 -142h-325q-6 -30 -6 -44q0 -40 29.5 -59.5t71.5 -19.5q65 0 166 41l35 -90q-86 -63 -235 -63zM200 311h189q5 33 5 38q0 34 -21.5 52
t-55.5 18q-88 0 -112 -84q-1 -3 -3 -12t-2 -12zM191 598l21 111h306l-21 -111h-306z" />
    <glyph glyph-name="Ebreve" unicode="&#x114;" horiz-adv-x="632" 
d="M37 0l126 713h507l-22 -128h-355l-28 -159h306l-22 -128h-307l-30 -170h358l-23 -128h-510zM420 776q-73 0 -115.5 49t-30.5 128h94q-3 -85 73 -85q30 0 57 22.5t35 62.5h95q-16 -84 -77 -130.5t-131 -46.5z" />
    <glyph glyph-name="ebreve" unicode="&#x115;" horiz-adv-x="551" 
d="M245 -12q-89 0 -151 42.5t-62 127.5q0 18 3 41.5t10 58t8 41.5q19 105 98.5 167.5t186.5 62.5q82 0 136.5 -42t54.5 -122q0 -25 -20 -142h-325q-6 -30 -6 -44q0 -40 29.5 -59.5t71.5 -19.5q65 0 166 41l35 -90q-86 -63 -235 -63zM200 311h189q5 33 5 38q0 34 -21.5 52
t-55.5 18q-88 0 -112 -84q-1 -3 -3 -12t-2 -12zM343 591q-73 0 -115.5 49t-30.5 128h94q-3 -85 73 -85q30 0 57 22.5t35 62.5h95q-16 -84 -77 -130.5t-131 -46.5z" />
    <glyph glyph-name="Edotaccent" unicode="&#x116;" horiz-adv-x="632" 
d="M37 0l126 713h507l-22 -128h-355l-28 -159h306l-22 -128h-307l-30 -170h358l-23 -128h-510zM361 774l24 143h134l-25 -143h-133z" />
    <glyph glyph-name="edotaccent" unicode="&#x117;" horiz-adv-x="551" 
d="M245 -12q-89 0 -151 42.5t-62 127.5q0 18 3 41.5t10 58t8 41.5q19 105 98.5 167.5t186.5 62.5q82 0 136.5 -42t54.5 -122q0 -25 -20 -142h-325q-6 -30 -6 -44q0 -40 29.5 -59.5t71.5 -19.5q65 0 166 41l35 -90q-86 -63 -235 -63zM200 311h189q5 33 5 38q0 34 -21.5 52
t-55.5 18q-88 0 -112 -84q-1 -3 -3 -12t-2 -12zM284 589l24 143h134l-25 -143h-133z" />
    <glyph glyph-name="Eogonek" unicode="&#x118;" horiz-adv-x="632" 
d="M37 0l126 713h507l-22 -128h-355l-28 -159h306l-22 -128h-307l-30 -170h358l-23 -128q-58 -9 -89.5 -35t-31.5 -56q0 -33 43 -33q29 0 67 20l38 -71q-64 -45 -137 -45q-51 0 -84.5 24.5t-33.5 68.5q0 78 74 127h-356z" />
    <glyph glyph-name="eogonek" unicode="&#x119;" horiz-adv-x="551" 
d="M245 -12q-89 0 -151 42.5t-62 127.5q0 18 3 41.5t10 58t8 41.5q19 105 98.5 167.5t186.5 62.5q82 0 136.5 -42t54.5 -122q0 -25 -20 -142h-325q-6 -30 -6 -44q0 -40 29.5 -59.5t71.5 -19.5q65 0 166 41l35 -90q-23 -16 -47 -27h1q-45 -21 -65 -52.5t-20 -62.5
q0 -33 43 -33q28 0 62 18l36 -70q-62 -43 -135 -43q-50 0 -82 24t-32 67q0 69 60 119q-27 -3 -56 -3zM200 311h189q5 33 5 38q0 34 -21.5 52t-55.5 18q-88 0 -112 -84q-1 -3 -3 -12t-2 -12z" />
    <glyph glyph-name="Ecaron" unicode="&#x11a;" horiz-adv-x="632" 
d="M363 780l-70 180h111l35 -101l72 101h112l-139 -180h-121zM37 0l126 713h507l-22 -128h-355l-28 -159h306l-22 -128h-307l-30 -170h358l-23 -128h-510z" />
    <glyph glyph-name="ecaron" unicode="&#x11b;" horiz-adv-x="551" 
d="M276 595l-70 180h111l35 -101l72 101h112l-139 -180h-121zM245 -12q-89 0 -151 42.5t-62 127.5q0 18 3 41.5t10 58t8 41.5q19 105 98.5 167.5t186.5 62.5q82 0 136.5 -42t54.5 -122q0 -25 -20 -142h-325q-6 -30 -6 -44q0 -40 29.5 -59.5t71.5 -19.5q65 0 166 41l35 -90
q-86 -63 -235 -63zM200 311h189q5 33 5 38q0 34 -21.5 52t-55.5 18q-88 0 -112 -84q-1 -3 -3 -12t-2 -12z" />
    <glyph glyph-name="Gcircumflex" unicode="&#x11c;" horiz-adv-x="669" 
d="M281 779l139 180h118l73 -180h-110l-36 98l-72 -98h-112zM310 -12q-67 0 -123 20t-94 67.5t-38 116.5q0 22 5 47q6 37 19.5 112t19.5 112q22 121 116.5 191.5t220.5 70.5q62 0 114.5 -17t90 -60.5t37.5 -107.5q0 -23 -8 -65h-142q4 22 4 32q0 47 -34 69t-82 22
q-62 0 -107 -34.5t-56 -94.5q-16 -88 -40 -224q-2 -18 -2 -25q0 -50 35.5 -77t87.5 -27q61 0 101 31t51 89l3 18h-164l21 124h309l-27 -156q-13 -74 -62 -128.5t-115 -80t-141 -25.5z" />
    <glyph glyph-name="gcircumflex" unicode="&#x11d;" horiz-adv-x="584" 
d="M170 594l139 180h118l73 -180h-110l-36 98l-72 -98h-112zM197 -200q-124 0 -192 73l84 83q50 -45 131 -45q54 0 88.5 29.5t44.5 83.5q2 9 5 28.5t5 29.5h-4q-61 -67 -150 -67q-77 0 -122.5 37t-45.5 112q0 20 5 50q2 10 21 123q17 91 74 142t150 51q42 0 82 -17t57 -50h2
l10 56h136q-48 -274 -86 -486q-20 -113 -99 -173t-196 -60zM272 122q45 0 76.5 26t39.5 71q20 121 20 124q0 37 -25 55.5t-68 18.5q-92 0 -108 -97q-19 -108 -19 -123q0 -36 23.5 -55.5t60.5 -19.5z" />
    <glyph glyph-name="Gbreve" unicode="&#x11e;" horiz-adv-x="669" 
d="M310 -12q-67 0 -123 20t-94 67.5t-38 116.5q0 22 5 47q6 37 19.5 112t19.5 112q22 121 116.5 191.5t220.5 70.5q62 0 114.5 -17t90 -60.5t37.5 -107.5q0 -23 -8 -65h-142q4 22 4 32q0 47 -34 69t-82 22q-62 0 -107 -34.5t-56 -94.5q-16 -88 -40 -224q-2 -18 -2 -25
q0 -50 35.5 -77t87.5 -27q61 0 101 31t51 89l3 18h-164l21 124h309l-27 -156q-13 -74 -62 -128.5t-115 -80t-141 -25.5zM442 776q-73 0 -115.5 49t-30.5 128h94q-3 -85 73 -85q30 0 57 22.5t35 62.5h95q-16 -84 -77 -130.5t-131 -46.5z" />
    <glyph glyph-name="gbreve" unicode="&#x11f;" horiz-adv-x="584" 
d="M197 -200q-124 0 -192 73l84 83q50 -45 131 -45q54 0 88.5 29.5t44.5 83.5q2 9 5 28.5t5 29.5h-4q-61 -67 -150 -67q-77 0 -122.5 37t-45.5 112q0 20 5 50q2 10 21 123q17 91 74 142t150 51q42 0 82 -17t57 -50h2l10 56h136q-48 -274 -86 -486q-20 -113 -99 -173
t-196 -60zM272 122q45 0 76.5 26t39.5 71q20 121 20 124q0 37 -25 55.5t-68 18.5q-92 0 -108 -97q-19 -108 -19 -123q0 -36 23.5 -55.5t60.5 -19.5zM327 591q-73 0 -115.5 49t-30.5 128h94q-3 -85 73 -85q30 0 57 22.5t35 62.5h95q-16 -84 -77 -130.5t-131 -46.5z" />
    <glyph glyph-name="Gdotaccent" unicode="&#x120;" horiz-adv-x="669" 
d="M310 -12q-67 0 -123 20t-94 67.5t-38 116.5q0 22 5 47q6 37 19.5 112t19.5 112q22 121 116.5 191.5t220.5 70.5q62 0 114.5 -17t90 -60.5t37.5 -107.5q0 -23 -8 -65h-142q4 22 4 32q0 47 -34 69t-82 22q-62 0 -107 -34.5t-56 -94.5q-16 -88 -40 -224q-2 -18 -2 -25
q0 -50 35.5 -77t87.5 -27q61 0 101 31t51 89l3 18h-164l21 124h309l-27 -156q-13 -74 -62 -128.5t-115 -80t-141 -25.5zM376 774l24 143h134l-25 -143h-133z" />
    <glyph glyph-name="gdotaccent" unicode="&#x121;" horiz-adv-x="584" 
d="M197 -200q-124 0 -192 73l84 83q50 -45 131 -45q54 0 88.5 29.5t44.5 83.5q2 9 5 28.5t5 29.5h-4q-61 -67 -150 -67q-77 0 -122.5 37t-45.5 112q0 20 5 50q2 10 21 123q17 91 74 142t150 51q42 0 82 -17t57 -50h2l10 56h136q-48 -274 -86 -486q-20 -113 -99 -173
t-196 -60zM272 122q45 0 76.5 26t39.5 71q20 121 20 124q0 37 -25 55.5t-68 18.5q-92 0 -108 -97q-19 -108 -19 -123q0 -36 23.5 -55.5t60.5 -19.5zM267 589l24 143h134l-25 -143h-133z" />
    <glyph glyph-name="Gcommaaccent" unicode="&#x122;" horiz-adv-x="669" 
d="M216 -200l39 167h134l-70 -167h-103zM310 -12q-67 0 -123 20t-94 67.5t-38 116.5q0 22 5 47q6 37 19.5 112t19.5 112q22 121 116.5 191.5t220.5 70.5q62 0 114.5 -17t90 -60.5t37.5 -107.5q0 -23 -8 -65h-142q4 22 4 32q0 47 -34 69t-82 22q-62 0 -107 -34.5t-56 -94.5
q-16 -88 -40 -224q-2 -18 -2 -25q0 -50 35.5 -77t87.5 -27q61 0 101 31t51 89l3 18h-164l21 124h309l-27 -156q-13 -74 -62 -128.5t-115 -80t-141 -25.5z" />
    <glyph glyph-name="gcommaaccent" unicode="&#x123;" horiz-adv-x="584" 
d="M197 -200q-124 0 -192 73l84 83q50 -45 131 -45q54 0 88.5 29.5t44.5 83.5q2 9 5 28.5t5 29.5h-4q-61 -67 -150 -67q-77 0 -122.5 37t-45.5 112q0 20 5 50q2 10 21 123q17 91 74 142t150 51q42 0 82 -17t57 -50h2l10 56h136q-48 -274 -86 -486q-20 -113 -99 -173
t-196 -60zM272 122q45 0 76.5 26t39.5 71q20 121 20 124q0 37 -25 55.5t-68 18.5q-92 0 -108 -97q-19 -108 -19 -123q0 -36 23.5 -55.5t60.5 -19.5zM253 592l16 85l66 104h70l-37 -80h48l-21 -109h-142z" />
    <glyph glyph-name="Hcircumflex" unicode="&#x124;" horiz-adv-x="703" 
d="M281 779l139 180h118l73 -180h-110l-36 98l-72 -98h-112zM37 0l126 713h153l-51 -283h262l51 283h152l-126 -713h-152l52 296h-262l-52 -296h-153z" />
    <glyph glyph-name="hcircumflex" unicode="&#x125;" horiz-adv-x="586" 
d="M56 754l139 180h118l73 -180h-110l-36 98l-72 -98h-112zM25 0l125 713h141l-46 -260h3q73 77 161 77q65 0 107.5 -37.5t42.5 -93.5q0 -21 -7 -56l-60 -343h-141l53 302q6 24 6 43q0 30 -19.5 49t-55.5 19q-51 0 -80.5 -34t-37.5 -87l-52 -292h-140z" />
    <glyph glyph-name="Hbar" unicode="&#x126;" horiz-adv-x="703" 
d="M79 540l15 83h53l16 90h153l-16 -90h262l16 90h152l-16 -90h59l-15 -83h-59l-95 -540h-152l52 296h-262l-52 -296h-153l95 540h-53zM265 430h262l20 110h-262z" />
    <glyph glyph-name="hbar" unicode="&#x127;" horiz-adv-x="586" 
d="M84 579l14 75h41l11 59h141l-11 -59h110l-14 -75h-109l-22 -126h3q73 77 161 77q65 0 107.5 -37.5t42.5 -93.5q0 -21 -7 -56l-60 -343h-141l53 302q6 24 6 43q0 30 -19.5 49t-55.5 19q-51 0 -80.5 -34t-37.5 -87l-52 -292h-140l101 579h-42z" />
    <glyph glyph-name="Itilde" unicode="&#x128;" horiz-adv-x="289" 
d="M37 0l126 713h153l-126 -713h-153zM108 767q-56 11 -73 15q45 138 143 138q30 0 82.5 -16.5t82.5 -16.5q18 0 27.5 10.5t22.5 37.5l69 -16q-44 -138 -138 -138q-30 0 -84.5 16.5t-80.5 16.5q-15 0 -25.5 -9.5t-25.5 -37.5z" />
    <glyph glyph-name="itilde" unicode="&#x129;" horiz-adv-x="266" 
d="M25 0l91 519h140l-91 -519h-140zM55 582q-56 11 -73 15q45 138 143 138q30 0 82.5 -16.5t82.5 -16.5q18 0 27.5 10.5t22.5 37.5l69 -16q-44 -138 -138 -138q-30 0 -84.5 16.5t-80.5 16.5q-15 0 -25.5 -9.5t-25.5 -37.5z" />
    <glyph glyph-name="Imacron" unicode="&#x12a;" horiz-adv-x="289" 
d="M37 0l126 713h153l-126 -713h-153zM88 783l21 111h306l-21 -111h-306z" />
    <glyph glyph-name="imacron" unicode="&#x12b;" horiz-adv-x="266" 
d="M25 0l91 519h140l-91 -519h-140zM36 598l21 111h306l-21 -111h-306z" />
    <glyph glyph-name="Ibreve" unicode="&#x12c;" horiz-adv-x="289" 
d="M37 0l126 713h153l-126 -713h-153zM241 776q-73 0 -115.5 49t-30.5 128h94q-3 -85 73 -85q30 0 57 22.5t35 62.5h95q-16 -84 -77 -130.5t-131 -46.5z" />
    <glyph glyph-name="ibreve" unicode="&#x12d;" horiz-adv-x="266" 
d="M25 0l91 519h140l-91 -519h-140zM177 591q-73 0 -115.5 49t-30.5 128h94q-3 -85 73 -85q30 0 57 22.5t35 62.5h95q-16 -84 -77 -130.5t-131 -46.5z" />
    <glyph glyph-name="Iogonek" unicode="&#x12e;" horiz-adv-x="289" 
d="M37 0l126 713h153l-124 -700l19 -13q-55 -12 -82 -38t-27 -56q0 -34 43 -34q28 0 60 16l32 -71q-54 -37 -123 -37q-49 0 -82 25.5t-33 67.5q0 76 71 127h-33z" />
    <glyph glyph-name="iogonek" unicode="&#x12f;" horiz-adv-x="266" 
d="M25 0l91 519h140l-91 -519q-55 -12 -81.5 -38t-26.5 -56q0 -34 43 -34q28 0 60 16l32 -71q-54 -37 -123 -37q-49 0 -82 25.5t-33 67.5q0 76 71 127zM128 590l25 138h141l-26 -138h-140z" />
    <glyph glyph-name="Idotaccent" unicode="&#x130;" horiz-adv-x="289" 
d="M37 0l126 713h153l-126 -713h-153zM182 774l24 143h134l-25 -143h-133z" />
    <glyph glyph-name="dotlessi" unicode="&#x131;" horiz-adv-x="266" 
d="M25 0l91 519h140l-91 -519h-140z" />
    <glyph glyph-name="IJ" unicode="&#x132;" horiz-adv-x="874" 
d="M37 0l126 713h153l-126 -713h-153zM513 -11q-95 0 -156 44.5t-61 132.5q0 25 13 99h144q-9 -47 -9 -66q0 -80 95 -80q49 0 79 30.5t39 79.5l85 484h153l-89 -497q-19 -106 -100.5 -166.5t-192.5 -60.5z" />
    <glyph glyph-name="ij" unicode="&#x133;" horiz-adv-x="520" 
d="M25 0l91 519h140l-91 -519h-140zM128 590l25 138h141l-26 -138h-140zM221 -193q-23 0 -51 4l19 110q3 0 15 -0.5t16 -0.5q49 0 58 50l97 549h140l-98 -558q-13 -75 -64 -114.5t-132 -39.5zM387 590l26 138h140l-26 -138h-140z" />
    <glyph glyph-name="Jcircumflex" unicode="&#x134;" horiz-adv-x="597" 
d="M345 779l139 180h118l73 -180h-110l-36 98l-72 -98h-112zM244 -11q-95 0 -156 44.5t-61 132.5q0 25 13 99h144q-9 -47 -9 -66q0 -80 95 -80q49 0 79 30.5t39 79.5l85 484h153l-89 -497q-19 -106 -100.5 -166.5t-192.5 -60.5z" />
    <glyph glyph-name="jcircumflex" unicode="&#x135;" horiz-adv-x="280" 
d="M-19 -193q-23 0 -51 4l19 110q3 0 15 -0.5t16 -0.5q49 0 58 50l97 549h140l-98 -558q-13 -75 -64 -114.5t-132 -39.5zM44 594l139 180h118l73 -180h-110l-36 98l-72 -98h-112z" />
    <glyph glyph-name="Kcommaaccent" unicode="&#x136;" horiz-adv-x="691" 
d="M240 -200l39 167h134l-70 -167h-103zM37 0l126 713h153l-59 -329h3l325 329h172l-294 -289l191 -424h-167l-143 322l-116 -106l-38 -216h-153z" />
    <glyph glyph-name="kcommaaccent" unicode="&#x137;" horiz-adv-x="551" 
d="M170 -200l39 167h134l-70 -167h-103zM25 0l126 713h140l-72 -407l215 213h155l-209 -198l131 -321h-148l-94 232l-75 -71l-29 -161h-140z" />
    <glyph glyph-name="kgreenlandic" unicode="&#x138;" horiz-adv-x="551" 
d="M117 519h140l-38 -213l215 213h155l-209 -198l131 -321h-148l-94 232l-75 -71l-29 -161h-140z" />
    <glyph glyph-name="Lacute" unicode="&#x139;" horiz-adv-x="590" 
d="M199 778l118 177h151l-165 -177h-104zM37 0l126 713h153l-104 -585h343l-22 -128h-496z" />
    <glyph glyph-name="lacute" unicode="&#x13a;" horiz-adv-x="319" 
d="M178 761l118 177h151l-165 -177h-104zM163 -8q-56 0 -87 27t-31 74q0 22 4 42l102 578h141l-100 -561q0 -2 -0.5 -8t-0.5 -8q0 -27 33 -27q11 0 32 2t24 2l-19 -106q-53 -15 -98 -15z" />
    <glyph glyph-name="Lcommaaccent" unicode="&#x13b;" horiz-adv-x="590" 
d="M198 -200l39 167h134l-70 -167h-103zM37 0l126 713h153l-104 -585h343l-22 -128h-496z" />
    <glyph glyph-name="lcommaaccent" unicode="&#x13c;" horiz-adv-x="319" 
d="M47 -200l39 167h134l-70 -167h-103zM163 -8q-56 0 -87 27t-31 74q0 22 4 42l102 578h141l-100 -561q0 -2 -0.5 -8t-0.5 -8q0 -27 33 -27q11 0 32 2t24 2l-19 -106q-53 -15 -98 -15z" />
    <glyph glyph-name="Lcaron" unicode="&#x13d;" horiz-adv-x="590" 
d="M336 511l43 202h134l-74 -202h-103zM37 0l126 713h153l-104 -585h343l-22 -128h-496z" />
    <glyph glyph-name="lcaron" unicode="&#x13e;" horiz-adv-x="319" 
d="M294 511l43 202h134l-74 -202h-103zM163 -8q-56 0 -87 27t-31 74q0 22 4 42l102 578h141l-100 -561q0 -2 -0.5 -8t-0.5 -8q0 -27 33 -27q11 0 32 2t24 2l-19 -106q-53 -15 -98 -15z" />
    <glyph glyph-name="Ldot" unicode="&#x13f;" horiz-adv-x="590" 
d="M37 0l126 713h153l-104 -585h343l-22 -128h-496zM354 348l24 143h134l-25 -143h-133z" />
    <glyph glyph-name="ldot" unicode="&#x140;" horiz-adv-x="397" 
d="M163 -8q-56 0 -87 27t-31 74q0 22 4 42l102 578h141l-100 -561q0 -2 -0.5 -8t-0.5 -8q0 -27 33 -27q11 0 32 2t24 2l-19 -106q-53 -15 -98 -15zM273 327l24 143h134l-25 -143h-133z" />
    <glyph glyph-name="Lslash" unicode="&#x141;" horiz-adv-x="602" 
d="M28 212l19 112l65 38l62 351h153l-45 -251l108 63l-20 -111l-108 -64l-39 -222h343l-22 -128h-496l44 250z" />
    <glyph glyph-name="lslash" unicode="&#x142;" horiz-adv-x="326" 
d="M23 221l18 104l55 36l62 352h141l-44 -247l80 53l-18 -104l-81 -53l-37 -210q0 -2 -0.5 -8t-0.5 -8q0 -27 33 -27q11 0 32 2t24 2l-19 -106q-53 -15 -98 -15q-56 0 -87 27t-31 74q0 22 4 42l21 122z" />
    <glyph glyph-name="Nacute" unicode="&#x143;" horiz-adv-x="720" 
d="M408 778l118 177h151l-165 -177h-104zM37 0l126 713h143l216 -458h2l80 458h143l-126 -713h-139l-217 465h-3l-81 -465h-144z" />
    <glyph glyph-name="nacute" unicode="&#x144;" horiz-adv-x="586" 
d="M320 593l118 177h151l-165 -177h-104zM25 0l91 519h137l-11 -65h3q68 76 164 76q65 0 107.5 -37.5t42.5 -93.5q0 -21 -7 -56l-60 -343h-141l53 302q6 33 6 43q0 30 -19.5 49t-55.5 19q-51 0 -80 -33.5t-38 -87.5l-52 -292h-140z" />
    <glyph glyph-name="Ncommaaccent" unicode="&#x145;" horiz-adv-x="720" 
d="M239 -200l39 167h134l-70 -167h-103zM37 0l126 713h143l216 -458h2l80 458h143l-126 -713h-139l-217 465h-3l-81 -465h-144z" />
    <glyph glyph-name="ncommaaccent" unicode="&#x146;" horiz-adv-x="586" 
d="M150 -200l39 167h134l-70 -167h-103zM25 0l91 519h137l-11 -65h3q68 76 164 76q65 0 107.5 -37.5t42.5 -93.5q0 -21 -7 -56l-60 -343h-141l53 302q6 33 6 43q0 30 -19.5 49t-55.5 19q-51 0 -80 -33.5t-38 -87.5l-52 -292h-140z" />
    <glyph glyph-name="Ncaron" unicode="&#x147;" horiz-adv-x="720" 
d="M410 780l-70 180h111l35 -101l72 101h112l-139 -180h-121zM37 0l126 713h143l216 -458h2l80 458h143l-126 -713h-139l-217 465h-3l-81 -465h-144z" />
    <glyph glyph-name="ncaron" unicode="&#x148;" horiz-adv-x="586" 
d="M300 595l-70 180h111l35 -101l72 101h112l-139 -180h-121zM25 0l91 519h137l-11 -65h3q68 76 164 76q65 0 107.5 -37.5t42.5 -93.5q0 -21 -7 -56l-60 -343h-141l53 302q6 33 6 43q0 30 -19.5 49t-55.5 19q-51 0 -80 -33.5t-38 -87.5l-52 -292h-140z" />
    <glyph glyph-name="Eng" unicode="&#x14a;" horiz-adv-x="720" 
d="M418 -193q-23 0 -51 4l19 110q3 0 15 -0.5t16 -0.5q49 0 58 50l6 32l-216 463h-3l-81 -465h-144l126 713h143l216 -458h2l80 458h143l-133 -752q-13 -75 -64 -114.5t-132 -39.5z" />
    <glyph glyph-name="eng" unicode="&#x14b;" horiz-adv-x="586" 
d="M289 -193q-23 0 -51 4l19 110q3 0 15 -0.5t16 -0.5q49 0 58 50l58 332q6 33 6 43q0 30 -19.5 49t-55.5 19q-51 0 -80 -33.5t-38 -87.5l-52 -292h-140l91 519h137l-11 -65h3q68 76 164 76q65 0 107.5 -37.5t42.5 -93.5q0 -21 -7 -56l-67 -382q-13 -75 -64 -114.5
t-132 -39.5z" />
    <glyph glyph-name="Omacron" unicode="&#x14c;" horiz-adv-x="688" 
d="M290 783l21 111h306l-21 -111h-306zM312 -12q-68 0 -123.5 19.5t-93.5 67t-38 117.5q0 28 4 49q5 25 12 65t15 87t11 65q21 120 118 193.5t220 73.5q107 0 181 -55.5t74 -158.5q0 -29 -5 -50q-22 -130 -36 -206q-22 -121 -118 -194t-221 -73zM336 117q61 0 106 35.5
t56 95.5q5 29 19.5 110.5t18.5 109.5q2 8 2 26q0 50 -35.5 76t-87.5 26q-62 0 -106.5 -35t-55.5 -95q-33 -186 -39 -219q-2 -18 -2 -26q0 -50 36 -77t88 -27z" />
    <glyph glyph-name="omacron" unicode="&#x14d;" horiz-adv-x="563" 
d="M195 598l21 111h306l-21 -111h-306zM242 -12q-88 0 -149 41.5t-61 124.5q0 19 3 40l21 115q18 98 97 159t180 61q88 0 148.5 -45t60.5 -129q0 -15 -4 -43l-19 -107q-18 -97 -97 -157t-180 -60zM261 100q45 0 76 25.5t38 68.5l22 129q2 14 2 19q0 36 -24 55t-61 19
q-44 0 -75.5 -26t-38.5 -70l-22 -128q-2 -14 -2 -20q0 -36 24 -54t61 -18z" />
    <glyph glyph-name="Obreve" unicode="&#x14e;" horiz-adv-x="688" 
d="M312 -12q-68 0 -123.5 19.5t-93.5 67t-38 117.5q0 28 4 49q5 25 12 65t15 87t11 65q21 120 118 193.5t220 73.5q107 0 181 -55.5t74 -158.5q0 -29 -5 -50q-22 -130 -36 -206q-22 -121 -118 -194t-221 -73zM336 117q61 0 106 35.5t56 95.5q5 29 19.5 110.5t18.5 109.5
q2 8 2 26q0 50 -35.5 76t-87.5 26q-62 0 -106.5 -35t-55.5 -95q-33 -186 -39 -219q-2 -18 -2 -26q0 -50 36 -77t88 -27zM443 776q-73 0 -115.5 49t-30.5 128h94q-3 -85 73 -85q30 0 57 22.5t35 62.5h95q-16 -84 -77 -130.5t-131 -46.5z" />
    <glyph glyph-name="obreve" unicode="&#x14f;" horiz-adv-x="563" 
d="M242 -12q-88 0 -149 41.5t-61 124.5q0 19 3 40l21 115q18 98 97 159t180 61q88 0 148.5 -45t60.5 -129q0 -15 -4 -43l-19 -107q-18 -97 -97 -157t-180 -60zM261 100q45 0 76 25.5t38 68.5l22 129q2 14 2 19q0 36 -24 55t-61 19q-44 0 -75.5 -26t-38.5 -70l-22 -128
q-2 -14 -2 -20q0 -36 24 -54t61 -18zM343 591q-73 0 -115.5 49t-30.5 128h94q-3 -85 73 -85q30 0 57 22.5t35 62.5h95q-16 -84 -77 -130.5t-131 -46.5z" />
    <glyph glyph-name="Ohungarumlaut" unicode="&#x150;" horiz-adv-x="688" 
d="M275 778l73 164h140l-108 -164h-105zM471 778l74 164h139l-108 -164h-105zM312 -12q-68 0 -123.5 19.5t-93.5 67t-38 117.5q0 28 4 49q5 25 12 65t15 87t11 65q21 120 118 193.5t220 73.5q107 0 181 -55.5t74 -158.5q0 -29 -5 -50q-22 -130 -36 -206q-22 -121 -118 -194
t-221 -73zM336 117q61 0 106 35.5t56 95.5q5 29 19.5 110.5t18.5 109.5q2 8 2 26q0 50 -35.5 76t-87.5 26q-62 0 -106.5 -35t-55.5 -95q-33 -186 -39 -219q-2 -18 -2 -26q0 -50 36 -77t88 -27z" />
    <glyph glyph-name="ohungarumlaut" unicode="&#x151;" horiz-adv-x="563" 
d="M179 593l73 164h140l-108 -164h-105zM375 593l74 164h139l-108 -164h-105zM242 -12q-88 0 -149 41.5t-61 124.5q0 19 3 40l21 115q18 98 97 159t180 61q88 0 148.5 -45t60.5 -129q0 -15 -4 -43l-19 -107q-18 -97 -97 -157t-180 -60zM261 100q45 0 76 25.5t38 68.5l22 129
q2 14 2 19q0 36 -24 55t-61 19q-44 0 -75.5 -26t-38.5 -70l-22 -128q-2 -14 -2 -20q0 -36 24 -54t61 -18z" />
    <glyph glyph-name="OE" unicode="&#x152;" horiz-adv-x="1049" 
d="M299 -12q-105 0 -173.5 49t-68.5 150q0 18 4 54q8 43 22.5 124.5t16.5 92.5q21 120 111.5 193.5t213.5 73.5q91 0 152 -40l5 28h505l-23 -129h-354l-28 -158h306l-23 -128h-306l-30 -169h358l-23 -129h-508l4 27q-76 -39 -161 -39zM336 117q61 0 106 35.5t56 95.5
q5 29 19.5 110t19.5 110q2 16 2 24q0 50 -36 77t-87 27q-63 0 -107.5 -35t-54.5 -95q-6 -33 -39 -219q-3 -13 -3 -26q0 -50 36 -77t88 -27z" />
    <glyph glyph-name="oe" unicode="&#x153;" horiz-adv-x="893" 
d="M242 -12q-88 0 -149 41.5t-61 124.5q0 37 24 155q21 100 98.5 160t178.5 60q105 0 163 -61q78 61 183 61q82 0 137 -43t55 -123q0 -19 -3.5 -42t-10 -56.5t-7.5 -41.5h-325q-6 -30 -6 -44q0 -40 29.5 -59.5t71.5 -19.5q65 0 166 41l35 -90q-86 -63 -235 -63
q-109 0 -167 58q-78 -58 -177 -58zM261 100q47 0 77 26t38 72l21 125q2 7 2 19q0 36 -24 55t-61 19q-44 0 -75.5 -26t-38.5 -70l-22 -128q-2 -7 -2 -20q0 -36 24 -54t61 -18zM541 311h189q5 32 5 38q0 34 -21.5 52t-55.5 18q-48 0 -78.5 -28.5t-38.5 -79.5z" />
    <glyph glyph-name="Racute" unicode="&#x154;" horiz-adv-x="664" 
d="M343 778l118 177h151l-165 -177h-104zM37 0l126 713h280q97 0 162 -49.5t65 -151.5q0 -85 -50 -147.5t-131 -81.5l113 -283h-164l-95 260h-107l-46 -260h-153zM257 380h123q62 0 100.5 30t38.5 89q0 91 -103 91h-122z" />
    <glyph glyph-name="racute" unicode="&#x155;" horiz-adv-x="424" 
d="M232 593l118 177h151l-165 -177h-104zM25 0l91 519h137l-15 -87h5q29 40 81 68t98 28q24 0 44 -3l-22 -124q-27 4 -64 4q-65 0 -110.5 -35t-57.5 -102l-47 -268h-140z" />
    <glyph glyph-name="Rcommaaccent" unicode="&#x156;" horiz-adv-x="664" 
d="M202 -200l39 167h134l-70 -167h-103zM37 0l126 713h280q97 0 162 -49.5t65 -151.5q0 -85 -50 -147.5t-131 -81.5l113 -283h-164l-95 260h-107l-46 -260h-153zM257 380h123q62 0 100.5 30t38.5 89q0 91 -103 91h-122z" />
    <glyph glyph-name="rcommaaccent" unicode="&#x157;" horiz-adv-x="424" 
d="M-5 -200l39 167h134l-70 -167h-103zM25 0l91 519h137l-15 -87h5q29 40 81 68t98 28q24 0 44 -3l-22 -124q-27 4 -64 4q-65 0 -110.5 -35t-57.5 -102l-47 -268h-140z" />
    <glyph glyph-name="Rcaron" unicode="&#x158;" horiz-adv-x="664" 
d="M329 780l-70 180h111l35 -101l72 101h112l-139 -180h-121zM37 0l126 713h280q97 0 162 -49.5t65 -151.5q0 -85 -50 -147.5t-131 -81.5l113 -283h-164l-95 260h-107l-46 -260h-153zM257 380h123q62 0 100.5 30t38.5 89q0 91 -103 91h-122z" />
    <glyph glyph-name="rcaron" unicode="&#x159;" horiz-adv-x="424" 
d="M208 595l-70 180h111l35 -101l72 101h112l-139 -180h-121zM25 0l91 519h137l-15 -87h5q29 40 81 68t98 28q24 0 44 -3l-22 -124q-27 4 -64 4q-65 0 -110.5 -35t-57.5 -102l-47 -268h-140z" />
    <glyph glyph-name="Sacute" unicode="&#x15a;" horiz-adv-x="627" 
d="M325 778l118 177h151l-165 -177h-104zM301 -11q-209 0 -290 147l117 76q24 -48 74 -73.5t105 -25.5q30 0 56.5 6t48.5 24.5t22 47.5q0 36 -31 58.5t-91 45.5q-48 18 -74.5 30.5t-61.5 36.5t-51.5 57t-16.5 77q0 108 76 168.5t193 60.5q193 0 260 -134l-109 -66
q-22 36 -62.5 56.5t-84.5 20.5q-50 0 -86 -19t-36 -61q0 -16 8.5 -29.5t27.5 -25t35 -18.5t45.5 -18.5t43.5 -17.5q168 -70 168 -190q0 -79 -43 -133.5t-105.5 -77.5t-137.5 -23z" />
    <glyph glyph-name="sacute" unicode="&#x15b;" horiz-adv-x="509" 
d="M251 593l118 177h151l-165 -177h-104zM225 -11q-142 0 -216 77l78 88q63 -61 141 -61q100 0 100 56q0 6 -1.5 11t-5 9t-7 7.5t-10.5 7l-12 6t-14 5.5t-14.5 5t-16.5 5t-17 5q-29 10 -44 15.5t-39.5 18.5t-36.5 26.5t-22 35t-10 48.5q0 84 64 130t157 46q122 0 193 -62
l-74 -86q-23 19 -57.5 32.5t-66.5 13.5q-33 0 -61 -14t-28 -44q0 -20 35 -33q14 -5 52.5 -17t62.5 -22t53 -27t44 -42t15 -57q0 -66 -37.5 -108.5t-89.5 -58.5t-115 -16z" />
    <glyph glyph-name="Scircumflex" unicode="&#x15c;" horiz-adv-x="627" 
d="M220 779l139 180h118l73 -180h-110l-36 98l-72 -98h-112zM301 -11q-209 0 -290 147l117 76q24 -48 74 -73.5t105 -25.5q30 0 56.5 6t48.5 24.5t22 47.5q0 36 -31 58.5t-91 45.5q-48 18 -74.5 30.5t-61.5 36.5t-51.5 57t-16.5 77q0 108 76 168.5t193 60.5q193 0 260 -134
l-109 -66q-22 36 -62.5 56.5t-84.5 20.5q-50 0 -86 -19t-36 -61q0 -16 8.5 -29.5t27.5 -25t35 -18.5t45.5 -18.5t43.5 -17.5q168 -70 168 -190q0 -79 -43 -133.5t-105.5 -77.5t-137.5 -23z" />
    <glyph glyph-name="scircumflex" unicode="&#x15d;" horiz-adv-x="509" 
d="M155 594l139 180h118l73 -180h-110l-36 98l-72 -98h-112zM225 -11q-142 0 -216 77l78 88q63 -61 141 -61q100 0 100 56q0 6 -1.5 11t-5 9t-7 7.5t-10.5 7l-12 6t-14 5.5t-14.5 5t-16.5 5t-17 5q-29 10 -44 15.5t-39.5 18.5t-36.5 26.5t-22 35t-10 48.5q0 84 64 130
t157 46q122 0 193 -62l-74 -86q-23 19 -57.5 32.5t-66.5 13.5q-33 0 -61 -14t-28 -44q0 -20 35 -33q14 -5 52.5 -17t62.5 -22t53 -27t44 -42t15 -57q0 -66 -37.5 -108.5t-89.5 -58.5t-115 -16z" />
    <glyph glyph-name="Scedilla" unicode="&#x15e;" horiz-adv-x="627" 
d="M265 -221q-48 0 -100 18l13 67q52 -18 89 -18q59 0 59 36q0 21 -61 23l-32 1l32 84q-181 12 -254 146l117 76q24 -48 74 -73.5t105 -25.5q30 0 56.5 6t48.5 24.5t22 47.5q0 36 -31 58.5t-91 45.5q-48 18 -74.5 30.5t-61.5 36.5t-51.5 57t-16.5 77q0 108 76 168.5
t193 60.5q193 0 260 -134l-109 -66q-22 36 -62.5 56.5t-84.5 20.5q-50 0 -86 -19t-36 -61q0 -16 8.5 -29.5t27.5 -25t35 -18.5t45.5 -18.5t43.5 -17.5q168 -70 168 -190q0 -109 -75 -167.5t-185 -65.5l-10 -27q116 -2 116 -70q0 -49 -48 -81.5t-120 -32.5z" />
    <glyph glyph-name="scedilla" unicode="&#x15f;" horiz-adv-x="509" 
d="M191 -221q-48 0 -100 18l13 67q52 -18 89 -18q59 0 59 36q0 21 -61 23l-32 1l32 84q-119 10 -182 76l78 88q63 -61 141 -61q100 0 100 56q0 6 -1.5 11t-5 9t-7 7.5t-10.5 7l-12 6t-14 5.5t-14.5 5t-16.5 5t-17 5q-29 10 -44 15.5t-39.5 18.5t-36.5 26.5t-22 35t-10 48.5
q0 84 64 130t157 46q122 0 193 -62l-74 -86q-23 19 -57.5 32.5t-66.5 13.5q-33 0 -61 -14t-28 -44q0 -20 35 -33q14 -5 52.5 -17t62.5 -22t53 -27t44 -42t15 -57q0 -46 -18 -81t-49.5 -55.5t-67.5 -31.5t-79 -14l-10 -27q116 -2 116 -70q0 -49 -48 -81.5t-120 -32.5z" />
    <glyph glyph-name="Scaron" unicode="&#x160;" horiz-adv-x="627" 
d="M342 781l-70 180h111l35 -101l72 101h112l-139 -180h-121zM301 -11q-209 0 -290 147l117 76q24 -48 74 -73.5t105 -25.5q30 0 56.5 6t48.5 24.5t22 47.5q0 36 -31 58.5t-91 45.5q-48 18 -74.5 30.5t-61.5 36.5t-51.5 57t-16.5 77q0 108 76 168.5t193 60.5q193 0 260 -134
l-109 -66q-22 36 -62.5 56.5t-84.5 20.5q-50 0 -86 -19t-36 -61q0 -16 8.5 -29.5t27.5 -25t35 -18.5t45.5 -18.5t43.5 -17.5q168 -70 168 -190q0 -79 -43 -133.5t-105.5 -77.5t-137.5 -23z" />
    <glyph glyph-name="scaron" unicode="&#x161;" horiz-adv-x="518" 
d="M257 595l-70 180h111l35 -101l72 101h112l-139 -180h-121zM229 -11q-142 0 -216 77l78 88q63 -61 141 -61q100 0 100 56q0 6 -1.5 11t-5 9t-7 7.5t-10.5 7l-12 6t-14 5.5t-14.5 5t-16.5 5t-17 5q-29 10 -44 15.5t-39.5 18.5t-36.5 26.5t-22 35t-10 48.5q0 84 64 130
t157 46q122 0 193 -62l-74 -86q-23 19 -57.5 32.5t-66.5 13.5q-33 0 -61 -14t-28 -44q0 -20 35 -33q14 -5 52.5 -17t62.5 -22t53 -27t44 -42t15 -57q0 -66 -37.5 -108.5t-89.5 -58.5t-115 -16z" />
    <glyph glyph-name="Tcommaaccent" unicode="&#x162;" horiz-adv-x="614" 
d="M167 -200l39 167h134l-70 -167h-103zM198 0l103 587h-203l22 126h559l-22 -126h-204l-103 -587h-152z" />
    <glyph glyph-name="tcommaaccent" unicode="&#x163;" horiz-adv-x="352" 
d="M59 -200l39 167h134l-70 -167h-103zM180 -7q-56 0 -92.5 24t-36.5 78q0 15 3 32l50 282h-67l19 106h66l28 153h140l-27 -153h109l-18 -106h-110l-43 -247q-2 -10 -2 -14q0 -35 41 -35q28 0 63 5l-20 -114q-53 -11 -103 -11z" />
    <glyph glyph-name="Tcaron" unicode="&#x164;" horiz-adv-x="614" 
d="M343 780l-70 180h111l35 -101l72 101h112l-139 -180h-121zM198 0l103 587h-203l22 126h559l-22 -126h-204l-103 -587h-152z" />
    <glyph glyph-name="tcaron" unicode="&#x165;" horiz-adv-x="352" 
d="M301 551l33 162h134l-63 -162h-104zM180 -7q-56 0 -92.5 24t-36.5 78q0 15 3 32l50 282h-67l19 106h66l28 153h140l-27 -153h109l-18 -106h-110l-43 -247q-2 -10 -2 -14q0 -35 41 -35q28 0 63 5l-20 -114q-53 -11 -103 -11z" />
    <glyph glyph-name="Tbar" unicode="&#x166;" horiz-adv-x="614" 
d="M117 303l15 84h134l35 200h-203l22 126h559l-22 -126h-204l-35 -200h140l-15 -84h-140l-53 -303h-152l53 303h-134z" />
    <glyph glyph-name="tbar" unicode="&#x167;" horiz-adv-x="352" 
d="M24 247l14 75h50l16 87h-67l19 106h66l28 153h140l-27 -153h109l-18 -106h-110l-15 -87h67l-13 -75h-67l-15 -85q-2 -10 -2 -14q0 -35 41 -35q28 0 63 5l-20 -114q-53 -11 -103 -11q-56 0 -92.5 24t-36.5 78q0 15 3 32l21 120h-51z" />
    <glyph glyph-name="Utilde" unicode="&#x168;" horiz-adv-x="700" 
d="M316 -12q-108 0 -176.5 50t-68.5 153q0 25 5 58l82 464h153l-80 -450q-3 -20 -3 -39q0 -53 30 -79t83 -26q135 0 160 144l79 450h150q-76 -435 -80 -455q-22 -129 -113 -199.5t-221 -70.5zM328 767q-56 11 -73 15q45 138 143 138q30 0 82.5 -16.5t82.5 -16.5
q18 0 27.5 10.5t22.5 37.5l69 -16q-44 -138 -138 -138q-30 0 -84.5 16.5t-80.5 16.5q-15 0 -25.5 -9.5t-25.5 -37.5z" />
    <glyph glyph-name="utilde" unicode="&#x169;" horiz-adv-x="582" 
d="M193 -11q-68 0 -108 36.5t-40 103.5q0 23 5 48l60 342h140l-54 -302q0 -4 -1.5 -13t-2 -16.5t-0.5 -12.5q0 -68 75 -68q95 0 118 121l52 291h140l-92 -519h-136l11 65h-4q-68 -76 -163 -76zM232 582q-56 11 -73 15q45 138 143 138q30 0 82.5 -16.5t82.5 -16.5
q18 0 27.5 10.5t22.5 37.5l69 -16q-44 -138 -138 -138q-30 0 -84.5 16.5t-80.5 16.5q-15 0 -25.5 -9.5t-25.5 -37.5z" />
    <glyph glyph-name="Umacron" unicode="&#x16a;" horiz-adv-x="700" 
d="M316 -12q-108 0 -176.5 50t-68.5 153q0 25 5 58l82 464h153l-80 -450q-3 -20 -3 -39q0 -53 30 -79t83 -26q135 0 160 144l79 450h150q-76 -435 -80 -455q-22 -129 -113 -199.5t-221 -70.5zM300 783l21 111h306l-21 -111h-306z" />
    <glyph glyph-name="umacron" unicode="&#x16b;" horiz-adv-x="582" 
d="M193 -11q-68 0 -108 36.5t-40 103.5q0 23 5 48l60 342h140l-54 -302q0 -4 -1.5 -13t-2 -16.5t-0.5 -12.5q0 -68 75 -68q95 0 118 121l52 291h140l-92 -519h-136l11 65h-4q-68 -76 -163 -76zM191 598l21 111h306l-21 -111h-306z" />
    <glyph glyph-name="Ubreve" unicode="&#x16c;" horiz-adv-x="700" 
d="M316 -12q-108 0 -176.5 50t-68.5 153q0 25 5 58l82 464h153l-80 -450q-3 -20 -3 -39q0 -53 30 -79t83 -26q135 0 160 144l79 450h150q-76 -435 -80 -455q-22 -129 -113 -199.5t-221 -70.5zM453 776q-73 0 -115.5 49t-30.5 128h94q-3 -85 73 -85q30 0 57 22.5t35 62.5h95
q-16 -84 -77 -130.5t-131 -46.5z" />
    <glyph glyph-name="ubreve" unicode="&#x16d;" horiz-adv-x="582" 
d="M193 -11q-68 0 -108 36.5t-40 103.5q0 23 5 48l60 342h140l-54 -302q0 -4 -1.5 -13t-2 -16.5t-0.5 -12.5q0 -68 75 -68q95 0 118 121l52 291h140l-92 -519h-136l11 65h-4q-68 -76 -163 -76zM351 591q-73 0 -115.5 49t-30.5 128h94q-3 -85 73 -85q30 0 57 22.5t35 62.5h95
q-16 -84 -77 -130.5t-131 -46.5z" />
    <glyph glyph-name="Uring" unicode="&#x16e;" horiz-adv-x="700" 
d="M466 765q-41 0 -68 21t-27 58q0 50 40.5 87t90.5 37q42 0 69.5 -20t27.5 -59q0 -51 -41 -87.5t-92 -36.5zM475 818q23 0 41 17.5t18 40.5q0 38 -41 38q-24 0 -40.5 -17t-16.5 -40q0 -17 11 -28t28 -11zM316 -12q-108 0 -176.5 50t-68.5 153q0 25 5 58l82 464h153
l-80 -450q-3 -20 -3 -39q0 -53 30 -79t83 -26q135 0 160 144l79 450h150q-76 -435 -80 -455q-22 -129 -113 -199.5t-221 -70.5z" />
    <glyph glyph-name="uring" unicode="&#x16f;" horiz-adv-x="582" 
d="M358 580q-41 0 -68 21t-27 58q0 50 40.5 87t90.5 37q42 0 69.5 -20t27.5 -59q0 -51 -41 -87.5t-92 -36.5zM367 633q23 0 41 17.5t18 40.5q0 38 -41 38q-24 0 -40.5 -17t-16.5 -40q0 -17 11 -28t28 -11zM193 -11q-68 0 -108 36.5t-40 103.5q0 23 5 48l60 342h140l-54 -302
q0 -4 -1.5 -13t-2 -16.5t-0.5 -12.5q0 -68 75 -68q95 0 118 121l52 291h140l-92 -519h-136l11 65h-4q-68 -76 -163 -76z" />
    <glyph glyph-name="Uhungarumlaut" unicode="&#x170;" horiz-adv-x="700" 
d="M316 -12q-108 0 -176.5 50t-68.5 153q0 25 5 58l82 464h153l-80 -450q-3 -20 -3 -39q0 -53 30 -79t83 -26q135 0 160 144l79 450h150q-76 -435 -80 -455q-22 -129 -113 -199.5t-221 -70.5zM295 778l73 164h140l-108 -164h-105zM491 778l74 164h139l-108 -164h-105z" />
    <glyph glyph-name="uhungarumlaut" unicode="&#x171;" horiz-adv-x="582" 
d="M193 -11q-68 0 -108 36.5t-40 103.5q0 23 5 48l60 342h140l-54 -302q0 -4 -1.5 -13t-2 -16.5t-0.5 -12.5q0 -68 75 -68q95 0 118 121l52 291h140l-92 -519h-136l11 65h-4q-68 -76 -163 -76zM187 593l73 164h140l-108 -164h-105zM383 593l74 164h139l-108 -164h-105z" />
    <glyph glyph-name="Uogonek" unicode="&#x172;" horiz-adv-x="700" 
d="M357 -219q-50 0 -82 24t-32 67q0 68 57 117q-102 3 -165.5 53t-63.5 149q0 25 5 58l82 464h153l-80 -450q-3 -20 -3 -39q0 -53 30 -79t83 -26q135 0 160 144l79 450h150q-76 -435 -80 -455q-18 -101 -78.5 -167t-151.5 -90q-32 -15 -50 -41t-18 -51q0 -33 42 -33
q29 0 62 18l36 -70q-62 -43 -135 -43z" />
    <glyph glyph-name="uogonek" unicode="&#x173;" horiz-adv-x="582" 
d="M193 -11q-68 0 -108 36.5t-40 103.5q0 23 5 48l60 342h140l-54 -302q0 -4 -1.5 -13t-2 -16.5t-0.5 -12.5q0 -68 75 -68q95 0 118 121l52 291h140l-92 -519q-58 -9 -89.5 -35t-31.5 -56q0 -33 43 -33q29 0 67 20l38 -71q-64 -45 -137 -45q-51 0 -84.5 24.5t-33.5 68.5
q0 87 94 139l9 53h-4q-68 -76 -163 -76z" />
    <glyph glyph-name="Wcircumflex" unicode="&#x174;" horiz-adv-x="920" 
d="M386 779l139 180h118l73 -180h-110l-36 98l-72 -98h-112zM155 0l-55 713h151l23 -467h4l202 467h135l35 -469h4l189 469h148l-307 -713h-142l-37 476h-4l-206 -476h-140z" />
    <glyph glyph-name="wcircumflex" unicode="&#x175;" horiz-adv-x="796" 
d="M287 594l139 180h118l73 -180h-110l-36 98l-72 -98h-112zM120 0l-71 519h145l29 -336h4l154 336h126l34 -336h5l148 336h139l-254 -519h-132l-34 344h-4l-155 -344h-134z" />
    <glyph glyph-name="Ycircumflex" unicode="&#x176;" horiz-adv-x="623" 
d="M201 0l50 284l-160 429h157l103 -293l202 293h160l-313 -431l-50 -282h-149zM252 779l139 180h118l73 -180h-110l-36 98l-72 -98h-112z" />
    <glyph glyph-name="ycircumflex" unicode="&#x177;" horiz-adv-x="538" 
d="M55 -195q-25 0 -70 8l22 115q33 -6 60 -6q21 0 40 12t28 29l23 47l-101 509h150l53 -349h3l168 349h146l-317 -589q-68 -125 -205 -125zM172 594l139 180h118l73 -180h-110l-36 98l-72 -98h-112z" />
    <glyph glyph-name="Ydieresis" unicode="&#x178;" horiz-adv-x="623" 
d="M201 0l50 284l-160 429h157l103 -293l202 293h160l-313 -431l-50 -282h-149zM244 775l25 141h130l-25 -141h-130zM454 775l25 141h130l-25 -141h-130z" />
    <glyph glyph-name="Zacute" unicode="&#x179;" horiz-adv-x="612" 
d="M352 778l118 177h151l-165 -177h-104zM4 0l19 111l425 476h-322l23 126h516l-20 -112l-421 -473h340l-22 -128h-538z" />
    <glyph glyph-name="zacute" unicode="&#x17a;" horiz-adv-x="497" 
d="M247 593l118 177h151l-165 -177h-104zM-5 0l18 101l294 309h-232l19 109h416l-18 -102l-296 -305h250l-20 -112h-431z" />
    <glyph glyph-name="Zdotaccent" unicode="&#x17b;" horiz-adv-x="612" 
d="M4 0l19 111l425 476h-322l23 126h516l-20 -112l-421 -473h340l-22 -128h-538zM350 774l24 143h134l-25 -143h-133z" />
    <glyph glyph-name="zdotaccent" unicode="&#x17c;" horiz-adv-x="497" 
d="M-5 0l18 101l294 309h-232l19 109h416l-18 -102l-296 -305h250l-20 -112h-431zM244 589l24 143h134l-25 -143h-133z" />
    <glyph glyph-name="Zcaron" unicode="&#x17d;" horiz-adv-x="612" 
d="M348 781l-70 180h111l35 -101l72 101h112l-139 -180h-121zM4 0l19 111l425 476h-322l23 126h516l-20 -112l-421 -473h340l-22 -128h-538z" />
    <glyph glyph-name="zcaron" unicode="&#x17e;" horiz-adv-x="503" 
d="M254 595l-70 180h111l35 -101l72 101h112l-139 -180h-121zM-5 0l18 101l294 309h-232l19 109h416l-18 -102l-296 -305h250l-20 -112h-431z" />
    <glyph glyph-name="florin" unicode="&#x192;" horiz-adv-x="392" 
d="M25 -193q-32 0 -56 6l20 113q15 -5 32 -5q38 0 48 48l79 384h-86l22 102h86l25 122q17 75 66.5 112.5t122.5 37.5q45 0 73 -8l-24 -111q-22 3 -47 3q-41 0 -49 -38l-25 -118h96l-22 -102h-96l-81 -391q-32 -155 -184 -155z" />
    <glyph glyph-name="Aringacute" unicode="&#x1fa;" horiz-adv-x="692" 
d="M-16 0l385 713h153l129 -713h-154l-22 144h-265l-74 -144h-152zM270 267h187l-42 279h-4zM459 769q-45 0 -69.5 21.5t-24.5 56.5q0 56 54 98l168 132l57 -85l-86 -40q33 -20 33 -61q0 -51 -40 -86.5t-92 -35.5zM469 822q24 0 41 16.5t17 40.5q0 17 -10.5 27.5t-29.5 10.5
q-24 0 -40.5 -17t-16.5 -40q0 -17 11 -27.5t28 -10.5z" />
    <glyph glyph-name="aringacute" unicode="&#x1fb;" horiz-adv-x="583" 
d="M198 -12q-75 0 -120.5 39.5t-45.5 113.5q0 25 4 45q4 23 12.5 70.5t12.5 71.5q17 91 79 146t153 55q40 0 78.5 -15.5t55.5 -45.5h4l10 52h137l-92 -520h-137l11 59h-3q-28 -30 -73.5 -50.5t-85.5 -20.5zM263 102q46 0 78.5 26.5t39.5 70.5l22 127q2 12 2 17
q0 37 -27.5 56.5t-65.5 19.5q-44 0 -73 -26.5t-37 -70.5l-22 -126q-2 -12 -2 -19q0 -36 24 -55.5t61 -19.5zM331 584q-45 0 -69.5 21.5t-24.5 56.5q0 56 54 98l168 132l57 -85l-86 -40q33 -20 33 -61q0 -51 -40 -86.5t-92 -35.5zM341 637q24 0 41 16.5t17 40.5
q0 17 -10.5 27.5t-29.5 10.5q-24 0 -40.5 -17t-16.5 -40q0 -17 11 -27.5t28 -10.5z" />
    <glyph glyph-name="AEacute" unicode="&#x1fc;" horiz-adv-x="1019" 
d="M605 776l118 177h151l-165 -177h-104zM-19 0l494 713h583l-21 -121h-338l-30 -170h267l-22 -120h-267l-31 -180h338l-21 -122h-492l28 160h-220l-112 -160h-156zM323 276h167l58 329z" />
    <glyph glyph-name="aeacute" unicode="&#x1fd;" horiz-adv-x="879" 
d="M445 593l118 177h151l-165 -177h-104zM168 -12q-64 0 -107 31t-43 93q0 91 74 143t168 52h116q8 53 8 65q0 54 -79 54q-38 0 -66.5 -16.5t-32.5 -52.5h-125q16 90 86 131t161 41q111 0 167 -52q76 52 169 52q83 0 137.5 -42t54.5 -122q0 -49 -20 -142h-325q-6 -30 -6 -44
q0 -39 34 -59t77 -20q14 0 28.5 1.5t29.5 4.5t26 6t26 8t22 7.5t21.5 8t16.5 6.5l35 -90q-41 -29 -106 -46.5t-133 -17.5q-65 0 -122.5 22.5t-82.5 68.5q-73 -91 -209 -91zM235 93q103 0 120 97l5 29h-101q-42 0 -70 -17.5t-28 -57.5q0 -51 74 -51zM527 311h189q5 32 5 38
q0 34 -21.5 52t-55.5 18q-94 0 -113 -83q-4 -24 -4 -25z" />
    <glyph glyph-name="Oslashacute" unicode="&#x1fe;" horiz-adv-x="688" 
d="M119 -61l-57 41l53 71q-58 53 -58 141q0 28 4 49q5 25 12 65t15 87t11 65q21 120 118 193.5t220 73.5q85 0 151 -36l53 72l57 -41l-55 -74q49 -56 49 -135q0 -29 -5 -50q-22 -130 -36 -206q-22 -121 -118 -194t-221 -73q-79 0 -138 26zM212 221q0 -20 4 -33l284 383
q-34 25 -85 25q-62 0 -106.5 -35t-55.5 -95q-33 -186 -39 -219q-2 -18 -2 -26zM336 117q61 0 106 35.5t56 95.5q5 29 19.5 110.5t18.5 109.5q2 8 2 26q0 6 -1 9l-274 -370q31 -16 73 -16zM395 778l118 177h151l-165 -177h-104z" />
    <glyph glyph-name="oslashacute" unicode="&#x1ff;" horiz-adv-x="563" 
d="M123 -75l-56 29l41 66q-76 44 -76 134q0 19 3 40l21 115q18 98 97 159t180 61q46 0 84 -13l44 70l56 -29l-43 -68q68 -48 68 -134q0 -15 -4 -43l-19 -107q-18 -97 -97 -157t-180 -60q-39 0 -75 9zM278 593l118 177h151l-165 -177h-104zM176 172q0 -18 6 -32l169 270
q-18 6 -37 6q-44 0 -75.5 -26t-38.5 -70l-22 -128q-2 -14 -2 -20zM261 100q45 0 76 25.5t38 68.5l22 129q2 14 2 19q0 12 -3 21l-163 -261q9 -2 28 -2z" />
    <glyph glyph-name="Scommaaccent" unicode="&#x218;" horiz-adv-x="627" 
d="M191 -200l39 167h134l-70 -167h-103zM301 -11q-209 0 -290 147l117 76q24 -48 74 -73.5t105 -25.5q30 0 56.5 6t48.5 24.5t22 47.5q0 36 -31 58.5t-91 45.5q-48 18 -74.5 30.5t-61.5 36.5t-51.5 57t-16.5 77q0 108 76 168.5t193 60.5q193 0 260 -134l-109 -66
q-22 36 -62.5 56.5t-84.5 20.5q-50 0 -86 -19t-36 -61q0 -16 8.5 -29.5t27.5 -25t35 -18.5t45.5 -18.5t43.5 -17.5q168 -70 168 -190q0 -79 -43 -133.5t-105.5 -77.5t-137.5 -23z" />
    <glyph glyph-name="scommaaccent" unicode="&#x219;" horiz-adv-x="509" 
d="M133 -200l39 167h134l-70 -167h-103zM225 -11q-142 0 -216 77l78 88q63 -61 141 -61q100 0 100 56q0 6 -1.5 11t-5 9t-7 7.5t-10.5 7l-12 6t-14 5.5t-14.5 5t-16.5 5t-17 5q-29 10 -44 15.5t-39.5 18.5t-36.5 26.5t-22 35t-10 48.5q0 84 64 130t157 46q122 0 193 -62
l-74 -86q-23 19 -57.5 32.5t-66.5 13.5q-33 0 -61 -14t-28 -44q0 -20 35 -33q14 -5 52.5 -17t62.5 -22t53 -27t44 -42t15 -57q0 -66 -37.5 -108.5t-89.5 -58.5t-115 -16z" />
    <glyph glyph-name="uni021A" unicode="&#x21a;" horiz-adv-x="614" 
d="M167 -200l39 167h134l-70 -167h-103zM198 0l103 587h-203l22 126h559l-22 -126h-204l-103 -587h-152z" />
    <glyph glyph-name="uni021B" unicode="&#x21b;" horiz-adv-x="352" 
d="M59 -200l39 167h134l-70 -167h-103zM180 -7q-56 0 -92.5 24t-36.5 78q0 15 3 32l50 282h-67l19 106h66l28 153h140l-27 -153h109l-18 -106h-110l-43 -247q-2 -10 -2 -14q0 -35 41 -35q28 0 63 5l-20 -114q-53 -11 -103 -11z" />
    <glyph glyph-name="dotlessj" unicode="&#x237;" horiz-adv-x="280" 
d="M-19 -193q-23 0 -51 4l19 110q3 0 15 -0.5t16 -0.5q49 0 58 50l97 549h140l-98 -558q-13 -75 -64 -114.5t-132 -39.5z" />
    <glyph glyph-name="circumflex" unicode="&#x2c6;" horiz-adv-x="395" 
d="M101 594l139 180h118l73 -180h-110l-36 98l-72 -98h-112z" />
    <glyph glyph-name="caron" unicode="&#x2c7;" horiz-adv-x="395" 
d="M209 595l-70 180h111l35 -101l72 101h112l-139 -180h-121z" />
    <glyph glyph-name="breve" unicode="&#x2d8;" horiz-adv-x="417" 
d="M276 591q-73 0 -115.5 49t-30.5 128h94q-3 -85 73 -85q30 0 57 22.5t35 62.5h95q-16 -84 -77 -130.5t-131 -46.5z" />
    <glyph glyph-name="dotaccent" unicode="&#x2d9;" horiz-adv-x="256" 
d="M124 589l24 143h134l-25 -143h-133z" />
    <glyph glyph-name="ring" unicode="&#x2da;" horiz-adv-x="331" 
d="M195 580q-41 0 -68 21t-27 58q0 50 40.5 87t90.5 37q42 0 69.5 -20t27.5 -59q0 -51 -41 -87.5t-92 -36.5zM204 633q23 0 41 17.5t18 40.5q0 38 -41 38q-24 0 -40.5 -17t-16.5 -40q0 -17 11 -28t28 -11z" />
    <glyph glyph-name="ogonek" unicode="&#x2db;" horiz-adv-x="396" 
d="M172 -220q-51 0 -84.5 24.5t-33.5 68.5q0 62 48 106t123 63l57 -42q-58 -9 -89.5 -35t-31.5 -56q0 -33 43 -33q29 0 67 20l38 -71q-64 -45 -137 -45z" />
    <glyph glyph-name="tilde" unicode="&#x2dc;" horiz-adv-x="497" 
d="M184 582q-56 11 -73 15q45 138 143 138q30 0 82.5 -16.5t82.5 -16.5q18 0 27.5 10.5t22.5 37.5l69 -16q-44 -138 -138 -138q-30 0 -84.5 16.5t-80.5 16.5q-15 0 -25.5 -9.5t-25.5 -37.5z" />
    <glyph glyph-name="hungarumlaut" unicode="&#x2dd;" horiz-adv-x="472" 
d="M134 593l73 164h140l-108 -164h-105zM330 593l74 164h139l-108 -164h-105z" />
    <glyph glyph-name="pi" unicode="&#x3c0;" horiz-adv-x="646" 
d="M473 -7q-52 0 -79 25.5t-27 72.5q0 15 3 31l46 267h-129q-36 -174 -96 -389h-146q58 200 99 389h-94l42 131h570l-23 -131h-81l-39 -216q-2 -14 -2 -21q0 -33 36 -33q18 0 44 4l-20 -115q-49 -15 -104 -15z" />
    <glyph glyph-name="Wgrave" unicode="&#x1e80;" horiz-adv-x="920" 
d="M155 0l-55 713h151l23 -467h4l202 467h135l35 -469h4l189 469h148l-307 -713h-142l-37 476h-4l-206 -476h-140zM497 778l-138 177h151l91 -177h-104z" />
    <glyph glyph-name="wgrave" unicode="&#x1e81;" horiz-adv-x="796" 
d="M120 0l-71 519h145l29 -336h4l154 336h126l34 -336h5l148 336h139l-254 -519h-132l-34 344h-4l-155 -344h-134zM386 593l-138 177h151l91 -177h-104z" />
    <glyph glyph-name="Wacute" unicode="&#x1e82;" horiz-adv-x="920" 
d="M503 778l118 177h151l-165 -177h-104zM155 0l-55 713h151l23 -467h4l202 467h135l35 -469h4l189 469h148l-307 -713h-142l-37 476h-4l-206 -476h-140z" />
    <glyph glyph-name="wacute" unicode="&#x1e83;" horiz-adv-x="796" 
d="M405 593l118 177h151l-165 -177h-104zM120 0l-71 519h145l29 -336h4l154 336h126l34 -336h5l148 336h139l-254 -519h-132l-34 344h-4l-155 -344h-134z" />
    <glyph glyph-name="Wdieresis" unicode="&#x1e84;" horiz-adv-x="920" 
d="M379 775l25 141h130l-25 -141h-130zM589 775l25 141h130l-25 -141h-130zM155 0l-55 713h151l23 -467h4l202 467h135l35 -469h4l189 469h148l-307 -713h-142l-37 476h-4l-206 -476h-140z" />
    <glyph glyph-name="wdieresis" unicode="&#x1e85;" horiz-adv-x="796" 
d="M271 590l25 141h130l-25 -141h-130zM481 590l25 141h130l-25 -141h-130zM120 0l-71 519h145l29 -336h4l154 336h126l34 -336h5l148 336h139l-254 -519h-132l-34 344h-4l-155 -344h-134z" />
    <glyph glyph-name="Ygrave" unicode="&#x1ef2;" horiz-adv-x="623" 
d="M201 0l50 284l-160 429h157l103 -293l202 293h160l-313 -431l-50 -282h-149zM362 778l-138 177h151l91 -177h-104z" />
    <glyph glyph-name="ygrave" unicode="&#x1ef3;" horiz-adv-x="538" 
d="M55 -195q-25 0 -70 8l22 115q33 -6 60 -6q21 0 40 12t28 29l23 47l-101 509h150l53 -349h3l168 349h146l-317 -589q-68 -125 -205 -125zM278 593l-138 177h151l91 -177h-104z" />
    <glyph glyph-name="endash" unicode="&#x2013;" horiz-adv-x="512" 
d="M5 264l16 95h511l-16 -95h-511z" />
    <glyph glyph-name="emdash" unicode="&#x2014;" horiz-adv-x="840" 
d="M6 264l16 95h839l-16 -95h-839z" />
    <glyph glyph-name="quoteleft" unicode="&#x2018;" horiz-adv-x="282" 
d="M105 420l27 151l85 146h69l-58 -141h51l-28 -156h-146z" />
    <glyph glyph-name="quoteright" unicode="&#x2019;" horiz-adv-x="263" 
d="M105 420l57 140h-50l27 157h147l-27 -151l-85 -146h-69z" />
    <glyph glyph-name="quotesinglbase" unicode="&#x201a;" horiz-adv-x="276" 
d="M32 -138l57 141h-50l27 156h147l-27 -151l-85 -146h-69z" />
    <glyph glyph-name="quotedblleft" unicode="&#x201c;" horiz-adv-x="488" 
d="M108 420l27 151l85 146h69l-57 -141h50l-27 -156h-147zM314 420l27 151l85 146h69l-57 -141h50l-27 -156h-147z" />
    <glyph glyph-name="quotedblright" unicode="&#x201d;" horiz-adv-x="488" 
d="M116 420l58 140h-50l27 157h146l-26 -151l-85 -146h-70zM322 420l58 140h-50l27 157h146l-26 -151l-85 -146h-70z" />
    <glyph glyph-name="quotedblbase" unicode="&#x201e;" horiz-adv-x="488" 
d="M31 -138l58 141h-50l27 156h146l-26 -151l-85 -146h-70zM240 -138l58 141h-50l27 156h146l-26 -151l-85 -146h-70z" />
    <glyph glyph-name="dagger" unicode="&#x2020;" horiz-adv-x="579" 
d="M178 -151l106 596h-191l16 93h191l31 179h104l-32 -179h192l-16 -93h-192l-105 -596h-104z" />
    <glyph glyph-name="daggerdbl" unicode="&#x2021;" horiz-adv-x="579" 
d="M178 -151l33 188h-191l17 92h191l56 316h-191l16 93h191l31 179h104l-32 -179h192l-16 -93h-192l-56 -316h192l-17 -92h-191l-33 -188h-104z" />
    <glyph glyph-name="bullet" unicode="&#x2022;" horiz-adv-x="423" 
d="M223 225q-54 0 -87 35.5t-29 87.5q3 64 53 110.5t113 46.5q54 0 87 -35.5t29 -88.5q-3 -62 -53.5 -109t-112.5 -47z" />
    <glyph glyph-name="ellipsis" unicode="&#x2026;" horiz-adv-x="757" 
d="M54 0l29 160h146l-29 -160h-146zM285 0l29 160h146l-29 -160h-146zM516 0l29 160h146l-29 -160h-146z" />
    <glyph glyph-name="perthousand" unicode="&#x2030;" horiz-adv-x="1167" 
d="M585 -11q-55 0 -91.5 24.5t-36.5 75.5q0 7 2 25q11 48 26 145q11 63 58.5 94.5t110.5 31.5q56 0 93.5 -24.5t37.5 -76.5q0 -12 -3 -26q-1 -7 -13 -72.5t-13 -71.5q-11 -61 -60 -93t-111 -32zM940 -11q-54 0 -91.5 24.5t-37.5 75.5q0 9 2 25q15 97 26 145q11 62 57.5 94
t111.5 32q55 0 92.5 -24.5t37.5 -76.5q0 -12 -3 -26q-1 -6 -12.5 -71.5t-12.5 -72.5q-11 -59 -59.5 -92t-110.5 -33zM215 329q-54 0 -90.5 24.5t-36.5 74.5q0 9 2 25q1 7 12.5 73t12.5 72q12 63 59.5 95t110.5 32q55 0 92 -25.5t37 -76.5q0 -12 -3 -27q-1 -7 -12.5 -73
t-12.5 -70q-11 -60 -60.5 -92t-110.5 -32zM126 -11l527 732h86l-526 -732h-87zM229 404q26 0 42 14t20 35l27 150q0 1 0.5 5t0.5 5q0 39 -46 39q-51 0 -62 -49l-27 -150v-12q0 -37 45 -37zM598 64q54 0 63 51l26 149q1 3 1 10q0 38 -45 38q-54 0 -62 -48l-27 -151
q-1 -4 -1 -12q0 -37 45 -37zM952 64q25 0 41.5 13.5t20.5 37.5l27 149q1 3 1 10q0 38 -46 38q-53 0 -62 -48l-26 -151q-1 -4 -1 -12q0 -37 45 -37z" />
    <glyph glyph-name="guilsinglleft" unicode="&#x2039;" horiz-adv-x="341" 
d="M212 59l-176 205l250 207l54 -59l-147 -148l94 -150z" />
    <glyph glyph-name="guilsinglright" unicode="&#x203a;" horiz-adv-x="341" 
d="M76 59l-56 64l149 143l-96 148l77 57l176 -205z" />
    <glyph glyph-name="fraction" unicode="&#x2044;" horiz-adv-x="117" 
d="M-193 -2l472 716h88l-473 -716h-87z" />
    <glyph glyph-name="uni2070" unicode="&#x2070;" horiz-adv-x="383" 
d="M224 368q-55 0 -95 25.5t-40 76.5q0 16 2 24l28 160q12 64 63 95.5t115 31.5q56 0 95 -26t39 -78q0 -7 -2 -25l-28 -158q-10 -62 -63 -94t-114 -32zM239 451q22 0 36 13.5t17 31.5l28 158q1 3 1 12q0 32 -39 32q-21 0 -35.5 -12t-17.5 -30l-29 -160q-1 -4 -1 -11
q0 -15 10.5 -24.5t29.5 -9.5z" />
    <glyph glyph-name="uni2074" unicode="&#x2074;" horiz-adv-x="368" 
d="M235 380l16 84h-174l13 75l191 241h115l-198 -237h67l7 46l111 64l-19 -110h41l-14 -79h-41l-15 -84h-100z" />
    <glyph glyph-name="uni2075" unicode="&#x2075;" horiz-adv-x="364" 
d="M211 368q-58 0 -93 23t-35 62q0 20 6 41h101q-2 -12 -2 -18q0 -27 39 -27q45 0 53 50l4 25v4q1 4 1 6q0 14 -10 22.5t-27 8.5q-25 0 -47 -20l-91 11l49 218h249l-15 -87h-167l-16 -75q40 24 90 24q38 0 66 -20t28 -59q0 -5 -2 -19l-9 -48q-11 -58 -60.5 -90t-111.5 -32z
" />
    <glyph glyph-name="uni2076" unicode="&#x2076;" horiz-adv-x="377" 
d="M221 368q-57 0 -94.5 27t-37.5 75q0 7 2 19l29 170q10 57 61.5 89.5t116.5 32.5q58 0 91.5 -22.5t33.5 -64.5q0 -18 -5 -39h-102q2 7 2 16q0 30 -36 30q-45 0 -52 -42l-10 -59q41 30 94 30q43 0 67 -20t24 -53q0 -6 -2 -18l-9 -56q-10 -54 -59.5 -84.5t-113.5 -30.5z
M237 449q22 0 36.5 10.5t16.5 26.5q8 36 8 45q0 31 -39 31q-18 0 -33.5 -12t-20.5 -36q-6 -28 -6 -35q0 -30 38 -30z" />
    <glyph glyph-name="uni2077" unicode="&#x2077;" horiz-adv-x="359" 
d="M112 380q16 80 71.5 166.5t118.5 143.5h-177l16 88h293l-14 -76q-63 -53 -119.5 -136t-74.5 -186h-114z" />
    <glyph glyph-name="uni2078" unicode="&#x2078;" horiz-adv-x="377" 
d="M222 368q-134 0 -134 88q0 7 5 42q11 55 63 79q-31 14 -31 57q0 8 5 34q9 53 56 83t109 30q56 0 92 -23t36 -67q0 -84 -61 -114q16 -8 26.5 -25.5t10.5 -38.5q0 -7 -6 -37q-10 -50 -57.5 -79t-113.5 -29zM235 443q46 0 52 39l4 28q0 29 -39 29q-45 0 -51 -34
q-5 -31 -5 -33q0 -29 39 -29zM266 610q18 0 33 10t18 28q3 20 3 28q0 29 -39 29q-44 0 -50 -34q-2 -10 -3 -18t-1.5 -10t-0.5 -3q0 -30 40 -30z" />
    <glyph glyph-name="uni2079" unicode="&#x2079;" horiz-adv-x="377" 
d="M214 367q-58 0 -91.5 23.5t-33.5 64.5q0 13 6 39h102q-3 -15 -3 -19q0 -27 35 -27q45 0 54 42l10 60q-33 -32 -95 -32q-43 0 -67 20t-24 54q0 6 2 18l10 56q9 54 58.5 84.5t114.5 30.5q57 0 94.5 -27.5t37.5 -74.5q0 -6 -2 -20l-30 -169q-10 -57 -61.5 -90t-116.5 -33z
M252 587q17 0 34.5 12.5t21.5 36.5q5 27 5 32q0 15 -10 24.5t-28 9.5q-22 0 -36 -11t-16 -27q-9 -46 -9 -48q0 -29 38 -29z" />
    <glyph glyph-name="uni207D" unicode="&#x207d;" horiz-adv-x="212" 
d="M167 304q-51 73 -51 187q0 86 38.5 172.5t101.5 146.5h52q-55 -93 -80.5 -177t-25.5 -189q0 -76 17 -140h-52z" />
    <glyph glyph-name="uni207E" unicode="&#x207e;" horiz-adv-x="212" 
d="M94 304h-52q51 86 79 184.5t28 182.5q0 63 -19 139h53q52 -74 52 -181q0 -89 -40 -177.5t-101 -147.5z" />
    <glyph glyph-name="uni2080" unicode="&#x2080;" horiz-adv-x="383" 
d="M138 -145q-55 0 -95 25.5t-40 76.5q0 16 2 24l28 160q12 64 63 95.5t115 31.5q56 0 95 -26t39 -78q0 -7 -2 -25l-28 -158q-10 -62 -63 -94t-114 -32zM153 -62q22 0 36 13.5t17 31.5l28 158q1 3 1 12q0 32 -39 32q-21 0 -35.5 -12t-17.5 -30l-29 -160q-1 -4 -1 -11
q0 -15 10.5 -24.5t29.5 -9.5z" />
    <glyph glyph-name="uni2081" unicode="&#x2081;" horiz-adv-x="340" 
d="M8 -133l13 74h74l41 230l-73 -5l7 72l136 28h53l-58 -325h67l-13 -74h-247z" />
    <glyph glyph-name="uni2082" unicode="&#x2082;" horiz-adv-x="359" 
d="M4 -133l11 66l163 152q47 43 47 79q0 29 -34 29q-40 0 -47 -45l-2 -12h-99l3 21q9 56 55.5 86.5t111.5 30.5q58 0 88.5 -26t30.5 -69q0 -17 -3.5 -32.5t-13.5 -32t-16 -26.5t-23.5 -28t-22.5 -23t-27.5 -24.5t-24.5 -21.5l-43 -40h139l-14 -84h-279z" />
    <glyph glyph-name="uni2083" unicode="&#x2083;" horiz-adv-x="364" 
d="M128 -145q-126 0 -126 90q0 12 3 24l3 13h102l-2 -10q0 -1 -0.5 -4.5t-0.5 -5.5q0 -27 41 -27q20 0 35.5 16t15.5 41q0 34 -46 34h-32l13 72h31q58 0 58 55q0 16 -10 24.5t-25 8.5q-41 0 -47 -38l-1 -8h-101l2 14q8 51 53 82.5t111 31.5q60 0 92 -25t32 -67
q0 -39 -23 -68.5t-56 -39.5v-2q27 -8 43 -27.5t16 -46.5q0 -69 -57.5 -103t-123.5 -34z" />
    <glyph glyph-name="uni2084" unicode="&#x2084;" horiz-adv-x="368" 
d="M150 -133l16 84h-174l13 75l191 241h115l-198 -237h67l7 46l111 64l-19 -110h41l-14 -79h-41l-15 -84h-100z" />
    <glyph glyph-name="uni2085" unicode="&#x2085;" horiz-adv-x="364" 
d="M126 -145q-58 0 -93 23t-35 62q0 20 6 41h101q-2 -12 -2 -18q0 -27 39 -27q45 0 53 50l4 25l1 4v6q0 14 -10 22.5t-27 8.5q-25 0 -47 -20l-91 11l49 218h249l-15 -87h-167l-16 -75q40 24 90 24q38 0 66 -20t28 -59q0 -5 -2 -19l-9 -48q-11 -58 -60.5 -90t-111.5 -32z" />
    <glyph glyph-name="uni2086" unicode="&#x2086;" horiz-adv-x="377" 
d="M136 -145q-57 0 -94.5 27t-37.5 75q0 7 2 19l29 170q10 57 61.5 89.5t116.5 32.5q58 0 91.5 -22.5t33.5 -64.5q0 -18 -5 -39h-102q2 7 2 16q0 30 -36 30q-45 0 -52 -42l-10 -59q41 30 94 30q43 0 67 -20t24 -53q0 -6 -2 -18l-9 -56q-10 -54 -59.5 -84.5t-113.5 -30.5z
M152 -64q22 0 36.5 10.5t16.5 26.5q8 36 8 45q0 31 -39 31q-18 0 -33.5 -12t-20.5 -36q-6 -28 -6 -35q0 -30 38 -30z" />
    <glyph glyph-name="uni2087" unicode="&#x2087;" horiz-adv-x="359" 
d="M26 -133q16 80 71.5 166.5t118.5 143.5h-177l16 88h293l-14 -76q-63 -53 -119.5 -136t-74.5 -186h-114z" />
    <glyph glyph-name="uni2088" unicode="&#x2088;" horiz-adv-x="377" 
d="M136 -145q-134 0 -134 88q0 7 5 42q11 55 63 79q-31 14 -31 57q0 8 5 34q9 53 56 83t109 30q56 0 92 -23t36 -67q0 -84 -61 -114q16 -8 26.5 -25.5t10.5 -38.5q0 -7 -6 -37q-10 -50 -57.5 -79t-113.5 -29zM149 -70q46 0 52 39q1 9 3 20q1 7 1 8q0 29 -39 29
q-45 0 -51 -34q-5 -31 -5 -33q0 -29 39 -29zM180 97q18 0 33 10t18 28q3 20 3 28q0 29 -39 29q-44 0 -50 -34q-2 -10 -3 -18t-1.5 -10t-0.5 -3q0 -30 40 -30z" />
    <glyph glyph-name="uni2089" unicode="&#x2089;" horiz-adv-x="377" 
d="M128 -146q-58 0 -91.5 23.5t-33.5 64.5q0 14 6 39h102q-3 -15 -3 -19q0 -27 35 -27q45 0 54 42l10 60q-33 -32 -95 -32q-43 0 -67 20t-24 54q0 6 2 18l10 56q9 54 58.5 84.5t114.5 30.5q57 0 94.5 -27.5t37.5 -74.5q0 -6 -2 -20l-30 -169q-10 -57 -61.5 -90t-116.5 -33z
M166 74q17 0 34.5 12.5t21.5 36.5q5 28 5 32q0 15 -10 24.5t-28 9.5q-22 0 -36 -11t-16 -27q-9 -46 -9 -48q0 -29 38 -29z" />
    <glyph glyph-name="uni208D" unicode="&#x208d;" horiz-adv-x="212" 
d="M85 -209q-51 73 -51 187q0 86 38.5 172.5t101.5 146.5h52q-55 -93 -80.5 -177t-25.5 -189q0 -76 17 -140h-52z" />
    <glyph glyph-name="uni208E" unicode="&#x208e;" horiz-adv-x="212" 
d="M5 -209h-52q51 86 79 184.5t28 182.5q0 63 -19 139h53q52 -74 52 -181q0 -89 -40 -177.5t-101 -147.5z" />
    <glyph glyph-name="Euro" unicode="&#x20ac;" horiz-adv-x="734" 
d="M373 -12q-103 0 -168 48.5t-65 147.5q0 34 5 56h-96l14 80h95l13 74h-95l15 79h95q24 118 107.5 185t204.5 67q99 0 170.5 -48.5t71.5 -142.5q0 -18 -9 -70h-144q4 24 4 35q0 47 -33.5 72t-81.5 25q-57 0 -91.5 -32.5t-46.5 -90.5h182l-15 -79h-182l-12 -74h181l-14 -80
h-181q-3 -15 -3 -29q0 -47 27 -70.5t75 -23.5q60 0 103 36t50 96h144q-3 -22 -9 -41q-28 -107 -114.5 -163.5t-196.5 -56.5z" />
    <glyph glyph-name="trademark" unicode="&#x2122;" horiz-adv-x="672" 
d="M353 400l56 313h94l26 -143l76 143h94l-56 -313h-69l34 197l-75 -142h-50l-25 141l-35 -196h-70zM156 400l44 247h-82l12 66h239l-11 -66h-82l-43 -247h-77z" />
    <glyph glyph-name="Omega" unicode="&#x2126;" horiz-adv-x="699" 
d="M19 0l22 131l144 -4l2 9q-109 81 -109 217q0 30 6 66l2 12q23 134 118.5 214t234.5 80q124 0 191.5 -61t67.5 -166q0 -20 -6 -64l-2 -14q-19 -109 -78 -179.5t-125 -104.5l-2 -8l147 5l-22 -133h-266l22 126q7 6 28.5 24t30.5 27t26.5 30t27 41t20.5 52t18 71l17 95
q2 18 2 28q0 50 -34.5 75.5t-85.5 25.5q-59 0 -104 -32.5t-58 -104.5l-14 -79q-9 -42 -9 -83q0 -40 12 -73.5t24 -50t38 -46.5l-21 -126h-265z" />
    <glyph glyph-name="uni2153" unicode="&#x2153;" horiz-adv-x="881" 
d="M83 315l13 74h74l41 230l-73 -5l7 72l136 28h53l-58 -325h67l-13 -74h-247zM199 -2l472 716h88l-473 -716h-87zM655 -12q-126 0 -126 90q0 12 3 24l3 13h102l-2 -10q0 -1 -0.5 -4.5t-0.5 -5.5q0 -27 41 -27q20 0 35.5 16t15.5 41q0 34 -46 34h-32l13 72h31q58 0 58 55
q0 16 -10 24.5t-25 8.5q-41 0 -47 -38l-1 -8h-101l2 14q8 51 53 82.5t111 31.5q60 0 92 -25t32 -67q0 -39 -23 -68.5t-56 -39.5v-2q27 -8 43 -27.5t16 -46.5q0 -69 -57.5 -103t-123.5 -34z" />
    <glyph glyph-name="uni2154" unicode="&#x2154;" horiz-adv-x="881" 
d="M76 315l11 66l163 152q47 43 47 79q0 29 -34 29q-40 0 -47 -45l-2 -12h-99l3 21q9 56 55.5 86.5t111.5 30.5q58 0 88.5 -26t30.5 -69q0 -17 -3.5 -32.5t-13.5 -32t-16 -26.5t-23.5 -28t-22.5 -23t-27.5 -24.5t-24.5 -21.5l-43 -40h139l-14 -84h-279zM200 -2l472 716h88
l-473 -716h-87zM655 -12q-126 0 -126 90q0 12 3 24l3 13h102l-2 -10q0 -1 -0.5 -4.5t-0.5 -5.5q0 -27 41 -27q20 0 35.5 16t15.5 41q0 34 -46 34h-32l13 72h31q58 0 58 55q0 16 -10 24.5t-25 8.5q-41 0 -47 -38l-1 -8h-101l2 14q8 51 53 82.5t111 31.5q60 0 92 -25t32 -67
q0 -39 -23 -68.5t-56 -39.5v-2q27 -8 43 -27.5t16 -46.5q0 -69 -57.5 -103t-123.5 -34z" />
    <glyph glyph-name="uni2155" unicode="&#x2155;" horiz-adv-x="881" 
d="M83 315l13 74h74l41 230l-73 -5l7 72l136 28h53l-58 -325h67l-13 -74h-247zM660 -12q-58 0 -93 23t-35 62q0 20 6 41h101q-2 -12 -2 -18q0 -27 39 -27q45 0 53 50l4 25l1 4v6q0 14 -10 22.5t-27 8.5q-25 0 -47 -20l-91 11l49 218h249l-15 -87h-167l-16 -75q40 24 90 24
q38 0 66 -20t28 -59q0 -5 -2 -19l-9 -48q-11 -58 -60.5 -90t-111.5 -32zM197 -2l472 716h88l-473 -716h-87z" />
    <glyph glyph-name="uni2156" unicode="&#x2156;" horiz-adv-x="881" 
d="M76 315l11 66l163 152q47 43 47 79q0 29 -34 29q-40 0 -47 -45l-2 -12h-99l3 21q9 56 55.5 86.5t111.5 30.5q58 0 88.5 -26t30.5 -69q0 -17 -3.5 -32.5t-13.5 -32t-16 -26.5t-23.5 -28t-22.5 -23t-27.5 -24.5t-24.5 -21.5l-43 -40h139l-14 -84h-279zM660 -12
q-58 0 -93 23t-35 62q0 20 6 41h101q-2 -12 -2 -18q0 -27 39 -27q45 0 53 50l4 25l1 4v6q0 14 -10 22.5t-27 8.5q-25 0 -47 -20l-91 11l49 218h249l-15 -87h-167l-16 -75q40 24 90 24q38 0 66 -20t28 -59q0 -5 -2 -19l-9 -48q-11 -58 -60.5 -90t-111.5 -32zM198 -2l472 716
h88l-473 -716h-87z" />
    <glyph glyph-name="uni2157" unicode="&#x2157;" horiz-adv-x="881" 
d="M196 303q-126 0 -126 90q0 12 3 24l3 13h102l-2 -10q0 -1 -0.5 -4.5t-0.5 -5.5q0 -27 41 -27q20 0 35.5 16t15.5 41q0 34 -46 34h-32l13 72h31q58 0 58 55q0 16 -10 24.5t-25 8.5q-41 0 -47 -38l-1 -8h-101l2 14q8 51 53 82.5t111 31.5q60 0 92 -25t32 -67
q0 -39 -23 -68.5t-56 -39.5v-2q27 -8 43 -27.5t16 -46.5q0 -69 -57.5 -103t-123.5 -34zM196 -2l472 716h88l-473 -716h-87zM660 -12q-58 0 -93 23t-35 62q0 20 6 41h101q-2 -12 -2 -18q0 -27 39 -27q45 0 53 50l4 25l1 4v6q0 14 -10 22.5t-27 8.5q-25 0 -47 -20l-91 11
l49 218h249l-15 -87h-167l-16 -75q40 24 90 24q38 0 66 -20t28 -59q0 -5 -2 -19l-9 -48q-11 -58 -60.5 -90t-111.5 -32z" />
    <glyph glyph-name="uni2158" unicode="&#x2158;" horiz-adv-x="881" 
d="M225 315l16 84h-174l13 75l191 241h115l-198 -237h67l7 46l111 64l-19 -110h41l-14 -79h-41l-15 -84h-100zM660 -12q-58 0 -93 23t-35 62q0 20 6 41h101q-2 -12 -2 -18q0 -27 39 -27q45 0 53 50l4 25l1 4v6q0 14 -10 22.5t-27 8.5q-25 0 -47 -20l-91 11l49 218h249
l-15 -87h-167l-16 -75q40 24 90 24q38 0 66 -20t28 -59q0 -5 -2 -19l-9 -48q-11 -58 -60.5 -90t-111.5 -32zM196 -2l472 716h88l-473 -716h-87z" />
    <glyph glyph-name="uni2159" unicode="&#x2159;" horiz-adv-x="881" 
d="M101 315l13 74h74l41 230l-73 -5l7 72l136 28h53l-58 -325h67l-13 -74h-247zM659 -12q-57 0 -94.5 27t-37.5 75q0 7 2 19l29 170q10 57 61.5 89.5t116.5 32.5q58 0 91.5 -22.5t33.5 -64.5q0 -18 -5 -39h-102q2 7 2 16q0 30 -36 30q-45 0 -52 -42l-10 -59q41 30 94 30
q43 0 67 -20t24 -53q0 -6 -2 -18l-9 -56q-10 -54 -59.5 -84.5t-113.5 -30.5zM675 69q22 0 36.5 10.5t16.5 26.5q8 36 8 45q0 31 -39 31q-18 0 -33.5 -12t-20.5 -36q-6 -28 -6 -35q0 -30 38 -30zM202 -2l472 716h88l-473 -716h-87z" />
    <glyph glyph-name="uni215A" unicode="&#x215a;" horiz-adv-x="881" 
d="M659 -12q-57 0 -94.5 27t-37.5 75q0 7 2 19l29 170q10 57 61.5 89.5t116.5 32.5q58 0 91.5 -22.5t33.5 -64.5q0 -18 -5 -39h-102q2 7 2 16q0 30 -36 30q-45 0 -52 -42l-10 -59q41 30 94 30q43 0 67 -20t24 -53q0 -6 -2 -18l-9 -56q-10 -54 -59.5 -84.5t-113.5 -30.5z
M675 69q22 0 36.5 10.5t16.5 26.5q8 36 8 45q0 31 -39 31q-18 0 -33.5 -12t-20.5 -36q-6 -28 -6 -35q0 -30 38 -30zM219 303q-58 0 -93 23t-35 62q0 20 6 41h101q-2 -12 -2 -18q0 -27 39 -27q45 0 53 50l4 25v4q1 4 1 6q0 14 -10 22.5t-27 8.5q-25 0 -47 -20l-91 11l49 218
h249l-15 -87h-167l-16 -75q40 24 90 24q38 0 66 -20t28 -59q0 -5 -2 -19l-9 -48q-11 -58 -60.5 -90t-111.5 -32zM202 -2l472 716h88l-473 -716h-87z" />
    <glyph glyph-name="uni215B" unicode="&#x215b;" horiz-adv-x="881" 
d="M101 315l13 74h74l41 230l-73 -5l7 72l136 28h53l-58 -325h67l-13 -74h-247zM659 -12q-134 0 -134 88q0 7 5 42q11 55 63 79q-31 14 -31 57q0 8 5 34q9 53 56 83t109 30q56 0 92 -23t36 -67q0 -84 -61 -114q16 -8 26.5 -25.5t10.5 -38.5q0 -7 -6 -37q-10 -50 -57.5 -79
t-113.5 -29zM672 63q46 0 52 39l4 28q0 29 -39 29q-45 0 -51 -34q-5 -31 -5 -33q0 -29 39 -29zM703 230q18 0 33 10t18 28q3 20 3 28q0 29 -39 29q-44 0 -50 -34q-2 -10 -3 -18t-1.5 -10t-0.5 -3q0 -30 40 -30zM202 -2l472 716h88l-473 -716h-87z" />
    <glyph glyph-name="uni215C" unicode="&#x215c;" horiz-adv-x="881" 
d="M659 -12q-134 0 -134 88q0 7 5 42q11 55 63 79q-31 14 -31 57q0 8 5 34q9 53 56 83t109 30q56 0 92 -23t36 -67q0 -84 -61 -114q16 -8 26.5 -25.5t10.5 -38.5q0 -7 -6 -37q-10 -50 -57.5 -79t-113.5 -29zM672 63q46 0 52 39l4 28q0 29 -39 29q-45 0 -51 -34
q-5 -31 -5 -33q0 -29 39 -29zM703 230q18 0 33 10t18 28q3 20 3 28q0 29 -39 29q-44 0 -50 -34q-2 -10 -3 -18t-1.5 -10t-0.5 -3q0 -30 40 -30zM202 -2l472 716h88l-473 -716h-87zM214 303q-126 0 -126 90q0 12 3 24l3 13h102l-2 -10q0 -1 -0.5 -4.5t-0.5 -5.5q0 -27 41 -27
q20 0 35.5 16t15.5 41q0 34 -46 34h-32l13 72h31q58 0 58 55q0 16 -10 24.5t-25 8.5q-41 0 -47 -38l-1 -8h-101l2 14q8 51 53 82.5t111 31.5q60 0 92 -25t32 -67q0 -39 -23 -68.5t-56 -39.5v-2q27 -8 43 -27.5t16 -46.5q0 -69 -57.5 -103t-123.5 -34z" />
    <glyph glyph-name="uni215D" unicode="&#x215d;" horiz-adv-x="881" 
d="M659 -12q-134 0 -134 88q0 7 5 42q11 55 63 79q-31 14 -31 57q0 8 5 34q9 53 56 83t109 30q56 0 92 -23t36 -67q0 -84 -61 -114q16 -8 26.5 -25.5t10.5 -38.5q0 -7 -6 -37q-10 -50 -57.5 -79t-113.5 -29zM672 63q46 0 52 39l4 28q0 29 -39 29q-45 0 -51 -34
q-5 -31 -5 -33q0 -29 39 -29zM703 230q18 0 33 10t18 28q3 20 3 28q0 29 -39 29q-44 0 -50 -34q-2 -10 -3 -18t-1.5 -10t-0.5 -3q0 -30 40 -30zM219 303q-58 0 -93 23t-35 62q0 20 6 41h101q-2 -12 -2 -18q0 -27 39 -27q45 0 53 50l4 25v4q1 4 1 6q0 14 -10 22.5t-27 8.5
q-25 0 -47 -20l-91 11l49 218h249l-15 -87h-167l-16 -75q40 24 90 24q38 0 66 -20t28 -59q0 -5 -2 -19l-9 -48q-11 -58 -60.5 -90t-111.5 -32zM202 -2l472 716h88l-473 -716h-87z" />
    <glyph glyph-name="uni215E" unicode="&#x215e;" horiz-adv-x="881" 
d="M655 -12q-134 0 -134 88q0 7 5 42q11 55 63 79q-31 14 -31 57q0 8 5 34q9 53 56 83t109 30q56 0 92 -23t36 -67q0 -84 -61 -114q16 -8 26.5 -25.5t10.5 -38.5q0 -7 -6 -37q-10 -50 -57.5 -79t-113.5 -29zM668 63q46 0 52 39l4 28q0 29 -39 29q-45 0 -51 -34
q-5 -31 -5 -33q0 -29 39 -29zM699 230q18 0 33 10t18 28q3 20 3 28q0 29 -39 29q-44 0 -50 -34q-2 -10 -3 -18t-1.5 -10t-0.5 -3q0 -30 40 -30zM129 315q16 80 71.5 166.5t118.5 143.5h-177l16 88h293l-14 -76q-63 -53 -119.5 -136t-74.5 -186h-114zM175 -2l472 716h88
l-473 -716h-87z" />
    <glyph glyph-name="arrowleft" unicode="&#x2190;" horiz-adv-x="736" 
d="M294 95l-233 241v28l233 241l83 -78l-128 -122h421v-110h-421l125 -129z" />
    <glyph glyph-name="arrowup" unicode="&#x2191;" horiz-adv-x="736" 
d="M314 45v421l-126 -126l-73 80l241 234h27l242 -234l-76 -81l-124 127v-421h-111z" />
    <glyph glyph-name="arrowright" unicode="&#x2192;" horiz-adv-x="736" 
d="M441 95l-81 75l127 125h-421v110h421l-127 127l81 73l233 -241v-28z" />
    <glyph glyph-name="arrowdown" unicode="&#x2193;" horiz-adv-x="736" 
d="M356 45l-241 233l75 82l125 -127v421h110v-421l127 126l73 -81l-241 -233h-28z" />
    <glyph glyph-name="uni2196" unicode="&#x2196;" horiz-adv-x="736" 
d="M546 95l-298 298v-179l-109 5l5 336l20 19l336 6l4 -112l-178 3l298 -298z" />
    <glyph glyph-name="uni2197" unicode="&#x2197;" horiz-adv-x="736" 
d="M217 95l-78 78l298 298l-178 -3l4 112l336 -6l20 -19l5 -336l-109 -5v179z" />
    <glyph glyph-name="uni2198" unicode="&#x2198;" horiz-adv-x="736" 
d="M599 101l-336 -6l-4 111l178 -2l-298 297l78 79l298 -298v179l109 -6l-5 -335z" />
    <glyph glyph-name="uni2199" unicode="&#x2199;" horiz-adv-x="736" 
d="M500 95l-336 6l-20 19l-5 335l109 6v-179l298 298l78 -79l-298 -297l178 2z" />
    <glyph glyph-name="partialdiff" unicode="&#x2202;" horiz-adv-x="563" 
d="M240 -12q-89 0 -148 40t-59 125q0 18 22 150q16 89 83 148t155 65h29l-97 199l149 25l147 -318q17 -39 17 -76q0 -30 -21 -143q-18 -99 -95.5 -157t-181.5 -58zM261 99q44 0 74 26.5t38 70.5l20 119q2 14 2 23q0 35 -22 53.5t-59 18.5q-46 0 -76 -26.5t-38 -71.5
l-21 -118q-2 -8 -2 -24q0 -35 23.5 -53t60.5 -18z" />
    <glyph glyph-name="Delta" unicode="&#x2206;" horiz-adv-x="691" 
d="M-4 0l11 56l356 659h154l120 -658l-10 -57h-631zM190 116h283l-66 426h-4z" />
    <glyph glyph-name="product" unicode="&#x220f;" horiz-adv-x="779" 
d="M81 -133l129 710h-103l25 136h696l-24 -136h-102l-129 -710h-150l128 710h-191l-128 -710h-151z" />
    <glyph glyph-name="summation" unicode="&#x2211;" horiz-adv-x="609" 
d="M-13 -133l21 111l326 326l-219 298l20 111h521l-24 -129h-318l193 -261l-5 -33l-297 -294h322l-23 -129h-517z" />
    <glyph glyph-name="minus" unicode="&#x2212;" 
d="M53 272l16 90h496l-16 -90h-496z" />
    <glyph glyph-name="radical" unicode="&#x221a;" horiz-adv-x="577" 
d="M157 -35l-66 520h137l31 -345h2l295 573h125l-414 -748h-110z" />
    <glyph glyph-name="infinity" unicode="&#x221e;" horiz-adv-x="841" 
d="M222 156q-72 0 -113 39t-41 99q0 85 65.5 145t151.5 60q104 0 174 -98q108 91 201 91q73 0 114.5 -33t41.5 -93q0 -89 -66.5 -151t-156.5 -62q-103 0 -169 97q-115 -94 -202 -94zM232 241q57 -1 155 89q-46 83 -115 83q-45 0 -75.5 -28.5t-30.5 -68.5q0 -33 17.5 -54
t48.5 -21zM606 239q47 0 79.5 32t32.5 75q0 64 -70 64q-51 0 -152 -87q24 -41 48 -62.5t62 -21.5z" />
    <glyph glyph-name="integral" unicode="&#x222b;" horiz-adv-x="418" 
d="M11 -188q-51 0 -88 12l34 102q16 -4 41 -4q42 0 55 49l165 607q19 71 68 111.5t112 40.5q62 0 94 -12l-33 -102q-26 6 -51 6q-20 0 -35.5 -13t-21.5 -36l-163 -609q-19 -71 -66.5 -111.5t-110.5 -40.5z" />
    <glyph glyph-name="approxequal" unicode="&#x2248;" horiz-adv-x="571" 
d="M79 117l-68 14q45 134 141 134q28 0 147 -15.5t148 -15.5q7 0 12.5 2t9.5 4t8.5 7.5t6.5 8.5t7 11.5t7 11.5l67 -14q-45 -135 -136 -135q-28 0 -148.5 15.5t-149.5 15.5q-16 0 -25.5 -8.5t-26.5 -35.5zM123 360l-70 15q49 134 141 134q29 0 148.5 -15.5t147.5 -15.5
q7 0 12.5 2t9.5 4t8.5 7.5t6.5 8.5t7 11.5t7 11.5l67 -15q-45 -134 -136 -134q-29 0 -149.5 15.5t-148.5 15.5q-16 0 -25.5 -8.5t-25.5 -36.5z" />
    <glyph glyph-name="notequal" unicode="&#x2260;" 
d="M195 36l-72 28l60 98h-160l15 90h202l76 123h-256l15 90h298l70 114l74 -29l-53 -85h138l-15 -90h-181l-75 -123h234l-16 -90h-275z" />
    <glyph glyph-name="lessequal" unicode="&#x2264;" 
d="M-5 0l16 91h514l-15 -91h-515zM481 163l-403 209l12 72l476 209l27 -83l-374 -161l319 -163z" />
    <glyph glyph-name="greaterequal" unicode="&#x2265;" 
d="M-21 0l15 91h515l-16 -91h-514zM64 163l-27 83l375 163l-317 161l56 83l402 -209l-12 -72z" />
    <glyph glyph-name="blacksquare" unicode="&#x25a0;" horiz-adv-x="772" 
d="M46 0v714h680v-714h-680z" />
    <glyph glyph-name="whitesquare" unicode="&#x25a1;" horiz-adv-x="773" 
d="M47 0v713h679v-713h-679zM136 85h502v543h-502v-543z" />
    <glyph glyph-name="blacksmallsquare" unicode="&#x25aa;" horiz-adv-x="658" 
d="M52 0v553h554v-553h-554z" />
    <glyph glyph-name="triagup" unicode="&#x25b2;" horiz-adv-x="618" 
d="M73 145v9l224 415h9l239 -415v-9h-472z" />
    <glyph glyph-name="triagrt" unicode="&#x25ba;" horiz-adv-x="618" 
d="M97 120v472h9l415 -224v-9l-415 -239h-9z" />
    <glyph glyph-name="triagdn" unicode="&#x25bc;" horiz-adv-x="618" 
d="M312 145l-239 414v10h472v-10l-224 -414h-9z" />
    <glyph glyph-name="triaglf" unicode="&#x25c4;" horiz-adv-x="618" 
d="M511 120l-414 239v9l414 224h10v-472h-10z" />
    <glyph glyph-name="lozenge" unicode="&#x25ca;" horiz-adv-x="581" 
d="M213 0l-160 339l3 14l283 362h93l155 -362l-3 -14l-278 -339h-93zM282 106l189 235l-107 261l-194 -251z" />
    <glyph glyph-name="uni25E2" unicode="&#x25e2;" horiz-adv-x="618" 
d="M540 71l-459 101l-3 8l335 347l8 -1l127 -449z" />
    <glyph glyph-name="uni25E3" unicode="&#x25e3;" horiz-adv-x="618" 
d="M85 71l-7 6l127 449l7 1l336 -347l-3 -8z" />
    <glyph glyph-name="uni25E4" unicode="&#x25e4;" horiz-adv-x="618" 
d="M205 71l-127 449l7 7l460 -101l3 -9l-336 -346h-7z" />
    <glyph glyph-name="uni25E5" unicode="&#x25e5;" horiz-adv-x="618" 
d="M413 71l-335 346l3 9l459 101l8 -7l-127 -449h-8z" />
    <glyph glyph-name="I.alt" unicode="&#xe131;" horiz-adv-x="529" 
d="M17 0l21 116h136l87 481h-136l21 116h427l-21 -116h-137l-87 -481h137l-21 -116h-427z" />
    <glyph glyph-name="I.alt" unicode="&#xe488;" horiz-adv-x="529" 
d="M17 0l21 116h136l87 481h-136l21 116h427l-21 -116h-137l-87 -481h137l-21 -116h-427z" />
    <glyph glyph-name="Igrave.alt" unicode="&#xe132;" horiz-adv-x="529" 
d="M17 0l21 116h136l87 481h-136l21 116h427l-21 -116h-137l-87 -481h137l-21 -116h-427zM321 778l-138 177h151l91 -177h-104z" />
    <glyph glyph-name="Iacute.alt" unicode="&#xe133;" horiz-adv-x="529" 
d="M17 0l21 116h136l87 481h-136l21 116h427l-21 -116h-137l-87 -481h137l-21 -116h-427zM311 778l118 177h151l-165 -177h-104z" />
    <glyph glyph-name="Icircumflex.alt" unicode="&#xe134;" horiz-adv-x="529" 
d="M17 0l21 116h136l87 481h-136l21 116h427l-21 -116h-137l-87 -481h137l-21 -116h-427zM200 779l139 180h118l73 -180h-110l-36 98l-72 -98h-112z" />
    <glyph glyph-name="Idieresis.alt" unicode="&#xe135;" horiz-adv-x="529" 
d="M17 0l21 116h136l87 481h-136l21 116h427l-21 -116h-137l-87 -481h137l-21 -116h-427zM194 775l25 141h130l-25 -141h-130zM404 775l25 141h130l-25 -141h-130z" />
    <glyph glyph-name="Itilde.alt" unicode="&#xe136;" horiz-adv-x="529" 
d="M17 0l21 116h136l87 481h-136l21 116h427l-21 -116h-137l-87 -481h137l-21 -116h-427zM232 767q-56 11 -73 15q45 138 143 138q30 0 82.5 -16.5t82.5 -16.5q18 0 27.5 10.5t22.5 37.5l69 -16q-44 -138 -138 -138q-30 0 -84.5 16.5t-80.5 16.5q-15 0 -25.5 -9.5
t-25.5 -37.5z" />
    <glyph glyph-name="Imacron.alt" unicode="&#xe138;" horiz-adv-x="529" 
d="M17 0l21 116h136l87 481h-136l21 116h427l-21 -116h-137l-87 -481h137l-21 -116h-427zM210 783l21 111h306l-21 -111h-306z" />
    <glyph glyph-name="Ibreve.alt" unicode="&#xe139;" horiz-adv-x="529" 
d="M17 0l21 116h136l87 481h-136l21 116h427l-21 -116h-137l-87 -481h137l-21 -116h-427zM362 776q-73 0 -115.5 49t-30.5 128h94q-3 -85 73 -85q30 0 57 22.5t35 62.5h95q-16 -84 -77 -130.5t-131 -46.5z" />
    <glyph glyph-name="Idotaccent.alt" unicode="&#xe13c;" horiz-adv-x="529" 
d="M17 0l21 116h136l87 481h-136l21 116h427l-21 -116h-137l-87 -481h137l-21 -116h-427zM294 774l24 143h134l-25 -143h-133z" />
    <glyph glyph-name="Iogonek.alt" unicode="&#xe13e;" horiz-adv-x="529" 
d="M17 0l21 116h136l87 481h-136l21 116h427l-21 -116h-137l-87 -481h137l-21 -116h-2q-58 -9 -89.5 -35t-31.5 -56q0 -33 43 -33q29 0 67 20l38 -71q-64 -45 -137 -45q-51 0 -84.5 24.5t-33.5 68.5q0 78 74 127h-271z" />
    <glyph glyph-name="zero.dnom" unicode="&#xe402;" horiz-adv-x="383" 
d="M161 -12q-55 0 -95 25.5t-40 76.5q0 16 2 24l28 160q12 64 63 95.5t115 31.5q56 0 95 -26t39 -78q0 -7 -2 -25l-28 -158q-10 -62 -63 -94t-114 -32zM176 71q22 0 36 13.5t17 31.5l28 158q1 3 1 12q0 32 -39 32q-21 0 -35.5 -12t-17.5 -30l-29 -160q-1 -4 -1 -11
q0 -15 10.5 -24.5t29.5 -9.5z" />
    <glyph glyph-name="one.dnom" unicode="&#xe403;" horiz-adv-x="340" 
d="M31 0l13 74h74l41 230l-73 -5l7 72l136 28h53l-58 -325h67l-13 -74h-247z" />
    <glyph glyph-name="two.dnom" unicode="&#xe404;" horiz-adv-x="359" 
d="M24 0l11 66l163 152q47 43 47 79q0 29 -34 29q-40 0 -47 -45l-2 -12h-99l3 21q9 56 55.5 86.5t111.5 30.5q58 0 88.5 -26t30.5 -69q0 -17 -3.5 -32.5t-13.5 -32t-16 -26.5t-23.5 -28t-22.5 -23t-27.5 -24.5t-24.5 -21.5l-43 -40h139l-14 -84h-279z" />
    <glyph glyph-name="three.dnom" unicode="&#xe405;" horiz-adv-x="364" 
d="M144 -12q-126 0 -126 90q0 12 3 24l3 13h102l-2 -10q0 -1 -0.5 -4.5t-0.5 -5.5q0 -27 41 -27q20 0 35.5 16t15.5 41q0 34 -46 34h-32l13 72h31q58 0 58 55q0 16 -10 24.5t-25 8.5q-41 0 -47 -38l-1 -8h-101l2 14q8 51 53 82.5t111 31.5q60 0 92 -25t32 -67
q0 -39 -23 -68.5t-56 -39.5v-2q27 -8 43 -27.5t16 -46.5q0 -69 -57.5 -103t-123.5 -34z" />
    <glyph glyph-name="four.dnom" unicode="&#xe406;" horiz-adv-x="368" 
d="M173 0l16 84h-174l13 75l191 241h115l-198 -237h67l7 46l111 64l-19 -110h41l-14 -79h-41l-15 -84h-100z" />
    <glyph glyph-name="five.dnom" unicode="&#xe407;" horiz-adv-x="364" 
d="M149 -12q-58 0 -93 23t-35 62q0 20 6 41h101q-2 -12 -2 -18q0 -27 39 -27q45 0 53 50l4 25v4q1 4 1 6q0 14 -10 22.5t-27 8.5q-25 0 -47 -20l-91 11l49 218h249l-15 -87h-167l-16 -75q40 24 90 24q38 0 66 -20t28 -59q0 -5 -2 -19l-9 -48q-11 -58 -60.5 -90t-111.5 -32z
" />
    <glyph glyph-name="six.dnom" unicode="&#xe408;" horiz-adv-x="377" 
d="M159 -12q-57 0 -94.5 27t-37.5 75q0 7 2 19l29 170q10 57 61.5 89.5t116.5 32.5q58 0 91.5 -22.5t33.5 -64.5q0 -18 -5 -39h-102q2 7 2 16q0 30 -36 30q-45 0 -52 -42l-10 -59q41 30 94 30q43 0 67 -20t24 -53q0 -6 -2 -18l-9 -56q-10 -54 -59.5 -84.5t-113.5 -30.5z
M175 69q22 0 36.5 10.5t16.5 26.5q8 36 8 45q0 31 -39 31q-18 0 -33.5 -12t-20.5 -36q-6 -28 -6 -35q0 -30 38 -30z" />
    <glyph glyph-name="seven.dnom" unicode="&#xe409;" horiz-adv-x="359" 
d="M49 0q16 80 71.5 166.5t118.5 143.5h-177l16 88h293l-14 -76q-63 -53 -119.5 -136t-74.5 -186h-114z" />
    <glyph glyph-name="eight.dnom" unicode="&#xe40a;" horiz-adv-x="377" 
d="M159 -12q-134 0 -134 88q0 7 5 42q11 55 63 79q-31 14 -31 57q0 8 5 34q9 53 56 83t109 30q56 0 92 -23t36 -67q0 -84 -61 -114q16 -8 26.5 -25.5t10.5 -38.5q0 -7 -6 -37q-10 -50 -57.5 -79t-113.5 -29zM172 63q46 0 52 39q1 9 3 20q1 7 1 8q0 29 -39 29q-45 0 -51 -34
q-5 -31 -5 -33q0 -29 39 -29zM203 230q18 0 33 10t18 28q3 20 3 28q0 29 -39 29q-44 0 -50 -34q-2 -10 -3 -18t-1.5 -10t-0.5 -3q0 -30 40 -30z" />
    <glyph glyph-name="nine.dnom" unicode="&#xe40b;" horiz-adv-x="377" 
d="M151 -13q-58 0 -91.5 23.5t-33.5 64.5q0 13 6 39h102q-3 -15 -3 -19q0 -27 35 -27q45 0 54 42l10 60q-33 -32 -95 -32q-43 0 -67 20t-24 54q0 6 2 18l10 56q9 54 58.5 84.5t114.5 30.5q57 0 94.5 -27.5t37.5 -74.5q0 -6 -2 -20l-30 -169q-10 -57 -61.5 -90t-116.5 -33z
M189 207q17 0 34.5 12.5t21.5 36.5q5 28 5 32q0 15 -10 24.5t-28 9.5q-22 0 -36 -11t-16 -27q-9 -46 -9 -48q0 -29 38 -29z" />
    <glyph glyph-name="comma.dnom" unicode="&#xe40d;" horiz-adv-x="283" 
d="M18 -82l32 83h-36l19 103h102l-18 -96l-53 -90h-46z" />
    <glyph glyph-name="period.dnom" unicode="&#xe40e;" horiz-adv-x="190" 
d="M14 0l19 104h102l-19 -104h-102z" />
    <glyph glyph-name="parenleft.dnom" unicode="&#xe40f;" horiz-adv-x="212" 
d="M101 -76q-51 73 -51 187q0 86 38.5 172.5t101.5 146.5h52q-55 -93 -80.5 -177t-25.5 -189q0 -76 17 -140h-52z" />
    <glyph glyph-name="parenright.dnom" unicode="&#xe410;" horiz-adv-x="212" 
d="M29 -76h-52q51 86 79 184.5t28 182.5q0 63 -19 139h53q52 -74 52 -181q0 -89 -40 -177.5t-101 -147.5z" />
    <glyph glyph-name="caronSlovak" unicode="&#xe413;" horiz-adv-x="263" 
d="M54 511l43 202h134l-74 -202h-103z" />
    <glyph glyph-name="commaaccent" unicode="&#xe414;" horiz-adv-x="277" 
d="M12 -200l39 167h134l-70 -167h-103z" />
    <glyph glyph-name="commaaccent" unicode="&#xf6c3;" horiz-adv-x="277" 
d="M12 -200l39 167h134l-70 -167h-103z" />
    <glyph glyph-name="zero.numr" unicode="&#xe416;" horiz-adv-x="383" 
d="M212 306q-55 0 -95 25.5t-40 76.5q0 16 2 24l28 160q12 64 63 95.5t115 31.5q56 0 95 -26t39 -78q0 -7 -2 -25l-28 -158q-10 -62 -63 -94t-114 -32zM227 389q22 0 36 13.5t17 31.5l28 158q1 3 1 12q0 32 -39 32q-21 0 -35.5 -12t-17.5 -30l-29 -160q-1 -4 -1 -11
q0 -15 10.5 -24.5t29.5 -9.5z" />
    <glyph glyph-name="one.numr" unicode="&#xe417;" horiz-adv-x="340" 
d="M81 317l13 74h74l41 230l-73 -5l7 72l136 28h53l-58 -325h67l-13 -74h-247z" />
    <glyph glyph-name="two.numr" unicode="&#xe418;" horiz-adv-x="359" 
d="M72 317l11 66l163 152q47 43 47 79q0 29 -34 29q-40 0 -47 -45l-2 -12h-99l3 21q9 56 55.5 86.5t111.5 30.5q58 0 88.5 -26t30.5 -69q0 -17 -3.5 -32.5t-13.5 -32t-16 -26.5t-23.5 -28t-22.5 -23t-27.5 -24.5t-24.5 -21.5l-43 -40h139l-14 -84h-279z" />
    <glyph glyph-name="three.numr" unicode="&#xe419;" horiz-adv-x="364" 
d="M195 305q-126 0 -126 90q0 12 3 24l3 13h102l-2 -10q0 -1 -0.5 -4.5t-0.5 -5.5q0 -27 41 -27q20 0 35.5 16t15.5 41q0 34 -46 34h-32l13 72h31q58 0 58 55q0 16 -10 24.5t-25 8.5q-41 0 -47 -38l-1 -8h-101l2 14q8 51 53 82.5t111 31.5q60 0 92 -25t32 -67
q0 -39 -23 -68.5t-56 -39.5v-2q27 -8 43 -27.5t16 -46.5q0 -69 -57.5 -103t-123.5 -34z" />
    <glyph glyph-name="four.numr" unicode="&#xe41a;" horiz-adv-x="368" 
d="M224 317l16 84h-174l13 75l191 241h115l-198 -237h67l7 46l111 64l-19 -110h41l-14 -79h-41l-15 -84h-100z" />
    <glyph glyph-name="five.numr" unicode="&#xe41b;" horiz-adv-x="364" 
d="M200 305q-58 0 -93 23t-35 62q0 20 6 41h101q-2 -12 -2 -18q0 -27 39 -27q45 0 53 50l4 25l1 4v6q0 14 -10 22.5t-27 8.5q-25 0 -47 -20l-91 11l49 218h249l-15 -87h-167l-16 -75q40 24 90 24q38 0 66 -20t28 -59q0 -5 -2 -19l-9 -48q-11 -58 -60.5 -90t-111.5 -32z" />
    <glyph glyph-name="six.numr" unicode="&#xe41c;" horiz-adv-x="377" 
d="M209 305q-57 0 -94.5 27t-37.5 75q0 7 2 19l29 170q10 57 61.5 89.5t116.5 32.5q58 0 91.5 -22.5t33.5 -64.5q0 -18 -5 -39h-102q2 7 2 16q0 30 -36 30q-45 0 -52 -42l-10 -59q41 30 94 30q43 0 67 -20t24 -53q0 -6 -2 -18l-9 -56q-10 -54 -59.5 -84.5t-113.5 -30.5z
M225 386q22 0 36.5 10.5t16.5 26.5q8 36 8 45q0 31 -39 31q-18 0 -33.5 -12t-20.5 -36q-6 -28 -6 -35q0 -30 38 -30z" />
    <glyph glyph-name="seven.numr" unicode="&#xe41d;" horiz-adv-x="359" 
d="M101 317q16 80 71.5 166.5t118.5 143.5h-177l16 88h293l-14 -76q-63 -53 -119.5 -136t-74.5 -186h-114z" />
    <glyph glyph-name="eight.numr" unicode="&#xe41e;" horiz-adv-x="377" 
d="M209 306q-134 0 -134 88q0 7 5 42q11 55 63 79q-31 14 -31 57q0 8 5 34q9 53 56 83t109 30q56 0 92 -23t36 -67q0 -84 -61 -114q16 -8 26.5 -25.5t10.5 -38.5q0 -7 -6 -37q-10 -50 -57.5 -79t-113.5 -29zM222 381q46 0 52 39l4 28q0 29 -39 29q-45 0 -51 -34
q-5 -31 -5 -33q0 -29 39 -29zM253 548q18 0 33 10t18 28q3 20 3 28q0 29 -39 29q-44 0 -50 -34q-2 -10 -3 -18t-1.5 -10t-0.5 -3q0 -30 40 -30z" />
    <glyph glyph-name="nine.numr" unicode="&#xe41f;" horiz-adv-x="377" 
d="M199 305q-58 0 -91.5 23.5t-33.5 64.5q0 13 6 39h102q-3 -15 -3 -19q0 -27 35 -27q45 0 54 42l10 60q-33 -32 -95 -32q-43 0 -67 20t-24 54q0 6 2 18l10 56q9 54 58.5 84.5t114.5 30.5q57 0 94.5 -27.5t37.5 -74.5q0 -6 -2 -20l-30 -169q-10 -57 -61.5 -90t-116.5 -33z
M237 525q17 0 34.5 12.5t21.5 36.5q5 28 5 32q0 15 -10 24.5t-28 9.5q-22 0 -36 -11t-16 -27q-9 -46 -9 -48q0 -29 38 -29z" />
    <glyph glyph-name="comma.numr" unicode="&#xe421;" horiz-adv-x="283" 
d="M70 236l32 83h-36l19 103h102l-18 -96l-53 -90h-46z" />
    <glyph glyph-name="period.numr" unicode="&#xe422;" horiz-adv-x="190" 
d="M67 318l19 104h102l-19 -104h-102z" />
    <glyph glyph-name="parenleft.numr" unicode="&#xe423;" horiz-adv-x="212" 
d="M150 242q-51 73 -51 187q0 86 38.5 172.5t101.5 146.5h52q-55 -93 -80.5 -177t-25.5 -189q0 -76 17 -140h-52z" />
    <glyph glyph-name="parenright.numr" unicode="&#xe424;" horiz-adv-x="212" 
d="M72 242h-52q51 86 79 184.5t28 182.5q0 63 -19 139h53q52 -74 52 -181q0 -89 -40 -177.5t-101 -147.5z" />
    <glyph glyph-name="numbersign.LP" unicode="&#xe533;" 
d="M60 -1l54 179h-112l27 87h111l62 198h-117l27 85h113l51 165h82l-49 -165h133l50 165h82l-51 -165h111l-23 -85h-111l-62 -198h114l-26 -87h-115l-53 -179h-82l52 179h-132l-54 -179h-82zM224 265h131l62 198h-133z" />
    <glyph glyph-name="zero.LT" unicode="&#xe53f;" 
d="M257 -12q-94 0 -157.5 42.5t-63.5 130.5q0 23 4 43q2 12 26 150t26 150q19 107 103 164t192 57q94 0 155.5 -45t61.5 -134q0 -23 -4 -44q-2 -12 -26 -148.5t-26 -147.5q-19 -103 -102.5 -160.5t-188.5 -57.5zM278 107q48 0 80.5 29.5t40.5 72.5l53 298q2 12 2 22
q0 35 -23.5 56t-64.5 21q-48 0 -81.5 -28t-41.5 -72l-52 -298q-2 -14 -2 -21q0 -36 23.5 -58t65.5 -22z" />
    <glyph glyph-name="one.LT" unicode="&#xe541;" 
d="M42 0l18 104h147l85 482l-141 -12l15 103l244 41h49l-109 -614h136l-18 -104h-426z" />
    <glyph glyph-name="two.LT" unicode="&#xe542;" 
d="M32 0l16 91l270 262q110 106 110 187q0 33 -24.5 52t-58.5 19q-90 0 -105 -111h-133q1 5 3 18.5t2 16.5q19 91 85.5 140t170.5 49q88 0 147.5 -40.5t59.5 -125.5q0 -36 -11.5 -71.5t-25.5 -61t-44 -60.5t-47 -51.5t-55.5 -52.5t-50.5 -47l-97 -88l-1 -5h267l-21 -121
h-457z" />
    <glyph glyph-name="three.LT" unicode="&#xe543;" 
d="M242 -12q-40 0 -74.5 7.5t-66 23.5t-49.5 46.5t-18 72.5q0 28 7 60h139q0 -3 -2 -14.5t-2 -17.5q0 -63 92 -63q50 0 83 37.5t33 87.5q0 39 -29 61t-69 22h-44l18 102h46q53 -1 87 32t34 88q0 34 -21.5 53.5t-55.5 19.5q-96 0 -110 -94h-136l4 23q16 92 91 141t174 49
q84 0 142 -39.5t58 -119.5q0 -65 -37 -120.5t-98 -74.5l-1 -3q47 -14 74 -50.5t27 -85.5q0 -75 -45.5 -133t-112 -85t-138.5 -26z" />
    <glyph glyph-name="four.LT" unicode="&#xe544;" 
d="M291 0l29 168h-302l20 112l340 433h163l-351 -427h151l18 100l156 86l-33 -186h79l-20 -118h-80l-29 -168h-141z" />
    <glyph glyph-name="five.LT" unicode="&#xe545;" 
d="M241 -12q-37 0 -71.5 7t-66.5 23t-51 45t-19 69q0 30 10 66h139q0 -3 -2 -13.5t-2 -15.5q0 -33 26 -48.5t61 -15.5q96 0 117 113q10 63 10 67q0 34 -24.5 52.5t-60.5 18.5q-53 0 -101 -43l-126 18l88 382h411l-21 -120h-295l-42 -183q75 45 154 45q68 0 119 -36t51 -102
q0 -17 -17 -116q-20 -106 -97.5 -159.5t-189.5 -53.5z" />
    <glyph glyph-name="six.LT" unicode="&#xe546;" 
d="M254 -12q-88 0 -150 44.5t-62 129.5q0 18 3 38q39 222 55 309q18 101 98.5 158.5t185.5 57.5q54 0 99 -12.5t79.5 -47.5t34.5 -89q0 -21 -8 -61h-141q5 25 5 31q0 32 -26 47.5t-62 15.5q-45 0 -74.5 -25.5t-37.5 -71.5q-1 -6 -11 -64t-11 -65q67 67 174 67
q71 0 113.5 -34.5t42.5 -100.5q0 -22 -24 -141q-19 -96 -97.5 -141t-185.5 -45zM281 104q43 0 75.5 23t39.5 64q16 83 16 95q0 33 -25.5 48.5t-60.5 15.5q-44 0 -77 -26.5t-40 -62.5q-13 -72 -13 -81q0 -36 23.5 -56t61.5 -20z" />
    <glyph glyph-name="seven.LT" unicode="&#xe547;" 
d="M87 0q31 160 131.5 324t209.5 263h-318l23 126h488l-20 -106q-47 -43 -92.5 -93.5t-102 -128t-100.5 -178t-64 -207.5h-155z" />
    <glyph glyph-name="eight.LT" unicode="&#xe548;" 
d="M251 -12q-42 0 -77.5 7t-69 22.5t-53 47t-19.5 75.5q0 20 11 79q9 48 40.5 85.5t76.5 57.5q-61 28 -61 105q0 16 9 63q11 62 53.5 107.5t99 66.5t120.5 21q52 0 97 -13t79 -48.5t34 -89.5q0 -50 -13 -92q-7 -39 -36.5 -71t-68.5 -48q34 -14 53 -45.5t19 -69.5
q0 -12 -10 -69q-17 -94 -99.5 -142.5t-184.5 -48.5zM270 98q45 0 77 22.5t40 65.5q8 38 8 58q0 65 -87 65q-43 0 -74.5 -19.5t-39.5 -59.5q-10 -47 -10 -61q0 -34 25 -52.5t61 -18.5zM327 409q40 0 73 22.5t39 61.5q9 46 9 53q0 34 -25.5 51.5t-62.5 17.5q-39 0 -71 -21.5
t-38 -58.5q-10 -47 -10 -60q0 -34 25 -50t61 -16z" />
    <glyph glyph-name="nine.LT" unicode="&#xe549;" 
d="M240 -12q-84 0 -143 35t-59 113q0 13 7 62h141q0 -4 -2 -14.5t-2 -16.5q0 -33 24 -48.5t59 -15.5q46 0 77.5 26.5t39.5 71.5q5 34 22 128q-59 -66 -176 -66q-66 0 -110 35t-44 99q0 21 19 129q18 97 100.5 148t187.5 51q88 0 150 -44.5t62 -129.5q0 -19 -3 -37
q-9 -52 -27.5 -156t-27.5 -156q-18 -100 -103.5 -157t-191.5 -57zM305 361q44 0 80 31.5t44 75.5q10 57 10 66q0 37 -23.5 57.5t-60.5 20.5q-43 0 -76 -23t-40 -64q-16 -92 -16 -97q0 -33 24 -50t58 -17z" />
    <glyph glyph-name="apple" unicode="&#xf8ff;" horiz-adv-x="1009" 
d="M627 -77l-154 3l-18 -2l-6 7q9 3 21.5 6t18.5 5q45 15 55 60q7 67 14 219q-64 -2 -98 -3l2 11l97 6q8 147 10 219l39 23q-54 3 -178 7q-1 -30 -7 -139q-4 -73 -26.5 -130t-54 -87t-60.5 -44.5t-52 -14.5q-28 0 -78 15t-72 27l23 37q2 -1 34 -13.5t68 -23t56 -10.5
q48 1 87 63.5t37 135.5q1 28 5 185q-10 0 -30 0.5t-31 0.5q-59 0 -106.5 -43t-47.5 -104q18 -40 77 -67q0 -5 -6 -19t-10 -18q-66 28 -73 96q0 73 55 125t142 67h31q1 34 5 166l40 18q-203 8 -243 8q-59 0 -106.5 -42.5t-47.5 -102.5q18 -38 78 -63q0 -2 -21 -37
q-67 28 -74 96q0 69 56.5 118.5t131.5 68.5q64 0 180.5 -5t162.5 -6q14 0 62 -2q5 0 20.5 -0.5t19.5 -0.5q12 -1 33 3q15 11 22 27l8 -3q-8 -21 -24 -34q-57 -29 -113 -29q-46 0 -140 4q-3 -14 -4.5 -70.5t-2.5 -64.5q-1 -7 -1.5 -24.5t-0.5 -25.5q14 0 165.5 -7t230.5 -7
h67q63 3 88 15l4 -6q-97 -43 -224 -43q-67 0 -147 3q-3 -20 -8 -102.5t-5 -84.5q0 -9 -2 -53l147 10h4l4 -3l-35 -52l-7 4l23 35q-44 -3 -137 -9q-6 -107 -13 -193q-2 -17 -20 -42t-35 -33l1 -1q30 5 89.5 6t75.5 2v-1q0 -10 -8.5 -22t-19.5 -13q-11 -2 -43 -2z" />
    <glyph glyph-name="commatop" horiz-adv-x="277" 
d="M132 592l16 85l66 104h70l-37 -80h48l-21 -109h-142z" />
    <glyph glyph-name="altogonek" horiz-adv-x="396" 
d="M165 -220q-49 0 -82 25.5t-33 67.5q0 60 44 104t112 62l56 -39q-55 -12 -82 -38t-27 -56q0 -34 43 -34q28 0 60 16l32 -71q-54 -37 -123 -37z" />
    <glyph glyph-name="ogonekplus" horiz-adv-x="396" 
d="M161 -219q-50 0 -82 24t-32 67q0 62 47 107t121 63l34 -32q-43 -12 -68 -42t-25 -59q0 -33 42 -33q29 0 62 18l36 -70q-62 -43 -135 -43z" />
    <glyph glyph-name="period.sub" horiz-adv-x="190" 
d="M-4 -133l19 104h102l-19 -104h-102z" />
    <glyph glyph-name="comma.sub" horiz-adv-x="283" 
d="M0 -215l32 83h-36l19 103h102l-18 -96l-53 -90h-46z" />
    <glyph glyph-name="period.sup" horiz-adv-x="190" 
d="M82 380l19 104h102l-19 -104h-102z" />
    <glyph glyph-name="comma.sup" horiz-adv-x="283" 
d="M86 298l32 83h-36l19 103h102l-18 -96l-53 -90h-46z" />
    <glyph glyph-name="ringacute" horiz-adv-x="331" 
d="M226 584q-45 0 -69.5 21.5t-24.5 56.5q0 56 54 98l168 132l57 -85l-86 -40q33 -20 33 -61q0 -51 -40 -86.5t-92 -35.5zM236 637q24 0 41 16.5t17 40.5q0 17 -10.5 27.5t-29.5 10.5q-24 0 -40.5 -17t-16.5 -40q0 -17 11 -27.5t28 -10.5z" />
    <glyph glyph-name="IJ.alt" horiz-adv-x="1063" 
d="M17 0l21 116h136l87 481h-136l21 116h427l-21 -116h-137l-87 -481h137l-21 -116h-427zM709 -11q-95 0 -156 44.5t-61 132.5q0 25 13 99h144q-9 -47 -9 -66q0 -80 95 -80q49 0 79 30.5t39 79.5l85 484h153l-89 -497q-19 -106 -100.5 -166.5t-192.5 -60.5z" />
    <glyph glyph-name="idotaccent" horiz-adv-x="266" 
d="M25 0l91 519h140l-91 -519h-140zM128 590l25 138h141l-26 -138h-140z" />
    </font>
</defs>
</svg>
