<?xml version="1.0" standalone="no"?>
<!DOCTYPE svg PUBLIC "-//W3C//DTD SVG 1.1//EN" "http://www.w3.org/Graphics/SVG/1.1/DTD/svg11.dtd" >
<svg xmlns="http://www.w3.org/2000/svg" xmlns:xlink="http://www.w3.org/1999/xlink" version="1.1">
<metadata>
Created by FontForge 20161013 at Fri Apr 11 05:21:35 2008
 By ,,,
Copyright (c) 2008 by Mrio Feliciano. All rights reserved.
</metadata>
<defs>
<font id="FlamaSemicondensed-Semibold" horiz-adv-x="540" >
  <font-face 
    font-family="Flama Semicondensed Semibold"
    font-weight="700"
    font-stretch="normal"
    units-per-em="1000"
    panose-1="2 0 0 0 0 0 0 0 0 0"
    ascent="800"
    descent="-200"
    x-height="525"
    cap-height="713"
    bbox="-170 -214 1060 1008"
    underline-thickness="50"
    underline-position="-200"
    unicode-range="U+0020-F8FF"
  />
<missing-glyph horiz-adv-x="822" 
d="M235 118l-40 40l185 185l-185 185l40 40l185 -185l185 185l40 -40l-185 -185l185 -185l-40 -40l-185 185zM55 -18v716h712v-716h-712zM115 42h592v596h-592v-596z" />
    <glyph glyph-name="fi" unicode="fi" horiz-adv-x="604" 
d="M411 0v525h132v-525h-132zM411 590v134h132v-134h-132zM97 0v413h-66v107h66v62q0 71 42 107.5t110 36.5q50 0 82 -9v-99q-20 5 -53 5q-49 0 -49 -45v-58h89v-107h-89v-413h-132z" />
    <glyph glyph-name="fl" unicode="fl" horiz-adv-x="650" 
d="M540 -9q-63 0 -98 31.5t-35 90.5v600h133v-565q0 -45 47 -45q13 0 37 4v-101q-40 -15 -84 -15zM97 0v413h-66v107h66v62q0 71 42 107.5t110 36.5q50 0 82 -9v-99q-20 5 -53 5q-49 0 -49 -45v-58h89v-107h-89v-413h-132z" />
    <glyph glyph-name=".notdef" horiz-adv-x="822" 
d="M235 118l-40 40l185 185l-185 185l40 40l185 -185l185 185l40 -40l-185 -185l185 -185l-40 -40l-185 185zM55 -18v716h712v-716h-712zM115 42h592v596h-592v-596z" />
    <glyph glyph-name=".null" horiz-adv-x="0" 
 />
    <glyph glyph-name="nonmarkingreturn" horiz-adv-x="333" 
 />
    <glyph glyph-name="space" unicode=" " horiz-adv-x="180" 
 />
    <glyph glyph-name="exclam" unicode="!" horiz-adv-x="262" 
d="M90 215l-24 246v252h130v-252l-25 -246h-81zM68 0v150h125v-150h-125z" />
    <glyph glyph-name="quotedbl" unicode="&#x22;" horiz-adv-x="420" 
d="M78 445l-17 146v122h119v-122l-17 -146h-85zM257 445l-17 146v122h120v-122l-17 -146h-86z" />
    <glyph glyph-name="numbersign" unicode="#" horiz-adv-x="542" 
d="M97 -1l24 183h-97l10 79h95l29 209h-99l10 77h98l23 168h70l-21 -168h118l22 168h70l-22 -168h95l-9 -77h-94l-29 -209h99l-9 -79h-99l-23 -183h-72l23 183h-118l-24 -183h-70zM201 261h117l31 209h-120z" />
    <glyph glyph-name="dollar" unicode="$" horiz-adv-x="520" 
d="M209 -46v75q-111 11 -187 86l77 85q82 -68 164 -68q42 0 65.5 18t23.5 50q0 31 -21 49.5t-59 33.5q0 1 -44.5 20t-45.5 19q-125 57 -125 173q0 66 40.5 114.5t111.5 64.5v74h109v-68q91 -11 156 -64l-68 -89q-77 51 -135 51q-38 0 -61 -17t-23 -48q0 -26 20 -44.5
t59 -34.5l83 -36q135 -58 135 -177q0 -77 -46 -126t-120 -63v-78h-109z" />
    <glyph glyph-name="percent" unicode="%" horiz-adv-x="758" 
d="M182 335q-58 0 -98.5 33t-40.5 92v141q0 60 40 92t97 32q58 0 98.5 -32.5t40.5 -93.5v-140q0 -57 -41.5 -90.5t-95.5 -33.5zM181 407q24 0 36.5 13.5t12.5 32.5v157q0 18 -13.5 31.5t-35.5 13.5q-24 0 -36.5 -13t-12.5 -32v-158q0 -20 12.5 -32.5t36.5 -12.5zM166 -2
l361 722h71l-359 -722h-73zM573 -11q-57 0 -97.5 32.5t-40.5 91.5v136q0 59 40.5 94.5t96.5 35.5q58 0 98 -32.5t40 -93.5v-138q0 -57 -41.5 -91.5t-95.5 -34.5zM573 61q24 0 36 14t12 33v157q0 18 -13 31t-35 13q-23 0 -36 -13t-13 -31v-158q0 -20 12.5 -33t36.5 -13z" />
    <glyph glyph-name="ampersand" unicode="&#x26;" horiz-adv-x="695" 
d="M258 -16q-95 0 -153 55t-58 147q0 68 41.5 124.5t111.5 84.5q-65 79 -65 154q0 72 49.5 124t151.5 52q86 0 140 -44t54 -114q0 -66 -40.5 -116.5t-108.5 -79.5l114 -146q15 33 32 118l113 -16q-18 -106 -78 -188l111 -139h-164l-52 68q-81 -84 -199 -84zM290 97
q64 0 106 44l-139 180q-39 -17 -59 -48.5t-20 -68.5q0 -47 30.5 -77t81.5 -30zM326 443q83 37 83 117q0 33 -20 52.5t-53 19.5q-35 0 -53.5 -21.5t-18.5 -52.5q0 -34 62 -115z" />
    <glyph glyph-name="quotesingle" unicode="'" horiz-adv-x="241" 
d="M78 445l-17 146v122h119v-122l-17 -146h-85z" />
    <glyph glyph-name="parenleft" unicode="(" horiz-adv-x="274" 
d="M184 -179q-60 85 -96 210.5t-36 243.5q0 120 35 238t97 208l77 -2q-50 -131 -70.5 -222.5t-20.5 -221.5q0 -230 92 -451z" />
    <glyph glyph-name="parenright" unicode=")" horiz-adv-x="274" 
d="M90 -179l-78 3q92 221 92 451q0 131 -20.5 223.5t-71.5 220.5l78 2q62 -90 97 -208t35 -238q0 -118 -36 -243.5t-96 -210.5z" />
    <glyph glyph-name="asterisk" unicode="*" horiz-adv-x="412" 
d="M124 367l-62 41l77 111l-119 68l39 60l110 -61v127h75v-128l108 62l39 -60l-119 -68l79 -111l-63 -41l-82 115z" />
    <glyph glyph-name="plus" unicode="+" 
d="M229 103v173h-165v83h165v173h83v-173h164v-83h-164v-173h-83z" />
    <glyph glyph-name="comma" unicode="," horiz-adv-x="248" 
d="M70 -134l38 142h-50v142h131v-136l-56 -148h-63z" />
    <glyph glyph-name="hyphen" unicode="-" horiz-adv-x="317" 
d="M42 253v98h234v-98h-234z" />
    <glyph glyph-name="period" unicode="." horiz-adv-x="248" 
d="M58 0v150h131v-150h-131z" />
    <glyph glyph-name="slash" unicode="/" horiz-adv-x="319" 
d="M-8 -179l215 897h87l-213 -897h-89z" />
    <glyph glyph-name="zero" unicode="0" horiz-adv-x="563" 
d="M283 -12q-62 0 -113.5 19t-86 65t-34.5 112v343q0 97 68 147.5t164 50.5q99 0 165 -50t66 -149v-341q0 -96 -67.5 -146.5t-161.5 -50.5zM283 101q45 0 67.5 24t22.5 62v345q0 34 -25 57.5t-66 23.5q-43 0 -68 -23.5t-25 -59.5v-343q0 -40 24 -63t70 -23z" />
    <glyph glyph-name="one" unicode="1" horiz-adv-x="362" 
d="M126 0v587l-76 -19l-10 104l148 43h73v-715h-135z" />
    <glyph glyph-name="two" unicode="2" horiz-adv-x="510" 
d="M51 0v78l149 196q58 82 88.5 139t30.5 104v14q0 37 -19.5 59t-59.5 22q-77 0 -77 -76v-23h-129v26q0 90 60.5 138.5t159.5 48.5q102 0 153 -54t51 -142q0 -78 -42.5 -157t-117.5 -170l-63 -81v-3h233v-119h-417z" />
    <glyph glyph-name="three" unicode="3" horiz-adv-x="536" 
d="M271 -12q-107 0 -165.5 48t-58.5 130v33h130v-21q0 -38 25.5 -60t65.5 -22q48 0 67.5 25.5t19.5 81.5q0 40 -20.5 65t-42 32t-42.5 7h-62v109h55q100 0 100 102q0 47 -23 70.5t-60 23.5q-39 0 -60 -20t-21 -57v-23h-128v28q0 85 59.5 135t160.5 50q99 0 153 -51.5
t54 -138.5q0 -60 -28.5 -106t-80.5 -61v-3q57 -14 91.5 -60.5t34.5 -104.5q0 -100 -65 -156t-159 -56z" />
    <glyph glyph-name="four" unicode="4" horiz-adv-x="563" 
d="M327 0v159h-284v104l230 450h152l-248 -443h150v105l128 76v-181h70v-111h-70v-159h-128z" />
    <glyph glyph-name="five" unicode="5" horiz-adv-x="538" 
d="M267 -12q-98 0 -157 46t-59 121v44h132v-26q0 -34 24.5 -56t64.5 -22q88 0 88 95v81q0 84 -87 84q-44 0 -83 -39l-124 14l20 383h373v-120h-264l-8 -183q51 50 138 50q71 0 120 -42t49 -127v-112q0 -90 -65.5 -140.5t-161.5 -50.5z" />
    <glyph glyph-name="six" unicode="6" horiz-adv-x="552" 
d="M273 -12q-96 0 -159 53t-63 145v337q0 96 65.5 149t164.5 53q97 0 156.5 -46.5t59.5 -124.5v-38h-138v29q0 34 -22.5 53.5t-60.5 19.5q-41 0 -63 -23t-22 -61v-159q22 36 62 56t87 20q72 0 116.5 -47t44.5 -115v-114q0 -86 -65.5 -136.5t-162.5 -50.5zM279 98
q41 0 64.5 23t23.5 55v100q0 42 -24 60t-58 18q-37 0 -65.5 -28t-28.5 -72v-72q0 -35 23.5 -59.5t64.5 -24.5z" />
    <glyph glyph-name="seven" unicode="7" horiz-adv-x="505" 
d="M120 0q1 178 64 345.5t134 248.5h-294v119h437v-99q-96 -119 -145 -282t-48 -332h-148z" />
    <glyph glyph-name="eight" unicode="8" horiz-adv-x="559" 
d="M279 -12q-103 0 -166 45t-63 132v62q0 45 25.5 81t64.5 54q-37 14 -59.5 49t-22.5 72v64q0 84 63.5 131t157.5 47q95 0 158 -45.5t63 -129.5v-61q0 -41 -22.5 -76t-60.5 -51q39 -15 65.5 -50.5t26.5 -79.5v-69q0 -82 -65 -128.5t-165 -46.5zM279 95q42 0 67 20.5t25 56.5
v64q0 39 -27.5 59.5t-64.5 20.5t-63.5 -20.5t-26.5 -54.5v-71q0 -35 25 -55t65 -20zM280 408q36 0 62.5 21t26.5 55v60q0 36 -27 55t-65 19q-34 0 -59.5 -19.5t-25.5 -52.5v-63q0 -35 26 -55t62 -20z" />
    <glyph glyph-name="nine" unicode="9" horiz-adv-x="550" 
d="M271 -11q-97 0 -156.5 45.5t-59.5 122.5v42h136v-30q0 -34 23 -53t60 -19q41 0 63 22.5t22 59.5v157q-49 -73 -145 -73q-76 0 -119.5 47.5t-43.5 119.5v109q0 87 63.5 136.5t160.5 49.5q98 0 161 -52.5t63 -140.5v-341q0 -94 -64 -148t-164 -54zM266 360q38 0 65.5 28.5
t27.5 72.5v73q0 35 -23.5 59t-63.5 24q-42 0 -65 -22.5t-23 -55.5v-100q0 -42 24.5 -60.5t57.5 -18.5z" />
    <glyph glyph-name="colon" unicode=":" horiz-adv-x="248" 
d="M58 0v150h131v-150h-131zM58 369v149h131v-149h-131z" />
    <glyph glyph-name="semicolon" unicode=";" horiz-adv-x="248" 
d="M70 -134l38 142h-50v142h131v-136l-56 -148h-63zM58 369v149h131v-149h-131z" />
    <glyph glyph-name="less" unicode="&#x3c;" 
d="M432 109l-365 175v69l366 173l39 -83l-266 -125l267 -127z" />
    <glyph glyph-name="equal" unicode="=" 
d="M61 180v93h417v-93h-417zM61 356v93h417v-93h-417z" />
    <glyph glyph-name="greater" unicode="&#x3e;" 
d="M108 110l-41 82l267 127l-267 124l41 83l365 -173v-69z" />
    <glyph glyph-name="question" unicode="?" horiz-adv-x="495" 
d="M170 215v29q2 78 65 147q2 2 22.5 24t25.5 28.5t17 24.5t16 33t4 33q0 38 -21.5 59.5t-59.5 21.5q-33 0 -55 -20.5t-22 -58.5v-17h-114v17q0 88 57 137.5t144 49.5q96 0 149 -49.5t53 -136.5q1 -98 -87 -178q-5 -5 -19 -18t-21 -20.5t-16.5 -20t-14 -25.5t-5.5 -28v-32
h-118zM164 0v150h134v-150h-134z" />
    <glyph glyph-name="at" unicode="@" horiz-adv-x="885" 
d="M471 -142q-140 0 -242 53q-184 96 -183 335q1 193 123.5 316t309.5 123q159 0 260 -88t101 -241q0 -129 -74.5 -211.5t-174.5 -99.5h-112l12 72h-3q-58 -83 -138 -83q-56 0 -87.5 29t-31.5 83q0 18 3 33q10 72 31 187q12 69 60.5 108t110.5 39q36 0 65.5 -16.5
t40.5 -48.5h1l9 58h116l-64 -384q69 17 112.5 82t43.5 155q0 67 -25.5 118.5t-68 80.5t-91.5 43t-103 14q-154 0 -247 -103.5t-93 -263.5q0 -197 149 -274q77 -40 190 -40q14 0 27.5 0.5t24 1t24 2.5t20.5 2.5t21.5 3t19.5 3.5t20.5 4.5t18.5 4.5t20.5 5t20.5 5l16 -68
q-101 -40 -233 -40zM404 123q36 0 65.5 31t37.5 75l17 104q2 12 2 21q0 35 -17.5 55t-46.5 20q-35 0 -57 -24t-28 -64l-22 -137q-2 -12 -2 -24q0 -28 10.5 -42.5t40.5 -14.5z" />
    <glyph glyph-name="A" unicode="A" horiz-adv-x="630" 
d="M20 0l210 714h174l207 -714h-144l-47 171h-222l-46 -171h-132zM228 280h162l-79 295h-3z" />
    <glyph glyph-name="B" unicode="B" horiz-adv-x="608" 
d="M66 0v713h296q90 0 140.5 -48t50.5 -129q0 -62 -33.5 -109.5t-88.5 -60.5v-2q60 -12 95 -59t35 -109q0 -91 -53.5 -143.5t-141.5 -52.5h-300zM208 111h113q44 0 69.5 27t25.5 75q0 47 -28.5 70t-74.5 23h-105v-195zM208 416h102q45 0 73 25.5t28 73.5q0 43 -25 66t-67 23
h-111v-188z" />
    <glyph glyph-name="C" unicode="C" horiz-adv-x="599" 
d="M311 -12q-113 0 -186.5 57.5t-73.5 170.5v281q0 105 74 166.5t185 61.5q106 0 174 -54.5t68 -150.5v-48h-129v35q0 47 -30.5 74.5t-82.5 27.5q-54 0 -84.5 -30t-30.5 -83v-274q0 -58 31 -88t86 -30q50 0 80.5 27t30.5 72v39h129v-48q0 -97 -68 -151.5t-173 -54.5z" />
    <glyph glyph-name="D" unicode="D" horiz-adv-x="619" 
d="M66 0v713h261q108 0 175 -53t67 -156v-282q0 -110 -67 -166t-175 -56h-261zM209 115h103q56 0 84.5 33t28.5 78v262q0 49 -29.5 79.5t-84.5 30.5h-102v-483z" />
    <glyph glyph-name="E" unicode="E" horiz-adv-x="556" 
d="M66 0v713h442v-117h-299v-174h238v-117h-238v-187h300v-118h-443z" />
    <glyph glyph-name="F" unicode="F" horiz-adv-x="541" 
d="M66 0v713h442v-115h-299v-182h237v-115h-237v-301h-143z" />
    <glyph glyph-name="G" unicode="G" horiz-adv-x="608" 
d="M310 -12q-113 0 -186 57.5t-73 170.5v281q0 106 74 167t185 61q104 0 174.5 -51.5t70.5 -145.5v-47h-131v31q0 45 -31 72.5t-80 27.5q-55 0 -87 -32t-32 -85v-275q0 -55 31 -86.5t87 -31.5q110 0 110 100v82h-119v103h253v-196q0 -96 -70 -149.5t-176 -53.5z" />
    <glyph glyph-name="H" unicode="H" horiz-adv-x="643" 
d="M66 0v713h143v-286h226v286h143v-713h-143v302h-226v-302h-143z" />
    <glyph glyph-name="I" unicode="I" horiz-adv-x="274" 
d="M66 0v713h143v-713h-143z" />
    <glyph glyph-name="J" unicode="J" horiz-adv-x="563" 
d="M266 -12q-240 0 -240 212v59h137v-54q0 -103 100 -103q52 0 75 29.5t23 72.5v509h142v-495q0 -106 -62 -168t-175 -62z" />
    <glyph glyph-name="K" unicode="K" horiz-adv-x="614" 
d="M66 0v713h143v-339l234 339h146l-196 -279l193 -434h-156l-142 325l-79 -109v-216h-143z" />
    <glyph glyph-name="L" unicode="L" horiz-adv-x="546" 
d="M66 0v713h143v-595h300v-118h-443z" />
    <glyph glyph-name="M" unicode="M" horiz-adv-x="745" 
d="M66 0v713h183l128 -323h3l128 323h171v-713h-125v526h-2l-131 -341h-95l-132 340h-3v-525h-125z" />
    <glyph glyph-name="N" unicode="N" horiz-adv-x="647" 
d="M66 0v713h141l246 -431h2v431h128v-713h-120l-268 467h-2v-467h-127z" />
    <glyph glyph-name="O" unicode="O" horiz-adv-x="624" 
d="M312 -12q-115 0 -188 57.5t-73 176.5v263q0 115 73.5 177.5t186.5 62.5q74 0 131.5 -23t94.5 -77t37 -134v-263q0 -118 -74.5 -179t-187.5 -61zM313 106q54 0 85.5 32t31.5 86v270q0 54 -33 84t-87 30q-56 0 -85.5 -32t-29.5 -88v-263q0 -56 30.5 -87.5t87.5 -31.5z" />
    <glyph glyph-name="P" unicode="P" horiz-adv-x="592" 
d="M66 0v713h265q106 0 161.5 -61.5t55.5 -158.5q0 -104 -57 -169.5t-168 -65.5h-114v-258h-143zM209 366h87q54 0 83.5 32t29.5 89q0 51 -27 82.5t-76 31.5h-97v-235z" />
    <glyph glyph-name="Q" unicode="Q" horiz-adv-x="624" 
d="M521 -108l-163 100q-20 -4 -46 -4q-115 0 -188 57.5t-73 176.5v263q0 115 73.5 177.5t186.5 62.5q74 0 131.5 -23t94.5 -77t37 -134v-263q0 -117 -74 -171l99 -50zM313 106q54 0 85.5 32t31.5 86v270q0 54 -33 84t-87 30q-56 0 -85.5 -32t-29.5 -88v-263
q0 -56 30.5 -87.5t87.5 -31.5z" />
    <glyph glyph-name="R" unicode="R" horiz-adv-x="615" 
d="M66 0v713h263q112 0 171 -58t59 -156q0 -76 -33.5 -129t-98.5 -73l152 -297h-154l-130 272h-86v-272h-143zM209 378h99q110 0 110 112q0 52 -26.5 81.5t-79.5 29.5h-103v-223z" />
    <glyph glyph-name="S" unicode="S" horiz-adv-x="577" 
d="M278 -12q-158 0 -249 86l73 100q43 -33 84.5 -51t97.5 -18q46 0 76 22t30 58t-23 57.5t-69 41.5l-96 40q-141 58 -141 191q0 88 65 149t171 61q128 0 215 -73l-74 -99q-82 61 -147 61q-44 0 -69 -20t-25 -58q0 -32 23 -52.5t71 -40.5l82 -36q160 -69 160 -198
q0 -102 -74 -161.5t-181 -59.5z" />
    <glyph glyph-name="T" unicode="T" horiz-adv-x="567" 
d="M213 0v598h-190v115h522v-115h-189v-598h-143z" />
    <glyph glyph-name="U" unicode="U" horiz-adv-x="634" 
d="M315 -12q-117 0 -186 57t-69 173v495h143v-487q0 -63 33 -93t85 -30t83.5 32.5t30.5 88.5v489h137v-488q1 -112 -70.5 -174.5t-186.5 -62.5z" />
    <glyph glyph-name="V" unicode="V" horiz-adv-x="584" 
d="M216 -2l-196 715h145l134 -532h2l132 532h131l-197 -715h-151z" />
    <glyph glyph-name="W" unicode="W" horiz-adv-x="834" 
d="M174 -2l-151 715h139l90 -471h3l100 471h140l95 -470h2l88 470h132l-152 -715h-137l-104 494h-4l-105 -494h-136z" />
    <glyph glyph-name="X" unicode="X" horiz-adv-x="575" 
d="M15 0l185 366l-171 347h154l112 -238l110 238h140l-173 -346l187 -367h-151l-128 259l-125 -259h-140z" />
    <glyph glyph-name="Y" unicode="Y" horiz-adv-x="575" 
d="M216 0v289l-199 424h151l128 -296l128 296h134l-199 -425v-288h-143z" />
    <glyph glyph-name="Z" unicode="Z" horiz-adv-x="544" 
d="M44 0v86l292 514h-287v113h454v-98l-285 -500h281v-115h-455z" />
    <glyph glyph-name="bracketleft" unicode="[" horiz-adv-x="295" 
d="M80 -176v889h189v-80h-74v-731h74v-78h-189z" />
    <glyph glyph-name="backslash" unicode="\" horiz-adv-x="319" 
d="M236 -179l-213 897h87l215 -897h-89z" />
    <glyph glyph-name="bracketright" unicode="]" horiz-adv-x="295" 
d="M25 -176v78h74v731h-74v80h190v-889h-190z" />
    <glyph glyph-name="asciicircum" unicode="^" horiz-adv-x="482" 
d="M93 161l107 420h92l96 -420h-83l-61 304q-66 -302 -67 -304h-84z" />
    <glyph glyph-name="underscore" unicode="_" horiz-adv-x="461" 
d="M0 -122v86h461v-86h-461z" />
    <glyph glyph-name="grave" unicode="`" horiz-adv-x="288" 
d="M142 584l-119 155h131l86 -155h-98z" />
    <glyph glyph-name="a" unicode="a" horiz-adv-x="517" 
d="M187 -11q-64 0 -106 39t-42 112q0 46 20.5 81t54.5 54t71 28.5t76 9.5h65v64q0 32 -20 49.5t-57 17.5q-36 0 -56.5 -18.5t-20.5 -47.5v-23h-119v29q0 71 59 112t149 41q86 0 142 -41.5t56 -121.5v-250q0 -22 6 -124h-122q0 3 -1 12.5t-2 27t-2 36.5h-5q-15 -34 -44 -54.5
t-53.5 -26.5t-48.5 -6zM242 86q34 0 59 25.5t25 66.5v57h-56q-98 0 -98 -75q0 -36 19.5 -55t50.5 -19z" />
    <glyph glyph-name="b" unicode="b" horiz-adv-x="535" 
d="M324 -12q-41 0 -82 24t-57 64h-2l-4 -76h-118v713h132v-263h3q21 40 61.5 64t80.5 24q74 0 111.5 -48t37.5 -121v-206q0 -75 -46 -125t-117 -50zM286 84q69 0 69 81v193q0 76 -73 76q-34 0 -61.5 -30.5t-27.5 -81.5v-132q0 -46 28.5 -76t64.5 -30z" />
    <glyph glyph-name="c" unicode="c" horiz-adv-x="494" 
d="M257 -12q-92 0 -150.5 48t-58.5 143v159q0 96 60.5 147.5t148.5 51.5q89 0 143.5 -44.5t54.5 -118.5v-35h-120v26q0 30 -18 50.5t-56 20.5q-80 0 -80 -86v-174q0 -41 21 -64.5t62 -23.5q37 0 54 22.5t17 52.5v23h120v-37q0 -74 -54.5 -117.5t-143.5 -43.5z" />
    <glyph glyph-name="d" unicode="d" horiz-adv-x="535" 
d="M198 -12q-75 0 -112.5 48t-37.5 122v208q0 73 46.5 122t116.5 49q37 0 72 -18.5t57 -51.5h1v246h133v-713h-123l-3 81h-4q-24 -43 -63 -68t-83 -25zM251 91q36 0 63.5 31t27.5 79v137q0 44 -29.5 73.5t-63.5 29.5q-69 0 -69 -83v-191q0 -76 71 -76z" />
    <glyph glyph-name="e" unicode="e" horiz-adv-x="510" 
d="M265 -12q-96 0 -156.5 49.5t-60.5 148.5v139q0 101 61.5 156.5t152.5 55.5q92 0 148 -52t56 -142v-116h-285v-44q0 -90 106 -90q56 0 136 32l30 -88q-76 -49 -188 -49zM181 311h158v44q0 37 -19.5 61.5t-59.5 24.5q-38 0 -58.5 -24.5t-20.5 -59.5v-46z" />
    <glyph glyph-name="f" unicode="f" horiz-adv-x="351" 
d="M97 0v413h-66v107h66v62q0 71 42 107.5t110 36.5q50 0 82 -9v-99q-20 5 -53 5q-49 0 -49 -45v-58h89v-107h-89v-413h-132z" />
    <glyph glyph-name="g" unicode="g" horiz-adv-x="534" 
d="M247 -188q-112 0 -191 37l37 102q79 -34 145 -34q104 0 104 89v104h-1q-20 -44 -57.5 -68t-79.5 -24q-76 0 -116 43.5t-40 115.5v197q0 73 48 118.5t119 45.5q41 0 80.5 -22.5t57.5 -59.5h1l4 70h117v-496q0 -105 -59.5 -161.5t-168.5 -56.5zM251 116q35 0 62.5 32.5
t27.5 81.5v113q0 44 -28.5 71.5t-60.5 27.5q-72 0 -72 -88v-158q0 -80 71 -80z" />
    <glyph glyph-name="h" unicode="h" horiz-adv-x="542" 
d="M61 0v713h132v-264h2q49 88 152 88q59 0 98.5 -40.5t39.5 -104.5v-392h-132v356q0 78 -69 78q-35 0 -63 -30.5t-28 -75.5v-328h-132z" />
    <glyph glyph-name="i" unicode="i" horiz-adv-x="253" 
d="M61 0v525h132v-525h-132zM61 590v134h132v-134h-132z" />
    <glyph glyph-name="j" unicode="j" horiz-adv-x="262" 
d="M61 -188q-36 0 -61 5v108q10 -2 27 -2q27 0 35.5 14t8.5 43v545h132v-569q0 -70 -38.5 -107t-103.5 -37zM71 590v134h132v-134h-132z" />
    <glyph glyph-name="k" unicode="k" horiz-adv-x="508" 
d="M61 0v713h132v-414l154 226h141l-129 -177l131 -348h-140l-90 251l-67 -93v-158h-132z" />
    <glyph glyph-name="l" unicode="l" horiz-adv-x="299" 
d="M190 -9q-63 0 -98 31.5t-35 90.5v600h133v-565q0 -45 47 -45q13 0 37 4v-101q-40 -15 -84 -15z" />
    <glyph glyph-name="m" unicode="m" horiz-adv-x="833" 
d="M61 0v525h126v-82h2q51 94 158 94q46 0 81.5 -25.5t48.5 -65.5h3q54 91 158 91q57 0 98.5 -39.5t41.5 -103.5v-394h-132v359q0 75 -69 75q-35 0 -63 -29.5t-29 -73.5v-331h-132v362q-2 72 -69 72q-35 0 -63 -30.5t-28 -75.5v-328h-132z" />
    <glyph glyph-name="n" unicode="n" horiz-adv-x="541" 
d="M61 0v525h127v-80h2q51 92 157 92q57 0 97.5 -40.5t40.5 -104.5v-392h-132v358q0 76 -69 76q-35 0 -63 -30.5t-28 -75.5v-328h-132z" />
    <glyph glyph-name="o" unicode="o" horiz-adv-x="523" 
d="M262 -12q-94 0 -154 48t-60 146v156q0 95 60.5 147t151.5 52q93 0 154 -49t61 -147v-157q0 -97 -61 -146.5t-152 -49.5zM263 89q79 0 79 89v170q0 39 -21 63.5t-60 24.5q-41 0 -60.5 -25.5t-19.5 -66.5v-167q0 -88 82 -88z" />
    <glyph glyph-name="p" unicode="p" horiz-adv-x="535" 
d="M61 -178v703h127v-81h2q24 45 65 69.5t82 24.5q74 0 112 -47t38 -120v-205q0 -76 -45 -127t-119 -51q-37 0 -74.5 20.5t-53.5 55.5h-2v-242h-132zM286 84q69 0 69 80v193q0 77 -73 77q-37 0 -63 -31.5t-26 -84.5v-125q0 -48 28.5 -78.5t64.5 -30.5z" />
    <glyph glyph-name="q" unicode="q" horiz-adv-x="532" 
d="M342 -178v256h-2q-23 -42 -62.5 -66t-78.5 -24q-74 0 -112.5 48t-38.5 121v206q0 77 46 125.5t118 48.5q41 0 80.5 -21.5t58.5 -59.5h2l5 70h117v-704h-133zM248 91q34 0 64 31.5t30 80.5v132q0 47 -28 76.5t-65 29.5q-69 0 -69 -83v-194q0 -73 68 -73z" />
    <glyph glyph-name="r" unicode="r" horiz-adv-x="381" 
d="M61 0v525h128v-84h1q23 46 52.5 68t74.5 22q26 0 45 -4v-119q-24 3 -50 3q-45 0 -81.5 -23t-37.5 -78v-310h-132z" />
    <glyph glyph-name="s" unicode="s" horiz-adv-x="468" 
d="M229 -12q-130 0 -206 77l67 86q80 -63 138 -63q36 0 56 14t20 39q0 26 -19 38.5t-60 25.5l-48 16q-124 37 -124 152q0 66 49 115t137 49q107 0 177 -60l-65 -86q-59 46 -114 46q-30 0 -47 -12t-17 -33q0 -22 13 -33.5t44 -23.5l66 -22q135 -45 135 -158q0 -75 -58 -121
t-144 -46z" />
    <glyph glyph-name="t" unicode="t" horiz-adv-x="383" 
d="M241 -10q-58 0 -97.5 28t-39.5 95v300h-73v106h73v139h134v-139h119v-106h-119v-259q0 -48 51 -48q23 0 55 7v-106q-51 -17 -103 -17z" />
    <glyph glyph-name="u" unicode="u" 
d="M201 -12q-59 0 -101 38.5t-42 106.5v392h132v-354q0 -80 67 -80q38 0 65.5 31.5t27.5 77.5v325h132v-525h-123l-4 82h-2q-19 -40 -61.5 -67t-90.5 -27z" />
    <glyph glyph-name="v" unicode="v" horiz-adv-x="485" 
d="M179 -1l-163 526h141l91 -344h2l95 344h123l-164 -526h-125z" />
    <glyph glyph-name="w" unicode="w" horiz-adv-x="719" 
d="M150 -1l-129 526h137l62 -315h5l78 315h127l76 -315h4l67 315h120l-132 -526h-118l-85 361h-3l-88 -361h-121z" />
    <glyph glyph-name="x" unicode="x" horiz-adv-x="478" 
d="M9 0l155 269l-142 256h143l87 -164l84 164h127l-144 -253l150 -272h-142l-96 180l-95 -180h-127z" />
    <glyph glyph-name="y" unicode="y" horiz-adv-x="488" 
d="M127 -188q-45 0 -80 9l7 108q30 -8 64 -8q42 0 58 44l14 47l-176 513h139l104 -341h1l97 341h120l-177 -565q-25 -78 -67 -113t-104 -35z" />
    <glyph glyph-name="z" unicode="z" horiz-adv-x="462" 
d="M40 0v84l221 339h-215v102h375v-87l-216 -335h216v-103h-381z" />
    <glyph glyph-name="braceleft" unicode="{" horiz-adv-x="296" 
d="M166 -176q-38 0 -61 23.5t-23 69.5v272q0 31 -9 43.5t-33 14.5v80q27 5 34.5 14.5t7.5 33.5v243q0 47 23 71t62 24h106v-75h-63q-20 0 -20 -23v-230q0 -39 -9.5 -60t-35.5 -31v-5q29 -12 37 -30.5t8 -60.5v-277q0 -22 20 -22h63v-75h-107z" />
    <glyph glyph-name="bar" unicode="|" horiz-adv-x="282" 
d="M101 -53v774h80v-774h-80z" />
    <glyph glyph-name="braceright" unicode="}" horiz-adv-x="296" 
d="M23 -176v75h63q19 0 19 22v277q0 42 8.5 60.5t37.5 30.5v5q-26 10 -36 31.5t-10 59.5v232q0 22 -19 22h-63v75h106q39 0 62 -24t23 -70v-245q0 -24 7.5 -33.5t32.5 -14.5v-80q-24 -2 -32 -14.5t-8 -43.5v-272q0 -46 -23 -69.5t-62 -23.5h-106z" />
    <glyph glyph-name="asciitilde" unicode="~" 
d="M106 242l-59 12q8 54 34 88t71 34q28 0 119 -16.5t118 -16.5q30 0 46 47l58 -14q-18 -122 -104 -122q-27 0 -119 16.5t-119 16.5q-20 0 -28.5 -10.5t-16.5 -34.5z" />
    <glyph glyph-name="nbspace" unicode="&#xa0;" horiz-adv-x="0" 
 />
    <glyph glyph-name="exclamdown" unicode="&#xa1;" horiz-adv-x="262" 
d="M66 -159v253l24 246h81l25 -246v-253h-130zM68 405v149h126v-149h-126z" />
    <glyph glyph-name="cent" unicode="&#xa2;" horiz-adv-x="507" 
d="M215 -63v74q-76 9 -120.5 56.5t-44.5 129.5v154q0 81 45.5 130t119.5 62v74h99v-74q69 -11 108 -52.5t39 -102.5v-38h-119v31q0 31 -19.5 52t-58.5 21q-42 0 -62.5 -25.5t-20.5 -67.5v-166q0 -95 83 -95q40 0 59 21t19 52v32h119v-42q0 -62 -38.5 -102t-108.5 -50v-74
h-99z" />
    <glyph glyph-name="sterling" unicode="&#xa3;" horiz-adv-x="560" 
d="M42 0v110h70v203h-57v80h57v137q0 98 62 146.5t148 48.5q82 0 134 -43t52 -124v-52h-112v51q0 68 -74 68q-34 0 -55 -21t-21 -58v-153h168v-80h-168v-203h281l-23 -110h-462z" />
    <glyph glyph-name="currency" unicode="&#xa4;" horiz-adv-x="419" 
d="M85 175l-41 40l44 44q-28 40 -28 87q0 44 24 81q-2 1 -12.5 12l-21 22t-11.5 12l40 39l43 -43q43 28 87 28q45 0 81 -24l45 45l40 -40l-43 -44q28 -40 28 -89q0 -43 -25 -81l44 -44l-39 -41l-44 44q-40 -27 -86 -27q-43 0 -81 23zM209 248q45 0 68.5 27.5t23.5 70.5
q0 42 -25 70.5t-66 28.5q-44 0 -68 -28t-24 -72q0 -39 25.5 -68t65.5 -29z" />
    <glyph glyph-name="yen" unicode="&#xa5;" horiz-adv-x="566" 
d="M211 0v244h-161v87h139l-177 382h149l129 -293l126 293h138l-177 -382h140v-87h-162v-244h-144z" />
    <glyph glyph-name="brokenbar" unicode="&#xa6;" horiz-adv-x="286" 
d="M100 -48v363h86v-363h-86zM100 382v332h86v-332h-86z" />
    <glyph glyph-name="section" unicode="&#xa7;" horiz-adv-x="481" 
d="M232 -80q-75 0 -133.5 36.5t-58.5 116.5v30h104v-12q0 -39 25 -64.5t76 -25.5q42 0 64 22.5t22 54.5t-20.5 48.5t-54.5 28.5q-44 13 -76 24q-131 42 -131 145q0 74 71 123q-66 40 -66 117q0 69 49 113t137 44q85 0 135 -40t50 -113v-28h-97v27q0 31 -23 52t-63 21
q-41 0 -63.5 -18.5t-22.5 -49.5q0 -47 64 -70l87 -31q60 -20 96 -52.5t36 -89.5q0 -76 -74 -123q75 -42 74 -116q0 -74 -57.5 -122t-149.5 -48zM275 249q26 9 41.5 27.5t15.5 40.5q0 41 -59 65q-54 19 -69 22q-52 -27 -52 -75q0 -39 62 -61z" />
    <glyph glyph-name="dieresis" unicode="&#xa8;" horiz-adv-x="387" 
d="M46 595v135h111v-135h-111zM230 595v135h111v-135h-111z" />
    <glyph glyph-name="copyright" unicode="&#xa9;" horiz-adv-x="842" 
d="M424 77q-83 0 -134.5 43t-51.5 126v199q0 80 52.5 124.5t133.5 44.5q76 0 126.5 -38t50.5 -107v-58h-101v51q0 26 -19 45t-55 19q-78 0 -78 -84v-194q0 -83 78 -83q36 0 55 19t19 45v54h101v-61q0 -69 -50.5 -107t-126.5 -38zM420 -50q-172 0 -270.5 112.5t-98.5 285.5
q0 166 103 281t266 115q113 0 199 -54t129.5 -143.5t43.5 -198.5q0 -168 -101.5 -283t-270.5 -115zM422 8q125 0 211.5 94.5t86.5 245.5q0 155 -86.5 247.5t-213.5 92.5q-128 0 -212 -93t-84 -247q0 -155 85 -247.5t213 -92.5z" />
    <glyph glyph-name="ordfeminine" unicode="&#xaa;" horiz-adv-x="353" 
d="M130 381q-41 0 -68 24.5t-27 70.5q0 55 44 81.5t100 26.5h37v37q0 40 -45 40q-21 0 -33 -10.5t-12 -26.5v-17h-81v19q0 45 38 71t96 26q55 0 90.5 -26t35.5 -77v-155q0 -27 5 -77h-84q0 7 -3 43q-29 -50 -93 -50zM168 444q18 0 33 15t15 37v40h-34q-55 0 -55 -47
q0 -45 41 -45zM55 263v75h250v-75h-250z" />
    <glyph glyph-name="guillemotleft" unicode="&#xab;" horiz-adv-x="500" 
d="M176 88l-143 180l142 181l69 -42l-75 -139l78 -140zM396 88l-143 180l143 181l68 -42l-75 -139l78 -140z" />
    <glyph glyph-name="logicalnot" unicode="&#xac;" horiz-adv-x="572" 
d="M423 144v130h-379v80h469v-210h-90z" />
    <glyph glyph-name="registered" unicode="&#xae;" horiz-adv-x="510" 
d="M253 297q-98 0 -157 65t-59 161q0 95 61 160t156 65q98 0 158.5 -64.5t60.5 -160.5q0 -95 -61.5 -160.5t-158.5 -65.5zM253 338q70 0 121 51.5t51 133.5t-50.5 133.5t-121.5 51.5q-70 0 -118.5 -51t-48.5 -134t50 -134t117 -51zM166 397v261h102q42 0 64.5 -22.5
t22.5 -57.5q0 -56 -51 -78l60 -103h-60l-54 95h-27v-95h-57zM223 534h35q42 0 42 40q0 18 -11 29t-31 11h-35v-80z" />
    <glyph glyph-name="macron" unicode="&#xaf;" horiz-adv-x="408" 
d="M49 601v92h310v-92h-310z" />
    <glyph glyph-name="degree" unicode="&#xb0;" horiz-adv-x="304" 
d="M151 516q-49 0 -80 32t-31 76q0 45 32.5 78t78.5 33q50 0 81.5 -31.5t31.5 -76.5q0 -46 -33 -78.5t-80 -32.5zM151 569q23 0 38.5 16t15.5 39q0 24 -14.5 41.5t-39.5 17.5q-22 0 -37 -16.5t-15 -42.5q0 -23 15 -39t37 -16z" />
    <glyph glyph-name="plusminus" unicode="&#xb1;" 
d="M229 182v150h-165v84h165v155h83v-155h164v-84h-164v-150h-83zM64 30v85h411v-85h-411z" />
    <glyph glyph-name="twosuperior" unicode="&#xb2;" horiz-adv-x="331" 
d="M43 380v59l101 107q65 75 65 114v3q0 44 -43 44q-44 0 -44 -46v-15h-89v23q0 53 37 82.5t97 29.5q62 0 97 -32.5t35 -84.5q0 -31 -15 -62.5t-29.5 -49t-46.5 -52.5l-39 -46h133v-74h-259z" />
    <glyph glyph-name="threesuperior" unicode="&#xb3;" horiz-adv-x="339" 
d="M168 368q-67 0 -102.5 29t-35.5 81v16h88v-13q0 -20 13.5 -30.5t33.5 -10.5q47 0 47 54q0 27 -16 39t-34 12h-36v63h30q52 0 52 52q0 24 -13 35.5t-31 11.5q-45 0 -45 -41v-11h-86v16q0 51 35.5 81t97.5 30t97.5 -30.5t35.5 -79.5q0 -31 -16.5 -57t-47.5 -35v-2
q34 -8 54 -33.5t20 -58.5q0 -60 -38.5 -89t-102.5 -29z" />
    <glyph glyph-name="acute" unicode="&#xb4;" horiz-adv-x="288" 
d="M47 584l86 155h130l-117 -155h-99z" />
    <glyph glyph-name="mu" unicode="&#xb5;" horiz-adv-x="560" 
d="M58 -178v704h134v-352q0 -37 18.5 -59t56.5 -22q35 0 62.5 29.5t27.5 74.5v329h133v-343q0 -51 47 -62l-1 -126q-115 16 -140 89q-36 -96 -128 -96q-77 0 -103 58l-5 -1l25 -212z" />
    <glyph glyph-name="paragraph" unicode="&#xb6;" horiz-adv-x="543" 
d="M214 -82v303q-80 12 -122.5 79.5t-42.5 160.5q0 101 54.5 176.5t136.5 75.5h262v-81h-52v-714h-76v714h-85v-714h-75z" />
    <glyph glyph-name="periodcentered" unicode="&#xb7;" horiz-adv-x="248" 
d="M58 270v149h131v-149h-131z" />
    <glyph glyph-name="periodcentered" unicode="&#x22c5;" horiz-adv-x="248" 
d="M58 270v149h131v-149h-131z" />
    <glyph glyph-name="cedilla" unicode="&#xb8;" horiz-adv-x="339" 
d="M155 -208q-52 0 -96 12v57q50 -13 91 -13q43 0 43 27q0 25 -47 27l-42 3l28 106h55l-17 -64q112 -2 112 -69q0 -38 -36.5 -62t-90.5 -24z" />
    <glyph glyph-name="onesuperior" unicode="&#xb9;" horiz-adv-x="276" 
d="M103 380v314l-49 -11l-10 68l102 27h52v-398h-95z" />
    <glyph glyph-name="ordmasculine" unicode="&#xba;" horiz-adv-x="365" 
d="M181 382q-60 0 -98.5 29t-38.5 91v99q0 61 38.5 92.5t96.5 31.5q61 0 100 -30t39 -92v-101q0 -60 -39.5 -90t-97.5 -30zM181 448q46 0 46 51v109q0 50 -46 50t-46 -51v-108q0 -51 46 -51zM58 263v75h250v-75h-250z" />
    <glyph glyph-name="guillemotright" unicode="&#xbb;" horiz-adv-x="500" 
d="M105 89l-70 42l76 139l-78 139l71 41l143 -180zM325 89l-70 42l76 139l-78 139l71 41l144 -180z" />
    <glyph glyph-name="onequarter" unicode="&#xbc;" horiz-adv-x="769" 
d="M130 316v314l-49 -11l-10 68l102 27h52v-398h-95zM575 0v86h-162v67l143 243h98l-149 -238h70v51l94 64v-115h41v-72h-41v-86h-94zM136 -2l389 720h66l-389 -720h-66z" />
    <glyph glyph-name="onehalf" unicode="&#xbd;" horiz-adv-x="769" 
d="M126 316v314l-49 -11l-10 68l102 27h52v-398h-95zM455 0v59l101 107q65 75 65 114v3q0 44 -43 44q-44 0 -44 -46v-15h-89v23q0 53 37 82.5t97 29.5q62 0 97 -32.5t35 -84.5q0 -31 -15 -62.5t-29.5 -49t-46.5 -52.5l-39 -46h133v-74h-259zM133 -2l389 720h66l-389 -720
h-66z" />
    <glyph glyph-name="threequarters" unicode="&#xbe;" horiz-adv-x="769" 
d="M593 0v86h-162v67l143 243h98l-149 -238h70v51l94 64v-115h41v-72h-41v-86h-94zM178 304q-67 0 -102.5 29t-35.5 81v16h88v-13q0 -20 13.5 -30.5t33.5 -10.5q47 0 47 54q0 27 -16 39t-34 12h-36v63h30q52 0 52 52q0 24 -13 35.5t-31 11.5q-45 0 -45 -41v-11h-86v16
q0 51 35.5 81t97.5 30t97.5 -30.5t35.5 -79.5q0 -31 -16.5 -57t-47.5 -35v-2q34 -8 54 -33.5t20 -58.5q0 -60 -38.5 -89t-102.5 -29zM174 -2l389 720h66l-389 -720h-66z" />
    <glyph glyph-name="questiondown" unicode="&#xbf;" horiz-adv-x="495" 
d="M247 -168q-96 0 -149.5 49.5t-53.5 136.5q-1 57 22.5 98t65.5 81q4 4 18.5 17.5t20.5 20.5t16 19.5t14 25.5t5 28v32h120v-30q-4 -80 -65 -146q-3 -3 -15 -15.5t-15.5 -16.5t-13.5 -15.5t-14 -17.5t-10.5 -17t-9 -19.5t-5 -19.5t-2.5 -22q0 -39 20.5 -60t59.5 -21
q33 0 55 20.5t22 58.5v16h113v-16q0 -87 -56.5 -137t-142.5 -50zM198 405v150h134v-150h-134z" />
    <glyph glyph-name="Agrave" unicode="&#xc0;" horiz-adv-x="630" 
d="M20 0l210 714h174l207 -714h-144l-47 171h-222l-46 -171h-132zM228 280h162l-79 295h-3zM261 761l-119 155h131l86 -155h-98z" />
    <glyph glyph-name="Aacute" unicode="&#xc1;" horiz-adv-x="630" 
d="M20 0l210 714h174l207 -714h-144l-47 171h-222l-46 -171h-132zM228 280h162l-79 295h-3zM277 762l86 155h130l-117 -155h-99z" />
    <glyph glyph-name="Acircumflex" unicode="&#xc2;" horiz-adv-x="630" 
d="M20 0l210 714h174l207 -714h-144l-47 171h-222l-46 -171h-132zM228 280h162l-79 295h-3zM158 763l107 160h95l106 -160h-103l-53 89l-54 -89h-98z" />
    <glyph glyph-name="Atilde" unicode="&#xc3;" horiz-adv-x="630" 
d="M20 0l210 714h174l207 -714h-144l-47 171h-222l-46 -171h-132zM228 280h162l-79 295h-3zM195 760l-65 12q6 53 34.5 88.5t73.5 35.5q26 0 77 -18t77 -18q18 0 28 12t19 36l58 -15q-7 -51 -33 -85.5t-72 -34.5q-26 0 -77 17.5t-75 17.5q-20 0 -28.5 -11t-16.5 -37z" />
    <glyph glyph-name="Adieresis" unicode="&#xc4;" horiz-adv-x="630" 
d="M20 0l210 714h174l207 -714h-144l-47 171h-222l-46 -171h-132zM228 280h162l-79 295h-3zM173 774v135h111v-135h-111zM357 774v135h111v-135h-111z" />
    <glyph glyph-name="Aring" unicode="&#xc5;" horiz-adv-x="630" 
d="M20 0l210 714h174l207 -714h-144l-47 171h-222l-46 -171h-132zM228 280h162l-79 295h-3zM315 745q-43 0 -70.5 27t-27.5 69t28.5 71t68.5 29q45 0 72 -25.5t27 -69.5q0 -42 -28.5 -71.5t-69.5 -29.5zM314 791q22 0 34 14t12 38q0 52 -47 52q-21 0 -32 -14.5t-11 -38.5
q0 -23 12 -37t32 -14z" />
    <glyph glyph-name="AE" unicode="&#xc6;" horiz-adv-x="901" 
d="M17 0l305 713h531v-116h-299v-177h238v-116h-238v-187h300v-117h-442v168l-181 1l-71 -169h-143zM271 275h141v334h-2z" />
    <glyph glyph-name="Ccedilla" unicode="&#xc7;" horiz-adv-x="599" 
d="M308 -208q-52 0 -96 12v57q50 -13 91 -13q43 0 43 27q0 25 -47 27l-42 3l22 84q-102 8 -165 65t-63 162v281q0 105 74 166.5t185 61.5q106 0 174 -54.5t68 -150.5v-48h-129v35q0 47 -30.5 74.5t-82.5 27.5q-54 0 -84.5 -30t-30.5 -83v-274q0 -58 31 -88t86 -30
q50 0 80.5 27t30.5 72v39h129v-48q0 -92 -60.5 -145.5t-157.5 -59.5l-11 -42q112 -2 112 -69q0 -38 -36.5 -62t-90.5 -24z" />
    <glyph glyph-name="Egrave" unicode="&#xc8;" horiz-adv-x="556" 
d="M66 0v713h442v-117h-299v-174h238v-117h-238v-187h300v-118h-443zM260 762l-119 155h131l86 -155h-98z" />
    <glyph glyph-name="Eacute" unicode="&#xc9;" horiz-adv-x="556" 
d="M230 762l86 155h130l-117 -155h-99zM66 0v713h442v-117h-299v-174h238v-117h-238v-187h300v-118h-443z" />
    <glyph glyph-name="Ecircumflex" unicode="&#xca;" horiz-adv-x="556" 
d="M139 763l107 160h95l106 -160h-103l-53 89l-54 -89h-98zM66 0v713h442v-117h-299v-174h238v-117h-238v-187h300v-118h-443z" />
    <glyph glyph-name="Edieresis" unicode="&#xcb;" horiz-adv-x="556" 
d="M151 773v135h111v-135h-111zM335 773v135h111v-135h-111zM66 0v713h442v-117h-299v-174h238v-117h-238v-187h300v-118h-443z" />
    <glyph glyph-name="Igrave" unicode="&#xcc;" horiz-adv-x="270" 
d="M65 0v713h143v-713h-143zM80 762l-119 155h131l86 -155h-98z" />
    <glyph glyph-name="Iacute" unicode="&#xcd;" horiz-adv-x="270" 
d="M65 0v713h143v-713h-143zM95 762l86 155h130l-117 -155h-99z" />
    <glyph glyph-name="Icircumflex" unicode="&#xce;" horiz-adv-x="270" 
d="M65 0v713h143v-713h-143zM-15 763l107 160h95l106 -160h-103l-53 89l-54 -89h-98z" />
    <glyph glyph-name="Idieresis" unicode="&#xcf;" horiz-adv-x="270" 
d="M65 0v713h143v-713h-143zM-5 773v135h111v-135h-111zM179 773v135h111v-135h-111z" />
    <glyph glyph-name="Eth" unicode="&#xd0;" horiz-adv-x="637" 
d="M32 315v94h52v304h261q108 0 175 -53t67 -156v-282q0 -110 -67 -166t-175 -56h-261v315h-52zM227 115h103q56 0 84.5 33t28.5 78v262q0 49 -29.5 79.5t-84.5 30.5h-102v-189h129v-94h-129v-200z" />
    <glyph glyph-name="Ntilde" unicode="&#xd1;" horiz-adv-x="647" 
d="M66 0v713h141l246 -431h2v431h128v-713h-120l-268 467h-2v-467h-127zM217 760l-65 12q6 53 34.5 88.5t73.5 35.5q26 0 77 -18t77 -18q18 0 28 12t19 36l58 -15q-7 -51 -33 -85.5t-72 -34.5q-26 0 -77 17.5t-75 17.5q-20 0 -28.5 -11t-16.5 -37z" />
    <glyph glyph-name="Ograve" unicode="&#xd2;" horiz-adv-x="624" 
d="M312 -12q-115 0 -188 57.5t-73 176.5v263q0 115 73.5 177.5t186.5 62.5q74 0 131.5 -23t94.5 -77t37 -134v-263q0 -118 -74.5 -179t-187.5 -61zM313 106q54 0 85.5 32t31.5 86v270q0 54 -33 84t-87 30q-56 0 -85.5 -32t-29.5 -88v-263q0 -56 30.5 -87.5t87.5 -31.5z
M265 762l-119 155h131l86 -155h-98z" />
    <glyph glyph-name="Oacute" unicode="&#xd3;" horiz-adv-x="624" 
d="M254 762l86 155h130l-117 -155h-99zM312 -12q-115 0 -188 57.5t-73 176.5v263q0 115 73.5 177.5t186.5 62.5q74 0 131.5 -23t94.5 -77t37 -134v-263q0 -118 -74.5 -179t-187.5 -61zM313 106q54 0 85.5 32t31.5 86v270q0 54 -33 84t-87 30q-56 0 -85.5 -32t-29.5 -88v-263
q0 -56 30.5 -87.5t87.5 -31.5z" />
    <glyph glyph-name="Ocircumflex" unicode="&#xd4;" horiz-adv-x="624" 
d="M156 763l107 160h95l106 -160h-103l-53 89l-54 -89h-98zM312 -12q-115 0 -188 57.5t-73 176.5v263q0 115 73.5 177.5t186.5 62.5q74 0 131.5 -23t94.5 -77t37 -134v-263q0 -118 -74.5 -179t-187.5 -61zM313 106q54 0 85.5 32t31.5 86v270q0 54 -33 84t-87 30
q-56 0 -85.5 -32t-29.5 -88v-263q0 -56 30.5 -87.5t87.5 -31.5z" />
    <glyph glyph-name="Otilde" unicode="&#xd5;" horiz-adv-x="624" 
d="M312 -12q-115 0 -188 57.5t-73 176.5v263q0 115 73.5 177.5t186.5 62.5q74 0 131.5 -23t94.5 -77t37 -134v-263q0 -118 -74.5 -179t-187.5 -61zM313 106q54 0 85.5 32t31.5 86v270q0 54 -33 84t-87 30q-56 0 -85.5 -32t-29.5 -88v-263q0 -56 30.5 -87.5t87.5 -31.5z
M189 760l-65 12q6 53 34.5 88.5t73.5 35.5q26 0 77 -18t77 -18q18 0 28 12t19 36l58 -15q-7 -51 -33 -85.5t-72 -34.5q-26 0 -77 17.5t-75 17.5q-20 0 -28.5 -11t-16.5 -37z" />
    <glyph glyph-name="Odieresis" unicode="&#xd6;" horiz-adv-x="624" 
d="M168 773v135h111v-135h-111zM352 773v135h111v-135h-111zM312 -12q-115 0 -188 57.5t-73 176.5v263q0 115 73.5 177.5t186.5 62.5q74 0 131.5 -23t94.5 -77t37 -134v-263q0 -118 -74.5 -179t-187.5 -61zM313 106q54 0 85.5 32t31.5 86v270q0 54 -33 84t-87 30
q-56 0 -85.5 -32t-29.5 -88v-263q0 -56 30.5 -87.5t87.5 -31.5z" />
    <glyph glyph-name="multiply" unicode="&#xd7;" 
d="M130 114l-59 59l141 146l-144 145l59 60l145 -144q16 17 73.5 75t67.5 68l60 -59l-142 -144q22 -23 71 -73t71 -73l-60 -59l-141 144q-8 -8 -142 -145z" />
    <glyph glyph-name="Oslash" unicode="&#xd8;" horiz-adv-x="622" 
d="M145 -66l-60 27l41 83q-75 60 -75 178v263q0 115 73.5 177.5t186.5 62.5q77 0 140 -29l35 70l61 -27l-40 -79q67 -62 67 -169v-263q0 -118 -74.5 -179t-187.5 -61q-73 0 -129 22zM195 225q0 -21 4 -36l195 392q-31 27 -84 27q-56 0 -85.5 -32t-29.5 -88v-263zM313 106
q54 0 85.5 32t31.5 86v270q0 1 -0.5 4.5t-0.5 5.5l-189 -379q30 -19 73 -19z" />
    <glyph glyph-name="Ugrave" unicode="&#xd9;" horiz-adv-x="634" 
d="M315 -12q-117 0 -186 57t-69 173v495h143v-487q0 -63 33 -93t85 -30t83.5 32.5t30.5 88.5v489h137v-488q1 -112 -70.5 -174.5t-186.5 -62.5zM278 759l-119 155h131l86 -155h-98z" />
    <glyph glyph-name="Uacute" unicode="&#xda;" horiz-adv-x="634" 
d="M277 761l86 155h130l-117 -155h-99zM315 -12q-117 0 -186 57t-69 173v495h143v-487q0 -63 33 -93t85 -30t83.5 32.5t30.5 88.5v489h137v-488q1 -112 -70.5 -174.5t-186.5 -62.5z" />
    <glyph glyph-name="Ucircumflex" unicode="&#xdb;" horiz-adv-x="634" 
d="M169 762l107 160h95l106 -160h-103l-53 89l-54 -89h-98zM315 -12q-117 0 -186 57t-69 173v495h143v-487q0 -63 33 -93t85 -30t83.5 32.5t30.5 88.5v489h137v-488q1 -112 -70.5 -174.5t-186.5 -62.5z" />
    <glyph glyph-name="Udieresis" unicode="&#xdc;" horiz-adv-x="634" 
d="M181 773v135h111v-135h-111zM365 773v135h111v-135h-111zM315 -12q-117 0 -186 57t-69 173v495h143v-487q0 -63 33 -93t85 -30t83.5 32.5t30.5 88.5v489h137v-488q1 -112 -70.5 -174.5t-186.5 -62.5z" />
    <glyph glyph-name="Yacute" unicode="&#xdd;" horiz-adv-x="575" 
d="M216 0v289l-199 424h151l128 -296l128 296h134l-199 -425v-288h-143zM252 758l86 155h130l-117 -155h-99z" />
    <glyph glyph-name="Thorn" unicode="&#xde;" horiz-adv-x="593" 
d="M66 0v713h142v-132h123q107 0 162 -58t55 -151q0 -100 -57 -162t-168 -62h-115v-148h-142zM208 250h88q54 0 83.5 30.5t29.5 85.5q0 49 -27 80t-75 31h-99v-227z" />
    <glyph glyph-name="germandbls" unicode="&#xdf;" horiz-adv-x="643" 
d="M423 -11q-93 0 -155 53l45 91q58 -42 99 -42q34 0 52 19t18 52q0 54 -48 90t-116 48v105l25 1q35 17 56.5 50t21.5 70q0 94 -95 94q-47 0 -69.5 -26.5t-22.5 -70.5v-523h-132v415h-66v104h66v9q0 78 59 138t173 60q100 0 159.5 -52.5t59.5 -132.5q0 -52 -27 -99t-77 -70
v-2q81 -33 119.5 -88t38.5 -111q0 -85 -53 -133.5t-131 -48.5z" />
    <glyph glyph-name="agrave" unicode="&#xe0;" horiz-adv-x="517" 
d="M187 -11q-64 0 -106 39t-42 112q0 46 20.5 81t54.5 54t71 28.5t76 9.5h65v64q0 32 -20 49.5t-57 17.5q-36 0 -56.5 -18.5t-20.5 -47.5v-23h-119v29q0 71 59 112t149 41q86 0 142 -41.5t56 -121.5v-250q0 -22 6 -124h-122q0 3 -1 12.5t-2 27t-2 36.5h-5q-15 -34 -44 -54.5
t-53.5 -26.5t-48.5 -6zM242 86q34 0 59 25.5t25 66.5v57h-56q-98 0 -98 -75q0 -36 19.5 -55t50.5 -19zM219 584l-119 155h131l86 -155h-98z" />
    <glyph glyph-name="aacute" unicode="&#xe1;" horiz-adv-x="517" 
d="M187 -11q-64 0 -106 39t-42 112q0 46 20.5 81t54.5 54t71 28.5t76 9.5h65v64q0 32 -20 49.5t-57 17.5q-36 0 -56.5 -18.5t-20.5 -47.5v-23h-119v29q0 71 59 112t149 41q86 0 142 -41.5t56 -121.5v-250q0 -22 6 -124h-122q0 3 -1 12.5t-2 27t-2 36.5h-5q-15 -34 -44 -54.5
t-53.5 -26.5t-48.5 -6zM242 86q34 0 59 25.5t25 66.5v57h-56q-98 0 -98 -75q0 -36 19.5 -55t50.5 -19zM197 584l86 155h130l-117 -155h-99z" />
    <glyph glyph-name="acircumflex" unicode="&#xe2;" horiz-adv-x="517" 
d="M187 -11q-64 0 -106 39t-42 112q0 46 20.5 81t54.5 54t71 28.5t76 9.5h65v64q0 32 -20 49.5t-57 17.5q-36 0 -56.5 -18.5t-20.5 -47.5v-23h-119v29q0 71 59 112t149 41q86 0 142 -41.5t56 -121.5v-250q0 -22 6 -124h-122q0 3 -1 12.5t-2 27t-2 36.5h-5q-15 -34 -44 -54.5
t-53.5 -26.5t-48.5 -6zM242 86q34 0 59 25.5t25 66.5v57h-56q-98 0 -98 -75q0 -36 19.5 -55t50.5 -19zM95 585l107 160h95l106 -160h-103l-53 89l-54 -89h-98z" />
    <glyph glyph-name="atilde" unicode="&#xe3;" horiz-adv-x="517" 
d="M187 -11q-64 0 -106 39t-42 112q0 46 20.5 81t54.5 54t71 28.5t76 9.5h65v64q0 32 -20 49.5t-57 17.5q-36 0 -56.5 -18.5t-20.5 -47.5v-23h-119v29q0 71 59 112t149 41q86 0 142 -41.5t56 -121.5v-250q0 -22 6 -124h-122q0 3 -1 12.5t-2 27t-2 36.5h-5q-15 -34 -44 -54.5
t-53.5 -26.5t-48.5 -6zM242 86q34 0 59 25.5t25 66.5v57h-56q-98 0 -98 -75q0 -36 19.5 -55t50.5 -19zM132 582l-65 12q6 53 34.5 88.5t73.5 35.5q26 0 77 -18t77 -18q18 0 28 12t19 36l58 -15q-7 -51 -33 -85.5t-72 -34.5q-26 0 -77 17.5t-75 17.5q-20 0 -28.5 -11
t-16.5 -37z" />
    <glyph glyph-name="adieresis" unicode="&#xe4;" horiz-adv-x="517" 
d="M187 -11q-64 0 -106 39t-42 112q0 46 20.5 81t54.5 54t71 28.5t76 9.5h65v64q0 32 -20 49.5t-57 17.5q-36 0 -56.5 -18.5t-20.5 -47.5v-23h-119v29q0 71 59 112t149 41q86 0 142 -41.5t56 -121.5v-250q0 -22 6 -124h-122q0 3 -1 12.5t-2 27t-2 36.5h-5q-15 -34 -44 -54.5
t-53.5 -26.5t-48.5 -6zM242 86q34 0 59 25.5t25 66.5v57h-56q-98 0 -98 -75q0 -36 19.5 -55t50.5 -19zM110 595v135h111v-135h-111zM294 595v135h111v-135h-111z" />
    <glyph glyph-name="aring" unicode="&#xe5;" horiz-adv-x="517" 
d="M187 -11q-64 0 -106 39t-42 112q0 46 20.5 81t54.5 54t71 28.5t76 9.5h65v64q0 32 -20 49.5t-57 17.5q-36 0 -56.5 -18.5t-20.5 -47.5v-23h-119v29q0 71 59 112t149 41q86 0 142 -41.5t56 -121.5v-250q0 -22 6 -124h-122q0 3 -1 12.5t-2 27t-2 36.5h-5q-15 -34 -44 -54.5
t-53.5 -26.5t-48.5 -6zM242 86q34 0 59 25.5t25 66.5v57h-56q-98 0 -98 -75q0 -36 19.5 -55t50.5 -19zM255 572q-43 0 -70.5 27t-27.5 69t28.5 71t68.5 29q45 0 72 -25.5t27 -69.5q0 -42 -28.5 -71.5t-69.5 -29.5zM254 618q22 0 34 14t12 38q0 52 -47 52q-21 0 -32 -14.5
t-11 -38.5q0 -23 12 -37t32 -14z" />
    <glyph glyph-name="ae" unicode="&#xe6;" horiz-adv-x="787" 
d="M191 -12q-64 0 -108 39.5t-44 112.5q0 46 20.5 81t54.5 54t71 28.5t76 9.5h65v64q0 32 -20 49.5t-57 17.5q-35 0 -56 -18.5t-21 -47.5v-23h-119v29q0 72 59 112.5t149 40.5q98 0 138 -53q53 53 143 53q91 0 146.5 -51t55.5 -141v-118h-285v-46q0 -88 109 -88q62 0 133 32
l31 -88q-72 -49 -187 -49q-134 0 -182 92q-28 -52 -78 -72t-94 -20zM242 86q34 0 59 24.5t25 64.5v60h-48q-106 0 -106 -75q0 -36 19.5 -55t50.5 -19zM459 311h159v44q0 37 -19.5 61.5t-60.5 24.5q-38 0 -58.5 -24.5t-20.5 -59.5v-46z" />
    <glyph glyph-name="ccedilla" unicode="&#xe7;" horiz-adv-x="494" 
d="M261 -208q-52 0 -96 12v57q50 -13 91 -13q43 0 43 27q0 25 -47 27l-42 3l22 84q-82 6 -133 54t-51 136v159q0 96 60.5 147.5t148.5 51.5q89 0 143.5 -44.5t54.5 -118.5v-35h-120v26q0 30 -18 50.5t-56 20.5q-80 0 -80 -86v-174q0 -41 21 -64.5t62 -23.5q37 0 54 22.5
t17 52.5v23h120v-37q0 -67 -45.5 -109t-122.5 -50l-11 -43q112 -2 112 -69q0 -38 -36.5 -62t-90.5 -24z" />
    <glyph glyph-name="egrave" unicode="&#xe8;" horiz-adv-x="510" 
d="M265 -12q-96 0 -156.5 49.5t-60.5 148.5v139q0 101 61.5 156.5t152.5 55.5q92 0 148 -52t56 -142v-116h-285v-44q0 -90 106 -90q56 0 136 32l30 -88q-76 -49 -188 -49zM181 311h158v44q0 37 -19.5 61.5t-59.5 24.5q-38 0 -58.5 -24.5t-20.5 -59.5v-46zM228 584l-119 155
h131l86 -155h-98z" />
    <glyph glyph-name="eacute" unicode="&#xe9;" horiz-adv-x="510" 
d="M213 584l86 155h130l-117 -155h-99zM265 -12q-96 0 -156.5 49.5t-60.5 148.5v139q0 101 61.5 156.5t152.5 55.5q92 0 148 -52t56 -142v-116h-285v-44q0 -90 106 -90q56 0 136 32l30 -88q-76 -49 -188 -49zM181 311h158v44q0 37 -19.5 61.5t-59.5 24.5q-38 0 -58.5 -24.5
t-20.5 -59.5v-46z" />
    <glyph glyph-name="ecircumflex" unicode="&#xea;" horiz-adv-x="510" 
d="M108 585l107 160h95l106 -160h-103l-53 89l-54 -89h-98zM265 -12q-96 0 -156.5 49.5t-60.5 148.5v139q0 101 61.5 156.5t152.5 55.5q92 0 148 -52t56 -142v-116h-285v-44q0 -90 106 -90q56 0 136 32l30 -88q-76 -49 -188 -49zM181 311h158v44q0 37 -19.5 61.5t-59.5 24.5
q-38 0 -58.5 -24.5t-20.5 -59.5v-46z" />
    <glyph glyph-name="edieresis" unicode="&#xeb;" horiz-adv-x="510" 
d="M116 595v135h111v-135h-111zM300 595v135h111v-135h-111zM265 -12q-96 0 -156.5 49.5t-60.5 148.5v139q0 101 61.5 156.5t152.5 55.5q92 0 148 -52t56 -142v-116h-285v-44q0 -90 106 -90q56 0 136 32l30 -88q-76 -49 -188 -49zM181 311h158v44q0 37 -19.5 61.5
t-59.5 24.5q-38 0 -58.5 -24.5t-20.5 -59.5v-46z" />
    <glyph glyph-name="igrave" unicode="&#xec;" horiz-adv-x="253" 
d="M61 0v525h132v-525h-132zM72 584l-119 155h131l86 -155h-98z" />
    <glyph glyph-name="iacute" unicode="&#xed;" horiz-adv-x="253" 
d="M73 584l86 155h130l-117 -155h-99zM61 0v525h132v-525h-132z" />
    <glyph glyph-name="icircumflex" unicode="&#xee;" horiz-adv-x="253" 
d="M-29 585l107 160h95l106 -160h-103l-53 89l-54 -89h-98zM61 0v525h132v-525h-132z" />
    <glyph glyph-name="idieresis" unicode="&#xef;" horiz-adv-x="253" 
d="M-16 595v135h111v-135h-111zM168 595v135h111v-135h-111zM61 0v525h132v-525h-132z" />
    <glyph glyph-name="eth" unicode="&#xf0;" horiz-adv-x="523" 
d="M262 -12q-94 0 -154 46t-60 144v143q0 83 48.5 134.5t122.5 53.5q22 0 32 -4l-47 69l-111 -32l-34 69l99 28l-42 64l134 34l40 -60l101 30l34 -69l-90 -28q80 -117 104 -155q36 -54 36 -123v-150q0 -97 -60 -145.5t-153 -48.5zM263 89q78 0 78 89v152q0 40 -20 64.5
t-59 24.5q-40 0 -60.5 -25t-20.5 -67v-151q0 -87 82 -87z" />
    <glyph glyph-name="ntilde" unicode="&#xf1;" horiz-adv-x="541" 
d="M61 0v525h127v-80h2q51 92 157 92q57 0 97.5 -40.5t40.5 -104.5v-392h-132v358q0 76 -69 76q-35 0 -63 -30.5t-28 -75.5v-328h-132zM169 582l-65 12q6 53 34.5 88.5t73.5 35.5q26 0 77 -18t77 -18q18 0 28 12t19 36l58 -15q-7 -51 -33 -85.5t-72 -34.5q-26 0 -77 17.5
t-75 17.5q-20 0 -28.5 -11t-16.5 -37z" />
    <glyph glyph-name="ograve" unicode="&#xf2;" horiz-adv-x="523" 
d="M262 -12q-94 0 -154 48t-60 146v156q0 95 60.5 147t151.5 52q93 0 154 -49t61 -147v-157q0 -97 -61 -146.5t-152 -49.5zM263 89q79 0 79 89v170q0 39 -21 63.5t-60 24.5q-41 0 -60.5 -25.5t-19.5 -66.5v-167q0 -88 82 -88zM220 584l-119 155h131l86 -155h-98z" />
    <glyph glyph-name="oacute" unicode="&#xf3;" horiz-adv-x="523" 
d="M205 584l86 155h130l-117 -155h-99zM262 -12q-94 0 -154 48t-60 146v156q0 95 60.5 147t151.5 52q93 0 154 -49t61 -147v-157q0 -97 -61 -146.5t-152 -49.5zM263 89q79 0 79 89v170q0 39 -21 63.5t-60 24.5q-41 0 -60.5 -25.5t-19.5 -66.5v-167q0 -88 82 -88z" />
    <glyph glyph-name="ocircumflex" unicode="&#xf4;" horiz-adv-x="523" 
d="M110 585l107 160h95l106 -160h-103l-53 89l-54 -89h-98zM262 -12q-94 0 -154 48t-60 146v156q0 95 60.5 147t151.5 52q93 0 154 -49t61 -147v-157q0 -97 -61 -146.5t-152 -49.5zM263 89q79 0 79 89v170q0 39 -21 63.5t-60 24.5q-41 0 -60.5 -25.5t-19.5 -66.5v-167
q0 -88 82 -88z" />
    <glyph glyph-name="otilde" unicode="&#xf5;" horiz-adv-x="523" 
d="M262 -12q-94 0 -154 48t-60 146v156q0 95 60.5 147t151.5 52q93 0 154 -49t61 -147v-157q0 -97 -61 -146.5t-152 -49.5zM263 89q79 0 79 89v170q0 39 -21 63.5t-60 24.5q-41 0 -60.5 -25.5t-19.5 -66.5v-167q0 -88 82 -88zM140 582l-65 12q6 53 34.5 88.5t73.5 35.5
q26 0 77 -18t77 -18q18 0 28 12t19 36l58 -15q-7 -51 -33 -85.5t-72 -34.5q-26 0 -77 17.5t-75 17.5q-20 0 -28.5 -11t-16.5 -37z" />
    <glyph glyph-name="odieresis" unicode="&#xf6;" horiz-adv-x="523" 
d="M118 595v135h111v-135h-111zM302 595v135h111v-135h-111zM262 -12q-94 0 -154 48t-60 146v156q0 95 60.5 147t151.5 52q93 0 154 -49t61 -147v-157q0 -97 -61 -146.5t-152 -49.5zM263 89q79 0 79 89v170q0 39 -21 63.5t-60 24.5q-41 0 -60.5 -25.5t-19.5 -66.5v-167
q0 -88 82 -88z" />
    <glyph glyph-name="divide" unicode="&#xf7;" 
d="M216 86v124h111v-124h-111zM65 277v84h410v-84h-410zM216 421v123h111v-123h-111z" />
    <glyph glyph-name="oslash" unicode="&#xf8;" horiz-adv-x="523" 
d="M139 -73l-54 26l36 73q-73 49 -73 156v156q0 95 60.5 147t151.5 52q56 0 104 -20l34 68l54 -27l-36 -72q59 -52 59 -145v-157q0 -97 -61 -146.5t-152 -49.5q-46 0 -87 12zM181 177q0 -18 2 -26l132 266q-21 19 -54 19q-41 0 -60.5 -25.5t-19.5 -66.5v-167zM263 89
q79 0 79 89v158l-119 -240q15 -7 40 -7z" />
    <glyph glyph-name="ugrave" unicode="&#xf9;" 
d="M201 -12q-59 0 -101 38.5t-42 106.5v392h132v-354q0 -80 67 -80q38 0 65.5 31.5t27.5 77.5v325h132v-525h-123l-4 82h-2q-19 -40 -61.5 -67t-90.5 -27zM224 584l-119 155h131l86 -155h-98z" />
    <glyph glyph-name="uacute" unicode="&#xfa;" 
d="M225 584l86 155h130l-117 -155h-99zM201 -12q-59 0 -101 38.5t-42 106.5v392h132v-354q0 -80 67 -80q38 0 65.5 31.5t27.5 77.5v325h132v-525h-123l-4 82h-2q-19 -40 -61.5 -67t-90.5 -27z" />
    <glyph glyph-name="ucircumflex" unicode="&#xfb;" 
d="M120 585l107 160h95l106 -160h-103l-53 89l-54 -89h-98zM201 -12q-59 0 -101 38.5t-42 106.5v392h132v-354q0 -80 67 -80q38 0 65.5 31.5t27.5 77.5v325h132v-525h-123l-4 82h-2q-19 -40 -61.5 -67t-90.5 -27z" />
    <glyph glyph-name="udieresis" unicode="&#xfc;" 
d="M129 595v135h111v-135h-111zM313 595v135h111v-135h-111zM201 -12q-59 0 -101 38.5t-42 106.5v392h132v-354q0 -80 67 -80q38 0 65.5 31.5t27.5 77.5v325h132v-525h-123l-4 82h-2q-19 -40 -61.5 -67t-90.5 -27z" />
    <glyph glyph-name="yacute" unicode="&#xfd;" horiz-adv-x="488" 
d="M127 -188q-45 0 -80 9l7 108q30 -8 64 -8q42 0 58 44l14 47l-176 513h139l104 -341h1l97 341h120l-177 -565q-25 -78 -67 -113t-104 -35zM208 584l86 155h130l-117 -155h-99z" />
    <glyph glyph-name="thorn" unicode="&#xfe;" horiz-adv-x="535" 
d="M61 -178v891h132v-260h3q22 39 62 62t80 23q73 0 111 -46t38 -118v-215q0 -74 -46 -122.5t-117 -48.5q-38 0 -76 19.5t-53 53.5h-2v-239h-132zM286 84q69 0 69 80v193q0 77 -73 77q-37 0 -63 -31.5t-26 -84.5v-125q0 -48 28.5 -78.5t64.5 -30.5z" />
    <glyph glyph-name="ydieresis" unicode="&#xff;" horiz-adv-x="488" 
d="M127 -188q-45 0 -80 9l7 108q30 -8 64 -8q42 0 58 44l14 47l-176 513h139l104 -341h1l97 341h120l-177 -565q-25 -78 -67 -113t-104 -35zM117 595v135h111v-135h-111zM301 595v135h111v-135h-111z" />
    <glyph glyph-name="Amacron" unicode="&#x100;" horiz-adv-x="630" 
d="M20 0l210 714h174l207 -714h-144l-47 171h-222l-46 -171h-132zM228 280h162l-79 295h-3zM159 779v92h310v-92h-310z" />
    <glyph glyph-name="amacron" unicode="&#x101;" horiz-adv-x="517" 
d="M187 -11q-64 0 -106 39t-42 112q0 46 20.5 81t54.5 54t71 28.5t76 9.5h65v64q0 32 -20 49.5t-57 17.5q-36 0 -56.5 -18.5t-20.5 -47.5v-23h-119v29q0 71 59 112t149 41q86 0 142 -41.5t56 -121.5v-250q0 -22 6 -124h-122q0 3 -1 12.5t-2 27t-2 36.5h-5q-15 -34 -44 -54.5
t-53.5 -26.5t-48.5 -6zM242 86q34 0 59 25.5t25 66.5v57h-56q-98 0 -98 -75q0 -36 19.5 -55t50.5 -19zM103 601v92h310v-92h-310z" />
    <glyph glyph-name="Abreve" unicode="&#x102;" horiz-adv-x="630" 
d="M20 0l210 714h174l207 -714h-144l-47 171h-222l-46 -171h-132zM228 280h162l-79 295h-3zM318 763q-78 0 -122 42t-47 116h89q7 -41 25 -60.5t58 -19.5q66 0 72 80h85q-3 -76 -48 -117t-112 -41z" />
    <glyph glyph-name="abreve" unicode="&#x103;" horiz-adv-x="517" 
d="M187 -11q-64 0 -106 39t-42 112q0 46 20.5 81t54.5 54t71 28.5t76 9.5h65v64q0 32 -20 49.5t-57 17.5q-36 0 -56.5 -18.5t-20.5 -47.5v-23h-119v29q0 71 59 112t149 41q86 0 142 -41.5t56 -121.5v-250q0 -22 6 -124h-122q0 3 -1 12.5t-2 27t-2 36.5h-5q-15 -34 -44 -54.5
t-53.5 -26.5t-48.5 -6zM242 86q34 0 59 25.5t25 66.5v57h-56q-98 0 -98 -75q0 -36 19.5 -55t50.5 -19zM262 585q-78 0 -122 42t-47 116h89q7 -41 25 -60.5t58 -19.5q66 0 72 80h85q-3 -76 -48 -117t-112 -41z" />
    <glyph glyph-name="Aogonek" unicode="&#x104;" horiz-adv-x="630" 
d="M537 -207q-45 0 -76.5 24.5t-31.5 71.5q0 66 57 111h-19l-47 171h-222l-46 -171h-132l210 714h174l207 -714h-31q-72 -28 -72 -90q0 -48 48 -48q28 0 55 19l32 -58q-39 -30 -106 -30zM228 280h162l-79 295h-3z" />
    <glyph glyph-name="aogonek" unicode="&#x105;" horiz-adv-x="517" 
d="M392 -207q-45 0 -76.5 24.5t-31.5 71.5q0 68 59 113q-2 22 -5 74h-5q-15 -34 -44 -54.5t-53.5 -26.5t-48.5 -6q-64 0 -106 39t-42 112q0 46 20.5 81t54.5 54t71 28.5t76 9.5h65v64q0 32 -20 49.5t-57 17.5q-36 0 -56.5 -18.5t-20.5 -47.5v-23h-119v29q0 71 59 112t149 41
q86 0 142 -41.5t56 -121.5v-250q0 -22 6 -124h-30q-72 -28 -72 -90q0 -48 48 -48q28 0 55 19l32 -58q-39 -30 -106 -30zM242 86q34 0 59 25.5t25 66.5v57h-56q-98 0 -98 -75q0 -36 19.5 -55t50.5 -19z" />
    <glyph glyph-name="Cacute" unicode="&#x106;" horiz-adv-x="599" 
d="M254 762l86 155h130l-117 -155h-99zM311 -12q-113 0 -186.5 57.5t-73.5 170.5v281q0 105 74 166.5t185 61.5q106 0 174 -54.5t68 -150.5v-48h-129v35q0 47 -30.5 74.5t-82.5 27.5q-54 0 -84.5 -30t-30.5 -83v-274q0 -58 31 -88t86 -30q50 0 80.5 27t30.5 72v39h129v-48
q0 -97 -68 -151.5t-173 -54.5z" />
    <glyph glyph-name="cacute" unicode="&#x107;" horiz-adv-x="494" 
d="M198 584l86 155h130l-117 -155h-99zM257 -12q-92 0 -150.5 48t-58.5 143v159q0 96 60.5 147.5t148.5 51.5q89 0 143.5 -44.5t54.5 -118.5v-35h-120v26q0 30 -18 50.5t-56 20.5q-80 0 -80 -86v-174q0 -41 21 -64.5t62 -23.5q37 0 54 22.5t17 52.5v23h120v-37
q0 -74 -54.5 -117.5t-143.5 -43.5z" />
    <glyph glyph-name="Ccircumflex" unicode="&#x108;" horiz-adv-x="599" 
d="M147 763l107 160h95l106 -160h-103l-53 89l-54 -89h-98zM311 -12q-113 0 -186.5 57.5t-73.5 170.5v281q0 105 74 166.5t185 61.5q106 0 174 -54.5t68 -150.5v-48h-129v35q0 47 -30.5 74.5t-82.5 27.5q-54 0 -84.5 -30t-30.5 -83v-274q0 -58 31 -88t86 -30q50 0 80.5 27
t30.5 72v39h129v-48q0 -97 -68 -151.5t-173 -54.5z" />
    <glyph glyph-name="ccircumflex" unicode="&#x109;" horiz-adv-x="494" 
d="M95 585l107 160h95l106 -160h-103l-53 89l-54 -89h-98zM257 -12q-92 0 -150.5 48t-58.5 143v159q0 96 60.5 147.5t148.5 51.5q89 0 143.5 -44.5t54.5 -118.5v-35h-120v26q0 30 -18 50.5t-56 20.5q-80 0 -80 -86v-174q0 -41 21 -64.5t62 -23.5q37 0 54 22.5t17 52.5v23
h120v-37q0 -74 -54.5 -117.5t-143.5 -43.5z" />
    <glyph glyph-name="Cdotaccent" unicode="&#x10a;" horiz-adv-x="599" 
d="M311 -12q-113 0 -186.5 57.5t-73.5 170.5v281q0 105 74 166.5t185 61.5q106 0 174 -54.5t68 -150.5v-48h-129v35q0 47 -30.5 74.5t-82.5 27.5q-54 0 -84.5 -30t-30.5 -83v-274q0 -58 31 -88t86 -30q50 0 80.5 27t30.5 72v39h129v-48q0 -97 -68 -151.5t-173 -54.5z
M241 773v136h118v-136h-118z" />
    <glyph glyph-name="cdotaccent" unicode="&#x10b;" horiz-adv-x="494" 
d="M257 -12q-92 0 -150.5 48t-58.5 143v159q0 96 60.5 147.5t148.5 51.5q89 0 143.5 -44.5t54.5 -118.5v-35h-120v26q0 30 -18 50.5t-56 20.5q-80 0 -80 -86v-174q0 -41 21 -64.5t62 -23.5q37 0 54 22.5t17 52.5v23h120v-37q0 -74 -54.5 -117.5t-143.5 -43.5zM197 595v136
h118v-136h-118z" />
    <glyph glyph-name="Ccaron" unicode="&#x10c;" horiz-adv-x="599" 
d="M249 768l-105 160h103l53 -90l54 90h101l-111 -160h-95zM311 -12q-113 0 -186.5 57.5t-73.5 170.5v281q0 105 74 166.5t185 61.5q106 0 174 -54.5t68 -150.5v-48h-129v35q0 47 -30.5 74.5t-82.5 27.5q-54 0 -84.5 -30t-30.5 -83v-274q0 -58 31 -88t86 -30q50 0 80.5 27
t30.5 72v39h129v-48q0 -97 -68 -151.5t-173 -54.5z" />
    <glyph glyph-name="ccaron" unicode="&#x10d;" horiz-adv-x="494" 
d="M207 590l-105 160h103l53 -90l54 90h101l-111 -160h-95zM257 -12q-92 0 -150.5 48t-58.5 143v159q0 96 60.5 147.5t148.5 51.5q89 0 143.5 -44.5t54.5 -118.5v-35h-120v26q0 30 -18 50.5t-56 20.5q-80 0 -80 -86v-174q0 -41 21 -64.5t62 -23.5q37 0 54 22.5t17 52.5v23
h120v-37q0 -74 -54.5 -117.5t-143.5 -43.5z" />
    <glyph glyph-name="Dcaron" unicode="&#x10e;" horiz-adv-x="619" 
d="M254 768l-105 160h103l53 -90l54 90h101l-111 -160h-95zM66 0v713h261q108 0 175 -53t67 -156v-282q0 -110 -67 -166t-175 -56h-261zM209 115h103q56 0 84.5 33t28.5 78v262q0 49 -29.5 79.5t-84.5 30.5h-102v-483z" />
    <glyph glyph-name="dcaron" unicode="&#x10f;" horiz-adv-x="535" 
d="M506 520l9 193h111l-30 -193h-90zM198 -12q-75 0 -112.5 48t-37.5 122v208q0 73 46.5 122t116.5 49q37 0 72 -18.5t57 -51.5h1v246h133v-713h-123l-3 81h-4q-24 -43 -63 -68t-83 -25zM251 91q36 0 63.5 31t27.5 79v137q0 44 -29.5 73.5t-63.5 29.5q-69 0 -69 -83v-191
q0 -76 71 -76z" />
    <glyph glyph-name="Dcroat" unicode="&#x110;" horiz-adv-x="637" 
d="M32 315v94h52v304h261q108 0 175 -53t67 -156v-282q0 -110 -67 -166t-175 -56h-261v315h-52zM227 115h103q56 0 84.5 33t28.5 78v262q0 49 -29.5 79.5t-84.5 30.5h-102v-189h129v-94h-129v-200z" />
    <glyph glyph-name="dcroat" unicode="&#x111;" horiz-adv-x="535" 
d="M217 580v70h124v63h133v-63h51v-70h-51v-580h-123l-3 81h-4q-24 -43 -63 -68t-83 -25q-75 0 -112.5 48t-37.5 122v208q0 73 46.5 122t116.5 49q37 0 72 -18.5t57 -51.5h1v113h-124zM251 91q36 0 63.5 31t27.5 79v137q0 44 -29.5 73.5t-63.5 29.5q-69 0 -69 -83v-191
q0 -76 71 -76z" />
    <glyph glyph-name="Emacron" unicode="&#x112;" horiz-adv-x="556" 
d="M66 0v713h442v-117h-299v-174h238v-117h-238v-187h300v-118h-443zM129 779v92h310v-92h-310z" />
    <glyph glyph-name="emacron" unicode="&#x113;" horiz-adv-x="510" 
d="M265 -12q-96 0 -156.5 49.5t-60.5 148.5v139q0 101 61.5 156.5t152.5 55.5q92 0 148 -52t56 -142v-116h-285v-44q0 -90 106 -90q56 0 136 32l30 -88q-76 -49 -188 -49zM181 311h158v44q0 37 -19.5 61.5t-59.5 24.5q-38 0 -58.5 -24.5t-20.5 -59.5v-46zM101 601v92h310
v-92h-310z" />
    <glyph glyph-name="Ebreve" unicode="&#x114;" horiz-adv-x="556" 
d="M66 0v713h442v-117h-299v-174h238v-117h-238v-187h300v-118h-443zM299 763q-78 0 -122 42t-47 116h89q7 -41 25 -60.5t58 -19.5q66 0 72 80h85q-3 -76 -48 -117t-112 -41z" />
    <glyph glyph-name="ebreve" unicode="&#x115;" horiz-adv-x="510" 
d="M265 -12q-96 0 -156.5 49.5t-60.5 148.5v139q0 101 61.5 156.5t152.5 55.5q92 0 148 -52t56 -142v-116h-285v-44q0 -90 106 -90q56 0 136 32l30 -88q-76 -49 -188 -49zM181 311h158v44q0 37 -19.5 61.5t-59.5 24.5q-38 0 -58.5 -24.5t-20.5 -59.5v-46zM258 585
q-78 0 -122 42t-47 116h89q7 -41 25 -60.5t58 -19.5q66 0 72 80h85q-3 -76 -48 -117t-112 -41z" />
    <glyph glyph-name="Edotaccent" unicode="&#x116;" horiz-adv-x="556" 
d="M66 0v713h442v-117h-299v-174h238v-117h-238v-187h300v-118h-443zM238 773v136h118v-136h-118z" />
    <glyph glyph-name="edotaccent" unicode="&#x117;" horiz-adv-x="510" 
d="M265 -12q-96 0 -156.5 49.5t-60.5 148.5v139q0 101 61.5 156.5t152.5 55.5q92 0 148 -52t56 -142v-116h-285v-44q0 -90 106 -90q56 0 136 32l30 -88q-76 -49 -188 -49zM181 311h158v44q0 37 -19.5 61.5t-59.5 24.5q-38 0 -58.5 -24.5t-20.5 -59.5v-46zM195 595v136h118
v-136h-118z" />
    <glyph glyph-name="Eogonek" unicode="&#x118;" horiz-adv-x="556" 
d="M66 0v713h442v-117h-299v-174h238v-117h-238v-187h300v-118h-41q-72 -28 -72 -90q0 -48 48 -48q28 0 55 19l32 -58q-39 -30 -106 -30q-45 0 -76.5 24.5t-31.5 71.5q0 66 57 111h-308z" />
    <glyph glyph-name="eogonek" unicode="&#x119;" horiz-adv-x="509" 
d="M265 -12q-96 0 -156.5 49.5t-60.5 148.5v139q0 101 61.5 156.5t152.5 55.5q92 0 148 -52t56 -142v-116h-285v-44q0 -90 106 -90q56 0 136 32l30 -88q-8 -5 -31 -17q-31 -17 -51 -48t-20 -62q0 -24 13 -36.5t35 -12.5q26 0 56 20l31 -58q-39 -30 -105 -30q-45 0 -77 24.5
t-32 71.5q0 56 43 102q-25 -3 -50 -3zM181 311h158v44q0 37 -19.5 61.5t-59.5 24.5q-38 0 -58.5 -24.5t-20.5 -59.5v-46z" />
    <glyph glyph-name="Ecaron" unicode="&#x11a;" horiz-adv-x="556" 
d="M244 768l-105 160h103l53 -90l54 90h101l-111 -160h-95zM66 0v713h442v-117h-299v-174h238v-117h-238v-187h300v-118h-443z" />
    <glyph glyph-name="ecaron" unicode="&#x11b;" horiz-adv-x="510" 
d="M204 590l-105 160h103l53 -90l54 90h101l-111 -160h-95zM265 -12q-96 0 -156.5 49.5t-60.5 148.5v139q0 101 61.5 156.5t152.5 55.5q92 0 148 -52t56 -142v-116h-285v-44q0 -90 106 -90q56 0 136 32l30 -88q-76 -49 -188 -49zM181 311h158v44q0 37 -19.5 61.5t-59.5 24.5
q-38 0 -58.5 -24.5t-20.5 -59.5v-46z" />
    <glyph glyph-name="Gcircumflex" unicode="&#x11c;" horiz-adv-x="608" 
d="M149 763l107 160h95l106 -160h-103l-53 89l-54 -89h-98zM310 -12q-113 0 -186 57.5t-73 170.5v281q0 106 74 167t185 61q104 0 174.5 -51.5t70.5 -145.5v-47h-131v31q0 45 -31 72.5t-80 27.5q-55 0 -87 -32t-32 -85v-275q0 -55 31 -86.5t87 -31.5q110 0 110 100v82h-119
v103h253v-196q0 -96 -70 -149.5t-176 -53.5z" />
    <glyph glyph-name="gcircumflex" unicode="&#x11d;" horiz-adv-x="534" 
d="M109 585l107 160h95l106 -160h-103l-53 89l-54 -89h-98zM247 -188q-112 0 -191 37l37 102q79 -34 145 -34q104 0 104 89v104h-1q-20 -44 -57.5 -68t-79.5 -24q-76 0 -116 43.5t-40 115.5v197q0 73 48 118.5t119 45.5q41 0 80.5 -22.5t57.5 -59.5h1l4 70h117v-496
q0 -105 -59.5 -161.5t-168.5 -56.5zM251 116q35 0 62.5 32.5t27.5 81.5v113q0 44 -28.5 71.5t-60.5 27.5q-72 0 -72 -88v-158q0 -80 71 -80z" />
    <glyph glyph-name="Gbreve" unicode="&#x11e;" horiz-adv-x="608" 
d="M310 -12q-113 0 -186 57.5t-73 170.5v281q0 106 74 167t185 61q104 0 174.5 -51.5t70.5 -145.5v-47h-131v31q0 45 -31 72.5t-80 27.5q-55 0 -87 -32t-32 -85v-275q0 -55 31 -86.5t87 -31.5q110 0 110 100v82h-119v103h253v-196q0 -96 -70 -149.5t-176 -53.5zM308 765
q-78 0 -122 42t-47 116h89q7 -41 25 -60.5t58 -19.5q66 0 72 80h85q-3 -76 -48 -117t-112 -41z" />
    <glyph glyph-name="gbreve" unicode="&#x11f;" horiz-adv-x="534" 
d="M247 -188q-112 0 -191 37l37 102q79 -34 145 -34q104 0 104 89v104h-1q-20 -44 -57.5 -68t-79.5 -24q-76 0 -116 43.5t-40 115.5v197q0 73 48 118.5t119 45.5q41 0 80.5 -22.5t57.5 -59.5h1l4 70h117v-496q0 -105 -59.5 -161.5t-168.5 -56.5zM251 116q35 0 62.5 32.5
t27.5 81.5v113q0 44 -28.5 71.5t-60.5 27.5q-72 0 -72 -88v-158q0 -80 71 -80zM261 585q-78 0 -122 42t-47 116h89q7 -41 25 -60.5t58 -19.5q66 0 72 80h85q-3 -76 -48 -117t-112 -41z" />
    <glyph glyph-name="Gdotaccent" unicode="&#x120;" horiz-adv-x="608" 
d="M310 -12q-113 0 -186 57.5t-73 170.5v281q0 106 74 167t185 61q104 0 174.5 -51.5t70.5 -145.5v-47h-131v31q0 45 -31 72.5t-80 27.5q-55 0 -87 -32t-32 -85v-275q0 -55 31 -86.5t87 -31.5q110 0 110 100v82h-119v103h253v-196q0 -96 -70 -149.5t-176 -53.5zM246 775v136
h118v-136h-118z" />
    <glyph glyph-name="gdotaccent" unicode="&#x121;" horiz-adv-x="534" 
d="M247 -188q-112 0 -191 37l37 102q79 -34 145 -34q104 0 104 89v104h-1q-20 -44 -57.5 -68t-79.5 -24q-76 0 -116 43.5t-40 115.5v197q0 73 48 118.5t119 45.5q41 0 80.5 -22.5t57.5 -59.5h1l4 70h117v-496q0 -105 -59.5 -161.5t-168.5 -56.5zM251 116q35 0 62.5 32.5
t27.5 81.5v113q0 44 -28.5 71.5t-60.5 27.5q-72 0 -72 -88v-158q0 -80 71 -80zM207 595v136h118v-136h-118z" />
    <glyph glyph-name="Gcommaaccent" unicode="&#x122;" horiz-adv-x="608" 
d="M254 -206l9 171h111l-31 -171h-89zM310 -12q-113 0 -186 57.5t-73 170.5v281q0 106 74 167t185 61q104 0 174.5 -51.5t70.5 -145.5v-47h-131v31q0 45 -31 72.5t-80 27.5q-55 0 -87 -32t-32 -85v-275q0 -55 31 -86.5t87 -31.5q110 0 110 100v82h-119v103h253v-196
q0 -96 -70 -149.5t-176 -53.5z" />
    <glyph glyph-name="gcommaaccent" unicode="&#x123;" horiz-adv-x="534" 
d="M247 -188q-112 0 -191 37l37 102q79 -34 145 -34q104 0 104 89v104h-1q-20 -44 -57.5 -68t-79.5 -24q-76 0 -116 43.5t-40 115.5v197q0 73 48 118.5t119 45.5q41 0 80.5 -22.5t57.5 -59.5h1l4 70h117v-496q0 -105 -59.5 -161.5t-168.5 -56.5zM251 116q35 0 62.5 32.5
t27.5 81.5v113q0 44 -28.5 71.5t-60.5 27.5q-72 0 -72 -88v-158q0 -80 71 -80zM191 584v85l39 109h56l-17 -86h39v-108h-117z" />
    <glyph glyph-name="Hcircumflex" unicode="&#x124;" horiz-adv-x="643" 
d="M167 765l107 160h95l106 -160h-103l-53 89l-54 -89h-98zM66 0v713h143v-286h226v286h143v-713h-143v302h-226v-302h-143z" />
    <glyph glyph-name="hcircumflex" unicode="&#x125;" horiz-adv-x="542" 
d="M-22 762l107 160h95l106 -160h-103l-53 89l-54 -89h-98zM61 0v713h132v-264h2q49 88 152 88q59 0 98.5 -40.5t39.5 -104.5v-392h-132v356q0 78 -69 78q-35 0 -63 -30.5t-28 -75.5v-328h-132z" />
    <glyph glyph-name="Hbar" unicode="&#x126;" horiz-adv-x="666" 
d="M19 543v69h58v101h143v-101h226v101h143v-101h58v-69h-58v-543h-143v302h-226v-302h-143v543h-58zM220 427h226v116h-226v-116z" />
    <glyph glyph-name="hbar" unicode="&#x127;" horiz-adv-x="542" 
d="M12 580v70h49v63h132v-63h124v-70h-124v-131h2q49 88 152 88q59 0 98.5 -40.5t39.5 -104.5v-392h-132v356q0 78 -69 78q-35 0 -63 -30.5t-28 -75.5v-328h-132v580h-49z" />
    <glyph glyph-name="Itilde" unicode="&#x128;" horiz-adv-x="274" 
d="M66 0v713h143v-713h-143zM19 760l-65 12q6 53 34.5 88.5t73.5 35.5q26 0 77 -18t77 -18q18 0 28 12t19 36l58 -15q-7 -51 -33 -85.5t-72 -34.5q-26 0 -77 17.5t-75 17.5q-20 0 -28.5 -11t-16.5 -37z" />
    <glyph glyph-name="itilde" unicode="&#x129;" horiz-adv-x="253" 
d="M61 0v525h132v-525h-132zM9 582l-65 12q6 53 34.5 88.5t73.5 35.5q26 0 77 -18t77 -18q18 0 28 12t19 36l58 -15q-7 -51 -33 -85.5t-72 -34.5q-26 0 -77 17.5t-75 17.5q-20 0 -28.5 -11t-16.5 -37z" />
    <glyph glyph-name="Imacron" unicode="&#x12a;" horiz-adv-x="274" 
d="M66 0v713h143v-713h-143zM-17 779v92h310v-92h-310z" />
    <glyph glyph-name="imacron" unicode="&#x12b;" horiz-adv-x="253" 
d="M61 0v525h132v-525h-132zM-27 601v92h310v-92h-310z" />
    <glyph glyph-name="Ibreve" unicode="&#x12c;" horiz-adv-x="274" 
d="M66 0v713h143v-713h-143zM143 763q-78 0 -122 42t-47 116h89q7 -41 25 -60.5t58 -19.5q66 0 72 80h85q-3 -76 -48 -117t-112 -41z" />
    <glyph glyph-name="ibreve" unicode="&#x12d;" horiz-adv-x="253" 
d="M61 0v525h132v-525h-132zM132 585q-78 0 -122 42t-47 116h89q7 -41 25 -60.5t58 -19.5q66 0 72 80h85q-3 -76 -48 -117t-112 -41z" />
    <glyph glyph-name="Iogonek" unicode="&#x12e;" horiz-adv-x="274" 
d="M66 0v713h143v-713h-25q-58 -27 -58 -88q0 -46 49 -46q18 0 37 12l27 -58q-37 -23 -89 -23q-41 0 -71.5 25.5t-30.5 72.5q0 61 51 105h-33z" />
    <glyph glyph-name="iogonek" unicode="&#x12f;" horiz-adv-x="253" 
d="M61 0v525h132v-525h-7q-58 -27 -58 -88q0 -46 49 -46q17 0 37 12l27 -58q-37 -23 -89 -23q-41 0 -71.5 25.5t-30.5 72.5q0 61 51 105h-40zM61 590v134h132v-134h-132z" />
    <glyph glyph-name="Idotaccent" unicode="&#x130;" horiz-adv-x="274" 
d="M66 0v713h143v-713h-143zM77 773v136h118v-136h-118z" />
    <glyph glyph-name="dotlessi" unicode="&#x131;" horiz-adv-x="253" 
d="M61 0v525h132v-525h-132z" />
    <glyph glyph-name="IJ" unicode="&#x132;" horiz-adv-x="813" 
d="M66 0v713h143v-713h-143zM515 -12q-240 0 -240 212v59h137v-54q0 -103 100 -103q52 0 75 29.5t23 72.5v509h142v-495q0 -106 -62 -168t-175 -62z" />
    <glyph glyph-name="ij" unicode="&#x133;" horiz-adv-x="482" 
d="M61 0v525h132v-525h-132zM61 590v134h132v-134h-132zM281 -188q-36 0 -61 5v108q10 -2 27 -2q27 0 35.5 14t8.5 43v545h132v-569q0 -70 -38.5 -107t-103.5 -37zM291 590v134h132v-134h-132z" />
    <glyph glyph-name="Jcircumflex" unicode="&#x134;" horiz-adv-x="563" 
d="M259 763l107 160h95l106 -160h-103l-53 89l-54 -89h-98zM266 -12q-240 0 -240 212v59h137v-54q0 -103 100 -103q52 0 75 29.5t23 72.5v509h142v-495q0 -106 -62 -168t-175 -62z" />
    <glyph glyph-name="jcircumflex" unicode="&#x135;" horiz-adv-x="262" 
d="M61 -188q-36 0 -61 5v108q10 -2 27 -2q27 0 35.5 14t8.5 43v545h132v-569q0 -70 -38.5 -107t-103.5 -37zM-22 585l107 160h95l106 -160h-103l-53 89l-54 -89h-98z" />
    <glyph glyph-name="Kcommaaccent" unicode="&#x136;" horiz-adv-x="614" 
d="M246 -206l9 171h111l-31 -171h-89zM66 0v713h143v-339l234 339h146l-196 -279l193 -434h-156l-142 325l-79 -109v-216h-143z" />
    <glyph glyph-name="kcommaaccent" unicode="&#x137;" horiz-adv-x="508" 
d="M193 -206l9 171h111l-31 -171h-89zM61 0v713h132v-414l154 226h141l-129 -177l131 -348h-140l-90 251l-67 -93v-158h-132z" />
    <glyph glyph-name="kgreenlandic" unicode="&#x138;" horiz-adv-x="508" 
d="M61 0v525h132v-226l154 226h141l-129 -177l131 -348h-140l-90 251l-67 -93v-158h-132z" />
    <glyph glyph-name="Lacute" unicode="&#x139;" horiz-adv-x="546" 
d="M92 762l86 155h130l-117 -155h-99zM66 0v713h143v-595h300v-118h-443z" />
    <glyph glyph-name="lacute" unicode="&#x13a;" horiz-adv-x="299" 
d="M78 759l86 155h130l-117 -155h-99zM190 -9q-63 0 -98 31.5t-35 90.5v600h133v-565q0 -45 47 -45q13 0 37 4v-101q-40 -15 -84 -15z" />
    <glyph glyph-name="Lcommaaccent" unicode="&#x13b;" horiz-adv-x="546" 
d="M216 -206l9 171h111l-31 -171h-89zM66 0v713h143v-595h300v-118h-443z" />
    <glyph glyph-name="lcommaaccent" unicode="&#x13c;" horiz-adv-x="299" 
d="M96 -206l9 171h111l-31 -171h-89zM190 -9q-63 0 -98 31.5t-35 90.5v600h133v-565q0 -45 47 -45q13 0 37 4v-101q-40 -15 -84 -15z" />
    <glyph glyph-name="Lcaron" unicode="&#x13d;" horiz-adv-x="546" 
d="M278 521l9 193h111l-30 -193h-90zM66 0v713h143v-595h300v-118h-443z" />
    <glyph glyph-name="lcaron" unicode="&#x13e;" horiz-adv-x="299" 
d="M234 520l9 193h111l-30 -193h-90zM190 -9q-63 0 -98 31.5t-35 90.5v600h133v-565q0 -45 47 -45q13 0 37 4v-101q-40 -15 -84 -15z" />
    <glyph glyph-name="Ldot" unicode="&#x13f;" horiz-adv-x="546" 
d="M66 0v713h143v-595h300v-118h-443z" />
    <glyph glyph-name="ldot" unicode="&#x140;" horiz-adv-x="372" 
d="M190 -9q-63 0 -98 31.5t-35 90.5v600h133v-565q0 -45 47 -45q13 0 37 4v-101q-40 -15 -84 -15z" />
    <glyph glyph-name="Lslash" unicode="&#x141;" horiz-adv-x="562" 
d="M32 221v96l49 33v363h143v-265l93 63v-96l-93 -63v-234h300v-118h-443v254z" />
    <glyph glyph-name="lslash" unicode="&#x142;" horiz-adv-x="325" 
d="M25 252v88l54 39v334h133v-238l71 51v-89l-71 -51v-238q0 -45 47 -45q13 0 37 4v-101q-41 -15 -84 -15q-63 0 -98 31.5t-35 90.5v177z" />
    <glyph glyph-name="Nacute" unicode="&#x143;" horiz-adv-x="647" 
d="M277 762l86 155h130l-117 -155h-99zM66 0v713h141l246 -431h2v431h128v-713h-120l-268 467h-2v-467h-127z" />
    <glyph glyph-name="nacute" unicode="&#x144;" horiz-adv-x="541" 
d="M216 584l86 155h130l-117 -155h-99zM61 0v525h127v-80h2q51 92 157 92q57 0 97.5 -40.5t40.5 -104.5v-392h-132v358q0 76 -69 76q-35 0 -63 -30.5t-28 -75.5v-328h-132z" />
    <glyph glyph-name="Ncommaaccent" unicode="&#x145;" horiz-adv-x="647" 
d="M267 -206l9 171h111l-31 -171h-89zM66 0v713h141l246 -431h2v431h128v-713h-120l-268 467h-2v-467h-127z" />
    <glyph glyph-name="ncommaaccent" unicode="&#x146;" horiz-adv-x="541" 
d="M209 -206l9 171h111l-31 -171h-89zM61 0v525h127v-80h2q51 92 157 92q57 0 97.5 -40.5t40.5 -104.5v-392h-132v358q0 76 -69 76q-35 0 -63 -30.5t-28 -75.5v-328h-132z" />
    <glyph glyph-name="Ncaron" unicode="&#x147;" horiz-adv-x="647" 
d="M272 768l-105 160h103l53 -90l54 90h101l-111 -160h-95zM66 0v713h141l246 -431h2v431h128v-713h-120l-268 467h-2v-467h-127z" />
    <glyph glyph-name="ncaron" unicode="&#x148;" horiz-adv-x="541" 
d="M219 590l-105 160h103l53 -90l54 90h101l-111 -160h-95zM61 0v525h127v-80h2q51 92 157 92q57 0 97.5 -40.5t40.5 -104.5v-392h-132v358q0 76 -69 76q-35 0 -63 -30.5t-28 -75.5v-328h-132z" />
    <glyph glyph-name="Eng" unicode="&#x14a;" horiz-adv-x="647" 
d="M441 -188q-36 0 -61 5v108q10 -2 27 -2q27 0 35.5 14t8.5 43v41l-256 446h-2v-467h-127v713h141l246 -431h2v431h128v-757q0 -70 -38.5 -107t-103.5 -37z" />
    <glyph glyph-name="eng" unicode="&#x14b;" horiz-adv-x="541" 
d="M343 -188q-36 0 -61 5v108q10 -2 27 -2q27 0 35.5 14t8.5 43v378q0 76 -69 76q-35 0 -63 -30.5t-28 -75.5v-328h-132v525h127v-80h2q51 92 157 92q57 0 97.5 -40.5t40.5 -104.5v-436q0 -70 -38.5 -107t-103.5 -37z" />
    <glyph glyph-name="Omacron" unicode="&#x14c;" horiz-adv-x="624" 
d="M156 779v92h310v-92h-310zM312 -12q-115 0 -188 57.5t-73 176.5v263q0 115 73.5 177.5t186.5 62.5q74 0 131.5 -23t94.5 -77t37 -134v-263q0 -118 -74.5 -179t-187.5 -61zM313 106q54 0 85.5 32t31.5 86v270q0 54 -33 84t-87 30q-56 0 -85.5 -32t-29.5 -88v-263
q0 -56 30.5 -87.5t87.5 -31.5z" />
    <glyph glyph-name="omacron" unicode="&#x14d;" horiz-adv-x="523" 
d="M106 601v92h310v-92h-310zM262 -12q-94 0 -154 48t-60 146v156q0 95 60.5 147t151.5 52q93 0 154 -49t61 -147v-157q0 -97 -61 -146.5t-152 -49.5zM263 89q79 0 79 89v170q0 39 -21 63.5t-60 24.5q-41 0 -60.5 -25.5t-19.5 -66.5v-167q0 -88 82 -88z" />
    <glyph glyph-name="Obreve" unicode="&#x14e;" horiz-adv-x="624" 
d="M312 -12q-115 0 -188 57.5t-73 176.5v263q0 115 73.5 177.5t186.5 62.5q74 0 131.5 -23t94.5 -77t37 -134v-263q0 -118 -74.5 -179t-187.5 -61zM313 106q54 0 85.5 32t31.5 86v270q0 54 -33 84t-87 30q-56 0 -85.5 -32t-29.5 -88v-263q0 -56 30.5 -87.5t87.5 -31.5z
M316 763q-78 0 -122 42t-47 116h89q7 -41 25 -60.5t58 -19.5q66 0 72 80h85q-3 -76 -48 -117t-112 -41z" />
    <glyph glyph-name="obreve" unicode="&#x14f;" horiz-adv-x="523" 
d="M262 -12q-94 0 -154 48t-60 146v156q0 95 60.5 147t151.5 52q93 0 154 -49t61 -147v-157q0 -97 -61 -146.5t-152 -49.5zM263 89q79 0 79 89v170q0 39 -21 63.5t-60 24.5q-41 0 -60.5 -25.5t-19.5 -66.5v-167q0 -88 82 -88zM265 585q-78 0 -122 42t-47 116h89
q7 -41 25 -60.5t58 -19.5q66 0 72 80h85q-3 -76 -48 -117t-112 -41z" />
    <glyph glyph-name="Ohungarumlaut" unicode="&#x150;" horiz-adv-x="624" 
d="M170 760l58 148h110l-77 -148h-91zM339 760l63 148h111l-86 -148h-88zM312 -12q-115 0 -188 57.5t-73 176.5v263q0 115 73.5 177.5t186.5 62.5q74 0 131.5 -23t94.5 -77t37 -134v-263q0 -118 -74.5 -179t-187.5 -61zM313 106q54 0 85.5 32t31.5 86v270q0 54 -33 84
t-87 30q-56 0 -85.5 -32t-29.5 -88v-263q0 -56 30.5 -87.5t87.5 -31.5z" />
    <glyph glyph-name="ohungarumlaut" unicode="&#x151;" horiz-adv-x="523" 
d="M122 582l58 148h110l-77 -148h-91zM291 582l63 148h111l-86 -148h-88zM262 -12q-94 0 -154 48t-60 146v156q0 95 60.5 147t151.5 52q93 0 154 -49t61 -147v-157q0 -97 -61 -146.5t-152 -49.5zM263 89q79 0 79 89v170q0 39 -21 63.5t-60 24.5q-41 0 -60.5 -25.5
t-19.5 -66.5v-167q0 -88 82 -88z" />
    <glyph glyph-name="OE" unicode="&#x152;" horiz-adv-x="920" 
d="M296 -11q-113 0 -179 57t-66 177v262q0 115 67 177t178 62q91 0 134 -54v43h443v-117h-301v-176h238v-116h-238v-186h301v-118h-443v46q-46 -57 -134 -57zM313 106q54 0 85.5 32t31.5 86v272q0 54 -32.5 83t-87.5 29t-85 -32.5t-30 -88.5v-262q0 -55 31 -87t87 -32z" />
    <glyph glyph-name="oe" unicode="&#x153;" horiz-adv-x="804" 
d="M260 -12q-93 0 -152.5 48t-59.5 146v156q0 95 60.5 147t151.5 52q92 0 150 -54q56 54 146 54q92 0 148 -53t56 -144v-113h-285v-44q0 -90 110 -90q63 0 132 31l31 -87q-77 -49 -190 -49q-99 0 -150 52q-57 -52 -148 -52zM263 89q79 0 79 89v170q0 39 -21 63.5t-60 24.5
q-41 0 -60.5 -25.5t-19.5 -66.5v-164q0 -42 20.5 -66.5t61.5 -24.5zM475 311h158v44q0 37 -19.5 61.5t-59.5 24.5q-38 0 -58.5 -24.5t-20.5 -59.5v-46z" />
    <glyph glyph-name="Racute" unicode="&#x154;" horiz-adv-x="615" 
d="M224 762l86 155h130l-117 -155h-99zM66 0v713h263q112 0 171 -58t59 -156q0 -76 -33.5 -129t-98.5 -73l152 -297h-154l-130 272h-86v-272h-143zM209 378h99q110 0 110 112q0 52 -26.5 81.5t-79.5 29.5h-103v-223z" />
    <glyph glyph-name="racute" unicode="&#x155;" horiz-adv-x="383" 
d="M144 584l86 155h130l-117 -155h-99zM61 0v525h128v-84h1q23 46 52.5 68t74.5 22q26 0 45 -4v-119q-24 3 -50 3q-45 0 -81.5 -23t-37.5 -78v-310h-132z" />
    <glyph glyph-name="Rcommaaccent" unicode="&#x156;" horiz-adv-x="615" 
d="M246 -206l9 171h111l-31 -171h-89zM66 0v713h263q112 0 171 -58t59 -156q0 -76 -33.5 -129t-98.5 -73l152 -297h-154l-130 272h-86v-272h-143zM209 378h99q110 0 110 112q0 52 -26.5 81.5t-79.5 29.5h-103v-223z" />
    <glyph glyph-name="rcommaaccent" unicode="&#x157;" horiz-adv-x="381" 
d="M79 -206l9 171h111l-31 -171h-89zM61 0v525h128v-84h1q23 46 52.5 68t74.5 22q26 0 45 -4v-119q-24 3 -50 3q-45 0 -81.5 -23t-37.5 -78v-310h-132z" />
    <glyph glyph-name="Rcaron" unicode="&#x158;" horiz-adv-x="615" 
d="M242 768l-105 160h103l53 -90l54 90h101l-111 -160h-95zM66 0v713h263q112 0 171 -58t59 -156q0 -76 -33.5 -129t-98.5 -73l152 -297h-154l-130 272h-86v-272h-143zM209 378h99q110 0 110 112q0 52 -26.5 81.5t-79.5 29.5h-103v-223z" />
    <glyph glyph-name="rcaron" unicode="&#x159;" horiz-adv-x="381" 
d="M147 590l-105 160h103l53 -90l54 90h101l-111 -160h-95zM61 0v525h128v-84h1q23 46 52.5 68t74.5 22q26 0 45 -4v-119q-24 3 -50 3q-45 0 -81.5 -23t-37.5 -78v-310h-132z" />
    <glyph glyph-name="Sacute" unicode="&#x15a;" horiz-adv-x="577" 
d="M240 762l86 155h130l-117 -155h-99zM278 -12q-158 0 -249 86l73 100q43 -33 84.5 -51t97.5 -18q46 0 76 22t30 58t-23 57.5t-69 41.5l-96 40q-141 58 -141 191q0 88 65 149t171 61q128 0 215 -73l-74 -99q-82 61 -147 61q-44 0 -69 -20t-25 -58q0 -32 23 -52.5t71 -40.5
l82 -36q160 -69 160 -198q0 -102 -74 -161.5t-181 -59.5z" />
    <glyph glyph-name="sacute" unicode="&#x15b;" horiz-adv-x="469" 
d="M173 584l86 155h130l-117 -155h-99zM229 -12q-130 0 -206 77l67 86q80 -63 138 -63q36 0 56 14t20 39q0 26 -19 38.5t-60 25.5l-48 16q-124 37 -124 152q0 66 49 115t137 49q107 0 177 -60l-65 -86q-59 46 -114 46q-30 0 -47 -12t-17 -33q0 -22 13 -33.5t44 -23.5l66 -22
q135 -45 135 -158q0 -75 -58 -121t-144 -46z" />
    <glyph glyph-name="Scircumflex" unicode="&#x15c;" horiz-adv-x="577" 
d="M131 763l107 160h95l106 -160h-103l-53 89l-54 -89h-98zM278 -12q-158 0 -249 86l73 100q43 -33 84.5 -51t97.5 -18q46 0 76 22t30 58t-23 57.5t-69 41.5l-96 40q-141 58 -141 191q0 88 65 149t171 61q128 0 215 -73l-74 -99q-82 61 -147 61q-44 0 -69 -20t-25 -58
q0 -32 23 -52.5t71 -40.5l82 -36q160 -69 160 -198q0 -102 -74 -161.5t-181 -59.5z" />
    <glyph glyph-name="scircumflex" unicode="&#x15d;" horiz-adv-x="468" 
d="M85 585l107 160h95l106 -160h-103l-53 89l-54 -89h-98zM229 -12q-130 0 -206 77l67 86q80 -63 138 -63q36 0 56 14t20 39q0 26 -19 38.5t-60 25.5l-48 16q-124 37 -124 152q0 66 49 115t137 49q107 0 177 -60l-65 -86q-59 46 -114 46q-30 0 -47 -12t-17 -33
q0 -22 13 -33.5t44 -23.5l66 -22q135 -45 135 -158q0 -75 -58 -121t-144 -46z" />
    <glyph glyph-name="Scedilla" unicode="&#x15e;" horiz-adv-x="577" 
d="M272 -208q-52 0 -96 12v57q50 -13 91 -13q43 0 43 27q0 25 -47 27l-42 3l22 84q-135 10 -214 85l73 100q43 -33 84.5 -51t97.5 -18q46 0 76 22t30 58t-23 57.5t-69 41.5l-96 40q-141 58 -141 191q0 88 65 149t171 61q128 0 215 -73l-74 -99q-82 61 -147 61q-44 0 -69 -20
t-25 -58q0 -32 23 -52.5t71 -40.5l82 -36q160 -69 160 -198q0 -97 -67.5 -155.5t-167.5 -64.5l-11 -42q112 -2 112 -69q0 -38 -36.5 -62t-90.5 -24z" />
    <glyph glyph-name="scedilla" unicode="&#x15f;" horiz-adv-x="468" 
d="M231 -208q-52 0 -96 12v57q50 -13 91 -13q43 0 43 27q0 25 -47 27l-42 3l22 84q-111 6 -179 76l67 86q80 -63 138 -63q36 0 56 14t20 39q0 26 -19 38.5t-60 25.5l-48 16q-124 37 -124 152q0 66 49 115t137 49q107 0 177 -60l-65 -86q-59 46 -114 46q-30 0 -47 -12
t-17 -33q0 -22 13 -33.5t44 -23.5l66 -22q135 -45 135 -158q0 -69 -49 -113t-125 -52l-11 -43q112 -2 112 -69q0 -38 -36.5 -62t-90.5 -24z" />
    <glyph glyph-name="Scaron" unicode="&#x160;" horiz-adv-x="577" 
d="M248 768l-105 160h103l53 -90l54 90h101l-111 -160h-95zM278 -12q-158 0 -249 86l73 100q43 -33 84.5 -51t97.5 -18q46 0 76 22t30 58t-23 57.5t-69 41.5l-96 40q-141 58 -141 191q0 88 65 149t171 61q128 0 215 -73l-74 -99q-82 61 -147 61q-44 0 -69 -20t-25 -58
q0 -32 23 -52.5t71 -40.5l82 -36q160 -69 160 -198q0 -102 -74 -161.5t-181 -59.5z" />
    <glyph glyph-name="scaron" unicode="&#x161;" horiz-adv-x="468" 
d="M194 590l-105 160h103l53 -90l54 90h101l-111 -160h-95zM232 -12q-130 0 -206 77l67 86q80 -63 138 -63q36 0 56 14t20 39q0 26 -19 38.5t-60 25.5l-48 16q-124 37 -124 152q0 66 49 115t137 49q107 0 177 -60l-65 -86q-59 46 -114 46q-30 0 -47 -12t-17 -33
q0 -22 13 -33.5t44 -23.5l66 -22q135 -45 135 -158q0 -75 -58 -121t-144 -46z" />
    <glyph glyph-name="Tcommaaccent" unicode="&#x162;" horiz-adv-x="567" 
d="M222 -206l9 171h111l-31 -171h-89zM213 0v598h-190v115h522v-115h-189v-598h-143z" />
    <glyph glyph-name="tcommaaccent" unicode="&#x163;" horiz-adv-x="383" 
d="M143 -206l9 171h111l-31 -171h-89zM241 -10q-58 0 -97.5 28t-39.5 95v300h-73v106h73v139h134v-139h119v-106h-119v-259q0 -48 51 -48q23 0 55 7v-106q-51 -17 -103 -17z" />
    <glyph glyph-name="Tcaron" unicode="&#x164;" horiz-adv-x="567" 
d="M232 768l-105 160h103l53 -90l54 90h101l-111 -160h-95zM213 0v598h-190v115h522v-115h-189v-598h-143z" />
    <glyph glyph-name="tcaron" unicode="&#x165;" horiz-adv-x="389" 
d="M282 555l8 157h111l-29 -157h-90zM241 -10q-58 0 -97.5 28t-39.5 95v300h-73v106h73v139h134v-139h119v-106h-119v-259q0 -48 51 -48q23 0 55 7v-106q-51 -17 -103 -17z" />
    <glyph glyph-name="Tbar" unicode="&#x166;" horiz-adv-x="567" 
d="M101 304v75h112v219h-190v115h522v-115h-189v-219h110v-75h-110v-304h-143v304h-112z" />
    <glyph glyph-name="tbar" unicode="&#x167;" horiz-adv-x="383" 
d="M62 254v64h42v95h-73v106h73v139h134v-139h119v-106h-119v-95h57v-64h-57v-100q0 -48 51 -48q23 0 55 7v-106q-51 -17 -103 -17q-58 0 -97.5 28t-39.5 95v141h-42z" />
    <glyph glyph-name="Utilde" unicode="&#x168;" horiz-adv-x="634" 
d="M315 -12q-117 0 -186 57t-69 173v495h143v-487q0 -63 33 -93t85 -30t83.5 32.5t30.5 88.5v489h137v-488q1 -112 -70.5 -174.5t-186.5 -62.5zM203 767l-65 12q6 53 34.5 88.5t73.5 35.5q26 0 77 -18t77 -18q18 0 28 12t19 36l58 -15q-7 -51 -33 -85.5t-72 -34.5
q-26 0 -77 17.5t-75 17.5q-20 0 -28.5 -11t-16.5 -37z" />
    <glyph glyph-name="utilde" unicode="&#x169;" 
d="M201 -12q-59 0 -101 38.5t-42 106.5v392h132v-354q0 -80 67 -80q38 0 65.5 31.5t27.5 77.5v325h132v-525h-123l-4 82h-2q-19 -40 -61.5 -67t-90.5 -27zM151 582l-65 12q6 53 34.5 88.5t73.5 35.5q26 0 77 -18t77 -18q18 0 28 12t19 36l58 -15q-7 -51 -33 -85.5t-72 -34.5
q-26 0 -77 17.5t-75 17.5q-20 0 -28.5 -11t-16.5 -37z" />
    <glyph glyph-name="Umacron" unicode="&#x16a;" horiz-adv-x="634" 
d="M315 -12q-117 0 -186 57t-69 173v495h143v-487q0 -63 33 -93t85 -30t83.5 32.5t30.5 88.5v489h137v-488q1 -112 -70.5 -174.5t-186.5 -62.5zM160 786v92h310v-92h-310z" />
    <glyph glyph-name="umacron" unicode="&#x16b;" 
d="M201 -12q-59 0 -101 38.5t-42 106.5v392h132v-354q0 -80 67 -80q38 0 65.5 31.5t27.5 77.5v325h132v-525h-123l-4 82h-2q-19 -40 -61.5 -67t-90.5 -27zM114 601v92h310v-92h-310z" />
    <glyph glyph-name="Ubreve" unicode="&#x16c;" horiz-adv-x="634" 
d="M315 -12q-117 0 -186 57t-69 173v495h143v-487q0 -63 33 -93t85 -30t83.5 32.5t30.5 88.5v489h137v-488q1 -112 -70.5 -174.5t-186.5 -62.5zM320 770q-78 0 -122 42t-47 116h89q7 -41 25 -60.5t58 -19.5q66 0 72 80h85q-3 -76 -48 -117t-112 -41z" />
    <glyph glyph-name="ubreve" unicode="&#x16d;" 
d="M201 -12q-59 0 -101 38.5t-42 106.5v392h132v-354q0 -80 67 -80q38 0 65.5 31.5t27.5 77.5v325h132v-525h-123l-4 82h-2q-19 -40 -61.5 -67t-90.5 -27zM273 585q-78 0 -122 42t-47 116h89q7 -41 25 -60.5t58 -19.5q66 0 72 80h85q-3 -76 -48 -117t-112 -41z" />
    <glyph glyph-name="Uring" unicode="&#x16e;" horiz-adv-x="634" 
d="M316 757q-43 0 -70.5 27t-27.5 69t28.5 71t68.5 29q45 0 72 -25.5t27 -69.5q0 -42 -28.5 -71.5t-69.5 -29.5zM315 803q22 0 34 14t12 38q0 52 -47 52q-21 0 -32 -14.5t-11 -38.5q0 -23 12 -37t32 -14zM315 -12q-117 0 -186 57t-69 173v495h143v-487q0 -63 33 -93t85 -30
t83.5 32.5t30.5 88.5v489h137v-488q1 -112 -70.5 -174.5t-186.5 -62.5z" />
    <glyph glyph-name="uring" unicode="&#x16f;" 
d="M269 572q-43 0 -70.5 27t-27.5 69t28.5 71t68.5 29q45 0 72 -25.5t27 -69.5q0 -42 -28.5 -71.5t-69.5 -29.5zM268 618q22 0 34 14t12 38q0 52 -47 52q-21 0 -32 -14.5t-11 -38.5q0 -23 12 -37t32 -14zM201 -12q-59 0 -101 38.5t-42 106.5v392h132v-354q0 -80 67 -80
q38 0 65.5 31.5t27.5 77.5v325h132v-525h-123l-4 82h-2q-19 -40 -61.5 -67t-90.5 -27z" />
    <glyph glyph-name="Uhungarumlaut" unicode="&#x170;" horiz-adv-x="634" 
d="M315 -12q-117 0 -186 57t-69 173v495h143v-487q0 -63 33 -93t85 -30t83.5 32.5t30.5 88.5v489h137v-488q1 -112 -70.5 -174.5t-186.5 -62.5zM157 767l58 148h110l-77 -148h-91zM326 767l63 148h111l-86 -148h-88z" />
    <glyph glyph-name="uhungarumlaut" unicode="&#x171;" 
d="M201 -12q-59 0 -101 38.5t-42 106.5v392h132v-354q0 -80 67 -80q38 0 65.5 31.5t27.5 77.5v325h132v-525h-123l-4 82h-2q-19 -40 -61.5 -67t-90.5 -27zM124 582l58 148h110l-77 -148h-91zM293 582l63 148h111l-86 -148h-88z" />
    <glyph glyph-name="Uogonek" unicode="&#x172;" horiz-adv-x="634" 
d="M375 -207q-45 0 -76.5 24.5t-31.5 71.5q0 56 43 99q-115 2 -182.5 58.5t-67.5 171.5v495h143v-487q0 -63 33 -93t85 -30t83.5 32.5t30.5 88.5v489h137v-488q1 -91 -46.5 -149.5t-129.5 -77.5q-50 -39 -50 -88t48 -49q27 0 55 20l32 -58q-39 -30 -106 -30z" />
    <glyph glyph-name="uogonek" unicode="&#x173;" 
d="M201 -12q-59 0 -101 38.5t-42 106.5v392h132v-354q0 -80 67 -80q38 0 65.5 31.5t27.5 77.5v325h132v-525h-39q-72 -28 -72 -90q0 -48 48 -48q28 0 55 19l32 -58q-39 -30 -106 -30q-45 0 -76.5 24.5t-31.5 71.5q0 73 66 118l-3 75h-2q-19 -40 -61.5 -67t-90.5 -27z" />
    <glyph glyph-name="Wcircumflex" unicode="&#x174;" horiz-adv-x="834" 
d="M262 763l107 160h95l106 -160h-103l-53 89l-54 -89h-98zM174 -2l-151 715h139l90 -471h3l100 471h140l95 -470h2l88 470h132l-152 -715h-137l-104 494h-4l-105 -494h-136z" />
    <glyph glyph-name="wcircumflex" unicode="&#x175;" horiz-adv-x="719" 
d="M204 585l107 160h95l106 -160h-103l-53 89l-54 -89h-98zM150 -1l-129 526h137l62 -315h5l78 315h127l76 -315h4l67 315h120l-132 -526h-118l-85 361h-3l-88 -361h-121z" />
    <glyph glyph-name="Ycircumflex" unicode="&#x176;" horiz-adv-x="575" 
d="M216 0v289l-199 424h151l128 -296l128 296h134l-199 -425v-288h-143zM138 763l107 160h95l106 -160h-103l-53 89l-54 -89h-98z" />
    <glyph glyph-name="ycircumflex" unicode="&#x177;" horiz-adv-x="488" 
d="M127 -188q-45 0 -80 9l7 108q30 -8 64 -8q42 0 58 44l14 47l-176 513h139l104 -341h1l97 341h120l-177 -565q-25 -78 -67 -113t-104 -35zM89 585l107 160h95l106 -160h-103l-53 89l-54 -89h-98z" />
    <glyph glyph-name="Ydieresis" unicode="&#x178;" horiz-adv-x="575" 
d="M216 0v289l-199 424h151l128 -296l128 296h134l-199 -425v-288h-143zM150 772v135h111v-135h-111zM334 772v135h111v-135h-111z" />
    <glyph glyph-name="Zacute" unicode="&#x179;" horiz-adv-x="544" 
d="M226 762l86 155h130l-117 -155h-99zM44 0v86l292 514h-287v113h454v-98l-285 -500h281v-115h-455z" />
    <glyph glyph-name="zacute" unicode="&#x17a;" horiz-adv-x="462" 
d="M180 584l86 155h130l-117 -155h-99zM40 0v84l221 339h-215v102h375v-87l-216 -335h216v-103h-381z" />
    <glyph glyph-name="Zdotaccent" unicode="&#x17b;" horiz-adv-x="544" 
d="M44 0v86l292 514h-287v113h454v-98l-285 -500h281v-115h-455zM222 773v136h118v-136h-118z" />
    <glyph glyph-name="zdotaccent" unicode="&#x17c;" horiz-adv-x="462" 
d="M40 0v84l221 339h-215v102h375v-87l-216 -335h216v-103h-381zM174 595v136h118v-136h-118z" />
    <glyph glyph-name="Zcaron" unicode="&#x17d;" horiz-adv-x="544" 
d="M226 768l-105 160h103l53 -90l54 90h101l-111 -160h-95zM44 0v86l292 514h-287v113h454v-98l-285 -500h281v-115h-455z" />
    <glyph glyph-name="zcaron" unicode="&#x17e;" horiz-adv-x="462" 
d="M187 590l-105 160h103l53 -90l54 90h101l-111 -160h-95zM40 0v84l221 339h-215v102h375v-87l-216 -335h216v-103h-381z" />
    <glyph glyph-name="florin" unicode="&#x192;" horiz-adv-x="392" 
d="M90 -188q-42 0 -70 7l7 99q10 -2 27 -2q28 0 37 13.5t12 43.5l27 402h-75l5 92h75l8 115q5 69 47.5 108.5t102.5 39.5q51 0 85 -12l-5 -92q-17 4 -50 4q-50 0 -53 -52l-7 -111h90l-5 -92h-90l-26 -415q-2 -71 -40.5 -109.5t-101.5 -38.5z" />
    <glyph glyph-name="Aringacute" unicode="&#x1fa;" horiz-adv-x="630" 
d="M20 0l210 714h174l207 -714h-144l-47 171h-222l-46 -171h-132zM228 280h162l-79 295h-3zM315 745q-49 0 -74 26.5t-25 63.5q0 44 33 76l94 97l73 -36l-65 -50q31 -7 47 -29.5t16 -52.5q0 -41 -28 -68t-71 -27zM314 786q21 0 34 14t13 38t-12 37.5t-33 13.5t-33.5 -14.5
t-12.5 -38.5q0 -50 44 -50z" />
    <glyph glyph-name="aringacute" unicode="&#x1fb;" horiz-adv-x="517" 
d="M187 -11q-64 0 -106 39t-42 112q0 46 20.5 81t54.5 54t71 28.5t76 9.5h65v64q0 32 -20 49.5t-57 17.5q-36 0 -56.5 -18.5t-20.5 -47.5v-23h-119v29q0 71 59 112t149 41q86 0 142 -41.5t56 -121.5v-250q0 -22 6 -124h-122q0 3 -1 12.5t-2 27t-2 36.5h-5q-15 -34 -44 -54.5
t-53.5 -26.5t-48.5 -6zM242 86q34 0 59 25.5t25 66.5v57h-56q-98 0 -98 -75q0 -36 19.5 -55t50.5 -19zM255 572q-49 0 -74 26.5t-25 63.5q0 44 33 76l94 97l73 -36l-65 -50q31 -7 47 -29.5t16 -52.5q0 -41 -28 -68t-71 -27zM254 613q21 0 34 14t13 38t-12 37.5t-33 13.5
t-33.5 -14.5t-12.5 -38.5q0 -50 44 -50z" />
    <glyph glyph-name="AEacute" unicode="&#x1fc;" horiz-adv-x="901" 
d="M440 769l86 155h130l-117 -155h-99zM17 0l305 713h531v-116h-299v-177h238v-116h-238v-187h300v-117h-442v168l-181 1l-71 -169h-143zM271 275h141v334h-2z" />
    <glyph glyph-name="aeacute" unicode="&#x1fd;" horiz-adv-x="787" 
d="M339 584l86 155h130l-117 -155h-99zM191 -12q-64 0 -108 39.5t-44 112.5q0 46 20.5 81t54.5 54t71 28.5t76 9.5h65v64q0 32 -20 49.5t-57 17.5q-35 0 -56 -18.5t-21 -47.5v-23h-119v29q0 72 59 112.5t149 40.5q98 0 138 -53q53 53 143 53q91 0 146.5 -51t55.5 -141v-118
h-285v-46q0 -88 109 -88q62 0 133 32l31 -88q-72 -49 -187 -49q-134 0 -182 92q-28 -52 -78 -72t-94 -20zM242 86q34 0 59 24.5t25 64.5v60h-48q-106 0 -106 -75q0 -36 19.5 -55t50.5 -19zM459 311h159v44q0 37 -19.5 61.5t-60.5 24.5q-38 0 -58.5 -24.5t-20.5 -59.5v-46z
" />
    <glyph glyph-name="Oslashacute" unicode="&#x1fe;" horiz-adv-x="622" 
d="M145 -66l-60 27l41 83q-75 60 -75 178v263q0 115 73.5 177.5t186.5 62.5q78 0 141 -29l36 71l60 -26l-41 -81q67 -62 67 -169v-263q0 -118 -74.5 -179t-187.5 -61q-73 0 -129 22zM195 225q0 -21 4 -36l195 391q-33 28 -84 28q-56 0 -85.5 -32t-29.5 -88v-263zM313 106
q54 0 85.5 32t31.5 86v270q0 1 -0.5 4.5t-0.5 5.5l-189 -379q30 -19 73 -19zM260 762l86 155h130l-117 -155h-99z" />
    <glyph glyph-name="oslashacute" unicode="&#x1ff;" horiz-adv-x="523" 
d="M139 -73l-54 26l36 73q-73 49 -73 156v156q0 95 60.5 147t151.5 52q56 0 104 -20l34 68l54 -27l-36 -72q59 -52 59 -145v-157q0 -97 -61 -146.5t-152 -49.5q-46 0 -87 12zM181 177q0 -18 2 -26l132 266q-21 19 -54 19q-41 0 -60.5 -25.5t-19.5 -66.5v-167zM199 584
l86 155h130l-117 -155h-99zM263 89q79 0 79 89v158l-119 -240q15 -7 40 -7z" />
    <glyph glyph-name="Scommaaccent" unicode="&#x218;" horiz-adv-x="577" 
d="M228 -206l9 171h111l-31 -171h-89zM278 -12q-158 0 -249 86l73 100q43 -33 84.5 -51t97.5 -18q46 0 76 22t30 58t-23 57.5t-69 41.5l-96 40q-141 58 -141 191q0 88 65 149t171 61q128 0 215 -73l-74 -99q-82 61 -147 61q-44 0 -69 -20t-25 -58q0 -32 23 -52.5t71 -40.5
l82 -36q160 -69 160 -198q0 -102 -74 -161.5t-181 -59.5z" />
    <glyph glyph-name="scommaaccent" unicode="&#x219;" horiz-adv-x="468" 
d="M182 -206l9 171h111l-31 -171h-89zM229 -12q-130 0 -206 77l67 86q80 -63 138 -63q36 0 56 14t20 39q0 26 -19 38.5t-60 25.5l-48 16q-124 37 -124 152q0 66 49 115t137 49q107 0 177 -60l-65 -86q-59 46 -114 46q-30 0 -47 -12t-17 -33q0 -22 13 -33.5t44 -23.5l66 -22
q135 -45 135 -158q0 -75 -58 -121t-144 -46z" />
    <glyph glyph-name="uni021A" unicode="&#x21a;" horiz-adv-x="567" 
d="M222 -206l9 171h111l-31 -171h-89zM213 0v598h-190v115h522v-115h-189v-598h-143z" />
    <glyph glyph-name="uni021B" unicode="&#x21b;" horiz-adv-x="383" 
d="M143 -206l9 171h111l-31 -171h-89zM241 -10q-58 0 -97.5 28t-39.5 95v300h-73v106h73v139h134v-139h119v-106h-119v-259q0 -48 51 -48q23 0 55 7v-106q-51 -17 -103 -17z" />
    <glyph glyph-name="dotlessj" unicode="&#x237;" horiz-adv-x="262" 
d="M61 -188q-36 0 -61 5v108q10 -2 27 -2q27 0 35.5 14t8.5 43v545h132v-569q0 -70 -38.5 -107t-103.5 -37z" />
    <glyph glyph-name="circumflex" unicode="&#x2c6;" horiz-adv-x="377" 
d="M38 585l107 160h95l106 -160h-103l-53 89l-54 -89h-98z" />
    <glyph glyph-name="caron" unicode="&#x2c7;" horiz-adv-x="387" 
d="M145 590l-105 160h103l53 -90l54 90h101l-111 -160h-95z" />
    <glyph glyph-name="breve" unicode="&#x2d8;" horiz-adv-x="397" 
d="M203 585q-78 0 -122 42t-47 116h89q7 -41 25 -60.5t58 -19.5q66 0 72 80h85q-3 -76 -48 -117t-112 -41z" />
    <glyph glyph-name="dotaccent" unicode="&#x2d9;" horiz-adv-x="228" 
d="M55 595v136h118v-136h-118z" />
    <glyph glyph-name="ring" unicode="&#x2da;" horiz-adv-x="290" 
d="M147 572q-43 0 -70.5 27t-27.5 69t28.5 71t68.5 29q45 0 72 -25.5t27 -69.5q0 -42 -28.5 -71.5t-69.5 -29.5zM146 618q22 0 34 14t12 38q0 52 -47 52q-21 0 -32 -14.5t-11 -38.5q0 -23 12 -37t32 -14z" />
    <glyph glyph-name="ogonek" unicode="&#x2db;" horiz-adv-x="321" 
d="M155 -207q-45 0 -76.5 24.5t-31.5 71.5q0 52 36 91t83 53l38 -31q-36 -12 -57 -37t-21 -55q0 -48 48 -48q28 0 55 19l32 -58q-39 -30 -106 -30z" />
    <glyph glyph-name="tilde" unicode="&#x2dc;" horiz-adv-x="426" 
d="M100 582l-65 12q6 53 34.5 88.5t73.5 35.5q26 0 77 -18t77 -18q18 0 28 12t19 36l58 -15q-7 -51 -33 -85.5t-72 -34.5q-26 0 -77 17.5t-75 17.5q-20 0 -28.5 -11t-16.5 -37z" />
    <glyph glyph-name="hungarumlaut" unicode="&#x2dd;" horiz-adv-x="449" 
d="M51 582l58 148h110l-77 -148h-91zM220 582l63 148h111l-86 -148h-88z" />
    <glyph glyph-name="pi" unicode="&#x3c0;" horiz-adv-x="586" 
d="M474 -8q-56 0 -88.5 31t-32.5 96v296h-117q-10 -245 -26 -415h-126q22 202 29 415h-83l14 111h502v-111h-73v-258q0 -50 44 -50q16 0 38 6v-106q-43 -15 -81 -15z" />
    <glyph glyph-name="Wgrave" unicode="&#x1e80;" horiz-adv-x="834" 
d="M174 -2l-151 715h139l90 -471h3l100 471h140l95 -470h2l88 470h132l-152 -715h-137l-104 494h-4l-105 -494h-136zM375 762l-119 155h131l86 -155h-98z" />
    <glyph glyph-name="wgrave" unicode="&#x1e81;" horiz-adv-x="719" 
d="M150 -1l-129 526h137l62 -315h5l78 315h127l76 -315h4l67 315h120l-132 -526h-118l-85 361h-3l-88 -361h-121zM315 584l-119 155h131l86 -155h-98z" />
    <glyph glyph-name="Wacute" unicode="&#x1e82;" horiz-adv-x="834" 
d="M374 762l86 155h130l-117 -155h-99zM174 -2l-151 715h139l90 -471h3l100 471h140l95 -470h2l88 470h132l-152 -715h-137l-104 494h-4l-105 -494h-136z" />
    <glyph glyph-name="wacute" unicode="&#x1e83;" horiz-adv-x="719" 
d="M320 584l86 155h130l-117 -155h-99zM150 -1l-129 526h137l62 -315h5l78 315h127l76 -315h4l67 315h120l-132 -526h-118l-85 361h-3l-88 -361h-121z" />
    <glyph glyph-name="Wdieresis" unicode="&#x1e84;" horiz-adv-x="834" 
d="M269 773v135h111v-135h-111zM453 773v135h111v-135h-111zM174 -2l-151 715h139l90 -471h3l100 471h140l95 -470h2l88 470h132l-152 -715h-137l-104 494h-4l-105 -494h-136z" />
    <glyph glyph-name="wdieresis" unicode="&#x1e85;" horiz-adv-x="719" 
d="M211 595v135h111v-135h-111zM395 595v135h111v-135h-111zM150 -1l-129 526h137l62 -315h5l78 315h127l76 -315h4l67 315h120l-132 -526h-118l-85 361h-3l-88 -361h-121z" />
    <glyph glyph-name="Ygrave" unicode="&#x1ef2;" horiz-adv-x="575" 
d="M216 0v289l-199 424h151l128 -296l128 296h134l-199 -425v-288h-143zM246 762l-119 155h131l86 -155h-98z" />
    <glyph glyph-name="ygrave" unicode="&#x1ef3;" horiz-adv-x="488" 
d="M127 -188q-45 0 -80 9l7 108q30 -8 64 -8q42 0 58 44l14 47l-176 513h139l104 -341h1l97 341h120l-177 -565q-25 -78 -67 -113t-104 -35zM205 584l-119 155h131l86 -155h-98z" />
    <glyph glyph-name="endash" unicode="&#x2013;" horiz-adv-x="461" 
d="M0 265v82h461v-82h-461z" />
    <glyph glyph-name="emdash" unicode="&#x2014;" horiz-adv-x="779" 
d="M0 265v82h779v-82h-779z" />
    <glyph glyph-name="quoteleft" unicode="&#x2018;" horiz-adv-x="228" 
d="M52 444v135l42 134h64l-27 -126h45v-143h-124z" />
    <glyph glyph-name="quoteright" unicode="&#x2019;" horiz-adv-x="229" 
d="M71 443l27 127h-45v143h124v-135l-42 -135h-64z" />
    <glyph glyph-name="quotesinglbase" unicode="&#x201a;" horiz-adv-x="228" 
d="M75 -87l19 95l-41 30l11 113l113 -31l-6 -138l-44 -102z" />
    <glyph glyph-name="quotedblleft" unicode="&#x201c;" horiz-adv-x="419" 
d="M52 444v135l42 134h64l-27 -126h45v-143h-124zM243 444v135l42 134h64l-27 -126h45v-143h-124z" />
    <glyph glyph-name="quotedblright" unicode="&#x201d;" horiz-adv-x="419" 
d="M70 443l27 127h-44v143h124v-135l-43 -135h-64zM261 443l27 127h-45v143h124v-135l-42 -135h-64z" />
    <glyph glyph-name="quotedblbase" unicode="&#x201e;" horiz-adv-x="419" 
d="M70 -120l27 128h-44v143h124v-136l-43 -135h-64zM261 -120l27 128h-45v143h124v-136l-42 -135h-64z" />
    <glyph glyph-name="dagger" unicode="&#x2020;" horiz-adv-x="503" 
d="M203 -137v591h-155v89h155v170h98v-170h153v-89h-153v-591h-98z" />
    <glyph glyph-name="daggerdbl" unicode="&#x2021;" horiz-adv-x="503" 
d="M203 -137v187h-155v88h155v316h-155v89h155v170h98v-170h153v-89h-153v-316h153v-88h-153v-187h-98z" />
    <glyph glyph-name="bullet" unicode="&#x2022;" horiz-adv-x="420" 
d="M211 212q-59 0 -101.5 42.5t-42.5 101.5q0 60 42 101.5t102 41.5q59 0 100.5 -41.5t41.5 -101.5q0 -59 -41.5 -101.5t-100.5 -42.5z" />
    <glyph glyph-name="ellipsis" unicode="&#x2026;" horiz-adv-x="661" 
d="M58 0v150h126v-150h-126zM269 0v150h124v-150h-124zM478 0v150h125v-150h-125z" />
    <glyph glyph-name="perthousand" unicode="&#x2030;" horiz-adv-x="1081" 
d="M895 -11q-57 0 -97 32.5t-40 91.5v136q0 60 40.5 95t96.5 35q57 0 97.5 -32.5t40.5 -93.5v-138q0 -57 -42 -91.5t-96 -34.5zM895 61q24 0 36.5 14t12.5 33v157q0 18 -13 31t-36 13q-22 0 -35 -13t-13 -31v-158q0 -20 12 -33t36 -13zM182 335q-58 0 -98.5 33t-40.5 92v141
q0 60 40 92t97 32q58 0 98.5 -32.5t40.5 -93.5v-140q0 -57 -41.5 -90.5t-95.5 -33.5zM181 407q24 0 36.5 13.5t12.5 32.5v157q0 18 -13.5 31.5t-35.5 13.5q-24 0 -36.5 -13t-12.5 -32v-158q0 -20 12.5 -32.5t36.5 -12.5zM166 -2l361 722h71l-359 -722h-73zM573 -11
q-57 0 -97.5 32.5t-40.5 91.5v136q0 59 40.5 94.5t96.5 35.5q58 0 98 -32.5t40 -93.5v-138q0 -57 -41.5 -91.5t-95.5 -34.5zM573 61q24 0 36 14t12 33v157q0 18 -13 31t-35 13q-23 0 -36 -13t-13 -31v-158q0 -20 12.5 -33t36.5 -13z" />
    <glyph glyph-name="guilsinglleft" unicode="&#x2039;" horiz-adv-x="280" 
d="M176 88l-143 180l142 181l69 -42l-75 -139l78 -140z" />
    <glyph glyph-name="guilsinglright" unicode="&#x203a;" horiz-adv-x="280" 
d="M105 89l-70 42l76 139l-78 139l71 41l143 -180z" />
    <glyph glyph-name="fraction" unicode="&#x2044;" horiz-adv-x="116" 
d="M-170 -2l389 720h66l-389 -720h-66z" />
    <glyph glyph-name="uni2070" unicode="&#x2070;" horiz-adv-x="341" 
d="M172 368q-60 0 -100.5 29t-40.5 90v174q0 61 40.5 91t98.5 30q59 0 99.5 -30t40.5 -92v-172q0 -59 -41 -89.5t-97 -30.5zM171 442q46 0 46 47v176q0 19 -12 30.5t-34 11.5q-23 0 -36 -12t-13 -31v-176q0 -20 12.5 -33t36.5 -13z" />
    <glyph glyph-name="uni2074" unicode="&#x2074;" horiz-adv-x="330" 
d="M180 380v86h-162v67l143 243h98l-149 -238h70v51l94 64v-115h41v-72h-41v-86h-94z" />
    <glyph glyph-name="uni2075" unicode="&#x2075;" horiz-adv-x="339" 
d="M164 368q-60 0 -97 27t-37 72v27h88v-12q0 -18 13 -29.5t35 -11.5q48 0 48 52v32q0 23 -13.5 35t-34.5 12q-24 0 -45 -23l-85 9l10 216h240v-76h-162q0 -6 -2.5 -45t-2.5 -45q34 25 79 25q44 0 77.5 -25t33.5 -74v-52q0 -53 -43.5 -83.5t-101.5 -30.5z" />
    <glyph glyph-name="uni2076" unicode="&#x2076;" horiz-adv-x="339" 
d="M169 368q-58 0 -100 31.5t-42 84.5v175q0 61 42 92t105 31q60 0 95.5 -29.5t35.5 -77.5v-20h-88v14q0 19 -13.5 29t-33.5 10q-21 0 -33 -11.5t-12 -30.5v-75q31 34 86 34q45 0 72 -26t27 -64v-53q0 -52 -41 -83t-100 -31zM172 440q23 0 34 12t11 30v46q0 41 -44 41
q-18 0 -33 -13t-15 -37v-36q0 -18 12.5 -30.5t34.5 -12.5z" />
    <glyph glyph-name="uni2077" unicode="&#x2077;" horiz-adv-x="321" 
d="M74 380q1 90 37.5 175t86.5 143h-174v76h274v-64q-54 -53 -88 -143.5t-33 -186.5h-103z" />
    <glyph glyph-name="uni2078" unicode="&#x2078;" horiz-adv-x="341" 
d="M170 368q-64 0 -102 26t-38 80v27q0 53 50 76q-20 9 -32.5 29t-12.5 41v28q0 50 39 78.5t96 28.5q58 0 96.5 -27.5t38.5 -77.5v-28q0 -49 -45 -71q21 -10 36 -30.5t15 -43.5v-32q0 -49 -40 -76.5t-101 -27.5zM170 435q47 0 47 42v27q0 20 -14 30.5t-33 10.5
q-20 0 -34 -10t-14 -29v-30q0 -19 13.5 -30t34.5 -11zM171 608q20 0 32.5 11t12.5 29v26q0 19 -14 29.5t-33 10.5q-18 0 -32 -10t-14 -27v-30q0 -19 14 -29t34 -10z" />
    <glyph glyph-name="uni2079" unicode="&#x2079;" horiz-adv-x="339" 
d="M165 368q-60 0 -95.5 29.5t-35.5 77.5v15h88v-9q0 -19 13 -29t34 -10q44 0 44 42v70q-31 -34 -86 -34q-46 0 -73 25.5t-27 65.5v57q0 52 41.5 83t101.5 31q58 0 99 -31.5t41 -84.5v-175q0 -61 -41.5 -92t-103.5 -31zM165 581q18 0 33 13t15 37v36q0 18 -12.5 30.5
t-34.5 12.5t-33 -12t-11 -30v-46q0 -41 43 -41z" />
    <glyph glyph-name="uni207D" unicode="&#x207d;" horiz-adv-x="201" 
d="M140 313q-40 47 -63.5 116t-23.5 137q0 66 23.5 131.5t63.5 113.5l42 -1q-31 -70 -44 -122t-13 -122q0 -130 58 -251z" />
    <glyph glyph-name="uni207E" unicode="&#x207e;" horiz-adv-x="201" 
d="M82 313l-42 2q57 119 57 251q0 70 -13 122t-44 122l42 1q41 -48 64 -113t23 -132q0 -68 -23.5 -137t-63.5 -116z" />
    <glyph glyph-name="uni2080" unicode="&#x2080;" horiz-adv-x="341" 
d="M172 -145q-60 0 -100.5 29t-40.5 90v174q0 61 40.5 91t98.5 30q59 0 99.5 -30t40.5 -92v-172q0 -59 -41 -89.5t-97 -30.5zM171 -71q46 0 46 47v176q0 19 -12 30.5t-34 11.5q-23 0 -36 -12t-13 -31v-176q0 -20 12.5 -33t36.5 -13z" />
    <glyph glyph-name="uni2081" unicode="&#x2081;" horiz-adv-x="276" 
d="M103 -133v314l-49 -11l-10 68l102 27h52v-398h-95z" />
    <glyph glyph-name="uni2082" unicode="&#x2082;" horiz-adv-x="331" 
d="M43 -133v59l101 107q65 75 65 114v3q0 44 -43 44q-44 0 -44 -46v-15h-89v23q0 53 37 82.5t97 29.5q62 0 97 -32.5t35 -84.5q0 -31 -15 -62.5t-29.5 -49t-46.5 -52.5l-39 -46h133v-74h-259z" />
    <glyph glyph-name="uni2083" unicode="&#x2083;" horiz-adv-x="339" 
d="M168 -145q-67 0 -102.5 29t-35.5 81v16h88v-13q0 -20 13.5 -30.5t33.5 -10.5q47 0 47 54q0 27 -16 39t-34 12h-36v63h30q52 0 52 52q0 24 -13 35.5t-31 11.5q-45 0 -45 -41v-11h-86v16q0 51 35.5 81t97.5 30t97.5 -30.5t35.5 -79.5q0 -31 -16.5 -57t-47.5 -35v-2
q34 -8 54 -33.5t20 -58.5q0 -60 -38.5 -89t-102.5 -29z" />
    <glyph glyph-name="uni2084" unicode="&#x2084;" horiz-adv-x="330" 
d="M180 -133v86h-162v67l143 243h98l-149 -238h70v51l94 64v-115h41v-72h-41v-86h-94z" />
    <glyph glyph-name="uni2085" unicode="&#x2085;" horiz-adv-x="339" 
d="M164 -145q-60 0 -97 27t-37 72v27h88v-12q0 -18 13 -29.5t35 -11.5q48 0 48 52v32q0 23 -13.5 35t-34.5 12q-24 0 -45 -23l-85 9l10 216h240v-76h-162q0 -7 -2.5 -45t-2.5 -45q34 25 79 25q44 0 77.5 -25t33.5 -74v-52q0 -53 -43.5 -83.5t-101.5 -30.5z" />
    <glyph glyph-name="uni2086" unicode="&#x2086;" horiz-adv-x="339" 
d="M169 -145q-58 0 -100 31.5t-42 84.5v175q0 61 42 92t105 31q60 0 95.5 -29.5t35.5 -77.5v-20h-88v14q0 19 -13.5 29t-33.5 10q-21 0 -33 -11.5t-12 -30.5v-75q31 34 86 34q45 0 72 -26t27 -64v-53q0 -52 -41 -83t-100 -31zM172 -73q23 0 34 12t11 30v46q0 41 -44 41
q-18 0 -33 -13t-15 -37v-36q0 -18 12.5 -30.5t34.5 -12.5z" />
    <glyph glyph-name="uni2087" unicode="&#x2087;" horiz-adv-x="321" 
d="M74 -133q1 90 37.5 175t86.5 143h-174v76h274v-64q-54 -53 -88 -143.5t-33 -186.5h-103z" />
    <glyph glyph-name="uni2088" unicode="&#x2088;" horiz-adv-x="341" 
d="M170 -145q-64 0 -102 26t-38 80v27q0 53 50 76q-20 9 -32.5 29t-12.5 41v28q0 50 39 78.5t96 28.5q58 0 96.5 -27.5t38.5 -77.5v-28q0 -49 -45 -71q21 -10 36 -30.5t15 -43.5v-32q0 -49 -40 -76.5t-101 -27.5zM170 -78q47 0 47 42v27q0 20 -14 30.5t-33 10.5
q-20 0 -34 -10t-14 -29v-30q0 -19 13.5 -30t34.5 -11zM171 95q20 0 32.5 11t12.5 29v26q0 19 -14 29.5t-33 10.5q-18 0 -32 -10t-14 -27v-30q0 -19 14 -29t34 -10z" />
    <glyph glyph-name="uni2089" unicode="&#x2089;" horiz-adv-x="339" 
d="M165 -145q-60 0 -95.5 29.5t-35.5 77.5v15h88v-9q0 -19 13 -29t34 -10q44 0 44 42v70q-31 -34 -86 -34q-46 0 -73 25.5t-27 65.5v57q0 52 41.5 83t101.5 31q58 0 99 -31.5t41 -84.5v-175q0 -61 -41.5 -92t-103.5 -31zM165 68q18 0 33 13t15 37v36q0 18 -12.5 30.5
t-34.5 12.5t-33 -12t-11 -30v-46q0 -41 43 -41z" />
    <glyph glyph-name="uni208D" unicode="&#x208d;" horiz-adv-x="201" 
d="M140 -200q-40 47 -63.5 116t-23.5 137q0 66 23.5 131.5t63.5 113.5l42 -1q-31 -70 -44 -122.5t-13 -121.5q0 -130 58 -251z" />
    <glyph glyph-name="uni208E" unicode="&#x208e;" horiz-adv-x="201" 
d="M82 -200l-42 2q57 118 57 251q0 69 -13 121.5t-44 122.5l42 1q41 -48 64 -113t23 -132q0 -68 -23.5 -137t-63.5 -116z" />
    <glyph glyph-name="uni20AA" unicode="&#x20aa;" horiz-adv-x="420" 
d="M26 0v705h138q64 0 92 -29t28 -119v-435h-66v441q0 49 -29 49h-89v-612h-74zM126 0v583h65v-489h89q30 0 30 48v563h84v-542q0 -91 -29 -127t-91 -36h-148z" />
    <glyph glyph-name="Euro" unicode="&#x20ac;" horiz-adv-x="653" 
d="M368 -12q-108 0 -179 55.5t-71 161.5v43h-72v77h72v64h-72v75h72v41q0 98 72.5 159t177.5 61q102 0 171 -52.5t69 -146.5v-28h-128v25q0 46 -29.5 72.5t-81.5 26.5q-49 0 -77.5 -31.5t-28.5 -77.5v-49h182v-75h-182v-64h182v-77h-182v-45q0 -53 29.5 -82.5t82.5 -29.5
q51 0 78 27t27 74v18h128v-21q0 -96 -68 -148.5t-172 -52.5z" />
    <glyph glyph-name="trademark" unicode="&#x2122;" horiz-adv-x="633" 
d="M303 399v315h85l52 -132l50 132h85v-315h-65l-1 200l-46 -124h-48l-48 125v-201h-64zM116 399v254h-80v61h232v-61h-80v-254h-72z" />
    <glyph glyph-name="Omega" unicode="&#x2126;" horiz-adv-x="618" 
d="M50 0v120l140 -7v9q-63 47 -104 121t-42 172v26q0 136 67.5 210t196.5 74q133 0 199.5 -75.5t66.5 -205.5v-28q1 -108 -44 -183t-102 -111v-9l141 7v-120h-228v113q24 27 34.5 41.5t25.5 45t20.5 73t5.5 102.5v92q0 63 -32 102t-88 39q-55 0 -86.5 -39.5t-31.5 -113.5
v-72q0 -111 20.5 -165.5t69.5 -104.5v-113h-229z" />
    <glyph glyph-name="uni2153" unicode="&#x2153;" horiz-adv-x="769" 
d="M126 316v314l-49 -11l-10 68l102 27h52v-398h-95zM133 -2l389 720h66l-389 -720h-66zM576 -12q-67 0 -102.5 29t-35.5 81v16h88v-13q0 -20 13.5 -30.5t33.5 -10.5q47 0 47 54q0 27 -16 39t-34 12h-36v63h30q52 0 52 52q0 24 -13 35.5t-31 11.5q-45 0 -45 -41v-11h-86v16
q0 51 35.5 81t97.5 30t97.5 -30.5t35.5 -79.5q0 -31 -16.5 -57t-47.5 -35v-2q34 -8 54 -33.5t20 -58.5q0 -60 -38.5 -89t-102.5 -29z" />
    <glyph glyph-name="uni2154" unicode="&#x2154;" horiz-adv-x="769" 
d="M38 316v59l101 107q65 75 65 114v3q0 44 -43 44q-44 0 -44 -46v-15h-89v23q0 53 37 82.5t97 29.5q62 0 97 -32.5t35 -84.5q0 -31 -15 -62.5t-29.5 -49t-46.5 -52.5l-39 -46h133v-74h-259zM168 -2l389 720h66l-389 -720h-66zM597 -12q-67 0 -102.5 29t-35.5 81v16h88v-13
q0 -20 13.5 -30.5t33.5 -10.5q47 0 47 54q0 27 -16 39t-34 12h-36v63h30q52 0 52 52q0 24 -13 35.5t-31 11.5q-45 0 -45 -41v-11h-86v16q0 51 35.5 81t97.5 30t97.5 -30.5t35.5 -79.5q0 -31 -16.5 -57t-47.5 -35v-2q34 -8 54 -33.5t20 -58.5q0 -60 -38.5 -89t-102.5 -29z
" />
    <glyph glyph-name="uni2155" unicode="&#x2155;" horiz-adv-x="769" 
d="M124 316v314l-49 -11l-10 68l102 27h52v-398h-95zM583 -12q-60 0 -97 27t-37 72v27h88v-12q0 -18 13 -29.5t35 -11.5q48 0 48 52v32q0 23 -13.5 35t-34.5 12q-24 0 -45 -23l-85 9l10 216h240v-76h-162q0 -6 -2.5 -45t-2.5 -45q34 25 79 25q44 0 77.5 -25t33.5 -74v-52
q0 -53 -43.5 -83.5t-101.5 -30.5zM135 -2l389 720h66l-389 -720h-66z" />
    <glyph glyph-name="uni2156" unicode="&#x2156;" horiz-adv-x="769" 
d="M39 316v59l101 107q65 75 65 114v3q0 44 -43 44q-44 0 -44 -46v-15h-89v23q0 53 37 82.5t97 29.5q62 0 97 -32.5t35 -84.5q0 -31 -15 -62.5t-29.5 -49t-46.5 -52.5l-39 -46h133v-74h-259zM596 -12q-60 0 -97 27t-37 72v27h88v-12q0 -18 13 -29.5t35 -11.5q48 0 48 52v32
q0 23 -13.5 35t-34.5 12q-24 0 -45 -23l-85 9l10 216h240v-76h-162q0 -6 -2.5 -45t-2.5 -45q34 25 79 25q44 0 77.5 -25t33.5 -74v-52q0 -53 -43.5 -83.5t-101.5 -30.5zM162 -2l389 720h66l-389 -720h-66z" />
    <glyph glyph-name="uni2157" unicode="&#x2157;" horiz-adv-x="769" 
d="M172 304q-67 0 -102.5 29t-35.5 81v16h88v-13q0 -20 13.5 -30.5t33.5 -10.5q47 0 47 54q0 27 -16 39t-34 12h-36v63h30q52 0 52 52q0 24 -13 35.5t-31 11.5q-45 0 -45 -41v-11h-86v16q0 51 35.5 81t97.5 30t97.5 -30.5t35.5 -79.5q0 -31 -16.5 -57t-47.5 -35v-2
q34 -8 54 -33.5t20 -58.5q0 -60 -38.5 -89t-102.5 -29zM162 -2l389 720h66l-389 -720h-66zM596 -12q-60 0 -97 27t-37 72v27h88v-12q0 -18 13 -29.5t35 -11.5q48 0 48 52v32q0 23 -13.5 35t-34.5 12q-24 0 -45 -23l-85 9l10 216h240v-76h-162q0 -6 -2.5 -45t-2.5 -45
q34 25 79 25q44 0 77.5 -25t33.5 -74v-52q0 -53 -43.5 -83.5t-101.5 -30.5z" />
    <glyph glyph-name="uni2158" unicode="&#x2158;" horiz-adv-x="769" 
d="M181 316v86h-162v67l143 243h98l-149 -238h70v51l94 64v-115h41v-72h-41v-86h-94zM596 -12q-60 0 -97 27t-37 72v27h88v-12q0 -18 13 -29.5t35 -11.5q48 0 48 52v32q0 23 -13.5 35t-34.5 12q-24 0 -45 -23l-85 9l10 216h240v-76h-162q0 -6 -2.5 -45t-2.5 -45q34 25 79 25
q44 0 77.5 -25t33.5 -74v-52q0 -53 -43.5 -83.5t-101.5 -30.5zM163 -2l389 720h66l-389 -720h-66z" />
    <glyph glyph-name="uni2159" unicode="&#x2159;" horiz-adv-x="769" 
d="M141 316v314l-49 -11l-10 68l102 27h52v-398h-95zM579 -12q-58 0 -100 31.5t-42 84.5v175q0 61 42 92t105 31q60 0 95.5 -29.5t35.5 -77.5v-20h-88v14q0 19 -13.5 29t-33.5 10q-21 0 -33 -11.5t-12 -30.5v-75q31 34 86 34q45 0 72 -26t27 -64v-53q0 -52 -41 -83t-100 -31
zM582 60q23 0 34 12t11 30v46q0 41 -44 41q-18 0 -33 -13t-15 -37v-36q0 -18 12.5 -30.5t34.5 -12.5zM140 -2l389 720h66l-389 -720h-66z" />
    <glyph glyph-name="uni215A" unicode="&#x215a;" horiz-adv-x="769" 
d="M586 -12q-58 0 -100 31.5t-42 84.5v175q0 61 42 92t105 31q60 0 95.5 -29.5t35.5 -77.5v-20h-88v14q0 19 -13 29t-34 10t-33 -11.5t-12 -30.5v-75q31 34 86 34q45 0 72 -26t27 -64v-53q0 -52 -41 -83t-100 -31zM589 60q23 0 34 12t11 30v46q0 41 -44 41q-18 0 -33 -13
t-15 -37v-36q0 -18 12.5 -30.5t34.5 -12.5zM188 304q-60 0 -97 27t-37 72v27h88v-12q0 -18 13 -29.5t35 -11.5q48 0 48 52v32q0 23 -13.5 35t-34.5 12q-24 0 -45 -23l-85 9l10 216h240v-76h-162q0 -6 -2.5 -45t-2.5 -45q34 25 79 25q44 0 77.5 -25t33.5 -74v-52
q0 -53 -43.5 -83.5t-101.5 -30.5zM163 -2l389 720h66l-389 -720h-66z" />
    <glyph glyph-name="uni215B" unicode="&#x215b;" horiz-adv-x="769" 
d="M141 316v314l-49 -11l-10 68l102 27h52v-398h-95zM580 -12q-64 0 -102 26t-38 80v27q0 53 50 76q-20 9 -32.5 29t-12.5 41v28q0 50 39 78.5t96 28.5q58 0 96.5 -27.5t38.5 -77.5v-28q0 -49 -45 -71q21 -10 36 -30.5t15 -43.5v-32q0 -49 -40 -76.5t-101 -27.5zM580 55
q47 0 47 42v27q0 20 -14 30.5t-33 10.5q-20 0 -34 -10t-14 -29v-30q0 -19 13.5 -30t34.5 -11zM581 228q20 0 32.5 11t12.5 29v26q0 19 -14 29.5t-33 10.5q-18 0 -32 -10t-14 -27v-30q0 -19 14 -29t34 -10zM140 -2l389 720h66l-389 -720h-66z" />
    <glyph glyph-name="uni215C" unicode="&#x215c;" horiz-adv-x="769" 
d="M589 -12q-64 0 -102 26t-38 80v27q0 53 50 76q-20 9 -32.5 29t-12.5 41v28q0 50 39 78.5t96 28.5q58 0 96.5 -27.5t38.5 -77.5v-28q0 -49 -45 -71q21 -10 36 -30.5t15 -43.5v-32q0 -49 -40 -76.5t-101 -27.5zM589 55q47 0 47 42v27q0 20 -14 30.5t-33 10.5q-20 0 -34 -10
t-14 -29v-30q0 -19 13.5 -30t34.5 -11zM590 228q20 0 32.5 11t12.5 29v26q0 19 -14 29.5t-33 10.5q-18 0 -32 -10t-14 -27v-30q0 -19 14 -29t34 -10zM192 304q-67 0 -102.5 29t-35.5 81v16h88v-13q0 -20 13.5 -30.5t33.5 -10.5q47 0 47 54q0 27 -16 39t-34 12h-36v63h30
q52 0 52 52q0 24 -13 35.5t-31 11.5q-45 0 -45 -41v-11h-86v16q0 51 35.5 81t97.5 30t97.5 -30.5t35.5 -79.5q0 -31 -16.5 -57t-47.5 -35v-2q34 -8 54 -33.5t20 -58.5q0 -60 -38.5 -89t-102.5 -29zM170 -2l389 720h66l-389 -720h-66z" />
    <glyph glyph-name="uni215D" unicode="&#x215d;" horiz-adv-x="769" 
d="M585 -12q-64 0 -102 26t-38 80v27q0 53 50 76q-20 9 -32.5 29t-12.5 41v28q0 50 39 78.5t96 28.5q58 0 96.5 -27.5t38.5 -77.5v-28q0 -49 -45 -71q21 -10 36 -30.5t15 -43.5v-32q0 -49 -40 -76.5t-101 -27.5zM585 55q47 0 47 42v27q0 20 -14 30.5t-33 10.5q-20 0 -34 -10
t-14 -29v-30q0 -19 13.5 -30t34.5 -11zM586 228q20 0 32.5 11t12.5 29v26q0 19 -14 29.5t-33 10.5q-18 0 -32 -10t-14 -27v-30q0 -19 14 -29t34 -10zM189 304q-60 0 -97 27t-37 72v27h88v-12q0 -18 13 -29.5t35 -11.5q48 0 48 52v32q0 23 -13.5 35t-34.5 12q-24 0 -45 -23
l-85 9l10 216h240v-76h-162q0 -6 -2.5 -45t-2.5 -45q34 25 79 25q44 0 77.5 -25t33.5 -74v-52q0 -53 -43.5 -83.5t-101.5 -30.5zM163 -2l389 720h66l-389 -720h-66z" />
    <glyph glyph-name="uni215E" unicode="&#x215e;" horiz-adv-x="769" 
d="M585 -12q-64 0 -102 26t-38 80v27q0 53 50 76q-20 9 -32.5 29t-12.5 41v28q0 50 39 78.5t96 28.5q58 0 96.5 -27.5t38.5 -77.5v-28q0 -49 -45 -71q21 -10 36 -30.5t15 -43.5v-32q0 -49 -40 -76.5t-101 -27.5zM585 55q47 0 47 42v27q0 20 -14 30.5t-33 10.5q-20 0 -34 -10
t-14 -29v-30q0 -19 13.5 -30t34.5 -11zM586 228q20 0 32.5 11t12.5 29v26q0 19 -14 29.5t-33 10.5q-18 0 -32 -10t-14 -27v-30q0 -19 14 -29t34 -10zM118 316q1 90 37.5 175t86.5 143h-174v76h274v-64q-54 -53 -88 -143.5t-33 -186.5h-103zM146 -2l389 720h66l-389 -720h-66
z" />
    <glyph glyph-name="arrowleft" unicode="&#x2190;" horiz-adv-x="575" 
d="M237 145l-192 204v9l192 204l61 -59l-108 -105h328v-89h-328l106 -108z" />
    <glyph glyph-name="arrowup" unicode="&#x2191;" horiz-adv-x="575" 
d="M245 118v328l-103 -109l-60 61l203 192h9l204 -192l-55 -58l-108 106v-328h-90z" />
    <glyph glyph-name="arrowright" unicode="&#x2192;" horiz-adv-x="575" 
d="M334 145l-59 56l107 108h-329v89h329l-108 105l60 59l193 -204v-9z" />
    <glyph glyph-name="arrowdown" unicode="&#x2193;" horiz-adv-x="575" 
d="M286 118l-204 191l56 59l107 -106v328h90v-328l105 107l58 -60l-203 -191h-9z" />
    <glyph glyph-name="uni2196" unicode="&#x2196;" horiz-adv-x="575" 
d="M426 155l-233 231l3 -148h-84l6 280l8 6l280 7l2 -79l-151 -1l232 -234z" />
    <glyph glyph-name="uni2197" unicode="&#x2197;" horiz-adv-x="575" 
d="M176 155l-64 62l233 234l-151 1l1 79l281 -7l7 -6l6 -280h-84l4 148z" />
    <glyph glyph-name="uni2198" unicode="&#x2198;" horiz-adv-x="575" 
d="M195 155l-1 79l151 1l-233 233l64 63l233 -232q0 10 -2 74.5t-2 75.5h84q0 -13 -3 -140.5t-3 -139.5l-7 -6z" />
    <glyph glyph-name="uni2199" unicode="&#x2199;" horiz-adv-x="575" 
d="M406 155l-280 8l-8 6l-6 280h84l-3 -150l233 232l63 -63l-232 -233l151 -1z" />
    <glyph glyph-name="partialdiff" unicode="&#x2202;" horiz-adv-x="523" 
d="M262 -12q-95 0 -155 46t-60 144v143q0 79 43.5 128.5t115.5 62.5q22 2 40 -3l-140 204l147 14q148 -214 187 -282q35 -49 35 -121v-142q0 -97 -60.5 -145.5t-152.5 -48.5zM263 88q78 0 78 89v153q0 40 -19 64t-57 24q-41 0 -62 -24.5t-21 -66.5v-156q0 -83 81 -83z" />
    <glyph glyph-name="Delta" unicode="&#x2206;" horiz-adv-x="631" 
d="M30 0v62l207 652h169l208 -651v-63h-584zM179 118h281l-141 465h-4z" />
    <glyph glyph-name="product" unicode="&#x220f;" horiz-adv-x="671" 
d="M125 -133v721h-88v125h596v-125h-84v-721h-126v721h-172v-721h-126z" />
    <glyph glyph-name="summation" unicode="&#x2211;" horiz-adv-x="550" 
d="M46 -133v101l246 335l-250 309v101h460v-121h-272l218 -269v-32l-223 -304h277v-120h-456z" />
    <glyph glyph-name="minus" unicode="&#x2212;" 
d="M64 276v83h412v-83h-412z" />
    <glyph glyph-name="radical" unicode="&#x221a;" horiz-adv-x="572" 
d="M183 -1l-162 527h139l91 -341h2l178 528h127l-251 -714h-124z" />
    <glyph glyph-name="infinity" unicode="&#x221e;" horiz-adv-x="825" 
d="M597 155q-101 0 -188 103q-93 -99 -187 -99q-80 0 -129 47t-49 117q0 72 52.5 120.5t128.5 48.5q103 0 192 -103q96 96 189 96q80 0 127.5 -41t47.5 -113q0 -77 -52 -126.5t-132 -49.5zM217 233q62 0 148 92q-69 95 -140 95q-40 0 -68.5 -26t-28.5 -61q0 -42 24 -71
t65 -29zM597 230q44 0 72.5 27t28.5 67t-23.5 64.5t-68.5 24.5q-53 0 -145 -92q33 -43 64.5 -67t71.5 -24z" />
    <glyph glyph-name="integral" unicode="&#x222b;" horiz-adv-x="409" 
d="M84 -187q-48 0 -82 10l10 92q15 -3 44 -3q45 0 50 55l43 615q5 69 45 108.5t99 39.5q50 0 86 -12l-10 -93q-30 5 -49 5q-50 0 -53 -52l-43 -618q-5 -70 -42 -108.5t-98 -38.5z" />
    <glyph glyph-name="approxequal" unicode="&#x2248;" 
d="M106 150l-59 11q19 123 105 123q28 0 119 -16.5t118 -16.5q30 0 46 46l58 -13q-18 -123 -104 -123q-27 0 -119 17t-119 17q-20 0 -28.5 -10.5t-16.5 -34.5zM106 346l-59 13q8 53 34 87.5t71 34.5q28 0 119 -17t118 -17q29 0 46 48l58 -14q-18 -123 -104 -123
q-27 0 -119 17t-119 17q-20 0 -28.5 -10.5t-16.5 -35.5z" />
    <glyph glyph-name="notequal" unicode="&#x2260;" 
d="M210 72l-69 29l36 81h-113v84h153q2 7 21.5 50t20.5 45h-195v83h234q0 1 21.5 47t23.5 51l70 -29l-31 -69h94v-83h-133q-42 -93 -43 -95h176v-84h-216q-1 -4 -12.5 -29t-24 -52t-13.5 -29z" />
    <glyph glyph-name="lessequal" unicode="&#x2264;" 
d="M431 182l-363 164v64l368 161l37 -75l-288 -117q16 -8 142 -61t142 -61zM62 30v84h412v-84h-412z" />
    <glyph glyph-name="greaterequal" unicode="&#x2265;" 
d="M109 182l-38 75l284 122q-16 7 -144 58.5t-144 58.5l37 75l368 -161v-64zM66 30v84h412v-84h-412z" />
    <glyph glyph-name="blacksquare" unicode="&#x25a0;" horiz-adv-x="715" 
d="M46 0v715h623v-715h-623z" />
    <glyph glyph-name="whitesquare" unicode="&#x25a1;" horiz-adv-x="716" 
d="M47 0v713h622v-713h-622zM121 72h474v570h-474v-570z" />
    <glyph glyph-name="blacksmallsquare" unicode="&#x25aa;" horiz-adv-x="597" 
d="M52 0v553h493v-553h-493z" />
    <glyph glyph-name="triagup" unicode="&#x25b2;" horiz-adv-x="522" 
d="M51 164v8l199 380h9l212 -380v-8h-420z" />
    <glyph glyph-name="triagrt" unicode="&#x25ba;" horiz-adv-x="522" 
d="M70 148v419h8l380 -201v-8q-52 -30 -205.5 -114t-174.5 -96h-8z" />
    <glyph glyph-name="triagdn" unicode="&#x25bc;" horiz-adv-x="522" 
d="M263 164l-212 379v9h420v-9l-200 -379h-8z" />
    <glyph glyph-name="triaglf" unicode="&#x25c4;" horiz-adv-x="522" 
d="M443 148l-380 210v8q351 185 380 201h8v-419h-8z" />
    <glyph glyph-name="lozenge" unicode="&#x25ca;" horiz-adv-x="525" 
d="M229 0l-186 339v12l186 362h68l185 -362v-12l-185 -339h-68zM265 108l124 234l-129 252l-122 -244z" />
    <glyph glyph-name="uni25E2" unicode="&#x25e2;" horiz-adv-x="522" 
d="M477 127l-420 82l-4 7l285 317l6 -1l139 -399z" />
    <glyph glyph-name="uni25E3" unicode="&#x25e3;" horiz-adv-x="522" 
d="M59 127l-6 6l139 399l7 1l284 -317l-3 -7z" />
    <glyph glyph-name="uni25E4" unicode="&#x25e4;" horiz-adv-x="522" 
d="M199 126q-1 0 -3.5 0.5t-3.5 0.5q-14 40 -139 398q0 1 6 7l420 -82l4 -8z" />
    <glyph glyph-name="uni25E5" unicode="&#x25e5;" horiz-adv-x="522" 
d="M338 126l-285 316l4 8l420 82l6 -7q-7 -20 -69.5 -199t-69.5 -199q-1 0 -4 -1h-2z" />
    <glyph glyph-name="I.alt" unicode="&#xe131;" horiz-adv-x="428" 
d="M30 598v115h367v-115h-111v-482h111v-116h-367v116h112v482h-112z" />
    <glyph glyph-name="I.alt" unicode="&#xe488;" horiz-adv-x="428" 
d="M30 598v115h367v-115h-111v-482h111v-116h-367v116h112v482h-112z" />
    <glyph glyph-name="Igrave.alt" unicode="&#xe132;" horiz-adv-x="422" 
d="M28 598v115h367v-115h-111v-482h111v-116h-367v116h112v482h-112zM174 761l-119 155h131l86 -155h-98z" />
    <glyph glyph-name="Iacute.alt" unicode="&#xe133;" horiz-adv-x="422" 
d="M28 598v115h367v-115h-111v-482h111v-116h-367v116h112v482h-112zM161 761l86 155h130l-117 -155h-99z" />
    <glyph glyph-name="Icircumflex.alt" unicode="&#xe134;" horiz-adv-x="422" 
d="M28 598v115h367v-115h-111v-482h111v-116h-367v116h112v482h-112zM57 762l107 160h95l106 -160h-103l-53 89l-54 -89h-98z" />
    <glyph glyph-name="Idieresis.alt" unicode="&#xe135;" horiz-adv-x="422" 
d="M28 598v115h367v-115h-111v-482h111v-116h-367v116h112v482h-112zM64 772v135h111v-135h-111zM248 772v135h111v-135h-111z" />
    <glyph glyph-name="Itilde.alt" unicode="&#xe136;" horiz-adv-x="422" 
d="M28 598v115h367v-115h-111v-482h111v-116h-367v116h112v482h-112zM94 759l-65 12q6 53 34.5 88.5t73.5 35.5q26 0 77 -18t77 -18q18 0 28 12t19 36l58 -15q-7 -51 -33 -85.5t-72 -34.5q-26 0 -77 17.5t-75 17.5q-20 0 -28.5 -11t-16.5 -37z" />
    <glyph glyph-name="Imacron.alt" unicode="&#xe138;" horiz-adv-x="422" 
d="M28 598v115h367v-115h-111v-482h111v-116h-367v116h112v482h-112zM55 778v92h310v-92h-310z" />
    <glyph glyph-name="Ibreve.alt" unicode="&#xe139;" horiz-adv-x="422" 
d="M28 598v115h367v-115h-111v-482h111v-116h-367v116h112v482h-112zM212 762q-78 0 -122 42t-47 116h89q7 -41 25 -60.5t58 -19.5q66 0 72 80h85q-3 -76 -48 -117t-112 -41z" />
    <glyph glyph-name="Idotaccent.alt" unicode="&#xe13c;" horiz-adv-x="422" 
d="M28 598v115h367v-115h-111v-482h111v-116h-367v116h112v482h-112zM151 772v136h118v-136h-118z" />
    <glyph glyph-name="Iogonek.alt" unicode="&#xe13e;" horiz-adv-x="422" 
d="M313 -207q-45 0 -76.5 24.5t-31.5 71.5q0 66 57 111h-234v116h112v482h-112v115h367v-115h-111v-482h111v-116h-39q-72 -28 -72 -90q0 -48 48 -48q28 0 55 19l32 -58q-39 -30 -106 -30z" />
    <glyph glyph-name="zero.dnom" unicode="&#xe402;" horiz-adv-x="341" 
d="M172 -12q-60 0 -100.5 29t-40.5 90v174q0 61 40.5 91t98.5 30q59 0 99.5 -30t40.5 -92v-172q0 -59 -41 -89.5t-97 -30.5zM171 62q46 0 46 47v176q0 19 -12 30.5t-34 11.5q-23 0 -36 -12t-13 -31v-176q0 -20 12.5 -33t36.5 -13z" />
    <glyph glyph-name="one.dnom" unicode="&#xe403;" horiz-adv-x="276" 
d="M103 0v314l-49 -11l-10 68l102 27h52v-398h-95z" />
    <glyph glyph-name="two.dnom" unicode="&#xe404;" horiz-adv-x="331" 
d="M43 0v59l101 107q65 75 65 114v3q0 44 -43 44q-44 0 -44 -46v-15h-89v23q0 53 37 82.5t97 29.5q62 0 97 -32.5t35 -84.5q0 -31 -15 -62.5t-29.5 -49t-46.5 -52.5l-39 -46h133v-74h-259z" />
    <glyph glyph-name="three.dnom" unicode="&#xe405;" horiz-adv-x="339" 
d="M168 -12q-67 0 -102.5 29t-35.5 81v16h88v-13q0 -20 13.5 -30.5t33.5 -10.5q47 0 47 54q0 27 -16 39t-34 12h-36v63h30q52 0 52 52q0 24 -13 35.5t-31 11.5q-45 0 -45 -41v-11h-86v16q0 51 35.5 81t97.5 30t97.5 -30.5t35.5 -79.5q0 -31 -16.5 -57t-47.5 -35v-2
q34 -8 54 -33.5t20 -58.5q0 -60 -38.5 -89t-102.5 -29z" />
    <glyph glyph-name="four.dnom" unicode="&#xe406;" horiz-adv-x="330" 
d="M180 0v86h-162v67l143 243h98l-149 -238h70v51l94 64v-115h41v-72h-41v-86h-94z" />
    <glyph glyph-name="five.dnom" unicode="&#xe407;" horiz-adv-x="339" 
d="M164 -12q-60 0 -97 27t-37 72v27h88v-12q0 -18 13 -29.5t35 -11.5q48 0 48 52v32q0 23 -13.5 35t-34.5 12q-24 0 -45 -23l-85 9l10 216h240v-76h-162q0 -6 -2.5 -45t-2.5 -45q34 25 79 25q44 0 77.5 -25t33.5 -74v-52q0 -53 -43.5 -83.5t-101.5 -30.5z" />
    <glyph glyph-name="six.dnom" unicode="&#xe408;" horiz-adv-x="339" 
d="M169 -12q-58 0 -100 31.5t-42 84.5v175q0 61 42 92t105 31q60 0 95.5 -29.5t35.5 -77.5v-20h-88v14q0 19 -13.5 29t-33.5 10q-21 0 -33 -11.5t-12 -30.5v-75q31 34 86 34q45 0 72 -26t27 -64v-53q0 -52 -41 -83t-100 -31zM172 60q23 0 34 12t11 30v46q0 41 -44 41
q-18 0 -33 -13t-15 -37v-36q0 -18 12.5 -30.5t34.5 -12.5z" />
    <glyph glyph-name="seven.dnom" unicode="&#xe409;" horiz-adv-x="321" 
d="M74 0q1 90 37.5 175t86.5 143h-174v76h274v-64q-54 -53 -88 -143.5t-33 -186.5h-103z" />
    <glyph glyph-name="eight.dnom" unicode="&#xe40a;" horiz-adv-x="341" 
d="M170 -12q-64 0 -102 26t-38 80v27q0 53 50 76q-20 9 -32.5 29t-12.5 41v28q0 50 39 78.5t96 28.5q58 0 96.5 -27.5t38.5 -77.5v-28q0 -49 -45 -71q21 -10 36 -30.5t15 -43.5v-32q0 -49 -40 -76.5t-101 -27.5zM170 55q47 0 47 42v27q0 20 -14 30.5t-33 10.5q-20 0 -34 -10
t-14 -29v-30q0 -19 13.5 -30t34.5 -11zM171 228q20 0 32.5 11t12.5 29v26q0 19 -14 29.5t-33 10.5q-18 0 -32 -10t-14 -27v-30q0 -19 14 -29t34 -10z" />
    <glyph glyph-name="nine.dnom" unicode="&#xe40b;" horiz-adv-x="339" 
d="M165 -12q-60 0 -95.5 29.5t-35.5 77.5v15h88v-9q0 -19 13 -29t34 -10q44 0 44 42v70q-31 -34 -86 -34q-46 0 -73 25.5t-27 65.5v57q0 52 41.5 83t101.5 31q58 0 99 -31.5t41 -84.5v-175q0 -61 -41.5 -92t-103.5 -31zM165 201q18 0 33 13t15 37v36q0 18 -12.5 30.5
t-34.5 12.5t-33 -12t-11 -30v-46q0 -41 43 -41z" />
    <glyph glyph-name="comma.dnom" unicode="&#xe40d;" horiz-adv-x="183" 
d="M58 -81l25 86h-38v100h93v-96l-40 -90h-40z" />
    <glyph glyph-name="period.dnom" unicode="&#xe40e;" horiz-adv-x="183" 
d="M45 0v105h93v-105h-93z" />
    <glyph glyph-name="parenleft.dnom" unicode="&#xe40f;" horiz-adv-x="201" 
d="M140 -67q-40 47 -63.5 116t-23.5 137q0 66 23.5 131.5t63.5 113.5l42 -1q-31 -70 -44 -122t-13 -122q0 -130 58 -251z" />
    <glyph glyph-name="parenright.dnom" unicode="&#xe410;" horiz-adv-x="201" 
d="M82 -67l-42 2q57 119 57 251q0 70 -13 122t-44 122l42 1q41 -48 64 -113t23 -132q0 -68 -23.5 -137t-63.5 -116z" />
    <glyph glyph-name="caronSlovak" unicode="&#xe413;" horiz-adv-x="226" 
d="M51 520l9 193h111l-30 -193h-90z" />
    <glyph glyph-name="commaaccent" unicode="&#xe414;" horiz-adv-x="226" 
d="M50 -206l9 171h111l-31 -171h-89z" />
    <glyph glyph-name="commaaccent" unicode="&#xf6c3;" horiz-adv-x="226" 
d="M50 -206l9 171h111l-31 -171h-89z" />
    <glyph glyph-name="zero.numr" unicode="&#xe416;" horiz-adv-x="341" 
d="M172 306q-60 0 -100.5 29t-40.5 90v174q0 61 40.5 91t98.5 30q59 0 99.5 -30t40.5 -92v-172q0 -59 -41 -89.5t-97 -30.5zM171 380q46 0 46 47v176q0 19 -12 30.5t-34 11.5q-23 0 -36 -12t-13 -31v-176q0 -20 12.5 -33t36.5 -13z" />
    <glyph glyph-name="one.numr" unicode="&#xe417;" horiz-adv-x="276" 
d="M103 318v314l-49 -11l-10 68l102 27h52v-398h-95z" />
    <glyph glyph-name="two.numr" unicode="&#xe418;" horiz-adv-x="331" 
d="M43 318v59l101 107q65 75 65 114v3q0 44 -43 44q-44 0 -44 -46v-15h-89v23q0 53 37 82.5t97 29.5q62 0 97 -32.5t35 -84.5q0 -31 -15 -62.5t-29.5 -49t-46.5 -52.5l-39 -46h133v-74h-259z" />
    <glyph glyph-name="three.numr" unicode="&#xe419;" horiz-adv-x="339" 
d="M168 306q-67 0 -102.5 29t-35.5 81v16h88v-13q0 -20 13.5 -30.5t33.5 -10.5q47 0 47 54q0 27 -16 39t-34 12h-36v63h30q52 0 52 52q0 24 -13 35.5t-31 11.5q-45 0 -45 -41v-11h-86v16q0 51 35.5 81t97.5 30t97.5 -30.5t35.5 -79.5q0 -31 -16.5 -57t-47.5 -35v-2
q34 -8 54 -33.5t20 -58.5q0 -60 -38.5 -89t-102.5 -29z" />
    <glyph glyph-name="four.numr" unicode="&#xe41a;" horiz-adv-x="330" 
d="M180 318v86h-162v67l143 243h98l-149 -238h70v51l94 64v-115h41v-72h-41v-86h-94z" />
    <glyph glyph-name="five.numr" unicode="&#xe41b;" horiz-adv-x="339" 
d="M164 306q-60 0 -97 27t-37 72v27h88v-12q0 -18 13 -29.5t35 -11.5q48 0 48 52v32q0 23 -13.5 35t-34.5 12q-24 0 -45 -23l-85 9l10 216h240v-76h-162q0 -6 -2.5 -45t-2.5 -45q34 25 79 25q44 0 77.5 -25t33.5 -74v-52q0 -53 -43.5 -83.5t-101.5 -30.5z" />
    <glyph glyph-name="six.numr" unicode="&#xe41c;" horiz-adv-x="339" 
d="M169 306q-58 0 -100 31.5t-42 84.5v175q0 61 42 92t105 31q60 0 95.5 -29.5t35.5 -77.5v-20h-88v14q0 19 -13.5 29t-33.5 10q-21 0 -33 -11.5t-12 -30.5v-75q31 34 86 34q45 0 72 -26t27 -64v-53q0 -52 -41 -83t-100 -31zM172 378q23 0 34 12t11 30v46q0 41 -44 41
q-18 0 -33 -13t-15 -37v-36q0 -18 12.5 -30.5t34.5 -12.5z" />
    <glyph glyph-name="seven.numr" unicode="&#xe41d;" horiz-adv-x="321" 
d="M74 318q1 90 37.5 175t86.5 143h-174v76h274v-64q-54 -53 -88 -143.5t-33 -186.5h-103z" />
    <glyph glyph-name="eight.numr" unicode="&#xe41e;" horiz-adv-x="341" 
d="M170 306q-64 0 -102 26t-38 80v27q0 53 50 76q-20 9 -32.5 29t-12.5 41v28q0 50 39 78.5t96 28.5q58 0 96.5 -27.5t38.5 -77.5v-28q0 -49 -45 -71q21 -10 36 -30.5t15 -43.5v-32q0 -49 -40 -76.5t-101 -27.5zM170 373q47 0 47 42v27q0 20 -14 30.5t-33 10.5
q-20 0 -34 -10t-14 -29v-30q0 -19 13.5 -30t34.5 -11zM171 546q20 0 32.5 11t12.5 29v26q0 19 -14 29.5t-33 10.5q-18 0 -32 -10t-14 -27v-30q0 -19 14 -29t34 -10z" />
    <glyph glyph-name="nine.numr" unicode="&#xe41f;" horiz-adv-x="339" 
d="M165 306q-60 0 -95.5 29.5t-35.5 77.5v15h88v-9q0 -19 13 -29t34 -10q44 0 44 42v70q-31 -34 -86 -34q-46 0 -73 25.5t-27 65.5v57q0 52 41.5 83t101.5 31q58 0 99 -31.5t41 -84.5v-175q0 -61 -41.5 -92t-103.5 -31zM165 519q18 0 33 13t15 37v36q0 18 -12.5 30.5
t-34.5 12.5t-33 -12t-11 -30v-46q0 -41 43 -41z" />
    <glyph glyph-name="comma.numr" unicode="&#xe421;" horiz-adv-x="183" 
d="M58 237l25 86h-38v100h93v-96l-40 -90h-40z" />
    <glyph glyph-name="period.numr" unicode="&#xe422;" horiz-adv-x="183" 
d="M45 318v105h93v-105h-93z" />
    <glyph glyph-name="parenleft.numr" unicode="&#xe423;" horiz-adv-x="201" 
d="M140 251q-40 47 -63.5 116t-23.5 137q0 66 23.5 131.5t63.5 113.5l42 -1q-31 -70 -44 -122t-13 -122q0 -130 58 -251z" />
    <glyph glyph-name="parenright.numr" unicode="&#xe424;" horiz-adv-x="201" 
d="M82 251l-42 2q57 118 57 251q0 70 -13 122t-44 122l42 1q41 -48 64 -113t23 -132q0 -68 -23.5 -137t-63.5 -116z" />
    <glyph glyph-name="numbersign.LP" unicode="&#xe533;" 
d="M93 -1l24 183h-87l11 79h85l30 209h-90l10 77h87l23 168h71l-21 -168h117l23 168h71l-22 -168h84l-9 -77h-84l-28 -209h87l-9 -79h-89l-23 -183h-71l23 183h-118l-24 -183h-71zM198 261h117l30 209h-119z" />
    <glyph glyph-name="zero.LT" unicode="&#xe53f;" 
d="M273 -12q-62 0 -113.5 19t-86 65t-34.5 112v343q0 97 68 147.5t164 50.5q99 0 165 -50t66 -149v-341q0 -96 -67.5 -146.5t-161.5 -50.5zM273 101q45 0 67.5 24t22.5 62v345q0 34 -25 57.5t-66 23.5q-43 0 -68 -23.5t-25 -59.5v-343q0 -40 24 -63t70 -23z" />
    <glyph glyph-name="one.LT" unicode="&#xe541;" 
d="M209 0v587l-76 -19l-10 104l148 43h73v-715h-135z" />
    <glyph glyph-name="two.LT" unicode="&#xe542;" 
d="M70 0v78l149 196q58 82 88.5 139t30.5 104v14q0 37 -19.5 59t-59.5 22q-77 0 -77 -76v-23h-129v26q0 90 60.5 138.5t159.5 48.5q102 0 153 -54t51 -142q0 -78 -42.5 -157t-117.5 -170l-63 -81v-3h233v-119h-417z" />
    <glyph glyph-name="three.LT" unicode="&#xe543;" 
d="M271 -12q-107 0 -165.5 48t-58.5 130v33h130v-21q0 -38 25.5 -60t65.5 -22q48 0 67.5 25.5t19.5 81.5q0 40 -20.5 65t-42 32t-42.5 7h-62v109h55q100 0 100 102q0 47 -23 70.5t-60 23.5q-39 0 -60 -20t-21 -57v-23h-128v28q0 85 59.5 135t160.5 50q99 0 153 -51.5
t54 -138.5q0 -60 -28.5 -106t-80.5 -61v-3q57 -14 91.5 -60.5t34.5 -104.5q0 -100 -65 -156t-159 -56z" />
    <glyph glyph-name="four.LT" unicode="&#xe544;" 
d="M315 0v159h-284v104l230 450h152l-248 -443h150v105l128 76v-181h70v-111h-70v-159h-128z" />
    <glyph glyph-name="five.LT" unicode="&#xe545;" 
d="M265 -12q-98 0 -157 46t-59 121v44h132v-26q0 -34 24.5 -56t64.5 -22q88 0 88 95v81q0 84 -87 84q-44 0 -83 -39l-124 14l20 383h373v-120h-264l-8 -183q51 50 138 50q71 0 120 -42t49 -127v-112q0 -90 -65.5 -140.5t-161.5 -50.5z" />
    <glyph glyph-name="six.LT" unicode="&#xe546;" 
d="M268 -12q-96 0 -159 53t-63 145v337q0 96 65.5 149t164.5 53q97 0 156.5 -46.5t59.5 -124.5v-38h-138v29q0 34 -22.5 53.5t-60.5 19.5q-41 0 -63 -23t-22 -61v-159q48 76 149 76q72 0 116.5 -47t44.5 -115v-114q0 -86 -65.5 -136.5t-162.5 -50.5zM274 98q41 0 64.5 23
t23.5 55v100q0 42 -24 60t-58 18q-38 0 -66 -28t-28 -72v-72q0 -35 23.5 -59.5t64.5 -24.5z" />
    <glyph glyph-name="seven.LT" unicode="&#xe547;" 
d="M146 0q1 178 64 345.5t134 248.5h-294v119h437v-99q-96 -119 -145 -282t-48 -332h-148z" />
    <glyph glyph-name="eight.LT" unicode="&#xe548;" 
d="M271 -12q-103 0 -166 45t-63 132v62q0 45 25.5 81t64.5 54q-37 14 -59.5 49t-22.5 72v64q0 84 63.5 131t157.5 47q95 0 158 -45.5t63 -129.5v-61q0 -41 -22.5 -76t-60.5 -51q39 -15 65.5 -50.5t26.5 -79.5v-69q0 -82 -65 -128.5t-165 -46.5zM271 95q42 0 67 20.5t25 56.5
v64q0 39 -27.5 59.5t-64.5 20.5t-63.5 -20.5t-26.5 -54.5v-71q0 -35 25 -55t65 -20zM272 408q36 0 62.5 21t26.5 55v60q0 36 -27 55t-65 19q-34 0 -59.5 -19.5t-25.5 -52.5v-63q0 -35 26 -55t62 -20z" />
    <glyph glyph-name="nine.LT" unicode="&#xe549;" 
d="M267 -11q-97 0 -156.5 45.5t-59.5 122.5v42h136v-30q0 -34 23 -53t60 -19q41 0 63 22.5t22 59.5v157q-49 -73 -145 -73q-76 0 -119.5 47.5t-43.5 119.5v109q0 87 63.5 136.5t160.5 49.5q98 0 161 -52.5t63 -140.5v-341q0 -94 -64 -148t-164 -54zM262 360q38 0 65.5 28.5
t27.5 72.5v73q0 35 -23.5 59t-63.5 24q-42 0 -65 -22.5t-23 -55.5v-100q0 -42 24.5 -60.5t57.5 -18.5z" />
    <glyph glyph-name="apple" unicode="&#xf8ff;" horiz-adv-x="1082" 
d="M674 -113l-165 3l-19 -2l-7 7q13 4 25.5 7t17.5 5q49 16 59 63q8 61 15 231l-105 -3l2 11l104 6q9 138 11 231l42 24q-56 3 -191 7q-1 -31 -7 -146q-4 -77 -28.5 -137t-58 -91.5t-64.5 -46.5t-56 -15q-31 0 -84.5 15.5t-76.5 28.5l25 39q2 0 36 -13.5t72.5 -25
t60.5 -10.5q52 1 93.5 66.5t39.5 142.5l5 194q-10 0 -32 1t-33 1q-63 0 -114 -45.5t-51 -109.5q20 -44 82 -71q0 -5 -6.5 -19.5t-10.5 -19.5q-71 31 -78 102q0 76 58.5 130.5t152.5 70.5h33l6 175l43 19q-219 8 -261 8q-63 0 -114 -44.5t-51 -107.5q20 -41 84 -66
q0 -3 -5 -11.5t-11.5 -17.5t-6.5 -10q-72 30 -79 101q0 72 60.5 124t140.5 72q69 0 193.5 -5t174.5 -6q16 0 66 -2q5 0 22 -0.5t21 -0.5q14 -1 35 3q16 11 24 28l9 -3q-8 -18 -26 -36q-60 -30 -121 -30q-50 0 -150 4q-3 -14 -4.5 -73t-3.5 -69l-2 -53q16 0 178 -7t246 -7
l69 -1q70 3 97 16l5 -6q-105 -45 -240 -45q-72 0 -158 3q-3 -20 -8 -103.5t-6 -93.5q0 -9 -2 -55l158 10h4l4 -3l-37 -55l-8 5l25 36l-147 -9q-8 -141 -14 -203q-2 -19 -21 -45t-38 -34l1 -1q32 5 96 6t81 2v-1q0 -11 -9.5 -23.5t-20.5 -13.5q-12 -2 -46 -2z" />
    <glyph glyph-name="CR" horiz-adv-x="130" 
 />
    <glyph glyph-name="uni00A0" horiz-adv-x="180" 
 />
    <glyph glyph-name="LF" horiz-adv-x="15" 
 />
    <glyph glyph-name="RS" horiz-adv-x="15" 
 />
    <glyph glyph-name="US" horiz-adv-x="15" 
 />
    <glyph glyph-name="DEL" horiz-adv-x="0" 
 />
    <glyph glyph-name="period.sub" horiz-adv-x="183" 
d="M45 -133v105h93v-105h-93z" />
    <glyph glyph-name="comma.sub" horiz-adv-x="183" 
d="M58 -214l25 86h-38v100h93v-96l-40 -90h-40z" />
    <glyph glyph-name="period.sup" horiz-adv-x="183" 
d="M45 380v105h93v-105h-93z" />
    <glyph glyph-name="comma.sup" horiz-adv-x="183" 
d="M58 299l25 86h-38v100h93v-96l-40 -90h-40z" />
    <glyph glyph-name="commatop" horiz-adv-x="226" 
d="M54 582v85l39 109h56l-17 -86h39v-108h-117z" />
    <glyph glyph-name="ringacute" horiz-adv-x="290" 
d="M147 572q-49 0 -74 26.5t-25 63.5q0 44 33 76l94 97l73 -36l-65 -50q31 -7 47 -29.5t16 -52.5q0 -41 -28 -68t-71 -27zM146 613q21 0 34 14t13 38t-12 37.5t-33 13.5t-33.5 -14.5t-12.5 -38.5q0 -50 44 -50z" />
    <glyph glyph-name="altogonek" horiz-adv-x="299" 
d="M159 -203q-41 0 -71.5 25.5t-30.5 72.5q0 50 32 85.5t70 50.5l39 -29q-63 -27 -63 -90q0 -46 49 -46q18 0 37 12l27 -58q-37 -23 -89 -23z" />
    <glyph glyph-name="ogonekplus" horiz-adv-x="321" 
d="M155 -207q-45 0 -76.5 24.5t-31.5 71.5q0 52 35.5 91t81.5 53l31 -23q-29 -17 -49 -44t-20 -56q0 -49 48 -49q27 0 55 20l32 -58q-39 -30 -106 -30z" />
    <glyph glyph-name="IJ.alt" horiz-adv-x="947" 
d="M30 598v115h367v-115h-111v-482h111v-116h-367v116h112v482h-112zM642 -12q-240 0 -240 212v59h137v-54q0 -103 100 -103q52 0 75 29.5t23 72.5v509h142v-495q0 -106 -62 -168t-175 -62z" />
    <glyph glyph-name="idotaccent" horiz-adv-x="253" 
d="M61 0v525h132v-525h-132zM61 590v134h132v-134h-132z" />
    </font>
</defs>
</svg>
