<?xml version="1.0" standalone="no"?>
<!DOCTYPE svg PUBLIC "-//W3C//DTD SVG 1.1//EN" "http://www.w3.org/Graphics/SVG/1.1/DTD/svg11.dtd" >
<svg xmlns="http://www.w3.org/2000/svg" xmlns:xlink="http://www.w3.org/1999/xlink" version="1.1">
<metadata>
Created by FontForge 20161013 at Fri Apr 11 06:03:41 2008
 By ,,,
Copyright (c) 2008 by Mrio Feliciano. All rights reserved.
</metadata>
<defs>
<font id="FlamaUltracondensed-Light" horiz-adv-x="160" >
  <font-face 
    font-family="Flama Ultracondensed Light"
    font-weight="500"
    font-stretch="normal"
    units-per-em="1000"
    panose-1="2 0 0 0 0 0 0 0 0 0"
    ascent="800"
    descent="-200"
    x-height="526"
    cap-height="713"
    bbox="-67 -221 1278 958"
    underline-thickness="50"
    underline-position="-200"
    unicode-range="U+0020-F8FF"
  />
<missing-glyph horiz-adv-x="1000" 
d="M235 118l-40 40l185 185l-185 185l40 40l185 -185l185 185l40 -40l-185 -185l185 -185l-40 -40l-185 185zM55 -18v716h712v-716h-712zM115 42h592v596h-592v-596z" />
    <glyph glyph-name="fi" unicode="fi" horiz-adv-x="252" 
d="M175 0v526h39v-526h-39zM175 618v97h39v-97h-39zM48 0v494h-31v32h31v129q0 27 15.5 44t44.5 17q16 0 25 -2v-34q-8 1 -23 1q-23 0 -23 -24v-131h37v-32h-37v-494h-39z" />
    <glyph glyph-name="fl" unicode="fl" horiz-adv-x="258" 
d="M214 -4q-39 0 -39 41v676h39v-669q0 -11 12 -11q7 0 15 1v-33q-13 -5 -27 -5zM48 0v494h-31v32h31v129q0 27 15.5 44t44.5 17q16 0 25 -2v-34q-8 1 -23 1q-23 0 -23 -24v-131h37v-32h-37v-494h-39z" />
    <glyph glyph-name=".notdef" horiz-adv-x="1000" 
d="M235 118l-40 40l185 185l-185 185l40 40l185 -185l185 185l40 -40l-185 -185l185 -185l-40 -40l-185 185zM55 -18v716h712v-716h-712zM115 42h592v596h-592v-596z" />
    <glyph glyph-name=".null" horiz-adv-x="0" 
 />
    <glyph glyph-name="nonmarkingreturn" horiz-adv-x="333" 
 />
    <glyph glyph-name="space" unicode=" " horiz-adv-x="80" 
 />
    <glyph glyph-name="exclam" unicode="!" horiz-adv-x="123" 
d="M49 178l-7 243v292h39v-292l-6 -243h-26zM43 0v90h37v-90h-37z" />
    <glyph glyph-name="quotedbl" unicode="&#x22;" horiz-adv-x="194" 
d="M45 546l-7 88v81h34v-81l-5 -88h-22zM129 546l-7 88v81h34v-81l-5 -88h-22z" />
    <glyph glyph-name="numbersign" unicode="#" horiz-adv-x="289" 
d="M55 -2l12 202h-44l2 32h45l18 252h-46l3 33h44l17 200h35l-16 -200h65l15 200h36l-15 -200h44l-2 -33h-43l-18 -252h43l-1 -32h-44l-14 -202h-36l14 202h-66l-12 -202h-36zM106 232h66l17 252h-65z" />
    <glyph glyph-name="dollar" unicode="$" horiz-adv-x="232" 
d="M98 -35v69q-75 13 -76 143h38q2 -54 13 -82.5t43 -28.5q27 0 39 23.5t12 54.5q0 70 -45 160l-45 89q-51 102 -51 170q0 95 72 108v66h37v-65q37 -6 55.5 -37t19.5 -102h-40q-2 62 -14.5 84.5t-38.5 22.5q-49 0 -49 -77q0 -69 50 -158l27 -53q62 -119 62 -209
q0 -46 -18.5 -75.5t-53.5 -33.5v-69h-37z" />
    <glyph glyph-name="percent" unicode="%" horiz-adv-x="400" 
d="M103 385q-33 0 -52 22t-19 62v172q0 41 18.5 63.5t52.5 22.5t53 -23t19 -63v-172q0 -39 -19.5 -61.5t-52.5 -22.5zM102 419q38 0 38 49v177q0 49 -38 49q-36 0 -36 -49v-177q0 -49 36 -49zM297 -10q-33 0 -52 22t-19 62v166q0 41 19 66.5t52 25.5q34 0 52.5 -23t18.5 -63
v-172q0 -40 -19 -62t-52 -22zM296 22q37 0 37 51v177q0 48 -37 48t-37 -48v-177q0 -50 37 -51zM88 0l193 723h33l-190 -723h-36z" />
    <glyph glyph-name="ampersand" unicode="&#x26;" horiz-adv-x="261" 
d="M120 -11q-29 0 -48 16t-28.5 45.5t-13 60.5t-3.5 71q0 73 11 124.5t44 87.5q-42 113 -42 200q0 132 81 132q73 0 73 -127q0 -128 -67 -214l69 -206q10 65 16 130l31 -2q-10 -98 -30 -180l43 -127h-38l-24 72q-8 -36 -29 -59.5t-45 -23.5zM121 27q21 0 37 28t23 59
l-84 242q-15 -22 -22 -55t-8 -53.5t-1 -62.5q0 -32 1 -51.5t5.5 -48.5t17 -43.5t31.5 -14.5zM113 417q44 62 44 179q0 98 -38 98q-39 0 -39 -98q0 -78 33 -179z" />
    <glyph glyph-name="quotesingle" unicode="'" horiz-adv-x="110" 
d="M45 546l-7 88v81h34v-81l-5 -88h-22z" />
    <glyph glyph-name="parenleft" unicode="(" horiz-adv-x="123" 
d="M94 -162q-29 87 -44.5 211.5t-15.5 233.5q0 262 60 441l23 -3q-27 -148 -36 -229t-9 -210q0 -185 45 -439z" />
    <glyph glyph-name="parenright" unicode=")" horiz-adv-x="123" 
d="M29 -162l-23 5q45 254 45 439q0 129 -9 210t-36 229l23 3q60 -179 60 -441q0 -109 -15.5 -233.5t-44.5 -211.5z" />
    <glyph glyph-name="asterisk" unicode="*" horiz-adv-x="238" 
d="M74 523l-26 18l42 68l-65 42l16 27l63 -38v76h31v-76l62 38l16 -27l-65 -42l42 -68l-25 -18l-46 72z" />
    <glyph glyph-name="plus" unicode="+" horiz-adv-x="240" 
d="M105 212v92h-79v35h79v93h30l-1 -93h80v-35h-79v-92h-30z" />
    <glyph glyph-name="comma" unicode="," horiz-adv-x="113" 
d="M38 -79l10 81h-10v88h37v-83l-14 -86h-23z" />
    <glyph glyph-name="hyphen" unicode="-" horiz-adv-x="162" 
d="M22 283v40h118v-40h-118z" />
    <glyph glyph-name="period" unicode="." horiz-adv-x="113" 
d="M38 0v90h37v-90h-37z" />
    <glyph glyph-name="slash" unicode="/" horiz-adv-x="157" 
d="M-12 -158l126 871h35l-124 -871h-37z" />
    <glyph glyph-name="zero" unicode="0" horiz-adv-x="231" 
d="M112 -6q-84 0 -84 101v534q0 45 25.5 69.5t64.5 24.5q37 0 61 -22.5t24 -65.5v-541q0 -51 -24.5 -75.5t-66.5 -24.5zM116 32q44 0 44 56v545q0 21 -10.5 36.5t-33.5 15.5q-45 0 -45 -50v-546q0 -21 10.5 -39t34.5 -18z" />
    <glyph glyph-name="one" unicode="1" horiz-adv-x="171" 
d="M66 0v660l-32 -16l-9 30l54 39h28v-713h-41z" />
    <glyph glyph-name="two" unicode="2" horiz-adv-x="207" 
d="M19 0v31l51 148q71 205 71 364v18q0 124 -40 124q-35 0 -35 -93v-53h-41v52q0 132 78 132q82 0 82 -164q0 -109 -19.5 -197t-57.5 -200l-42 -124v-1h119v-37h-166z" />
    <glyph glyph-name="three" unicode="3" horiz-adv-x="213" 
d="M106 -6q-28 0 -45.5 14.5t-25.5 43t-10.5 55.5t-2.5 68v12h44v-17q0 -31 0.5 -46t4 -40.5t12.5 -37.5t23 -12q24 0 32 40.5t8 126.5q0 149 -57 149h-24v41h27q30 0 40.5 39t10.5 118q0 78 -9 107.5t-31 29.5q-13 0 -21 -10t-11 -32t-3.5 -35.5t-0.5 -41.5v-27h-41v42
q0 142 81 142q79 0 79 -178q0 -143 -51 -169v-2q56 -25 56 -183q0 -197 -85 -197z" />
    <glyph glyph-name="four" unicode="4" horiz-adv-x="220" 
d="M130 0v202h-117v35l109 476h40l-111 -475h79v186l39 43v-229h38v-36h-38v-202h-39z" />
    <glyph glyph-name="five" unicode="5" horiz-adv-x="213" 
d="M106 -6q-84 0 -84 133v60h42v-50q0 -103 42 -103q43 0 43 106v180q0 47 -8 68t-32 21q-33 0 -45 -49h-33l11 353h142v-38h-105l-8 -268q15 39 56 39q26 0 45 -24t19 -75v-201q0 -152 -85 -152z" />
    <glyph glyph-name="six" unicode="6" horiz-adv-x="228" 
d="M113 -6q-40 0 -60.5 29t-20.5 78v518q0 51 24 77t62 26t59.5 -27t21.5 -64v-92h-40v80q0 66 -43 66t-43 -69v-215q21 29 53 29q74 0 74 -86v-245q0 -51 -23.5 -78t-63.5 -27zM116 31q43 0 43 66v245q0 51 -41 51q-23 0 -34 -16.5t-11 -36.5v-249q0 -22 10 -41t33 -19z
" />
    <glyph glyph-name="seven" unicode="7" horiz-adv-x="202" 
d="M52 0q6 430 91 675h-118v38h158v-34q-83 -240 -92 -679h-39z" />
    <glyph glyph-name="eight" unicode="8" horiz-adv-x="227" 
d="M110 -4q-84 0 -84 101v199q0 53 34 77q-29 25 -29 85v171q0 45 24.5 69.5t61.5 24.5q36 0 58.5 -22.5t22.5 -65.5v-178q0 -58 -30 -82q33 -23 33 -73v-206q0 -51 -24.5 -75.5t-66.5 -24.5zM114 34q44 0 44 56v210q0 22 -11 39t-33 17q-24 0 -34.5 -16.5t-10.5 -37.5v-211
q0 -21 10.5 -39t34.5 -18zM115 392q42 0 42 59v182q0 21 -10.5 36.5t-31.5 15.5q-43 0 -43 -50v-183q0 -22 10 -41t33 -19z" />
    <glyph glyph-name="nine" unicode="9" horiz-adv-x="224" 
d="M110 -6q-39 0 -60 28t-21 74v91h40v-84q0 -71 43 -71t43 72v217q-21 -29 -53 -29q-74 0 -74 86v239q0 51 23.5 78t63.5 27t60.5 -29t20.5 -78v-504q0 -117 -86 -117zM110 329q23 0 34 16.5t11 36.5v243q0 22 -10 41t-33 19q-43 0 -43 -66v-239q0 -51 41 -51z" />
    <glyph glyph-name="colon" unicode=":" horiz-adv-x="113" 
d="M38 436v90h37v-90h-37zM38 0v90h37v-90h-37z" />
    <glyph glyph-name="semicolon" unicode=";" horiz-adv-x="115" 
d="M38 -79l12 81h-10v88h37v-83l-16 -86h-23zM40 436v90h37v-90h-37z" />
    <glyph glyph-name="less" unicode="&#x3c;" horiz-adv-x="240" 
d="M188 222l-154 86l1 28l153 86l17 -31l-127 -69l128 -70z" />
    <glyph glyph-name="equal" unicode="=" horiz-adv-x="240" 
d="M26 248v35h188v-35h-188zM26 340v35h188v-35h-188z" />
    <glyph glyph-name="greater" unicode="&#x3e;" horiz-adv-x="240" 
d="M52 222l-17 31l127 69l-128 70l18 30l154 -86l-1 -28z" />
    <glyph glyph-name="question" unicode="?" horiz-adv-x="214" 
d="M83 178v43q0 82 33 171q30 80 30 148v18.5v21t-0.5 21t-1.5 22t-2.5 19.5t-5 18t-7.5 13.5t-10 9.5t-14 3q-23 0 -30.5 -26.5t-7.5 -74.5v-57h-36v46q0 75 17 112t60 37q23 0 39 -13.5t24 -40t11 -55.5t3 -68q0 -76 -38 -173q-29 -75 -29 -126v-69h-35zM85 0v90h37v-90
h-37z" />
    <glyph glyph-name="at" unicode="@" horiz-adv-x="492" 
d="M268 0q-86 0 -140 46q-96 80 -96 273q0 176 60.5 284t176.5 108q39 0 71 -13.5t60 -44.5t44 -88.5t16 -137.5q0 -144 -49.5 -223t-129.5 -84h-27l5 38h-2q-24 -44 -70 -44q-29 0 -42.5 15.5t-13.5 39.5q0 10 2 18l46 320q5 35 29 58.5t55 23.5q34 0 49 -27h1l4 27h41
l-64 -432q44 0 75 44.5t43 102.5t12 120q0 138 -41 197t-116 59q-101 0 -150 -99t-49 -257q0 -191 91 -258q48 -34 120 -34q42 0 104 18l9 -30q-51 -20 -124 -20zM203 147q24 0 40.5 22t21.5 55l40 270q1 4 1 11q0 22 -11 36t-31 14q-38 0 -47 -59l-42 -291q-3 -15 -3 -26
q0 -32 31 -32z" />
    <glyph glyph-name="A" unicode="A" horiz-adv-x="285" 
d="M22 0l91 714h60l90 -714h-42l-30 247h-100l-30 -247h-39zM96 285h90l-44 377h-2z" />
    <glyph glyph-name="B" unicode="B" horiz-adv-x="237" 
d="M38 0v713h69q33 0 54 -13t31.5 -39.5t14 -55.5t3.5 -71q0 -146 -69 -161v-3q43 -11 56.5 -55t13.5 -120q0 -110 -23 -152.5t-73 -42.5h-77zM79 37h33q33 0 45.5 39t12.5 122q0 82 -18 117.5t-56 35.5h-17v-314zM79 385h22q71 0 71 149q0 141 -59 141h-34v-290z" />
    <glyph glyph-name="C" unicode="C" horiz-adv-x="243" 
d="M127 -6q-48 0 -72.5 25.5t-24.5 68.5v531q0 47 23.5 76t72.5 29q46 0 68.5 -27.5t22.5 -66.5v-123h-37v114q0 66 -54 66q-36 0 -46 -18.5t-10 -52.5v-517q0 -69 56 -69q54 0 54 70v111h37v-112q0 -47 -23 -76t-67 -29z" />
    <glyph glyph-name="D" unicode="D" horiz-adv-x="250" 
d="M38 0v713h84q42 0 70 -23.5t28 -68.5v-514q0 -55 -28.5 -81t-74.5 -26h-79zM79 37h41q33 0 46 20.5t13 45.5v516q0 25 -15 40.5t-44 15.5h-41v-638z" />
    <glyph glyph-name="E" unicode="E" horiz-adv-x="204" 
d="M38 0v713h142v-38h-103v-277h86v-38h-86v-323h105v-37h-144z" />
    <glyph glyph-name="F" unicode="F" horiz-adv-x="195" 
d="M38 0v713h141v-38h-102v-278h83v-37h-83v-360h-39z" />
    <glyph glyph-name="G" unicode="G" horiz-adv-x="247" 
d="M127 -6q-48 0 -72.5 25.5t-24.5 68.5v531q0 47 23.5 76t72.5 29q46 0 68.5 -27.5t22.5 -66.5v-123h-37v114q0 66 -54 66q-36 0 -46 -18.5t-10 -52.5v-517q0 -69 56 -69q54 0 54 70v239h-63v37h100v-277q0 -47 -23 -76t-67 -29z" />
    <glyph glyph-name="H" unicode="H" horiz-adv-x="266" 
d="M38 0v713h40v-325h110v325h40v-713h-40v347h-110v-347h-40z" />
    <glyph glyph-name="I" unicode="I" horiz-adv-x="116" 
d="M38 0v713h40v-713h-40z" />
    <glyph glyph-name="J" unicode="J" horiz-adv-x="236" 
d="M112 -8q-46 0 -68 27.5t-22 71.5v129h42v-120q0 -72 50 -72q29 0 39 18t10 53v614h40v-623q0 -44 -24.5 -71t-66.5 -27z" />
    <glyph glyph-name="K" unicode="K" horiz-adv-x="252" 
d="M38 0v713h40v-359l110 359h39l-81 -262l84 -451h-42l-68 388l-42 -132v-256h-40z" />
    <glyph glyph-name="L" unicode="L" horiz-adv-x="196" 
d="M38 0v713h39v-676h105v-37h-144z" />
    <glyph glyph-name="M" unicode="M" horiz-adv-x="308" 
d="M38 0v713h36l79 -285h3l80 285h34v-713h-40v578h-1l-65 -224h-24l-62 221h-2v-575h-38z" />
    <glyph glyph-name="N" unicode="N" horiz-adv-x="266" 
d="M38 0v713h54l98 -553h2v553h36v-713h-45l-108 612h-2v-612h-35z" />
    <glyph glyph-name="O" unicode="O" horiz-adv-x="251" 
d="M123 -6q-93 0 -93 108v520q0 49 27.5 74.5t70.5 25.5q41 0 67 -23.5t26 -68.5v-529q0 -107 -98 -107zM126 30q54 0 54 67v531q0 57 -54 57q-29 0 -42 -16.5t-13 -38.5v-535q0 -25 13 -45t42 -20z" />
    <glyph glyph-name="P" unicode="P" horiz-adv-x="245" 
d="M38 0v713h63q37 0 61 -14.5t35.5 -43.5t15.5 -61t4 -78q0 -202 -114 -202h-25v-314h-40zM78 354h29q40 0 55 40.5t15 123.5q0 26 -0.5 40t-2.5 35t-7 32.5t-13 24t-21 17.5t-31 5h-24v-318z" />
    <glyph glyph-name="Q" unicode="Q" horiz-adv-x="251" 
d="M227 -51l-53 56q-22 -11 -51 -11q-93 0 -93 108v520q0 49 27.5 74.5t70.5 25.5q41 0 67 -23.5t26 -68.5v-529q0 -42 -18 -70l53 -52zM126 30q54 0 54 67v531q0 57 -54 57q-29 0 -42 -16.5t-13 -38.5v-535q0 -25 13 -45t42 -20z" />
    <glyph glyph-name="R" unicode="R" horiz-adv-x="248" 
d="M38 0v713h67q63 0 87.5 -46.5t24.5 -134.5q0 -67 -15 -113.5t-35 -58.5l56 -360h-41l-52 346h-52v-346h-40zM78 383h46q51 0 51 139q0 24 -0.5 38.5t-4 38.5t-9.5 38t-19 25t-32 11h-32v-290z" />
    <glyph glyph-name="S" unicode="S" horiz-adv-x="226" 
d="M115 -6q-48 0 -69.5 38t-21.5 125h40q0 -67 9.5 -97.5t41.5 -30.5q22 0 33.5 15.5t14 32t2.5 42.5q0 84 -44 186l-44 96q-17 40 -25 60.5t-17 59t-9 73.5q0 127 88 127q42 0 62.5 -33.5t21.5 -123.5h-37q-3 68 -13.5 94t-35.5 26q-47 0 -47 -87q0 -59 50 -179l29 -62
q60 -134 60 -238q0 -59 -25 -91.5t-64 -32.5z" />
    <glyph glyph-name="T" unicode="T" horiz-adv-x="220" 
d="M91 0v675h-79v38h196v-38h-78v-675h-39z" />
    <glyph glyph-name="U" unicode="U" horiz-adv-x="249" 
d="M124 -9q-45 0 -67.5 26.5t-22.5 72.5v623h40v-618q0 -70 51 -70q22 0 34.5 13t15 27t2.5 35v613h38v-612q0 -110 -91 -110z" />
    <glyph glyph-name="V" unicode="V" horiz-adv-x="242" 
d="M105 -3l-83 716h42l59 -585h2l56 585h39l-76 -716h-39z" />
    <glyph glyph-name="W" unicode="W" horiz-adv-x="364" 
d="M91 -3l-71 716h42l47 -557h2l49 557h47l52 -557h2l44 557h39l-64 -716h-39l-57 581h-2l-52 -581h-39z" />
    <glyph glyph-name="X" unicode="X" horiz-adv-x="216" 
d="M7 0l80 356l-82 357h41l64 -291l63 291h36l-81 -351l83 -362h-40l-65 293l-64 -293h-35z" />
    <glyph glyph-name="Y" unicode="Y" horiz-adv-x="235" 
d="M99 0v326l-79 387h41l60 -315l57 315h37l-76 -390v-323h-40z" />
    <glyph glyph-name="Z" unicode="Z" horiz-adv-x="185" 
d="M20 0v41l102 633h-96v39h140v-25l-104 -650h104v-38h-146z" />
    <glyph glyph-name="bracketleft" unicode="[" horiz-adv-x="128" 
d="M35 -160v873h81v-30h-44v-813h44v-30h-81z" />
    <glyph glyph-name="backslash" unicode="\" horiz-adv-x="157" 
d="M125 -158l-126 871h35l128 -871h-37z" />
    <glyph glyph-name="bracketright" unicode="]" horiz-adv-x="128" 
d="M12 -159v30h44v812h-44v30h81v-872h-81z" />
    <glyph glyph-name="asciicircum" unicode="^" horiz-adv-x="240" 
d="M65 251l40 190h34l36 -190h-32l-22 129l-23 -129h-33z" />
    <glyph glyph-name="underscore" unicode="_" horiz-adv-x="270" 
d="M0 -124v40h270v-40h-270z" />
    <glyph glyph-name="grave" unicode="`" horiz-adv-x="151" 
d="M99 586l-66 132h49l47 -132h-30z" />
    <glyph glyph-name="a" unicode="a" horiz-adv-x="212" 
d="M95 -8q-72 0 -72 164q0 167 107 172h8v135q0 37 -34 37q-37 0 -37 -40v-84h-37v82q0 30 18.5 53t59.5 23q34 0 51 -22t17 -47v-337q0 -66 2 -128h-32q-2 14 -2 37h-2q-3 -20 -16.5 -32.5t-30.5 -12.5zM104 28q16 0 25 21.5t9 46.5v197h-14q-27 0 -45 -31.5t-18 -101.5
q0 -132 43 -132z" />
    <glyph glyph-name="b" unicode="b" horiz-adv-x="233" 
d="M131 -6q-41 0 -56 35h-1v-29h-36v713h39v-221h2q17 42 61 42q33 0 48 -22t15 -49v-392q0 -38 -19.5 -57.5t-52.5 -19.5zM126 29q37 0 37 50v367q0 52 -40 52q-46 0 -46 -68v-339q0 -26 13.5 -44t35.5 -18z" />
    <glyph glyph-name="c" unicode="c" horiz-adv-x="221" 
d="M112 -6q-82 0 -82 99v346q0 47 24.5 71t62.5 24t58 -24t20 -57v-80h-38v73q0 51 -43 51t-43 -49v-361q0 -56 43 -56q21 0 31 12t11 21.5t1 27.5v80h38v-90q0 -40 -22 -64t-61 -24z" />
    <glyph glyph-name="d" unicode="d" horiz-adv-x="233" 
d="M93 -6q-33 0 -48 22t-15 49v390q0 33 20.5 56t51.5 23q33 0 52 -26h1v205h40v-713h-36v37h-2q-17 -43 -64 -43zM110 30q46 0 46 70v342q0 25 -12 40t-34 15q-40 0 -40 -53v-362q0 -52 40 -52z" />
    <glyph glyph-name="e" unicode="e" horiz-adv-x="214" 
d="M124 -6q-94 0 -94 107v331q0 48 21.5 75t61.5 27q39 0 57 -27t18 -69v-181h-117v-138q0 -45 12.5 -65.5t50.5 -20.5q16 0 45 9l11 -34q-28 -14 -66 -14zM71 293h76v146q0 57 -38 57t-38 -56v-147z" />
    <glyph glyph-name="f" unicode="f" horiz-adv-x="137" 
d="M48 0v494h-31v32h31v129q0 27 15.5 44t44.5 17q16 0 25 -2v-34q-8 1 -23 1q-23 0 -23 -24v-131h37v-32h-37v-494h-39z" />
    <glyph glyph-name="g" unicode="g" horiz-adv-x="235" 
d="M95 -173q-33 0 -62 10l9 34q33 -8 55 -8q32 0 46 18t14 58v102h-2q-5 -19 -22 -29t-33 -10q-67 0 -67 88v358q0 43 19.5 64.5t52.5 21.5q42 0 56 -37h1v30h35v-583q0 -59 -27.5 -88t-74.5 -29zM113 40q19 0 31.5 17t12.5 39v343q0 26 -13 43.5t-34 17.5q-38 0 -38 -56
v-350q0 -54 41 -54z" />
    <glyph glyph-name="h" unicode="h" horiz-adv-x="234" 
d="M38 0v713h39v-218h1q20 39 64 39q24 0 41.5 -15t17.5 -46v-473h-39v459q0 40 -35 40q-50 0 -50 -67v-432h-39z" />
    <glyph glyph-name="i" unicode="i" horiz-adv-x="115" 
d="M38 0v526h39v-526h-39zM38 618v97h39v-97h-39z" />
    <glyph glyph-name="j" unicode="j" horiz-adv-x="115" 
d="M31 -164q-15 0 -27 3v35h16q18 0 18 22v630h38v-637q0 -21 -10.5 -37t-34.5 -16zM38 618v97h39v-97h-39z" />
    <glyph glyph-name="k" unicode="k" horiz-adv-x="213" 
d="M38 0v713h38v-433l85 246h38l-66 -183l60 -343h-38l-49 291l-30 -77v-214h-38z" />
    <glyph glyph-name="l" unicode="l" horiz-adv-x="121" 
d="M77 -4q-39 0 -39 41v676h39v-669q0 -11 12 -11q7 0 15 1v-33q-12 -5 -27 -5z" />
    <glyph glyph-name="m" unicode="m" horiz-adv-x="358" 
d="M38 0v526h38v-31h1q19 39 65 39q45 0 56 -40h1q20 40 67 40q24 0 41.5 -15t17.5 -46v-473h-39v459q0 40 -35 40q-48 0 -50 -60v-439h-39v459q0 40 -35 40q-50 0 -50 -67v-432h-39z" />
    <glyph glyph-name="n" unicode="n" horiz-adv-x="234" 
d="M38 0v526h38v-31h1q19 39 65 39q24 0 41.5 -15t17.5 -46v-473h-39v459q0 40 -35 40q-50 0 -50 -67v-432h-39z" />
    <glyph glyph-name="o" unicode="o" horiz-adv-x="228" 
d="M111 -6q-81 0 -81 99v349q0 44 24.5 68t61.5 24q36 0 59 -22t23 -64v-356q0 -98 -87 -98zM114 31q43 0 43 55v360q0 21 -10.5 36t-32.5 15q-43 0 -43 -49v-361q0 -21 10 -38.5t33 -17.5z" />
    <glyph glyph-name="p" unicode="p" horiz-adv-x="233" 
d="M38 -160v686h37v-34h2q17 42 63 42q33 0 48 -22t15 -49v-392q0 -33 -20.5 -55t-51.5 -22q-34 0 -53 26h-1v-180h-39zM123 31q40 0 40 51v364q0 52 -40 52q-46 0 -46 -68v-346q0 -53 46 -53z" />
    <glyph glyph-name="q" unicode="q" horiz-adv-x="233" 
d="M156 -160v182h-1q-19 -30 -59 -30q-31 0 -48.5 22.5t-17.5 56.5v392q0 26 19.5 48.5t52.5 22.5q44 0 60 -37h1l2 29h30v-686h-39zM110 29q22 0 34 15t12 40v346q0 68 -46 68q-40 0 -40 -52v-360q0 -57 40 -57z" />
    <glyph glyph-name="r" unicode="r" horiz-adv-x="142" 
d="M38 0v526h39v-28h1q6 13 19 22t26 9q6 0 10 -1v-47q-6 1 -14 1q-42 0 -42 -48v-434h-39z" />
    <glyph glyph-name="s" unicode="s" horiz-adv-x="200" 
d="M105 -5q-50 0 -66 34.5t-16 105.5h39q1 -59 9 -82.5t31 -23.5q34 0 34 54q0 51 -22 106l-58 146q-28 69 -28 111q0 37 19 62t52 25q40 0 56 -30.5t18 -97.5h-35q-3 54 -12.5 74.5t-26.5 20.5q-32 0 -32 -56q0 -28 27 -96l46 -115q35 -88 35 -150q0 -37 -18 -62.5
t-52 -25.5z" />
    <glyph glyph-name="t" unicode="t" horiz-adv-x="142" 
d="M90 -3q-46 0 -46 47v448h-31v34h31v106h39v-106h50v-34h-50v-438q0 -19 16 -19q13 0 25 4v-36q-14 -6 -34 -6z" />
    <glyph glyph-name="u" unicode="u" horiz-adv-x="234" 
d="M92 -8q-24 0 -41.5 15t-17.5 46v473h39v-459q0 -40 35 -40q50 0 50 67v432h39v-526h-38v31h-1q-19 -39 -65 -39z" />
    <glyph glyph-name="v" unicode="v" horiz-adv-x="199" 
d="M80 -2l-66 528h39l48 -423h1l44 423h39l-65 -528h-40z" />
    <glyph glyph-name="w" unicode="w" horiz-adv-x="319" 
d="M73 -1l-57 527h42l34 -420h3l43 420h46l47 -420h3l30 420h39l-53 -527h-38l-49 448h-3l-49 -448h-38z" />
    <glyph glyph-name="x" unicode="x" horiz-adv-x="223" 
d="M20 0l72 266l-66 260h43l45 -215l51 215h35l-65 -256l68 -270h-38l-54 219l-55 -219h-36z" />
    <glyph glyph-name="y" unicode="y" horiz-adv-x="195" 
d="M37 -167q-8 0 -24 2l1 36q16 -2 20 -2q7 0 12.5 1t14.5 11.5t12 29.5l12 90l-73 525h39l50 -390h2l42 390h38l-71 -580q-7 -58 -23 -85.5t-52 -27.5z" />
    <glyph glyph-name="z" unicode="z" horiz-adv-x="168" 
d="M18 0v28l94 466h-92v32h129v-35l-92 -459h94v-32h-133z" />
    <glyph glyph-name="braceleft" unicode="{" horiz-adv-x="142" 
d="M89 -160q-50 0 -50 50v358q0 39 -25 40v37q25 1 25 38v290q0 26 12.5 43t37.5 17h31v-30h-28q-16 0 -16 -26v-288q0 -46 -33 -60v-3q33 -14 33 -60v-350q0 -26 16 -26h28v-30h-31z" />
    <glyph glyph-name="bar" unicode="|" horiz-adv-x="207" 
d="M87 -157v870h32v-870h-32z" />
    <glyph glyph-name="braceright" unicode="}" horiz-adv-x="142" 
d="M14 -160v30h28q16 0 16 26v350q0 46 33 60v3q-33 14 -33 60v288q0 26 -16 26h-28v30h31q25 0 37.5 -17t12.5 -43v-290q0 -37 25 -38v-37q-25 -1 -25 -40v-358q0 -50 -50 -50h-31z" />
    <glyph glyph-name="asciitilde" unicode="~" horiz-adv-x="240" 
d="M56 284l-26 3q5 64 46 64q13 0 46 -10.5t42 -10.5q16 0 19 25l27 -4q-1 -27 -12.5 -44t-31.5 -17q-16 0 -49 10.5t-39 10.5q-9 0 -14 -5.5t-8 -21.5z" />
    <glyph glyph-name="uni00A0" unicode="&#xa0;" horiz-adv-x="80" 
 />
    <glyph glyph-name="exclamdown" unicode="&#xa1;" horiz-adv-x="123" 
d="M42 -140v292l6 243h26l7 -243v-292h-39zM43 483v90h37v-90h-37z" />
    <glyph glyph-name="cent" unicode="&#xa2;" horiz-adv-x="221" 
d="M97 -59v63q-67 9 -67 98v340q0 80 67 90v61h36v-61q30 -5 46 -28.5t16 -55.5v-75h-38v73q0 51 -43 51t-43 -49v-352q0 -56 43 -56q21 0 31 12t11 21.5t1 27.5v80h38v-90q0 -35 -16 -57.5t-46 -28.5v-64h-36z" />
    <glyph glyph-name="sterling" unicode="&#xa3;" horiz-adv-x="273" 
d="M27 0v35h36v311h-34v38h34v238q0 48 29.5 74t72.5 26q42 0 65.5 -25.5t23.5 -57.5v-87h-41v76q0 57 -54 57q-55 0 -55 -66v-235h74v-38h-74v-311h146l-7 -35h-216z" />
    <glyph glyph-name="currency" unicode="&#xa4;" horiz-adv-x="283" 
d="M53 232l-24 24l27 28q-22 29 -22 65q0 34 22 62l-27 26l24 24l26 -26q29 20 60 20q37 0 64 -20l27 27l24 -24l-27 -26q22 -31 22 -65q0 -33 -23 -64l27 -27l-23 -23l-27 27q-28 -19 -61 -19t-63 18zM140 270q34 0 54.5 20.5t20.5 58.5q0 34 -22 55.5t-51 21.5
q-34 0 -54.5 -21t-20.5 -60q0 -31 21 -53t52 -22z" />
    <glyph glyph-name="yen" unicode="&#xa5;" horiz-adv-x="203" 
d="M83 0v289h-54v38h54l-79 387h41l60 -316l57 316h37l-75 -387h51v-38h-52v-289h-40z" />
    <glyph glyph-name="brokenbar" unicode="&#xa6;" horiz-adv-x="240" 
d="M88 -35v343h31v-343h-31zM88 383v342h31v-342h-31z" />
    <glyph glyph-name="section" unicode="&#xa7;" horiz-adv-x="252" 
d="M129 -6q-38 0 -67 32t-29 96v33h39v-27q0 -45 16 -71.5t42 -26.5q53 0 53 85q0 78 -51 106l-32 23q-72 47 -72 118q0 54 51 117q-47 42 -47 117q0 53 25 86t68 33q40 0 62 -31t22 -82v-39h-34v33q0 40 -14 62t-39 22q-53 0 -53 -79q0 -67 42 -99l38 -29q68 -52 68 -120
q0 -69 -45 -116q25 -18 39 -53.5t12 -72.5q0 -50 -27 -83.5t-67 -33.5zM143 259q35 39 35 94q0 52 -40 81l-30 22q-15 -12 -27.5 -37t-12.5 -55q0 -53 40 -80z" />
    <glyph glyph-name="dieresis" unicode="&#xa8;" horiz-adv-x="197" 
d="M41 591v118h36v-118h-36zM120 591v118h36v-118h-36z" />
    <glyph glyph-name="copyright" unicode="&#xa9;" horiz-adv-x="510" 
d="M256 96q-38 0 -58 23t-20 61v350q0 40 20 64t58 24q36 0 54.5 -23t18.5 -58v-122h-42v114q0 43 -31 43q-15 0 -22.5 -7t-9 -15t-1.5 -22v-340q0 -45 33 -45q31 0 31 46v110h42v-112q0 -40 -19 -65.5t-54 -25.5zM256 7q-61 0 -105.5 27t-70 76.5t-37 110.5t-11.5 136
q0 99 22 174.5t74 124t128 48.5q59 0 103.5 -29t69.5 -79.5t37 -110t12 -128.5q0 -156 -54 -253t-168 -97zM256 41q91 0 139 84t48 232t-47 232.5t-140 84.5q-94 0 -141 -84t-47 -233t48.5 -232.5t139.5 -83.5z" />
    <glyph glyph-name="ordfeminine" unicode="&#xaa;" horiz-adv-x="198" 
d="M75 408q-40 0 -40 88q0 90 65 91h2v66q0 15 -15 15q-16 0 -16 -18v-40h-33v38q0 21 12.5 35t38.5 14q47 0 47 -46v-174q0 -38 2 -64h-32l-2 19q-10 -24 -29 -24zM87 440q7 0 11 7.5t4 14.5v98h-5q-28 0 -28 -61q0 -59 18 -59zM39 345v36h98v-36h-98z" />
    <glyph glyph-name="guillemotleft" unicode="&#xab;" horiz-adv-x="222" 
d="M84 166l-62 113l58 112l29 -16l-43 -96l47 -95zM171 166l-62 113l59 112l29 -16l-44 -96l47 -95z" />
    <glyph glyph-name="logicalnot" unicode="&#xac;" horiz-adv-x="277" 
d="M223 200v91h-201v32h233v-123h-32z" />
    <glyph glyph-name="registered" unicode="&#xae;" horiz-adv-x="307" 
d="M108 382v295h39q55 0 55 -83q0 -53 -21 -72l26 -140h-36l-22 131h-8v-131h-33zM152 317q-63 0 -96.5 59.5t-33.5 151.5q0 95 34.5 153.5t99.5 58.5q58 0 93.5 -59t35.5 -153q0 -92 -33.5 -151.5t-99.5 -59.5zM153 346q46 1 72 48.5t26 133.5q0 83 -29 133t-70 50
t-69 -49.5t-28 -133.5t28 -133.5t70 -48.5zM141 542h9q17 0 17 48q0 55 -19 55h-7v-103z" />
    <glyph glyph-name="macron" unicode="&#xaf;" horiz-adv-x="210" 
d="M42 618v40h126v-40h-126z" />
    <glyph glyph-name="degree" unicode="&#xb0;" horiz-adv-x="178" 
d="M89 584q-27 0 -45 19t-18 47t18 47.5t45 19.5q26 0 44.5 -19.5t18.5 -47.5t-18.5 -47t-44.5 -19zM89 610q14 0 25 12t11 28q0 17 -11 29t-25 12q-15 0 -25.5 -12t-10.5 -29t10.5 -28.5t25.5 -11.5z" />
    <glyph glyph-name="plusminus" unicode="&#xb1;" horiz-adv-x="240" 
d="M105 231v92h-79v35h79v93h30l-1 -93h80v-35h-79v-92h-30zM26 156v35h188v-35h-188z" />
    <glyph glyph-name="twosuperior" unicode="&#xb2;" 
d="M26 380v26l36 99q35 97 35 174v12q0 56 -19 56q-17 0 -17 -43v-32h-33v31q0 77 51 77q54 0 54 -92q0 -85 -42 -203l-27 -73h70v-32h-108z" />
    <glyph glyph-name="threesuperior" unicode="&#xb3;" 
d="M79 373q-33 0 -43.5 26.5t-10.5 71.5v13h35v-18q0 -61 19 -61q20 0 20 84q0 76 -30 76h-17v36h19q16 0 21 17.5t5 59.5q0 70 -19 70q-18 0 -18 -55v-21h-33v25q0 83 54 83q26 0 39 -27.5t13 -72.5q0 -79 -33 -94v-2q35 -15 35 -99q0 -112 -56 -112z" />
    <glyph glyph-name="acute" unicode="&#xb4;" horiz-adv-x="151" 
d="M38 586l47 132h49l-66 -132h-30z" />
    <glyph glyph-name="mu" unicode="&#xb5;" horiz-adv-x="231" 
d="M33 -178v704h39v-459q0 -19 10 -29.5t27 -10.5q48 0 48 71v428h39v-454q0 -24 10 -30v-44q-16 2 -27.5 13.5t-12.5 30.5q-17 -49 -57 -49q-36 0 -44 33l-3 -1l10 -190z" />
    <glyph glyph-name="paragraph" unicode="&#xb6;" horiz-adv-x="297" 
d="M130 -48v324q-102 39 -102 200q0 116 31 176.5t108 60.5h108v-33h-32v-728h-31v728h-51v-728h-31z" />
    <glyph glyph-name="periodcentered" unicode="&#xb7;" horiz-adv-x="113" 
d="M38 289v90h37v-90h-37z" />
    <glyph glyph-name="periodcentered" unicode="&#x22c5;" horiz-adv-x="113" 
d="M38 289v90h37v-90h-37z" />
    <glyph glyph-name="cedilla" unicode="&#xb8;" horiz-adv-x="143" 
d="M55 -149q-28 0 -49 6v29q24 -4 41 -4q33 0 33 25q0 20 -40 23l-14 1l18 82h27l-13 -57q63 -4 63 -51q0 -26 -19.5 -40t-46.5 -14z" />
    <glyph glyph-name="onesuperior" unicode="&#xb9;" horiz-adv-x="151" 
d="M62 380v360l-23 -9l-9 24l43 27h23v-402h-34z" />
    <glyph glyph-name="ordmasculine" unicode="&#xba;" horiz-adv-x="176" 
d="M86 408q-53 0 -53 58v177q0 25 15.5 39.5t40.5 14.5q23 0 38.5 -13.5t15.5 -38.5v-180q0 -28 -15.5 -42.5t-41.5 -14.5zM87 438q22 0 22 24v182q0 23 -22 23q-20 0 -20 -22v-183q0 -24 20 -24zM39 345v35h99v-35h-99z" />
    <glyph glyph-name="guillemotright" unicode="&#xbb;" horiz-adv-x="222" 
d="M54 167l-29 16l44 96l-47 95l29 18l62 -113zM142 167l-29 16l43 96l-47 95l29 18l62 -113z" />
    <glyph glyph-name="onequarter" unicode="&#xbc;" horiz-adv-x="358" 
d="M66 316v360l-23 -9l-9 24l43 27h23v-402h-34zM278 0v108h-71v29l62 264h34l-64 -262h39v91l31 31v-122h21v-31h-21v-108h-31zM78 0l162 713h31l-160 -713h-33z" />
    <glyph glyph-name="onehalf" unicode="&#xbd;" horiz-adv-x="358" 
d="M66 316v360l-23 -9l-9 24l43 27h23v-402h-34zM215 0v26l36 99q35 97 35 174v12q0 56 -19 56q-17 0 -17 -43v-32h-33v31q0 77 51 77q54 0 54 -92q0 -85 -42 -203l-27 -73h70v-32h-108zM63 0l162 713h31l-160 -713h-33z" />
    <glyph glyph-name="threequarters" unicode="&#xbe;" horiz-adv-x="358" 
d="M278 0v108h-71v29l62 264h34l-64 -262h39v91l31 31v-122h21v-31h-21v-108h-31zM65 309q-33 0 -43.5 26.5t-10.5 71.5v13h35v-18q0 -61 19 -61q20 0 20 84q0 76 -30 76h-17v36h19q16 0 21 17.5t5 59.5q0 70 -19 70q-18 0 -18 -55v-21h-33v25q0 83 54 83q26 0 39 -27.5
t13 -72.5q0 -79 -33 -94v-2q35 -15 35 -99q0 -112 -56 -112zM78 0l162 713h31l-160 -713h-33z" />
    <glyph glyph-name="questiondown" unicode="&#xbf;" horiz-adv-x="214" 
d="M108 -152q-23 0 -39 13.5t-24 40t-11 55.5t-3 68q0 38 7 74.5t13 53.5t20 52q27 69 27 119v69h35v-43q0 -83 -32 -167q-31 -81 -31 -152v-18.5v-21t0.5 -21t1.5 -22t2.5 -19.5t5 -18t7.5 -13.5t10 -9.5t14 -3q23 0 30.5 26.5t7.5 74.5v57h36v-46q0 -75 -17 -112t-60 -37z
M96 481v90h37v-90h-37z" />
    <glyph glyph-name="Agrave" unicode="&#xc0;" horiz-adv-x="285" 
d="M22 0l91 714h60l90 -714h-42l-30 247h-100l-30 -247h-39zM96 285h90l-44 377h-2zM133 771l-66 132h49l47 -132h-30z" />
    <glyph glyph-name="Aacute" unicode="&#xc1;" horiz-adv-x="285" 
d="M22 0l91 714h60l90 -714h-42l-30 247h-100l-30 -247h-39zM96 285h90l-44 377h-2zM126 771l47 132h49l-66 -132h-30z" />
    <glyph glyph-name="Acircumflex" unicode="&#xc2;" horiz-adv-x="285" 
d="M22 0l91 714h60l90 -714h-42l-30 247h-100l-30 -247h-39zM96 285h90l-44 377h-2zM80 771l49 132h30l46 -132h-35l-28 84l-28 -84h-34z" />
    <glyph glyph-name="Atilde" unicode="&#xc3;" horiz-adv-x="285" 
d="M22 0l91 714h60l90 -714h-42l-30 247h-100l-30 -247h-39zM96 285h90l-44 377h-2zM94 785l-25 3q5 62 43 62q12 0 32 -10t28 -10q13 0 16 24l27 -4q-1 -26 -12.5 -42.5t-29.5 -16.5q-13 0 -33.5 10t-26.5 10q-8 0 -12 -5t-7 -21z" />
    <glyph glyph-name="Adieresis" unicode="&#xc4;" horiz-adv-x="285" 
d="M22 0l91 714h60l90 -714h-42l-30 247h-100l-30 -247h-39zM96 285h90l-44 377h-2zM85 776v118h36v-118h-36zM164 776v118h36v-118h-36z" />
    <glyph glyph-name="Aring" unicode="&#xc5;" horiz-adv-x="285" 
d="M22 0l91 714h60l90 -714h-42l-30 247h-100l-30 -247h-39zM96 285h90l-44 377h-2zM143 768q-32 0 -49 19t-17 46q0 29 18 49.5t48 20.5q31 0 48 -18.5t17 -45.5q0 -31 -18.5 -51t-46.5 -20zM143 795q35 0 35 41q0 40 -35 40t-35 -42q0 -17 9.5 -28t25.5 -11z" />
    <glyph glyph-name="AE" unicode="&#xc6;" horiz-adv-x="340" 
d="M14 0l129 713h173v-38h-103v-278h86v-38h-86v-322h105v-37h-144v273h-73l-48 -273h-39zM107 306h67v369h-2z" />
    <glyph glyph-name="Ccedilla" unicode="&#xc7;" horiz-adv-x="243" 
d="M112 -149q-28 0 -49 6v29q24 -4 41 -4q33 0 33 25q0 20 -40 23l-14 1l14 66q-67 15 -67 91v531q0 47 23.5 76t72.5 29q46 0 68.5 -27.5t22.5 -66.5v-123h-37v114q0 66 -54 66q-36 0 -46 -18.5t-10 -52.5v-517q0 -69 56 -69q54 0 54 70v111h37v-112q0 -47 -23 -76t-67 -29
h-4l-8 -38q63 -4 63 -51q0 -26 -19.5 -40t-46.5 -14z" />
    <glyph glyph-name="Egrave" unicode="&#xc8;" horiz-adv-x="204" 
d="M38 0v713h142v-38h-103v-277h86v-38h-86v-323h105v-37h-144zM128 771l-66 132h49l47 -132h-30z" />
    <glyph glyph-name="Eacute" unicode="&#xc9;" horiz-adv-x="204" 
d="M86 771l47 132h49l-66 -132h-30zM38 0v713h142v-38h-103v-277h86v-38h-86v-323h105v-37h-144z" />
    <glyph glyph-name="Ecircumflex" unicode="&#xca;" horiz-adv-x="204" 
d="M48 771l49 132h30l46 -132h-35l-28 84l-28 -84h-34zM38 0v713h142v-38h-103v-277h86v-38h-86v-323h105v-37h-144z" />
    <glyph glyph-name="Edieresis" unicode="&#xcb;" horiz-adv-x="204" 
d="M53 776v118h36v-118h-36zM132 776v118h36v-118h-36zM38 0v713h142v-38h-103v-277h86v-38h-86v-323h105v-37h-144z" />
    <glyph glyph-name="Igrave" unicode="&#xcc;" horiz-adv-x="116" 
d="M38 0v713h40v-713h-40zM42 771l-66 132h49l47 -132h-30z" />
    <glyph glyph-name="Iacute" unicode="&#xcd;" horiz-adv-x="116" 
d="M38 0v713h40v-713h-40zM44 771l47 132h49l-66 -132h-30z" />
    <glyph glyph-name="Icircumflex" unicode="&#xce;" horiz-adv-x="116" 
d="M38 0v713h40v-713h-40zM-4 771l49 132h30l46 -132h-35l-28 84l-28 -84h-34z" />
    <glyph glyph-name="Idieresis" unicode="&#xcf;" horiz-adv-x="116" 
d="M38 0v713h40v-713h-40zM1 776v118h36v-118h-36zM80 776v118h36v-118h-36z" />
    <glyph glyph-name="Eth" unicode="&#xd0;" horiz-adv-x="257" 
d="M45 0v357h-27v35h27v321h84q42 0 70 -23.5t28 -68.5v-514q0 -55 -28.5 -81t-74.5 -26h-79zM86 37h41q33 0 46 20.5t13 45.5v516q0 25 -15 40.5t-44 15.5h-41v-283h59v-35h-59v-320z" />
    <glyph glyph-name="Ntilde" unicode="&#xd1;" horiz-adv-x="266" 
d="M38 0v713h54l98 -553h2v553h36v-713h-45l-108 612h-2v-612h-35zM85 785l-25 3q5 62 43 62q12 0 32 -10t28 -10q13 0 16 24l27 -4q-1 -26 -12.5 -42.5t-29.5 -16.5q-13 0 -33.5 10t-26.5 10q-8 0 -12 -5t-7 -21z" />
    <glyph glyph-name="Ograve" unicode="&#xd2;" horiz-adv-x="251" 
d="M123 -6q-93 0 -93 108v520q0 49 27.5 74.5t70.5 25.5q41 0 67 -23.5t26 -68.5v-529q0 -107 -98 -107zM126 30q54 0 54 67v531q0 57 -54 57q-29 0 -42 -16.5t-13 -38.5v-535q0 -25 13 -45t42 -20zM110 771l-66 132h49l47 -132h-30z" />
    <glyph glyph-name="Oacute" unicode="&#xd3;" horiz-adv-x="251" 
d="M108 771l47 132h49l-66 -132h-30zM123 -6q-93 0 -93 108v520q0 49 27.5 74.5t70.5 25.5q41 0 67 -23.5t26 -68.5v-529q0 -107 -98 -107zM126 30q54 0 54 67v531q0 57 -54 57q-29 0 -42 -16.5t-13 -38.5v-535q0 -25 13 -45t42 -20z" />
    <glyph glyph-name="Ocircumflex" unicode="&#xd4;" horiz-adv-x="251" 
d="M63 771l49 132h30l46 -132h-35l-28 84l-28 -84h-34zM123 -6q-93 0 -93 108v520q0 49 27.5 74.5t70.5 25.5q41 0 67 -23.5t26 -68.5v-529q0 -107 -98 -107zM126 30q54 0 54 67v531q0 57 -54 57q-29 0 -42 -16.5t-13 -38.5v-535q0 -25 13 -45t42 -20z" />
    <glyph glyph-name="Otilde" unicode="&#xd5;" horiz-adv-x="251" 
d="M123 -6q-93 0 -93 108v520q0 49 27.5 74.5t70.5 25.5q41 0 67 -23.5t26 -68.5v-529q0 -107 -98 -107zM126 30q54 0 54 67v531q0 57 -54 57q-29 0 -42 -16.5t-13 -38.5v-535q0 -25 13 -45t42 -20zM77 785l-25 3q5 62 43 62q12 0 32 -10t28 -10q13 0 16 24l27 -4
q-1 -26 -12.5 -42.5t-29.5 -16.5q-13 0 -33.5 10t-26.5 10q-8 0 -12 -5t-7 -21z" />
    <glyph glyph-name="Odieresis" unicode="&#xd6;" horiz-adv-x="251" 
d="M68 776v118h36v-118h-36zM147 776v118h36v-118h-36zM123 -6q-93 0 -93 108v520q0 49 27.5 74.5t70.5 25.5q41 0 67 -23.5t26 -68.5v-529q0 -107 -98 -107zM126 30q54 0 54 67v531q0 57 -54 57q-29 0 -42 -16.5t-13 -38.5v-535q0 -25 13 -45t42 -20z" />
    <glyph glyph-name="multiply" unicode="&#xd7;" horiz-adv-x="240" 
d="M44 224l-22 24l75 75l-75 76l22 23l76 -76l76 76l22 -22l-76 -75l76 -77l-22 -23l-76 76z" />
    <glyph glyph-name="Oslash" unicode="&#xd8;" horiz-adv-x="251" 
d="M70 -33l-34 6l11 57q-17 26 -17 72v520q0 49 27.5 74.5t70.5 25.5q30 0 52 -13l9 43l33 -5l-13 -66q12 -24 12 -51v-529q0 -107 -98 -107q-24 0 -46 9zM71 630v-478l100 511q-14 22 -45 22q-29 0 -42 -16.5t-13 -38.5zM126 30q54 0 54 67v435l-95 -484q15 -18 41 -18z
" />
    <glyph glyph-name="Ugrave" unicode="&#xd9;" horiz-adv-x="249" 
d="M124 -9q-45 0 -67.5 26.5t-22.5 72.5v623h40v-618q0 -70 51 -70q22 0 34.5 13t15 27t2.5 35v613h38v-612q0 -110 -91 -110zM111 771l-66 132h49l47 -132h-30z" />
    <glyph glyph-name="Uacute" unicode="&#xda;" horiz-adv-x="249" 
d="M110 771l47 132h49l-66 -132h-30zM124 -9q-45 0 -67.5 26.5t-22.5 72.5v623h40v-618q0 -70 51 -70q22 0 34.5 13t15 27t2.5 35v613h38v-612q0 -110 -91 -110z" />
    <glyph glyph-name="Ucircumflex" unicode="&#xdb;" horiz-adv-x="249" 
d="M62 771l49 132h30l46 -132h-35l-28 84l-28 -84h-34zM124 -9q-45 0 -67.5 26.5t-22.5 72.5v623h40v-618q0 -70 51 -70q22 0 34.5 13t15 27t2.5 35v613h38v-612q0 -110 -91 -110z" />
    <glyph glyph-name="Udieresis" unicode="&#xdc;" horiz-adv-x="249" 
d="M67 776v118h36v-118h-36zM146 776v118h36v-118h-36zM124 -9q-45 0 -67.5 26.5t-22.5 72.5v623h40v-618q0 -70 51 -70q22 0 34.5 13t15 27t2.5 35v613h38v-612q0 -110 -91 -110z" />
    <glyph glyph-name="Yacute" unicode="&#xdd;" horiz-adv-x="235" 
d="M99 0v326l-79 387h41l60 -315l57 315h37l-76 -390v-323h-40zM99 771l47 132h49l-66 -132h-30z" />
    <glyph glyph-name="Thorn" unicode="&#xde;" horiz-adv-x="245" 
d="M38 0v713h40v-156h23q37 0 61 -14.5t35.5 -43.5t15.5 -61t4 -78q0 -202 -114 -202h-25v-158h-40zM78 198h29q40 0 55 40.5t15 123.5q0 26 -0.5 40t-2.5 35t-7 32.5t-13 24t-21 17.5t-31 5h-24v-318z" />
    <glyph glyph-name="germandbls" unicode="&#xdf;" horiz-adv-x="254" 
d="M155 -3q-15 0 -29 5v27h21q16 0 26.5 10.5t14 31t4.5 34.5t1 38q0 126 -50 212v24h7q35 121 35 196q0 104 -35 104q-42 0 -42 -108v-571h-39v494h-31v32h31v47q0 141 82 141q36 0 54 -35.5t18 -95.5q0 -94 -43 -214v-1q52 -111 51 -216q0 -33 -2 -55.5t-9 -48
t-23.5 -38.5t-41.5 -13z" />
    <glyph glyph-name="agrave" unicode="&#xe0;" horiz-adv-x="212" 
d="M95 -8q-72 0 -72 164q0 167 107 172h8v135q0 37 -34 37q-37 0 -37 -40v-84h-37v82q0 30 18.5 53t59.5 23q34 0 51 -22t17 -47v-337q0 -66 2 -128h-32q-2 14 -2 37h-2q-3 -20 -16.5 -32.5t-30.5 -12.5zM104 28q16 0 25 21.5t9 46.5v197h-14q-27 0 -45 -31.5t-18 -101.5
q0 -132 43 -132zM98 586l-66 132h49l47 -132h-30z" />
    <glyph glyph-name="aacute" unicode="&#xe1;" horiz-adv-x="212" 
d="M95 -8q-72 0 -72 164q0 167 107 172h8v135q0 37 -34 37q-37 0 -37 -40v-84h-37v82q0 30 18.5 53t59.5 23q34 0 51 -22t17 -47v-337q0 -66 2 -128h-32q-2 14 -2 37h-2q-3 -20 -16.5 -32.5t-30.5 -12.5zM104 28q16 0 25 21.5t9 46.5v197h-14q-27 0 -45 -31.5t-18 -101.5
q0 -132 43 -132zM84 586l47 132h49l-66 -132h-30z" />
    <glyph glyph-name="acircumflex" unicode="&#xe2;" horiz-adv-x="212" 
d="M95 -8q-72 0 -72 164q0 167 107 172h8v135q0 37 -34 37q-37 0 -37 -40v-84h-37v82q0 30 18.5 53t59.5 23q34 0 51 -22t17 -47v-337q0 -66 2 -128h-32q-2 14 -2 37h-2q-3 -20 -16.5 -32.5t-30.5 -12.5zM104 28q16 0 25 21.5t9 46.5v197h-14q-27 0 -45 -31.5t-18 -101.5
q0 -132 43 -132zM43 586l49 132h30l46 -132h-35l-28 84l-28 -84h-34z" />
    <glyph glyph-name="atilde" unicode="&#xe3;" horiz-adv-x="212" 
d="M95 -8q-72 0 -72 164q0 167 107 172h8v135q0 37 -34 37q-37 0 -37 -40v-84h-37v82q0 30 18.5 53t59.5 23q34 0 51 -22t17 -47v-337q0 -66 2 -128h-32q-2 14 -2 37h-2q-3 -20 -16.5 -32.5t-30.5 -12.5zM104 28q16 0 25 21.5t9 46.5v197h-14q-27 0 -45 -31.5t-18 -101.5
q0 -132 43 -132zM59 600l-25 3q5 62 43 62q12 0 32 -10t28 -10q13 0 16 24l27 -4q-1 -26 -12.5 -42.5t-29.5 -16.5q-13 0 -33.5 10t-26.5 10q-8 0 -12 -5t-7 -21z" />
    <glyph glyph-name="adieresis" unicode="&#xe4;" horiz-adv-x="212" 
d="M95 -8q-72 0 -72 164q0 167 107 172h8v135q0 37 -34 37q-37 0 -37 -40v-84h-37v82q0 30 18.5 53t59.5 23q34 0 51 -22t17 -47v-337q0 -66 2 -128h-32q-2 14 -2 37h-2q-3 -20 -16.5 -32.5t-30.5 -12.5zM104 28q16 0 25 21.5t9 46.5v197h-14q-27 0 -45 -31.5t-18 -101.5
q0 -132 43 -132zM48 591v118h36v-118h-36zM127 591v118h36v-118h-36z" />
    <glyph glyph-name="aring" unicode="&#xe5;" horiz-adv-x="212" 
d="M95 -8q-72 0 -72 164q0 167 107 172h8v135q0 37 -34 37q-37 0 -37 -40v-84h-37v82q0 30 18.5 53t59.5 23q34 0 51 -22t17 -47v-337q0 -66 2 -128h-32q-2 14 -2 37h-2q-3 -20 -16.5 -32.5t-30.5 -12.5zM104 28q16 0 25 21.5t9 46.5v197h-14q-27 0 -45 -31.5t-18 -101.5
q0 -132 43 -132zM106 583q-32 0 -49 19t-17 46q0 29 18 49.5t48 20.5q31 0 48 -18.5t17 -45.5q0 -31 -18.5 -51t-46.5 -20zM106 610q35 0 35 41q0 40 -35 40t-35 -42q0 -17 9.5 -28t25.5 -11z" />
    <glyph glyph-name="ae" unicode="&#xe6;" horiz-adv-x="322" 
d="M95 -8q-72 0 -72 164q0 167 107 172h8v135q0 37 -34 37q-37 0 -37 -40v-84h-37v82q0 30 18.5 53t59.5 23q33 0 53 -25q22 25 60 25q39 0 57 -27t18 -69v-181h-118v-138q0 -45 12.5 -65.5t51.5 -20.5q16 0 45 9l11 -34q-28 -14 -66 -14q-56 0 -78 42q-18 -44 -59 -44z
M104 28q34 0 34 59v206h-14q-27 0 -45 -31.5t-18 -101.5q0 -132 43 -132zM178 293h77v146q0 57 -38 57q-39 0 -39 -56v-147z" />
    <glyph glyph-name="ccedilla" unicode="&#xe7;" horiz-adv-x="221" 
d="M116 -149q-28 0 -49 6v29q24 -4 41 -4q33 0 33 25q0 20 -40 23l-14 1l14 64q-71 6 -71 98v346q0 47 24.5 71t62.5 24t58 -24t20 -57v-80h-38v73q0 51 -43 51t-43 -49v-361q0 -56 43 -56q21 0 31 12t11 21.5t1 27.5v80h38v-90q0 -36 -17.5 -59.5t-49.5 -27.5l-9 -39
q63 -4 63 -51q0 -26 -19.5 -40t-46.5 -14z" />
    <glyph glyph-name="egrave" unicode="&#xe8;" horiz-adv-x="214" 
d="M124 -6q-94 0 -94 107v331q0 48 21.5 75t61.5 27q39 0 57 -27t18 -69v-181h-117v-138q0 -45 12.5 -65.5t50.5 -20.5q16 0 45 9l11 -34q-28 -14 -66 -14zM71 293h76v146q0 57 -38 57t-38 -56v-147zM97 586l-66 132h49l47 -132h-30z" />
    <glyph glyph-name="eacute" unicode="&#xe9;" horiz-adv-x="214" 
d="M94 586l47 132h49l-66 -132h-30zM124 -6q-94 0 -94 107v331q0 48 21.5 75t61.5 27q39 0 57 -27t18 -69v-181h-117v-138q0 -45 12.5 -65.5t50.5 -20.5q16 0 45 9l11 -34q-28 -14 -66 -14zM71 293h76v146q0 57 -38 57t-38 -56v-147z" />
    <glyph glyph-name="ecircumflex" unicode="&#xea;" horiz-adv-x="214" 
d="M44 586l49 132h30l46 -132h-35l-28 84l-28 -84h-34zM124 -6q-94 0 -94 107v331q0 48 21.5 75t61.5 27q39 0 57 -27t18 -69v-181h-117v-138q0 -45 12.5 -65.5t50.5 -20.5q16 0 45 9l11 -34q-28 -14 -66 -14zM71 293h76v146q0 57 -38 57t-38 -56v-147z" />
    <glyph glyph-name="edieresis" unicode="&#xeb;" horiz-adv-x="214" 
d="M57 591v118h36v-118h-36zM136 591v118h36v-118h-36zM124 -6q-94 0 -94 107v331q0 48 21.5 75t61.5 27q39 0 57 -27t18 -69v-181h-117v-138q0 -45 12.5 -65.5t50.5 -20.5q16 0 45 9l11 -34q-28 -14 -66 -14zM71 293h76v146q0 57 -38 57t-38 -56v-147z" />
    <glyph glyph-name="igrave" unicode="&#xec;" horiz-adv-x="115" 
d="M38 0v526h39v-526h-39zM37 586l-66 132h49l47 -132h-30z" />
    <glyph glyph-name="iacute" unicode="&#xed;" horiz-adv-x="115" 
d="M45 586l47 132h49l-66 -132h-30zM38 0v526h39v-526h-39z" />
    <glyph glyph-name="icircumflex" unicode="&#xee;" horiz-adv-x="115" 
d="M-5 586l49 132h30l46 -132h-35l-28 84l-28 -84h-34zM38 0v526h39v-526h-39z" />
    <glyph glyph-name="idieresis" unicode="&#xef;" horiz-adv-x="115" 
d="M0 591v118h36v-118h-36zM79 591v118h36v-118h-36zM38 0v526h39v-526h-39z" />
    <glyph glyph-name="eth" unicode="&#xf0;" horiz-adv-x="228" 
d="M111 -6q-81 0 -81 99v349q0 44 24.5 68t61.5 24h7l-38 72l-44 -10l-12 28l41 10l-38 74l41 8l37 -73l61 16l11 -30l-57 -14l59 -114q14 -28 14 -62v-347q0 -98 -87 -98zM114 31q43 0 43 55v360q0 21 -10.5 36t-32.5 15q-43 0 -43 -49v-361q0 -21 10 -38.5t33 -17.5z" />
    <glyph glyph-name="ntilde" unicode="&#xf1;" horiz-adv-x="234" 
d="M38 0v526h38v-31h1q19 39 65 39q24 0 41.5 -15t17.5 -46v-473h-39v459q0 40 -35 40q-50 0 -50 -67v-432h-39zM69 600l-25 3q5 62 43 62q12 0 32 -10t28 -10q13 0 16 24l27 -4q-1 -26 -12.5 -42.5t-29.5 -16.5q-13 0 -33.5 10t-26.5 10q-8 0 -12 -5t-7 -21z" />
    <glyph glyph-name="ograve" unicode="&#xf2;" horiz-adv-x="228" 
d="M111 -6q-81 0 -81 99v349q0 44 24.5 68t61.5 24q36 0 59 -22t23 -64v-356q0 -98 -87 -98zM114 31q43 0 43 55v360q0 21 -10.5 36t-32.5 15q-43 0 -43 -49v-361q0 -21 10 -38.5t33 -17.5zM96 586l-66 132h49l47 -132h-30z" />
    <glyph glyph-name="oacute" unicode="&#xf3;" horiz-adv-x="228" 
d="M96 586l47 132h49l-66 -132h-30zM111 -6q-81 0 -81 99v349q0 44 24.5 68t61.5 24q36 0 59 -22t23 -64v-356q0 -98 -87 -98zM114 31q43 0 43 55v360q0 21 -10.5 36t-32.5 15q-43 0 -43 -49v-361q0 -21 10 -38.5t33 -17.5z" />
    <glyph glyph-name="ocircumflex" unicode="&#xf4;" horiz-adv-x="228" 
d="M51 586l49 132h30l46 -132h-35l-28 84l-28 -84h-34zM111 -6q-81 0 -81 99v349q0 44 24.5 68t61.5 24q36 0 59 -22t23 -64v-356q0 -98 -87 -98zM114 31q43 0 43 55v360q0 21 -10.5 36t-32.5 15q-43 0 -43 -49v-361q0 -21 10 -38.5t33 -17.5z" />
    <glyph glyph-name="otilde" unicode="&#xf5;" horiz-adv-x="228" 
d="M111 -6q-81 0 -81 99v349q0 44 24.5 68t61.5 24q36 0 59 -22t23 -64v-356q0 -98 -87 -98zM114 31q43 0 43 55v360q0 21 -10.5 36t-32.5 15q-43 0 -43 -49v-361q0 -21 10 -38.5t33 -17.5zM66 600l-25 3q5 62 43 62q12 0 32 -10t28 -10q13 0 16 24l27 -4
q-1 -26 -12.5 -42.5t-29.5 -16.5q-13 0 -33.5 10t-26.5 10q-8 0 -12 -5t-7 -21z" />
    <glyph glyph-name="odieresis" unicode="&#xf6;" horiz-adv-x="228" 
d="M56 591v118h36v-118h-36zM135 591v118h36v-118h-36zM111 -6q-81 0 -81 99v349q0 44 24.5 68t61.5 24q36 0 59 -22t23 -64v-356q0 -98 -87 -98zM114 31q43 0 43 55v360q0 21 -10.5 36t-32.5 15q-43 0 -43 -49v-361q0 -21 10 -38.5t33 -17.5z" />
    <glyph glyph-name="divide" unicode="&#xf7;" horiz-adv-x="240" 
d="M103 175v81h33v-81h-33zM26 304v35h188v-35h-188zM103 381v81h33v-81h-33z" />
    <glyph glyph-name="oslash" unicode="&#xf8;" horiz-adv-x="228" 
d="M68 -32l-28 5l10 47q-20 26 -20 73v349q0 44 24.5 68t61.5 24q27 0 47 -13l7 31l27 -4l-11 -50q12 -22 12 -50v-356q0 -98 -87 -98q-21 0 -36 6zM71 448v-337l81 361q-11 25 -38 25q-43 0 -43 -49zM114 31q43 0 43 55v282l-72 -325q10 -12 29 -12z" />
    <glyph glyph-name="ugrave" unicode="&#xf9;" horiz-adv-x="234" 
d="M92 -8q-24 0 -41.5 15t-17.5 46v473h39v-459q0 -40 35 -40q50 0 50 67v432h39v-526h-38v31h-1q-19 -39 -65 -39zM100 586l-66 132h49l47 -132h-30z" />
    <glyph glyph-name="uacute" unicode="&#xfa;" horiz-adv-x="234" 
d="M96 586l47 132h49l-66 -132h-30zM92 -8q-24 0 -41.5 15t-17.5 46v473h39v-459q0 -40 35 -40q50 0 50 67v432h39v-526h-38v31h-1q-19 -39 -65 -39z" />
    <glyph glyph-name="ucircumflex" unicode="&#xfb;" horiz-adv-x="234" 
d="M54 586l49 132h30l46 -132h-35l-28 84l-28 -84h-34zM92 -8q-24 0 -41.5 15t-17.5 46v473h39v-459q0 -40 35 -40q50 0 50 67v432h39v-526h-38v31h-1q-19 -39 -65 -39z" />
    <glyph glyph-name="udieresis" unicode="&#xfc;" horiz-adv-x="234" 
d="M59 591v118h36v-118h-36zM138 591v118h36v-118h-36zM92 -8q-24 0 -41.5 15t-17.5 46v473h39v-459q0 -40 35 -40q50 0 50 67v432h39v-526h-38v31h-1q-19 -39 -65 -39z" />
    <glyph glyph-name="yacute" unicode="&#xfd;" horiz-adv-x="195" 
d="M37 -167q-8 0 -24 2l1 36q16 -2 20 -2q7 0 12.5 1t14.5 11.5t12 29.5l12 90l-73 525h39l50 -390h2l42 390h38l-71 -580q-7 -58 -23 -85.5t-52 -27.5zM82 586l47 132h49l-66 -132h-30z" />
    <glyph glyph-name="thorn" unicode="&#xfe;" horiz-adv-x="233" 
d="M38 -160v873h38v-221h2q17 42 62 42q33 0 48 -22t15 -49v-392q0 -33 -20.5 -55t-51.5 -22q-34 0 -53 26h-1v-180h-39zM123 31q40 0 40 51v364q0 52 -40 52q-22 0 -34 -24t-12 -56v-334q0 -53 46 -53z" />
    <glyph glyph-name="ydieresis" unicode="&#xff;" horiz-adv-x="195" 
d="M37 -167q-8 0 -24 2l1 36q16 -2 20 -2q7 0 12.5 1t14.5 11.5t12 29.5l12 90l-73 525h39l50 -390h2l42 390h38l-71 -580q-7 -58 -23 -85.5t-52 -27.5zM40 591v118h36v-118h-36zM119 591v118h36v-118h-36z" />
    <glyph glyph-name="Amacron" unicode="&#x100;" horiz-adv-x="285" 
d="M22 0l91 714h60l90 -714h-42l-30 247h-100l-30 -247h-39zM96 285h90l-44 377h-2zM79 803v40h126v-40h-126z" />
    <glyph glyph-name="amacron" unicode="&#x101;" horiz-adv-x="212" 
d="M95 -8q-72 0 -72 164q0 167 107 172h8v135q0 37 -34 37q-37 0 -37 -40v-84h-37v82q0 30 18.5 53t59.5 23q34 0 51 -22t17 -47v-337q0 -66 2 -128h-32q-2 14 -2 37h-2q-3 -20 -16.5 -32.5t-30.5 -12.5zM104 28q16 0 25 21.5t9 46.5v197h-14q-27 0 -45 -31.5t-18 -101.5
q0 -132 43 -132zM40 618v40h126v-40h-126z" />
    <glyph glyph-name="Abreve" unicode="&#x102;" horiz-adv-x="285" 
d="M22 0l91 714h60l90 -714h-42l-30 247h-100l-30 -247h-39zM96 285h90l-44 377h-2zM142 772q-37 0 -58 26.5t-20 71.5h33q6 -67 48 -67q41 0 45 67h32q-1 -47 -23 -72.5t-57 -25.5z" />
    <glyph glyph-name="abreve" unicode="&#x103;" horiz-adv-x="212" 
d="M95 -8q-72 0 -72 164q0 167 107 172h8v135q0 37 -34 37q-37 0 -37 -40v-84h-37v82q0 30 18.5 53t59.5 23q34 0 51 -22t17 -47v-337q0 -66 2 -128h-32q-2 14 -2 37h-2q-3 -20 -16.5 -32.5t-30.5 -12.5zM104 28q16 0 25 21.5t9 46.5v197h-14q-27 0 -45 -31.5t-18 -101.5
q0 -132 43 -132zM106 587q-37 0 -58 26.5t-20 71.5h33q6 -67 48 -67q41 0 45 67h32q-1 -47 -23 -72.5t-57 -25.5z" />
    <glyph glyph-name="Aogonek" unicode="&#x104;" horiz-adv-x="285" 
d="M243 -149q-25 0 -43 17.5t-18 47.5q0 51 39 84l-30 247h-100l-30 -247h-39l91 714h60l90 -714h-10q-37 -26 -37 -73q0 -18 9.5 -29t24.5 -11q17 0 29 7l13 -29q-20 -14 -49 -14zM96 285h90l-44 377h-2z" />
    <glyph glyph-name="aogonek" unicode="&#x105;" horiz-adv-x="212" 
d="M165 -149q-25 0 -43 17.5t-18 47.5q0 52 41 87q-1 8 -1 34h-2q-3 -20 -16.5 -32.5t-30.5 -12.5q-72 0 -72 164q0 167 107 172h8v135q0 37 -34 37q-37 0 -37 -40v-84h-37v82q0 30 18.5 53t59.5 23q34 0 51 -22t17 -47v-337q0 -66 2 -128h-4q-36 -26 -36 -73q0 -18 9.5 -29
t24.5 -11q17 0 29 7l13 -29q-20 -14 -49 -14zM104 28q16 0 25 21.5t9 46.5v197h-14q-27 0 -45 -31.5t-18 -101.5q0 -132 43 -132z" />
    <glyph glyph-name="Cacute" unicode="&#x106;" horiz-adv-x="243" 
d="M100 771l47 132h49l-66 -132h-30zM127 -6q-48 0 -72.5 25.5t-24.5 68.5v531q0 47 23.5 76t72.5 29q46 0 68.5 -27.5t22.5 -66.5v-123h-37v114q0 66 -54 66q-36 0 -46 -18.5t-10 -52.5v-517q0 -69 56 -69q54 0 54 70v111h37v-112q0 -47 -23 -76t-67 -29z" />
    <glyph glyph-name="cacute" unicode="&#x107;" horiz-adv-x="221" 
d="M95 586l47 132h49l-66 -132h-30zM112 -6q-82 0 -82 99v346q0 47 24.5 71t62.5 24t58 -24t20 -57v-80h-38v73q0 51 -43 51t-43 -49v-361q0 -56 43 -56q21 0 31 12t11 21.5t1 27.5v80h38v-90q0 -40 -22 -64t-61 -24z" />
    <glyph glyph-name="Ccircumflex" unicode="&#x108;" horiz-adv-x="243" 
d="M61 771l49 132h30l46 -132h-35l-28 84l-28 -84h-34zM127 -6q-48 0 -72.5 25.5t-24.5 68.5v531q0 47 23.5 76t72.5 29q46 0 68.5 -27.5t22.5 -66.5v-123h-37v114q0 66 -54 66q-36 0 -46 -18.5t-10 -52.5v-517q0 -69 56 -69q54 0 54 70v111h37v-112q0 -47 -23 -76t-67 -29z
" />
    <glyph glyph-name="ccircumflex" unicode="&#x109;" horiz-adv-x="221" 
d="M48 586l49 132h30l46 -132h-35l-28 84l-28 -84h-34zM112 -6q-82 0 -82 99v346q0 47 24.5 71t62.5 24t58 -24t20 -57v-80h-38v73q0 51 -43 51t-43 -49v-361q0 -56 43 -56q21 0 31 12t11 21.5t1 27.5v80h38v-90q0 -40 -22 -64t-61 -24z" />
    <glyph glyph-name="Cdotaccent" unicode="&#x10a;" horiz-adv-x="243" 
d="M127 -6q-48 0 -72.5 25.5t-24.5 68.5v531q0 47 23.5 76t72.5 29q46 0 68.5 -27.5t22.5 -66.5v-123h-37v114q0 66 -54 66q-36 0 -46 -18.5t-10 -52.5v-517q0 -69 56 -69q54 0 54 70v111h37v-112q0 -47 -23 -76t-67 -29zM105 776v118h36v-118h-36z" />
    <glyph glyph-name="cdotaccent" unicode="&#x10b;" horiz-adv-x="221" 
d="M112 -6q-82 0 -82 99v346q0 47 24.5 71t62.5 24t58 -24t20 -57v-80h-38v73q0 51 -43 51t-43 -49v-361q0 -56 43 -56q21 0 31 12t11 21.5t1 27.5v80h38v-90q0 -40 -22 -64t-61 -24zM99 591v118h36v-118h-36z" />
    <glyph glyph-name="Ccaron" unicode="&#x10c;" horiz-adv-x="243" 
d="M107 771l-46 132h35l28 -84l28 84h34l-49 -132h-30zM127 -6q-48 0 -72.5 25.5t-24.5 68.5v531q0 47 23.5 76t72.5 29q46 0 68.5 -27.5t22.5 -66.5v-123h-37v114q0 66 -54 66q-36 0 -46 -18.5t-10 -52.5v-517q0 -69 56 -69q54 0 54 70v111h37v-112q0 -47 -23 -76t-67 -29z
" />
    <glyph glyph-name="ccaron" unicode="&#x10d;" horiz-adv-x="221" 
d="M101 586l-46 132h35l28 -84l28 84h34l-49 -132h-30zM112 -6q-82 0 -82 99v346q0 47 24.5 71t62.5 24t58 -24t20 -57v-80h-38v73q0 51 -43 51t-43 -49v-361q0 -56 43 -56q21 0 31 12t11 21.5t1 27.5v80h38v-90q0 -40 -22 -64t-61 -24z" />
    <glyph glyph-name="Dcaron" unicode="&#x10e;" horiz-adv-x="250" 
d="M108 773l-46 132h35l28 -84l28 84h34l-49 -132h-30zM38 0v713h84q42 0 70 -23.5t28 -68.5v-514q0 -55 -28.5 -81t-74.5 -26h-79zM79 37h41q33 0 46 20.5t13 45.5v516q0 25 -15 40.5t-44 15.5h-41v-638z" />
    <glyph glyph-name="dcaron" unicode="&#x10f;" horiz-adv-x="233" 
d="M219 595l1 118h44l-14 -118h-31zM93 -6q-33 0 -48 22t-15 49v390q0 33 20.5 56t51.5 23q33 0 52 -26h1v205h40v-713h-36v37h-2q-17 -43 -64 -43zM110 30q46 0 46 70v342q0 25 -12 40t-34 15q-40 0 -40 -53v-362q0 -52 40 -52z" />
    <glyph glyph-name="Dcroat" unicode="&#x110;" horiz-adv-x="257" 
d="M45 0v357h-27v35h27v321h84q42 0 70 -23.5t28 -68.5v-514q0 -55 -28.5 -81t-74.5 -26h-79zM86 37h41q33 0 46 20.5t13 45.5v516q0 25 -15 40.5t-44 15.5h-41v-283h59v-35h-59v-320z" />
    <glyph glyph-name="dcroat" unicode="&#x111;" horiz-adv-x="233" 
d="M97 605v36h58v72h40v-72h24v-36h-24v-605h-36v37h-2q-17 -43 -64 -43q-33 0 -48 22t-15 49v390q0 33 20.5 56t51.5 23q33 0 52 -26h1v97h-58zM110 30q46 0 46 70v342q0 25 -12 40t-34 15q-40 0 -40 -53v-362q0 -52 40 -52z" />
    <glyph glyph-name="Emacron" unicode="&#x112;" horiz-adv-x="204" 
d="M38 0v713h142v-38h-103v-277h86v-38h-86v-323h105v-37h-144zM47 803v40h126v-40h-126z" />
    <glyph glyph-name="emacron" unicode="&#x113;" horiz-adv-x="214" 
d="M124 -6q-94 0 -94 107v331q0 48 21.5 75t61.5 27q39 0 57 -27t18 -69v-181h-117v-138q0 -45 12.5 -65.5t50.5 -20.5q16 0 45 9l11 -34q-28 -14 -66 -14zM71 293h76v146q0 57 -38 57t-38 -56v-147zM44 618v40h126v-40h-126z" />
    <glyph glyph-name="Ebreve" unicode="&#x114;" horiz-adv-x="204" 
d="M45 0v713h142v-38h-103v-277h86v-38h-86v-323h105v-37h-144zM117 772q-37 0 -58 26.5t-20 71.5h33q6 -67 48 -67q41 0 45 67h32q-1 -47 -23 -72.5t-57 -25.5z" />
    <glyph glyph-name="ebreve" unicode="&#x115;" horiz-adv-x="214" 
d="M126 -6q-94 0 -94 107v331q0 48 21.5 75t61.5 27q39 0 57 -27t18 -69v-181h-117v-138q0 -45 12.5 -65.5t50.5 -20.5q16 0 45 9l11 -34q-28 -14 -66 -14zM73 293h76v146q0 57 -38 57t-38 -56v-147zM109 587q-37 0 -58 26.5t-20 71.5h33q6 -67 48 -67q41 0 45 67h32
q-1 -47 -23 -72.5t-57 -25.5z" />
    <glyph glyph-name="Edotaccent" unicode="&#x116;" horiz-adv-x="204" 
d="M38 0v713h142v-38h-103v-277h86v-38h-86v-323h105v-37h-144zM92 776v118h36v-118h-36z" />
    <glyph glyph-name="edotaccent" unicode="&#x117;" horiz-adv-x="214" 
d="M124 -6q-94 0 -94 107v331q0 48 21.5 75t61.5 27q39 0 57 -27t18 -69v-181h-117v-138q0 -45 12.5 -65.5t50.5 -20.5q16 0 45 9l11 -34q-28 -14 -66 -14zM71 293h76v146q0 57 -38 57t-38 -56v-147zM89 591v118h36v-118h-36z" />
    <glyph glyph-name="Eogonek" unicode="&#x118;" horiz-adv-x="204" 
d="M38 0v713h142v-38h-103v-277h86v-38h-86v-323h105v-37h-5q-36 -26 -36 -73q0 -18 9.5 -29t24.5 -11q17 0 29 7l13 -29q-20 -14 -49 -14q-25 0 -43 17.5t-18 47.5q0 50 38 84h-107z" />
    <glyph glyph-name="eogonek" unicode="&#x119;" horiz-adv-x="214" 
d="M124 -6q-94 0 -94 107v331q0 48 21.5 75t61.5 27q39 0 57 -27t18 -69v-181h-117v-138q0 -45 12.5 -65.5t50.5 -20.5q16 0 45 9l11 -34q-2 -1 -13 -5q-34 -25 -34 -76q0 -18 9.5 -29t24.5 -11q17 0 29 7l13 -29q-20 -14 -49 -14q-25 0 -43 17.5t-18 47.5q0 45 35 80
q-12 -2 -20 -2zM71 293h76v146q0 57 -38 57t-38 -56v-147z" />
    <glyph glyph-name="Ecaron" unicode="&#x11a;" horiz-adv-x="204" 
d="M94 771l-46 132h35l28 -84l28 84h34l-49 -132h-30zM38 0v713h142v-38h-103v-277h86v-38h-86v-323h105v-37h-144z" />
    <glyph glyph-name="ecaron" unicode="&#x11b;" horiz-adv-x="214" 
d="M90 586l-46 132h35l28 -84l28 84h34l-49 -132h-30zM124 -6q-94 0 -94 107v331q0 48 21.5 75t61.5 27q39 0 57 -27t18 -69v-181h-117v-138q0 -45 12.5 -65.5t50.5 -20.5q16 0 45 9l11 -34q-28 -14 -66 -14zM71 293h76v146q0 57 -38 57t-38 -56v-147z" />
    <glyph glyph-name="Gcircumflex" unicode="&#x11c;" horiz-adv-x="247" 
d="M61 773l49 132h30l46 -132h-35l-28 84l-28 -84h-34zM127 -6q-48 0 -72.5 25.5t-24.5 68.5v531q0 47 23.5 76t72.5 29q46 0 68.5 -27.5t22.5 -66.5v-123h-37v114q0 66 -54 66q-36 0 -46 -18.5t-10 -52.5v-517q0 -69 56 -69q54 0 54 70v239h-63v37h100v-277q0 -47 -23 -76
t-67 -29z" />
    <glyph glyph-name="gcircumflex" unicode="&#x11d;" horiz-adv-x="235" 
d="M48 586l49 132h30l46 -132h-35l-28 84l-28 -84h-34zM95 -173q-33 0 -62 10l9 34q33 -8 55 -8q32 0 46 18t14 58v102h-2q-5 -19 -22 -29t-33 -10q-67 0 -67 88v358q0 43 19.5 64.5t52.5 21.5q42 0 56 -37h1v30h35v-583q0 -59 -27.5 -88t-74.5 -29zM113 40q19 0 31.5 17
t12.5 39v343q0 26 -13 43.5t-34 17.5q-38 0 -38 -56v-350q0 -54 41 -54z" />
    <glyph glyph-name="Gbreve" unicode="&#x11e;" horiz-adv-x="247" 
d="M127 -6q-48 0 -72.5 25.5t-24.5 68.5v531q0 47 23.5 76t72.5 29q46 0 68.5 -27.5t22.5 -66.5v-123h-37v114q0 66 -54 66q-36 0 -46 -18.5t-10 -52.5v-517q0 -69 56 -69q54 0 54 70v239h-63v37h100v-277q0 -47 -23 -76t-67 -29zM123 774q-37 0 -58 26.5t-20 71.5h33
q6 -67 48 -67q41 0 45 67h32q-1 -47 -23 -72.5t-57 -25.5z" />
    <glyph glyph-name="gbreve" unicode="&#x11f;" horiz-adv-x="235" 
d="M95 -173q-33 0 -62 10l9 34q33 -8 55 -8q32 0 46 18t14 58v102h-2q-5 -19 -22 -29t-33 -10q-67 0 -67 88v358q0 43 19.5 64.5t52.5 21.5q42 0 56 -37h1v30h35v-583q0 -59 -27.5 -88t-74.5 -29zM113 40q19 0 31.5 17t12.5 39v343q0 26 -13 43.5t-34 17.5q-38 0 -38 -56
v-350q0 -54 41 -54zM117 587q-37 0 -58 26.5t-20 71.5h33q6 -67 48 -67q41 0 45 67h32q-1 -47 -23 -72.5t-57 -25.5z" />
    <glyph glyph-name="Gdotaccent" unicode="&#x120;" horiz-adv-x="247" 
d="M127 -6q-48 0 -72.5 25.5t-24.5 68.5v531q0 47 23.5 76t72.5 29q46 0 68.5 -27.5t22.5 -66.5v-123h-37v114q0 66 -54 66q-36 0 -46 -18.5t-10 -52.5v-517q0 -69 56 -69q54 0 54 70v239h-63v37h100v-277q0 -47 -23 -76t-67 -29zM105 778v118h36v-118h-36z" />
    <glyph glyph-name="gdotaccent" unicode="&#x121;" horiz-adv-x="235" 
d="M95 -173q-33 0 -62 10l9 34q33 -8 55 -8q32 0 46 18t14 58v102h-2q-5 -19 -22 -29t-33 -10q-67 0 -67 88v358q0 43 19.5 64.5t52.5 21.5q42 0 56 -37h1v30h35v-583q0 -59 -27.5 -88t-74.5 -29zM113 40q19 0 31.5 17t12.5 39v343q0 26 -13 43.5t-34 17.5q-38 0 -38 -56
v-350q0 -54 41 -54zM99 591v118h36v-118h-36z" />
    <glyph glyph-name="Gcommaaccent" unicode="&#x122;" horiz-adv-x="247" 
d="M100 -145l1 118h43l-13 -118h-31zM127 -6q-48 0 -72.5 25.5t-24.5 68.5v531q0 47 23.5 76t72.5 29q46 0 68.5 -27.5t22.5 -66.5v-123h-37v114q0 66 -54 66q-36 0 -46 -18.5t-10 -52.5v-517q0 -69 56 -69q54 0 54 70v239h-63v37h100v-277q0 -47 -23 -76t-67 -29z" />
    <glyph glyph-name="gcommaaccent" unicode="&#x123;" horiz-adv-x="235" 
d="M95 -173q-33 0 -62 10l9 34q33 -8 55 -8q32 0 46 18t14 58v102h-2q-5 -19 -22 -29t-33 -10q-67 0 -67 88v358q0 43 19.5 64.5t52.5 21.5q42 0 56 -37h1v30h35v-583q0 -59 -27.5 -88t-74.5 -29zM113 40q19 0 31.5 17t12.5 39v343q0 26 -13 43.5t-34 17.5q-38 0 -38 -56
v-350q0 -54 41 -54zM92 587v59l20 67h23l-13 -64h13v-62h-43z" />
    <glyph glyph-name="Hcircumflex" unicode="&#x124;" horiz-adv-x="266" 
d="M70 773l49 132h30l46 -132h-35l-28 84l-28 -84h-34zM38 0v713h40v-325h110v325h40v-713h-40v347h-110v-347h-40z" />
    <glyph glyph-name="hcircumflex" unicode="&#x125;" horiz-adv-x="234" 
d="M-5 760l49 132h30l46 -132h-35l-28 84l-28 -84h-34zM38 0v713h39v-218h1q20 39 64 39q24 0 41.5 -15t17.5 -46v-473h-39v459q0 40 -35 40q-50 0 -50 -67v-432h-39z" />
    <glyph glyph-name="Hbar" unicode="&#x126;" horiz-adv-x="300" 
d="M22 568v40h33v105h40v-105h110v105h40v-105h33v-40h-33v-568h-40v347h-110v-347h-40v568h-33zM95 388h110v180h-110v-180z" />
    <glyph glyph-name="hbar" unicode="&#x127;" horiz-adv-x="234" 
d="M17 605v36h21v72h39v-72h62v-36h-62v-110h1q20 39 64 39q24 0 41.5 -15t17.5 -46v-473h-39v459q0 40 -35 40q-50 0 -50 -67v-432h-39v605h-21z" />
    <glyph glyph-name="Itilde" unicode="&#x128;" horiz-adv-x="116" 
d="M38 0v713h40v-713h-40zM10 785l-25 3q5 62 43 62q12 0 32 -10t28 -10q13 0 16 24l27 -4q-1 -26 -12.5 -42.5t-29.5 -16.5q-13 0 -33.5 10t-26.5 10q-8 0 -12 -5t-7 -21z" />
    <glyph glyph-name="itilde" unicode="&#x129;" horiz-adv-x="115" 
d="M38 0v526h39v-526h-39zM10 600l-25 3q5 62 43 62q12 0 32 -10t28 -10q13 0 16 24l27 -4q-1 -26 -12.5 -42.5t-29.5 -16.5q-13 0 -33.5 10t-26.5 10q-8 0 -12 -5t-7 -21z" />
    <glyph glyph-name="Imacron" unicode="&#x12a;" horiz-adv-x="116" 
d="M38 0v713h40v-713h-40zM-5 803v40h126v-40h-126z" />
    <glyph glyph-name="imacron" unicode="&#x12b;" horiz-adv-x="115" 
d="M38 0v526h39v-526h-39zM-5 618v40h126v-40h-126z" />
    <glyph glyph-name="Ibreve" unicode="&#x12c;" horiz-adv-x="116" 
d="M38 0v713h40v-713h-40zM58 772q-37 0 -58 26.5t-20 71.5h33q6 -67 48 -67q41 0 45 67h32q-1 -47 -23 -72.5t-57 -25.5z" />
    <glyph glyph-name="ibreve" unicode="&#x12d;" horiz-adv-x="115" 
d="M38 0v526h39v-526h-39zM57 587q-37 0 -58 26.5t-20 71.5h33q6 -67 48 -67q41 0 45 67h32q-1 -47 -23 -72.5t-57 -25.5z" />
    <glyph glyph-name="Iogonek" unicode="&#x12e;" horiz-adv-x="116" 
d="M38 0v713h40v-713q-32 -29 -32 -74q0 -40 30 -40q9 0 23 7l11 -29q-17 -12 -40 -12q-26 0 -42.5 15t-16.5 44q0 51 36 89h-9z" />
    <glyph glyph-name="iogonek" unicode="&#x12f;" horiz-adv-x="115" 
d="M38 0v526h39v-526h-39zM38 618v97h39v-97h-39z" />
    <glyph glyph-name="Idotaccent" unicode="&#x130;" horiz-adv-x="116" 
d="M38 0v713h40v-713h-40zM40 776v118h36v-118h-36z" />
    <glyph glyph-name="dotlessi" unicode="&#x131;" horiz-adv-x="115" 
d="M38 0v526h39v-526h-39z" />
    <glyph glyph-name="IJ" unicode="&#x132;" horiz-adv-x="334" 
d="M38 0v713h40v-713h-40zM210 -8q-46 0 -68 27.5t-22 71.5v129h42v-120q0 -72 50 -72q29 0 39 18t10 53v614h40v-623q0 -44 -24.5 -71t-66.5 -27z" />
    <glyph glyph-name="ij" unicode="&#x133;" horiz-adv-x="212" 
d="M38 0v526h39v-526h-39zM38 618v97h39v-97h-39zM128 -164q-15 0 -27 3v35h16q18 0 18 22v630h38v-637q0 -21 -10.5 -37t-34.5 -16zM135 618v97h39v-97h-39z" />
    <glyph glyph-name="Jcircumflex" unicode="&#x134;" horiz-adv-x="236" 
d="M100 771l49 132h30l46 -132h-35l-28 84l-28 -84h-34zM112 -8q-46 0 -68 27.5t-22 71.5v129h42v-120q0 -72 50 -72q29 0 39 18t10 53v614h40v-623q0 -44 -24.5 -71t-66.5 -27z" />
    <glyph glyph-name="jcircumflex" unicode="&#x135;" horiz-adv-x="115" 
d="M31 -164q-15 0 -27 3v35h16q18 0 18 22v630h38v-637q0 -21 -10.5 -37t-34.5 -16zM-5 586l49 132h30l46 -132h-35l-28 84l-28 -84h-34z" />
    <glyph glyph-name="Kcommaaccent" unicode="&#x136;" horiz-adv-x="252" 
d="M103 -145l1 118h43l-13 -118h-31zM38 0v713h40v-359l110 359h39l-81 -262l84 -451h-42l-68 388l-42 -132v-256h-40z" />
    <glyph glyph-name="kcommaaccent" unicode="&#x137;" horiz-adv-x="213" 
d="M90 -145l1 118h43l-13 -118h-31zM38 0v713h38v-433l85 246h38l-66 -183l60 -343h-38l-49 291l-30 -77v-214h-38z" />
    <glyph glyph-name="kgreenlandic" unicode="&#x138;" horiz-adv-x="213" 
d="M38 0v526h38v-246l85 246h38l-66 -183l60 -343h-38l-49 291l-30 -77v-214h-38z" />
    <glyph glyph-name="Lacute" unicode="&#x139;" horiz-adv-x="196" 
d="M45 771l47 132h49l-66 -132h-30zM38 0v713h39v-676h105v-37h-144z" />
    <glyph glyph-name="lacute" unicode="&#x13a;" horiz-adv-x="121" 
d="M38 749l47 132h49l-66 -132h-30zM77 -4q-39 0 -39 41v676h39v-669q0 -11 12 -11q7 0 15 1v-33q-12 -5 -27 -5z" />
    <glyph glyph-name="Lcommaaccent" unicode="&#x13b;" horiz-adv-x="196" 
d="M94 -145l1 118h43l-13 -118h-31zM38 0v713h39v-676h105v-37h-144z" />
    <glyph glyph-name="lcommaaccent" unicode="&#x13c;" horiz-adv-x="121" 
d="M47 -145l1 118h43l-13 -118h-31zM77 -4q-39 0 -39 41v676h39v-669q0 -11 12 -11q7 0 15 1v-33q-12 -5 -27 -5z" />
    <glyph glyph-name="Lcaron" unicode="&#x13d;" horiz-adv-x="196" 
d="M123 595l1 118h44l-14 -118h-31zM38 0v713h39v-676h105v-37h-144z" />
    <glyph glyph-name="lcaron" unicode="&#x13e;" horiz-adv-x="121" 
d="M107 595l1 118h44l-14 -118h-31zM77 -4q-39 0 -39 41v676h39v-669q0 -11 12 -11q7 0 15 1v-33q-12 -5 -27 -5z" />
    <glyph glyph-name="Ldot" unicode="&#x13f;" horiz-adv-x="196" 
d="M38 0v713h39v-676h105v-37h-144zM117 343v109h35v-109h-35z" />
    <glyph glyph-name="ldot" unicode="&#x140;" horiz-adv-x="158" 
d="M77 -4q-39 0 -39 41v676h39v-669q0 -11 12 -11q7 0 15 1v-33q-12 -5 -27 -5zM105 314v118h36v-118h-36z" />
    <glyph glyph-name="Lslash" unicode="&#x141;" horiz-adv-x="209" 
d="M18 278v52l33 45v338h39v-285l57 78v-52l-57 -78v-339h105v-37h-144v323z" />
    <glyph glyph-name="lslash" unicode="&#x142;" horiz-adv-x="128" 
d="M18 272v58l27 51v332h39v-257l26 50v-58l-26 -50v-354q0 -11 12 -11q7 0 15 1v-33q-12 -5 -27 -5q-39 0 -39 41v286z" />
    <glyph glyph-name="Nacute" unicode="&#x143;" horiz-adv-x="266" 
d="M131 771l47 132h49l-66 -132h-30zM38 0v713h54l98 -553h2v553h36v-713h-45l-108 612h-2v-612h-35z" />
    <glyph glyph-name="nacute" unicode="&#x144;" horiz-adv-x="234" 
d="M109 586l47 132h49l-66 -132h-30zM38 0v526h38v-31h1q19 39 65 39q24 0 41.5 -15t17.5 -46v-473h-39v459q0 40 -35 40q-50 0 -50 -67v-432h-39z" />
    <glyph glyph-name="Ncommaaccent" unicode="&#x145;" horiz-adv-x="266" 
d="M110 -145l1 118h43l-13 -118h-31zM38 0v713h54l98 -553h2v553h36v-713h-45l-108 612h-2v-612h-35z" />
    <glyph glyph-name="ncommaaccent" unicode="&#x146;" horiz-adv-x="234" 
d="M94 -145l1 118h43l-13 -118h-31zM38 0v526h38v-31h1q19 39 65 39q24 0 41.5 -15t17.5 -46v-473h-39v459q0 40 -35 40q-50 0 -50 -67v-432h-39z" />
    <glyph glyph-name="Ncaron" unicode="&#x147;" horiz-adv-x="266" 
d="M117 771l-46 132h35l28 -84l28 84h34l-49 -132h-30zM38 0v713h54l98 -553h2v553h36v-713h-45l-108 612h-2v-612h-35z" />
    <glyph glyph-name="ncaron" unicode="&#x148;" horiz-adv-x="234" 
d="M100 586l-46 132h35l28 -84l28 84h34l-49 -132h-30zM38 0v526h38v-31h1q19 39 65 39q24 0 41.5 -15t17.5 -46v-473h-39v459q0 40 -35 40q-50 0 -50 -67v-432h-39z" />
    <glyph glyph-name="Eng" unicode="&#x14a;" horiz-adv-x="266" 
d="M183 -164q-15 0 -27 3v35h16q17 0 17 22v73l-114 643h-2v-612h-35v713h54l98 -553h2v553h36v-824q0 -21 -10.5 -37t-34.5 -16z" />
    <glyph glyph-name="eng" unicode="&#x14b;" horiz-adv-x="234" 
d="M156 -164q-15 0 -27 3v35h16q17 0 17 22v563q0 40 -35 40q-50 0 -50 -67v-432h-39v526h38v-31h1q19 39 65 39q24 0 41.5 -15t17.5 -46v-584q0 -21 -10.5 -37t-34.5 -16z" />
    <glyph glyph-name="Omacron" unicode="&#x14c;" horiz-adv-x="251" 
d="M62 803v40h126v-40h-126zM123 -6q-93 0 -93 108v520q0 49 27.5 74.5t70.5 25.5q41 0 67 -23.5t26 -68.5v-529q0 -107 -98 -107zM126 30q54 0 54 67v531q0 57 -54 57q-29 0 -42 -16.5t-13 -38.5v-535q0 -25 13 -45t42 -20z" />
    <glyph glyph-name="omacron" unicode="&#x14d;" horiz-adv-x="228" 
d="M51 618v40h126v-40h-126zM111 -6q-81 0 -81 99v349q0 44 24.5 68t61.5 24q36 0 59 -22t23 -64v-356q0 -98 -87 -98zM114 31q43 0 43 55v360q0 21 -10.5 36t-32.5 15q-43 0 -43 -49v-361q0 -21 10 -38.5t33 -17.5z" />
    <glyph glyph-name="Obreve" unicode="&#x14e;" horiz-adv-x="251" 
d="M123 -6q-93 0 -93 108v520q0 49 27.5 74.5t70.5 25.5q41 0 67 -23.5t26 -68.5v-529q0 -107 -98 -107zM126 30q54 0 54 67v531q0 57 -54 57q-29 0 -42 -16.5t-13 -38.5v-535q0 -25 13 -45t42 -20zM125 772q-37 0 -58 26.5t-20 71.5h33q6 -67 48 -67q41 0 45 67h32
q-1 -47 -23 -72.5t-57 -25.5z" />
    <glyph glyph-name="obreve" unicode="&#x14f;" horiz-adv-x="228" 
d="M111 -6q-81 0 -81 99v349q0 44 24.5 68t61.5 24q36 0 59 -22t23 -64v-356q0 -98 -87 -98zM114 31q43 0 43 55v360q0 21 -10.5 36t-32.5 15q-43 0 -43 -49v-361q0 -21 10 -38.5t33 -17.5zM113 587q-37 0 -58 26.5t-20 71.5h33q6 -67 48 -67q41 0 45 67h32
q-1 -47 -23 -72.5t-57 -25.5z" />
    <glyph glyph-name="Ohungarumlaut" unicode="&#x150;" horiz-adv-x="251" 
d="M59 782l40 111h45l-51 -111h-34zM137 782l40 111h45l-51 -111h-34zM123 -6q-93 0 -93 108v520q0 49 27.5 74.5t70.5 25.5q41 0 67 -23.5t26 -68.5v-529q0 -107 -98 -107zM126 30q54 0 54 67v531q0 57 -54 57q-29 0 -42 -16.5t-13 -38.5v-535q0 -25 13 -45t42 -20z" />
    <glyph glyph-name="ohungarumlaut" unicode="&#x151;" horiz-adv-x="228" 
d="M58 597l40 111h45l-51 -111h-34zM136 597l40 111h45l-51 -111h-34zM111 -6q-81 0 -81 99v349q0 44 24.5 68t61.5 24q36 0 59 -22t23 -64v-356q0 -98 -87 -98zM114 31q43 0 43 55v360q0 21 -10.5 36t-32.5 15q-43 0 -43 -49v-361q0 -21 10 -38.5t33 -17.5z" />
    <glyph glyph-name="OE" unicode="&#x152;" horiz-adv-x="348" 
d="M117 -6q-87 0 -87 108v520q0 49 27.5 74.5t70.5 25.5q34 0 54 -19v10h142v-38h-103v-277h86v-38h-86v-323h105v-37h-144v21q-24 -27 -65 -27zM126 30q54 0 54 67v531q0 57 -54 57q-29 0 -42 -16.5t-13 -38.5v-535q0 -25 13 -45t42 -20z" />
    <glyph glyph-name="oe" unicode="&#x153;" horiz-adv-x="341" 
d="M111 -6q-81 0 -81 99v349q0 44 24.5 68t61.5 24t63 -30q25 30 61 30q39 0 57 -27t18 -69v-181h-117v-150q1 -38 14 -56t49 -18q16 0 45 9l11 -34q-28 -14 -66 -14q-45 0 -73 33q-25 -33 -67 -33zM114 31q43 0 43 55v360q0 21 -10.5 36t-32.5 15q-43 0 -43 -49v-361
q0 -21 10 -38.5t33 -17.5zM198 293h76v146q0 57 -38 57q-36 0 -38 -48v-155z" />
    <glyph glyph-name="Racute" unicode="&#x154;" horiz-adv-x="248" 
d="M93 771l47 132h49l-66 -132h-30zM38 0v713h67q63 0 87.5 -46.5t24.5 -134.5q0 -67 -15 -113.5t-35 -58.5l56 -360h-41l-52 346h-52v-346h-40zM78 383h46q51 0 51 139q0 24 -0.5 38.5t-4 38.5t-9.5 38t-19 25t-32 11h-32v-290z" />
    <glyph glyph-name="racute" unicode="&#x155;" horiz-adv-x="142" 
d="M71 586l47 132h49l-66 -132h-30zM38 0v526h39v-28h1q6 13 19 22t26 9q6 0 10 -1v-47q-6 1 -14 1q-42 0 -42 -48v-434h-39z" />
    <glyph glyph-name="Rcommaaccent" unicode="&#x156;" horiz-adv-x="248" 
d="M101 -145l1 118h43l-13 -118h-31zM38 0v713h67q63 0 87.5 -46.5t24.5 -134.5q0 -67 -15 -113.5t-35 -58.5l56 -360h-41l-52 346h-52v-346h-40zM78 383h46q51 0 51 139q0 24 -0.5 38.5t-4 38.5t-9.5 38t-19 25t-32 11h-32v-290z" />
    <glyph glyph-name="rcommaaccent" unicode="&#x157;" horiz-adv-x="142" 
d="M37 -145l1 118h43l-13 -118h-31zM39 0v526h39v-28h1q6 13 19 22t26 9q6 0 10 -1v-47q-6 1 -14 1q-42 0 -42 -48v-434h-39z" />
    <glyph glyph-name="Rcaron" unicode="&#x158;" horiz-adv-x="248" 
d="M104 771l-46 132h35l28 -84l28 84h34l-49 -132h-30zM38 0v713h67q63 0 87.5 -46.5t24.5 -134.5q0 -67 -15 -113.5t-35 -58.5l56 -360h-41l-52 346h-52v-346h-40zM78 383h46q51 0 51 139q0 24 -0.5 38.5t-4 38.5t-9.5 38t-19 25t-32 11h-32v-290z" />
    <glyph glyph-name="rcaron" unicode="&#x159;" horiz-adv-x="142" 
d="M55 586l-46 132h35l28 -84l28 84h34l-49 -132h-30zM38 0v526h39v-28h1q6 13 19 22t26 9q6 0 10 -1v-47q-6 1 -14 1q-42 0 -42 -48v-434h-39z" />
    <glyph glyph-name="Sacute" unicode="&#x15a;" horiz-adv-x="226" 
d="M98 771l47 132h49l-66 -132h-30zM115 -6q-48 0 -69.5 38t-21.5 125h40q0 -67 9.5 -97.5t41.5 -30.5q22 0 33.5 15.5t14 32t2.5 42.5q0 84 -44 186l-44 96q-17 40 -25 60.5t-17 59t-9 73.5q0 127 88 127q42 0 62.5 -33.5t21.5 -123.5h-37q-3 68 -13.5 94t-35.5 26
q-47 0 -47 -87q0 -59 50 -179l29 -62q60 -134 60 -238q0 -59 -25 -91.5t-64 -32.5z" />
    <glyph glyph-name="sacute" unicode="&#x15b;" horiz-adv-x="200" 
d="M88 586l47 132h49l-66 -132h-30zM105 -5q-50 0 -66 34.5t-16 105.5h39q1 -59 9 -82.5t31 -23.5q34 0 34 54q0 51 -22 106l-58 146q-28 69 -28 111q0 37 19 62t52 25q40 0 56 -30.5t18 -97.5h-35q-3 54 -12.5 74.5t-26.5 20.5q-32 0 -32 -56q0 -28 27 -96l46 -115
q35 -88 35 -150q0 -37 -18 -62.5t-52 -25.5z" />
    <glyph glyph-name="Scircumflex" unicode="&#x15c;" horiz-adv-x="226" 
d="M52 771l49 132h30l46 -132h-35l-28 84l-28 -84h-34zM115 -6q-48 0 -69.5 38t-21.5 125h40q0 -67 9.5 -97.5t41.5 -30.5q22 0 33.5 15.5t14 32t2.5 42.5q0 84 -44 186l-44 96q-17 40 -25 60.5t-17 59t-9 73.5q0 127 88 127q42 0 62.5 -33.5t21.5 -123.5h-37
q-3 68 -13.5 94t-35.5 26q-47 0 -47 -87q0 -59 50 -179l29 -62q60 -134 60 -238q0 -59 -25 -91.5t-64 -32.5z" />
    <glyph glyph-name="scircumflex" unicode="&#x15d;" horiz-adv-x="200" 
d="M37 586l49 132h30l46 -132h-35l-28 84l-28 -84h-34zM105 -5q-50 0 -66 34.5t-16 105.5h39q1 -59 9 -82.5t31 -23.5q34 0 34 54q0 51 -22 106l-58 146q-28 69 -28 111q0 37 19 62t52 25q40 0 56 -30.5t18 -97.5h-35q-3 54 -12.5 74.5t-26.5 20.5q-32 0 -32 -56
q0 -28 27 -96l46 -115q35 -88 35 -150q0 -37 -18 -62.5t-52 -25.5z" />
    <glyph glyph-name="Scedilla" unicode="&#x15e;" horiz-adv-x="226" 
d="M121 -149q-28 0 -49 6v29q24 -4 41 -4q33 0 33 25q0 20 -40 23l-14 1l14 64q-44 3 -63 40.5t-19 121.5h40q0 -67 9.5 -97.5t41.5 -30.5q22 0 33.5 15.5t14 32t2.5 42.5q0 84 -44 186l-44 96q-17 40 -25 60.5t-17 59t-9 73.5q0 127 88 127q42 0 62.5 -33.5t21.5 -123.5
h-37q-3 68 -13.5 94t-35.5 26q-47 0 -47 -87q0 -59 50 -179l29 -62q60 -134 60 -238q0 -52 -19.5 -83.5t-51.5 -38.5l-9 -40q63 -4 63 -51q0 -26 -19.5 -40t-46.5 -14z" />
    <glyph glyph-name="scedilla" unicode="&#x15f;" horiz-adv-x="200" 
d="M101 -149q-28 0 -49 6v29q24 -4 41 -4q33 0 33 25q0 20 -40 23l-14 1l14 66q-38 6 -50.5 39.5t-12.5 98.5h39q1 -59 9 -82.5t31 -23.5q34 0 34 54q0 51 -22 106l-58 146q-28 69 -28 111q0 37 19 62t52 25q40 0 56 -30.5t18 -97.5h-35q-3 54 -12.5 74.5t-26.5 20.5
q-32 0 -32 -56q0 -28 27 -96l46 -115q35 -88 35 -150q0 -35 -16 -59.5t-46 -27.5l-9 -40q63 -4 63 -51q0 -26 -19.5 -40t-46.5 -14z" />
    <glyph glyph-name="Scaron" unicode="&#x160;" horiz-adv-x="226" 
d="M98 771l-46 132h35l28 -84l28 84h34l-49 -132h-30zM115 -6q-48 0 -69.5 38t-21.5 125h40q0 -67 9.5 -97.5t41.5 -30.5q22 0 33.5 15.5t14 32t2.5 42.5q0 84 -44 186l-44 96q-17 40 -25 60.5t-17 59t-9 73.5q0 127 88 127q42 0 62.5 -33.5t21.5 -123.5h-37q-3 68 -13.5 94
t-35.5 26q-47 0 -47 -87q0 -59 50 -179l29 -62q60 -134 60 -238q0 -59 -25 -91.5t-64 -32.5z" />
    <glyph glyph-name="scaron" unicode="&#x161;" horiz-adv-x="200" 
d="M83 586l-46 132h35l28 -84l28 84h34l-49 -132h-30zM105 -5q-50 0 -66 34.5t-16 105.5h39q1 -59 9 -82.5t31 -23.5q34 0 34 54q0 51 -22 106l-58 146q-28 69 -28 111q0 37 19 62t52 25q40 0 56 -30.5t18 -97.5h-35q-3 54 -12.5 74.5t-26.5 20.5q-32 0 -32 -56
q0 -28 27 -96l46 -115q35 -88 35 -150q0 -37 -18 -62.5t-52 -25.5z" />
    <glyph glyph-name="Tcommaaccent" unicode="&#x162;" horiz-adv-x="220" 
d="M87 -145l1 118h43l-13 -118h-31zM91 0v675h-79v38h196v-38h-78v-675h-39z" />
    <glyph glyph-name="tcommaaccent" unicode="&#x163;" horiz-adv-x="142" 
d="M55 -145l1 118h43l-13 -118h-31zM90 -3q-46 0 -46 47v448h-31v34h31v106h39v-106h50v-34h-50v-438q0 -19 16 -19q13 0 25 4v-36q-14 -6 -34 -6z" />
    <glyph glyph-name="Tcaron" unicode="&#x164;" horiz-adv-x="220" 
d="M94 771l-46 132h35l28 -84l28 84h34l-49 -132h-30zM91 0v675h-79v38h196v-38h-78v-675h-39z" />
    <glyph glyph-name="tcaron" unicode="&#x165;" horiz-adv-x="142" 
d="M120 595l1 118h44l-14 -118h-31zM90 -3q-46 0 -46 47v448h-31v34h31v106h39v-106h50v-34h-50v-438q0 -19 16 -19q13 0 25 4v-36q-14 -6 -34 -6z" />
    <glyph glyph-name="Tbar" unicode="&#x166;" horiz-adv-x="220" 
d="M55 329v34h36v312h-79v38h196v-38h-78v-312h36v-34h-36v-329h-39v329h-36z" />
    <glyph glyph-name="tbar" unicode="&#x167;" horiz-adv-x="142" 
d="M23 280v34h21v178h-31v34h31v106h39v-106h50v-34h-50v-178h34v-34h-34v-226q0 -19 16 -19q13 0 25 4v-36q-14 -6 -34 -6q-46 0 -46 47v236h-21z" />
    <glyph glyph-name="Utilde" unicode="&#x168;" horiz-adv-x="249" 
d="M124 -9q-45 0 -67.5 26.5t-22.5 72.5v623h40v-618q0 -70 51 -70q22 0 34.5 13t15 27t2.5 35v613h38v-612q0 -110 -91 -110zM76 785l-25 3q5 62 43 62q12 0 32 -10t28 -10q13 0 16 24l27 -4q-1 -26 -12.5 -42.5t-29.5 -16.5q-13 0 -33.5 10t-26.5 10q-8 0 -12 -5t-7 -21z
" />
    <glyph glyph-name="utilde" unicode="&#x169;" horiz-adv-x="234" 
d="M92 -8q-24 0 -41.5 15t-17.5 46v473h39v-459q0 -40 35 -40q50 0 50 67v432h39v-526h-38v31h-1q-19 -39 -65 -39zM69 600l-25 3q5 62 43 62q12 0 32 -10t28 -10q13 0 16 24l27 -4q-1 -26 -12.5 -42.5t-29.5 -16.5q-13 0 -33.5 10t-26.5 10q-8 0 -12 -5t-7 -21z" />
    <glyph glyph-name="Umacron" unicode="&#x16a;" horiz-adv-x="249" 
d="M124 -9q-45 0 -67.5 26.5t-22.5 72.5v623h40v-618q0 -70 51 -70q22 0 34.5 13t15 27t2.5 35v613h38v-612q0 -110 -91 -110zM61 803v40h126v-40h-126z" />
    <glyph glyph-name="umacron" unicode="&#x16b;" horiz-adv-x="234" 
d="M92 -8q-24 0 -41.5 15t-17.5 46v473h39v-459q0 -40 35 -40q50 0 50 67v432h39v-526h-38v31h-1q-19 -39 -65 -39zM54 618v40h126v-40h-126z" />
    <glyph glyph-name="Ubreve" unicode="&#x16c;" horiz-adv-x="249" 
d="M124 -9q-45 0 -67.5 26.5t-22.5 72.5v623h40v-618q0 -70 51 -70q22 0 34.5 13t15 27t2.5 35v613h38v-612q0 -110 -91 -110zM124 772q-37 0 -58 26.5t-20 71.5h33q6 -67 48 -67q41 0 45 67h32q-1 -47 -23 -72.5t-57 -25.5z" />
    <glyph glyph-name="ubreve" unicode="&#x16d;" horiz-adv-x="234" 
d="M92 -8q-24 0 -41.5 15t-17.5 46v473h39v-459q0 -40 35 -40q50 0 50 67v432h39v-526h-38v31h-1q-19 -39 -65 -39zM116 587q-37 0 -58 26.5t-20 71.5h33q6 -67 48 -67q41 0 45 67h32q-1 -47 -23 -72.5t-57 -25.5z" />
    <glyph glyph-name="Uring" unicode="&#x16e;" horiz-adv-x="249" 
d="M125 768q-32 0 -49 19t-17 46q0 29 18 49.5t48 20.5q31 0 48 -18.5t17 -45.5q0 -31 -18.5 -51t-46.5 -20zM125 795q35 0 35 41q0 40 -35 40t-35 -42q0 -17 9.5 -28t25.5 -11zM124 -9q-45 0 -67.5 26.5t-22.5 72.5v623h40v-618q0 -70 51 -70q22 0 34.5 13t15 27t2.5 35
v613h38v-612q0 -110 -91 -110z" />
    <glyph glyph-name="uring" unicode="&#x16f;" horiz-adv-x="234" 
d="M117 583q-32 0 -49 19t-17 46q0 29 18 49.5t48 20.5q31 0 48 -18.5t17 -45.5q0 -31 -18.5 -51t-46.5 -20zM117 610q35 0 35 41q0 40 -35 40t-35 -42q0 -17 9.5 -28t25.5 -11zM92 -8q-24 0 -41.5 15t-17.5 46v473h39v-459q0 -40 35 -40q50 0 50 67v432h39v-526h-38v31h-1
q-19 -39 -65 -39z" />
    <glyph glyph-name="Uhungarumlaut" unicode="&#x170;" horiz-adv-x="249" 
d="M124 -9q-45 0 -67.5 26.5t-22.5 72.5v623h40v-618q0 -70 51 -70q22 0 34.5 13t15 27t2.5 35v613h38v-612q0 -110 -91 -110zM65 782l40 111h45l-51 -111h-34zM143 782l40 111h45l-51 -111h-34z" />
    <glyph glyph-name="uhungarumlaut" unicode="&#x171;" horiz-adv-x="234" 
d="M92 -8q-24 0 -41.5 15t-17.5 46v473h39v-459q0 -40 35 -40q50 0 50 67v432h39v-526h-38v31h-1q-19 -39 -65 -39zM51 597l40 111h45l-51 -111h-34zM129 597l40 111h45l-51 -111h-34z" />
    <glyph glyph-name="Uogonek" unicode="&#x172;" horiz-adv-x="249" 
d="M149 -146q-25 0 -43 17.5t-18 47.5q0 40 30 72q-84 4 -84 99v623h40v-618q0 -70 51 -70q22 0 34.5 13t15 27t2.5 35v613h38v-612q0 -96 -69 -108q-24 -23 -24 -63q0 -18 9.5 -29t24.5 -11q17 0 29 7l13 -29q-20 -14 -49 -14z" />
    <glyph glyph-name="uogonek" unicode="&#x173;" horiz-adv-x="234" 
d="M92 -8q-24 0 -41.5 15t-17.5 46v473h39v-459q0 -40 35 -40q50 0 50 67v432h39v-521l6 -3q-40 -27 -40 -75q0 -18 9.5 -29t24.5 -11q17 0 29 7l13 -29q-20 -14 -49 -14q-25 0 -43 17.5t-18 47.5q0 50 38 84h-8v31h-1q-19 -39 -65 -39z" />
    <glyph glyph-name="Wcircumflex" unicode="&#x174;" horiz-adv-x="364" 
d="M119 773l49 132h30l46 -132h-35l-28 84l-28 -84h-34zM91 -3l-71 716h42l47 -557h2l49 557h47l52 -557h2l44 557h39l-64 -716h-39l-57 581h-2l-52 -581h-39z" />
    <glyph glyph-name="wcircumflex" unicode="&#x175;" horiz-adv-x="319" 
d="M97 586l49 132h30l46 -132h-35l-28 84l-28 -84h-34zM73 -1l-57 527h42l34 -420h3l43 420h46l47 -420h3l30 420h39l-53 -527h-38l-49 448h-3l-49 -448h-38z" />
    <glyph glyph-name="Ycircumflex" unicode="&#x176;" horiz-adv-x="235" 
d="M99 0v326l-79 387h41l60 -315l57 315h37l-76 -390v-323h-40zM55 771l49 132h30l46 -132h-35l-28 84l-28 -84h-34z" />
    <glyph glyph-name="ycircumflex" unicode="&#x177;" horiz-adv-x="195" 
d="M37 -167q-8 0 -24 2l1 36q16 -2 20 -2q7 0 12.5 1t14.5 11.5t12 29.5l12 90l-73 525h39l50 -390h2l42 390h38l-71 -580q-7 -58 -23 -85.5t-52 -27.5zM35 586l49 132h30l46 -132h-35l-28 84l-28 -84h-34z" />
    <glyph glyph-name="Ydieresis" unicode="&#x178;" horiz-adv-x="235" 
d="M99 0v326l-79 387h41l60 -315l57 315h37l-76 -390v-323h-40zM60 776v118h36v-118h-36zM139 776v118h36v-118h-36z" />
    <glyph glyph-name="Zacute" unicode="&#x179;" horiz-adv-x="185" 
d="M88 771l47 132h49l-66 -132h-30zM20 0v41l102 633h-96v39h140v-25l-104 -650h104v-38h-146z" />
    <glyph glyph-name="zacute" unicode="&#x17a;" horiz-adv-x="168" 
d="M64 586l47 132h49l-66 -132h-30zM18 0v28l94 466h-92v32h129v-35l-92 -459h94v-32h-133z" />
    <glyph glyph-name="Zdotaccent" unicode="&#x17b;" horiz-adv-x="185" 
d="M20 0v41l102 633h-96v39h140v-25l-104 -650h104v-38h-146zM75 776v118h36v-118h-36z" />
    <glyph glyph-name="zdotaccent" unicode="&#x17c;" horiz-adv-x="168" 
d="M18 0v28l94 466h-92v32h129v-35l-92 -459h94v-32h-133zM66 591v118h36v-118h-36z" />
    <glyph glyph-name="Zcaron" unicode="&#x17d;" horiz-adv-x="185" 
d="M77 771l-46 132h35l28 -84l28 84h34l-49 -132h-30zM20 0v41l102 633h-96v39h140v-25l-104 -650h104v-38h-146z" />
    <glyph glyph-name="zcaron" unicode="&#x17e;" horiz-adv-x="168" 
d="M68 586l-46 132h35l28 -84l28 84h34l-49 -132h-30zM18 0v28l94 466h-92v32h129v-35l-92 -459h94v-32h-133z" />
    <glyph glyph-name="florin" unicode="&#x192;" horiz-adv-x="162" 
d="M23 -149q-14 0 -26 3l1 35h16q16 0 17 25l39 576h-25l2 36h25l10 129q2 26 17.5 43.5t43.5 17.5q16 0 25 -2l-2 -34q-8 1 -23 1q-21 0 -22 -24l-10 -131h31l-2 -36h-31l-40 -583q-1 -21 -12 -38.5t-34 -17.5z" />
    <glyph glyph-name="Aringacute" unicode="&#x1fa;" horiz-adv-x="285" 
d="M22 0l91 714h60l90 -714h-42l-30 247h-100l-30 -247h-39zM96 285h90l-44 377h-2zM143 768q-32 0 -49 19t-17 46q0 20 15 48l41 77h49l-40 -55q32 0 49 -18.5t17 -45.5q0 -31 -18.5 -51t-46.5 -20zM143 795q35 0 35 41q0 40 -35 40t-35 -42q0 -17 9.5 -28t25.5 -11z" />
    <glyph glyph-name="aringacute" unicode="&#x1fb;" horiz-adv-x="212" 
d="M95 -8q-72 0 -72 164q0 167 107 172h8v135q0 37 -34 37q-37 0 -37 -40v-84h-37v82q0 30 18.5 53t59.5 23q34 0 51 -22t17 -47v-337q0 -66 2 -128h-32q-2 14 -2 37h-2q-3 -20 -16.5 -32.5t-30.5 -12.5zM104 28q16 0 25 21.5t9 46.5v197h-14q-27 0 -45 -31.5t-18 -101.5
q0 -132 43 -132zM106 583q-32 0 -49 19t-17 46q0 20 15 48l41 77h49l-40 -55q32 0 49 -18.5t17 -45.5q0 -31 -18.5 -51t-46.5 -20zM106 610q35 0 35 41q0 40 -35 40t-35 -42q0 -17 9.5 -28t25.5 -11z" />
    <glyph glyph-name="AEacute" unicode="&#x1fc;" horiz-adv-x="340" 
d="M184 771l47 132h49l-66 -132h-30zM14 0l129 713h173v-38h-103v-278h86v-38h-86v-322h105v-37h-144v273h-73l-48 -273h-39zM107 306h67v369h-2z" />
    <glyph glyph-name="aeacute" unicode="&#x1fd;" horiz-adv-x="322" 
d="M138 586l47 132h49l-66 -132h-30zM95 -8q-72 0 -72 164q0 167 107 172h8v135q0 37 -34 37q-37 0 -37 -40v-84h-37v82q0 30 18.5 53t59.5 23q33 0 53 -25q22 25 60 25q39 0 57 -27t18 -69v-181h-118v-138q0 -45 12.5 -65.5t51.5 -20.5q16 0 45 9l11 -34q-28 -14 -66 -14
q-56 0 -78 42q-18 -44 -59 -44zM104 28q34 0 34 59v206h-14q-27 0 -45 -31.5t-18 -101.5q0 -132 43 -132zM178 293h77v146q0 57 -38 57q-39 0 -39 -56v-147z" />
    <glyph glyph-name="Oslashacute" unicode="&#x1fe;" horiz-adv-x="251" 
d="M70 -33l-34 6l11 57q-17 26 -17 72v520q0 49 27.5 74.5t70.5 25.5q30 0 52 -13l9 43l33 -5l-13 -66q12 -24 12 -51v-529q0 -107 -98 -107q-24 0 -46 9zM71 630v-478l100 511q-14 22 -45 22q-29 0 -42 -16.5t-13 -38.5zM126 30q54 0 54 67v435l-95 -484q15 -18 41 -18z
M99 771l47 132h49l-66 -132h-30z" />
    <glyph glyph-name="oslashacute" unicode="&#x1ff;" horiz-adv-x="228" 
d="M68 -32l-28 5l10 47q-20 26 -20 73v349q0 44 24.5 68t61.5 24q27 0 47 -13l7 31l27 -4l-11 -50q12 -22 12 -50v-356q0 -98 -87 -98q-21 0 -36 6zM71 448v-337l81 361q-11 25 -38 25q-43 0 -43 -49zM114 31q43 0 43 55v282l-72 -325q10 -12 29 -12zM84 586l47 132h49
l-66 -132h-30z" />
    <glyph glyph-name="Scommaaccent" unicode="&#x218;" horiz-adv-x="226" 
d="M90 -145l1 118h43l-13 -118h-31zM115 -6q-48 0 -69.5 38t-21.5 125h40q0 -67 9.5 -97.5t41.5 -30.5q22 0 33.5 15.5t14 32t2.5 42.5q0 84 -44 186l-44 96q-17 40 -25 60.5t-17 59t-9 73.5q0 127 88 127q42 0 62.5 -33.5t21.5 -123.5h-37q-3 68 -13.5 94t-35.5 26
q-47 0 -47 -87q0 -59 50 -179l29 -62q60 -134 60 -238q0 -59 -25 -91.5t-64 -32.5z" />
    <glyph glyph-name="scommaaccent" unicode="&#x219;" horiz-adv-x="200" 
d="M77 -145l1 118h43l-13 -118h-31zM105 -5q-50 0 -66 34.5t-16 105.5h39q1 -59 9 -82.5t31 -23.5q34 0 34 54q0 51 -22 106l-58 146q-28 69 -28 111q0 37 19 62t52 25q40 0 56 -30.5t18 -97.5h-35q-3 54 -12.5 74.5t-26.5 20.5q-32 0 -32 -56q0 -28 27 -96l46 -115
q35 -88 35 -150q0 -37 -18 -62.5t-52 -25.5z" />
    <glyph glyph-name="uni021A" unicode="&#x21a;" horiz-adv-x="220" 
d="M87 -145l1 118h43l-13 -118h-31zM91 0v675h-79v38h196v-38h-78v-675h-39z" />
    <glyph glyph-name="uni021B" unicode="&#x21b;" horiz-adv-x="142" 
d="M55 -145l1 118h43l-13 -118h-31zM90 -3q-46 0 -46 47v448h-31v34h31v106h39v-106h50v-34h-50v-438q0 -19 16 -19q13 0 25 4v-36q-14 -6 -34 -6z" />
    <glyph glyph-name="dotlessj" unicode="&#x237;" horiz-adv-x="115" 
d="M31 -164q-15 0 -27 3v35h16q18 0 18 22v630h38v-637q0 -21 -10.5 -37t-34.5 -16z" />
    <glyph glyph-name="circumflex" unicode="&#x2c6;" horiz-adv-x="185" 
d="M30 586l49 132h30l46 -132h-35l-28 84l-28 -84h-34z" />
    <glyph glyph-name="caron" unicode="&#x2c7;" horiz-adv-x="185" 
d="M76 586l-46 132h35l28 -84l28 84h34l-49 -132h-30z" />
    <glyph glyph-name="breve" unicode="&#x2d8;" horiz-adv-x="217" 
d="M108 587q-37 0 -58 26.5t-20 71.5h33q6 -67 48 -67q41 0 45 67h32q-1 -47 -23 -72.5t-57 -25.5z" />
    <glyph glyph-name="dotaccent" unicode="&#x2d9;" horiz-adv-x="125" 
d="M44 591v118h36v-118h-36z" />
    <glyph glyph-name="ring" unicode="&#x2da;" horiz-adv-x="191" 
d="M96 583q-32 0 -49 19t-17 46q0 29 18 49.5t48 20.5q31 0 48 -18.5t17 -45.5q0 -31 -18.5 -51t-46.5 -20zM96 610q35 0 35 41q0 40 -35 40t-35 -42q0 -17 9.5 -28t25.5 -11z" />
    <glyph glyph-name="ogonek" unicode="&#x2db;" horiz-adv-x="133" 
d="M77 -149q-25 0 -43 17.5t-18 47.5q0 59 55 97l19 -11q-40 -27 -40 -75q0 -18 9.5 -29t24.5 -11q17 0 29 7l13 -29q-20 -14 -49 -14z" />
    <glyph glyph-name="tilde" unicode="&#x2dc;" horiz-adv-x="236" 
d="M71 600l-25 3q5 62 43 62q12 0 32 -10t28 -10q13 0 16 24l27 -4q-1 -26 -12.5 -42.5t-29.5 -16.5q-13 0 -33.5 10t-26.5 10q-8 0 -12 -5t-7 -21z" />
    <glyph glyph-name="hungarumlaut" unicode="&#x2dd;" horiz-adv-x="265" 
d="M50 597l40 111h45l-51 -111h-34zM128 597l40 111h45l-51 -111h-34z" />
    <glyph glyph-name="pi" unicode="&#x3c0;" horiz-adv-x="238" 
d="M201 -2q-27 0 -38 12.5t-11 44.5v435h-66q-6 -316 -17 -490h-38q9 148 18 490h-33l4 36h205v-36h-34v-431q0 -17 4 -22t13 -5q3 0 15 2v-32q-13 -4 -22 -4z" />
    <glyph glyph-name="Wgrave" unicode="&#x1e80;" horiz-adv-x="364" 
d="M91 -3l-71 716h42l47 -557h2l49 557h47l52 -557h2l44 557h39l-64 -716h-39l-57 581h-2l-52 -581h-39zM166 773l-66 132h49l47 -132h-30z" />
    <glyph glyph-name="wgrave" unicode="&#x1e81;" horiz-adv-x="319" 
d="M73 -1l-57 527h42l34 -420h3l43 420h46l47 -420h3l30 420h39l-53 -527h-38l-49 448h-3l-49 -448h-38zM147 586l-66 132h49l47 -132h-30z" />
    <glyph glyph-name="Wacute" unicode="&#x1e82;" horiz-adv-x="364" 
d="M166 773l47 132h49l-66 -132h-30zM91 -3l-71 716h42l47 -557h2l49 557h47l52 -557h2l44 557h39l-64 -716h-39l-57 581h-2l-52 -581h-39z" />
    <glyph glyph-name="wacute" unicode="&#x1e83;" horiz-adv-x="319" 
d="M148 586l47 132h49l-66 -132h-30zM73 -1l-57 527h42l34 -420h3l43 420h46l47 -420h3l30 420h39l-53 -527h-38l-49 448h-3l-49 -448h-38z" />
    <glyph glyph-name="Wdieresis" unicode="&#x1e84;" horiz-adv-x="364" 
d="M124 778v118h36v-118h-36zM203 778v118h36v-118h-36zM91 -3l-71 716h42l47 -557h2l49 557h47l52 -557h2l44 557h39l-64 -716h-39l-57 581h-2l-52 -581h-39z" />
    <glyph glyph-name="wdieresis" unicode="&#x1e85;" horiz-adv-x="319" 
d="M102 591v118h36v-118h-36zM181 591v118h36v-118h-36zM73 -1l-57 527h42l34 -420h3l43 420h46l47 -420h3l30 420h39l-53 -527h-38l-49 448h-3l-49 -448h-38z" />
    <glyph glyph-name="Ygrave" unicode="&#x1ef2;" horiz-adv-x="235" 
d="M99 0v326l-79 387h41l60 -315l57 315h37l-76 -390v-323h-40zM113 771l-66 132h49l47 -132h-30z" />
    <glyph glyph-name="ygrave" unicode="&#x1ef3;" horiz-adv-x="195" 
d="M37 -167q-8 0 -24 2l1 36q16 -2 20 -2q7 0 12.5 1t14.5 11.5t12 29.5l12 90l-73 525h39l50 -390h2l42 390h38l-71 -580q-7 -58 -23 -85.5t-52 -27.5zM85 586l-66 132h49l47 -132h-30z" />
    <glyph glyph-name="endash" unicode="&#x2013;" horiz-adv-x="251" 
d="M0 284v39h251v-39h-251z" />
    <glyph glyph-name="emdash" unicode="&#x2014;" horiz-adv-x="407" 
d="M0 284v39h407v-39h-407z" />
    <glyph glyph-name="quoteleft" unicode="&#x2018;" horiz-adv-x="115" 
d="M38 547v83l16 86h23l-12 -81h10v-88h-37z" />
    <glyph glyph-name="quoteright" unicode="&#x2019;" horiz-adv-x="115" 
d="M38 546l12 81h-10v88h37v-83l-16 -86h-23z" />
    <glyph glyph-name="quotesinglbase" unicode="&#x201a;" horiz-adv-x="115" 
d="M38 -79l12 81h-10v88h37v-83l-16 -86h-23z" />
    <glyph glyph-name="quotedblleft" unicode="&#x201c;" horiz-adv-x="208" 
d="M38 547v83l16 86h23l-12 -81h10v-88h-37zM131 547v83l16 86h23l-12 -81h10v-88h-37z" />
    <glyph glyph-name="quotedblright" unicode="&#x201d;" horiz-adv-x="208" 
d="M38 546l12 81h-10v88h37v-83l-16 -86h-23zM131 546l12 81h-10v88h37v-83l-16 -86h-23z" />
    <glyph glyph-name="quotedblbase" unicode="&#x201e;" horiz-adv-x="208" 
d="M38 -79l12 81h-10v88h37v-83l-16 -86h-23zM131 -79l12 81h-10v88h37v-83l-16 -86h-23z" />
    <glyph glyph-name="dagger" unicode="&#x2020;" horiz-adv-x="213" 
d="M89 -74v588h-67v35h67v165h36v-165h66v-35h-66v-588h-36z" />
    <glyph glyph-name="daggerdbl" unicode="&#x2021;" horiz-adv-x="213" 
d="M89 -74v191h-67v36h67v361h-67v35h67v165h36v-165h66v-35h-66v-361h66v-36h-66v-191h-36z" />
    <glyph glyph-name="bullet" unicode="&#x2022;" horiz-adv-x="312" 
d="M157 222q-49 0 -84 35t-35 84t35 83t84 34q48 0 82.5 -34t34.5 -83t-34 -84t-83 -35z" />
    <glyph glyph-name="ellipsis" unicode="&#x2026;" horiz-adv-x="337" 
d="M38 0v90h37v-90h-37zM150 0v90h37v-90h-37zM262 0v90h37v-90h-37z" />
    <glyph glyph-name="perthousand" unicode="&#x2030;" horiz-adv-x="581" 
d="M478 -10q-33 0 -52 22t-19 62v166q0 41 19 66.5t52 25.5q34 0 52.5 -23t18.5 -63v-172q0 -40 -19 -62t-52 -22zM477 22q37 0 37 51v177q0 48 -37 48t-37 -48v-177q0 -50 37 -51zM103 385q-33 0 -52 22t-19 62v172q0 41 18.5 63.5t52.5 22.5t53 -23t19 -63v-172
q0 -39 -19.5 -61.5t-52.5 -22.5zM102 419q38 0 38 49v177q0 49 -38 49q-36 0 -36 -49v-177q0 -49 36 -49zM297 -10q-33 0 -52 22t-19 62v166q0 41 19 66.5t52 25.5q34 0 52.5 -23t18.5 -63v-172q0 -40 -19 -62t-52 -22zM296 22q37 0 37 51v177q0 48 -37 48t-37 -48v-177
q0 -50 37 -51zM88 0l193 723h33l-190 -723h-36z" />
    <glyph glyph-name="guilsinglleft" unicode="&#x2039;" horiz-adv-x="135" 
d="M84 166l-62 113l58 112l29 -16l-43 -96l47 -95z" />
    <glyph glyph-name="guilsinglright" unicode="&#x203a;" horiz-adv-x="135" 
d="M55 167l-29 16l43 96l-47 95l29 18l62 -113z" />
    <glyph glyph-name="fraction" unicode="&#x2044;" horiz-adv-x="64" 
d="M-67 0l162 713h31l-160 -713h-33z" />
    <glyph glyph-name="uni2070" unicode="&#x2070;" 
d="M78 373q-55 0 -55 61v289q0 27 16.5 42.5t41.5 15.5q24 0 39.5 -14.5t15.5 -40.5v-292q0 -61 -58 -61zM80 404q20 0 20 26v295q0 24 -20 24q-21 0 -21 -23v-295q0 -27 21 -27z" />
    <glyph glyph-name="uni2074" unicode="&#x2074;" 
d="M89 380v108h-71v29l62 264h34l-64 -262h39v91l31 31v-122h21v-31h-21v-108h-31z" />
    <glyph glyph-name="uni2075" unicode="&#x2075;" 
d="M80 372q-55 0 -55 76v39h34v-35q0 -47 20 -47t20 48v104q0 41 -19 41q-15 0 -23 -25l-28 1l6 204h95v-32h-65q0 -4 -2 -69t-2 -69q12 20 33 20q41 0 41 -58v-113q0 -39 -14 -62t-41 -23z" />
    <glyph glyph-name="uni2076" unicode="&#x2076;" 
d="M79 373q-54 0 -54 66v278q0 31 15.5 47.5t41.5 16.5q24 0 38 -16.5t14 -41.5v-49h-34v44q0 31 -20 31t-20 -32v-114q13 16 30 16q45 0 45 -51v-131q0 -29 -15 -46.5t-41 -17.5zM80 404q20 0 20 32v130q0 24 -19 24q-21 0 -21 -25v-132q0 -29 20 -29z" />
    <glyph glyph-name="uni2077" unicode="&#x2077;" 
d="M45 380q2 217 52 365h-69v33h104v-29q-50 -142 -53 -369h-34z" />
    <glyph glyph-name="uni2078" unicode="&#x2078;" 
d="M78 374q-26 0 -40.5 16t-14.5 45v104q0 31 20 46q-17 14 -17 47v90q0 29 15 44.5t40 15.5q23 0 38 -15t15 -42v-92q0 -33 -19 -47q21 -15 21 -44v-106q0 -31 -16 -46.5t-42 -15.5zM80 406q20 0 20 26v112q0 27 -20 27q-21 0 -21 -26v-112q0 -27 21 -27zM80 600
q20 0 20 28v97q0 24 -20 24t-20 -23v-97q0 -29 20 -29z" />
    <glyph glyph-name="uni2079" unicode="&#x2079;" 
d="M78 373q-25 0 -38.5 17t-13.5 46v48h34v-45q0 -34 19 -34q21 0 21 34v114q-13 -15 -31 -15q-44 0 -44 51v129q0 30 14.5 46.5t40.5 16.5q54 0 54 -65v-271q0 -72 -56 -72zM79 567q19 0 21 25v130q0 28 -21 28q-19 0 -19 -31v-128q0 -24 19 -24z" />
    <glyph glyph-name="uni207D" unicode="&#x207d;" horiz-adv-x="94" 
d="M67 243q-41 98 -41 252q0 149 41 250l21 -3q-12 -58 -16.5 -84.5t-8.5 -69t-4 -94.5q0 -107 29 -249z" />
    <glyph glyph-name="uni207E" unicode="&#x207e;" horiz-adv-x="94" 
d="M27 243l-21 2q29 142 29 249q0 52 -4 94.5t-8.5 69t-16.5 84.5l21 3q41 -101 41 -250q0 -154 -41 -252z" />
    <glyph glyph-name="uni2080" unicode="&#x2080;" 
d="M78 -140q-55 0 -55 61v289q0 27 16.5 42.5t41.5 15.5q24 0 39.5 -14.5t15.5 -40.5v-292q0 -61 -58 -61zM80 -109q20 0 20 26v295q0 24 -20 24q-21 0 -21 -23v-295q0 -27 21 -27z" />
    <glyph glyph-name="uni2081" unicode="&#x2081;" horiz-adv-x="151" 
d="M62 -133v360l-23 -9l-9 24l43 27h23v-402h-34z" />
    <glyph glyph-name="uni2082" unicode="&#x2082;" 
d="M26 -133v26l36 99q35 97 35 174v12q0 56 -19 56q-17 0 -17 -43v-32h-33v31q0 77 51 77q54 0 54 -92q0 -85 -42 -203l-27 -73h70v-32h-108z" />
    <glyph glyph-name="uni2083" unicode="&#x2083;" 
d="M79 -140q-33 0 -43.5 26.5t-10.5 71.5v13h35v-18q0 -61 19 -61q20 0 20 84q0 76 -30 76h-17v36h19q16 0 21 17.5t5 59.5q0 70 -19 70q-18 0 -18 -55v-21h-33v25q0 83 54 83q26 0 39 -27.5t13 -72.5q0 -79 -33 -94v-2q35 -15 35 -99q0 -112 -56 -112z" />
    <glyph glyph-name="uni2084" unicode="&#x2084;" 
d="M89 -133v108h-71v29l62 264h34l-64 -262h39v91l31 31v-122h21v-31h-21v-108h-31z" />
    <glyph glyph-name="uni2085" unicode="&#x2085;" 
d="M80 -141q-55 0 -55 76v39h34v-35q0 -47 20 -47t20 48v104q0 41 -19 41q-15 0 -23 -25l-28 1l6 204h95v-32h-65q0 -5 -2 -69t-2 -69q12 20 33 20q41 0 41 -58v-113q0 -39 -14 -62t-41 -23z" />
    <glyph glyph-name="uni2086" unicode="&#x2086;" 
d="M79 -140q-54 0 -54 66v278q0 31 15.5 47.5t41.5 16.5q24 0 38 -16.5t14 -41.5v-49h-34v44q0 31 -20 31t-20 -32v-114q13 16 30 16q45 0 45 -51v-131q0 -29 -15 -46.5t-41 -17.5zM80 -109q20 0 20 32v130q0 24 -19 24q-21 0 -21 -25v-132q0 -29 20 -29z" />
    <glyph glyph-name="uni2087" unicode="&#x2087;" 
d="M45 -133q2 217 52 365h-69v33h104v-29q-50 -142 -53 -369h-34z" />
    <glyph glyph-name="uni2088" unicode="&#x2088;" 
d="M78 -139q-26 0 -40.5 16t-14.5 45v104q0 31 20 46q-17 14 -17 47v90q0 29 15 44.5t40 15.5q23 0 38 -15t15 -42v-92q0 -33 -19 -47q21 -15 21 -44v-106q0 -31 -16 -46.5t-42 -15.5zM80 -107q20 0 20 26v112q0 27 -20 27q-21 0 -21 -26v-112q0 -27 21 -27zM80 87
q20 0 20 28v97q0 24 -20 24t-20 -23v-97q0 -29 20 -29z" />
    <glyph glyph-name="uni2089" unicode="&#x2089;" 
d="M78 -140q-25 0 -38.5 17t-13.5 46v48h34v-45q0 -34 19 -34q21 0 21 34v114q-13 -15 -31 -15q-44 0 -44 51v129q0 30 14.5 46.5t40.5 16.5q54 0 54 -65v-271q0 -72 -56 -72zM79 54q19 0 21 25v130q0 28 -21 28q-19 0 -19 -31v-128q0 -24 19 -24z" />
    <glyph glyph-name="uni208D" unicode="&#x208d;" horiz-adv-x="94" 
d="M67 -208q-41 98 -41 252q0 149 41 250l21 -3q-12 -58 -16.5 -84.5t-8.5 -69t-4 -94.5q0 -107 29 -249z" />
    <glyph glyph-name="uni208E" unicode="&#x208e;" horiz-adv-x="94" 
d="M27 -208l-21 2q29 142 29 249q0 52 -4 94.5t-8.5 69t-16.5 84.5l21 3q41 -101 41 -250q0 -154 -41 -252z" />
    <glyph glyph-name="uni20AA" unicode="&#x20aa;" horiz-adv-x="420" 
d="M26 0v705h138q64 0 92 -29t28 -119v-435h-66v441q0 49 -29 49h-89v-612h-74zM126 0v583h65v-489h89q30 0 30 48v563h84v-542q0 -91 -29 -127t-91 -36h-148z" />
    <glyph glyph-name="Euro" unicode="&#x20ac;" horiz-adv-x="263" 
d="M147 -6q-48 0 -72.5 25.5t-24.5 68.5v198h-30v36h30v78h-30v36h30v183q0 47 23.5 76t72.5 29q46 0 68.5 -27.5t22.5 -66.5v-140h-37v131q0 66 -54 66q-36 0 -46 -18.5t-10 -52.5v-180h81v-36h-81v-78h81v-36h-81v-187q0 -69 56 -69q54 0 54 70v128h37v-129q0 -47 -23 -76
t-67 -29z" />
    <glyph glyph-name="trademark" unicode="&#x2122;" horiz-adv-x="280" 
d="M128 383v330h37l25 -133l25 133h36v-330h-29v256l-21 -115h-24l-21 114v-255h-28zM46 383v303h-31v27h91v-27h-30v-303h-30z" />
    <glyph glyph-name="Omega" unicode="&#x2126;" horiz-adv-x="272" 
d="M32 0v37l52 -1v4q-45 118 -45 272v319q0 36 25.5 63.5t72.5 27.5q49 0 71 -26.5t22 -65.5v-318q0 -62 -13 -144.5t-29 -127.5v-4l52 1v-37h-95v20q21 59 32.5 146.5t11.5 160.5v294q0 64 -54 64q-55 0 -55 -64v-294q0 -170 47 -307v-20h-95z" />
    <glyph glyph-name="uni2153" unicode="&#x2153;" horiz-adv-x="358" 
d="M66 316v360l-23 -9l-9 24l43 27h23v-402h-34zM63 0l162 713h31l-160 -713h-33zM268 -7q-32 0 -43 26.5t-11 71.5v13h35v-18q0 -61 19 -61q20 0 20 84q0 76 -30 76h-17v36h19q16 0 21 17.5t5 59.5q0 70 -19 70q-18 0 -18 -55v-21h-33v25q0 83 54 83q26 0 39 -27.5
t13 -72.5q0 -79 -33 -94v-2q35 -15 35 -99q0 -112 -56 -112z" />
    <glyph glyph-name="uni2154" unicode="&#x2154;" horiz-adv-x="358" 
d="M3 316v26l36 99q35 97 35 174v12q0 56 -19 56q-17 0 -17 -43v-32h-33v31q0 77 51 77q54 0 54 -92q0 -85 -42 -203l-27 -73h70v-32h-108zM72 0l162 713h31l-160 -713h-33zM268 -7q-32 0 -43 26.5t-11 71.5v13h35v-18q0 -61 19 -61q20 0 20 84q0 76 -30 76h-17v36h19
q16 0 21 17.5t5 59.5q0 70 -19 70q-18 0 -18 -55v-21h-33v25q0 83 54 83q26 0 39 -27.5t13 -72.5q0 -79 -33 -94v-2q35 -15 35 -99q0 -112 -56 -112z" />
    <glyph glyph-name="uni2155" unicode="&#x2155;" horiz-adv-x="358" 
d="M66 316v360l-23 -9l-9 24l43 27h23v-402h-34zM269 -8q-55 0 -55 76v39h34v-35q0 -47 20 -47t20 48v104q0 41 -19 41q-15 0 -23 -25l-28 1l6 204h95v-32h-65q0 -4 -2 -68.5t-2 -69.5q12 20 33 20q41 0 41 -58v-113q0 -39 -14 -62t-41 -23zM63 0l162 713h31l-160 -713h-33z
" />
    <glyph glyph-name="uni2156" unicode="&#x2156;" horiz-adv-x="358" 
d="M3 316v26l36 99q35 97 35 174v12q0 56 -19 56q-17 0 -17 -43v-32h-33v31q0 77 51 77q54 0 54 -92q0 -85 -42 -203l-27 -73h70v-32h-108zM269 -8q-55 0 -55 76v39h34v-35q0 -47 20 -47t20 48v104q0 41 -19 41q-15 0 -23 -25l-28 1l6 204h95v-32h-65q0 -4 -2 -68.5
t-2 -69.5q12 20 33 20q41 0 41 -58v-113q0 -39 -14 -62t-41 -23zM66 0l162 713h31l-160 -713h-33z" />
    <glyph glyph-name="uni2157" unicode="&#x2157;" horiz-adv-x="358" 
d="M56 309q-32 0 -43 26.5t-11 71.5v13h35v-18q0 -61 19 -61q20 0 20 84q0 76 -30 76h-17v36h19q16 0 21 17.5t5 59.5q0 70 -19 70q-18 0 -18 -55v-21h-33v25q0 83 54 83q26 0 39 -27.5t13 -72.5q0 -79 -33 -94v-2q35 -15 35 -99q0 -112 -56 -112zM63 0l162 713h31
l-160 -713h-33zM269 -8q-55 0 -55 76v39h34v-35q0 -47 20 -47t20 48v104q0 41 -19 41q-15 0 -23 -25l-28 1l6 204h95v-32h-65q0 -4 -2 -68.5t-2 -69.5q12 20 33 20q41 0 41 -58v-113q0 -39 -14 -62t-41 -23z" />
    <glyph glyph-name="uni2158" unicode="&#x2158;" horiz-adv-x="358" 
d="M66 316v108h-71v29l62 264h34l-64 -262h39v91l31 31v-122h21v-31h-21v-108h-31zM269 -8q-55 0 -55 76v39h34v-35q0 -47 20 -47t20 48v104q0 41 -19 41q-15 0 -23 -25l-28 1l6 204h95v-32h-65q0 -4 -2 -68.5t-2 -69.5q12 20 33 20q41 0 41 -58v-113q0 -39 -14 -62t-41 -23
zM63 0l162 713h31l-160 -713h-33z" />
    <glyph glyph-name="uni2159" unicode="&#x2159;" horiz-adv-x="358" 
d="M66 316v360l-23 -9l-9 24l43 27h23v-402h-34zM268 -7q-54 0 -54 66v278q0 31 15.5 47.5t41.5 16.5q24 0 38 -16.5t14 -41.5v-49h-34v44q0 31 -20 31t-20 -32v-114q13 16 30 16q45 0 45 -51v-131q0 -29 -15 -46.5t-41 -17.5zM269 24q20 0 20 32v130q0 24 -19 24
q-21 0 -21 -25v-132q0 -29 20 -29zM63 0l162 713h31l-160 -713h-33z" />
    <glyph glyph-name="uni215A" unicode="&#x215a;" horiz-adv-x="358" 
d="M268 -7q-54 0 -54 66v278q0 31 15.5 47.5t41.5 16.5q24 0 38 -16.5t14 -41.5v-49h-34v44q0 31 -20 31t-20 -32v-114q13 16 30 16q45 0 45 -51v-131q0 -29 -15 -46.5t-41 -17.5zM269 24q20 0 20 32v130q0 24 -19 24q-21 0 -21 -25v-132q0 -29 20 -29zM57 308q-55 0 -55 76
v39h34v-35q0 -47 20 -47t20 48v104q0 41 -19 41q-15 0 -23 -25l-28 1l6 204h95v-32h-65q0 -4 -2 -69t-2 -69q12 20 33 20q41 0 41 -58v-113q0 -39 -14 -62t-41 -23zM63 0l162 713h31l-160 -713h-33z" />
    <glyph glyph-name="uni215B" unicode="&#x215b;" horiz-adv-x="358" 
d="M66 316v360l-23 -9l-9 24l43 27h23v-402h-34zM267 -6q-26 0 -40.5 16t-14.5 45v104q0 31 20 46q-17 14 -17 47v90q0 29 15 44.5t40 15.5q23 0 38 -15t15 -42v-92q0 -33 -19 -47q21 -15 21 -44v-106q0 -31 -16 -46.5t-42 -15.5zM269 26q20 0 20 26v112q0 27 -20 27
q-21 0 -21 -26v-112q0 -27 21 -27zM269 220q20 0 20 28v97q0 24 -20 24t-20 -23v-97q0 -29 20 -29zM63 0l162 713h31l-160 -713h-33z" />
    <glyph glyph-name="uni215C" unicode="&#x215c;" horiz-adv-x="358" 
d="M267 -6q-26 0 -40.5 16t-14.5 45v104q0 31 20 46q-17 14 -17 47v90q0 29 15 44.5t40 15.5q23 0 38 -15t15 -42v-92q0 -33 -19 -47q21 -15 21 -44v-106q0 -31 -16 -46.5t-42 -15.5zM269 26q20 0 20 26v112q0 27 -20 27q-21 0 -21 -26v-112q0 -27 21 -27zM269 220
q20 0 20 28v97q0 24 -20 24t-20 -23v-97q0 -29 20 -29zM56 309q-32 0 -43 26.5t-11 71.5v13h35v-18q0 -61 19 -61q20 0 20 84q0 76 -30 76h-17v36h19q16 0 21 17.5t5 59.5q0 70 -19 70q-18 0 -18 -55v-21h-33v25q0 83 54 83q26 0 39 -27.5t13 -72.5q0 -79 -33 -94v-2
q35 -15 35 -99q0 -112 -56 -112zM63 0l162 713h31l-160 -713h-33z" />
    <glyph glyph-name="uni215D" unicode="&#x215d;" horiz-adv-x="358" 
d="M267 -6q-26 0 -40.5 16t-14.5 45v104q0 31 20 46q-17 14 -17 47v90q0 29 15 44.5t40 15.5q23 0 38 -15t15 -42v-92q0 -33 -19 -47q21 -15 21 -44v-106q0 -31 -16 -46.5t-42 -15.5zM269 26q20 0 20 26v112q0 27 -20 27q-21 0 -21 -26v-112q0 -27 21 -27zM269 220
q20 0 20 28v97q0 24 -20 24t-20 -23v-97q0 -29 20 -29zM57 308q-55 0 -55 76v39h34v-35q0 -47 20 -47t20 48v104q0 41 -19 41q-15 0 -23 -25l-28 1l6 204h95v-32h-65q0 -4 -2 -69t-2 -69q12 20 33 20q41 0 41 -58v-113q0 -39 -14 -62t-41 -23zM63 0l162 713h31l-160 -713
h-33z" />
    <glyph glyph-name="uni215E" unicode="&#x215e;" horiz-adv-x="358" 
d="M267 -6q-26 0 -40.5 16t-14.5 45v104q0 31 20 46q-17 14 -17 47v90q0 29 15 44.5t40 15.5q23 0 38 -15t15 -42v-92q0 -33 -19 -47q21 -15 21 -44v-106q0 -31 -16 -46.5t-42 -15.5zM269 26q20 0 20 26v112q0 27 -20 27q-21 0 -21 -26v-112q0 -27 21 -27zM269 220
q20 0 20 28v97q0 24 -20 24t-20 -23v-97q0 -29 20 -29zM47 316q2 217 52 365h-69v33h104v-29q-50 -142 -53 -369h-34zM63 0l162 713h31l-160 -713h-33z" />
    <glyph glyph-name="arrowleft" unicode="&#x2190;" horiz-adv-x="302" 
d="M135 262l-96 98v4l96 98l23 -23l-60 -62h165v-31h-165l60 -61z" />
    <glyph glyph-name="arrowup" unicode="&#x2191;" horiz-adv-x="302" 
d="M136 250v165l-62 -60l-23 23l98 96h4l98 -96l-23 -23l-61 60v-165h-31z" />
    <glyph glyph-name="arrowright" unicode="&#x2192;" horiz-adv-x="302" 
d="M167 262l-23 23l60 61h-165v31h165l-60 62l23 23l96 -98v-4z" />
    <glyph glyph-name="arrowdown" unicode="&#x2193;" horiz-adv-x="302" 
d="M149 250l-98 96l23 23l62 -60v165h31v-165l61 60l23 -23l-98 -96h-4z" />
    <glyph glyph-name="uni2196" unicode="&#x2196;" horiz-adv-x="302" 
d="M220 272l-117 117l-1 -86h-33l1 137l3 3l137 1v-33h-85l117 -117z" />
    <glyph glyph-name="uni2197" unicode="&#x2197;" horiz-adv-x="302" 
d="M91 272l-22 22l117 117h-85v33l137 -1l3 -3l1 -137h-33l-1 86z" />
    <glyph glyph-name="uni2198" unicode="&#x2198;" horiz-adv-x="302" 
d="M101 272v33h85l-117 117l22 22l117 -117l1 86h33l-1 -137l-3 -3z" />
    <glyph glyph-name="uni2199" unicode="&#x2199;" horiz-adv-x="302" 
d="M210 272l-137 1l-3 3l-1 137h33l1 -86l117 117l22 -22l-117 -117h85v-33z" />
    <glyph glyph-name="partialdiff" unicode="&#x2202;" horiz-adv-x="228" 
d="M111 -6q-81 0 -81 99v349q0 45 25.5 68.5t66.5 23.5l-88 179h50l96 -206q18 -36 18 -72v-343q0 -98 -87 -98zM114 31q43 0 43 55v360q0 21 -10.5 36t-32.5 15q-43 0 -43 -49v-361q0 -21 10 -38.5t33 -17.5z" />
    <glyph glyph-name="Delta" unicode="&#x2206;" horiz-adv-x="287" 
d="M24 0v11l90 703h60l89 -703v-11h-239zM66 32h152l-75 630h-2z" />
    <glyph glyph-name="product" unicode="&#x220f;" horiz-adv-x="282" 
d="M53 -133v809h-43v37h262v-37h-43v-809h-40v809h-96v-809h-40z" />
    <glyph glyph-name="summation" unicode="&#x2211;" horiz-adv-x="180" 
d="M19 -133v27l92 407l-92 387v25h144v-39h-98l80 -355v-41l-82 -372h100v-39h-144z" />
    <glyph glyph-name="minus" unicode="&#x2212;" horiz-adv-x="240" 
d="M26 304v35h188v-35h-188z" />
    <glyph glyph-name="radical" unicode="&#x221a;" horiz-adv-x="252" 
d="M87 -2l-66 528h39l48 -423h1l89 611h39l-110 -716h-40z" />
    <glyph glyph-name="infinity" unicode="&#x221e;" horiz-adv-x="426" 
d="M317 222q-56 0 -105 66q-58 -66 -106 -66q-42 0 -68 28t-26 69q0 42 28 69.5t68 27.5q56 0 107 -65q58 62 107 62q42 0 67 -24t25 -65q0 -44 -27.5 -73t-69.5 -29zM104 256q36 0 90 64q-40 63 -86 63q-25 0 -42 -17t-17 -42q0 -28 15 -48t40 -20zM317 256q26 0 43.5 18.5
t17.5 45.5q0 61 -56 61q-33 0 -90 -63q45 -62 85 -62z" />
    <glyph glyph-name="integral" unicode="&#x222b;" horiz-adv-x="161" 
d="M19 -149q-14 0 -26 3l1 35h16q16 0 17 25l51 741q2 26 17.5 43.5t43.5 17.5q16 0 25 -2l-2 -34q-8 1 -23 1q-21 0 -22 -24l-52 -750q-1 -21 -12 -38.5t-34 -17.5z" />
    <glyph glyph-name="approxequal" unicode="&#x2248;" horiz-adv-x="240" 
d="M56 243l-26 3q5 64 46 64q13 0 46 -10.5t42 -10.5q16 0 19 25l27 -4q-1 -27 -12.5 -44t-31.5 -17q-16 0 -49 10.5t-39 10.5q-9 0 -14 -5.5t-8 -21.5zM56 335l-26 3q5 64 46 64q13 0 46 -10.5t42 -10.5q16 0 19 25l27 -4q-1 -27 -12.5 -44t-31.5 -17q-16 0 -49 10.5
t-39 10.5q-9 0 -14 -5.5t-8 -21.5z" />
    <glyph glyph-name="notequal" unicode="&#x2260;" horiz-adv-x="240" 
d="M113 176l-34 2l15 70h-68v35h76l12 57h-88v35h95l14 66l34 -2l-14 -64h59v-35h-66l-13 -57h79v-35h-86z" />
    <glyph glyph-name="lessequal" unicode="&#x2264;" horiz-adv-x="240" 
d="M188 238l-153 87l1 27l153 86l17 -30l-127 -70l127 -70zM26 156v35h188v-35h-188z" />
    <glyph glyph-name="greaterequal" unicode="&#x2265;" horiz-adv-x="240" 
d="M52 238l-18 30l127 70l-127 70l17 30l153 -86l1 -27zM26 156v35h188v-35h-188z" />
    <glyph glyph-name="blacksquare" unicode="&#x25a0;" horiz-adv-x="328" 
d="M38 0v713h251l1 -713h-252z" />
    <glyph glyph-name="whitesquare" unicode="&#x25a1;" horiz-adv-x="309" 
d="M38 0v712h233v-712h-233zM74 35h161v644h-161v-644z" />
    <glyph glyph-name="blacksmallsquare" unicode="&#x25aa;" horiz-adv-x="295" 
d="M38 0v526h219v-526h-219z" />
    <glyph glyph-name="triagup" unicode="&#x25b2;" horiz-adv-x="302" 
d="M28 235v6l118 243h6l122 -243v-6h-246z" />
    <glyph glyph-name="triagrt" unicode="&#x25ba;" horiz-adv-x="302" 
d="M40 236h-6v246h6l243 -122v-6z" />
    <glyph glyph-name="triagdn" unicode="&#x25bc;" horiz-adv-x="302" 
d="M150 235l-122 243v6h246v-6l-118 -243h-6z" />
    <glyph glyph-name="triaglf" unicode="&#x25c4;" horiz-adv-x="302" 
d="M268 236h-6l-243 118v6l243 122h6v-246z" />
    <glyph glyph-name="lozenge" unicode="&#x25ca;" horiz-adv-x="270" 
d="M113 -1l-81 342v14l81 358h41l84 -358v-12l-84 -344h-41zM136 48l61 299l-65 317l-59 -317z" />
    <glyph glyph-name="uni25E2" unicode="&#x25e2;" horiz-adv-x="302" 
d="M287 262l-270 34l-5 3l136 201h6l136 -233z" />
    <glyph glyph-name="uni25E3" unicode="&#x25e3;" horiz-adv-x="302" 
d="M15 262l-3 5l136 233h6l136 -201l-5 -3z" />
    <glyph glyph-name="uni25E4" unicode="&#x25e4;" horiz-adv-x="302" 
d="M154 262h-6l-136 233l3 5l270 -34l5 -3z" />
    <glyph glyph-name="uni25E5" unicode="&#x25e5;" horiz-adv-x="302" 
d="M154 262h-6l-136 201l5 3l270 34l3 -5z" />
    <glyph glyph-name="I.alt" unicode="&#xe131;" 
d="M14 0v37h46v639h-46v37h132v-37h-46v-639h46v-37h-132z" />
    <glyph glyph-name="I.alt" unicode="&#xe488;" 
d="M14 0v37h46v639h-46v37h132v-37h-46v-639h46v-37h-132z" />
    <glyph glyph-name="Igrave.alt" unicode="&#xe132;" 
d="M14 0v37h46v639h-46v37h132v-37h-46v-639h46v-37h-132zM72 771l-66 132h49l47 -132h-30z" />
    <glyph glyph-name="Iacute.alt" unicode="&#xe133;" 
d="M14 0v37h46v639h-46v37h132v-37h-46v-639h46v-37h-132zM66 771l47 132h49l-66 -132h-30z" />
    <glyph glyph-name="Icircumflex.alt" unicode="&#xe134;" 
d="M14 0v37h46v639h-46v37h132v-37h-46v-639h46v-37h-132zM18 771l49 132h30l46 -132h-35l-28 84l-28 -84h-34z" />
    <glyph glyph-name="Idieresis.alt" unicode="&#xe135;" 
d="M14 0v37h46v639h-46v37h132v-37h-46v-639h46v-37h-132zM23 776v118h36v-118h-36zM102 776v118h36v-118h-36z" />
    <glyph glyph-name="Itilde.alt" unicode="&#xe136;" 
d="M14 0v37h46v639h-46v37h132v-37h-46v-639h46v-37h-132zM32 785l-25 3q5 62 43 62q12 0 32 -10t28 -10q13 0 16 24l27 -4q-1 -26 -12.5 -42.5t-29.5 -16.5q-13 0 -33.5 10t-26.5 10q-8 0 -12 -5t-7 -21z" />
    <glyph glyph-name="Imacron.alt" unicode="&#xe138;" 
d="M14 0v37h46v639h-46v37h132v-37h-46v-639h46v-37h-132zM17 803v40h126v-40h-126z" />
    <glyph glyph-name="Ibreve.alt" unicode="&#xe139;" 
d="M14 0v37h46v639h-46v37h132v-37h-46v-639h46v-37h-132zM80 772q-37 0 -58 26.5t-20 71.5h33q6 -67 48 -67q41 0 45 67h32q-1 -47 -23 -72.5t-57 -25.5z" />
    <glyph glyph-name="Idotaccent.alt" unicode="&#xe13c;" 
d="M14 0v37h46v639h-46v37h132v-37h-46v-639h46v-37h-132zM62 776v118h36v-118h-36z" />
    <glyph glyph-name="Iogonek.alt" unicode="&#xe13e;" 
d="M14 0v37h46v639h-46v37h132v-37h-46v-639h46v-37h-12q-36 -26 -36 -73q0 -18 9.5 -29t24.5 -11q17 0 29 7l13 -29q-20 -14 -49 -14q-25 0 -43 17.5t-18 47.5q0 50 38 84h-88z" />
    <glyph glyph-name="a.school" unicode="&#xe151;" horiz-adv-x="233" 
d="M70 446v-364q0 -52 40 -52q46 0 46 70v330q0 68 -46 68q-40 0 -40 -52zM30 65v398q0 26 19.5 48.5t52.5 22.5q44 0 60 -37l3 29h30v-526h-36v37h-2q-17 -43 -64 -43q-33 0 -48 22t-15 49z" />
    <glyph glyph-name="zero.dnom" unicode="&#xe402;" 
d="M78 -7q-55 0 -55 61v289q0 27 16.5 42.5t41.5 15.5q24 0 39.5 -14.5t15.5 -40.5v-292q0 -61 -58 -61zM80 24q20 0 20 26v295q0 24 -20 24q-21 0 -21 -23v-295q0 -27 21 -27z" />
    <glyph glyph-name="one.dnom" unicode="&#xe403;" horiz-adv-x="151" 
d="M62 0v360l-23 -9l-9 24l43 27h23v-402h-34z" />
    <glyph glyph-name="two.dnom" unicode="&#xe404;" 
d="M26 0v26l36 99q35 97 35 174v12q0 56 -19 56q-17 0 -17 -43v-32h-33v31q0 77 51 77q54 0 54 -92q0 -85 -42 -203l-27 -73h70v-32h-108z" />
    <glyph glyph-name="three.dnom" unicode="&#xe405;" 
d="M79 -7q-33 0 -43.5 26.5t-10.5 71.5v13h35v-18q0 -61 19 -61q20 0 20 84q0 76 -30 76h-17v36h19q16 0 21 17.5t5 59.5q0 70 -19 70q-18 0 -18 -55v-21h-33v25q0 83 54 83q26 0 39 -27.5t13 -72.5q0 -79 -33 -94v-2q35 -15 35 -99q0 -112 -56 -112z" />
    <glyph glyph-name="four.dnom" unicode="&#xe406;" 
d="M89 0v108h-71v29l62 264h34l-64 -262h39v91l31 31v-122h21v-31h-21v-108h-31z" />
    <glyph glyph-name="five.dnom" unicode="&#xe407;" 
d="M80 -8q-55 0 -55 76v39h34v-35q0 -47 20 -47t20 48v104q0 41 -19 41q-15 0 -23 -25l-28 1l6 204h95v-32h-65q0 -4 -2 -68.5t-2 -69.5q12 20 33 20q41 0 41 -58v-113q0 -39 -14 -62t-41 -23z" />
    <glyph glyph-name="six.dnom" unicode="&#xe408;" 
d="M79 -7q-54 0 -54 66v278q0 31 15.5 47.5t41.5 16.5q24 0 38 -16.5t14 -41.5v-49h-34v44q0 31 -20 31t-20 -32v-114q13 16 30 16q45 0 45 -51v-131q0 -29 -15 -46.5t-41 -17.5zM80 24q20 0 20 32v130q0 24 -19 24q-21 0 -21 -25v-132q0 -29 20 -29z" />
    <glyph glyph-name="seven.dnom" unicode="&#xe409;" 
d="M45 0q2 217 52 365h-69v33h104v-29q-50 -142 -53 -369h-34z" />
    <glyph glyph-name="eight.dnom" unicode="&#xe40a;" 
d="M78 -6q-26 0 -40.5 16t-14.5 45v104q0 31 20 46q-17 14 -17 47v90q0 29 15 44.5t40 15.5q23 0 38 -15t15 -42v-92q0 -33 -19 -47q21 -15 21 -44v-106q0 -31 -16 -46.5t-42 -15.5zM80 26q20 0 20 26v112q0 27 -20 27q-21 0 -21 -26v-112q0 -27 21 -27zM80 220q20 0 20 28
v97q0 24 -20 24t-20 -23v-97q0 -29 20 -29z" />
    <glyph glyph-name="nine.dnom" unicode="&#xe40b;" 
d="M78 -7q-25 0 -38.5 17t-13.5 46v48h34v-45q0 -34 19 -34q21 0 21 34v114q-13 -15 -31 -15q-44 0 -44 51v129q0 30 14.5 46.5t40.5 16.5q54 0 54 -65v-271q0 -72 -56 -72zM79 187q19 0 21 25v130q0 28 -21 28q-19 0 -19 -31v-128q0 -24 19 -24z" />
    <glyph glyph-name="comma.dnom" unicode="&#xe40d;" horiz-adv-x="90" 
d="M29 -68l10 68h-11v74h34v-70l-12 -72h-21z" />
    <glyph glyph-name="period.dnom" unicode="&#xe40e;" horiz-adv-x="90" 
d="M28 0v74h34v-74h-34z" />
    <glyph glyph-name="parenleft.dnom" unicode="&#xe40f;" horiz-adv-x="94" 
d="M67 -75q-41 98 -41 252q0 149 41 250l21 -3q-12 -58 -16.5 -84.5t-8.5 -69t-4 -94.5q0 -107 29 -249z" />
    <glyph glyph-name="parenright.dnom" unicode="&#xe410;" horiz-adv-x="94" 
d="M27 -75l-21 2q29 142 29 249q0 52 -4 94.5t-8.5 69t-16.5 84.5l21 3q41 -101 41 -250q0 -154 -41 -252z" />
    <glyph glyph-name="caronSlovak" unicode="&#xe413;" horiz-adv-x="132" 
d="M44 595l1 118h44l-14 -118h-31z" />
    <glyph glyph-name="commaaccent" unicode="&#xe414;" horiz-adv-x="133" 
d="M44 -145l1 118h43l-13 -118h-31z" />
    <glyph glyph-name="commaaccent" unicode="&#xf6c3;" horiz-adv-x="133" 
d="M44 -145l1 118h43l-13 -118h-31z" />
    <glyph glyph-name="zero.numr" unicode="&#xe416;" 
d="M78 311q-55 0 -55 61v289q0 27 16.5 42.5t41.5 15.5q24 0 39.5 -14.5t15.5 -40.5v-292q0 -61 -58 -61zM80 342q20 0 20 26v295q0 24 -20 24q-21 0 -21 -23v-295q0 -27 21 -27z" />
    <glyph glyph-name="one.numr" unicode="&#xe417;" horiz-adv-x="151" 
d="M62 318v360l-23 -9l-9 24l43 27h23v-402h-34z" />
    <glyph glyph-name="two.numr" unicode="&#xe418;" 
d="M26 318v26l36 99q35 97 35 174v12q0 56 -19 56q-17 0 -17 -43v-32h-33v31q0 77 51 77q54 0 54 -92q0 -85 -42 -203l-27 -73h70v-32h-108z" />
    <glyph glyph-name="three.numr" unicode="&#xe419;" 
d="M79 311q-33 0 -43.5 26.5t-10.5 71.5v13h35v-18q0 -61 19 -61q20 0 20 84q0 76 -30 76h-17v36h19q16 0 21 17.5t5 59.5q0 70 -19 70q-18 0 -18 -55v-21h-33v25q0 83 54 83q26 0 39 -27.5t13 -72.5q0 -79 -33 -94v-2q35 -15 35 -99q0 -112 -56 -112z" />
    <glyph glyph-name="four.numr" unicode="&#xe41a;" 
d="M89 318v108h-71v29l62 264h34l-64 -262h39v91l31 31v-122h21v-31h-21v-108h-31z" />
    <glyph glyph-name="five.numr" unicode="&#xe41b;" 
d="M80 310q-55 0 -55 76v39h34v-35q0 -47 20 -47t20 48v104q0 41 -19 41q-15 0 -23 -25l-28 1l6 204h95v-32h-65q0 -4 -2 -69t-2 -69q12 20 33 20q41 0 41 -58v-113q0 -39 -14 -62t-41 -23z" />
    <glyph glyph-name="six.numr" unicode="&#xe41c;" 
d="M79 311q-54 0 -54 66v278q0 31 15.5 47.5t41.5 16.5q24 0 38 -16.5t14 -41.5v-49h-34v44q0 31 -20 31t-20 -32v-114q13 16 30 16q45 0 45 -51v-131q0 -29 -15 -46.5t-41 -17.5zM80 342q20 0 20 32v130q0 24 -19 24q-21 0 -21 -25v-132q0 -29 20 -29z" />
    <glyph glyph-name="seven.numr" unicode="&#xe41d;" 
d="M45 318q2 217 52 365h-69v33h104v-29q-50 -142 -53 -369h-34z" />
    <glyph glyph-name="eight.numr" unicode="&#xe41e;" 
d="M78 312q-26 0 -40.5 16t-14.5 45v104q0 31 20 46q-17 14 -17 47v90q0 29 15 44.5t40 15.5q23 0 38 -15t15 -42v-92q0 -33 -19 -47q21 -15 21 -44v-106q0 -31 -16 -46.5t-42 -15.5zM80 344q20 0 20 26v112q0 27 -20 27q-21 0 -21 -26v-112q0 -27 21 -27zM80 538
q20 0 20 28v97q0 24 -20 24t-20 -23v-97q0 -29 20 -29z" />
    <glyph glyph-name="nine.numr" unicode="&#xe41f;" 
d="M78 311q-25 0 -38.5 17t-13.5 46v48h34v-45q0 -34 19 -34q21 0 21 34v114q-13 -15 -31 -15q-44 0 -44 51v129q0 30 14.5 46.5t40.5 16.5q54 0 54 -65v-271q0 -72 -56 -72zM79 505q19 0 21 25v130q0 28 -21 28q-19 0 -19 -31v-128q0 -24 19 -24z" />
    <glyph glyph-name="comma.numr" unicode="&#xe421;" horiz-adv-x="90" 
d="M29 250l10 68h-11v74h34v-70l-12 -72h-21z" />
    <glyph glyph-name="period.numr" unicode="&#xe422;" horiz-adv-x="90" 
d="M28 318v74h34v-74h-34z" />
    <glyph glyph-name="parenleft.numr" unicode="&#xe423;" horiz-adv-x="94" 
d="M67 243q-41 98 -41 252q0 149 41 250l21 -3q-12 -58 -16.5 -84.5t-8.5 -69t-4 -94.5q0 -107 29 -249z" />
    <glyph glyph-name="parenright.numr" unicode="&#xe424;" horiz-adv-x="94" 
d="M27 243l-21 2q29 142 29 249q0 52 -4 94.5t-8.5 69t-16.5 84.5l21 3q41 -101 41 -250q0 -154 -41 -252z" />
    <glyph glyph-name="numbersign.LP" unicode="&#xe533;" horiz-adv-x="240" 
d="M33 -2l12 202h-44l2 32h45l18 252h-46l3 33h44l17 200h35l-16 -200h65l15 200h36l-15 -200h44l-2 -33h-43l-18 -252h43l-1 -32h-44l-14 -202h-36l14 202h-66l-12 -202h-36zM84 232h66l17 252h-65z" />
    <glyph glyph-name="zero.LT" unicode="&#xe53f;" horiz-adv-x="240" 
d="M117 -6q-84 0 -84 101v534q0 45 25.5 69.5t64.5 24.5q37 0 61 -22.5t24 -65.5v-541q0 -51 -24.5 -75.5t-66.5 -24.5zM121 32q44 0 44 56v545q0 21 -10.5 36.5t-33.5 15.5q-45 0 -45 -50v-546q0 -21 10.5 -39t34.5 -18z" />
    <glyph glyph-name="one.LT" unicode="&#xe541;" horiz-adv-x="240" 
d="M99 0v660l-32 -16l-9 30l54 39h28v-713h-41z" />
    <glyph glyph-name="two.LT" unicode="&#xe542;" horiz-adv-x="240" 
d="M31 0v31l51 148q71 205 71 364v18q0 124 -40 124q-35 0 -35 -93v-53h-41v52q0 132 78 132q82 0 82 -164q0 -109 -19.5 -197t-57.5 -200l-42 -124v-1h119v-37h-166z" />
    <glyph glyph-name="three.LT" unicode="&#xe543;" horiz-adv-x="240" 
d="M120 -6q-28 0 -45.5 14.5t-25.5 43t-10.5 55.5t-2.5 68v12h44v-17q0 -31 0.5 -46t4 -40.5t12.5 -37.5t23 -12q24 0 32 40.5t8 126.5q0 149 -57 149h-24v41h27q30 0 40.5 39t10.5 118q0 78 -9 107.5t-31 29.5q-13 0 -21 -10t-11 -32t-3.5 -35.5t-0.5 -41.5v-27h-41v42
q0 142 81 142q79 0 79 -178q0 -143 -51 -169v-2q56 -25 56 -183q0 -197 -85 -197z" />
    <glyph glyph-name="four.LT" unicode="&#xe544;" horiz-adv-x="240" 
d="M140 0v202h-117v35l109 476h40l-111 -475h79v186l39 43v-229h38v-36h-38v-202h-39z" />
    <glyph glyph-name="five.LT" unicode="&#xe545;" horiz-adv-x="240" 
d="M120 -6q-84 0 -84 133v60h42v-50q0 -103 42 -103q43 0 43 106v180q0 47 -8 68t-32 21q-33 0 -45 -49h-33l11 353h142v-38h-105l-8 -268q15 39 56 39q26 0 45 -24t19 -75v-201q0 -152 -85 -152z" />
    <glyph glyph-name="six.LT" unicode="&#xe546;" horiz-adv-x="240" 
d="M117 -6q-40 0 -60.5 29t-20.5 78v518q0 51 24 77t62 26t59.5 -27t21.5 -64v-92h-40v80q0 66 -43 66t-43 -69v-215q21 29 53 29q74 0 74 -86v-245q0 -51 -23.5 -78t-63.5 -27zM120 31q43 0 43 66v245q0 51 -41 51q-23 0 -34 -16.5t-11 -36.5v-249q0 -22 10 -41t33 -19z
" />
    <glyph glyph-name="seven.LT" unicode="&#xe547;" horiz-adv-x="240" 
d="M68 0q6 430 91 675h-118v38h158v-34q-83 -240 -92 -679h-39z" />
    <glyph glyph-name="eight.LT" unicode="&#xe548;" horiz-adv-x="240" 
d="M117 -4q-84 0 -84 101v199q0 53 34 77q-29 25 -29 85v171q0 45 24.5 69.5t61.5 24.5q36 0 58.5 -22.5t22.5 -65.5v-178q0 -58 -30 -82q33 -23 33 -73v-206q0 -51 -24.5 -75.5t-66.5 -24.5zM121 34q44 0 44 56v210q0 22 -10.5 39t-33.5 17q-24 0 -34.5 -16.5t-10.5 -37.5
v-211q0 -21 10.5 -39t34.5 -18zM122 392q42 0 42 59v182q0 21 -10.5 36.5t-31.5 15.5q-43 0 -43 -50v-183q0 -22 10 -41t33 -19z" />
    <glyph glyph-name="nine.LT" unicode="&#xe549;" horiz-adv-x="240" 
d="M118 -6q-39 0 -60 28t-21 74v91h40v-84q0 -71 43 -71t43 72v217q-21 -29 -53 -29q-74 0 -74 86v239q0 51 23.5 78t63.5 27t60.5 -29t20.5 -78v-504q0 -117 -86 -117zM118 329q23 0 34 16.5t11 36.5v243q0 22 -10 41t-33 19q-43 0 -43 -66v-239q0 -51 41 -51z" />
    <glyph glyph-name="apple" unicode="&#xf8ff;" horiz-adv-x="1300" 
d="M815 -221l-198 5l-24 -4l-8 9q48 12 52 14q61 17 71 72q9 65 18 264l-126 -3l2 14l125 6q7 105 14 265l49 28q-70 4 -228 8q-1 -36 -5 -100t-4 -67q-4 -72 -25 -131.5t-49 -96t-61.5 -61.5t-62 -35t-51.5 -10q-36 0 -100 18t-93 33l30 45q2 0 43.5 -16t87.5 -29t72 -12
q62 1 112.5 76.5t46.5 163.5q6 149 7 223q-13 0 -39 1t-40 1q-75 0 -136 -52.5t-61 -125.5q23 -49 99 -81q0 -6 -8 -23t-13 -22q-85 35 -94 117q0 88 70.5 150.5t183.5 80.5h39q1 46 4 116.5t3 84.5l52 21q-245 10 -313 10q-76 0 -137.5 -51t-61.5 -124q25 -46 101 -76
q0 -5 -27 -45q-88 36 -95 116q0 84 73 144t169 82q65 0 135.5 -2.5t159 -6t145.5 -5.5q20 0 80 -2q6 0 26.5 -0.5t25.5 -0.5q16 -1 42 3q19 14 28 33l11 -3q-12 -26 -31 -41q-73 -35 -146 -35q-58 0 -180 4q-2 -14 -4 -82t-5 -81l-2 -60q11 0 208.5 -8.5t299.5 -8.5
q0 -1 38 -1.5t88 4t74 15.5l6 -7q-126 -52 -288 -52q-98 0 -190 4q-3 -24 -9 -121t-7 -105q0 -8 -1.5 -30t-1.5 -34l189 12h5l6 -3l-45 -63l-9 5l29 42q-55 -4 -176 -12q-11 -175 -17 -232q-2 -21 -25 -51.5t-46 -39.5l1 -1q38 6 113 7t100 3v-1q0 -13 -11 -27t-25 -15
q-14 -4 -55 -4z" />
    <glyph glyph-name="CR" horiz-adv-x="0" 
 />
    <glyph glyph-name="commatop" horiz-adv-x="133" 
d="M41 587v59l20 67h23l-13 -64h13v-62h-43z" />
    <glyph glyph-name="ringacute" horiz-adv-x="191" 
d="M96 583q-32 0 -49 19t-17 46q0 20 15 48l41 77h49l-40 -55q32 0 49 -18.5t17 -45.5q0 -31 -18.5 -51t-46.5 -20zM96 610q35 0 35 41q0 40 -35 40t-35 -42q0 -17 9.5 -28t25.5 -11z" />
    <glyph glyph-name="altogonek" horiz-adv-x="133" 
d="M73 -148q-26 0 -42.5 15t-16.5 44q0 33 15 60t35 41l17 -12q-32 -29 -32 -74q0 -40 30 -40q9 0 23 7l11 -29q-17 -12 -40 -12z" />
    <glyph glyph-name="IJ.alt" horiz-adv-x="380" 
d="M14 0v37h46v639h-46v37h132v-37h-46v-639h46v-37h-132zM256 -8q-46 0 -68 27.5t-22 71.5v129h42v-120q0 -72 50 -72q29 0 39 18t10 53v614h40v-623q0 -44 -24.5 -71t-66.5 -27z" />
    <glyph glyph-name="ogonekplus" horiz-adv-x="133" 
d="M77 -149q-25 0 -43 17.5t-18 47.5q0 55 59 96l13 -11q-38 -25 -38 -74q0 -18 9.5 -29t24.5 -11q17 0 29 7l13 -29q-20 -14 -49 -14z" />
    <glyph glyph-name="period.sup" horiz-adv-x="90" 
d="M28 380v74h34v-74h-34z" />
    <glyph glyph-name="comma.sup" horiz-adv-x="90" 
d="M29 312l10 68h-11v74h34v-70l-12 -72h-21z" />
    <glyph glyph-name="period.sub" horiz-adv-x="90" 
d="M28 -133v74h34v-74h-34z" />
    <glyph glyph-name="comma.sub" horiz-adv-x="90" 
d="M29 -201l10 68h-11v74h34v-70l-12 -72h-21z" />
    <glyph glyph-name="idotaccent" horiz-adv-x="115" 
d="M38 0v526h39v-526h-39zM38 618v97h39v-97h-39z" />
    </font>
</defs>
</svg>
