<?xml version="1.0" standalone="no"?>
<!DOCTYPE svg PUBLIC "-//W3C//DTD SVG 1.1//EN" "http://www.w3.org/Graphics/SVG/1.1/DTD/svg11.dtd" >
<svg xmlns="http://www.w3.org/2000/svg" xmlns:xlink="http://www.w3.org/1999/xlink" version="1.1">
<metadata>
Created by FontForge 20161013 at Fri Apr 11 05:21:24 2008
 By ,,,
Copyright (c) 2008 by Mrio Feliciano. All rights reserved.
</metadata>
<defs>
<font id="FlamaSemicondensed-Book" horiz-adv-x="540" >
  <font-face 
    font-family="Flama Semicondensed Book"
    font-weight="550"
    font-stretch="normal"
    units-per-em="1000"
    panose-1="2 0 0 0 0 0 0 0 0 0"
    ascent="800"
    descent="-200"
    x-height="509"
    cap-height="713"
    bbox="-155 -201 1060 995"
    underline-thickness="50"
    underline-position="-200"
    unicode-range="U+0020-F8FF"
  />
<missing-glyph horiz-adv-x="822" 
d="M235 118l-40 40l185 185l-185 185l40 40l185 -185l185 185l40 -40l-185 -185l185 -185l-40 -40l-185 185zM55 -18v716h712v-716h-712zM115 42h592v596h-592v-596z" />
    <glyph glyph-name="fi" unicode="fi" horiz-adv-x="526" 
d="M381 0v509h70v-509h-70zM381 596v107h70v-107h-70zM111 0v450h-78v58h78v87q0 62 33.5 96t91.5 34q32 0 59 -7v-57q-16 5 -50 5q-64 0 -64 -70v-88h102v-58h-102v-450h-70z" />
    <glyph glyph-name="fl" unicode="fl" horiz-adv-x="584" 
d="M486 -6q-51 0 -78.5 27.5t-27.5 78.5v613h70v-601q0 -57 59 -57q19 0 43 4v-55q-29 -10 -66 -10zM111 0v450h-78v58h78v87q0 62 33.5 96t91.5 34q32 0 59 -7v-57q-16 5 -50 5q-64 0 -64 -70v-88h102v-58h-102v-450h-70z" />
    <glyph glyph-name=".notdef" horiz-adv-x="822" 
d="M235 118l-40 40l185 185l-185 185l40 40l185 -185l185 185l40 -40l-185 -185l185 -185l-40 -40l-185 185zM55 -18v716h712v-716h-712zM115 42h592v596h-592v-596z" />
    <glyph glyph-name=".null" horiz-adv-x="8" 
 />
    <glyph glyph-name="nonmarkingreturn" horiz-adv-x="333" 
 />
    <glyph glyph-name="space" unicode=" " horiz-adv-x="180" 
 />
    <glyph glyph-name="exclam" unicode="!" horiz-adv-x="231" 
d="M93 196l-12 271v246h69v-246l-12 -271h-45zM81 0v111h68v-111h-68z" />
    <glyph glyph-name="quotedbl" unicode="&#x22;" horiz-adv-x="329" 
d="M70 503l-11 112v99h69v-99l-10 -112h-48zM212 503l-9 112v99h68v-99l-10 -112h-49z" />
    <glyph glyph-name="numbersign" unicode="#" horiz-adv-x="511" 
d="M92 -2l27 198h-89l5 48h89l36 243h-93l7 46h91l27 182h44l-25 -182h140l26 182h44l-26 -182h90l-6 -46h-88l-35 -243h92l-5 -48h-93l-26 -198h-47l27 198h-140l-26 -198h-46zM171 244h138l38 243h-141z" />
    <glyph glyph-name="dollar" unicode="$" horiz-adv-x="480" 
d="M213 -37v81q-108 8 -177 79l43 45q40 -34 76 -49.5t89 -15.5q56 0 88.5 28.5t32.5 75.5q0 43 -22 69t-68 44q-1 0 -47 20l-46 21q-112 52 -112 156q0 60 39.5 104.5t103.5 53.5v75h62v-72q93 -8 152 -62l-37 -49q-70 53 -143 53q-46 0 -77 -25t-31 -68q0 -73 86 -106
l89 -40q122 -53 122 -166q0 -67 -44 -114t-117 -55v-83h-62z" />
    <glyph glyph-name="percent" unicode="%" horiz-adv-x="694" 
d="M169 356q-54 0 -87 31t-33 85v138q0 56 34 86t86 30t87 -29.5t35 -86.5v-140q0 -53 -36 -83.5t-86 -30.5zM170 401q31 0 49 19t18 46v152q0 26 -18 44.5t-49 18.5q-32 0 -50 -18.5t-18 -44.5v-153q0 -28 17.5 -46t50.5 -18zM145 -3l366 725h48l-365 -725h-49zM521 -11
q-53 0 -86.5 29.5t-33.5 83.5v136q0 56 34.5 88.5t86.5 32.5t86.5 -30t34.5 -86v-140q0 -53 -36 -83.5t-86 -30.5zM521 35q32 0 50 19t18 45v153q0 25 -18 44t-50 19q-31 0 -48.5 -18.5t-17.5 -44.5v-153q0 -28 17 -46t49 -18z" />
    <glyph glyph-name="ampersand" unicode="&#x26;" horiz-adv-x="652" 
d="M261 -14q-93 0 -148 54.5t-55 137.5q0 65 40.5 122t121.5 88q-83 100 -83 172q0 63 44.5 114.5t137.5 51.5q78 0 125.5 -45t47.5 -105q0 -142 -173 -206l155 -196q28 54 49 144l63 -9q-19 -94 -73 -183l101 -126h-87l-65 83q-82 -97 -201 -97zM274 47q94 0 152 76
l-174 222q-63 -22 -93 -65.5t-30 -95.5q0 -60 40.5 -98.5t104.5 -38.5zM289 410q71 29 103 66.5t32 94.5q0 46 -31 74.5t-79 28.5q-51 0 -79.5 -32t-28.5 -76q0 -7 1 -14t2.5 -13.5t5.5 -14.5t6.5 -13.5t8.5 -15.5t9.5 -15t11 -16.5t11.5 -16.5t13.5 -18t13.5 -19z" />
    <glyph glyph-name="quotesingle" unicode="'" horiz-adv-x="187" 
d="M70 503l-11 112v99h69v-99l-10 -112h-48z" />
    <glyph glyph-name="parenleft" unicode="(" horiz-adv-x="229" 
d="M173 -181q-57 87 -88 213t-31 240q0 117 30.5 235t88.5 214l43 -2q-52 -128 -75 -221.5t-23 -226.5q0 -233 99 -449z" />
    <glyph glyph-name="parenright" unicode=")" horiz-adv-x="229" 
d="M57 -181l-45 3q99 212 99 449q0 133 -23 226.5t-75 221.5l44 2q58 -95 87.5 -213.5t29.5 -235.5q0 -114 -30 -240t-87 -213z" />
    <glyph glyph-name="asterisk" unicode="*" horiz-adv-x="362" 
d="M99 411l-38 25l74 107l-114 68l24 37l113 -67v132h46v-132l111 67l25 -37l-115 -68l76 -107l-38 -25l-82 115z" />
    <glyph glyph-name="plus" unicode="+" 
d="M246 120v173h-167v49h167v173h49v-173h166v-49h-166v-173h-49z" />
    <glyph glyph-name="comma" unicode="," horiz-adv-x="203" 
d="M67 -111l27 114h-29v108h73v-105l-35 -117h-36z" />
    <glyph glyph-name="hyphen" unicode="-" horiz-adv-x="284" 
d="M38 268v56h208v-56h-208z" />
    <glyph glyph-name="period" unicode="." horiz-adv-x="203" 
d="M65 0v111h73v-111h-73z" />
    <glyph glyph-name="slash" unicode="/" horiz-adv-x="302" 
d="M-2 -179l221 897h52l-218 -897h-55z" />
    <glyph glyph-name="zero" unicode="0" horiz-adv-x="524" 
d="M263 -12q-89 0 -147.5 48t-58.5 135v372q0 86 59.5 134t145.5 48q91 0 148 -46.5t57 -134.5v-373q0 -87 -59 -135t-145 -48zM264 50q64 0 96 33.5t32 89.5v374q0 51 -34.5 84.5t-94.5 33.5q-62 0 -97 -33.5t-35 -87.5v-372q0 -56 35 -89t98 -33z" />
    <glyph glyph-name="one" unicode="1" horiz-adv-x="327" 
d="M135 0v643l-84 -26l-5 57l118 41h43v-715h-72z" />
    <glyph glyph-name="two" unicode="2" horiz-adv-x="458" 
d="M53 0v44l134 180q138 184 138 311v12q-1 53 -28.5 85t-82.5 32q-51 0 -79.5 -27t-28.5 -74v-34h-67v31q0 79 51 122t133 43q86 0 130.5 -48.5t44.5 -132.5q0 -93 -40 -176.5t-118 -182.5l-89 -119v-2h265v-64h-363z" />
    <glyph glyph-name="three" unicode="3" horiz-adv-x="497" 
d="M250 -12q-94 0 -144 45t-50 114v38h69v-34q0 -49 36 -76t88 -27q125 0 125 147q0 77 -42 110t-92 33h-65v61h61q57 0 91 35t34 102t-34.5 98t-84.5 31t-81 -25.5t-31 -78.5v-30h-68v31q0 76 50 119.5t137 43.5q91 0 136.5 -50.5t45.5 -126.5q0 -62 -28 -111t-84 -63v-3
q59 -12 94 -61.5t35 -116.5q0 -93 -56.5 -149t-141.5 -56z" />
    <glyph glyph-name="four" unicode="4" horiz-adv-x="510" 
d="M319 0v187h-277v58l247 468h77l-251 -465h204v141l69 45v-186h86v-61h-86v-187h-69z" />
    <glyph glyph-name="five" unicode="5" horiz-adv-x="494" 
d="M242 -12q-89 0 -137.5 44.5t-48.5 108.5v44h70v-35q0 -48 34 -75.5t86 -27.5q55 0 90.5 30.5t35.5 102.5v87q0 126 -120 126q-62 0 -114 -50l-66 6l19 365h320v-65h-263l-12 -249q57 52 143 52q70 0 117 -43t47 -129v-107q0 -87 -56.5 -136t-144.5 -49z" />
    <glyph glyph-name="six" unicode="6" horiz-adv-x="505" 
d="M252 -12q-86 0 -140.5 50.5t-54.5 131.5l1 374q0 86 55.5 134t141.5 48q85 0 137 -41t52 -109v-41h-71v34q0 45 -34 71.5t-87 26.5q-57 0 -88.5 -33t-31.5 -83v-194q22 42 65.5 66t92.5 24q67 0 113.5 -43t46.5 -111v-132q0 -81 -55.5 -127t-142.5 -46zM258 48
q57 0 89 31.5t32 76.5v127q0 57 -33.5 82.5t-81.5 25.5q-53 0 -92.5 -38t-39.5 -93v-94q0 -50 33.5 -84t92.5 -34z" />
    <glyph glyph-name="seven" unicode="7" horiz-adv-x="460" 
d="M137 0q1 208 63.5 388t137.5 262h-301v64h379v-52q-102 -113 -153.5 -300t-50.5 -362h-75z" />
    <glyph glyph-name="eight" unicode="8" horiz-adv-x="504" 
d="M251 -12q-88 0 -142 44.5t-54 121.5v70q0 49 29 87t75 55q-44 13 -70.5 50t-26.5 78v66q0 78 55.5 121.5t134.5 43.5q82 0 136 -40.5t54 -118.5v-66q0 -43 -26 -80.5t-72 -52.5q46 -14 76 -51.5t30 -89.5v-71q0 -78 -56 -122.5t-143 -44.5zM252 47q56 0 90.5 29.5
t34.5 80.5v71q0 53 -38 82.5t-87 29.5q-50 0 -87 -30t-37 -81v-75q0 -47 35.5 -77t88.5 -30zM253 392q48 0 83.5 30t35.5 76v69q0 47 -36.5 73.5t-85.5 26.5q-46 0 -81.5 -28.5t-35.5 -75.5v-66q0 -49 37.5 -77t82.5 -28z" />
    <glyph glyph-name="nine" unicode="9" horiz-adv-x="505" 
d="M250 -12q-85 0 -137 41t-52 110v42h71v-34q0 -46 34 -72.5t87 -26.5q56 0 88 33t32 83v192q-51 -88 -157 -88q-70 0 -115.5 43t-45.5 111v135q0 79 55 124t142 45q86 0 140.5 -50t54.5 -131v-373q0 -86 -55 -135t-142 -49zM240 324q53 0 93 38.5t40 93.5v94
q0 47 -34.5 82.5t-91.5 35.5t-89 -31.5t-32 -76.5v-129q0 -58 33 -82.5t81 -24.5z" />
    <glyph glyph-name="colon" unicode=":" horiz-adv-x="203" 
d="M65 0v111h73v-111h-73zM65 385v110h73v-110h-73z" />
    <glyph glyph-name="semicolon" unicode=";" horiz-adv-x="203" 
d="M67 -111l27 114h-29v108h73v-105l-35 -117h-36zM65 385v110h73v-110h-73z" />
    <glyph glyph-name="less" unicode="&#x3c;" 
d="M426 132l-339 165v43l342 160l24 -49l-284 -132q23 -12 141.5 -69.5t139.5 -68.5z" />
    <glyph glyph-name="equal" unicode="=" 
d="M77 212v57h385v-57h-385zM77 367v56h385v-56h-385z" />
    <glyph glyph-name="greater" unicode="&#x3e;" 
d="M114 132l-26 50l282 137q-25 13 -147 69t-137 63l25 49l342 -160v-43z" />
    <glyph glyph-name="question" unicode="?" horiz-adv-x="462" 
d="M184 196v38q2 33 13.5 63t24 47t35.5 45q28 32 41.5 49t26.5 47.5t13 62.5q0 55 -29 86t-81 31q-46 0 -76.5 -25.5t-30.5 -78.5v-24h-63v16q0 83 48.5 127t126.5 44q80 0 127 -45.5t47 -127.5q1 -59 -23 -101.5t-67 -87.5q-1 -1 -9 -10t-9.5 -11t-9 -10.5t-9.5 -11.5
t-7.5 -11t-7.5 -13t-5.5 -13t-5 -14t-3.5 -14.5t-2 -16.5v-41h-65zM181 0v111h73v-111h-73z" />
    <glyph glyph-name="at" unicode="@" horiz-adv-x="887" 
d="M462 -129q-125 0 -223 50q-85 46 -133 130.5t-47 203.5q1 189 118 311t300 122q158 0 256.5 -91t98.5 -244q0 -71 -24 -129t-63 -94.5t-84 -57t-91 -24.5h-60l14 89h-2q-60 -100 -153 -100q-56 0 -87 28t-31 77q0 18 3 32q25 136 34 204q13 72 62 110t109 38
q42 0 73.5 -22t38.5 -63h1l13 81h66l-71 -423q84 9 141.5 80t57.5 180q0 133 -89.5 208t-213.5 75q-160 0 -260 -108.5t-100 -275.5q0 -209 154 -293q82 -43 193 -43q89 0 189 25l10 -44q-89 -32 -200 -32zM395 89q47 0 90.5 43.5t54.5 105.5l16 102q2 18 2 28
q0 52 -25 80.5t-65 28.5q-46 0 -77.5 -30.5t-40.5 -83.5l-27 -173q-3 -21 -3 -30q0 -35 17 -53t58 -18z" />
    <glyph glyph-name="A" unicode="A" horiz-adv-x="568" 
d="M27 0l215 715h89l211 -715h-75l-65 225h-239l-66 -225h-70zM178 284h207l-102 354h-1z" />
    <glyph glyph-name="B" unicode="B" horiz-adv-x="557" 
d="M78 0v713h234q83 0 131 -46t48 -127q0 -64 -35.5 -113t-91.5 -59v-2q67 -10 105 -58.5t38 -113.5q0 -94 -54 -144t-136 -50h-239zM152 61h144q63 0 99 35.5t36 105.5q0 66 -43 99t-106 33h-130v-273zM152 396h125q58 0 99 34t41 99q0 62 -34.5 93.5t-90.5 31.5h-140v-258
z" />
    <glyph glyph-name="C" unicode="C" horiz-adv-x="562" 
d="M292 -12q-105 0 -169 54t-64 156v315q0 96 64.5 154t168.5 58q95 0 154 -51t59 -130v-55h-67v40q0 60 -38 97t-111 37q-74 0 -114.5 -42.5t-40.5 -111.5v-302q0 -79 42.5 -117.5t115.5 -38.5q69 0 107.5 35t38.5 92v47h67v-53q0 -84 -58.5 -134t-154.5 -50z" />
    <glyph glyph-name="D" unicode="D" horiz-adv-x="583" 
d="M78 0v713h230q98 0 156.5 -50t58.5 -146v-310q0 -99 -59 -153t-156 -54h-230zM152 63h146q76 0 113 41t37 103v300q0 64 -37.5 103.5t-110.5 39.5h-148v-587z" />
    <glyph glyph-name="E" unicode="E" horiz-adv-x="515" 
d="M78 0v713h387v-64h-313v-248h249v-63h-249v-274h313v-64h-387z" />
    <glyph glyph-name="F" unicode="F" horiz-adv-x="498" 
d="M78 0v713h387v-63h-313v-251h248v-62h-248v-337h-74z" />
    <glyph glyph-name="G" unicode="G" horiz-adv-x="578" 
d="M292 -12q-104 0 -168.5 54t-64.5 156v311q0 96 65.5 156.5t167.5 60.5q97 0 157.5 -51t60.5 -130v-51h-68v41q0 57 -41 93t-110 36q-74 0 -116 -44.5t-42 -113.5v-303q0 -72 42 -112t118 -40q78 0 114 37t36 98v124h-149v59h219v-192q0 -84 -60.5 -136.5t-160.5 -52.5z
" />
    <glyph glyph-name="H" unicode="H" horiz-adv-x="610" 
d="M78 0v713h74v-311h307v311h74v-713h-74v335h-307v-335h-74z" />
    <glyph glyph-name="I" unicode="I" horiz-adv-x="230" 
d="M78 0v713h74v-713h-74z" />
    <glyph glyph-name="J" unicode="J" horiz-adv-x="521" 
d="M241 -12q-97 0 -152 49t-55 143v72h72v-66q0 -135 135 -135q70 0 102 38.5t32 93.5v530h74v-514q0 -96 -52.5 -153.5t-155.5 -57.5z" />
    <glyph glyph-name="K" unicode="K" horiz-adv-x="562" 
d="M78 0v713h74v-376l294 376h81l-217 -275l219 -438h-84l-188 379l-105 -133v-246h-74z" />
    <glyph glyph-name="L" unicode="L" horiz-adv-x="501" 
d="M78 0v713h74v-649h313v-64h-387z" />
    <glyph glyph-name="M" unicode="M" horiz-adv-x="688" 
d="M78 0v713h96l172 -361h2l170 361h92v-713h-69v611h-2l-169 -363h-53l-170 362h-3v-610h-66z" />
    <glyph glyph-name="N" unicode="N" horiz-adv-x="608" 
d="M78 0v713h75l310 -564h2v564h66v-713h-65l-320 589h-2v-589h-66z" />
    <glyph glyph-name="O" unicode="O" horiz-adv-x="586" 
d="M293 -12q-105 0 -169.5 54.5t-64.5 160.5v297q0 106 65 166t169 60t169 -54.5t65 -158.5v-298q0 -108 -65 -167.5t-169 -59.5zM294 54q73 0 115.5 42.5t42.5 112.5v303q0 70 -43 109.5t-119 39.5q-74 0 -115 -43t-41 -119v-291q0 -71 42 -112.5t118 -41.5z" />
    <glyph glyph-name="P" unicode="P" horiz-adv-x="548" 
d="M78 0v713h215q98 0 149.5 -58.5t51.5 -150.5q0 -100 -57 -160t-160 -60h-125v-284h-74zM152 344h109q76 0 118 40.5t42 116.5q0 66 -36 108t-102 42h-131v-307z" />
    <glyph glyph-name="Q" unicode="Q" horiz-adv-x="586" 
d="M505 -94l-157 89q-30 -7 -55 -7q-105 0 -169.5 54.5t-64.5 160.5v297q0 106 65 166t169 60t169 -54.5t65 -158.5v-298q0 -136 -98 -186l114 -57zM294 54q73 0 115.5 42.5t42.5 112.5v303q0 70 -43 109.5t-119 39.5q-74 0 -115 -43t-41 -119v-291q0 -71 42 -112.5
t118 -41.5z" />
    <glyph glyph-name="R" unicode="R" horiz-adv-x="568" 
d="M78 0v713h215q101 0 155.5 -54.5t54.5 -148.5q0 -80 -40 -134t-116 -66l177 -310h-81l-168 299h-123v-299h-74zM152 358h124q153 0 153 147q0 68 -36 107.5t-110 39.5h-131v-294z" />
    <glyph glyph-name="S" unicode="S" horiz-adv-x="523" 
d="M255 -12q-142 0 -226 93l49 51q46 -42 85 -60.5t100 -18.5q62 0 99 34.5t37 88.5q0 53 -29.5 84t-81.5 56l-90 43q-134 62 -134 180q0 80 56 133.5t147 53.5q129 0 197 -82l-47 -47q-37 34 -71.5 50t-83.5 16q-55 0 -88.5 -30t-33.5 -86q0 -42 24.5 -70t77.5 -53l83 -40
q149 -72 149 -196q0 -88 -61.5 -144t-157.5 -56z" />
    <glyph glyph-name="T" unicode="T" horiz-adv-x="523" 
d="M226 0v650h-203v63h478v-63h-201v-650h-74z" />
    <glyph glyph-name="U" unicode="U" horiz-adv-x="601" 
d="M298 -12q-97 0 -161 52t-64 159v514h74v-504q0 -83 45 -120.5t112 -37.5q72 0 113.5 42t39.5 112v508h71v-510q1 -100 -63 -157.5t-167 -57.5z" />
    <glyph glyph-name="V" unicode="V" horiz-adv-x="533" 
d="M227 -3l-202 716h76l168 -622h1l169 622h69l-202 -716h-79z" />
    <glyph glyph-name="W" unicode="W" horiz-adv-x="770" 
d="M183 -3l-152 716h74l117 -587h2l125 587h80l121 -585h2l116 585h70l-152 -716h-73l-126 602h-3l-127 -602h-74z" />
    <glyph glyph-name="X" unicode="X" horiz-adv-x="500" 
d="M21 0l184 368l-169 345h80l137 -287l138 287h74l-172 -344l186 -369h-79l-154 311l-152 -311h-73z" />
    <glyph glyph-name="Y" unicode="Y" horiz-adv-x="512" 
d="M218 0v302l-190 411h77l156 -340l152 340h72l-192 -412v-301h-75z" />
    <glyph glyph-name="Z" unicode="Z" horiz-adv-x="496" 
d="M47 0v48l316 605h-308v60h395v-51l-315 -599h311v-63h-399z" />
    <glyph glyph-name="bracketleft" unicode="[" horiz-adv-x="263" 
d="M72 -176v889h169v-48h-104v-793h104v-48h-169z" />
    <glyph glyph-name="backslash" unicode="\" horiz-adv-x="302" 
d="M246 -179l-218 897h51l221 -897h-54z" />
    <glyph glyph-name="bracketright" unicode="]" horiz-adv-x="263" 
d="M22 -176v48h104v793h-104v48h169v-889h-169z" />
    <glyph glyph-name="asciicircum" unicode="^" horiz-adv-x="419" 
d="M97 191l90 362h55l79 -362h-50l-58 287q-63 -284 -64 -287h-52z" />
    <glyph glyph-name="underscore" unicode="_" horiz-adv-x="461" 
d="M0 -88v50h461v-50h-461z" />
    <glyph glyph-name="grave" unicode="`" horiz-adv-x="260" 
d="M134 576l-109 146h75l90 -146h-56z" />
    <glyph glyph-name="a" unicode="a" horiz-adv-x="469" 
d="M186 -11q-59 0 -99.5 38t-40.5 107q0 43 17 75.5t45.5 50.5t60 27t64.5 9h97v87q0 44 -26.5 65.5t-73.5 21.5q-44 0 -74.5 -21t-30.5 -60v-29h-63v31q0 62 50 96t126 34q72 0 117.5 -34t45.5 -101v-257q0 -4 5 -129h-65l-4 81h-2q-22 -49 -64 -70.5t-85 -21.5zM210 43
q50 0 85 36t35 90v79h-86q-126 0 -126 -104q0 -49 26.5 -75t65.5 -26z" />
    <glyph glyph-name="b" unicode="b" horiz-adv-x="487" 
d="M278 -12q-43 0 -84 26.5t-55 69.5h-2l-1 -84h-62v713h70v-285h3q20 45 60.5 69.5t82.5 24.5q69 0 105.5 -43t36.5 -107v-221q0 -76 -44.5 -119.5t-109.5 -43.5zM267 41q43 0 69 27.5t26 79.5v220q0 45 -25 71t-73 26q-45 0 -82.5 -42t-37.5 -106v-130q0 -61 36 -103.5
t87 -42.5z" />
    <glyph glyph-name="c" unicode="c" horiz-adv-x="449" 
d="M233 -12q-83 0 -130.5 46t-47.5 134v171q0 86 49 134t128 48q80 0 124.5 -39.5t44.5 -103.5v-27h-65v25q0 34 -24.5 62t-78.5 28q-56 0 -82 -34t-26 -89v-177q0 -122 112 -122q56 0 77.5 27.5t21.5 65.5v24h65v-29q0 -64 -43.5 -104t-124.5 -40z" />
    <glyph glyph-name="d" unicode="d" horiz-adv-x="486" 
d="M196 -12q-68 0 -104.5 42t-36.5 106v225q0 74 45 117t108 43q42 0 79 -22.5t54 -62.5h1v277h71v-713h-64l-2 91h-3q-24 -53 -64 -78t-84 -25zM220 45q49 0 86 43t37 110v127q0 59 -38 102t-84 43q-43 0 -69.5 -26.5t-26.5 -83.5v-215q0 -100 95 -100z" />
    <glyph glyph-name="e" unicode="e" horiz-adv-x="462" 
d="M244 -12q-87 0 -138 45.5t-51 138.5v155q0 91 52 142.5t133 51.5t126.5 -48t45.5 -132v-100h-286v-70q0 -124 128 -124q59 0 124 37l26 -47q-63 -49 -160 -49zM126 292h219v55q0 51 -26 85.5t-84 34.5q-54 0 -81.5 -35.5t-27.5 -84.5v-55z" />
    <glyph glyph-name="f" unicode="f" horiz-adv-x="313" 
d="M111 0v450h-78v58h78v87q0 62 33.5 96t91.5 34q32 0 59 -7v-57q-16 5 -50 5q-64 0 -64 -70v-88h102v-58h-102v-450h-70z" />
    <glyph glyph-name="g" unicode="g" horiz-adv-x="485" 
d="M222 -188q-99 0 -163 39l24 56q66 -37 135 -37q59 0 92 30t33 89v116h-1q-21 -48 -60 -71.5t-83 -23.5q-68 0 -106 40.5t-38 104.5v213q0 72 46.5 113t108.5 41q42 0 82.5 -23t56.5 -67h1l3 78h60v-510q0 -90 -51 -139t-140 -49zM222 66q48 0 84 42.5t36 109.5v117
q0 58 -37 96.5t-82 38.5q-44 0 -71 -29t-27 -82v-193q0 -100 97 -100z" />
    <glyph glyph-name="h" unicode="h" horiz-adv-x="498" 
d="M74 0v713h70v-288h2q22 48 63 72t91 24q58 0 93 -37t35 -93v-391h-70v370q0 51 -21.5 73t-66.5 22q-47 0 -86.5 -42t-39.5 -98v-325h-70z" />
    <glyph glyph-name="i" unicode="i" horiz-adv-x="218" 
d="M74 0v509h70v-509h-70zM74 596v107h70v-107h-70z" />
    <glyph glyph-name="j" unicode="j" horiz-adv-x="229" 
d="M36 -188q-24 0 -45 3v58q14 -2 29 -2q38 0 51.5 20t13.5 59v559h70v-572q0 -125 -119 -125zM85 596v107h70v-107h-70z" />
    <glyph glyph-name="k" unicode="k" horiz-adv-x="445" 
d="M74 0v713h70v-456l192 252h80l-137 -174l143 -335h-74l-120 282l-84 -106v-176h-70z" />
    <glyph glyph-name="l" unicode="l" horiz-adv-x="274" 
d="M179 -6q-51 0 -78.5 27.5t-27.5 78.5v613h70v-601q0 -57 59 -57q19 0 43 4v-55q-29 -10 -66 -10z" />
    <glyph glyph-name="m" unicode="m" horiz-adv-x="781" 
d="M74 0v509h66v-88h1q22 50 65 75t94 25q49 0 82 -28.5t42 -70.5h1q24 49 66 74t93 25q56 0 91.5 -36.5t35.5 -92.5v-392h-70v372q0 93 -88 93q-46 0 -85 -38.5t-40 -92.5v-334h-70v377q-1 88 -88 88q-47 0 -86.5 -41t-39.5 -96v-328h-70z" />
    <glyph glyph-name="n" unicode="n" horiz-adv-x="497" 
d="M74 0v509h66v-86h1q48 98 159 98q57 0 92.5 -37.5t35.5 -92.5v-391h-70v372q0 93 -88 93q-47 0 -86.5 -41t-39.5 -96v-328h-70z" />
    <glyph glyph-name="o" unicode="o" horiz-adv-x="474" 
d="M238 -12q-84 0 -133.5 47t-49.5 136v165q0 87 50.5 136t130.5 49q83 0 133 -47t50 -135v-165q0 -91 -50 -138.5t-131 -47.5zM239 45q110 0 110 128v170q0 55 -28 89t-85 34t-84 -35.5t-27 -92.5v-166q0 -127 114 -127z" />
    <glyph glyph-name="p" unicode="p" horiz-adv-x="487" 
d="M74 -178v687h66v-84h2q22 48 62.5 72.5t83.5 24.5q68 0 106 -42t38 -105v-220q0 -77 -42 -122t-112 -45q-41 0 -79.5 24t-52.5 66h-2v-256h-70zM270 41q42 0 67 27t25 79v218q0 44 -24 72t-74 28q-51 0 -85.5 -42.5t-34.5 -108.5v-123q0 -64 36 -107t90 -43z" />
    <glyph glyph-name="q" unicode="q" horiz-adv-x="485" 
d="M343 -178v263h-2q-26 -49 -65 -73t-79 -24q-67 0 -104.5 42t-37.5 108v223q0 74 45 117t109 43q44 0 84.5 -24t55.5 -68h2l4 81h58v-688h-70zM217 45q47 0 86.5 42t39.5 104v132q0 61 -37.5 103.5t-85.5 42.5q-43 0 -69 -28t-26 -81v-217q0 -45 22.5 -71.5t69.5 -26.5z
" />
    <glyph glyph-name="r" unicode="r" horiz-adv-x="341" 
d="M74 0v509h66v-88h1q26 53 61 73.5t83 20.5q21 0 34 -3v-63q-19 3 -42 3q-55 0 -93.5 -33.5t-39.5 -98.5v-320h-70z" />
    <glyph glyph-name="s" unicode="s" horiz-adv-x="420" 
d="M209 -12q-110 0 -176 74l43 48q65 -65 134 -65q47 0 77 21.5t30 61.5q0 38 -21 60.5t-67 38.5l-60 22q-108 42 -108 136q0 53 40.5 95t114.5 42q98 0 151 -51l-39 -51q-54 46 -114 46q-39 0 -63.5 -20.5t-24.5 -52.5t18.5 -51.5t61.5 -35.5l62 -25q115 -44 115 -143
q0 -70 -51 -110t-123 -40z" />
    <glyph glyph-name="t" unicode="t" horiz-adv-x="346" 
d="M228 -9q-113 0 -113 100v360h-83v56h83v148h70v-148h131v-56h-131v-338q0 -59 66 -59q28 0 61 11v-58q-45 -16 -84 -16z" />
    <glyph glyph-name="u" unicode="u" horiz-adv-x="497" 
d="M202 -12q-58 0 -94.5 36t-36.5 94v391h70v-370q0 -50 21.5 -72t65.5 -22q50 0 88.5 41t38.5 98v325h70v-509h-63l-3 87h-2q-19 -46 -62 -72.5t-93 -26.5z" />
    <glyph glyph-name="v" unicode="v" horiz-adv-x="420" 
d="M173 -1l-151 510h75l114 -414h1l119 414h66l-156 -510h-68z" />
    <glyph glyph-name="w" unicode="w" horiz-adv-x="664" 
d="M156 -1l-127 510h73l90 -396h3l106 396h71l101 -396h2l96 396h65l-131 -510h-66l-104 425h-3l-110 -425h-66z" />
    <glyph glyph-name="x" unicode="x" horiz-adv-x="411" 
d="M15 0l152 263l-138 246h77l107 -199l107 199h70l-140 -244l147 -265h-75l-119 217l-119 -217h-69z" />
    <glyph glyph-name="y" unicode="y" horiz-adv-x="426" 
d="M88 -190q-36 0 -63 8l5 59q32 -7 53 -7q28 0 45.5 15.5t30.5 52.5l23 78l-159 493h74l122 -402h1l121 402h64l-178 -568q-38 -131 -139 -131z" />
    <glyph glyph-name="z" unicode="z" horiz-adv-x="409" 
d="M41 0v44l244 410h-238v55h320l-1 -47l-240 -407h241v-55h-326z" />
    <glyph glyph-name="braceleft" unicode="{" horiz-adv-x="268" 
d="M141 -176q-27 0 -43 15.5t-16 46.5v329q0 45 -41 49v47q23 4 32 14.5t9 30.5v292q0 32 16.5 48.5t44.5 16.5h108v-45h-91q-18 0 -18 -23v-287q0 -51 -38 -66v-3q38 -16 38 -69v-329q0 -22 18 -22h91v-45h-110z" />
    <glyph glyph-name="bar" unicode="|" horiz-adv-x="249" 
d="M101 -52v768h47v-768h-47z" />
    <glyph glyph-name="braceright" unicode="}" horiz-adv-x="268" 
d="M17 -176v45h91q18 0 18 22v329q0 53 38 69v3q-38 15 -38 66v289q0 23 -18 23h-91v44h108q61 0 61 -64v-294q0 -20 8.5 -30.5t31.5 -14.5v-47q-22 -2 -31 -13.5t-9 -35.5v-329q0 -62 -61 -62h-108z" />
    <glyph glyph-name="asciitilde" unicode="~" 
d="M111 260l-39 7q6 39 26.5 64.5t54.5 25.5q25 0 116.5 -17t116.5 -17q28 0 43 45l39 -9q-17 -90 -82 -90q-23 0 -117 17t-118 17q-18 0 -26 -11t-14 -32z" />
    <glyph glyph-name="nbspace" unicode="&#xa0;" horiz-adv-x="0" 
 />
    <glyph glyph-name="exclamdown" unicode="&#xa1;" horiz-adv-x="231" 
d="M80 -168v248l11 270h47l11 -270v-248h-69zM81 436v109h69v-109h-69z" />
    <glyph glyph-name="cent" unicode="&#xa2;" horiz-adv-x="466" 
d="M214 -65v78q-74 5 -113.5 50.5t-39.5 126.5v170q0 78 41 124.5t112 52.5v74h56v-74q67 -6 103 -44.5t36 -93.5v-35h-65v34q0 35 -24 62t-79 27q-57 0 -83.5 -35t-26.5 -90v-172q0 -126 110 -126q55 0 79 28.5t24 63.5v34h65v-38q0 -57 -35.5 -94t-103.5 -44v-79h-56z" />
    <glyph glyph-name="sterling" unicode="&#xa3;" horiz-adv-x="524" 
d="M51 0v60h72v278h-66v46h66v166q0 89 51.5 132t127.5 43q75 0 118 -37.5t43 -107.5v-44h-61v45q0 45 -27.5 67t-74.5 22t-76.5 -27t-29.5 -84v-175h187v-46h-187v-278h285l-14 -60h-414z" />
    <glyph glyph-name="currency" unicode="&#xa4;" horiz-adv-x="336" 
d="M66 209l-31 31l34 35q-25 33 -25 73t23 69l-34 34l30 30l33 -33q34 23 70 23q42 0 71 -21l34 34l31 -30l-34 -33q25 -38 25 -75t-25 -71l34 -33l-29 -30l-33 33q-33 -21 -71 -21q-37 0 -70 19zM167 261q38 0 60 23.5t22 63.5q0 37 -23.5 61.5t-56.5 24.5q-38 0 -60 -24
t-22 -65q0 -34 23 -59t57 -25z" />
    <glyph glyph-name="yen" unicode="&#xa5;" horiz-adv-x="508" 
d="M217 0v272h-164v50h153l-181 391h80l153 -338l152 338h73l-180 -391h154v-50h-165v-272h-75z" />
    <glyph glyph-name="brokenbar" unicode="&#xa6;" horiz-adv-x="251" 
d="M100 -50v362h51v-362h-51zM100 380v334h51v-334h-51z" />
    <glyph glyph-name="section" unicode="&#xa7;" horiz-adv-x="458" 
d="M225 -74q-45 0 -84 12.5t-68 45t-29 80.5v27h53v-15q0 -49 36.5 -76.5t97.5 -27.5q56 0 90 27.5t34 72.5q0 22 -7.5 38.5t-25 27.5t-27.5 16t-33 13q-17 6 -84 28q-118 39 -118 133q0 36 22 71t65 58q-47 24 -66.5 51.5t-19.5 68.5q0 59 43.5 99t126.5 40
q80 0 124.5 -36.5t44.5 -100.5v-23h-51v22q0 43 -31 69t-85 26q-53 0 -85 -24.5t-32 -68.5q0 -60 81 -91l88 -35q124 -45 124 -131q0 -84 -90 -126q96 -36 93 -118q0 -67 -51.5 -110t-135.5 -43zM266 220q40 12 63 37.5t23 61.5q0 54 -80 85q-72 28 -79 29
q-31 -13 -54.5 -40t-23.5 -62q0 -33 24 -55.5t53 -30.5z" />
    <glyph glyph-name="dieresis" unicode="&#xa8;" horiz-adv-x="355" 
d="M70 601v104h63v-104h-63zM224 601v104h62v-104h-62z" />
    <glyph glyph-name="copyright" unicode="&#xa9;" horiz-adv-x="836" 
d="M418 75q-82 0 -126.5 44.5t-44.5 128.5v191q0 82 46 128.5t125 46.5q77 0 121 -38t44 -101v-51h-57v51q0 33 -25.5 59.5t-80.5 26.5q-58 0 -84.5 -35t-26.5 -90v-186q0 -122 111 -122q55 0 80.5 27.5t25.5 60.5v50h57v-51q0 -62 -44 -101t-121 -39zM416 -48
q-170 0 -265 110.5t-95 286.5q0 166 100 280t260 114q167 0 266 -114t99 -280q0 -169 -98 -283t-267 -114zM420 -10q136 0 225 99t89 260q0 165 -90.5 260.5t-227.5 95.5q-136 0 -225 -97.5t-89 -258.5q0 -167 88.5 -263t229.5 -96z" />
    <glyph glyph-name="ordfeminine" unicode="&#xaa;" horiz-adv-x="325" 
d="M128 382q-38 0 -65 24.5t-27 69.5q0 53 39 78.5t88 25.5h55v51q0 54 -59 54q-27 0 -44 -12.5t-17 -35.5v-19h-50v18q0 42 33 65t84 23q48 0 77.5 -22.5t29.5 -67.5v-166q0 -23 4 -79h-52q0 19 -3 46q-27 -53 -93 -53zM150 423q28 0 48 21t20 53v49h-52q-73 0 -73 -63
q0 -29 16 -44.5t41 -15.5zM53 285v52h223v-52h-223z" />
    <glyph glyph-name="guillemotleft" unicode="&#xab;" horiz-adv-x="416" 
d="M143 114l-117 158l116 161l41 -27l-79 -133l80 -134zM314 114l-116 158l115 161l41 -27l-79 -133l81 -134z" />
    <glyph glyph-name="logicalnot" unicode="&#xac;" horiz-adv-x="507" 
d="M400 166v122h-358v48h411v-170h-53z" />
    <glyph glyph-name="registered" unicode="&#xae;" horiz-adv-x="512" 
d="M254 296q-97 0 -155 64.5t-58 160.5q0 98 59.5 162.5t154.5 64.5q97 0 156.5 -63.5t59.5 -163.5q0 -94 -60 -159.5t-157 -65.5zM254 327q74 0 128 53.5t54 140.5q0 89 -53 143t-129 54q-75 0 -126 -54t-51 -143q0 -87 52.5 -140.5t124.5 -53.5zM170 387v278h93
q42 0 66 -22.5t24 -59.5q0 -30 -16.5 -52t-45.5 -30l73 -114h-43l-69 110h-42v-110h-40zM210 528h46q57 0 57 53q0 23 -15.5 37.5t-43.5 14.5h-44v-105z" />
    <glyph glyph-name="macron" unicode="&#xaf;" horiz-adv-x="380" 
d="M55 603v53h270v-53h-270z" />
    <glyph glyph-name="degree" unicode="&#xb0;" horiz-adv-x="287" 
d="M142 527q-43 0 -71.5 29t-28.5 69q0 42 29 71.5t71 29.5q44 0 73.5 -29t29.5 -70q0 -42 -30 -71t-73 -29zM142 561q27 0 45.5 18.5t18.5 45.5q0 28 -18 47.5t-46 19.5q-26 0 -43 -19t-17 -48q0 -27 17 -45.5t43 -18.5z" />
    <glyph glyph-name="plusminus" unicode="&#xb1;" 
d="M246 187v162h-167v50h167v166h49v-166h166v-50h-166v-162h-49zM79 63v50h381v-50h-381z" />
    <glyph glyph-name="twosuperior" unicode="&#xb2;" horiz-adv-x="300" 
d="M49 380v33l83 101q38 50 57 85.5t19 71.5v3q-2 63 -59 63q-27 0 -42.5 -15.5t-15.5 -41.5v-16h-50v18q0 47 30.5 73t79.5 26q52 0 80.5 -29t28.5 -77q0 -34 -14 -68.5t-29.5 -56.5t-46.5 -61l-51 -65h149v-44h-219z" />
    <glyph glyph-name="threesuperior" unicode="&#xb3;" horiz-adv-x="317" 
d="M157 368q-57 0 -86.5 27t-29.5 70v16h50v-13q0 -27 18.5 -42t45.5 -15q65 0 65 76q0 39 -22.5 56.5t-45.5 17.5h-36v38h32q30 0 48 18t18 54q0 34 -17.5 50t-43.5 16q-27 0 -43.5 -14t-16.5 -42v-12h-49v15q0 46 29.5 71.5t81.5 25.5q54 0 82.5 -29.5t28.5 -72.5
q0 -33 -15.5 -60.5t-46.5 -35.5v-2q33 -8 52.5 -35.5t19.5 -62.5q0 -55 -33 -85t-86 -30z" />
    <glyph glyph-name="acute" unicode="&#xb4;" horiz-adv-x="260" 
d="M69 576l88 146h74l-107 -146h-55z" />
    <glyph glyph-name="mu" unicode="&#xb5;" horiz-adv-x="508" 
d="M74 -178v688h70v-368q0 -48 26.5 -72t70.5 -24q47 0 83 39.5t36 95.5v329h71v-364q0 -59 50 -78l-1 -71q-85 27 -101 92q-41 -101 -143 -101q-76 0 -107 59h-2l18 -220z" />
    <glyph glyph-name="paragraph" unicode="&#xb6;" horiz-adv-x="541" 
d="M225 -81v319q-83 9 -125 73.5t-42 158.5q0 100 51 171.5t133 71.5h254v-48h-71v-746h-45v746h-110v-746h-45z" />
    <glyph glyph-name="periodcentered" unicode="&#xb7;" horiz-adv-x="203" 
d="M65 281v109h73v-109h-73z" />
    <glyph glyph-name="periodcentered" unicode="&#x22c5;" horiz-adv-x="203" 
d="M65 281v109h73v-109h-73z" />
    <glyph glyph-name="cedilla" unicode="&#xb8;" horiz-adv-x="337" 
d="M155 -197q-42 0 -81 12v39q43 -12 81 -12q50 0 50 33q0 30 -57 35l-33 2l24 95h37l-17 -65q100 -4 100 -66q0 -31 -29 -52t-75 -21z" />
    <glyph glyph-name="onesuperior" unicode="&#xb9;" horiz-adv-x="239" 
d="M101 380v344l-49 -13l-7 42l79 25h30v-398h-53z" />
    <glyph glyph-name="ordmasculine" unicode="&#xba;" horiz-adv-x="337" 
d="M168 383q-56 0 -88 28t-32 85v110q0 56 33 85.5t86 29.5q55 0 87.5 -28.5t32.5 -85.5v-111q0 -55 -33 -84t-86 -29zM168 425q63 0 63 70v115q0 69 -63 69q-33 0 -49 -19.5t-16 -50.5v-115q0 -69 65 -69zM57 285v52h223v-52h-223z" />
    <glyph glyph-name="guillemotright" unicode="&#xbb;" horiz-adv-x="416" 
d="M69 114l-41 26l80 134l-82 134l42 25l116 -158zM241 114l-42 26l80 134l-81 134l42 25l116 -158z" />
    <glyph glyph-name="onequarter" unicode="&#xbc;" horiz-adv-x="713" 
d="M134 317v344l-49 -13l-7 42l79 25h30v-398h-53zM557 0v102h-154v40l142 256h56l-145 -253h101v71l53 38v-109h48v-43h-48v-102h-53zM130 -3l379 721h44l-379 -721h-44z" />
    <glyph glyph-name="onehalf" unicode="&#xbd;" horiz-adv-x="713" 
d="M132 317v344l-49 -13l-7 42l79 25h30v-398h-53zM440 0v33l83 101q38 50 57 85.5t19 71.5v3q-2 63 -59 63q-27 0 -42.5 -15.5t-15.5 -41.5v-16h-50v18q0 47 30.5 73t79.5 26q52 0 80.5 -29t28.5 -77q0 -34 -14 -68.5t-29.5 -56.5t-46.5 -61l-51 -65h149v-44h-219zM129 -3
l379 721h44l-379 -721h-44z" />
    <glyph glyph-name="threequarters" unicode="&#xbe;" horiz-adv-x="713" 
d="M564 0v102h-154v40l142 256h56l-145 -253h101v71l53 38v-109h48v-43h-48v-102h-53zM173 305q-57 0 -86.5 27t-29.5 70v16h50v-13q0 -27 18.5 -42t45.5 -15q65 0 65 76q0 39 -22.5 56.5t-45.5 17.5h-36v38h32q30 0 48 18t18 54q0 34 -17.5 50t-43.5 16q-27 0 -43.5 -14
t-16.5 -42v-12h-49v15q0 46 29.5 71.5t81.5 25.5q54 0 82.5 -29.5t28.5 -72.5q0 -33 -15.5 -60.5t-46.5 -35.5v-2q33 -8 52.5 -35.5t19.5 -62.5q0 -55 -33 -85t-86 -30zM164 -3l379 721h44l-379 -721h-44z" />
    <glyph glyph-name="questiondown" unicode="&#xbf;" horiz-adv-x="462" 
d="M232 -179q-81 0 -127.5 46t-46.5 127q0 42 14.5 80t31 59.5t44.5 51.5q2 2 13 14.5t14 16t12 15t12 17.5l8.5 17t7.5 21.5t3 21.5v43h63v-39q-3 -49 -20.5 -83t-51.5 -71q-30 -34 -42 -49.5t-25.5 -46.5t-13.5 -65q0 -55 29 -86t82 -31q43 0 74.5 27t31.5 81v21h63v-18
q0 -81 -49.5 -125.5t-126.5 -44.5zM212 435v111h73v-111h-73z" />
    <glyph glyph-name="Agrave" unicode="&#xc0;" horiz-adv-x="568" 
d="M27 0l215 715h89l211 -715h-75l-65 225h-239l-66 -225h-70zM178 284h207l-102 354h-1zM252 766l-109 146h75l90 -146h-56z" />
    <glyph glyph-name="Aacute" unicode="&#xc1;" horiz-adv-x="568" 
d="M27 0l215 715h89l211 -715h-75l-65 225h-239l-66 -225h-70zM178 284h207l-102 354h-1zM266 766l88 146h74l-107 -146h-55z" />
    <glyph glyph-name="Acircumflex" unicode="&#xc2;" horiz-adv-x="568" 
d="M27 0l215 715h89l211 -715h-75l-65 225h-239l-66 -225h-70zM178 284h207l-102 354h-1zM164 764l91 149h53l88 -149h-60l-57 102l-57 -102h-58z" />
    <glyph glyph-name="Atilde" unicode="&#xc3;" horiz-adv-x="568" 
d="M27 0l215 715h89l211 -715h-75l-65 225h-239l-66 -225h-70zM178 284h207l-102 354h-1zM167 769l-40 6q5 39 27 65t57 26q24 0 72.5 -18.5t72.5 -18.5q32 0 47 46l36 -8q-6 -39 -28 -64t-55 -25q-26 0 -75 18t-70 18q-15 0 -24 -7t-12.5 -14.5t-7.5 -23.5z" />
    <glyph glyph-name="Adieresis" unicode="&#xc4;" horiz-adv-x="568" 
d="M27 0l215 715h89l211 -715h-75l-65 225h-239l-66 -225h-70zM178 284h207l-102 354h-1zM178 793v104h63v-104h-63zM332 793v104h62v-104h-62z" />
    <glyph glyph-name="Aring" unicode="&#xc5;" horiz-adv-x="568" 
d="M27 0l215 715h89l211 -715h-75l-65 225h-239l-66 -225h-70zM178 284h207l-102 354h-1zM286 746q-40 0 -62.5 24.5t-22.5 59.5q0 37 24 62.5t60 25.5q40 0 63 -23t23 -60t-24 -63t-61 -26zM285 778q22 0 36 14t14 40t-13.5 40.5t-37.5 14.5q-21 0 -33.5 -15.5t-12.5 -41.5
q0 -25 13 -38.5t34 -13.5z" />
    <glyph glyph-name="AE" unicode="&#xc6;" horiz-adv-x="832" 
d="M22 0l341 713h430v-63h-313v-249h249v-64h-249v-273h313v-64h-387v215l-206 1l-102 -216h-76zM226 273h180v375h-2z" />
    <glyph glyph-name="Ccedilla" unicode="&#xc7;" horiz-adv-x="562" 
d="M295 -197q-42 0 -81 12v39q43 -12 81 -12q50 0 50 33q0 30 -57 35l-33 2l19 77q-98 5 -156.5 58t-58.5 151v315q0 96 64.5 154t168.5 58q95 0 154 -51t59 -130v-55h-67v40q0 60 -38 97t-111 37q-74 0 -114.5 -42.5t-40.5 -111.5v-302q0 -79 42.5 -117.5t115.5 -38.5
q69 0 107.5 35t38.5 92v47h67v-53q0 -80 -53 -129t-141 -54l-12 -47q100 -4 100 -66q0 -31 -29 -52t-75 -21z" />
    <glyph glyph-name="Egrave" unicode="&#xc8;" horiz-adv-x="515" 
d="M78 0v713h387v-64h-313v-248h249v-63h-249v-274h313v-64h-387zM263 766l-109 146h75l90 -146h-56z" />
    <glyph glyph-name="Eacute" unicode="&#xc9;" horiz-adv-x="515" 
d="M239 766l88 146h74l-107 -146h-55zM78 0v713h387v-64h-313v-248h249v-63h-249v-274h313v-64h-387z" />
    <glyph glyph-name="Ecircumflex" unicode="&#xca;" horiz-adv-x="515" 
d="M159 764l91 149h53l88 -149h-60l-57 102l-57 -102h-58zM78 0v713h387v-64h-313v-248h249v-63h-249v-274h313v-64h-387z" />
    <glyph glyph-name="Edieresis" unicode="&#xcb;" horiz-adv-x="515" 
d="M174 791v104h63v-104h-63zM328 791v104h62v-104h-62zM78 0v713h387v-64h-313v-248h249v-63h-249v-274h313v-64h-387z" />
    <glyph glyph-name="Igrave" unicode="&#xcc;" horiz-adv-x="216" 
d="M74 0v713h74v-713h-74zM76 766l-109 146h75l90 -146h-56z" />
    <glyph glyph-name="Iacute" unicode="&#xcd;" horiz-adv-x="216" 
d="M74 0v713h74v-713h-74zM88 766l88 146h74l-107 -146h-55z" />
    <glyph glyph-name="Icircumflex" unicode="&#xce;" horiz-adv-x="216" 
d="M74 0v713h74v-713h-74zM-5 764l91 149h53l88 -149h-60l-57 102l-57 -102h-58z" />
    <glyph glyph-name="Idieresis" unicode="&#xcf;" horiz-adv-x="216" 
d="M74 0v713h74v-713h-74zM6 791v104h63v-104h-63zM160 791v104h62v-104h-62z" />
    <glyph glyph-name="Eth" unicode="&#xd0;" horiz-adv-x="600" 
d="M32 345v53h63v315h230q98 0 156.5 -50t58.5 -146v-310q0 -99 -59 -153t-156 -54h-230v345h-63zM169 63h146q76 0 113 41t37 103v300q0 64 -37.5 103.5t-110.5 39.5h-148v-252h165v-53h-165v-282z" />
    <glyph glyph-name="Ntilde" unicode="&#xd1;" horiz-adv-x="608" 
d="M78 0v713h75l310 -564h2v564h66v-713h-65l-320 589h-2v-589h-66zM198 769l-40 6q5 39 27 65t57 26q24 0 72.5 -18.5t72.5 -18.5q32 0 47 46l36 -8q-6 -39 -28 -64t-55 -25q-26 0 -75 18t-70 18q-15 0 -24 -7t-12.5 -14.5t-7.5 -23.5z" />
    <glyph glyph-name="Ograve" unicode="&#xd2;" horiz-adv-x="586" 
d="M293 -12q-105 0 -169.5 54.5t-64.5 160.5v297q0 106 65 166t169 60t169 -54.5t65 -158.5v-298q0 -108 -65 -167.5t-169 -59.5zM294 54q73 0 115.5 42.5t42.5 112.5v303q0 70 -43 109.5t-119 39.5q-74 0 -115 -43t-41 -119v-291q0 -71 42 -112.5t118 -41.5zM271 766
l-109 146h75l90 -146h-56z" />
    <glyph glyph-name="Oacute" unicode="&#xd3;" horiz-adv-x="586" 
d="M257 766l88 146h74l-107 -146h-55zM293 -12q-105 0 -169.5 54.5t-64.5 160.5v297q0 106 65 166t169 60t169 -54.5t65 -158.5v-298q0 -108 -65 -167.5t-169 -59.5zM294 54q73 0 115.5 42.5t42.5 112.5v303q0 70 -43 109.5t-119 39.5q-74 0 -115 -43t-41 -119v-291
q0 -71 42 -112.5t118 -41.5z" />
    <glyph glyph-name="Ocircumflex" unicode="&#xd4;" horiz-adv-x="586" 
d="M175 764l91 149h53l88 -149h-60l-57 102l-57 -102h-58zM293 -12q-105 0 -169.5 54.5t-64.5 160.5v297q0 106 65 166t169 60t169 -54.5t65 -158.5v-298q0 -108 -65 -167.5t-169 -59.5zM294 54q73 0 115.5 42.5t42.5 112.5v303q0 70 -43 109.5t-119 39.5q-74 0 -115 -43
t-41 -119v-291q0 -71 42 -112.5t118 -41.5z" />
    <glyph glyph-name="Otilde" unicode="&#xd5;" horiz-adv-x="586" 
d="M293 -12q-105 0 -169.5 54.5t-64.5 160.5v297q0 106 65 166t169 60t169 -54.5t65 -158.5v-298q0 -108 -65 -167.5t-169 -59.5zM294 54q73 0 115.5 42.5t42.5 112.5v303q0 70 -43 109.5t-119 39.5q-74 0 -115 -43t-41 -119v-291q0 -71 42 -112.5t118 -41.5zM171 769l-40 6
q5 39 27 65t57 26q24 0 72.5 -18.5t72.5 -18.5q32 0 47 46l36 -8q-6 -39 -28 -64t-55 -25q-26 0 -75 18t-70 18q-15 0 -24 -7t-12.5 -14.5t-7.5 -23.5z" />
    <glyph glyph-name="Odieresis" unicode="&#xd6;" horiz-adv-x="586" 
d="M186 791v104h63v-104h-63zM340 791v104h62v-104h-62zM293 -12q-105 0 -169.5 54.5t-64.5 160.5v297q0 106 65 166t169 60t169 -54.5t65 -158.5v-298q0 -108 -65 -167.5t-169 -59.5zM294 54q73 0 115.5 42.5t42.5 112.5v303q0 70 -43 109.5t-119 39.5q-74 0 -115 -43
t-41 -119v-291q0 -71 42 -112.5t118 -41.5z" />
    <glyph glyph-name="multiply" unicode="&#xd7;" 
d="M128 138l-35 36l143 145l-43.5 43.5l-57.5 57.5l-43 43l36 35l144 -143l141 142l35 -35l-142 -142q22 -23 73.5 -75t68.5 -70l-35 -34l-141 142q-26 -23 -83.5 -82.5t-60.5 -62.5z" />
    <glyph glyph-name="Oslash" unicode="&#xd8;" horiz-adv-x="584" 
d="M127 -55l-41 19l37 78q-64 58 -64 161v297q0 106 65 166t169 60q82 0 140 -34l31 65l42 -18l-36 -75q57 -55 57 -151v-298q0 -108 -65 -167.5t-169 -59.5q-76 0 -132 29zM134 208q0 -54 24 -92l244 511q-43 34 -112 34q-74 0 -115 -43t-41 -119v-291zM294 54
q73 0 115.5 42.5t42.5 112.5v303q0 44 -18 77l-242 -507q40 -28 102 -28z" />
    <glyph glyph-name="Ugrave" unicode="&#xd9;" horiz-adv-x="601" 
d="M298 -12q-97 0 -161 52t-64 159v514h74v-504q0 -83 45 -120.5t112 -37.5q72 0 113.5 42t39.5 112v508h71v-510q1 -100 -63 -157.5t-167 -57.5zM287 764l-109 146h75l90 -146h-56z" />
    <glyph glyph-name="Uacute" unicode="&#xda;" horiz-adv-x="601" 
d="M277 765l88 146h74l-107 -146h-55zM298 -12q-97 0 -161 52t-64 159v514h74v-504q0 -83 45 -120.5t112 -37.5q72 0 113.5 42t39.5 112v508h71v-510q1 -100 -63 -157.5t-167 -57.5z" />
    <glyph glyph-name="Ucircumflex" unicode="&#xdb;" horiz-adv-x="601" 
d="M192 763l91 149h53l88 -149h-60l-57 102l-57 -102h-58zM298 -12q-97 0 -161 52t-64 159v514h74v-504q0 -83 45 -120.5t112 -37.5q72 0 113.5 42t39.5 112v508h71v-510q1 -100 -63 -157.5t-167 -57.5z" />
    <glyph glyph-name="Udieresis" unicode="&#xdc;" horiz-adv-x="601" 
d="M205 791v104h63v-104h-63zM359 791v104h62v-104h-62zM298 -12q-97 0 -161 52t-64 159v514h74v-504q0 -83 45 -120.5t112 -37.5q72 0 113.5 42t39.5 112v508h71v-510q1 -100 -63 -157.5t-167 -57.5z" />
    <glyph glyph-name="Yacute" unicode="&#xdd;" horiz-adv-x="512" 
d="M218 0v302l-190 411h77l156 -340l152 340h72l-192 -412v-301h-75zM236 763l88 146h74l-107 -146h-55z" />
    <glyph glyph-name="Thorn" unicode="&#xde;" horiz-adv-x="546" 
d="M78 0v713h74v-138h141q98 0 150 -57.5t52 -147.5q0 -98 -57 -156t-161 -58h-125v-156h-74zM152 213h109q78 0 119 39.5t41 115.5q0 65 -37 107t-102 42h-130v-304z" />
    <glyph glyph-name="germandbls" unicode="&#xdf;" horiz-adv-x="591" 
d="M391 -12q-100 0 -163 69l38 45q62 -60 127 -60q51 0 75.5 32t24.5 83q0 73 -56 120t-135 58v57l26 1q51 24 78.5 63.5t27.5 86.5q0 58 -34.5 91.5t-95.5 33.5q-60 0 -91 -35t-31 -91v-542h-70v451h-76v57h76v29q0 80 53 133.5t144 53.5q90 0 142.5 -50t52.5 -123
q0 -56 -29.5 -103t-86.5 -77v-1q86 -29 128.5 -86.5t42.5 -116.5q0 -84 -46.5 -131.5t-121.5 -47.5z" />
    <glyph glyph-name="agrave" unicode="&#xe0;" horiz-adv-x="469" 
d="M186 -11q-59 0 -99.5 38t-40.5 107q0 43 17 75.5t45.5 50.5t60 27t64.5 9h97v87q0 44 -26.5 65.5t-73.5 21.5q-44 0 -74.5 -21t-30.5 -60v-29h-63v31q0 62 50 96t126 34q72 0 117.5 -34t45.5 -101v-257q0 -4 5 -129h-65l-4 81h-2q-22 -49 -64 -70.5t-85 -21.5zM210 43
q50 0 85 36t35 90v79h-86q-126 0 -126 -104q0 -49 26.5 -75t65.5 -26zM213 576l-109 146h75l90 -146h-56z" />
    <glyph glyph-name="aacute" unicode="&#xe1;" horiz-adv-x="469" 
d="M186 -11q-59 0 -99.5 38t-40.5 107q0 43 17 75.5t45.5 50.5t60 27t64.5 9h97v87q0 44 -26.5 65.5t-73.5 21.5q-44 0 -74.5 -21t-30.5 -60v-29h-63v31q0 62 50 96t126 34q72 0 117.5 -34t45.5 -101v-257q0 -4 5 -129h-65l-4 81h-2q-22 -49 -64 -70.5t-85 -21.5zM210 43
q50 0 85 36t35 90v79h-86q-126 0 -126 -104q0 -49 26.5 -75t65.5 -26zM193 576l88 146h74l-107 -146h-55z" />
    <glyph glyph-name="acircumflex" unicode="&#xe2;" horiz-adv-x="469" 
d="M186 -11q-59 0 -99.5 38t-40.5 107q0 43 17 75.5t45.5 50.5t60 27t64.5 9h97v87q0 44 -26.5 65.5t-73.5 21.5q-44 0 -74.5 -21t-30.5 -60v-29h-63v31q0 62 50 96t126 34q72 0 117.5 -34t45.5 -101v-257q0 -4 5 -129h-65l-4 81h-2q-22 -49 -64 -70.5t-85 -21.5zM210 43
q50 0 85 36t35 90v79h-86q-126 0 -126 -104q0 -49 26.5 -75t65.5 -26zM110 574l91 149h53l88 -149h-60l-57 102l-57 -102h-58z" />
    <glyph glyph-name="atilde" unicode="&#xe3;" horiz-adv-x="469" 
d="M186 -11q-59 0 -99.5 38t-40.5 107q0 43 17 75.5t45.5 50.5t60 27t64.5 9h97v87q0 44 -26.5 65.5t-73.5 21.5q-44 0 -74.5 -21t-30.5 -60v-29h-63v31q0 62 50 96t126 34q72 0 117.5 -34t45.5 -101v-257q0 -4 5 -129h-65l-4 81h-2q-22 -49 -64 -70.5t-85 -21.5zM210 43
q50 0 85 36t35 90v79h-86q-126 0 -126 -104q0 -49 26.5 -75t65.5 -26zM115 579l-40 6q5 39 27 65t57 26q24 0 72.5 -18.5t72.5 -18.5q32 0 47 46l36 -8q-6 -39 -28 -64t-55 -25q-26 0 -75 18t-70 18q-15 0 -24 -7t-12.5 -14.5t-7.5 -23.5z" />
    <glyph glyph-name="adieresis" unicode="&#xe4;" horiz-adv-x="469" 
d="M186 -11q-59 0 -99.5 38t-40.5 107q0 43 17 75.5t45.5 50.5t60 27t64.5 9h97v87q0 44 -26.5 65.5t-73.5 21.5q-44 0 -74.5 -21t-30.5 -60v-29h-63v31q0 62 50 96t126 34q72 0 117.5 -34t45.5 -101v-257q0 -4 5 -129h-65l-4 81h-2q-22 -49 -64 -70.5t-85 -21.5zM210 43
q50 0 85 36t35 90v79h-86q-126 0 -126 -104q0 -49 26.5 -75t65.5 -26zM124 601v104h63v-104h-63zM278 601v104h62v-104h-62z" />
    <glyph glyph-name="aring" unicode="&#xe5;" horiz-adv-x="469" 
d="M186 -11q-59 0 -99.5 38t-40.5 107q0 43 17 75.5t45.5 50.5t60 27t64.5 9h97v87q0 44 -26.5 65.5t-73.5 21.5q-44 0 -74.5 -21t-30.5 -60v-29h-63v31q0 62 50 96t126 34q72 0 117.5 -34t45.5 -101v-257q0 -4 5 -129h-65l-4 81h-2q-22 -49 -64 -70.5t-85 -21.5zM210 43
q50 0 85 36t35 90v79h-86q-126 0 -126 -104q0 -49 26.5 -75t65.5 -26zM232 564q-40 0 -62.5 24.5t-22.5 59.5q0 37 24 62.5t60 25.5q40 0 63 -23t23 -60t-24 -63t-61 -26zM231 596q22 0 36 14t14 40t-13.5 40.5t-37.5 14.5q-21 0 -33.5 -15.5t-12.5 -41.5q0 -25 13 -38.5
t34 -13.5z" />
    <glyph glyph-name="ae" unicode="&#xe6;" horiz-adv-x="734" 
d="M190 -12q-61 0 -102.5 38.5t-41.5 107.5q0 43 17 75.5t45.5 50.5t60 27t64.5 9h97v87q0 43 -27.5 65t-74.5 22q-44 0 -73.5 -21t-29.5 -60v-29h-63v31q0 62 48.5 96t125.5 34q112 0 137 -71q45 71 144 71q79 0 124.5 -47t45.5 -131v-99h-287v-74q0 -123 131 -123
q58 0 123 37l25 -47q-59 -49 -159 -49q-133 0 -167 102q-25 -57 -71.5 -79.5t-91.5 -22.5zM212 43q49 0 83.5 36t34.5 90v79h-80q-132 0 -132 -104q0 -49 26.5 -75t67.5 -26zM400 296h220v51q0 51 -26 85.5t-83 34.5q-53 0 -82 -35t-29 -83v-53z" />
    <glyph glyph-name="ccedilla" unicode="&#xe7;" horiz-adv-x="449" 
d="M241 -197q-42 0 -81 12v39q43 -12 81 -12q50 0 50 33q0 30 -57 35l-33 2l19 77q-77 3 -121 48.5t-44 130.5v171q0 86 49 134t128 48q80 0 124.5 -39.5t44.5 -103.5v-27h-65v25q0 34 -24.5 62t-78.5 28q-56 0 -82 -34t-26 -89v-177q0 -122 112 -122q56 0 77.5 27.5
t21.5 65.5v24h65v-29q0 -59 -37 -97.5t-107 -45.5l-12 -47q100 -4 100 -66q0 -31 -29 -52t-75 -21z" />
    <glyph glyph-name="egrave" unicode="&#xe8;" horiz-adv-x="462" 
d="M244 -12q-87 0 -138 45.5t-51 138.5v155q0 91 52 142.5t133 51.5t126.5 -48t45.5 -132v-100h-286v-70q0 -124 128 -124q59 0 124 37l26 -47q-63 -49 -160 -49zM126 292h219v55q0 51 -26 85.5t-84 34.5q-54 0 -81.5 -35.5t-27.5 -84.5v-55zM221 576l-109 146h75l90 -146
h-56z" />
    <glyph glyph-name="eacute" unicode="&#xe9;" horiz-adv-x="462" 
d="M210 576l88 146h74l-107 -146h-55zM244 -12q-87 0 -138 45.5t-51 138.5v155q0 91 52 142.5t133 51.5t126.5 -48t45.5 -132v-100h-286v-70q0 -124 128 -124q59 0 124 37l26 -47q-63 -49 -160 -49zM126 292h219v55q0 51 -26 85.5t-84 34.5q-54 0 -81.5 -35.5t-27.5 -84.5
v-55z" />
    <glyph glyph-name="ecircumflex" unicode="&#xea;" horiz-adv-x="462" 
d="M120 574l91 149h53l88 -149h-60l-57 102l-57 -102h-58zM244 -12q-87 0 -138 45.5t-51 138.5v155q0 91 52 142.5t133 51.5t126.5 -48t45.5 -132v-100h-286v-70q0 -124 128 -124q59 0 124 37l26 -47q-63 -49 -160 -49zM126 292h219v55q0 51 -26 85.5t-84 34.5
q-54 0 -81.5 -35.5t-27.5 -84.5v-55z" />
    <glyph glyph-name="edieresis" unicode="&#xeb;" horiz-adv-x="462" 
d="M127 601v104h63v-104h-63zM281 601v104h62v-104h-62zM244 -12q-87 0 -138 45.5t-51 138.5v155q0 91 52 142.5t133 51.5t126.5 -48t45.5 -132v-100h-286v-70q0 -124 128 -124q59 0 124 37l26 -47q-63 -49 -160 -49zM126 292h219v55q0 51 -26 85.5t-84 34.5
q-54 0 -81.5 -35.5t-27.5 -84.5v-55z" />
    <glyph glyph-name="igrave" unicode="&#xec;" horiz-adv-x="218" 
d="M74 0v509h70v-509h-70zM77 576l-109 146h75l90 -146h-56z" />
    <glyph glyph-name="iacute" unicode="&#xed;" horiz-adv-x="218" 
d="M82 576l88 146h74l-107 -146h-55zM74 0v509h70v-509h-70z" />
    <glyph glyph-name="icircumflex" unicode="&#xee;" horiz-adv-x="218" 
d="M-7 574l91 149h53l88 -149h-60l-57 102l-57 -102h-58zM74 0v509h70v-509h-70z" />
    <glyph glyph-name="idieresis" unicode="&#xef;" horiz-adv-x="218" 
d="M6 601v104h63v-104h-63zM160 601v104h62v-104h-62zM74 0v509h70v-509h-70z" />
    <glyph glyph-name="eth" unicode="&#xf0;" horiz-adv-x="474" 
d="M237 -12q-85 0 -133.5 44t-48.5 131v173q0 81 48 128.5t121 47.5q31 0 56 -11l-64 102l-108 -31l-19 41l98 29l-43 68l72 20q14 -27 42 -67l105 31l18 -42l-96 -29q65 -98 103 -163q31 -47 31 -120v-170q0 -90 -48 -136t-134 -46zM238 44q110 0 110 124v170
q0 121 -106 121q-58 0 -87.5 -34t-29.5 -91v-172q0 -54 27.5 -86t85.5 -32z" />
    <glyph glyph-name="ntilde" unicode="&#xf1;" horiz-adv-x="497" 
d="M74 0v509h66v-86h1q48 98 159 98q57 0 92.5 -37.5t35.5 -92.5v-391h-70v372q0 93 -88 93q-47 0 -86.5 -41t-39.5 -96v-328h-70zM144 579l-40 6q5 39 27 65t57 26q24 0 72.5 -18.5t72.5 -18.5q32 0 47 46l36 -8q-6 -39 -28 -64t-55 -25q-26 0 -75 18t-70 18q-15 0 -24 -7
t-12.5 -14.5t-7.5 -23.5z" />
    <glyph glyph-name="ograve" unicode="&#xf2;" horiz-adv-x="474" 
d="M238 -12q-84 0 -133.5 47t-49.5 136v165q0 87 50.5 136t130.5 49q83 0 133 -47t50 -135v-165q0 -91 -50 -138.5t-131 -47.5zM239 45q110 0 110 128v170q0 55 -28 89t-85 34t-84 -35.5t-27 -92.5v-166q0 -127 114 -127zM210 576l-109 146h75l90 -146h-56z" />
    <glyph glyph-name="oacute" unicode="&#xf3;" horiz-adv-x="474" 
d="M201 576l88 146h74l-107 -146h-55zM238 -12q-84 0 -133.5 47t-49.5 136v165q0 87 50.5 136t130.5 49q83 0 133 -47t50 -135v-165q0 -91 -50 -138.5t-131 -47.5zM239 45q110 0 110 128v170q0 55 -28 89t-85 34t-84 -35.5t-27 -92.5v-166q0 -127 114 -127z" />
    <glyph glyph-name="ocircumflex" unicode="&#xf4;" horiz-adv-x="474" 
d="M121 574l91 149h53l88 -149h-60l-57 102l-57 -102h-58zM238 -12q-84 0 -133.5 47t-49.5 136v165q0 87 50.5 136t130.5 49q83 0 133 -47t50 -135v-165q0 -91 -50 -138.5t-131 -47.5zM239 45q110 0 110 128v170q0 55 -28 89t-85 34t-84 -35.5t-27 -92.5v-166
q0 -127 114 -127z" />
    <glyph glyph-name="otilde" unicode="&#xf5;" horiz-adv-x="474" 
d="M238 -12q-84 0 -133.5 47t-49.5 136v165q0 87 50.5 136t130.5 49q83 0 133 -47t50 -135v-165q0 -91 -50 -138.5t-131 -47.5zM239 45q110 0 110 128v170q0 55 -28 89t-85 34t-84 -35.5t-27 -92.5v-166q0 -127 114 -127zM118 579l-40 6q5 39 27 65t57 26q24 0 72.5 -18.5
t72.5 -18.5q32 0 47 46l36 -8q-6 -39 -28 -64t-55 -25q-26 0 -75 18t-70 18q-15 0 -24 -7t-12.5 -14.5t-7.5 -23.5z" />
    <glyph glyph-name="odieresis" unicode="&#xf6;" horiz-adv-x="474" 
d="M130 601v104h63v-104h-63zM284 601v104h62v-104h-62zM238 -12q-84 0 -133.5 47t-49.5 136v165q0 87 50.5 136t130.5 49q83 0 133 -47t50 -135v-165q0 -91 -50 -138.5t-131 -47.5zM239 45q110 0 110 128v170q0 55 -28 89t-85 34t-84 -35.5t-27 -92.5v-166q0 -127 114 -127
z" />
    <glyph glyph-name="divide" unicode="&#xf7;" 
d="M238 112v98h68v-98h-68zM79 293v51h381v-51h-381zM238 415v98h68v-98h-68z" />
    <glyph glyph-name="oslash" unicode="&#xf8;" horiz-adv-x="474" 
d="M119 -55l-38 18l31 65q-57 48 -57 143v165q0 87 50.5 136t130.5 49q58 0 101 -23l27 57l39 -19l-31 -65q47 -49 47 -132v-165q0 -91 -50 -138.5t-131 -47.5q-50 0 -90 17zM125 172q0 -50 17 -80l168 350q-29 24 -74 24q-57 0 -84 -35.5t-27 -92.5v-166zM239 45
q110 0 110 128v170q0 31 -11 59l-164 -342q26 -15 65 -15z" />
    <glyph glyph-name="ugrave" unicode="&#xf9;" horiz-adv-x="497" 
d="M202 -12q-58 0 -94.5 36t-36.5 94v391h70v-370q0 -50 21.5 -72t65.5 -22q50 0 88.5 41t38.5 98v325h70v-509h-63l-3 87h-2q-19 -46 -62 -72.5t-93 -26.5zM225 576l-109 146h75l90 -146h-56z" />
    <glyph glyph-name="uacute" unicode="&#xfa;" horiz-adv-x="497" 
d="M221 576l88 146h74l-107 -146h-55zM202 -12q-58 0 -94.5 36t-36.5 94v391h70v-370q0 -50 21.5 -72t65.5 -22q50 0 88.5 41t38.5 98v325h70v-509h-63l-3 87h-2q-19 -46 -62 -72.5t-93 -26.5z" />
    <glyph glyph-name="ucircumflex" unicode="&#xfb;" horiz-adv-x="497" 
d="M139 574l91 149h53l88 -149h-60l-57 102l-57 -102h-58zM202 -12q-58 0 -94.5 36t-36.5 94v391h70v-370q0 -50 21.5 -72t65.5 -22q50 0 88.5 41t38.5 98v325h70v-509h-63l-3 87h-2q-19 -46 -62 -72.5t-93 -26.5z" />
    <glyph glyph-name="udieresis" unicode="&#xfc;" horiz-adv-x="497" 
d="M145 601v104h63v-104h-63zM299 601v104h62v-104h-62zM202 -12q-58 0 -94.5 36t-36.5 94v391h70v-370q0 -50 21.5 -72t65.5 -22q50 0 88.5 41t38.5 98v325h70v-509h-63l-3 87h-2q-19 -46 -62 -72.5t-93 -26.5z" />
    <glyph glyph-name="yacute" unicode="&#xfd;" horiz-adv-x="426" 
d="M88 -190q-36 0 -63 8l5 59q32 -7 53 -7q28 0 45.5 15.5t30.5 52.5l23 78l-159 493h74l122 -402h1l121 402h64l-178 -568q-38 -131 -139 -131zM201 576l88 146h74l-107 -146h-55z" />
    <glyph glyph-name="thorn" unicode="&#xfe;" horiz-adv-x="486" 
d="M74 -180v893h70v-285h3q20 46 60.5 70t82.5 24q68 0 105 -42t37 -105v-225q0 -74 -44 -118t-108 -44q-42 0 -81 23.5t-53 64.5h-2v-256h-70zM265 41q44 0 70.5 27t26.5 80v218q0 43 -25 71t-75 28q-48 0 -83 -42.5t-35 -107.5v-129q0 -62 36.5 -103.5t84.5 -41.5z" />
    <glyph glyph-name="ydieresis" unicode="&#xff;" horiz-adv-x="426" 
d="M88 -190q-36 0 -63 8l5 59q32 -7 53 -7q28 0 45.5 15.5t30.5 52.5l23 78l-159 493h74l122 -402h1l121 402h64l-178 -568q-38 -131 -139 -131zM121 601v104h63v-104h-63zM275 601v104h62v-104h-62z" />
    <glyph glyph-name="Amacron" unicode="&#x100;" horiz-adv-x="568" 
d="M27 0l215 715h89l211 -715h-75l-65 225h-239l-66 -225h-70zM178 284h207l-102 354h-1zM148 794v53h270v-53h-270z" />
    <glyph glyph-name="amacron" unicode="&#x101;" horiz-adv-x="469" 
d="M186 -11q-59 0 -99.5 38t-40.5 107q0 43 17 75.5t45.5 50.5t60 27t64.5 9h97v87q0 44 -26.5 65.5t-73.5 21.5q-44 0 -74.5 -21t-30.5 -60v-29h-63v31q0 62 50 96t126 34q72 0 117.5 -34t45.5 -101v-257q0 -4 5 -129h-65l-4 81h-2q-22 -49 -64 -70.5t-85 -21.5zM210 43
q50 0 85 36t35 90v79h-86q-126 0 -126 -104q0 -49 26.5 -75t65.5 -26zM99 603v53h270v-53h-270z" />
    <glyph glyph-name="Abreve" unicode="&#x102;" horiz-adv-x="568" 
d="M27 0l215 715h89l211 -715h-75l-65 225h-239l-66 -225h-70zM178 284h207l-102 354h-1zM284 770q-63 0 -102.5 35.5t-41.5 95.5h51q12 -84 97 -84q38 0 60.5 23t27.5 61h49q-3 -62 -44 -96.5t-97 -34.5z" />
    <glyph glyph-name="abreve" unicode="&#x103;" horiz-adv-x="469" 
d="M186 -11q-59 0 -99.5 38t-40.5 107q0 43 17 75.5t45.5 50.5t60 27t64.5 9h97v87q0 44 -26.5 65.5t-73.5 21.5q-44 0 -74.5 -21t-30.5 -60v-29h-63v31q0 62 50 96t126 34q72 0 117.5 -34t45.5 -101v-257q0 -4 5 -129h-65l-4 81h-2q-22 -49 -64 -70.5t-85 -21.5zM210 43
q50 0 85 36t35 90v79h-86q-126 0 -126 -104q0 -49 26.5 -75t65.5 -26zM235 579q-63 0 -102.5 35.5t-41.5 95.5h51q12 -84 97 -84q38 0 60.5 23t27.5 61h49q-3 -62 -44 -96.5t-97 -34.5z" />
    <glyph glyph-name="Aogonek" unicode="&#x104;" horiz-adv-x="568" 
d="M495 -193q-38 0 -64 21.5t-26 61.5q0 33 17.5 62t44.5 48l-65 225h-239l-66 -225h-70l215 715h89l211 -715h-20q-68 -35 -68 -99q0 -52 50 -52q29 0 50 15l19 -35q-29 -22 -78 -22zM178 284h207l-102 354h-1z" />
    <glyph glyph-name="aogonek" unicode="&#x105;" horiz-adv-x="469" 
d="M363 -193q-38 0 -64 21.5t-26 61.5q0 34 19.5 64.5t47.5 49.5l-3 77h-2q-22 -49 -64 -70.5t-85 -21.5q-59 0 -99.5 38t-40.5 107q0 43 17 75.5t45.5 50.5t60 27t64.5 9h97v87q0 44 -26.5 65.5t-73.5 21.5q-44 0 -74.5 -21t-30.5 -60v-29h-63v31q0 62 50 96t126 34
q72 0 117.5 -34t45.5 -101v-257q0 -4 5 -129h-16q-68 -35 -68 -99q0 -52 50 -52q29 0 50 15l19 -35q-29 -22 -78 -22zM210 43q50 0 85 36t35 90v79h-86q-126 0 -126 -104q0 -49 26.5 -75t65.5 -26z" />
    <glyph glyph-name="Cacute" unicode="&#x106;" horiz-adv-x="562" 
d="M260 767l88 146h74l-107 -146h-55zM292 -12q-105 0 -169 54t-64 156v315q0 96 64.5 154t168.5 58q95 0 154 -51t59 -130v-55h-67v40q0 60 -38 97t-111 37q-74 0 -114.5 -42.5t-40.5 -111.5v-302q0 -79 42.5 -117.5t115.5 -38.5q69 0 107.5 35t38.5 92v47h67v-53
q0 -84 -58.5 -134t-154.5 -50z" />
    <glyph glyph-name="cacute" unicode="&#x107;" horiz-adv-x="449" 
d="M196 576l88 146h74l-107 -146h-55zM233 -12q-83 0 -130.5 46t-47.5 134v171q0 86 49 134t128 48q80 0 124.5 -39.5t44.5 -103.5v-27h-65v25q0 34 -24.5 62t-78.5 28q-56 0 -82 -34t-26 -89v-177q0 -122 112 -122q56 0 77.5 27.5t21.5 65.5v24h65v-29q0 -64 -43.5 -104
t-124.5 -40z" />
    <glyph glyph-name="Ccircumflex" unicode="&#x108;" horiz-adv-x="562" 
d="M168 765l91 149h53l88 -149h-60l-57 102l-57 -102h-58zM292 -12q-105 0 -169 54t-64 156v315q0 96 64.5 154t168.5 58q95 0 154 -51t59 -130v-55h-67v40q0 60 -38 97t-111 37q-74 0 -114.5 -42.5t-40.5 -111.5v-302q0 -79 42.5 -117.5t115.5 -38.5q69 0 107.5 35t38.5 92
v47h67v-53q0 -84 -58.5 -134t-154.5 -50z" />
    <glyph glyph-name="ccircumflex" unicode="&#x109;" horiz-adv-x="449" 
d="M115 574l91 149h53l88 -149h-60l-57 102l-57 -102h-58zM233 -12q-83 0 -130.5 46t-47.5 134v171q0 86 49 134t128 48q80 0 124.5 -39.5t44.5 -103.5v-27h-65v25q0 34 -24.5 62t-78.5 28q-56 0 -82 -34t-26 -89v-177q0 -122 112 -122q56 0 77.5 27.5t21.5 65.5v24h65v-29
q0 -64 -43.5 -104t-124.5 -40z" />
    <glyph glyph-name="Cdotaccent" unicode="&#x10a;" horiz-adv-x="562" 
d="M292 -12q-105 0 -169 54t-64 156v315q0 96 64.5 154t168.5 58q95 0 154 -51t59 -130v-55h-67v40q0 60 -38 97t-111 37q-74 0 -114.5 -42.5t-40.5 -111.5v-302q0 -79 42.5 -117.5t115.5 -38.5q69 0 107.5 35t38.5 92v47h67v-53q0 -84 -58.5 -134t-154.5 -50zM253 792v107
h65v-107h-65z" />
    <glyph glyph-name="cdotaccent" unicode="&#x10b;" horiz-adv-x="449" 
d="M233 -12q-83 0 -130.5 46t-47.5 134v171q0 86 49 134t128 48q80 0 124.5 -39.5t44.5 -103.5v-27h-65v25q0 34 -24.5 62t-78.5 28q-56 0 -82 -34t-26 -89v-177q0 -122 112 -122q56 0 77.5 27.5t21.5 65.5v24h65v-29q0 -64 -43.5 -104t-124.5 -40zM201 601v107h65v-107h-65
z" />
    <glyph glyph-name="Ccaron" unicode="&#x10c;" horiz-adv-x="562" 
d="M256 767l-89 148h60l57 -102l57 102h60l-93 -148h-52zM292 -12q-105 0 -169 54t-64 156v315q0 96 64.5 154t168.5 58q95 0 154 -51t59 -130v-55h-67v40q0 60 -38 97t-111 37q-74 0 -114.5 -42.5t-40.5 -111.5v-302q0 -79 42.5 -117.5t115.5 -38.5q69 0 107.5 35t38.5 92
v47h67v-53q0 -84 -58.5 -134t-154.5 -50z" />
    <glyph glyph-name="ccaron" unicode="&#x10d;" horiz-adv-x="449" 
d="M209 576l-89 148h60l57 -102l57 102h60l-93 -148h-52zM233 -12q-83 0 -130.5 46t-47.5 134v171q0 86 49 134t128 48q80 0 124.5 -39.5t44.5 -103.5v-27h-65v25q0 34 -24.5 62t-78.5 28q-56 0 -82 -34t-26 -89v-177q0 -122 112 -122q56 0 77.5 27.5t21.5 65.5v24h65v-29
q0 -64 -43.5 -104t-124.5 -40z" />
    <glyph glyph-name="Dcaron" unicode="&#x10e;" horiz-adv-x="583" 
d="M257 767l-89 148h60l57 -102l57 102h60l-93 -148h-52zM78 0v713h230q98 0 156.5 -50t58.5 -146v-310q0 -99 -59 -153t-156 -54h-230zM152 63h146q76 0 113 41t37 103v300q0 64 -37.5 103.5t-110.5 39.5h-148v-587z" />
    <glyph glyph-name="dcaron" unicode="&#x10f;" horiz-adv-x="486" 
d="M452 551l7 162h61l-18 -162h-50zM196 -12q-68 0 -104.5 42t-36.5 106v225q0 74 45 117t108 43q42 0 79 -22.5t54 -62.5h1v277h71v-713h-64l-2 91h-3q-24 -53 -64 -78t-84 -25zM220 45q49 0 86 43t37 110v127q0 59 -38 102t-84 43q-43 0 -69.5 -26.5t-26.5 -83.5v-215
q0 -100 95 -100z" />
    <glyph glyph-name="Dcroat" unicode="&#x110;" horiz-adv-x="600" 
d="M32 345v53h63v315h230q98 0 156.5 -50t58.5 -146v-310q0 -99 -59 -153t-156 -54h-230v345h-63zM169 63h146q76 0 113 41t37 103v300q0 64 -37.5 103.5t-110.5 39.5h-148v-252h165v-53h-165v-282z" />
    <glyph glyph-name="dcroat" unicode="&#x111;" horiz-adv-x="486" 
d="M205 585v43h137v85h71v-85h54v-43h-54v-585h-64l-2 91h-3q-24 -53 -64 -78t-84 -25q-68 0 -104.5 42t-36.5 106v225q0 74 45 117t108 43q42 0 79 -22.5t54 -62.5h1v149h-137zM220 45q49 0 86 43t37 110v127q0 59 -38 102t-84 43q-43 0 -69.5 -26.5t-26.5 -83.5v-215
q0 -100 95 -100z" />
    <glyph glyph-name="Emacron" unicode="&#x112;" horiz-adv-x="515" 
d="M78 0v713h387v-64h-313v-248h249v-63h-249v-274h313v-64h-387zM134 794v53h270v-53h-270z" />
    <glyph glyph-name="emacron" unicode="&#x113;" horiz-adv-x="462" 
d="M244 -12q-87 0 -138 45.5t-51 138.5v155q0 91 52 142.5t133 51.5t126.5 -48t45.5 -132v-100h-286v-70q0 -124 128 -124q59 0 124 37l26 -47q-63 -49 -160 -49zM126 292h219v55q0 51 -26 85.5t-84 34.5q-54 0 -81.5 -35.5t-27.5 -84.5v-55zM95 603v53h270v-53h-270z" />
    <glyph glyph-name="Ebreve" unicode="&#x114;" horiz-adv-x="515" 
d="M78 0v713h387v-64h-313v-248h249v-63h-249v-274h313v-64h-387zM279 770q-63 0 -102.5 35.5t-41.5 95.5h51q12 -84 97 -84q38 0 60.5 23t27.5 61h49q-3 -62 -44 -96.5t-97 -34.5z" />
    <glyph glyph-name="ebreve" unicode="&#x115;" horiz-adv-x="462" 
d="M244 -12q-87 0 -138 45.5t-51 138.5v155q0 91 52 142.5t133 51.5t126.5 -48t45.5 -132v-100h-286v-70q0 -124 128 -124q59 0 124 37l26 -47q-63 -49 -160 -49zM126 292h219v55q0 51 -26 85.5t-84 34.5q-54 0 -81.5 -35.5t-27.5 -84.5v-55zM231 579q-63 0 -102.5 35.5
t-41.5 95.5h51q12 -84 97 -84q38 0 60.5 23t27.5 61h49q-3 -62 -44 -96.5t-97 -34.5z" />
    <glyph glyph-name="Edotaccent" unicode="&#x116;" horiz-adv-x="515" 
d="M78 0v713h387v-64h-313v-248h249v-63h-249v-274h313v-64h-387zM250 792v107h65v-107h-65z" />
    <glyph glyph-name="edotaccent" unicode="&#x117;" horiz-adv-x="462" 
d="M244 -12q-87 0 -138 45.5t-51 138.5v155q0 91 52 142.5t133 51.5t126.5 -48t45.5 -132v-100h-286v-70q0 -124 128 -124q59 0 124 37l26 -47q-63 -49 -160 -49zM126 292h219v55q0 51 -26 85.5t-84 34.5q-54 0 -81.5 -35.5t-27.5 -84.5v-55zM208 601v107h65v-107h-65z" />
    <glyph glyph-name="Eogonek" unicode="&#x118;" horiz-adv-x="515" 
d="M78 0v713h387v-64h-313v-248h249v-63h-249v-274h313v-64h-24q-68 -35 -68 -99q0 -52 50 -52q29 0 50 15l19 -35q-29 -22 -78 -22q-38 0 -64 21.5t-26 61.5q0 64 61 110h-307z" />
    <glyph glyph-name="eogonek" unicode="&#x119;" horiz-adv-x="462" 
d="M244 -12q-87 0 -138 45.5t-51 138.5v155q0 91 52 142.5t133 51.5t126.5 -48t45.5 -132v-100h-286v-70q0 -124 128 -124q59 0 124 37l26 -47q-17 -14 -31 -20q-28 -17 -47.5 -49t-19.5 -67q0 -24 13 -38.5t38 -14.5q26 0 50 16l18 -35q-29 -22 -78 -22q-37 0 -63 21.5
t-26 61.5q0 56 45 103q-32 -5 -59 -5zM126 292h219v55q0 51 -26 85.5t-84 34.5q-54 0 -81.5 -35.5t-27.5 -84.5v-55z" />
    <glyph glyph-name="Ecaron" unicode="&#x11a;" horiz-adv-x="515" 
d="M250 767l-89 148h60l57 -102l57 102h60l-93 -148h-52zM78 0v713h387v-64h-313v-248h249v-63h-249v-274h313v-64h-387z" />
    <glyph glyph-name="ecaron" unicode="&#x11b;" horiz-adv-x="462" 
d="M209 576l-89 148h60l57 -102l57 102h60l-93 -148h-52zM244 -12q-87 0 -138 45.5t-51 138.5v155q0 91 52 142.5t133 51.5t126.5 -48t45.5 -132v-100h-286v-70q0 -124 128 -124q59 0 124 37l26 -47q-63 -49 -160 -49zM126 292h219v55q0 51 -26 85.5t-84 34.5
q-54 0 -81.5 -35.5t-27.5 -84.5v-55z" />
    <glyph glyph-name="Gcircumflex" unicode="&#x11c;" horiz-adv-x="578" 
d="M172 765l91 149h53l88 -149h-60l-57 102l-57 -102h-58zM292 -12q-104 0 -168.5 54t-64.5 156v311q0 96 65.5 156.5t167.5 60.5q97 0 157.5 -51t60.5 -130v-51h-68v41q0 57 -41 93t-110 36q-74 0 -116 -44.5t-42 -113.5v-303q0 -72 42 -112t118 -40q78 0 114 37t36 98v124
h-149v59h219v-192q0 -84 -60.5 -136.5t-160.5 -52.5z" />
    <glyph glyph-name="gcircumflex" unicode="&#x11d;" horiz-adv-x="485" 
d="M111 574l91 149h53l88 -149h-60l-57 102l-57 -102h-58zM222 -188q-99 0 -163 39l24 56q66 -37 135 -37q59 0 92 30t33 89v116h-1q-21 -48 -60 -71.5t-83 -23.5q-68 0 -106 40.5t-38 104.5v213q0 72 46.5 113t108.5 41q42 0 82.5 -23t56.5 -67h1l3 78h60v-510
q0 -90 -51 -139t-140 -49zM222 66q48 0 84 42.5t36 109.5v117q0 58 -37 96.5t-82 38.5q-44 0 -71 -29t-27 -82v-193q0 -100 97 -100z" />
    <glyph glyph-name="Gbreve" unicode="&#x11e;" horiz-adv-x="578" 
d="M292 -12q-104 0 -168.5 54t-64.5 156v311q0 96 65.5 156.5t167.5 60.5q97 0 157.5 -51t60.5 -130v-51h-68v41q0 57 -41 93t-110 36q-74 0 -116 -44.5t-42 -113.5v-303q0 -72 42 -112t118 -40q78 0 114 37t36 98v124h-149v59h219v-192q0 -84 -60.5 -136.5t-160.5 -52.5z
M290 770q-63 0 -102.5 35.5t-41.5 95.5h51q12 -84 97 -84q38 0 60.5 23t27.5 61h49q-3 -62 -44 -96.5t-97 -34.5z" />
    <glyph glyph-name="gbreve" unicode="&#x11f;" horiz-adv-x="485" 
d="M222 -188q-99 0 -163 39l24 56q66 -37 135 -37q59 0 92 30t33 89v116h-1q-21 -48 -60 -71.5t-83 -23.5q-68 0 -106 40.5t-38 104.5v213q0 72 46.5 113t108.5 41q42 0 82.5 -23t56.5 -67h1l3 78h60v-510q0 -90 -51 -139t-140 -49zM222 66q48 0 84 42.5t36 109.5v117
q0 58 -37 96.5t-82 38.5q-44 0 -71 -29t-27 -82v-193q0 -100 97 -100zM220 579q-63 0 -102.5 35.5t-41.5 95.5h51q12 -84 97 -84q38 0 60.5 23t27.5 61h49q-3 -62 -44 -96.5t-97 -34.5z" />
    <glyph glyph-name="Gdotaccent" unicode="&#x120;" horiz-adv-x="578" 
d="M292 -12q-104 0 -168.5 54t-64.5 156v311q0 96 65.5 156.5t167.5 60.5q97 0 157.5 -51t60.5 -130v-51h-68v41q0 57 -41 93t-110 36q-74 0 -116 -44.5t-42 -113.5v-303q0 -72 42 -112t118 -40q78 0 114 37t36 98v124h-149v59h219v-192q0 -84 -60.5 -136.5t-160.5 -52.5z
M255 792v107h65v-107h-65z" />
    <glyph glyph-name="gdotaccent" unicode="&#x121;" horiz-adv-x="485" 
d="M222 -188q-99 0 -163 39l24 56q66 -37 135 -37q59 0 92 30t33 89v116h-1q-21 -48 -60 -71.5t-83 -23.5q-68 0 -106 40.5t-38 104.5v213q0 72 46.5 113t108.5 41q42 0 82.5 -23t56.5 -67h1l3 78h60v-510q0 -90 -51 -139t-140 -49zM222 66q48 0 84 42.5t36 109.5v117
q0 58 -37 96.5t-82 38.5q-44 0 -71 -29t-27 -82v-193q0 -100 97 -100zM196 601v107h65v-107h-65z" />
    <glyph glyph-name="Gcommaaccent" unicode="&#x122;" horiz-adv-x="578" 
d="M257 -192l5 155h64l-20 -155h-49zM292 -12q-104 0 -168.5 54t-64.5 156v311q0 96 65.5 156.5t167.5 60.5q97 0 157.5 -51t60.5 -130v-51h-68v41q0 57 -41 93t-110 36q-74 0 -116 -44.5t-42 -113.5v-303q0 -72 42 -112t118 -40q78 0 114 37t36 98v124h-149v59h219v-192
q0 -84 -60.5 -136.5t-160.5 -52.5z" />
    <glyph glyph-name="gcommaaccent" unicode="&#x123;" horiz-adv-x="485" 
d="M222 -188q-99 0 -163 39l24 56q66 -37 135 -37q59 0 92 30t33 89v116h-1q-21 -48 -60 -71.5t-83 -23.5q-68 0 -106 40.5t-38 104.5v213q0 72 46.5 113t108.5 41q42 0 82.5 -23t56.5 -67h1l3 78h60v-510q0 -90 -51 -139t-140 -49zM222 66q48 0 84 42.5t36 109.5v117
q0 58 -37 96.5t-82 38.5q-44 0 -71 -29t-27 -82v-193q0 -100 97 -100zM194 586v70l23 82h33l-13 -71h22v-81h-65z" />
    <glyph glyph-name="Hcircumflex" unicode="&#x124;" horiz-adv-x="610" 
d="M188 765l91 149h53l88 -149h-60l-57 102l-57 -102h-58zM78 0v713h74v-311h307v311h74v-713h-74v335h-307v-335h-74z" />
    <glyph glyph-name="hcircumflex" unicode="&#x125;" horiz-adv-x="498" 
d="M-4 765l91 149h53l88 -149h-60l-57 102l-57 -102h-58zM74 0v713h70v-288h2q22 48 63 72t91 24q58 0 93 -37t35 -93v-391h-70v370q0 51 -21.5 73t-66.5 22q-47 0 -86.5 -42t-39.5 -98v-325h-70z" />
    <glyph glyph-name="Hbar" unicode="&#x126;" horiz-adv-x="640" 
d="M27 557v46h65v110h74v-110h307v110h74v-110h66v-46h-66v-557h-74v335h-307v-335h-74v557h-65zM166 402h307v155h-307v-155z" />
    <glyph glyph-name="hbar" unicode="&#x127;" horiz-adv-x="498" 
d="M28 585v43h46v85h70v-85h139v-43h-139v-160h2q22 48 63 72t91 24q58 0 93 -37t35 -93v-391h-70v370q0 51 -21.5 73t-66.5 22q-47 0 -86.5 -42t-39.5 -98v-325h-70v585h-46z" />
    <glyph glyph-name="Itilde" unicode="&#x128;" horiz-adv-x="230" 
d="M78 0v713h74v-713h-74zM0 770l-40 6q5 39 27 65t57 26q24 0 72.5 -18.5t72.5 -18.5q32 0 47 46l36 -8q-6 -39 -28 -64t-55 -25q-26 0 -75 18t-70 18q-15 0 -24 -7t-12.5 -14.5t-7.5 -23.5z" />
    <glyph glyph-name="itilde" unicode="&#x129;" horiz-adv-x="218" 
d="M74 0v509h70v-509h-70zM-6 579l-40 6q5 39 27 65t57 26q24 0 72.5 -18.5t72.5 -18.5q32 0 47 46l36 -8q-6 -39 -28 -64t-55 -25q-26 0 -75 18t-70 18q-15 0 -24 -7t-12.5 -14.5t-7.5 -23.5z" />
    <glyph glyph-name="Imacron" unicode="&#x12a;" horiz-adv-x="230" 
d="M78 0v713h74v-713h-74zM-19 794v53h270v-53h-270z" />
    <glyph glyph-name="imacron" unicode="&#x12b;" horiz-adv-x="218" 
d="M74 0v509h70v-509h-70zM-25 603v53h270v-53h-270z" />
    <glyph glyph-name="Ibreve" unicode="&#x12c;" horiz-adv-x="230" 
d="M78 0v713h74v-713h-74zM118 770q-63 0 -102.5 35.5t-41.5 95.5h51q12 -84 97 -84q38 0 60.5 23t27.5 61h49q-3 -62 -44 -96.5t-97 -34.5z" />
    <glyph glyph-name="ibreve" unicode="&#x12d;" horiz-adv-x="218" 
d="M74 0v509h70v-509h-70zM111 579q-63 0 -102.5 35.5t-41.5 95.5h51q12 -84 97 -84q38 0 60.5 23t27.5 61h49q-3 -62 -44 -96.5t-97 -34.5z" />
    <glyph glyph-name="Iogonek" unicode="&#x12e;" horiz-adv-x="230" 
d="M78 0v713h74v-713h-10q-53 -33 -53 -97q0 -53 49 -53q18 0 31 8l14 -36q-23 -14 -58 -14q-36 0 -61 22.5t-25 62.5q0 61 52 107h-13z" />
    <glyph glyph-name="iogonek" unicode="&#x12f;" horiz-adv-x="218" 
d="M74 0v509h70v-507l1 -1l-1 -1h-1q-53 -33 -53 -97q0 -53 49 -53q18 0 31 8l14 -36q-23 -14 -58 -14q-36 0 -61 22.5t-25 62.5q0 61 52 107h-18zM74 596v107h70v-107h-70z" />
    <glyph glyph-name="Idotaccent" unicode="&#x130;" horiz-adv-x="230" 
d="M78 0v713h74v-713h-74zM80 792v107h65v-107h-65z" />
    <glyph glyph-name="dotlessi" unicode="&#x131;" horiz-adv-x="218" 
d="M74 0v509h70v-509h-70z" />
    <glyph glyph-name="IJ" unicode="&#x132;" horiz-adv-x="723" 
d="M78 0v713h74v-713h-74zM441 -12q-97 0 -152 49t-55 143v72h72v-66q0 -135 135 -135q70 0 102 38.5t32 93.5v530h74v-514q0 -96 -52.5 -153.5t-155.5 -57.5z" />
    <glyph glyph-name="ij" unicode="&#x133;" horiz-adv-x="416" 
d="M74 0v509h70v-509h-70zM74 596v107h70v-107h-70zM223 -188q-24 0 -45 3v58q14 -2 29 -2q38 0 51.5 20t13.5 59v559h70v-572q0 -125 -119 -125zM272 596v107h70v-107h-70z" />
    <glyph glyph-name="Jcircumflex" unicode="&#x134;" horiz-adv-x="521" 
d="M207 772l91 149h53l88 -149h-60l-57 102l-57 -102h-58zM241 -12q-97 0 -152 49t-55 143v72h72v-66q0 -135 135 -135q70 0 102 38.5t32 93.5v530h74v-514q0 -96 -52.5 -153.5t-155.5 -57.5z" />
    <glyph glyph-name="jcircumflex" unicode="&#x135;" horiz-adv-x="229" 
d="M36 -188q-24 0 -45 3v58q14 -2 29 -2q38 0 51.5 20t13.5 59v559h70v-572q0 -125 -119 -125zM-1 574l91 149h53l88 -149h-60l-57 102l-57 -102h-58z" />
    <glyph glyph-name="Kcommaaccent" unicode="&#x136;" horiz-adv-x="562" 
d="M244 -192l5 155h64l-20 -155h-49zM78 0v713h74v-376l294 376h81l-217 -275l219 -438h-84l-188 379l-105 -133v-246h-74z" />
    <glyph glyph-name="kcommaaccent" unicode="&#x137;" horiz-adv-x="445" 
d="M195 -192l5 155h64l-20 -155h-49zM74 0v713h70v-456l192 252h80l-137 -174l143 -335h-74l-120 282l-84 -106v-176h-70z" />
    <glyph glyph-name="kgreenlandic" unicode="&#x138;" horiz-adv-x="445" 
d="M74 0v509h70v-252l192 252h80l-137 -174l143 -335h-74l-120 282l-84 -106v-176h-70z" />
    <glyph glyph-name="Lacute" unicode="&#x139;" horiz-adv-x="501" 
d="M96 767l88 146h74l-107 -146h-55zM78 0v713h74v-649h313v-64h-387z" />
    <glyph glyph-name="lacute" unicode="&#x13a;" horiz-adv-x="274" 
d="M82 765l88 146h74l-107 -146h-55zM179 -6q-51 0 -78.5 27.5t-27.5 78.5v613h70v-601q0 -57 59 -57q19 0 43 4v-55q-29 -10 -66 -10z" />
    <glyph glyph-name="Lcommaaccent" unicode="&#x13b;" horiz-adv-x="501" 
d="M229 -192l5 155h64l-20 -155h-49zM78 0v713h74v-649h313v-64h-387z" />
    <glyph glyph-name="lcommaaccent" unicode="&#x13c;" horiz-adv-x="274" 
d="M116 -192l5 155h64l-20 -155h-49zM179 -6q-51 0 -78.5 27.5t-27.5 78.5v613h70v-601q0 -57 59 -57q19 0 43 4v-55q-29 -10 -66 -10z" />
    <glyph glyph-name="Lcaron" unicode="&#x13d;" horiz-adv-x="501" 
d="M259 551l7 162h61l-18 -162h-50zM78 0v713h74v-649h313v-64h-387z" />
    <glyph glyph-name="lcaron" unicode="&#x13e;" horiz-adv-x="274" 
d="M200 551l7 162h61l-18 -162h-50zM179 -6q-51 0 -78.5 27.5t-27.5 78.5v613h70v-601q0 -57 59 -57q19 0 43 4v-55q-29 -10 -66 -10z" />
    <glyph glyph-name="Ldot" unicode="&#x13f;" horiz-adv-x="501" 
d="M78 0v713h74v-649h313v-64h-387z" />
    <glyph glyph-name="ldot" unicode="&#x140;" horiz-adv-x="289" 
d="M179 -6q-51 0 -78.5 27.5t-27.5 78.5v613h70v-601q0 -57 59 -57q19 0 43 4v-55q-29 -10 -66 -10z" />
    <glyph glyph-name="Lslash" unicode="&#x141;" horiz-adv-x="519" 
d="M32 231v61l63 49v372h74v-313l126 99v-62l-126 -99v-274h313v-64h-387v280z" />
    <glyph glyph-name="lslash" unicode="&#x142;" horiz-adv-x="291" 
d="M30 244v59l58 59v351h70v-279l72 75v-59l-72 -75v-263q0 -57 59 -57q19 0 43 4v-55q-29 -10 -66 -10q-51 0 -78.5 27.5t-27.5 78.5v203z" />
    <glyph glyph-name="Nacute" unicode="&#x143;" horiz-adv-x="608" 
d="M255 774l88 146h74l-107 -146h-55zM78 0v713h75l310 -564h2v564h66v-713h-65l-320 589h-2v-589h-66z" />
    <glyph glyph-name="nacute" unicode="&#x144;" horiz-adv-x="497" 
d="M219 576l88 146h74l-107 -146h-55zM74 0v509h66v-86h1q48 98 159 98q57 0 92.5 -37.5t35.5 -92.5v-391h-70v372q0 93 -88 93q-47 0 -86.5 -41t-39.5 -96v-328h-70z" />
    <glyph glyph-name="Ncommaaccent" unicode="&#x145;" horiz-adv-x="608" 
d="M267 -192l5 155h64l-20 -155h-49zM78 0v713h75l310 -564h2v564h66v-713h-65l-320 589h-2v-589h-66z" />
    <glyph glyph-name="ncommaaccent" unicode="&#x146;" horiz-adv-x="497" 
d="M212 -192l5 155h64l-20 -155h-49zM74 0v509h66v-86h1q48 98 159 98q57 0 92.5 -37.5t35.5 -92.5v-391h-70v372q0 93 -88 93q-47 0 -86.5 -41t-39.5 -96v-328h-70z" />
    <glyph glyph-name="Ncaron" unicode="&#x147;" horiz-adv-x="608" 
d="M275 767l-89 148h60l57 -102l57 102h60l-93 -148h-52zM78 0v713h75l310 -564h2v564h66v-713h-65l-320 589h-2v-589h-66z" />
    <glyph glyph-name="ncaron" unicode="&#x148;" horiz-adv-x="497" 
d="M220 576l-89 148h60l57 -102l57 102h60l-93 -148h-52zM74 0v509h66v-86h1q48 98 159 98q57 0 92.5 -37.5t35.5 -92.5v-391h-70v372q0 93 -88 93q-47 0 -86.5 -41t-39.5 -96v-328h-70z" />
    <glyph glyph-name="Eng" unicode="&#x14a;" horiz-adv-x="608" 
d="M412 -188q-24 0 -45 3v58q14 -2 29 -2q38 0 51.5 20t13.5 59v59l-315 580h-2v-589h-66v713h75l310 -564h2v564h66v-776q0 -125 -119 -125z" />
    <glyph glyph-name="eng" unicode="&#x14b;" horiz-adv-x="497" 
d="M309 -188q-24 0 -45 3v58q14 -2 29 -2q38 0 51.5 20t13.5 59v422q0 93 -88 93q-47 0 -86.5 -41t-39.5 -96v-328h-70v509h66v-86h1q48 98 159 98q57 0 92.5 -37.5t35.5 -92.5v-454q0 -125 -119 -125z" />
    <glyph glyph-name="Omacron" unicode="&#x14c;" horiz-adv-x="586" 
d="M162 794v53h270v-53h-270zM293 -12q-105 0 -169.5 54.5t-64.5 160.5v297q0 106 65 166t169 60t169 -54.5t65 -158.5v-298q0 -108 -65 -167.5t-169 -59.5zM294 54q73 0 115.5 42.5t42.5 112.5v303q0 70 -43 109.5t-119 39.5q-74 0 -115 -43t-41 -119v-291q0 -71 42 -112.5
t118 -41.5z" />
    <glyph glyph-name="omacron" unicode="&#x14d;" horiz-adv-x="474" 
d="M101 603v53h270v-53h-270zM238 -12q-84 0 -133.5 47t-49.5 136v165q0 87 50.5 136t130.5 49q83 0 133 -47t50 -135v-165q0 -91 -50 -138.5t-131 -47.5zM239 45q110 0 110 128v170q0 55 -28 89t-85 34t-84 -35.5t-27 -92.5v-166q0 -127 114 -127z" />
    <glyph glyph-name="Obreve" unicode="&#x14e;" horiz-adv-x="586" 
d="M293 -12q-105 0 -169.5 54.5t-64.5 160.5v297q0 106 65 166t169 60t169 -54.5t65 -158.5v-298q0 -108 -65 -167.5t-169 -59.5zM294 54q73 0 115.5 42.5t42.5 112.5v303q0 70 -43 109.5t-119 39.5q-74 0 -115 -43t-41 -119v-291q0 -71 42 -112.5t118 -41.5zM293 770
q-63 0 -102.5 35.5t-41.5 95.5h51q12 -84 97 -84q38 0 60.5 23t27.5 61h49q-3 -62 -44 -96.5t-97 -34.5z" />
    <glyph glyph-name="obreve" unicode="&#x14f;" horiz-adv-x="474" 
d="M238 -12q-84 0 -133.5 47t-49.5 136v165q0 87 50.5 136t130.5 49q83 0 133 -47t50 -135v-165q0 -91 -50 -138.5t-131 -47.5zM239 45q110 0 110 128v170q0 55 -28 89t-85 34t-84 -35.5t-27 -92.5v-166q0 -127 114 -127zM238 579q-63 0 -102.5 35.5t-41.5 95.5h51
q12 -84 97 -84q38 0 60.5 23t27.5 61h49q-3 -62 -44 -96.5t-97 -34.5z" />
    <glyph glyph-name="Ohungarumlaut" unicode="&#x150;" horiz-adv-x="586" 
d="M192 762l54 136h66l-68 -136h-52zM322 762l57 136h66l-72 -136h-51zM293 -12q-105 0 -169.5 54.5t-64.5 160.5v297q0 106 65 166t169 60t169 -54.5t65 -158.5v-298q0 -108 -65 -167.5t-169 -59.5zM294 54q73 0 115.5 42.5t42.5 112.5v303q0 70 -43 109.5t-119 39.5
q-74 0 -115 -43t-41 -119v-291q0 -71 42 -112.5t118 -41.5z" />
    <glyph glyph-name="ohungarumlaut" unicode="&#x151;" horiz-adv-x="474" 
d="M138 571l54 136h66l-68 -136h-52zM268 571l57 136h66l-72 -136h-51zM238 -12q-84 0 -133.5 47t-49.5 136v165q0 87 50.5 136t130.5 49q83 0 133 -47t50 -135v-165q0 -91 -50 -138.5t-131 -47.5zM239 45q110 0 110 128v170q0 55 -28 89t-85 34t-84 -35.5t-27 -92.5v-166
q0 -127 114 -127z" />
    <glyph glyph-name="OE" unicode="&#x152;" horiz-adv-x="890" 
d="M284 -11q-102 0 -163.5 53.5t-61.5 160.5v299q0 105 62 164.5t165 59.5q119 0 166 -81v68h387v-63h-313v-249h249v-64h-249v-273h314v-64h-388v77q-22 -41 -66 -64.5t-102 -23.5zM294 51q73 0 115.5 44t42.5 114v306q0 69 -43 108.5t-119 39.5q-74 0 -115 -43.5
t-41 -119.5v-292q0 -72 42.5 -114.5t117.5 -42.5z" />
    <glyph glyph-name="oe" unicode="&#x153;" horiz-adv-x="755" 
d="M238 -12q-84 0 -133.5 47t-49.5 136v165q0 87 50.5 136t130.5 49q100 0 148 -78q48 78 149 78q80 0 126 -49t46 -133v-98h-286v-72q0 -122 130 -122q59 0 122 36l25 -46q-61 -49 -159 -49q-110 0 -154 75q-48 -75 -145 -75zM239 45q110 0 110 128v170q0 55 -28 89t-85 34
t-84 -35.5t-27 -92.5v-164q0 -129 114 -129zM419 292h219v55q0 51 -26 85.5t-84 34.5q-53 0 -81 -35.5t-28 -84.5v-55z" />
    <glyph glyph-name="Racute" unicode="&#x154;" horiz-adv-x="568" 
d="M218 767l88 146h74l-107 -146h-55zM78 0v713h215q101 0 155.5 -54.5t54.5 -148.5q0 -80 -40 -134t-116 -66l177 -310h-81l-168 299h-123v-299h-74zM152 358h124q153 0 153 147q0 68 -36 107.5t-110 39.5h-131v-294z" />
    <glyph glyph-name="racute" unicode="&#x155;" horiz-adv-x="341" 
d="M147 576l88 146h74l-107 -146h-55zM74 0v509h66v-88h1q26 53 61 73.5t83 20.5q21 0 34 -3v-63q-19 3 -42 3q-55 0 -93.5 -33.5t-39.5 -98.5v-320h-70z" />
    <glyph glyph-name="Rcommaaccent" unicode="&#x156;" horiz-adv-x="568" 
d="M247 -192l5 155h64l-20 -155h-49zM78 0v713h215q101 0 155.5 -54.5t54.5 -148.5q0 -80 -40 -134t-116 -66l177 -310h-81l-168 299h-123v-299h-74zM152 358h124q153 0 153 147q0 68 -36 107.5t-110 39.5h-131v-294z" />
    <glyph glyph-name="rcommaaccent" unicode="&#x157;" horiz-adv-x="341" 
d="M80 -192l5 155h64l-20 -155h-49zM74 0v509h66v-88h1q26 53 61 73.5t83 20.5q21 0 34 -3v-63q-19 3 -42 3q-55 0 -93.5 -33.5t-39.5 -98.5v-320h-70z" />
    <glyph glyph-name="Rcaron" unicode="&#x158;" horiz-adv-x="568" 
d="M238 767l-89 148h60l57 -102l57 102h60l-93 -148h-52zM78 0v713h215q101 0 155.5 -54.5t54.5 -148.5q0 -80 -40 -134t-116 -66l177 -310h-81l-168 299h-123v-299h-74zM152 358h124q153 0 153 147q0 68 -36 107.5t-110 39.5h-131v-294z" />
    <glyph glyph-name="rcaron" unicode="&#x159;" horiz-adv-x="341" 
d="M158 576l-89 148h60l57 -102l57 102h60l-93 -148h-52zM74 0v509h66v-88h1q26 53 61 73.5t83 20.5q21 0 34 -3v-63q-19 3 -42 3q-55 0 -93.5 -33.5t-39.5 -98.5v-320h-70z" />
    <glyph glyph-name="Sacute" unicode="&#x15a;" horiz-adv-x="523" 
d="M236 767l88 146h74l-107 -146h-55zM255 -12q-142 0 -226 93l49 51q46 -42 85 -60.5t100 -18.5q62 0 99 34.5t37 88.5q0 53 -29.5 84t-81.5 56l-90 43q-134 62 -134 180q0 80 56 133.5t147 53.5q129 0 197 -82l-47 -47q-37 34 -71.5 50t-83.5 16q-55 0 -88.5 -30
t-33.5 -86q0 -42 24.5 -70t77.5 -53l83 -40q149 -72 149 -196q0 -88 -61.5 -144t-157.5 -56z" />
    <glyph glyph-name="sacute" unicode="&#x15b;" horiz-adv-x="420" 
d="M178 576l88 146h74l-107 -146h-55zM209 -12q-110 0 -176 74l43 48q65 -65 134 -65q47 0 77 21.5t30 61.5q0 38 -21 60.5t-67 38.5l-60 22q-108 42 -108 136q0 53 40.5 95t114.5 42q98 0 151 -51l-39 -51q-54 46 -114 46q-39 0 -63.5 -20.5t-24.5 -52.5t18.5 -51.5
t61.5 -35.5l62 -25q115 -44 115 -143q0 -70 -51 -110t-123 -40z" />
    <glyph glyph-name="Scircumflex" unicode="&#x15c;" horiz-adv-x="523" 
d="M144 765l91 149h53l88 -149h-60l-57 102l-57 -102h-58zM255 -12q-142 0 -226 93l49 51q46 -42 85 -60.5t100 -18.5q62 0 99 34.5t37 88.5q0 53 -29.5 84t-81.5 56l-90 43q-134 62 -134 180q0 80 56 133.5t147 53.5q129 0 197 -82l-47 -47q-37 34 -71.5 50t-83.5 16
q-55 0 -88.5 -30t-33.5 -86q0 -42 24.5 -70t77.5 -53l83 -40q149 -72 149 -196q0 -88 -61.5 -144t-157.5 -56z" />
    <glyph glyph-name="scircumflex" unicode="&#x15d;" horiz-adv-x="420" 
d="M100 574l91 149h53l88 -149h-60l-57 102l-57 -102h-58zM209 -12q-110 0 -176 74l43 48q65 -65 134 -65q47 0 77 21.5t30 61.5q0 38 -21 60.5t-67 38.5l-60 22q-108 42 -108 136q0 53 40.5 95t114.5 42q98 0 151 -51l-39 -51q-54 46 -114 46q-39 0 -63.5 -20.5
t-24.5 -52.5t18.5 -51.5t61.5 -35.5l62 -25q115 -44 115 -143q0 -70 -51 -110t-123 -40z" />
    <glyph glyph-name="Scedilla" unicode="&#x15e;" horiz-adv-x="523" 
d="M249 -197q-42 0 -81 12v39q43 -12 81 -12q50 0 50 33q0 30 -57 35l-33 2l19 77q-125 9 -199 92l49 51q46 -42 85 -60.5t100 -18.5q62 0 99 34.5t37 88.5q0 53 -29.5 84t-81.5 56l-90 43q-134 62 -134 180q0 80 56 133.5t147 53.5q129 0 197 -82l-47 -47q-37 34 -71.5 50
t-83.5 16q-55 0 -88.5 -30t-33.5 -86q0 -42 24.5 -70t77.5 -53l83 -40q149 -72 149 -196q0 -86 -58.5 -141.5t-150.5 -58.5l-12 -46q100 -4 100 -66q0 -31 -29 -52t-75 -21z" />
    <glyph glyph-name="scedilla" unicode="&#x15f;" horiz-adv-x="420" 
d="M208 -197q-42 0 -81 12v39q43 -12 81 -12q50 0 50 33q0 30 -57 35l-33 2l19 77q-96 8 -154 73l43 48q65 -65 134 -65q47 0 77 21.5t30 61.5q0 38 -21 60.5t-67 38.5l-60 22q-108 42 -108 136q0 53 40.5 95t114.5 42q98 0 151 -51l-39 -51q-54 46 -114 46
q-39 0 -63.5 -20.5t-24.5 -52.5t18.5 -51.5t61.5 -35.5l62 -25q115 -44 115 -143q0 -66 -46 -105.5t-113 -43.5l-12 -47q100 -4 100 -66q0 -31 -29 -52t-75 -21z" />
    <glyph glyph-name="Scaron" unicode="&#x160;" horiz-adv-x="523" 
d="M244 766l-89 148h60l57 -102l57 102h60l-93 -148h-52zM255 -12q-142 0 -226 93l49 51q46 -42 85 -60.5t100 -18.5q62 0 99 34.5t37 88.5q0 53 -29.5 84t-81.5 56l-90 43q-134 62 -134 180q0 80 56 133.5t147 53.5q129 0 197 -82l-47 -47q-37 34 -71.5 50t-83.5 16
q-55 0 -88.5 -30t-33.5 -86q0 -42 24.5 -70t77.5 -53l83 -40q149 -72 149 -196q0 -88 -61.5 -144t-157.5 -56z" />
    <glyph glyph-name="scaron" unicode="&#x161;" horiz-adv-x="413" 
d="M189 576l-89 148h60l57 -102l57 102h60l-93 -148h-52zM211 -12q-110 0 -176 74l43 48q65 -65 134 -65q47 0 77 21.5t30 61.5q0 38 -21 60.5t-67 38.5l-60 22q-108 42 -108 136q0 53 40.5 95t114.5 42q98 0 151 -51l-39 -51q-54 46 -114 46q-39 0 -63.5 -20.5t-24.5 -52.5
t18.5 -51.5t61.5 -35.5l62 -25q115 -44 115 -143q0 -70 -51 -110t-123 -40z" />
    <glyph glyph-name="Tcommaaccent" unicode="&#x162;" horiz-adv-x="523" 
d="M225 -192l5 155h64l-20 -155h-49zM226 0v650h-203v63h478v-63h-201v-650h-74z" />
    <glyph glyph-name="tcommaaccent" unicode="&#x163;" horiz-adv-x="346" 
d="M157 -192l5 155h64l-20 -155h-49zM228 -9q-113 0 -113 100v360h-83v56h83v148h70v-148h131v-56h-131v-338q0 -59 66 -59q28 0 61 11v-58q-45 -16 -84 -16z" />
    <glyph glyph-name="Tcaron" unicode="&#x164;" horiz-adv-x="523" 
d="M233 767l-89 148h60l57 -102l57 102h60l-93 -148h-52zM226 0v650h-203v63h478v-63h-201v-650h-74z" />
    <glyph glyph-name="tcaron" unicode="&#x165;" horiz-adv-x="346" 
d="M252 562l6 151h60l-19 -151h-47zM228 -9q-113 0 -113 100v360h-83v56h83v148h70v-148h131v-56h-131v-338q0 -59 66 -59q28 0 61 11v-58q-45 -16 -84 -16z" />
    <glyph glyph-name="Tbar" unicode="&#x166;" horiz-adv-x="523" 
d="M115 319v49h111v282h-203v63h478v-63h-201v-282h107v-49h-107v-319h-74v319h-111z" />
    <glyph glyph-name="tbar" unicode="&#x167;" horiz-adv-x="346" 
d="M68 271v41h47v139h-83v56h83v148h70v-148h131v-56h-131v-139h65v-41h-65v-158q0 -59 66 -59q28 0 61 11v-58q-45 -16 -84 -16q-113 0 -113 100v180h-47z" />
    <glyph glyph-name="Utilde" unicode="&#x168;" horiz-adv-x="601" 
d="M298 -12q-97 0 -161 52t-64 159v514h74v-504q0 -83 45 -120.5t112 -37.5q72 0 113.5 42t39.5 112v508h71v-510q1 -100 -63 -157.5t-167 -57.5zM184 775l-40 6q5 39 27 65t57 26q24 0 72.5 -18.5t72.5 -18.5q32 0 47 46l36 -8q-6 -39 -28 -64t-55 -25q-26 0 -75 18t-70 18
q-15 0 -24 -7t-12.5 -14.5t-7.5 -23.5z" />
    <glyph glyph-name="utilde" unicode="&#x169;" horiz-adv-x="497" 
d="M202 -12q-58 0 -94.5 36t-36.5 94v391h70v-370q0 -50 21.5 -72t65.5 -22q50 0 88.5 41t38.5 98v325h70v-509h-63l-3 87h-2q-19 -46 -62 -72.5t-93 -26.5zM132 579l-40 6q5 39 27 65t57 26q24 0 72.5 -18.5t72.5 -18.5q32 0 47 46l36 -8q-6 -39 -28 -64t-55 -25
q-26 0 -75 18t-70 18q-15 0 -24 -7t-12.5 -14.5t-7.5 -23.5z" />
    <glyph glyph-name="Umacron" unicode="&#x16a;" horiz-adv-x="601" 
d="M298 -12q-97 0 -161 52t-64 159v514h74v-504q0 -83 45 -120.5t112 -37.5q72 0 113.5 42t39.5 112v508h71v-510q1 -100 -63 -157.5t-167 -57.5zM165 799v53h270v-53h-270z" />
    <glyph glyph-name="umacron" unicode="&#x16b;" horiz-adv-x="497" 
d="M202 -12q-58 0 -94.5 36t-36.5 94v391h70v-370q0 -50 21.5 -72t65.5 -22q50 0 88.5 41t38.5 98v325h70v-509h-63l-3 87h-2q-19 -46 -62 -72.5t-93 -26.5zM112 603v53h270v-53h-270z" />
    <glyph glyph-name="Ubreve" unicode="&#x16c;" horiz-adv-x="601" 
d="M298 -12q-97 0 -161 52t-64 159v514h74v-504q0 -83 45 -120.5t112 -37.5q72 0 113.5 42t39.5 112v508h71v-510q1 -100 -63 -157.5t-167 -57.5zM306 775q-63 0 -102.5 35.5t-41.5 95.5h51q12 -84 97 -84q38 0 60.5 23t27.5 61h49q-3 -62 -44 -96.5t-97 -34.5z" />
    <glyph glyph-name="ubreve" unicode="&#x16d;" horiz-adv-x="497" 
d="M202 -12q-58 0 -94.5 36t-36.5 94v391h70v-370q0 -50 21.5 -72t65.5 -22q50 0 88.5 41t38.5 98v325h70v-509h-63l-3 87h-2q-19 -46 -62 -72.5t-93 -26.5zM249 579q-63 0 -102.5 35.5t-41.5 95.5h51q12 -84 97 -84q38 0 60.5 23t27.5 61h49q-3 -62 -44 -96.5t-97 -34.5z
" />
    <glyph glyph-name="Uring" unicode="&#x16e;" horiz-adv-x="601" 
d="M300 760q-40 0 -62.5 24.5t-22.5 59.5q0 37 24 62.5t60 25.5q40 0 63 -23t23 -60t-24 -63t-61 -26zM299 792q22 0 36 14t14 40t-13.5 40.5t-37.5 14.5q-21 0 -33.5 -15.5t-12.5 -41.5q0 -25 13 -38.5t34 -13.5zM298 -12q-97 0 -161 52t-64 159v514h74v-504
q0 -83 45 -120.5t112 -37.5q72 0 113.5 42t39.5 112v508h71v-510q1 -100 -63 -157.5t-167 -57.5z" />
    <glyph glyph-name="uring" unicode="&#x16f;" horiz-adv-x="497" 
d="M247 564q-40 0 -62.5 24.5t-22.5 59.5q0 37 24 62.5t60 25.5q40 0 63 -23t23 -60t-24 -63t-61 -26zM246 596q22 0 36 14t14 40t-13.5 40.5t-37.5 14.5q-21 0 -33.5 -15.5t-12.5 -41.5q0 -25 13 -38.5t34 -13.5zM202 -12q-58 0 -94.5 36t-36.5 94v391h70v-370
q0 -50 21.5 -72t65.5 -22q50 0 88.5 41t38.5 98v325h70v-509h-63l-3 87h-2q-19 -46 -62 -72.5t-93 -26.5z" />
    <glyph glyph-name="Uhungarumlaut" unicode="&#x170;" horiz-adv-x="601" 
d="M298 -12q-97 0 -161 52t-64 159v514h74v-504q0 -83 45 -120.5t112 -37.5q72 0 113.5 42t39.5 112v508h71v-510q1 -100 -63 -157.5t-167 -57.5zM190 767l54 136h66l-68 -136h-52zM320 767l57 136h66l-72 -136h-51z" />
    <glyph glyph-name="uhungarumlaut" unicode="&#x171;" horiz-adv-x="497" 
d="M202 -12q-58 0 -94.5 36t-36.5 94v391h70v-370q0 -50 21.5 -72t65.5 -22q50 0 88.5 41t38.5 98v325h70v-509h-63l-3 87h-2q-19 -46 -62 -72.5t-93 -26.5zM155 571l54 136h66l-68 -136h-52zM285 571l57 136h66l-72 -136h-51z" />
    <glyph glyph-name="Uogonek" unicode="&#x172;" horiz-adv-x="601" 
d="M298 -12q-97 0 -161 52t-64 159v514h74v-504q0 -83 45 -120.5t112 -37.5q72 0 113.5 42t39.5 112v508h71v-510q1 -81 -42.5 -135t-117.5 -72q-49 -43 -49 -95q0 -53 50 -53q28 0 50 16l19 -35q-29 -22 -78 -22q-38 0 -64 21.5t-26 61.5q0 53 46 99q-6 -1 -18 -1z" />
    <glyph glyph-name="uogonek" unicode="&#x173;" horiz-adv-x="497" 
d="M202 -12q-58 0 -94.5 36t-36.5 94v391h70v-370q0 -50 21.5 -72t65.5 -22q50 0 88.5 41t38.5 98v325h70v-509h-15q-68 -35 -68 -99q0 -52 50 -52q29 0 50 15l19 -35q-29 -22 -78 -22q-38 0 -64 21.5t-26 61.5q0 34 20 65t49 50l-3 82h-2q-19 -46 -62 -72.5t-93 -26.5z" />
    <glyph glyph-name="Wcircumflex" unicode="&#x174;" horiz-adv-x="770" 
d="M268 765l91 149h53l88 -149h-60l-57 102l-57 -102h-58zM183 -3l-152 716h74l117 -587h2l125 587h80l121 -585h2l116 585h70l-152 -716h-73l-126 602h-3l-127 -602h-74z" />
    <glyph glyph-name="wcircumflex" unicode="&#x175;" horiz-adv-x="664" 
d="M215 574l91 149h53l88 -149h-60l-57 102l-57 -102h-58zM156 -1l-127 510h73l90 -396h3l106 396h71l101 -396h2l96 396h65l-131 -510h-66l-104 425h-3l-110 -425h-66z" />
    <glyph glyph-name="Ycircumflex" unicode="&#x176;" horiz-adv-x="512" 
d="M218 0v302l-190 411h77l156 -340l152 340h72l-192 -412v-301h-75zM142 765l91 149h53l88 -149h-60l-57 102l-57 -102h-58z" />
    <glyph glyph-name="ycircumflex" unicode="&#x177;" horiz-adv-x="426" 
d="M88 -190q-36 0 -63 8l5 59q32 -7 53 -7q28 0 45.5 15.5t30.5 52.5l23 78l-159 493h74l122 -402h1l121 402h64l-178 -568q-38 -131 -139 -131zM95 574l91 149h53l88 -149h-60l-57 102l-57 -102h-58z" />
    <glyph glyph-name="Ydieresis" unicode="&#x178;" horiz-adv-x="512" 
d="M218 0v302l-190 411h77l156 -340l152 340h72l-192 -412v-301h-75zM155 791v104h63v-104h-63zM309 791v104h62v-104h-62z" />
    <glyph glyph-name="Zacute" unicode="&#x179;" horiz-adv-x="496" 
d="M219 767l88 146h74l-107 -146h-55zM47 0v48l316 605h-308v60h395v-51l-315 -599h311v-63h-399z" />
    <glyph glyph-name="zacute" unicode="&#x17a;" horiz-adv-x="409" 
d="M151 576l88 146h74l-107 -146h-55zM41 0v44l244 410h-238v55h320l-1 -47l-240 -407h241v-55h-326z" />
    <glyph glyph-name="Zdotaccent" unicode="&#x17b;" horiz-adv-x="496" 
d="M47 0v48l316 605h-308v60h395v-51l-315 -599h311v-63h-399zM221 792v107h65v-107h-65z" />
    <glyph glyph-name="zdotaccent" unicode="&#x17c;" horiz-adv-x="409" 
d="M41 0v44l244 410h-238v55h320l-1 -47l-240 -407h241v-55h-326zM171 601v107h65v-107h-65z" />
    <glyph glyph-name="Zcaron" unicode="&#x17d;" horiz-adv-x="496" 
d="M227 766l-89 148h60l57 -102l57 102h60l-93 -148h-52zM47 0v48l316 605h-308v60h395v-51l-315 -599h311v-63h-399z" />
    <glyph glyph-name="zcaron" unicode="&#x17e;" horiz-adv-x="409" 
d="M181 576l-89 148h60l57 -102l57 102h60l-93 -148h-52zM41 0v44l244 410h-238v55h320l-1 -47l-240 -407h241v-55h-326z" />
    <glyph glyph-name="florin" unicode="&#x192;" horiz-adv-x="364" 
d="M60 -189q-21 0 -49 4l3 57q14 -2 29 -2q37 0 51 19.5t17 59.5l36 464h-85l3 52h85l10 134q5 60 41 94.5t89 34.5q34 0 61 -8l-3 -53q-21 6 -47 6q-29 0 -48.5 -18t-23.5 -55l-11 -135h102l-4 -52h-101l-35 -474q-8 -128 -120 -128z" />
    <glyph glyph-name="Aringacute" unicode="&#x1fa;" horiz-adv-x="568" 
d="M27 0l215 715h89l211 -715h-75l-65 225h-239l-66 -225h-70zM178 284h207l-102 354h-1zM286 746q-42 0 -64 24t-22 57q0 36 24 63l87 105l52 -20l-67 -64q37 -3 56 -24.5t19 -54.5q0 -37 -23.5 -61.5t-61.5 -24.5zM285 776q22 0 36 14.5t14 39.5t-13.5 39.5t-36.5 14.5
q-22 0 -34.5 -15.5t-12.5 -40.5q0 -26 13 -39t34 -13z" />
    <glyph glyph-name="aringacute" unicode="&#x1fb;" horiz-adv-x="469" 
d="M186 -11q-59 0 -99.5 38t-40.5 107q0 43 17 75.5t45.5 50.5t60 27t64.5 9h97v87q0 44 -26.5 65.5t-73.5 21.5q-44 0 -74.5 -21t-30.5 -60v-29h-63v31q0 62 50 96t126 34q72 0 117.5 -34t45.5 -101v-257q0 -4 5 -129h-65l-4 81h-2q-22 -49 -64 -70.5t-85 -21.5zM210 43
q50 0 85 36t35 90v79h-86q-126 0 -126 -104q0 -49 26.5 -75t65.5 -26zM232 564q-42 0 -64 24t-22 57q0 36 24 63l87 105l52 -20l-67 -64q37 -3 56 -24.5t19 -54.5q0 -37 -23.5 -61.5t-61.5 -24.5zM231 594q22 0 36 14.5t14 39.5t-13.5 39.5t-36.5 14.5q-22 0 -34.5 -15.5
t-12.5 -40.5q0 -26 13 -39t34 -13z" />
    <glyph glyph-name="AEacute" unicode="&#x1fc;" horiz-adv-x="832" 
d="M421 772l88 146h74l-107 -146h-55zM22 0l341 713h430v-63h-313v-249h249v-64h-249v-273h313v-64h-387v215l-206 1l-102 -216h-76zM226 273h180v375h-2z" />
    <glyph glyph-name="aeacute" unicode="&#x1fd;" horiz-adv-x="734" 
d="M338 576l88 146h74l-107 -146h-55zM190 -12q-61 0 -102.5 38.5t-41.5 107.5q0 43 17 75.5t45.5 50.5t60 27t64.5 9h97v87q0 43 -27.5 65t-74.5 22q-44 0 -73.5 -21t-29.5 -60v-29h-63v31q0 62 48.5 96t125.5 34q112 0 137 -71q45 71 144 71q79 0 124.5 -47t45.5 -131v-99
h-287v-74q0 -123 131 -123q58 0 123 37l25 -47q-59 -49 -159 -49q-133 0 -167 102q-25 -57 -71.5 -79.5t-91.5 -22.5zM212 43q49 0 83.5 36t34.5 90v79h-80q-132 0 -132 -104q0 -49 26.5 -75t67.5 -26zM400 296h220v51q0 51 -26 85.5t-83 34.5q-53 0 -82 -35t-29 -83v-53z
" />
    <glyph glyph-name="Oslashacute" unicode="&#x1fe;" horiz-adv-x="584" 
d="M127 -55l-41 19l37 78q-64 58 -64 161v297q0 106 65 166t169 60q82 0 140 -34l31 65l42 -18l-36 -75q57 -55 57 -151v-298q0 -108 -65 -167.5t-169 -59.5q-76 0 -132 29zM134 208q0 -54 24 -92l244 511q-43 34 -112 34q-74 0 -115 -43t-41 -119v-291zM294 54
q73 0 115.5 42.5t42.5 112.5v303q0 44 -18 77l-242 -507q40 -28 102 -28zM261 766l88 146h74l-107 -146h-55z" />
    <glyph glyph-name="oslashacute" unicode="&#x1ff;" horiz-adv-x="474" 
d="M119 -55l-38 18l31 65q-57 48 -57 143v165q0 87 50.5 136t130.5 49q58 0 101 -23l27 57l39 -19l-31 -65q47 -49 47 -132v-165q0 -91 -50 -138.5t-131 -47.5q-50 0 -90 17zM125 172q0 -50 17 -80l168 350q-29 24 -74 24q-57 0 -84 -35.5t-27 -92.5v-166zM239 45
q110 0 110 128v170q0 31 -11 59l-164 -342q26 -15 65 -15zM201 576l88 146h74l-107 -146h-55z" />
    <glyph glyph-name="Scommaaccent" unicode="&#x218;" horiz-adv-x="523" 
d="M229 -192l5 155h64l-20 -155h-49zM255 -12q-142 0 -226 93l49 51q46 -42 85 -60.5t100 -18.5q62 0 99 34.5t37 88.5q0 53 -29.5 84t-81.5 56l-90 43q-134 62 -134 180q0 80 56 133.5t147 53.5q129 0 197 -82l-47 -47q-37 34 -71.5 50t-83.5 16q-55 0 -88.5 -30t-33.5 -86
q0 -42 24.5 -70t77.5 -53l83 -40q149 -72 149 -196q0 -88 -61.5 -144t-157.5 -56z" />
    <glyph glyph-name="scommaaccent" unicode="&#x219;" horiz-adv-x="420" 
d="M180 -192l5 155h64l-20 -155h-49zM209 -12q-110 0 -176 74l43 48q65 -65 134 -65q47 0 77 21.5t30 61.5q0 38 -21 60.5t-67 38.5l-60 22q-108 42 -108 136q0 53 40.5 95t114.5 42q98 0 151 -51l-39 -51q-54 46 -114 46q-39 0 -63.5 -20.5t-24.5 -52.5t18.5 -51.5
t61.5 -35.5l62 -25q115 -44 115 -143q0 -70 -51 -110t-123 -40z" />
    <glyph glyph-name="uni021A" unicode="&#x21a;" horiz-adv-x="523" 
d="M225 -192l5 155h64l-20 -155h-49zM226 0v650h-203v63h478v-63h-201v-650h-74z" />
    <glyph glyph-name="uni021B" unicode="&#x21b;" horiz-adv-x="346" 
d="M157 -192l5 155h64l-20 -155h-49zM228 -9q-113 0 -113 100v360h-83v56h83v148h70v-148h131v-56h-131v-338q0 -59 66 -59q28 0 61 11v-58q-45 -16 -84 -16z" />
    <glyph glyph-name="dotlessj" unicode="&#x237;" horiz-adv-x="229" 
d="M36 -188q-24 0 -45 3v58q14 -2 29 -2q38 0 51.5 20t13.5 59v559h70v-572q0 -125 -119 -125z" />
    <glyph glyph-name="circumflex" unicode="&#x2c6;" horiz-adv-x="360" 
d="M66 574l91 149h53l88 -149h-60l-57 102l-57 -102h-58z" />
    <glyph glyph-name="caron" unicode="&#x2c7;" horiz-adv-x="361" 
d="M156 576l-89 148h60l57 -102l57 102h60l-93 -148h-52z" />
    <glyph glyph-name="breve" unicode="&#x2d8;" horiz-adv-x="365" 
d="M184 579q-63 0 -102.5 35.5t-41.5 95.5h51q12 -84 97 -84q38 0 60.5 23t27.5 61h49q-3 -62 -44 -96.5t-97 -34.5z" />
    <glyph glyph-name="dotaccent" unicode="&#x2d9;" horiz-adv-x="191" 
d="M63 601v107h65v-107h-65z" />
    <glyph glyph-name="ring" unicode="&#x2da;" horiz-adv-x="273" 
d="M141 564q-40 0 -62.5 24.5t-22.5 59.5q0 37 24 62.5t60 25.5q40 0 63 -23t23 -60t-24 -63t-61 -26zM140 596q22 0 36 14t14 40t-13.5 40.5t-37.5 14.5q-21 0 -33.5 -15.5t-12.5 -41.5q0 -25 13 -38.5t34 -13.5z" />
    <glyph glyph-name="ogonek" unicode="&#x2db;" horiz-adv-x="330" 
d="M160 -193q-38 0 -64 21.5t-26 61.5q0 44 31 80.5t67 49.5l24 -18q-30 -14 -51.5 -40.5t-21.5 -60.5q0 -52 50 -52q29 0 50 15l19 -35q-29 -22 -78 -22z" />
    <glyph glyph-name="tilde" unicode="&#x2dc;" horiz-adv-x="382" 
d="M82 579l-40 6q5 39 27 65t57 26q24 0 72.5 -18.5t72.5 -18.5q32 0 47 46l36 -8q-6 -39 -28 -64t-55 -25q-26 0 -75 18t-70 18q-15 0 -24 -7t-12.5 -14.5t-7.5 -23.5z" />
    <glyph glyph-name="hungarumlaut" unicode="&#x2dd;" horiz-adv-x="369" 
d="M62 571l54 136h66l-68 -136h-52zM192 571l57 136h66l-72 -136h-51z" />
    <glyph glyph-name="pi" unicode="&#x3c0;" horiz-adv-x="524" 
d="M431 -6q-46 0 -71.5 27t-25.5 81v351h-157q-9 -269 -24 -453h-69q19 199 24 453h-78l8 57h446v-57h-84v-337q0 -59 52 -59q20 0 42 6v-58q-33 -11 -63 -11z" />
    <glyph glyph-name="Wgrave" unicode="&#x1e80;" horiz-adv-x="770" 
d="M183 -3l-152 716h74l117 -587h2l125 587h80l121 -585h2l116 585h70l-152 -716h-73l-126 602h-3l-127 -602h-74zM359 767l-109 146h75l90 -146h-56z" />
    <glyph glyph-name="wgrave" unicode="&#x1e81;" horiz-adv-x="664" 
d="M156 -1l-127 510h73l90 -396h3l106 396h71l101 -396h2l96 396h65l-131 -510h-66l-104 425h-3l-110 -425h-66zM307 576l-109 146h75l90 -146h-56z" />
    <glyph glyph-name="Wacute" unicode="&#x1e82;" horiz-adv-x="770" 
d="M360 767l88 146h74l-107 -146h-55zM183 -3l-152 716h74l117 -587h2l125 587h80l121 -585h2l116 585h70l-152 -716h-73l-126 602h-3l-127 -602h-74z" />
    <glyph glyph-name="wacute" unicode="&#x1e83;" horiz-adv-x="664" 
d="M307 576l88 146h74l-107 -146h-55zM156 -1l-127 510h73l90 -396h3l106 396h71l101 -396h2l96 396h65l-131 -510h-66l-104 425h-3l-110 -425h-66z" />
    <glyph glyph-name="Wdieresis" unicode="&#x1e84;" horiz-adv-x="770" 
d="M276 799v104h63v-104h-63zM430 799v104h62v-104h-62zM183 -3l-152 716h74l117 -587h2l125 587h80l121 -585h2l116 585h70l-152 -716h-73l-126 602h-3l-127 -602h-74z" />
    <glyph glyph-name="wdieresis" unicode="&#x1e85;" horiz-adv-x="664" 
d="M223 601v104h63v-104h-63zM377 601v104h62v-104h-62zM156 -1l-127 510h73l90 -396h3l106 396h71l101 -396h2l96 396h65l-131 -510h-66l-104 425h-3l-110 -425h-66z" />
    <glyph glyph-name="Ygrave" unicode="&#x1ef2;" horiz-adv-x="512" 
d="M218 0v302l-190 411h77l156 -340l152 340h72l-192 -412v-301h-75zM235 767l-109 146h75l90 -146h-56z" />
    <glyph glyph-name="ygrave" unicode="&#x1ef3;" horiz-adv-x="426" 
d="M88 -190q-36 0 -63 8l5 59q32 -7 53 -7q28 0 45.5 15.5t30.5 52.5l23 78l-159 493h74l122 -402h1l121 402h64l-178 -568q-38 -131 -139 -131zM214 576l-109 146h75l90 -146h-56z" />
    <glyph glyph-name="endash" unicode="&#x2013;" horiz-adv-x="461" 
d="M0 273v48h461v-48h-461z" />
    <glyph glyph-name="emdash" unicode="&#x2014;" horiz-adv-x="779" 
d="M0 273v48h779v-48h-779z" />
    <glyph glyph-name="quoteleft" unicode="&#x2018;" horiz-adv-x="190" 
d="M60 503v104l25 107h37l-19 -104h25v-107h-68z" />
    <glyph glyph-name="quoteright" unicode="&#x2019;" horiz-adv-x="191" 
d="M68 502l19 103h-25v108h68v-104l-25 -107h-37z" />
    <glyph glyph-name="quotesinglbase" unicode="&#x201a;" horiz-adv-x="190" 
d="M77 -33v36l-15 65l24 44l43 -64l-12 -110l-28 -39z" />
    <glyph glyph-name="quotedblleft" unicode="&#x201c;" horiz-adv-x="330" 
d="M60 503v104l25 107h37l-19 -104h25v-107h-68zM202 503v104l27 107h35l-18 -104h24v-107h-68z" />
    <glyph glyph-name="quotedblright" unicode="&#x201d;" horiz-adv-x="330" 
d="M67 502l19 103h-24v108h67v-104l-26 -107h-36zM209 502l18 103h-25v108h69v-104l-26 -107h-36z" />
    <glyph glyph-name="quotedblbase" unicode="&#x201e;" horiz-adv-x="330" 
d="M67 -101l19 104h-24v109h67v-106l-26 -107h-36zM209 -101l18 104h-25v109h69v-106l-26 -107h-36z" />
    <glyph glyph-name="dagger" unicode="&#x2020;" horiz-adv-x="499" 
d="M222 -138v622h-162v52h162v178h57v-178h160v-52h-160v-622h-57z" />
    <glyph glyph-name="daggerdbl" unicode="&#x2021;" horiz-adv-x="499" 
d="M222 -138v190h-162v50h162v382h-162v52h162v178h57v-178h160v-52h-160v-382h160v-50h-160v-190h-57z" />
    <glyph glyph-name="bullet" unicode="&#x2022;" horiz-adv-x="383" 
d="M192 240q-46 0 -79 32.5t-33 77.5q0 46 32.5 78.5t79.5 32.5q45 0 77.5 -32.5t32.5 -78.5q0 -45 -32 -77.5t-78 -32.5z" />
    <glyph glyph-name="ellipsis" unicode="&#x2026;" horiz-adv-x="555" 
d="M65 0v111h69v-111h-69zM244 0v111h68v-111h-68zM422 0v111h69v-111h-69z" />
    <glyph glyph-name="perthousand" unicode="&#x2030;" horiz-adv-x="994" 
d="M820 -11q-52 0 -85.5 29.5t-33.5 83.5v136q0 56 34.5 88.5t86.5 32.5t86.5 -30t34.5 -86v-140q0 -53 -36 -83.5t-87 -30.5zM821 35q32 0 50 19t18 45v153q0 25 -18 44t-50 19q-31 0 -49 -18.5t-18 -44.5v-153q0 -28 17.5 -46t49.5 -18zM169 356q-54 0 -87 31t-33 85v138
q0 56 34 86t86 30t87 -29.5t35 -86.5v-140q0 -53 -36 -83.5t-86 -30.5zM170 401q31 0 49 19t18 46v152q0 26 -18 44.5t-49 18.5q-32 0 -50 -18.5t-18 -44.5v-153q0 -28 17.5 -46t50.5 -18zM145 -3l366 725h48l-365 -725h-49zM521 -11q-53 0 -86.5 29.5t-33.5 83.5v136
q0 56 34.5 88.5t86.5 32.5t86.5 -30t34.5 -86v-140q0 -53 -36 -83.5t-86 -30.5zM521 35q32 0 50 19t18 45v153q0 25 -18 44t-50 19q-31 0 -48.5 -18.5t-17.5 -44.5v-153q0 -28 17 -46t49 -18z" />
    <glyph glyph-name="guilsinglleft" unicode="&#x2039;" horiz-adv-x="249" 
d="M153 114l-116 158l115 161l40 -27l-78 -133l80 -134z" />
    <glyph glyph-name="guilsinglright" unicode="&#x203a;" horiz-adv-x="249" 
d="M79 114l-41 26l79 134l-80 134l41 25l116 -158z" />
    <glyph glyph-name="fraction" unicode="&#x2044;" horiz-adv-x="114" 
d="M-155 -3l379 721h44l-379 -721h-44z" />
    <glyph glyph-name="uni2070" unicode="&#x2070;" horiz-adv-x="319" 
d="M161 368q-53 0 -86 27t-33 80v197q0 53 34 81t84 28q51 0 84.5 -27.5t33.5 -80.5v-196q0 -53 -34 -81t-83 -28zM160 412q64 0 64 66v198q0 26 -16.5 43.5t-47.5 17.5t-48.5 -18t-17.5 -45v-197q0 -28 17 -46.5t49 -18.5z" />
    <glyph glyph-name="uni2074" unicode="&#x2074;" horiz-adv-x="297" 
d="M178 380v102h-154v40l142 256h56l-145 -253h101v71l53 38v-109h48v-43h-48v-102h-53z" />
    <glyph glyph-name="uni2075" unicode="&#x2075;" horiz-adv-x="317" 
d="M153 368q-53 0 -82.5 25.5t-29.5 64.5v23h50v-16q0 -26 18 -40.5t46 -14.5q67 0 67 73v40q0 34 -17.5 51t-46.5 17q-33 0 -60 -31l-51 6l12 208h197v-44h-154q0 -2 -3.5 -65.5t-3.5 -66.5q30 30 80 30q43 0 72 -25t29 -74v-53q0 -50 -35.5 -79t-87.5 -29z" />
    <glyph glyph-name="uni2076" unicode="&#x2076;" horiz-adv-x="316" 
d="M157 368q-51 0 -84 29t-33 76v197q0 52 34.5 82t86.5 30q50 0 80 -26t30 -68v-20h-49v16q0 26 -18 40t-47 14q-28 0 -44.5 -17t-16.5 -44v-97q29 43 87 43q40 0 66.5 -24.5t26.5 -61.5v-66q0 -47 -34 -75t-85 -28zM161 410q30 0 46 17.5t16 42.5v62q0 29 -17 42.5
t-42 13.5q-24 0 -46 -19.5t-22 -47.5v-49q0 -25 17.5 -43.5t47.5 -18.5z" />
    <glyph glyph-name="uni2077" unicode="&#x2077;" horiz-adv-x="278" 
d="M79 380q1 108 37.5 203t82.5 147h-173v44h230v-38q-56 -59 -88.5 -160t-31.5 -196h-57z" />
    <glyph glyph-name="uni2078" unicode="&#x2078;" horiz-adv-x="319" 
d="M159 368q-53 0 -85.5 25t-32.5 72v35q0 26 16.5 47t42.5 32q-24 8 -39 29t-15 43v35q0 45 32.5 70t80.5 25q49 0 81.5 -24t32.5 -69v-34q0 -23 -15 -43.5t-41 -30.5q26 -9 43.5 -30.5t17.5 -47.5v-37q0 -46 -33.5 -71.5t-85.5 -25.5zM159 408q30 0 47.5 15.5t17.5 42.5
v36q0 28 -19.5 42.5t-45.5 14.5q-27 0 -46 -15t-19 -41v-38q0 -26 18.5 -41.5t46.5 -15.5zM160 598q25 0 43.5 15t18.5 40v35q0 25 -19 39t-45 14q-24 0 -43 -15t-19 -38v-36q0 -26 19 -40t45 -14z" />
    <glyph glyph-name="uni2079" unicode="&#x2079;" horiz-adv-x="316" 
d="M155 368q-51 0 -80.5 26t-29.5 68v17h49v-13q0 -27 18 -41t47 -14q28 0 44.5 17.5t16.5 44.5v94q-28 -42 -88 -42q-40 0 -66 24t-26 62v67q0 48 33.5 76t85.5 28q50 0 83.5 -29.5t33.5 -76.5v-196q0 -52 -34.5 -82t-86.5 -30zM152 562q24 0 46 19.5t22 47.5v49
q0 25 -17.5 43t-47.5 18t-45.5 -17.5t-15.5 -42.5v-62q0 -55 58 -55z" />
    <glyph glyph-name="uni207D" unicode="&#x207d;" horiz-adv-x="179" 
d="M129 312q-35 48 -54.5 118t-19.5 134q0 140 74 248l31 -1q-31 -70 -44.5 -122t-13.5 -125q0 -129 59 -250z" />
    <glyph glyph-name="uni207E" unicode="&#x207e;" horiz-adv-x="179" 
d="M59 312l-32 2q59 121 59 250q0 73 -13.5 125t-44.5 122l31 1q73 -106 73 -248q0 -64 -19 -134t-54 -118z" />
    <glyph glyph-name="uni2080" unicode="&#x2080;" horiz-adv-x="319" 
d="M161 -145q-53 0 -86 27t-33 80v197q0 53 34 81t84 28q51 0 84.5 -27.5t33.5 -80.5v-196q0 -53 -34 -81t-83 -28zM160 -101q64 0 64 66v198q0 26 -16.5 43.5t-47.5 17.5t-48.5 -18t-17.5 -45v-197q0 -28 17 -46.5t49 -18.5z" />
    <glyph glyph-name="uni2081" unicode="&#x2081;" horiz-adv-x="239" 
d="M101 -133v344l-49 -13l-7 42l79 25h30v-398h-53z" />
    <glyph glyph-name="uni2082" unicode="&#x2082;" horiz-adv-x="300" 
d="M49 -133v33l83 101q38 50 57 85.5t19 71.5v3q-2 63 -59 63q-27 0 -42.5 -15.5t-15.5 -41.5v-16h-50v18q0 47 30.5 73t79.5 26q52 0 80.5 -29t28.5 -77q0 -34 -14 -68.5t-29.5 -56.5t-46.5 -61l-51 -65h149v-44h-219z" />
    <glyph glyph-name="uni2083" unicode="&#x2083;" horiz-adv-x="317" 
d="M157 -145q-57 0 -86.5 27t-29.5 70v16h50v-13q0 -27 18.5 -42t45.5 -15q65 0 65 76q0 39 -22.5 56.5t-45.5 17.5h-36v38h32q30 0 48 18t18 54q0 34 -17.5 50t-43.5 16q-27 0 -43.5 -14t-16.5 -42v-12h-49v15q0 46 29.5 71.5t81.5 25.5q54 0 82.5 -29.5t28.5 -72.5
q0 -33 -15.5 -60.5t-46.5 -35.5v-2q33 -8 52.5 -35.5t19.5 -62.5q0 -55 -33 -85t-86 -30z" />
    <glyph glyph-name="uni2084" unicode="&#x2084;" horiz-adv-x="297" 
d="M178 -133v102h-154v40l142 256h56l-145 -253h101v71l53 38v-109h48v-43h-48v-102h-53z" />
    <glyph glyph-name="uni2085" unicode="&#x2085;" horiz-adv-x="317" 
d="M153 -145q-53 0 -82.5 25.5t-29.5 64.5v23h50v-16q0 -26 18 -40.5t46 -14.5q67 0 67 73v40q0 34 -17.5 51t-46.5 17q-33 0 -60 -31l-51 6l12 208h197v-44h-154q0 -2 -3.5 -65.5t-3.5 -66.5q30 30 80 30q43 0 72 -25t29 -74v-53q0 -50 -35.5 -79t-87.5 -29z" />
    <glyph glyph-name="uni2086" unicode="&#x2086;" horiz-adv-x="316" 
d="M157 -145q-51 0 -84 29t-33 76v197q0 52 34.5 82t86.5 30q50 0 80 -26t30 -68v-20h-49v16q0 26 -18 40t-47 14q-28 0 -44.5 -17t-16.5 -44v-97q29 43 87 43q40 0 66.5 -24.5t26.5 -61.5v-66q0 -47 -34 -75t-85 -28zM161 -103q30 0 46 17.5t16 42.5v62q0 29 -17 42.5
t-42 13.5q-24 0 -46 -19.5t-22 -47.5v-49q0 -25 17.5 -43.5t47.5 -18.5z" />
    <glyph glyph-name="uni2087" unicode="&#x2087;" horiz-adv-x="278" 
d="M79 -133q1 108 37.5 203t82.5 147h-173v44h230v-38q-56 -59 -88.5 -160t-31.5 -196h-57z" />
    <glyph glyph-name="uni2088" unicode="&#x2088;" horiz-adv-x="319" 
d="M159 -145q-53 0 -85.5 25t-32.5 72v35q0 26 16.5 47t42.5 32q-24 8 -39 29t-15 43v35q0 45 32.5 70t80.5 25q49 0 81.5 -24t32.5 -69v-34q0 -23 -15 -43.5t-41 -30.5q26 -9 43.5 -30.5t17.5 -47.5v-37q0 -46 -33.5 -71.5t-85.5 -25.5zM159 -105q30 0 47.5 15.5t17.5 42.5
v36q0 28 -19.5 42.5t-45.5 14.5q-27 0 -46 -15t-19 -41v-38q0 -26 18.5 -41.5t46.5 -15.5zM160 85q25 0 43.5 15t18.5 40v35q0 25 -19 39t-45 14q-24 0 -43 -15t-19 -38v-36q0 -26 19 -40t45 -14z" />
    <glyph glyph-name="uni2089" unicode="&#x2089;" horiz-adv-x="316" 
d="M155 -145q-51 0 -80.5 26t-29.5 68v17h49v-13q0 -27 18 -41t47 -14q28 0 44.5 17.5t16.5 44.5v94q-28 -42 -88 -42q-40 0 -66 24t-26 62v67q0 48 33.5 76t85.5 28q50 0 83.5 -29.5t33.5 -76.5v-196q0 -52 -34.5 -82t-86.5 -30zM152 49q24 0 46 19.5t22 47.5v49
q0 25 -17.5 43t-47.5 18t-45.5 -17.5t-15.5 -42.5v-62q0 -55 58 -55z" />
    <glyph glyph-name="uni208D" unicode="&#x208d;" horiz-adv-x="179" 
d="M129 -201q-35 48 -54.5 118t-19.5 134q0 140 74 248l31 -1q-31 -70 -44.5 -122t-13.5 -125q0 -129 59 -250z" />
    <glyph glyph-name="uni208E" unicode="&#x208e;" horiz-adv-x="179" 
d="M59 -201l-32 2q59 121 59 250q0 73 -13.5 125t-44.5 122l31 1q73 -106 73 -248q0 -64 -19 -134t-54 -118z" />
    <glyph glyph-name="uni20AA" unicode="&#x20aa;" horiz-adv-x="420" 
d="M26 0v705h138q64 0 92 -29t28 -119v-435h-66v441q0 49 -29 49h-89v-612h-74zM126 0v583h65v-489h89q30 0 30 48v563h84v-542q0 -91 -29 -127t-91 -36h-148z" />
    <glyph glyph-name="Euro" unicode="&#x20ac;" horiz-adv-x="619" 
d="M356 -12q-101 0 -163 53t-62 153v67h-81v48h81v97h-81v49h81v59q0 93 63 152.5t162 59.5q96 0 155.5 -50.5t59.5 -129.5v-50h-67v44q0 58 -38.5 93.5t-111.5 35.5q-71 0 -109 -43.5t-38 -110.5v-60h229v-49h-229v-97h229v-48h-229v-62q0 -71 39.5 -112.5t112.5 -41.5
q72 0 108.5 36t36.5 95v34h67v-40q0 -83 -59 -132.5t-156 -49.5z" />
    <glyph glyph-name="trademark" unicode="&#x2122;" horiz-adv-x="592" 
d="M292 397v318h51l73 -150l70 150h50v-318h-41l-1 242l-64 -136h-31l-66 140v-246h-41zM120 397v279h-86v39h215v-39h-85v-279h-44z" />
    <glyph glyph-name="Omega" unicode="&#x2126;" horiz-adv-x="590" 
d="M55 0v68l133 -5v5q-63 66 -97.5 158.5t-35.5 184.5v13q0 147 62.5 224t177.5 77q119 0 179.5 -82t60.5 -216v-13q1 -112 -40 -205.5t-92 -140.5v-5l133 5v-68h-201v47q30 37 45.5 59t36.5 65t30.5 98.5t9.5 127.5v55q0 93 -43.5 151.5t-120.5 58.5q-73 0 -116.5 -56.5
t-43.5 -156.5v-46q0 -136 32.5 -213t91.5 -143v-47h-202z" />
    <glyph glyph-name="uni2153" unicode="&#x2153;" horiz-adv-x="713" 
d="M132 317v344l-49 -13l-7 42l79 25h30v-398h-53zM129 -3l379 721h44l-379 -721h-44zM538 -12q-57 0 -86.5 27t-29.5 70v16h50v-13q0 -27 18.5 -42t45.5 -15q65 0 65 76q0 39 -22.5 56.5t-45.5 17.5h-36v38h32q30 0 48 18t18 54q0 34 -17.5 50t-43.5 16q-27 0 -43.5 -14
t-16.5 -42v-12h-49v15q0 46 29.5 71.5t81.5 25.5q54 0 82.5 -29.5t28.5 -72.5q0 -33 -15.5 -60.5t-46.5 -35.5v-2q33 -8 52.5 -35.5t19.5 -62.5q0 -55 -33 -85t-86 -30z" />
    <glyph glyph-name="uni2154" unicode="&#x2154;" horiz-adv-x="713" 
d="M48 317v33l83 101q38 50 57 85.5t19 71.5v3q-2 63 -59 63q-27 0 -42.5 -15.5t-15.5 -41.5v-16h-50v18q0 47 30.5 73t79.5 26q52 0 80.5 -29t28.5 -77q0 -34 -14 -68.5t-29.5 -56.5t-46.5 -61l-51 -65h149v-44h-219zM156 -3l379 721h44l-379 -721h-44zM547 -12
q-57 0 -86.5 27t-29.5 70v16h50v-13q0 -27 18.5 -42t45.5 -15q65 0 65 76q0 39 -22.5 56.5t-45.5 17.5h-36v38h32q30 0 48 18t18 54q0 34 -17.5 50t-43.5 16q-27 0 -43.5 -14t-16.5 -42v-12h-49v15q0 46 29.5 71.5t81.5 25.5q54 0 82.5 -29.5t28.5 -72.5q0 -33 -15.5 -60.5
t-46.5 -35.5v-2q33 -8 52.5 -35.5t19.5 -62.5q0 -55 -33 -85t-86 -30z" />
    <glyph glyph-name="uni2155" unicode="&#x2155;" horiz-adv-x="713" 
d="M156 317v344l-49 -13l-7 42l79 25h30v-398h-53zM542 -12q-53 0 -82.5 25.5t-29.5 64.5v23h50v-16q0 -26 18 -40.5t46 -14.5q67 0 67 73v40q0 34 -17.5 51t-46.5 17q-33 0 -60 -31l-51 6l12 208h197v-44h-154q0 -2 -3.5 -65.5t-3.5 -66.5q30 30 80 30q43 0 72 -25t29 -74
v-53q0 -50 -35.5 -79t-87.5 -29zM142 -3l379 721h44l-379 -721h-44z" />
    <glyph glyph-name="uni2156" unicode="&#x2156;" horiz-adv-x="713" 
d="M49 317v33l83 101q38 50 57 85.5t19 71.5v3q-2 63 -59 63q-27 0 -42.5 -15.5t-15.5 -41.5v-16h-50v18q0 47 30.5 73t79.5 26q52 0 80.5 -29t28.5 -77q0 -34 -14 -68.5t-29.5 -56.5t-46.5 -61l-51 -65h149v-44h-219zM548 -12q-53 0 -82.5 25.5t-29.5 64.5v23h50v-16
q0 -26 18 -40.5t46 -14.5q67 0 67 73v40q0 34 -17.5 51t-46.5 17q-33 0 -60 -31l-51 6l12 208h197v-44h-154q0 -2 -3.5 -65.5t-3.5 -66.5q30 30 80 30q43 0 72 -25t29 -74v-53q0 -50 -35.5 -79t-87.5 -29zM153 -3l379 721h44l-379 -721h-44z" />
    <glyph glyph-name="uni2157" unicode="&#x2157;" horiz-adv-x="713" 
d="M168 305q-57 0 -86.5 27t-29.5 70v16h50v-13q0 -27 18.5 -42t45.5 -15q65 0 65 76q0 39 -22.5 56.5t-45.5 17.5h-36v38h32q30 0 48 18t18 54q0 34 -17.5 50t-43.5 16q-27 0 -43.5 -14t-16.5 -42v-12h-49v15q0 46 29.5 71.5t81.5 25.5q54 0 82.5 -29.5t28.5 -72.5
q0 -33 -15.5 -60.5t-46.5 -35.5v-2q33 -8 52.5 -35.5t19.5 -62.5q0 -55 -33 -85t-86 -30zM153 -3l379 721h44l-379 -721h-44zM548 -12q-53 0 -82.5 25.5t-29.5 64.5v23h50v-16q0 -26 18 -40.5t46 -14.5q67 0 67 73v40q0 34 -17.5 51t-46.5 17q-33 0 -60 -31l-51 6l12 208
h197v-44h-154q0 -2 -3.5 -65.5t-3.5 -66.5q30 30 80 30q43 0 72 -25t29 -74v-53q0 -50 -35.5 -79t-87.5 -29z" />
    <glyph glyph-name="uni2158" unicode="&#x2158;" horiz-adv-x="713" 
d="M187 317v102h-154v40l142 256h56l-145 -253h101v71l53 38v-109h48v-43h-48v-102h-53zM548 -12q-53 0 -82.5 25.5t-29.5 64.5v23h50v-16q0 -26 18 -40.5t46 -14.5q67 0 67 73v40q0 34 -17.5 51t-46.5 17q-33 0 -60 -31l-51 6l12 208h197v-44h-154q0 -2 -3.5 -65.5
t-3.5 -66.5q30 30 80 30q43 0 72 -25t29 -74v-53q0 -50 -35.5 -79t-87.5 -29zM153 -3l379 721h44l-379 -721h-44z" />
    <glyph glyph-name="uni2159" unicode="&#x2159;" horiz-adv-x="713" 
d="M162 317v344l-49 -13l-7 42l79 25h30v-398h-53zM543 -12q-51 0 -84 29t-33 76v197q0 52 34.5 82t86.5 30q50 0 80 -26t30 -68v-20h-49v16q0 26 -18 40t-47 14q-28 0 -44.5 -17t-16.5 -44v-97q29 43 87 43q40 0 66.5 -24.5t26.5 -61.5v-66q0 -47 -34 -75t-85 -28zM547 30
q30 0 46 17.5t16 42.5v62q0 29 -17 42.5t-42 13.5q-24 0 -46 -19.5t-22 -47.5v-49q0 -25 17.5 -43.5t47.5 -18.5zM145 -3l379 721h44l-379 -721h-44z" />
    <glyph glyph-name="uni215A" unicode="&#x215a;" horiz-adv-x="713" 
d="M555 -12q-51 0 -84 29t-33 76v197q0 52 34.5 82t86.5 30q50 0 80 -26t30 -68v-20h-49v16q0 26 -18 40t-47 14q-28 0 -44.5 -17t-16.5 -44v-97q29 43 87 43q40 0 66.5 -24.5t26.5 -61.5v-66q0 -47 -34 -75t-85 -28zM559 30q30 0 46 17.5t16 42.5v62q0 29 -17 42.5
t-42 13.5q-24 0 -46 -19.5t-22 -47.5v-49q0 -25 17.5 -43.5t47.5 -18.5zM195 305q-53 0 -82.5 25.5t-29.5 64.5v23h50v-16q0 -26 18 -40.5t46 -14.5q67 0 67 73v40q0 34 -17.5 51t-46.5 17q-33 0 -60 -31l-51 6l12 208h197v-44h-154q0 -2 -3.5 -65.5t-3.5 -66.5q30 30 80 30
q43 0 72 -25t29 -74v-53q0 -50 -35.5 -79t-87.5 -29zM170 -3l379 721h44l-379 -721h-44z" />
    <glyph glyph-name="uni215B" unicode="&#x215b;" horiz-adv-x="713" 
d="M162 317v344l-49 -13l-7 42l79 25h30v-398h-53zM545 -12q-53 0 -85.5 25t-32.5 72v35q0 26 16.5 47t42.5 32q-24 8 -39 29t-15 43v35q0 45 32.5 70t80.5 25q49 0 81.5 -24t32.5 -69v-34q0 -23 -15 -43.5t-41 -30.5q26 -9 43.5 -30.5t17.5 -47.5v-37q0 -46 -33.5 -71.5
t-85.5 -25.5zM545 28q30 0 47.5 15.5t17.5 42.5v36q0 28 -19.5 42.5t-45.5 14.5q-27 0 -46 -15t-19 -41v-38q0 -26 18.5 -41.5t46.5 -15.5zM546 218q25 0 43.5 15t18.5 40v35q0 25 -19 39t-45 14q-24 0 -43 -15t-19 -38v-36q0 -26 19 -40t45 -14zM145 -3l379 721h44
l-379 -721h-44z" />
    <glyph glyph-name="uni215C" unicode="&#x215c;" horiz-adv-x="713" 
d="M557 -12q-53 0 -85.5 25t-32.5 72v35q0 26 16.5 47t42.5 32q-24 8 -39 29t-15 43v35q0 45 32.5 70t80.5 25q49 0 81.5 -24t32.5 -69v-34q0 -23 -15 -43.5t-41 -30.5q26 -9 43.5 -30.5t17.5 -47.5v-37q0 -46 -33.5 -71.5t-85.5 -25.5zM557 28q30 0 47.5 15.5t17.5 42.5v36
q0 28 -19.5 42.5t-45.5 14.5q-27 0 -46 -15t-19 -41v-38q0 -26 18.5 -41.5t46.5 -15.5zM558 218q25 0 43.5 15t18.5 40v35q0 25 -19 39t-45 14q-24 0 -43 -15t-19 -38v-36q0 -26 19 -40t45 -14zM199 305q-57 0 -86.5 27t-29.5 70v16h50v-13q0 -27 18.5 -42t45.5 -15
q65 0 65 76q0 39 -22.5 56.5t-45.5 17.5h-36v38h32q30 0 48 18t18 54q0 34 -17.5 50t-43.5 16q-27 0 -43.5 -14t-16.5 -42v-12h-49v15q0 46 29.5 71.5t81.5 25.5q54 0 82.5 -29.5t28.5 -72.5q0 -33 -15.5 -60.5t-46.5 -35.5v-2q33 -8 52.5 -35.5t19.5 -62.5q0 -55 -33 -85
t-86 -30zM172 -3l379 721h44l-379 -721h-44z" />
    <glyph glyph-name="uni215D" unicode="&#x215d;" horiz-adv-x="713" 
d="M555 -12q-53 0 -85.5 25t-32.5 72v35q0 26 16.5 47t42.5 32q-24 8 -39 29t-15 43v35q0 45 32.5 70t80.5 25q49 0 81.5 -24t32.5 -69v-34q0 -23 -15 -43.5t-41 -30.5q26 -9 43.5 -30.5t17.5 -47.5v-37q0 -46 -33.5 -71.5t-85.5 -25.5zM555 28q30 0 47.5 15.5t17.5 42.5v36
q0 28 -19.5 42.5t-45.5 14.5q-27 0 -46 -15t-19 -41v-38q0 -26 18.5 -41.5t46.5 -15.5zM556 218q25 0 43.5 15t18.5 40v35q0 25 -19 39t-45 14q-24 0 -43 -15t-19 -38v-36q0 -26 19 -40t45 -14zM195 305q-53 0 -82.5 25.5t-29.5 64.5v23h50v-16q0 -26 18 -40.5t46 -14.5
q67 0 67 73v40q0 34 -17.5 51t-46.5 17q-33 0 -60 -31l-51 6l12 208h197v-44h-154q0 -2 -3.5 -65.5t-3.5 -66.5q30 30 80 30q43 0 72 -25t29 -74v-53q0 -50 -35.5 -79t-87.5 -29zM170 -3l379 721h44l-379 -721h-44z" />
    <glyph glyph-name="uni215E" unicode="&#x215e;" horiz-adv-x="713" 
d="M555 -12q-53 0 -85.5 25t-32.5 72v35q0 26 16.5 47t42.5 32q-24 8 -39 29t-15 43v35q0 45 32.5 70t80.5 25q49 0 81.5 -24t32.5 -69v-34q0 -23 -15 -43.5t-41 -30.5q26 -9 43.5 -30.5t17.5 -47.5v-37q0 -46 -33.5 -71.5t-85.5 -25.5zM555 28q30 0 47.5 15.5t17.5 42.5v36
q0 28 -19.5 42.5t-45.5 14.5q-27 0 -46 -15t-19 -41v-38q0 -26 18.5 -41.5t46.5 -15.5zM556 218q25 0 43.5 15t18.5 40v35q0 25 -19 39t-45 14q-24 0 -43 -15t-19 -38v-36q0 -26 19 -40t45 -14zM152 317q1 108 37.5 203t82.5 147h-173v44h230v-38q-56 -59 -88.5 -160
t-31.5 -196h-57zM156 -3l379 721h44l-379 -721h-44z" />
    <glyph glyph-name="arrowleft" unicode="&#x2190;" horiz-adv-x="541" 
d="M220 189l-163 168v6l163 168l34 -34l-114 -114h339v-48h-339l113 -114z" />
    <glyph glyph-name="arrowup" unicode="&#x2191;" horiz-adv-x="541" 
d="M247 149v338l-113 -114l-34 34l168 164h6l168 -164l-31 -33l-115 113v-338h-49z" />
    <glyph glyph-name="arrowright" unicode="&#x2192;" horiz-adv-x="541" 
d="M319 189l-33 32l113 114h-339v48h339l-114 114l34 34l163 -168v-6z" />
    <glyph glyph-name="arrowdown" unicode="&#x2193;" horiz-adv-x="541" 
d="M269 149l-169 162l32 34l115 -113v339h49v-339l114 114l32 -35l-168 -162h-5z" />
    <glyph glyph-name="uni2196" unicode="&#x2196;" horiz-adv-x="541" 
d="M404 194l-240 238v-160h-47l2 235l5 4l234 3l1 -45l-160 -1l240 -240z" />
    <glyph glyph-name="uni2197" unicode="&#x2197;" horiz-adv-x="541" 
d="M152 194l-35 34l239 240l-160 1l1 45l234 -3l4 -4l4 -235h-48l1 160z" />
    <glyph glyph-name="uni2198" unicode="&#x2198;" horiz-adv-x="541" 
d="M197 194l-1 45l160 1l-239 239l35 35l240 -240q0 21 -0.5 80.5t-0.5 80.5h48q0 -26 -2 -117.5t-2 -116.5l-4 -5z" />
    <glyph glyph-name="uni2199" unicode="&#x2199;" horiz-adv-x="541" 
d="M358 194l-234 2l-5 5l-2 234h47v-161l240 240l35 -35l-240 -239l160 -1z" />
    <glyph glyph-name="partialdiff" unicode="&#x2202;" horiz-adv-x="473" 
d="M237 -12q-85 0 -133.5 44t-48.5 131v170q0 79 45 126t119 52q35 0 60 -11l-140 214l76 12q138 -209 175 -273q29 -46 29 -118v-165q0 -90 -48.5 -136t-133.5 -46zM238 43q110 0 110 125v170q0 120 -105 120q-58 0 -87.5 -34t-29.5 -90v-174q0 -54 27 -85.5t85 -31.5z" />
    <glyph glyph-name="Delta" unicode="&#x2206;" horiz-adv-x="548" 
d="M35 0v38l209 677h90l207 -677v-38h-506zM113 62h346l-172 577h-3z" />
    <glyph glyph-name="product" unicode="&#x220f;" horiz-adv-x="613" 
d="M126 -133v780h-84v66h529v-66h-78v-780h-68v780h-230v-780h-69z" />
    <glyph glyph-name="summation" unicode="&#x2211;" horiz-adv-x="494" 
d="M50 -133v53l284 388l-287 353v53h397v-64h-301l267 -326l1 -28l-270 -365h304v-64h-395z" />
    <glyph glyph-name="minus" unicode="&#x2212;" 
d="M79 293v49h382v-49h-382z" />
    <glyph glyph-name="radical" unicode="&#x221a;" horiz-adv-x="535" 
d="M173 -2l-150 512h75l112 -414h2l243 617h67l-284 -715h-65z" />
    <glyph glyph-name="infinity" unicode="&#x221e;" horiz-adv-x="827" 
d="M606 162q-96 0 -195 118q-106 -116 -198 -116q-76 0 -122.5 45.5t-46.5 111.5q0 69 49.5 115t122.5 46q101 0 201 -118q111 111 201 111q75 0 120 -40t45 -106q0 -74 -49.5 -120.5t-127.5 -46.5zM208 210q46 0 87 28.5t90 81.5q-83 117 -171 117q-49 0 -83.5 -30.5
t-34.5 -74.5q0 -51 30 -86.5t82 -35.5zM609 208q53 0 87.5 33t34.5 81q0 49 -29.5 79t-85.5 30q-65 0 -173 -110q41 -53 80 -83t86 -30z" />
    <glyph glyph-name="integral" unicode="&#x222b;" horiz-adv-x="371" 
d="M57 -188q-26 0 -54 5l4 53q27 -3 37 -3q36 0 48.5 19.5t15.5 59.5l37 653q4 60 38 94.5t88 34.5q33 0 61 -8l-5 -53q-21 6 -47 6q-30 0 -49.5 -18.5t-21.5 -54.5l-35 -661q-8 -127 -117 -127z" />
    <glyph glyph-name="approxequal" unicode="&#x2248;" 
d="M111 197l-39 7q6 39 26 64t55 25q25 0 117 -16.5t116 -16.5q28 0 43 44l39 -9q-17 -90 -82 -90q-23 0 -117 17.5t-118 17.5q-18 0 -26 -11t-14 -32zM111 351l-39 7q6 39 26 64t55 25q25 0 116.5 -17t116.5 -17q27 0 43 45l39 -9q-17 -90 -82 -90q-23 0 -117 17t-118 17
q-18 0 -26.5 -10.5t-13.5 -31.5z" />
    <glyph glyph-name="notequal" unicode="&#x2260;" 
d="M221 109l-43 14l35 90h-134v51h155q4 11 20.5 51.5t21.5 54.5h-197v48h220q25 56 36 91l45 -16l-30 -75h111v-48h-132l-44 -106h176v-51h-197q-3 -10 -21.5 -52t-21.5 -52z" />
    <glyph glyph-name="lessequal" unicode="&#x2264;" 
d="M425 193l-338 160v40l343 156l21 -46l-294 -130q31 -15 143.5 -66.5t147.5 -68.5zM78 62v50h382v-50h-382z" />
    <glyph glyph-name="greaterequal" unicode="&#x2265;" 
d="M114 193l-23 45l292 135q-37 18 -153 68t-143 62l22 46l344 -156v-40zM79 62v50h382v-50h-382z" />
    <glyph glyph-name="blacksquare" unicode="&#x25a0;" horiz-adv-x="715" 
d="M46 0v715h623v-715h-623z" />
    <glyph glyph-name="whitesquare" unicode="&#x25a1;" horiz-adv-x="716" 
d="M47 0v713h622v-713h-622zM95 44h526v626h-526v-626z" />
    <glyph glyph-name="blacksmallsquare" unicode="&#x25aa;" horiz-adv-x="597" 
d="M52 0v553h493v-553h-493z" />
    <glyph glyph-name="triagup" unicode="&#x25b2;" horiz-adv-x="478" 
d="M52 184v7l178 342h7l189 -342v-7h-374z" />
    <glyph glyph-name="triagrt" unicode="&#x25ba;" horiz-adv-x="478" 
d="M68 170v375h8l341 -181v-7q-15 -9 -168.5 -92.5t-172.5 -94.5h-8z" />
    <glyph glyph-name="triagdn" unicode="&#x25bc;" horiz-adv-x="478" 
d="M241 184l-189 340v9h374v-9l-178 -340h-7z" />
    <glyph glyph-name="triaglf" unicode="&#x25c4;" horiz-adv-x="478" 
d="M402 170l-341 187v7l341 181h8v-375h-8z" />
    <glyph glyph-name="lozenge" unicode="&#x25ca;" horiz-adv-x="492" 
d="M224 -1l-183 340v13l183 362h43l183 -362v-13l-183 -340h-43zM248 64l149 280l-154 299l-146 -295z" />
    <glyph glyph-name="uni25E2" unicode="&#x25e2;" horiz-adv-x="478" 
d="M430 155l-378 71l-4 7l249 283h6l132 -355z" />
    <glyph glyph-name="uni25E3" unicode="&#x25e3;" horiz-adv-x="478" 
d="M53 155l-5 6l133 355h6l248 -283l-3 -7z" />
    <glyph glyph-name="uni25E4" unicode="&#x25e4;" horiz-adv-x="478" 
d="M187 154l-6 1q-28 74 -133 355q0 1 2.5 3t2.5 3l378 -71q1 -1 4 -7z" />
    <glyph glyph-name="uni25E5" unicode="&#x25e5;" horiz-adv-x="478" 
d="M297 154l-249 284q3 6 4 7l378 71l5 -6q-7 -20 -60 -163.5t-72 -191.5q-5 -1 -6 -1z" />
    <glyph glyph-name="I.alt" unicode="&#xe131;" horiz-adv-x="404" 
d="M31 650v63h341v-63h-133v-587h133v-63h-341v63h133v587h-133z" />
    <glyph glyph-name="I.alt" unicode="&#xe488;" horiz-adv-x="404" 
d="M31 650v63h341v-63h-133v-587h133v-63h-341v63h133v587h-133z" />
    <glyph glyph-name="Igrave.alt" unicode="&#xe132;" horiz-adv-x="392" 
d="M26 650v63h341v-63h-133v-587h133v-63h-341v63h133v587h-133zM175 765l-109 146h75l90 -146h-56z" />
    <glyph glyph-name="Iacute.alt" unicode="&#xe133;" horiz-adv-x="392" 
d="M26 650v63h341v-63h-133v-587h133v-63h-341v63h133v587h-133zM169 765l88 146h74l-107 -146h-55z" />
    <glyph glyph-name="Icircumflex.alt" unicode="&#xe134;" horiz-adv-x="392" 
d="M26 650v63h341v-63h-133v-587h133v-63h-341v63h133v587h-133zM79 763l91 149h53l88 -149h-60l-57 102l-57 -102h-58z" />
    <glyph glyph-name="Idieresis.alt" unicode="&#xe135;" horiz-adv-x="392" 
d="M26 650v63h341v-63h-133v-587h133v-63h-341v63h133v587h-133zM88 790v104h63v-104h-63zM242 790v104h62v-104h-62z" />
    <glyph glyph-name="Itilde.alt" unicode="&#xe136;" horiz-adv-x="392" 
d="M26 650v63h341v-63h-133v-587h133v-63h-341v63h133v587h-133zM81 768l-40 6q5 39 27 65t57 26q24 0 72.5 -18.5t72.5 -18.5q32 0 47 46l36 -8q-6 -39 -28 -64t-55 -25q-26 0 -75 18t-70 18q-15 0 -24 -7t-12.5 -14.5t-7.5 -23.5z" />
    <glyph glyph-name="Imacron.alt" unicode="&#xe138;" horiz-adv-x="392" 
d="M26 650v63h341v-63h-133v-587h133v-63h-341v63h133v587h-133zM60 792v53h270v-53h-270z" />
    <glyph glyph-name="Ibreve.alt" unicode="&#xe139;" horiz-adv-x="392" 
d="M26 650v63h341v-63h-133v-587h133v-63h-341v63h133v587h-133zM189 768q-63 0 -102.5 35.5t-41.5 95.5h51q12 -84 97 -84q38 0 60.5 23t27.5 61h49q-3 -62 -44 -96.5t-97 -34.5z" />
    <glyph glyph-name="Idotaccent.alt" unicode="&#xe13c;" horiz-adv-x="392" 
d="M26 650v63h341v-63h-133v-587h133v-63h-341v63h133v587h-133zM162 790v107h65v-107h-65z" />
    <glyph glyph-name="Iogonek.alt" unicode="&#xe13e;" horiz-adv-x="392" 
d="M303 -193q-38 0 -64 21.5t-26 61.5q0 64 61 110h-248v63h133v587h-133v63h341v-63h-133v-587h133v-63h-37q-68 -35 -68 -99q0 -52 50 -52q29 0 50 15l19 -35q-29 -22 -78 -22z" />
    <glyph glyph-name="zero.dnom" unicode="&#xe402;" horiz-adv-x="319" 
d="M161 -12q-53 0 -86 27t-33 80v197q0 53 34 81t84 28q51 0 84.5 -27.5t33.5 -80.5v-196q0 -53 -34 -81t-83 -28zM160 32q64 0 64 66v198q0 26 -16.5 43.5t-47.5 17.5t-48.5 -18t-17.5 -45v-197q0 -28 17 -46.5t49 -18.5z" />
    <glyph glyph-name="one.dnom" unicode="&#xe403;" horiz-adv-x="239" 
d="M101 0v344l-49 -13l-7 42l79 25h30v-398h-53z" />
    <glyph glyph-name="two.dnom" unicode="&#xe404;" horiz-adv-x="300" 
d="M49 0v33l83 101q38 50 57 85.5t19 71.5v3q-2 63 -59 63q-27 0 -42.5 -15.5t-15.5 -41.5v-16h-50v18q0 47 30.5 73t79.5 26q52 0 80.5 -29t28.5 -77q0 -34 -14 -68.5t-29.5 -56.5t-46.5 -61l-51 -65h149v-44h-219z" />
    <glyph glyph-name="three.dnom" unicode="&#xe405;" horiz-adv-x="317" 
d="M157 -12q-57 0 -86.5 27t-29.5 70v16h50v-13q0 -27 18.5 -42t45.5 -15q65 0 65 76q0 39 -22.5 56.5t-45.5 17.5h-36v38h32q30 0 48 18t18 54q0 34 -17.5 50t-43.5 16q-27 0 -43.5 -14t-16.5 -42v-12h-49v15q0 46 29.5 71.5t81.5 25.5q54 0 82.5 -29.5t28.5 -72.5
q0 -33 -15.5 -60.5t-46.5 -35.5v-2q33 -8 52.5 -35.5t19.5 -62.5q0 -55 -33 -85t-86 -30z" />
    <glyph glyph-name="four.dnom" unicode="&#xe406;" horiz-adv-x="297" 
d="M178 0v102h-154v40l142 256h56l-145 -253h101v71l53 38v-109h48v-43h-48v-102h-53z" />
    <glyph glyph-name="five.dnom" unicode="&#xe407;" horiz-adv-x="317" 
d="M153 -12q-53 0 -82.5 25.5t-29.5 64.5v23h50v-16q0 -26 18 -40.5t46 -14.5q67 0 67 73v40q0 34 -17.5 51t-46.5 17q-33 0 -60 -31l-51 6l12 208h197v-44h-154q0 -2 -3.5 -65.5t-3.5 -66.5q30 30 80 30q43 0 72 -25t29 -74v-53q0 -50 -35.5 -79t-87.5 -29z" />
    <glyph glyph-name="six.dnom" unicode="&#xe408;" horiz-adv-x="316" 
d="M157 -12q-51 0 -84 29t-33 76v197q0 52 34.5 82t86.5 30q50 0 80 -26t30 -68v-20h-49v16q0 26 -18 40t-47 14q-28 0 -44.5 -17t-16.5 -44v-97q29 43 87 43q40 0 66.5 -24.5t26.5 -61.5v-66q0 -47 -34 -75t-85 -28zM161 30q30 0 46 17.5t16 42.5v62q0 29 -17 42.5
t-42 13.5q-24 0 -46 -19.5t-22 -47.5v-49q0 -25 17.5 -43.5t47.5 -18.5z" />
    <glyph glyph-name="seven.dnom" unicode="&#xe409;" horiz-adv-x="278" 
d="M79 0q1 108 37.5 203t82.5 147h-173v44h230v-38q-56 -59 -88.5 -160t-31.5 -196h-57z" />
    <glyph glyph-name="eight.dnom" unicode="&#xe40a;" horiz-adv-x="319" 
d="M159 -12q-53 0 -85.5 25t-32.5 72v35q0 26 16.5 47t42.5 32q-24 8 -39 29t-15 43v35q0 45 32.5 70t80.5 25q49 0 81.5 -24t32.5 -69v-34q0 -23 -15 -43.5t-41 -30.5q26 -9 43.5 -30.5t17.5 -47.5v-37q0 -46 -33.5 -71.5t-85.5 -25.5zM159 28q30 0 47.5 15.5t17.5 42.5v36
q0 28 -19.5 42.5t-45.5 14.5q-27 0 -46 -15t-19 -41v-38q0 -26 18.5 -41.5t46.5 -15.5zM160 218q25 0 43.5 15t18.5 40v35q0 25 -19 39t-45 14q-24 0 -43 -15t-19 -38v-36q0 -26 19 -40t45 -14z" />
    <glyph glyph-name="nine.dnom" unicode="&#xe40b;" horiz-adv-x="316" 
d="M155 -12q-51 0 -80.5 26t-29.5 68v17h49v-13q0 -27 18 -41t47 -14q28 0 44.5 17.5t16.5 44.5v94q-28 -42 -88 -42q-40 0 -66 24t-26 62v67q0 48 33.5 76t85.5 28q50 0 83.5 -29.5t33.5 -76.5v-196q0 -52 -34.5 -82t-86.5 -30zM152 182q24 0 46 19.5t22 47.5v49
q0 25 -17.5 43t-47.5 18t-45.5 -17.5t-15.5 -42.5v-62q0 -55 58 -55z" />
    <glyph glyph-name="comma.dnom" unicode="&#xe40d;" horiz-adv-x="148" 
d="M52 -68l17 70h-22v74h54v-73l-24 -71h-25z" />
    <glyph glyph-name="period.dnom" unicode="&#xe40e;" horiz-adv-x="148" 
d="M47 0v76h54v-76h-54z" />
    <glyph glyph-name="parenleft.dnom" unicode="&#xe40f;" horiz-adv-x="179" 
d="M129 -68q-35 48 -54.5 118t-19.5 134q0 140 74 248l31 -1q-31 -70 -44.5 -122t-13.5 -125q0 -129 59 -250z" />
    <glyph glyph-name="parenright.dnom" unicode="&#xe410;" horiz-adv-x="179" 
d="M59 -68l-32 2q59 121 59 250q0 73 -13.5 125t-44.5 122l31 1q73 -106 73 -248q0 -64 -19 -134t-54 -118z" />
    <glyph glyph-name="caronSlovak" unicode="&#xe413;" horiz-adv-x="184" 
d="M58 551l7 162h61l-18 -162h-50z" />
    <glyph glyph-name="commaaccent" unicode="&#xe414;" horiz-adv-x="184" 
d="M56 -192l5 155h64l-20 -155h-49z" />
    <glyph glyph-name="commaaccent" unicode="&#xf6c3;" horiz-adv-x="184" 
d="M56 -192l5 155h64l-20 -155h-49z" />
    <glyph glyph-name="zero.numr" unicode="&#xe416;" horiz-adv-x="319" 
d="M161 306q-53 0 -86 27t-33 80v197q0 53 34 81t84 28q51 0 84.5 -27.5t33.5 -80.5v-196q0 -53 -34 -81t-83 -28zM160 350q64 0 64 66v198q0 26 -16.5 43.5t-47.5 17.5t-48.5 -18t-17.5 -45v-197q0 -28 17 -46.5t49 -18.5z" />
    <glyph glyph-name="one.numr" unicode="&#xe417;" horiz-adv-x="239" 
d="M101 318v344l-49 -13l-7 42l79 25h30v-398h-53z" />
    <glyph glyph-name="two.numr" unicode="&#xe418;" horiz-adv-x="300" 
d="M49 318v33l83 101q38 50 57 85.5t19 71.5v3q-2 63 -59 63q-27 0 -42.5 -15.5t-15.5 -41.5v-16h-50v18q0 47 30.5 73t79.5 26q52 0 80.5 -29t28.5 -77q0 -34 -14 -68.5t-29.5 -56.5t-46.5 -61l-51 -65h149v-44h-219z" />
    <glyph glyph-name="three.numr" unicode="&#xe419;" horiz-adv-x="317" 
d="M157 306q-57 0 -86.5 27t-29.5 70v16h50v-13q0 -27 18.5 -42t45.5 -15q65 0 65 76q0 39 -22.5 56.5t-45.5 17.5h-36v38h32q30 0 48 18t18 54q0 34 -17.5 50t-43.5 16q-27 0 -43.5 -14t-16.5 -42v-12h-49v15q0 46 29.5 71.5t81.5 25.5q54 0 82.5 -29.5t28.5 -72.5
q0 -33 -15.5 -60.5t-46.5 -35.5v-2q33 -8 52.5 -35.5t19.5 -62.5q0 -55 -33 -85t-86 -30z" />
    <glyph glyph-name="four.numr" unicode="&#xe41a;" horiz-adv-x="297" 
d="M178 318v102h-154v40l142 256h56l-145 -253h101v71l53 38v-109h48v-43h-48v-102h-53z" />
    <glyph glyph-name="five.numr" unicode="&#xe41b;" horiz-adv-x="317" 
d="M153 306q-53 0 -82.5 25.5t-29.5 64.5v23h50v-16q0 -26 18 -40.5t46 -14.5q67 0 67 73v40q0 34 -17.5 51t-46.5 17q-33 0 -60 -31l-51 6l12 208h197v-44h-154q0 -2 -3.5 -65.5t-3.5 -66.5q30 30 80 30q43 0 72 -25t29 -74v-53q0 -50 -35.5 -79t-87.5 -29z" />
    <glyph glyph-name="six.numr" unicode="&#xe41c;" horiz-adv-x="316" 
d="M157 306q-51 0 -84 29t-33 76v197q0 52 34.5 82t86.5 30q50 0 80 -26t30 -68v-20h-49v16q0 26 -18 40t-47 14q-28 0 -44.5 -17t-16.5 -44v-97q29 43 87 43q40 0 66.5 -24.5t26.5 -61.5v-66q0 -47 -34 -75t-85 -28zM161 348q30 0 46 17.5t16 42.5v62q0 29 -17 42.5
t-42 13.5q-24 0 -46 -19.5t-22 -47.5v-49q0 -25 17.5 -43.5t47.5 -18.5z" />
    <glyph glyph-name="seven.numr" unicode="&#xe41d;" horiz-adv-x="278" 
d="M79 318q1 108 37.5 203t82.5 147h-173v44h230v-38q-56 -59 -88.5 -160t-31.5 -196h-57z" />
    <glyph glyph-name="eight.numr" unicode="&#xe41e;" horiz-adv-x="319" 
d="M159 306q-53 0 -85.5 25t-32.5 72v35q0 26 16.5 47t42.5 32q-24 8 -39 29t-15 43v35q0 45 32.5 70t80.5 25q49 0 81.5 -24t32.5 -69v-34q0 -23 -15 -43.5t-41 -30.5q26 -9 43.5 -30.5t17.5 -47.5v-37q0 -46 -33.5 -71.5t-85.5 -25.5zM159 346q30 0 47.5 15.5t17.5 42.5
v36q0 28 -19.5 42.5t-45.5 14.5q-27 0 -46 -15t-19 -41v-38q0 -26 18.5 -41.5t46.5 -15.5zM160 536q25 0 43.5 15t18.5 40v35q0 25 -19 39t-45 14q-24 0 -43 -15t-19 -38v-36q0 -26 19 -40t45 -14z" />
    <glyph glyph-name="nine.numr" unicode="&#xe41f;" horiz-adv-x="316" 
d="M155 306q-51 0 -80.5 26t-29.5 68v17h49v-13q0 -27 18 -41t47 -14q28 0 44.5 17.5t16.5 44.5v94q-28 -42 -88 -42q-40 0 -66 24t-26 62v67q0 48 33.5 76t85.5 28q50 0 83.5 -29.5t33.5 -76.5v-196q0 -52 -34.5 -82t-86.5 -30zM152 500q24 0 46 19.5t22 47.5v49
q0 25 -17.5 43t-47.5 18t-45.5 -17.5t-15.5 -42.5v-62q0 -55 58 -55z" />
    <glyph glyph-name="comma.numr" unicode="&#xe421;" horiz-adv-x="148" 
d="M52 250l17 70h-22v74h54v-73l-24 -71h-25z" />
    <glyph glyph-name="period.numr" unicode="&#xe422;" horiz-adv-x="148" 
d="M47 318v76h54v-76h-54z" />
    <glyph glyph-name="parenleft.numr" unicode="&#xe423;" horiz-adv-x="179" 
d="M129 250q-35 48 -54.5 118t-19.5 134q0 140 74 248l31 -1q-31 -70 -44.5 -122t-13.5 -125q0 -129 59 -250z" />
    <glyph glyph-name="parenright.numr" unicode="&#xe424;" horiz-adv-x="179" 
d="M59 250l-32 2q59 121 59 250q0 73 -13.5 125t-44.5 122l31 1q73 -106 73 -248q0 -64 -19 -134t-54 -118z" />
    <glyph glyph-name="numbersign.LP" unicode="&#xe533;" 
d="M104 -2l28 198h-86l6 48h85l36 243h-90l7 46h88l27 182h43l-25 -182h141l25 182h45l-26 -182h86l-6 -46h-85l-34 -243h87l-5 -48h-89l-25 -198h-47l27 198h-140l-26 -198h-47zM183 244h139l37 243h-141z" />
    <glyph glyph-name="zero.LT" unicode="&#xe53f;" 
d="M271 -12q-89 0 -147.5 48t-58.5 135v372q0 86 59.5 134t145.5 48q91 0 148 -46.5t57 -134.5v-373q0 -87 -59 -135t-145 -48zM272 50q64 0 96 33.5t32 89.5v374q0 51 -34.5 84.5t-94.5 33.5q-62 0 -97 -33.5t-35 -87.5v-372q0 -56 35 -89t98 -33z" />
    <glyph glyph-name="one.LT" unicode="&#xe541;" 
d="M238 0v643l-84 -26l-5 57l118 41h43v-715h-72z" />
    <glyph glyph-name="two.LT" unicode="&#xe542;" 
d="M95 0v44l134 180q138 184 138 311v12q-1 53 -28.5 85t-82.5 32q-51 0 -79.5 -27t-28.5 -74v-34h-67v31q0 79 51 122t133 43q86 0 130.5 -48.5t44.5 -132.5q0 -93 -40 -176.5t-118 -182.5l-89 -119v-2h265v-64h-363z" />
    <glyph glyph-name="three.LT" unicode="&#xe543;" 
d="M269 -12q-94 0 -144 45t-50 114v38h69v-34q0 -49 36 -76t88 -27q125 0 125 147q0 77 -42 110t-92 33h-65v61h61q57 0 91 35t34 102t-34.5 98t-84.5 31t-81 -25.5t-31 -78.5v-30h-68v31q0 76 50 119.5t137 43.5q91 0 136.5 -50.5t45.5 -126.5q0 -62 -28 -111t-84 -63v-3
q59 -12 94 -61.5t35 -116.5q0 -93 -56.5 -149t-141.5 -56z" />
    <glyph glyph-name="four.LT" unicode="&#xe544;" 
d="M331 0v187h-277v58l247 468h77l-251 -465h204v141l69 45v-186h86v-61h-86v-187h-69z" />
    <glyph glyph-name="five.LT" unicode="&#xe545;" 
d="M262 -12q-89 0 -137.5 44.5t-48.5 108.5v44h70v-35q0 -48 34 -75.5t86 -27.5q55 0 90.5 30.5t35.5 102.5v87q0 126 -120 126q-62 0 -114 -50l-66 6l19 365h320v-65h-263l-12 -249q57 52 143 52q70 0 117 -43t47 -129v-107q0 -87 -56.5 -136t-144.5 -49z" />
    <glyph glyph-name="six.LT" unicode="&#xe546;" 
d="M267 -12q-86 0 -140.5 50.5t-54.5 131.5l1 374q0 86 55.5 134t141.5 48q85 0 137 -41t52 -109v-41h-71v34q0 45 -34 71.5t-87 26.5q-57 0 -88.5 -33t-31.5 -83v-194q22 42 65.5 66t92.5 24q67 0 113.5 -43t46.5 -111v-132q0 -81 -55.5 -127t-142.5 -46zM273 48
q57 0 89 31.5t32 76.5v127q0 57 -33.5 82.5t-81.5 25.5q-53 0 -92.5 -38t-39.5 -93v-94q0 -50 33.5 -84t92.5 -34z" />
    <glyph glyph-name="seven.LT" unicode="&#xe547;" 
d="M180 0q1 208 63.5 388t137.5 262h-301v64h379v-52q-102 -113 -153.5 -300t-50.5 -362h-75z" />
    <glyph glyph-name="eight.LT" unicode="&#xe548;" 
d="M268 -12q-88 0 -142 44.5t-54 121.5v70q0 49 29 87t75 55q-44 13 -70.5 50t-26.5 78v66q0 78 55.5 121.5t134.5 43.5q82 0 136 -40.5t54 -118.5v-66q0 -43 -26 -80.5t-72 -52.5q46 -14 76 -51.5t30 -89.5v-71q0 -78 -56 -122.5t-143 -44.5zM269 47q56 0 90.5 29.5
t34.5 80.5v71q0 53 -38 82.5t-87 29.5q-50 0 -87 -30t-37 -81v-75q0 -47 35.5 -77t88.5 -30zM270 392q48 0 83.5 30t35.5 76v69q0 47 -36.5 73.5t-85.5 26.5q-46 0 -81.5 -28.5t-35.5 -75.5v-66q0 -49 37.5 -77t82.5 -28z" />
    <glyph glyph-name="nine.LT" unicode="&#xe549;" 
d="M268 -12q-85 0 -137 41t-52 110v42h71v-34q0 -46 34 -72.5t87 -26.5q56 0 88 33t32 83v192q-51 -88 -157 -88q-70 0 -115.5 43t-45.5 111v135q0 79 55 124t142 45q86 0 140.5 -50t54.5 -131v-373q0 -86 -55 -135t-142 -49zM258 324q53 0 93 38.5t40 93.5v94
q0 47 -34.5 82.5t-91.5 35.5t-89 -31.5t-32 -76.5v-129q0 -58 33 -82.5t81 -24.5z" />
    <glyph glyph-name="apple" unicode="&#xf8ff;" horiz-adv-x="1082" 
d="M674 -113l-165 3l-19 -2l-7 7q13 4 25.5 7t17.5 5q49 16 59 63q8 61 15 231l-105 -3l2 11l104 6q9 138 11 231l42 24q-56 3 -191 7q-1 -31 -7 -146q-4 -77 -28.5 -137t-58 -91.5t-64.5 -46.5t-56 -15q-31 0 -84.5 15.5t-76.5 28.5l25 39q2 0 36 -13.5t72.5 -25
t60.5 -10.5q52 1 93.5 66.5t39.5 142.5l5 194q-10 0 -32 1t-33 1q-63 0 -114 -45.5t-51 -109.5q20 -44 82 -71q0 -5 -6.5 -19.5t-10.5 -19.5q-71 31 -78 102q0 76 58.5 130.5t152.5 70.5h33l6 175l43 19q-219 8 -261 8q-63 0 -114 -44.5t-51 -107.5q20 -41 84 -66
q0 -3 -5 -11.5t-11.5 -17.5t-6.5 -10q-72 30 -79 101q0 72 60.5 124t140.5 72q69 0 193.5 -5t174.5 -6q16 0 66 -2q5 0 22 -0.5t21 -0.5q14 -1 35 3q16 11 24 28l9 -3q-8 -18 -26 -36q-60 -30 -121 -30q-50 0 -150 4q-3 -14 -4.5 -73t-3.5 -69l-2 -53q16 0 178 -7t246 -7
l69 -1q70 3 97 16l5 -6q-105 -45 -240 -45q-72 0 -158 3q-3 -20 -8 -103.5t-6 -93.5q0 -9 -2 -55l158 10h4l4 -3l-37 -55l-8 5l25 36l-147 -9q-8 -141 -14 -203q-2 -19 -21 -45t-38 -34l1 -1q32 5 96 6t81 2v-1q0 -11 -9.5 -23.5t-20.5 -13.5q-12 -2 -46 -2z" />
    <glyph glyph-name="CR" horiz-adv-x="179" 
 />
    <glyph glyph-name="uni00A0" horiz-adv-x="180" 
 />
    <glyph glyph-name="LF" horiz-adv-x="15" 
 />
    <glyph glyph-name="RS" horiz-adv-x="15" 
 />
    <glyph glyph-name="US" horiz-adv-x="15" 
 />
    <glyph glyph-name="DEL" horiz-adv-x="0" 
 />
    <glyph glyph-name="period.sub" horiz-adv-x="148" 
d="M47 -133v76h54v-76h-54z" />
    <glyph glyph-name="comma.sub" horiz-adv-x="148" 
d="M52 -201l17 70h-22v74h54v-73l-24 -71h-25z" />
    <glyph glyph-name="period.sup" horiz-adv-x="148" 
d="M47 380v76h54v-76h-54z" />
    <glyph glyph-name="comma.sup" horiz-adv-x="148" 
d="M52 312l17 70h-22v74h54v-73l-24 -71h-25z" />
    <glyph glyph-name="commatop" horiz-adv-x="184" 
d="M59 586v70l23 82h33l-13 -71h22v-81h-65z" />
    <glyph glyph-name="ringacute" horiz-adv-x="273" 
d="M141 564q-42 0 -64 24t-22 57q0 36 24 63l87 105l52 -20l-67 -64q37 -3 56 -24.5t19 -54.5q0 -37 -23.5 -61.5t-61.5 -24.5zM140 594q22 0 36 14.5t14 39.5t-13.5 39.5t-36.5 14.5q-22 0 -34.5 -15.5t-12.5 -40.5q0 -26 13 -39t34 -13z" />
    <glyph glyph-name="altogonek" horiz-adv-x="284" 
d="M160 -192q-36 0 -61 22.5t-25 62.5q0 43 26.5 78t55.5 48l23 -18q-55 -33 -55 -98q0 -53 49 -53q18 0 31 8l14 -36q-23 -14 -58 -14z" />
    <glyph glyph-name="ogonekplus" horiz-adv-x="330" 
d="M160 -193q-38 0 -64 21.5t-26 61.5q0 44 30 80.5t65 50.5l19 -13q-65 -45 -65 -107q0 -53 50 -53q28 0 50 16l19 -35q-29 -22 -78 -22z" />
    <glyph glyph-name="IJ.alt" horiz-adv-x="867" 
d="M31 650v63h341v-63h-133v-587h133v-63h-341v63h133v587h-133zM581 -12q-97 0 -152 49t-55 143v72h72v-66q0 -135 135 -135q70 0 102 38.5t32 93.5v530h74v-514q0 -96 -52.5 -153.5t-155.5 -57.5z" />
    <glyph glyph-name="idotaccent" horiz-adv-x="218" 
d="M74 0v509h70v-509h-70zM74 596v107h70v-107h-70z" />
    </font>
</defs>
</svg>
