<?xml version="1.0" standalone="no"?>
<!DOCTYPE svg PUBLIC "-//W3C//DTD SVG 1.1//EN" "http://www.w3.org/Graphics/SVG/1.1/DTD/svg11.dtd" >
<svg xmlns="http://www.w3.org/2000/svg" xmlns:xlink="http://www.w3.org/1999/xlink" version="1.1">
<metadata>
Created by FontForge 20161013 at Fri Apr 11 06:03:36 2008
 By ,,,
Copyright (c) 2008 by Mrio Feliciano. All rights reserved.
</metadata>
<defs>
<font id="FlamaUltracondensed-Bold" horiz-adv-x="220" >
  <font-face 
    font-family="Flama Ultracondensed Bold"
    font-weight="750"
    font-stretch="normal"
    units-per-em="1000"
    panose-1="0 0 0 0 0 0 0 0 0 0"
    ascent="800"
    descent="-200"
    x-height="538"
    cap-height="713"
    bbox="-104 -221 1278 970"
    underline-thickness="50"
    underline-position="-200"
    unicode-range="U+0020-F8FF"
  />
<missing-glyph horiz-adv-x="951" 
d="M235 118l-40 40l185 185l-185 185l40 40l185 -185l185 185l40 -40l-185 -185l185 -185l-40 -40l-185 185zM55 -18v716h712v-716h-712zM115 42h592v596h-592v-596z" />
    <glyph glyph-name="fi" unicode="fi" horiz-adv-x="347" 
d="M45 0v448h-33v89h33v88q0 39 25 67.5t76 28.5q32 0 52 -8v-81h-29q-21 0 -21 -24v-71h38v-89h-38v-448h-103zM221 0v538h103v-538h-103zM221 586v127h103v-127h-103z" />
    <glyph glyph-name="fl" unicode="fl" horiz-adv-x="367" 
d="M45 0v448h-33v89h33v88q0 39 25 67.5t76 28.5q32 0 52 -8v-81h-29q-21 0 -21 -24v-71h38v-89h-38v-448h-103zM302 -6q-48 0 -64.5 22.5t-16.5 61.5v635h103v-601q0 -14 13 -14q8 0 15 1v-96q-22 -9 -50 -9z" />
    <glyph glyph-name=".notdef" horiz-adv-x="951" 
d="M235 118l-40 40l185 185l-185 185l40 40l185 -185l185 185l40 -40l-185 -185l185 -185l-40 -40l-185 185zM55 -18v716h712v-716h-712zM115 42h592v596h-592v-596z" />
    <glyph glyph-name=".null" horiz-adv-x="0" 
 />
    <glyph glyph-name="nonmarkingreturn" horiz-adv-x="333" 
 />
    <glyph glyph-name="space" unicode=" " horiz-adv-x="110" 
 />
    <glyph glyph-name="exclam" unicode="!" horiz-adv-x="162" 
d="M42 195l-13 250v268h105v-268l-13 -250h-79zM31 0v142h99v-142h-99z" />
    <glyph glyph-name="quotedbl" unicode="&#x22;" horiz-adv-x="292" 
d="M39 462l-16 136v117h99v-117l-15 -136h-68zM179 462l-16 136v117h98v-117l-15 -136h-67z" />
    <glyph glyph-name="numbersign" unicode="#" horiz-adv-x="312" 
d="M51 -2l11 195h-43l3 68h44l15 204h-43l2 70h44l13 182h64l-14 -182h41l13 182h63l-12 -182h44l-4 -70h-44l-15 -204h44l-3 -68h-44l-13 -195h-65l14 195h-40l-12 -195h-63zM130 261h41l14 204h-42z" />
    <glyph glyph-name="dollar" unicode="$" horiz-adv-x="286" 
d="M100 -34v67q-82 21 -82 158h91q4 -58 13 -69q7 -9 19 -9q25 0 25 46q0 38 -43 121l-45 85q-20 40 -28.5 57.5t-19.5 56t-11 74.5q0 44 20.5 77t60.5 46v64h91v-62q75 -22 77 -151h-92q-1 39 -7.5 54.5t-21.5 15.5q-26 0 -26 -44q0 -32 50 -132l34 -64q20 -38 30.5 -60.5
t22 -61t11.5 -71.5q0 -44 -19 -79t-59 -48v-71h-91z" />
    <glyph glyph-name="percent" unicode="%" horiz-adv-x="478" 
d="M117 366q-43 0 -68.5 25t-25.5 65v173q0 45 24.5 71t69.5 26q44 0 68.5 -25.5t24.5 -67.5v-177q0 -38 -26 -64t-67 -26zM116 431q23 0 23 28v176q0 28 -23 28q-22 0 -22 -28v-176q0 -28 22 -28zM362 -12q-43 0 -68 24t-25 65v172q0 45 24.5 72t68.5 27t68.5 -25.5
t24.5 -68.5v-177q0 -38 -25.5 -63.5t-67.5 -25.5zM362 51q22 0 22 30v175q0 27 -22 27t-22 -27v-175q0 -29 22 -30zM106 -2l217 722h53l-215 -722h-55z" />
    <glyph glyph-name="ampersand" unicode="&#x26;" horiz-adv-x="354" 
d="M137 -10q-120 0 -120 205q0 132 75 203q-3 7 -10.5 27t-11 29t-9.5 27t-8.5 30.5t-5 29.5t-2.5 33q0 66 33 108.5t89 42.5q116 0 116 -153q0 -121 -78 -196q6 -14 23.5 -60.5t20.5 -54.5q2 15 5.5 42.5t4.5 37.5l82 -6q-21 -129 -43 -200l25 -65t27 -70h-105l-17 47
q-38 -57 -91 -57zM154 91q26 0 41 40q-8 19 -32 84.5t-31 82.5q-12 -23 -12 -107q0 -100 34 -100zM171 461q23 46 23 113q0 63 -25 63q-26 0 -26 -52q0 -43 28 -124z" />
    <glyph glyph-name="quotesingle" unicode="'" horiz-adv-x="152" 
d="M39 462l-16 136v117h99v-117l-15 -136h-68z" />
    <glyph glyph-name="parenleft" unicode="(" horiz-adv-x="188" 
d="M123 -166q-41 84 -64.5 209t-23.5 239q0 121 23 239.5t65 202.5l58 -9l-12 -52t-11.5 -51t-9 -45.5t-9 -50t-6.5 -48t-5.5 -57t-3 -59.5t-1.5 -71q0 -176 58 -437z" />
    <glyph glyph-name="parenright" unicode=")" horiz-adv-x="188" 
d="M66 -166l-58 10q57 257 57 437q0 33 -0.5 62t-3 57.5t-4 48t-6 48.5t-6 41.5t-8 44t-8.5 40.5t-10.5 46t-10.5 46l58 9q41 -84 64.5 -203t23.5 -239q0 -114 -23.5 -239t-64.5 -209z" />
    <glyph glyph-name="asterisk" unicode="*" horiz-adv-x="281" 
d="M91 473l-49 32l50 76l-75 45l29 50l66 -38v76h58v-77l65 39l29 -50l-75 -45l50 -76l-48 -32l-50 77z" />
    <glyph glyph-name="plus" unicode="+" horiz-adv-x="300" 
d="M110 167v111h-91v81h91v113h81l-1 -113h92v-81h-91v-111h-81z" />
    <glyph glyph-name="comma" unicode="," horiz-adv-x="148" 
d="M31 -111l25 118h-31v135h99v-129l-37 -124h-56z" />
    <glyph glyph-name="hyphen" unicode="-" horiz-adv-x="167" 
d="M15 252v86h138v-86h-138z" />
    <glyph glyph-name="period" unicode="." horiz-adv-x="148" 
d="M25 0v142h99v-142h-99z" />
    <glyph glyph-name="slash" unicode="/" horiz-adv-x="192" 
d="M-9 -158l122 871h68l-118 -871h-72z" />
    <glyph glyph-name="zero" unicode="0" horiz-adv-x="296" 
d="M147 -9q-60 0 -92.5 33.5t-32.5 91.5v484q0 56 36 89.5t91 33.5q54 0 89.5 -32.5t35.5 -86.5v-487q0 -60 -33.5 -93t-93.5 -33zM147 83q24 0 24 26v493q0 25 -23 25q-22 0 -22 -24v-494q0 -26 21 -26z" />
    <glyph glyph-name="one" unicode="1" horiz-adv-x="209" 
d="M65 0v595l-30 -13l-19 82l84 50h68v-714h-103z" />
    <glyph glyph-name="two" unicode="2" horiz-adv-x="284" 
d="M24 0v77l93 236q45 122 45 225v34q0 53 -23 53t-23 -47v-67h-93v63q0 65 29 107t90 42q59 0 91 -42.5t32 -121.5q0 -146 -72 -321l-59 -137v-2h134v-99h-244z" />
    <glyph glyph-name="three" unicode="3" horiz-adv-x="289" 
d="M141 -9q-39 0 -64.5 14t-37.5 39.5t-16.5 50.5t-4.5 58v49h99v-67q0 -52 22 -52q14 0 20.5 23.5t6.5 89.5q0 63 -10 85.5t-38 22.5h-40v112h50q22 0 28.5 21.5t6.5 89.5q0 100 -26 100q-20 0 -20 -56v-60h-98v50q0 77 32 119.5t96 42.5q50 0 84.5 -44t34.5 -136
q0 -150 -72 -178v-4q76 -33 76 -166q0 -204 -129 -204z" />
    <glyph glyph-name="four" unicode="4" horiz-adv-x="300" 
d="M163 0v173h-147v84l112 456h106l-123 -446h52v117l88 79v-196h33v-94h-33v-173h-88z" />
    <glyph glyph-name="five" unicode="5" horiz-adv-x="287" 
d="M144 -10q-63 0 -94.5 36.5t-31.5 102.5v87h99v-87q0 -45 24 -45q23 0 23 47v194q0 43 -25 43q-20 0 -31 -35l-85 2l11 378h225v-96h-138q0 -24 -2.5 -95t-2.5 -94q24 28 63 28q89 0 89 -116v-204q0 -71 -33 -108.5t-91 -37.5z" />
    <glyph glyph-name="six" unicode="6" horiz-adv-x="294" 
d="M149 -9q-65 0 -95.5 37t-30.5 98v462q0 65 34.5 100.5t94.5 35.5q56 0 87 -35t31 -91v-87h-100v82q0 35 -20 35q-24 0 -24 -35v-183q27 24 57 24q91 0 91 -101v-208q0 -58 -32 -96t-93 -38zM149 83q21 0 21 37v206q0 27 -21 27t-23 -27v-210q0 -33 23 -33z" />
    <glyph glyph-name="seven" unicode="7" horiz-adv-x="273" 
d="M55 0q0 329 96 612h-133v101h238v-87q-95 -274 -97 -626h-104z" />
    <glyph glyph-name="eight" unicode="8" horiz-adv-x="292" 
d="M145 -9q-55 0 -90 32t-35 92v157q0 63 39 92q-35 27 -35 83v148q0 60 33 94.5t90 34.5q54 0 87.5 -32.5t33.5 -92.5v-144q0 -62 -39 -91q43 -28 43 -87v-158q0 -62 -35.5 -95t-91.5 -33zM147 84q23 0 23 30v179q0 32 -23 32t-23 -31v-180q0 -30 23 -30zM147 409
q23 0 23 32v159q0 28 -23 28q-22 0 -22 -27v-159q0 -33 22 -33z" />
    <glyph glyph-name="nine" unicode="9" horiz-adv-x="293" 
d="M142 -8q-55 0 -86.5 36.5t-31.5 95.5v78h100v-77q0 -37 20 -37q24 0 24 36v179q-27 -24 -57 -24q-90 0 -90 101v212q0 58 31 94t93 36q66 0 96 -37t30 -98v-446q0 -69 -34.5 -109t-94.5 -40zM145 360q21 0 23 27v210q0 33 -23 33q-21 0 -21 -36v-207q0 -27 21 -27z" />
    <glyph glyph-name="colon" unicode=":" horiz-adv-x="148" 
d="M25 0v142h99v-142h-99zM25 396v141h99v-141h-99z" />
    <glyph glyph-name="semicolon" unicode=";" horiz-adv-x="149" 
d="M31 -111l25 118h-31v135h99v-129l-37 -124h-56zM25 396v141h99v-141h-99z" />
    <glyph glyph-name="less" unicode="&#x3c;" horiz-adv-x="300" 
d="M236 173l-207 116v62l207 116l34 -72l-136 -75l137 -75z" />
    <glyph glyph-name="equal" unicode="=" horiz-adv-x="300" 
d="M25 200v82h250v-82h-250zM25 344v81h250v-81h-250z" />
    <glyph glyph-name="greater" unicode="&#x3e;" horiz-adv-x="300" 
d="M63 174l-34 72l136 75l-136 75l34 72l208 -116l-1 -62z" />
    <glyph glyph-name="question" unicode="?" horiz-adv-x="289" 
d="M92 195v22q0 86 34 177t34 172q0 58 -23 58q-22 0 -22 -48v-76h-91v76q0 66 30.5 106.5t91.5 40.5q55 0 87 -43.5t32 -121.5q0 -23 -3 -45t-9.5 -45t-11 -35.5t-14.5 -37t-12 -29.5q-29 -81 -29 -141v-30h-94zM93 0v142h99v-142h-99z" />
    <glyph glyph-name="at" unicode="@" horiz-adv-x="554" 
d="M300 -20q-114 0 -177 57q-100 86 -100 288q0 187 76.5 288.5t202.5 101.5q98 0 163.5 -68t65.5 -218q0 -117 -47.5 -202t-115.5 -103h-82l5 49h-4q-13 -27 -34.5 -43t-45.5 -16q-35 0 -55 24t-20 64q0 15 3 45l31 232q7 47 34 73t67 26q45 0 63 -40h3l4 33h87l-46 -394
q43 17 71 92.5t28 161.5q0 242 -179 242q-109 0 -166.5 -93.5t-57.5 -253.5q0 -182 86 -256q53 -45 139 -45q70 0 152 28l12 -36q-70 -37 -163 -37zM256 210q36 0 43 61l19 162v12q0 41 -28 41q-25 0 -32 -49l-22 -173q-2 -6 -2 -28q0 -26 22 -26z" />
    <glyph glyph-name="A" unicode="A" horiz-adv-x="347" 
d="M10 0l82 713h163l82 -713h-111l-18 171h-82l-19 -171h-97zM137 269h61l-28 294h-4z" />
    <glyph glyph-name="B" unicode="B" horiz-adv-x="320" 
d="M25 0v713h140q65 0 99.5 -42t34.5 -144q0 -139 -70 -164v-4q72 -23 72 -155q0 -204 -128 -204h-148zM135 97h20q35 0 35 104q0 59 -9 81.5t-31 22.5h-15v-208zM135 411h13q23 0 32.5 23t9.5 81q0 99 -33 99h-22v-203z" />
    <glyph glyph-name="C" unicode="C" horiz-adv-x="316" 
d="M162 -9q-69 0 -105 36t-36 100v458q0 63 39.5 100.5t104.5 37.5q62 0 97 -36t35 -97v-130h-104v119q0 38 -30 38q-29 0 -29 -36v-444q0 -39 30 -39q29 0 29 39v115h104v-119q0 -63 -35.5 -102.5t-99.5 -39.5z" />
    <glyph glyph-name="D" unicode="D" horiz-adv-x="324" 
d="M25 0v713h141q60 0 98.5 -34.5t38.5 -95.5v-449q0 -65 -38.5 -99.5t-100.5 -34.5h-139zM135 104h20q37 0 37 43v425q0 38 -37 38h-20v-506z" />
    <glyph glyph-name="E" unicode="E" horiz-adv-x="268" 
d="M25 0v713h223v-103h-113v-189h91v-105h-91v-212h115v-104h-225z" />
    <glyph glyph-name="F" unicode="F" horiz-adv-x="263" 
d="M25 0v713h223v-103h-113v-190h90v-104h-90v-316h-110z" />
    <glyph glyph-name="G" unicode="G" horiz-adv-x="318" 
d="M162 -9q-69 0 -105 36t-36 100v458q0 63 38.5 100.5t104.5 37.5q62 0 97.5 -36t35.5 -97v-120h-104v111q0 35 -30 35q-29 0 -29 -37v-444q0 -37 30 -37q29 0 29 39v151h-33v96h137v-251q0 -63 -35.5 -102.5t-99.5 -39.5z" />
    <glyph glyph-name="H" unicode="H" horiz-adv-x="330" 
d="M25 0v713h111v-302h59v302h110v-713h-110v305h-59v-305h-111z" />
    <glyph glyph-name="I" unicode="I" horiz-adv-x="160" 
d="M25 0v713h111v-713h-111z" />
    <glyph glyph-name="J" unicode="J" horiz-adv-x="308" 
d="M146 -10q-65 0 -98 40.5t-33 109.5v115h105v-121q0 -39 28 -39q27 0 27 41v577h111v-574q0 -71 -37 -110t-103 -39z" />
    <glyph glyph-name="K" unicode="K" horiz-adv-x="327" 
d="M25 0v713h111v-303l69 303h111l-75 -272l78 -441h-112l-47 327l-24 -80v-247h-111z" />
    <glyph glyph-name="L" unicode="L" horiz-adv-x="264" 
d="M25 0v713h110v-609h115v-104h-225z" />
    <glyph glyph-name="M" unicode="M" horiz-adv-x="413" 
d="M25 0v713h138l45 -267h2l51 267h128v-713h-100v513h-3l-47 -278h-64l-49 277h-2v-512h-99z" />
    <glyph glyph-name="N" unicode="N" horiz-adv-x="355" 
d="M25 0v713h119l86 -379h3v379h97v-713h-110l-96 425h-4v-425h-95z" />
    <glyph glyph-name="O" unicode="O" horiz-adv-x="327" 
d="M163 -9q-142 0 -142 148v439q0 68 38.5 106.5t104.5 38.5t104 -38t38 -105v-441q0 -69 -38.5 -108.5t-104.5 -39.5zM164 98q29 0 29 36v450q0 31 -30 31q-29 0 -29 -31v-451q0 -14 7.5 -24.5t22.5 -10.5z" />
    <glyph glyph-name="P" unicode="P" horiz-adv-x="319" 
d="M25 0v713h147q65 0 97.5 -49.5t32.5 -163.5q0 -118 -32 -172.5t-102 -54.5h-32v-273h-111zM136 374h20q20 0 28 29t8 99q0 64 -7.5 86.5t-29.5 22.5h-19v-237z" />
    <glyph glyph-name="Q" unicode="Q" horiz-adv-x="327" 
d="M235 -77l-39 72q-20 -4 -32 -4q-143 0 -143 148v439q0 68 39 106.5t106 38.5q66 0 104.5 -38t38.5 -105v-441q0 -47 -18 -79l51 -80zM165 98q31 0 31 36v450q0 31 -32 31q-14 0 -22 -9t-8 -22v-451q0 -13 8 -24t23 -11z" />
    <glyph glyph-name="R" unicode="R" horiz-adv-x="327" 
d="M25 0v713h133q150 0 150 -204q0 -51 -9 -87.5t-16.5 -49t-20.5 -28.5l50 -344h-111l-40 310h-25v-310h-111zM136 394h20q38 0 38 109q0 108 -42 108h-16v-217z" />
    <glyph glyph-name="S" unicode="S" horiz-adv-x="308" 
d="M156 -9q-148 0 -137 217h104q0 -64 8 -90.5t27 -26.5q25 0 25 45q0 47 -48 137l-50 94q-64 120 -64 205q0 66 33 108.5t102 42.5q71 0 101 -47.5t29 -155.5h-101q-2 107 -30 107q-26 0 -26 -46q0 -51 54 -150l37 -70q70 -133 70 -218q0 -64 -34.5 -108t-99.5 -44z" />
    <glyph glyph-name="T" unicode="T" horiz-adv-x="309" 
d="M100 0v610h-88v103h285v-103h-86v-610h-111z" />
    <glyph glyph-name="U" unicode="U" horiz-adv-x="319" 
d="M156 -9q-65 0 -99.5 35t-34.5 105v582h113v-580q0 -36 28 -36q29 0 29 38v578h105v-577q0 -68 -38 -106.5t-103 -38.5z" />
    <glyph glyph-name="V" unicode="V" horiz-adv-x="317" 
d="M93 -3l-83 716h112l44 -461h3l41 461h97l-80 -716h-134z" />
    <glyph glyph-name="W" unicode="W" horiz-adv-x="486" 
d="M93 -2l-83 715h110l34 -426h3l38 426h113l37 -423h3l34 423h94l-81 -715h-102l-42 456h-4l-43 -456h-111z" />
    <glyph glyph-name="X" unicode="X" horiz-adv-x="302" 
d="M2 0l96 350l-96 363h112l42 -181l45 181h97l-93 -343l95 -370h-108l-45 187l-45 -187h-100z" />
    <glyph glyph-name="Y" unicode="Y" horiz-adv-x="319" 
d="M104 0v279l-99 434h119l41 -256l40 256h109l-98 -435v-278h-112z" />
    <glyph glyph-name="Z" unicode="Z" horiz-adv-x="271" 
d="M16 0v80l131 530h-126v103h237v-90l-128 -519h122v-104h-236z" />
    <glyph glyph-name="bracketleft" unicode="[" horiz-adv-x="181" 
d="M43 -160v873h126v-56h-43v-762h43v-55h-126z" />
    <glyph glyph-name="backslash" unicode="\" horiz-adv-x="192" 
d="M125 -158l-119 871h69l122 -871h-72z" />
    <glyph glyph-name="bracketright" unicode="]" horiz-adv-x="181" 
d="M12 -160v55h43v762h-43v56h126v-873h-126z" />
    <glyph glyph-name="asciicircum" unicode="^" horiz-adv-x="300" 
d="M25 198l83 344h70l74 -344h-83l-28 144l-33 -144h-83z" />
    <glyph glyph-name="underscore" unicode="_" horiz-adv-x="329" 
d="M0 -144v75h329v-75h-329z" />
    <glyph glyph-name="grave" unicode="`" horiz-adv-x="198" 
d="M110 586l-83 140h107l48 -140h-72z" />
    <glyph glyph-name="a" unicode="a" horiz-adv-x="284" 
d="M104 -9q-88 0 -88 170q0 77 35 125t103 49h4v94q0 25 -20 25q-21 0 -21 -26v-62h-93v60q0 55 31 89t88 34q61 0 89 -34.5t28 -91.5v-302q0 -89 4 -121h-90q0 1 -1.5 9.5t-3 19.5t-1.5 16h-2q-6 -27 -24 -40.5t-38 -13.5zM139 81q19 0 19 32v146h-6q-16 0 -25.5 -24.5
t-9.5 -66.5q0 -87 22 -87z" />
    <glyph glyph-name="b" unicode="b" horiz-adv-x="294" 
d="M187 -6q-52 0 -75 51h-1l-2 -45h-86v713h103v-215h1q9 22 30 36t42 14q74 0 74 -89v-362q0 -103 -86 -103zM150 83q21 0 21 25v319q0 26 -22 26q-23 0 -23 -30v-311q0 -29 24 -29z" />
    <glyph glyph-name="c" unicode="c" horiz-adv-x="280" 
d="M141 -9q-58 0 -89 33.5t-31 88.5v312q0 55 34.5 89t89.5 34t86 -33t31 -83v-64h-93v59q0 26 -23 26q-22 0 -22 -27v-313q0 -30 22 -30q23 0 23 29v62h93v-63q0 -58 -31.5 -89t-89.5 -31z" />
    <glyph glyph-name="d" unicode="d" horiz-adv-x="294" 
d="M95 -10q-45 0 -59.5 27t-14.5 74v365q0 38 18.5 65t61.5 27q44 0 65 -35h1v200h104v-713h-94l-4 47h-2q-8 -26 -32 -41.5t-44 -15.5zM144 86q24 0 24 31v315q0 28 -23 28q-22 0 -22 -26v-322q0 -26 21 -26z" />
    <glyph glyph-name="e" unicode="e" horiz-adv-x="282" 
d="M151 -10q-60 0 -95 34t-35 90v309q0 55 33.5 90t89.5 35t87 -34t31 -86v-200h-138v-83q0 -58 49 -58q26 0 70 12l20 -88q-57 -21 -112 -21zM124 312h42v112q0 29 -20 29q-22 0 -22 -29v-112z" />
    <glyph glyph-name="f" unicode="f" horiz-adv-x="206" 
d="M48 0v448h-33v89h33v88q0 39 25 67.5t76 28.5q32 0 52 -8v-81h-29q-21 0 -21 -24v-71h38v-89h-38v-448h-103z" />
    <glyph glyph-name="g" unicode="g" horiz-adv-x="294" 
d="M133 -173q-59 0 -104 15l20 91q46 -12 72 -12q47 0 47 48v78h-2q-11 -22 -30 -34t-36 -12q-78 0 -78 89v360q0 98 82 98q21 0 40 -11.5t28 -31.5h2l4 36h93v-577q0 -66 -36.5 -101.5t-101.5 -35.5zM146 88q10 0 16.5 7.5t6.5 19.5v317q0 28 -24 28q-20 0 -20 -26v-320
q0 -26 21 -26z" />
    <glyph glyph-name="h" unicode="h" horiz-adv-x="294" 
d="M23 0v713h103v-211h1q23 46 75 46q35 0 52.5 -22t17.5 -56v-470h-102v428q0 25 -20 25q-24 0 -24 -32v-421h-103z" />
    <glyph glyph-name="i" unicode="i" horiz-adv-x="149" 
d="M23 0v538h103v-538h-103zM23 586v127h103v-127h-103z" />
    <glyph glyph-name="j" unicode="j" horiz-adv-x="150" 
d="M32 -164q-23 0 -42 4v89h13q13 0 17.5 6t4.5 23v580h101v-597q0 -49 -23 -77t-71 -28zM24 586v127h103v-127h-103z" />
    <glyph glyph-name="k" unicode="k" horiz-adv-x="299" 
d="M23 0v713h103v-380l63 205h102l-65 -187l62 -351h-107l-38 245l-17 -50v-195h-103z" />
    <glyph glyph-name="l" unicode="l" horiz-adv-x="168" 
d="M104 -6q-48 0 -64.5 22.5t-16.5 61.5v635h103v-601q0 -14 13 -14q8 0 15 1v-96q-22 -9 -50 -9z" />
    <glyph glyph-name="m" unicode="m" horiz-adv-x="441" 
d="M23 0v538h100v-41h1q28 51 77 51q52 0 65 -47h2q28 47 79 47q35 0 53.5 -23t18.5 -60v-465h-102v428q0 25 -21 25q-22 0 -24 -30v-423h-102v428q0 25 -20 25q-24 0 -24 -32v-421h-103z" />
    <glyph glyph-name="n" unicode="n" horiz-adv-x="294" 
d="M23 0v538h100v-41h1q26 51 77 51q35 0 53 -21.5t18 -56.5v-470h-102v428q0 25 -20 25q-24 0 -24 -32v-421h-103z" />
    <glyph glyph-name="o" unicode="o" horiz-adv-x="293" 
d="M146 -9q-61 0 -93 33t-32 92v310q0 56 35.5 89t90.5 33q54 0 89.5 -32.5t35.5 -86.5v-313q0 -60 -33.5 -92.5t-92.5 -32.5zM146 83q22 0 22 26v318q0 26 -22 26t-22 -24v-320q0 -26 22 -26z" />
    <glyph glyph-name="p" unicode="p" horiz-adv-x="294" 
d="M23 -160v698h99v-42h2q25 52 76 52q73 0 73 -97v-367q0 -93 -81 -93q-17 0 -36 9t-28 24h-2v-184h-103zM149 84q22 0 22 26v318q0 25 -22 25q-23 0 -23 -30v-313q0 -26 23 -26z" />
    <glyph glyph-name="q" unicode="q" horiz-adv-x="294" 
d="M168 -160v189h-2q-9 -18 -27.5 -28.5t-34.5 -10.5q-83 0 -83 94v363q0 43 23.5 72t71.5 29q43 0 66 -37h1l4 29h84v-700h-103zM145 84q23 0 23 26v318q0 30 -23 30q-21 0 -21 -25v-322q0 -27 21 -27z" />
    <glyph glyph-name="r" unicode="r" horiz-adv-x="224" 
d="M23 0v538h100v-47h1q8 22 25 37t37 15q18 0 27 -4v-108q-18 2 -33 2q-28 0 -41 -12t-13 -29v-392h-103z" />
    <glyph glyph-name="s" unicode="s" horiz-adv-x="266" 
d="M137 -9q-66 0 -93 41t-25 121h87q1 -77 28 -77q19 0 19 30q0 9 -2.5 19t-8.5 22l-9.5 19t-11 20t-8.5 14l-46 86q-45 73 -45 140q0 52 29 86.5t87 34.5q110 0 109 -156l-86 -1q-4 73 -27 73q-19 0 -19 -27q0 -11 36 -83l41 -76q56 -107 56 -163q0 -50 -26 -86.5
t-85 -36.5z" />
    <glyph glyph-name="t" unicode="t" horiz-adv-x="209" 
d="M137 -5q-44 0 -68.5 22t-24.5 60v370h-32v88h32v105h103v-105h54v-87h-54v-334q0 -22 20 -22q9 0 27 3v-93q-24 -7 -57 -7z" />
    <glyph glyph-name="u" unicode="u" horiz-adv-x="293" 
d="M92 -10q-36 0 -54 21.5t-18 58.5v468h102v-427q0 -26 21 -26q24 0 24 32v421h103v-538h-100v42h-1q-11 -25 -32.5 -38.5t-44.5 -13.5z" />
    <glyph glyph-name="v" unicode="v" horiz-adv-x="272" 
d="M82 -2l-78 540h108l27 -331h2l32 331h95l-79 -540h-107z" />
    <glyph glyph-name="w" unicode="w" horiz-adv-x="412" 
d="M82 -1l-78 539h110l24 -285h3l26 285h90l24 -285h3l27 285h97l-79 -539h-85l-34 296h-4l-33 -296h-91z" />
    <glyph glyph-name="x" unicode="x" horiz-adv-x="282" 
d="M5 1l85 270l-79 267h105l32 -135l33 135h92l-79 -257l83 -280h-105l-35 145l-38 -145h-94z" />
    <glyph glyph-name="y" unicode="y" horiz-adv-x="271" 
d="M70 -167q-21 0 -41 4v80q14 -2 29 -2q25 0 29 28l6 36l-90 559h105l33 -337h2l30 337h95l-86 -574q-24 -131 -112 -131z" />
    <glyph glyph-name="z" unicode="z" horiz-adv-x="239" 
d="M15 0v83l99 360h-98v95h207v-88l-97 -353h96v-97h-207z" />
    <glyph glyph-name="braceleft" unicode="{" horiz-adv-x="183" 
d="M127 -160q-42 0 -63 18t-21 66v299q0 30 -6 42.5t-24 15.5v56q17 4 23.5 14.5t6.5 31.5v239q0 91 84 91h42v-57h-24q-19 0 -19 -22v-228q0 -41 -9 -63t-36 -33v-5q29 -12 37 -31t8 -64v-292q0 -23 19 -23h24v-55h-42z" />
    <glyph glyph-name="bar" unicode="|" horiz-adv-x="223" 
d="M74 -157v870h74v-870h-74z" />
    <glyph glyph-name="braceright" unicode="}" horiz-adv-x="183" 
d="M13 -160v55h24q18 0 18 23v292q0 44 8 63.5t37 31.5v5q-27 11 -36 33t-9 63v228q0 22 -18 22h-24v57h41q85 0 85 -91v-239q0 -22 6 -32t24 -14v-56q-18 -3 -24 -15.5t-6 -42.5v-299q0 -48 -21 -66t-64 -18h-41z" />
    <glyph glyph-name="asciitilde" unicode="~" horiz-adv-x="300" 
d="M82 256l-51 8q13 109 70 109q17 0 49.5 -11t45.5 -11q10 0 15 7t10 25l48 -9q-4 -46 -20 -77.5t-48 -31.5q-15 0 -50.5 12.5t-42.5 12.5q-17 0 -26 -34z" />
    <glyph glyph-name="uni00A0" unicode="&#xa0;" horiz-adv-x="110" 
 />
    <glyph glyph-name="exclamdown" unicode="&#xa1;" horiz-adv-x="162" 
d="M29 -153v268l12 250h79l14 -250v-268h-105zM32 419v141h99v-141h-99z" />
    <glyph glyph-name="cent" unicode="&#xa2;" horiz-adv-x="282" 
d="M112 -59v68q-44 8 -67.5 39.5t-23.5 79.5v298q0 46 24.5 77.5t66.5 41.5v69h70v-71q38 -10 59 -40t21 -72v-63h-93v59q0 26 -23 26q-22 0 -22 -27v-298q0 -29 22 -29q23 0 23 29v62h93v-63q0 -96 -80 -115v-71h-70z" />
    <glyph glyph-name="sterling" unicode="&#xa3;" horiz-adv-x="351" 
d="M24 0v94h31v220h-31v87h31v179q0 69 37 106.5t103 37.5q61 0 94.5 -36t33.5 -96v-71h-100v73q0 30 -29 30q-10 0 -18.5 -8t-8.5 -25v-190h100v-87h-100v-220h162l-15 -94h-290z" />
    <glyph glyph-name="currency" unicode="&#xa4;" horiz-adv-x="348" 
d="M75 209l-34 33l36 35q-22 31 -22 70q0 33 18 64l-36 37l33 32l35 -35q31 23 69 23q34 0 64 -19l37 36l33 -33l-36 -35q23 -33 23 -71q0 -36 -20 -65l36 -35l-31 -33l-36 35q-31 -22 -69 -22q-34 0 -64 19zM175 269q35 0 53.5 22t18.5 56q0 33 -20 55.5t-52 22.5
q-35 0 -54 -22.5t-19 -56.5q0 -32 20 -54.5t53 -22.5z" />
    <glyph glyph-name="yen" unicode="&#xa5;" horiz-adv-x="311" 
d="M100 0v211h-69v85h66l-96 417h119l41 -256l40 256h109l-94 -417h66v-85h-70v-211h-112z" />
    <glyph glyph-name="brokenbar" unicode="&#xa6;" horiz-adv-x="300" 
d="M88 -44v357h82v-357h-82zM88 388v328h82v-328h-82z" />
    <glyph glyph-name="section" unicode="&#xa7;" horiz-adv-x="317" 
d="M158 -14q-127 0 -127 135v42h91v-41q0 -59 35 -59q33 0 33 63q0 51 -41 75l-32 18q-91 47 -91 137q0 20 9 41.5t15.5 30.5t23.5 32q-49 46 -49 120q0 62 35.5 100t99.5 38q55 0 89 -32.5t34 -98.5v-42h-89v34q0 58 -35 58q-32 0 -32 -57q0 -26 12.5 -46.5t30.5 -29.5
l29 -17q24 -15 40.5 -27.5t33.5 -39.5t17 -59q0 -62 -44 -113q48 -48 48 -119q0 -68 -37 -105.5t-99 -37.5zM178 299q20 17 20 44q0 31 -34 49l-26 15q-20 -18 -20 -46q0 -17 12.5 -30.5t24.5 -18.5z" />
    <glyph glyph-name="dieresis" unicode="&#xa8;" horiz-adv-x="256" 
d="M28 587v137h83v-137h-83zM145 587v137h83v-137h-83z" />
    <glyph glyph-name="copyright" unicode="&#xa9;" horiz-adv-x="600" 
d="M303 65q-57 0 -90 30.5t-33 82.5v336q0 54 34 87t89 33q57 0 86.5 -33t29.5 -85v-104h-88v99q0 35 -25 35q-27 0 -27 -34v-325q0 -33 25 -33q27 0 27 32v98h88v-97q0 -56 -30 -89t-86 -33zM301 -37q-94 0 -157.5 54t-90.5 138.5t-27 194.5q0 165 71.5 274t203.5 109
q91 0 154.5 -54t91 -138t27.5 -191q0 -168 -69.5 -277.5t-203.5 -109.5zM301 19q96 0 152.5 89t56.5 242t-55 242.5t-154 89.5q-100 0 -155 -88.5t-55 -243.5q0 -154 56.5 -242.5t153.5 -88.5z" />
    <glyph glyph-name="ordfeminine" unicode="&#xaa;" horiz-adv-x="221" 
d="M79 380q-26 0 -42 24.5t-16 77.5q0 46 24 74.5t69 28.5h2v54q0 13 -12 13t-12 -14v-35h-66v34q0 34 21 55.5t60 21.5q81 0 81 -79v-178q0 -62 3 -71h-68q-3 15 -3 23q-12 -29 -41 -29zM104 439q12 0 12 14v85h-3q-21 0 -21 -52q0 -47 12 -47zM38 290v67h149v-67h-149z
" />
    <glyph glyph-name="guillemotleft" unicode="&#xab;" horiz-adv-x="319" 
d="M113 137l-97 139l96 141l56 -37l-52 -104l55 -104zM245 146l-93 130l93 132l56 -37l-50 -95l52 -95z" />
    <glyph glyph-name="logicalnot" unicode="&#xac;" horiz-adv-x="365" 
d="M264 179v98h-242v83h321v-181h-79z" />
    <glyph glyph-name="registered" unicode="&#xae;" horiz-adv-x="363" 
d="M116 405v247h73q29 0 47.5 -19.5t18.5 -55.5q0 -52 -33 -69l38 -103h-51l-31 95h-13v-95h-49zM181 311q-74 0 -118 61.5t-44 151.5t45.5 151t117.5 61t117 -60.5t45 -151.5q0 -89 -44.5 -151t-118.5 -62zM181 351q51 1 85.5 48t34.5 125q0 79 -35 126.5t-85 47.5
t-84 -47.5t-34 -126.5t34.5 -126t83.5 -47zM165 538h15q25 0 25 35q0 37 -25 37h-15v-72z" />
    <glyph glyph-name="macron" unicode="&#xaf;" horiz-adv-x="260" 
d="M38 601v83h184v-83h-184z" />
    <glyph glyph-name="degree" unicode="&#xb0;" horiz-adv-x="195" 
d="M97 573q-33 0 -55.5 23.5t-22.5 58.5q0 33 22.5 56.5t55.5 23.5q32 0 55.5 -24t23.5 -56q0 -34 -23 -58t-56 -24zM97 618q14 0 23 10.5t9 26.5q0 15 -9 25t-23 10q-13 0 -22 -10t-9 -25q0 -16 9 -26.5t22 -10.5z" />
    <glyph glyph-name="plusminus" unicode="&#xb1;" horiz-adv-x="300" 
d="M110 189v100h-91v82h91v102h81l-1 -102h92v-82h-91v-100h-81zM25 56v82h250v-82h-250z" />
    <glyph glyph-name="twosuperior" unicode="&#xb2;" 
d="M25 380v48l66 126q31 65 31 118v8q0 30 -14 30t-14 -27v-32h-72v32q0 45 22.5 71t66.5 26q90 0 90 -103q0 -30 -11 -65t-19 -52.5t-28 -56.5l-29 -55h86v-68h-175z" />
    <glyph glyph-name="threesuperior" unicode="&#xb3;" horiz-adv-x="223" 
d="M111 370q-90 0 -90 100v32h74v-38q0 -28 14 -28q15 0 15 52q0 54 -26 54h-28v69h30q23 0 23 52q0 48 -16 48q-12 0 -12 -32v-28h-72v28q0 101 89 101q39 0 62.5 -27t23.5 -80q0 -72 -39 -94v-2q43 -18 43 -92q0 -60 -26 -87.5t-65 -27.5z" />
    <glyph glyph-name="acute" unicode="&#xb4;" horiz-adv-x="210" 
d="M35 586l49 140h106l-82 -140h-73z" />
    <glyph glyph-name="mu" unicode="&#xb5;" horiz-adv-x="309" 
d="M22 -180v718h102v-425q0 -28 21 -28q23 0 23 36v417h103v-380q0 -33 23 -39v-120q-64 2 -75 53q-17 -61 -63 -61q-17 0 -31.5 15.5t-20.5 49.5l-4 -2l24 -208z" />
    <glyph glyph-name="paragraph" unicode="&#xb6;" horiz-adv-x="326" 
d="M111 -49v283q-52 19 -71 76.5t-19 152.5q0 123 38 187t129 64h124v-51h-31v-712h-64v712h-41v-712h-65z" />
    <glyph glyph-name="periodcentered" unicode="&#xb7;" horiz-adv-x="148" 
d="M25 272v142h99v-142h-99z" />
    <glyph glyph-name="periodcentered" unicode="&#x22c5;" horiz-adv-x="148" 
d="M25 272v142h99v-142h-99z" />
    <glyph glyph-name="cedilla" unicode="&#xb8;" horiz-adv-x="217" 
d="M93 -175q-35 0 -67 9v52q40 -9 62 -9q26 0 26 18q0 15 -29 17l-30 2l20 101h43l-11 -60q79 0 79 -57q0 -34 -27 -53.5t-66 -19.5z" />
    <glyph glyph-name="onesuperior" unicode="&#xb9;" horiz-adv-x="192" 
d="M64 380v323l-22 -8l-13 56l60 31h50v-402h-75z" />
    <glyph glyph-name="ordmasculine" unicode="&#xba;" horiz-adv-x="224" 
d="M112 381q-41 0 -63.5 20.5t-22.5 55.5v182q0 34 24.5 54.5t61.5 20.5t61.5 -20t24.5 -53v-183q0 -36 -23 -56.5t-63 -20.5zM111 440q14 0 14 13v187q0 13 -14 13q-12 0 -12 -13v-187q0 -13 12 -13zM38 290v67h151v-67h-151z" />
    <glyph glyph-name="guillemotright" unicode="&#xbb;" horiz-adv-x="319" 
d="M74 146l-56 37l50 95l-52 95l58 35l93 -130zM207 137l-56 37l52 104l-55 104l58 35l97 -139z" />
    <glyph glyph-name="onequarter" unicode="&#xbc;" horiz-adv-x="504" 
d="M71 316v323l-22 -8l-13 56l60 31h50v-402h-75zM381 0v88h-105v58l81 255h75l-86 -248h35v61l66 54v-115h24v-65h-24v-88h-66zM104 0l222 713h52l-220 -713h-54z" />
    <glyph glyph-name="onehalf" unicode="&#xbd;" horiz-adv-x="504" 
d="M71 316v323l-22 -8l-13 56l60 31h50v-402h-75zM289 0v48l66 126q31 65 31 118v8q0 30 -14 30t-14 -27v-32h-72v32q0 45 22.5 71t66.5 26q90 0 90 -103q0 -30 -11 -65t-19 -52.5t-28 -56.5l-29 -55h86v-68h-175zM89 0l222 713h52l-220 -713h-54z" />
    <glyph glyph-name="threequarters" unicode="&#xbe;" horiz-adv-x="504" 
d="M389 0v88h-105v58l81 255h75l-86 -248h35v61l66 54v-115h24v-65h-24v-88h-66zM110 306q-90 0 -90 100v32h74v-38q0 -28 14 -28q15 0 15 52q0 54 -26 54h-28v69h30q23 0 23 52q0 48 -16 48q-12 0 -12 -32v-28h-72v28q0 101 89 101q39 0 62.5 -27t23.5 -80q0 -72 -39 -94
v-2q43 -18 43 -92q0 -60 -26 -87.5t-65 -27.5zM120 0l222 713h52l-220 -713h-54z" />
    <glyph glyph-name="questiondown" unicode="&#xbf;" horiz-adv-x="289" 
d="M144 -163q-55 0 -87 43.5t-33 121.5q0 80 51 194q28 64 28 148v29h95v-21q0 -106 -34 -185q-35 -82 -35 -174q0 -57 23 -57t23 48v76h90v-76q0 -66 -30 -106.5t-91 -40.5zM99 418v142h99v-142h-99z" />
    <glyph glyph-name="Agrave" unicode="&#xc0;" horiz-adv-x="347" 
d="M10 0l82 713h163l82 -713h-111l-18 171h-82l-19 -171h-97zM137 269h61l-28 294h-4zM141 756l-83 140h107l48 -140h-72z" />
    <glyph glyph-name="Aacute" unicode="&#xc1;" horiz-adv-x="347" 
d="M10 0l82 713h163l82 -713h-111l-18 171h-82l-19 -171h-97zM137 269h61l-28 294h-4zM132 756l49 140h106l-82 -140h-73z" />
    <glyph glyph-name="Acircumflex" unicode="&#xc2;" horiz-adv-x="347" 
d="M10 0l82 713h163l82 -713h-111l-18 171h-82l-19 -171h-97zM137 269h61l-28 294h-4zM65 756l70 140h77l69 -140h-82l-27 65l-26 -65h-81z" />
    <glyph glyph-name="Atilde" unicode="&#xc3;" horiz-adv-x="347" 
d="M10 0l82 713h163l82 -713h-111l-18 171h-82l-19 -171h-97zM137 269h61l-28 294h-4zM108 764l-54 17q18 96 70 96q17 0 46 -11.5t41 -11.5q11 0 16 5t11 22l52 -14q-7 -42 -26.5 -70.5t-48.5 -28.5q-13 0 -45 11.5t-37 11.5q-7 0 -10 -1t-7.5 -7t-7.5 -19z" />
    <glyph glyph-name="Adieresis" unicode="&#xc4;" horiz-adv-x="347" 
d="M10 0l82 713h163l82 -713h-111l-18 171h-82l-19 -171h-97zM137 269h61l-28 294h-4zM73 757v137h83v-137h-83zM190 757v137h83v-137h-83z" />
    <glyph glyph-name="Aring" unicode="&#xc5;" horiz-adv-x="347" 
d="M10 0l82 713h163l82 -713h-111l-18 171h-82l-19 -171h-97zM137 269h61l-28 294h-4zM173 755q-36 0 -58.5 22.5t-22.5 57.5t23 58.5t60 23.5q35 0 57 -23t22 -58t-23.5 -58t-57.5 -23zM174 797q35 0 35 40t-35 40q-34 0 -34 -41q0 -17 9.5 -28t24.5 -11z" />
    <glyph glyph-name="AE" unicode="&#xc6;" horiz-adv-x="454" 
d="M8 0l124 713h303v-103h-113v-189h91v-105h-91v-212h115v-104h-226v200h-60l-30 -200h-113zM163 286h48v320h-2z" />
    <glyph glyph-name="Ccedilla" unicode="&#xc7;" horiz-adv-x="316" 
d="M157 -175q-35 0 -67 9v52q40 -9 62 -9q26 0 26 18q0 15 -29 17l-30 2l15 79q-56 7 -84.5 42t-28.5 92v458q0 63 39.5 100.5t104.5 37.5q62 0 97 -36t35 -97v-130h-104v119q0 38 -30 38q-29 0 -29 -36v-444q0 -39 30 -39q29 0 29 39v115h104v-119q0 -59 -31.5 -98
t-88.5 -43l-6 -37q79 0 79 -57q0 -34 -27 -53.5t-66 -19.5z" />
    <glyph glyph-name="Egrave" unicode="&#xc8;" horiz-adv-x="268" 
d="M25 0v713h223v-103h-113v-189h91v-105h-91v-212h115v-104h-225zM120 756l-83 140h107l48 -140h-72z" />
    <glyph glyph-name="Eacute" unicode="&#xc9;" horiz-adv-x="268" 
d="M94 756l49 140h106l-82 -140h-73zM25 0v713h223v-103h-113v-189h91v-105h-91v-212h115v-104h-225z" />
    <glyph glyph-name="Ecircumflex" unicode="&#xca;" horiz-adv-x="268" 
d="M29 756l70 140h77l69 -140h-82l-27 65l-26 -65h-81zM25 0v713h223v-103h-113v-189h91v-105h-91v-212h115v-104h-225z" />
    <glyph glyph-name="Edieresis" unicode="&#xcb;" horiz-adv-x="268" 
d="M37 757v137h83v-137h-83zM154 757v137h83v-137h-83zM25 0v713h223v-103h-113v-189h91v-105h-91v-212h115v-104h-225z" />
    <glyph glyph-name="Igrave" unicode="&#xcc;" horiz-adv-x="160" 
d="M25 0v713h111v-713h-111zM46 756l-83 140h107l48 -140h-72z" />
    <glyph glyph-name="Iacute" unicode="&#xcd;" horiz-adv-x="160" 
d="M25 0v713h111v-713h-111zM39 756l49 140h106l-82 -140h-73z" />
    <glyph glyph-name="Icircumflex" unicode="&#xce;" horiz-adv-x="160" 
d="M25 0v713h111v-713h-111zM-28 756l70 140h77l69 -140h-82l-27 65l-26 -65h-81z" />
    <glyph glyph-name="Idieresis" unicode="&#xcf;" horiz-adv-x="160" 
d="M25 0v713h111v-713h-111zM-20 757v137h83v-137h-83zM97 757v137h83v-137h-83z" />
    <glyph glyph-name="Eth" unicode="&#xd0;" horiz-adv-x="334" 
d="M36 0v325h-22v93h22v295h153q59 0 91.5 -34t32.5 -96v-449q0 -66 -33 -100t-94 -34h-150zM147 104h18q37 0 37 43v425q0 38 -37 38h-18v-192h33v-93h-33v-221z" />
    <glyph glyph-name="Ntilde" unicode="&#xd1;" horiz-adv-x="355" 
d="M25 0v713h119l86 -379h3v379h97v-713h-110l-96 425h-4v-425h-95zM112 764l-54 17q18 96 70 96q17 0 46 -11.5t41 -11.5q11 0 16 5t11 22l52 -14q-7 -42 -26.5 -70.5t-48.5 -28.5q-13 0 -45 11.5t-37 11.5q-7 0 -10 -1t-7.5 -7t-7.5 -19z" />
    <glyph glyph-name="Ograve" unicode="&#xd2;" horiz-adv-x="327" 
d="M163 -9q-142 0 -142 148v439q0 68 38.5 106.5t104.5 38.5t104 -38t38 -105v-441q0 -69 -38.5 -108.5t-104.5 -39.5zM164 98q29 0 29 36v450q0 31 -30 31q-29 0 -29 -31v-451q0 -14 7.5 -24.5t22.5 -10.5zM129 756l-83 140h107l48 -140h-72z" />
    <glyph glyph-name="Oacute" unicode="&#xd3;" horiz-adv-x="327" 
d="M122 756l49 140h106l-82 -140h-73zM163 -9q-142 0 -142 148v439q0 68 38.5 106.5t104.5 38.5t104 -38t38 -105v-441q0 -69 -38.5 -108.5t-104.5 -39.5zM164 98q29 0 29 36v450q0 31 -30 31q-29 0 -29 -31v-451q0 -14 7.5 -24.5t22.5 -10.5z" />
    <glyph glyph-name="Ocircumflex" unicode="&#xd4;" horiz-adv-x="327" 
d="M55 756l70 140h77l69 -140h-82l-27 65l-26 -65h-81zM163 -9q-142 0 -142 148v439q0 68 38.5 106.5t104.5 38.5t104 -38t38 -105v-441q0 -69 -38.5 -108.5t-104.5 -39.5zM164 98q29 0 29 36v450q0 31 -30 31q-29 0 -29 -31v-451q0 -14 7.5 -24.5t22.5 -10.5z" />
    <glyph glyph-name="Otilde" unicode="&#xd5;" horiz-adv-x="327" 
d="M163 -9q-142 0 -142 148v439q0 68 38.5 106.5t104.5 38.5t104 -38t38 -105v-441q0 -69 -38.5 -108.5t-104.5 -39.5zM164 98q29 0 29 36v450q0 31 -30 31q-29 0 -29 -31v-451q0 -14 7.5 -24.5t22.5 -10.5zM98 764l-54 17q18 96 70 96q17 0 46 -11.5t41 -11.5q11 0 16 5
t11 22l52 -14q-7 -42 -26.5 -70.5t-48.5 -28.5q-13 0 -45 11.5t-37 11.5q-7 0 -10 -1t-7.5 -7t-7.5 -19z" />
    <glyph glyph-name="Odieresis" unicode="&#xd6;" horiz-adv-x="327" 
d="M63 757v137h83v-137h-83zM180 757v137h83v-137h-83zM163 -9q-142 0 -142 148v439q0 68 38.5 106.5t104.5 38.5t104 -38t38 -105v-441q0 -69 -38.5 -108.5t-104.5 -39.5zM164 98q29 0 29 36v450q0 31 -30 31q-29 0 -29 -31v-451q0 -14 7.5 -24.5t22.5 -10.5z" />
    <glyph glyph-name="multiply" unicode="&#xd7;" horiz-adv-x="300" 
d="M65 181l-53 54l84 85l-84 85l53 55l84 -85l84 85l54 -55l-84 -84l83 -85l-54 -54l-83 85z" />
    <glyph glyph-name="Oslash" unicode="&#xd8;" horiz-adv-x="327" 
d="M103 -44l-47 8l12 54q-47 37 -47 121v439q0 68 38.5 106.5t104.5 38.5q30 0 55 -9l9 41l47 -6l-13 -59q44 -38 44 -110v-441q0 -69 -38.5 -108.5t-104.5 -39.5q-29 0 -51 6zM134 584v-262l58 269q-3 24 -29 24q-29 0 -29 -31zM164 98q29 0 29 36v237l-56 -256
q9 -17 27 -17z" />
    <glyph glyph-name="Ugrave" unicode="&#xd9;" horiz-adv-x="319" 
d="M156 -9q-65 0 -99.5 35t-34.5 105v582h113v-580q0 -36 28 -36q29 0 29 38v578h105v-577q0 -68 -38 -106.5t-103 -38.5zM125 756l-83 140h107l48 -140h-72z" />
    <glyph glyph-name="Uacute" unicode="&#xda;" horiz-adv-x="319" 
d="M119 756l49 140h106l-82 -140h-73zM156 -9q-65 0 -99.5 35t-34.5 105v582h113v-580q0 -36 28 -36q29 0 29 38v578h105v-577q0 -68 -38 -106.5t-103 -38.5z" />
    <glyph glyph-name="Ucircumflex" unicode="&#xdb;" horiz-adv-x="319" 
d="M51 756l70 140h77l69 -140h-82l-27 65l-26 -65h-81zM156 -9q-65 0 -99.5 35t-34.5 105v582h113v-580q0 -36 28 -36q29 0 29 38v578h105v-577q0 -68 -38 -106.5t-103 -38.5z" />
    <glyph glyph-name="Udieresis" unicode="&#xdc;" horiz-adv-x="319" 
d="M59 757v137h83v-137h-83zM176 757v137h83v-137h-83zM156 -9q-65 0 -99.5 35t-34.5 105v582h113v-580q0 -36 28 -36q29 0 29 38v578h105v-577q0 -68 -38 -106.5t-103 -38.5z" />
    <glyph glyph-name="Yacute" unicode="&#xdd;" horiz-adv-x="319" 
d="M104 0v279l-99 434h119l41 -256l40 256h109l-98 -435v-278h-112zM117 756l49 140h106l-82 -140h-73z" />
    <glyph glyph-name="Thorn" unicode="&#xde;" horiz-adv-x="319" 
d="M25 0v713h111v-130h36q66 0 98 -47.5t32 -161.5q0 -118 -32.5 -174.5t-101.5 -56.5h-32v-143h-111zM136 244h20q20 0 28 29t8 99q0 64 -7.5 87t-29.5 23h-19v-238z" />
    <glyph glyph-name="germandbls" unicode="&#xdf;" horiz-adv-x="346" 
d="M227 -5q-30 0 -54 6l5 87l18 -1q25 0 25 50q0 130 -40 181v89h11q27 97 27 149q0 73 -34 73q-26 0 -26 -52v-577h-103v448h-33v89h33v38q0 70 35 108.5t102 38.5q129 0 129 -153q0 -110 -47 -201v-1q50 -105 50 -227q0 -61 -24 -103t-74 -42z" />
    <glyph glyph-name="agrave" unicode="&#xe0;" horiz-adv-x="284" 
d="M104 -9q-88 0 -88 170q0 77 35 125t103 49h4v94q0 25 -20 25q-21 0 -21 -26v-62h-93v60q0 55 31 89t88 34q61 0 89 -34.5t28 -91.5v-302q0 -89 4 -121h-90q0 1 -1.5 9.5t-3 19.5t-1.5 16h-2q-6 -27 -24 -40.5t-38 -13.5zM139 81q19 0 19 32v146h-6q-16 0 -25.5 -24.5
t-9.5 -66.5q0 -87 22 -87zM118 586l-83 140h107l48 -140h-72z" />
    <glyph glyph-name="aacute" unicode="&#xe1;" horiz-adv-x="284" 
d="M104 -9q-88 0 -88 170q0 77 35 125t103 49h4v94q0 25 -20 25q-21 0 -21 -26v-62h-93v60q0 55 31 89t88 34q61 0 89 -34.5t28 -91.5v-302q0 -89 4 -121h-90q0 1 -1.5 9.5t-3 19.5t-1.5 16h-2q-6 -27 -24 -40.5t-38 -13.5zM139 81q19 0 19 32v146h-6q-16 0 -25.5 -24.5
t-9.5 -66.5q0 -87 22 -87zM96 586l49 140h106l-82 -140h-73z" />
    <glyph glyph-name="acircumflex" unicode="&#xe2;" horiz-adv-x="284" 
d="M104 -9q-88 0 -88 170q0 77 35 125t103 49h4v94q0 25 -20 25q-21 0 -21 -26v-62h-93v60q0 55 31 89t88 34q61 0 89 -34.5t28 -91.5v-302q0 -89 4 -121h-90q0 1 -1.5 9.5t-3 19.5t-1.5 16h-2q-6 -27 -24 -40.5t-38 -13.5zM139 81q19 0 19 32v146h-6q-16 0 -25.5 -24.5
t-9.5 -66.5q0 -87 22 -87zM34 586l70 140h77l69 -140h-82l-27 65l-26 -65h-81z" />
    <glyph glyph-name="atilde" unicode="&#xe3;" horiz-adv-x="284" 
d="M104 -9q-88 0 -88 170q0 77 35 125t103 49h4v94q0 25 -20 25q-21 0 -21 -26v-62h-93v60q0 55 31 89t88 34q61 0 89 -34.5t28 -91.5v-302q0 -89 4 -121h-90q0 1 -1.5 9.5t-3 19.5t-1.5 16h-2q-6 -27 -24 -40.5t-38 -13.5zM139 81q19 0 19 32v146h-6q-16 0 -25.5 -24.5
t-9.5 -66.5q0 -87 22 -87zM76 594l-54 17q18 96 70 96q17 0 46 -11.5t41 -11.5q11 0 16 5t11 22l52 -14q-7 -42 -26.5 -70.5t-48.5 -28.5q-13 0 -45 11.5t-37 11.5q-7 0 -10 -1t-7.5 -7t-7.5 -19z" />
    <glyph glyph-name="adieresis" unicode="&#xe4;" horiz-adv-x="284" 
d="M104 -9q-88 0 -88 170q0 77 35 125t103 49h4v94q0 25 -20 25q-21 0 -21 -26v-62h-93v60q0 55 31 89t88 34q61 0 89 -34.5t28 -91.5v-302q0 -89 4 -121h-90q0 1 -1.5 9.5t-3 19.5t-1.5 16h-2q-6 -27 -24 -40.5t-38 -13.5zM139 81q19 0 19 32v146h-6q-16 0 -25.5 -24.5
t-9.5 -66.5q0 -87 22 -87zM41 587v137h83v-137h-83zM158 587v137h83v-137h-83z" />
    <glyph glyph-name="aring" unicode="&#xe5;" horiz-adv-x="284" 
d="M104 -9q-88 0 -88 170q0 77 35 125t103 49h4v94q0 25 -20 25q-21 0 -21 -26v-62h-93v60q0 55 31 89t88 34q61 0 89 -34.5t28 -91.5v-302q0 -89 4 -121h-90q0 1 -1.5 9.5t-3 19.5t-1.5 16h-2q-6 -27 -24 -40.5t-38 -13.5zM139 81q19 0 19 32v146h-6q-16 0 -25.5 -24.5
t-9.5 -66.5q0 -87 22 -87zM141 585q-36 0 -58.5 22.5t-22.5 57.5t23 58.5t60 23.5q35 0 57 -23t22 -58t-23.5 -58t-57.5 -23zM142 627q35 0 35 40t-35 40q-34 0 -34 -41q0 -17 9.5 -28t24.5 -11z" />
    <glyph glyph-name="ae" unicode="&#xe6;" horiz-adv-x="420" 
d="M104 -10q-39 0 -63.5 42t-24.5 129q0 77 35 125t103 49h4v94q0 25 -20 25q-21 0 -21 -26v-62h-93v60q0 55 31 89t88 34q43 0 71 -20q30 19 70 19q52 0 84 -32.5t32 -84.5v-203h-138v-83q0 -58 49 -58q22 0 70 12l20 -88q-58 -21 -113 -21q-64 0 -100 42q-27 -42 -84 -42z
M139 81q19 0 19 29v149h-6q-16 0 -25.5 -24.5t-9.5 -66.5q0 -87 22 -87zM262 312h42v112q0 29 -20 29q-22 0 -22 -29v-112z" />
    <glyph glyph-name="ccedilla" unicode="&#xe7;" horiz-adv-x="280" 
d="M146 -175q-35 0 -67 9v52q40 -9 62 -9q26 0 26 18q0 15 -29 17l-30 2l15 78q-49 5 -75.5 37.5t-26.5 83.5v312q0 55 34.5 89t89.5 34t86 -33t31 -83v-64h-93v59q0 26 -23 26q-22 0 -22 -27v-313q0 -30 22 -30q23 0 23 29v62h93v-63q0 -104 -95 -118l-7 -38q79 0 79 -57
q0 -34 -27 -53.5t-66 -19.5z" />
    <glyph glyph-name="egrave" unicode="&#xe8;" horiz-adv-x="282" 
d="M151 -10q-60 0 -95 34t-35 90v309q0 55 33.5 90t89.5 35t87 -34t31 -86v-200h-138v-83q0 -58 49 -58q26 0 70 12l20 -88q-57 -21 -112 -21zM124 312h42v112q0 29 -20 29q-22 0 -22 -29v-112zM116 586l-83 140h107l48 -140h-72z" />
    <glyph glyph-name="eacute" unicode="&#xe9;" horiz-adv-x="282" 
d="M103 586l49 140h106l-82 -140h-73zM151 -10q-60 0 -95 34t-35 90v309q0 55 33.5 90t89.5 35t87 -34t31 -86v-200h-138v-83q0 -58 49 -58q26 0 70 12l20 -88q-57 -21 -112 -21zM124 312h42v112q0 29 -20 29q-22 0 -22 -29v-112z" />
    <glyph glyph-name="ecircumflex" unicode="&#xea;" horiz-adv-x="282" 
d="M37 586l70 140h77l69 -140h-82l-27 65l-26 -65h-81zM151 -10q-60 0 -95 34t-35 90v309q0 55 33.5 90t89.5 35t87 -34t31 -86v-200h-138v-83q0 -58 49 -58q26 0 70 12l20 -88q-57 -21 -112 -21zM124 312h42v112q0 29 -20 29q-22 0 -22 -29v-112z" />
    <glyph glyph-name="edieresis" unicode="&#xeb;" horiz-adv-x="282" 
d="M43 587v137h83v-137h-83zM160 587v137h83v-137h-83zM151 -10q-60 0 -95 34t-35 90v309q0 55 33.5 90t89.5 35t87 -34t31 -86v-200h-138v-83q0 -58 49 -58q26 0 70 12l20 -88q-57 -21 -112 -21zM124 312h42v112q0 29 -20 29q-22 0 -22 -29v-112z" />
    <glyph glyph-name="igrave" unicode="&#xec;" horiz-adv-x="149" 
d="M23 0v538h103v-538h-103zM36 586l-83 140h107l48 -140h-72z" />
    <glyph glyph-name="iacute" unicode="&#xed;" horiz-adv-x="149" 
d="M39 586l49 140h106l-82 -140h-73zM23 0v538h103v-538h-103z" />
    <glyph glyph-name="icircumflex" unicode="&#xee;" horiz-adv-x="149" 
d="M-34 586l70 140h77l69 -140h-82l-27 65l-26 -65h-81zM23 0v538h103v-538h-103z" />
    <glyph glyph-name="idieresis" unicode="&#xef;" horiz-adv-x="149" 
d="M-25 587v137h83v-137h-83zM92 587v137h83v-137h-83zM23 0v538h103v-538h-103z" />
    <glyph glyph-name="eth" unicode="&#xf0;" horiz-adv-x="290" 
d="M144 -9q-60 0 -92 33t-32 92v310q0 49 25.5 80t69.5 39l4 1l-18 36l-67 -12l-29 65l67 12l-28 59l109 21l27 -61l52 10l28 -65l-53 -10l56 -132q7 -21 7 -42v-311q0 -60 -33.5 -92.5t-92.5 -32.5zM144 83q23 0 23 26v318q0 26 -23 26q-21 0 -21 -24v-320q0 -26 21 -26z
" />
    <glyph glyph-name="ntilde" unicode="&#xf1;" horiz-adv-x="294" 
d="M23 0v538h100v-41h1q26 51 77 51q35 0 53 -21.5t18 -56.5v-470h-102v428q0 25 -20 25q-24 0 -24 -32v-421h-103zM86 594l-54 17q18 96 70 96q17 0 46 -11.5t41 -11.5q11 0 16 5t11 22l52 -14q-7 -42 -26.5 -70.5t-48.5 -28.5q-13 0 -45 11.5t-37 11.5q-7 0 -10 -1
t-7.5 -7t-7.5 -19z" />
    <glyph glyph-name="ograve" unicode="&#xf2;" horiz-adv-x="293" 
d="M146 -9q-61 0 -93 33t-32 92v310q0 56 35.5 89t90.5 33q54 0 89.5 -32.5t35.5 -86.5v-313q0 -60 -33.5 -92.5t-92.5 -32.5zM146 83q22 0 22 26v318q0 26 -22 26t-22 -24v-320q0 -26 22 -26zM111 586l-83 140h107l48 -140h-72z" />
    <glyph glyph-name="oacute" unicode="&#xf3;" horiz-adv-x="293" 
d="M106 586l49 140h106l-82 -140h-73zM146 -9q-61 0 -93 33t-32 92v310q0 56 35.5 89t90.5 33q54 0 89.5 -32.5t35.5 -86.5v-313q0 -60 -33.5 -92.5t-92.5 -32.5zM146 83q22 0 22 26v318q0 26 -22 26t-22 -24v-320q0 -26 22 -26z" />
    <glyph glyph-name="ocircumflex" unicode="&#xf4;" horiz-adv-x="293" 
d="M38 586l70 140h77l69 -140h-82l-27 65l-26 -65h-81zM146 -9q-61 0 -93 33t-32 92v310q0 56 35.5 89t90.5 33q54 0 89.5 -32.5t35.5 -86.5v-313q0 -60 -33.5 -92.5t-92.5 -32.5zM146 83q22 0 22 26v318q0 26 -22 26t-22 -24v-320q0 -26 22 -26z" />
    <glyph glyph-name="otilde" unicode="&#xf5;" horiz-adv-x="293" 
d="M146 -9q-61 0 -93 33t-32 92v310q0 56 35.5 89t90.5 33q54 0 89.5 -32.5t35.5 -86.5v-313q0 -60 -33.5 -92.5t-92.5 -32.5zM146 83q22 0 22 26v318q0 26 -22 26t-22 -24v-320q0 -26 22 -26zM80 594l-54 17q18 96 70 96q17 0 46 -11.5t41 -11.5q11 0 16 5t11 22l52 -14
q-7 -42 -26.5 -70.5t-48.5 -28.5q-13 0 -45 11.5t-37 11.5q-7 0 -10 -1t-7.5 -7t-7.5 -19z" />
    <glyph glyph-name="odieresis" unicode="&#xf6;" horiz-adv-x="293" 
d="M46 587v137h83v-137h-83zM163 587v137h83v-137h-83zM146 -9q-61 0 -93 33t-32 92v310q0 56 35.5 89t90.5 33q54 0 89.5 -32.5t35.5 -86.5v-313q0 -60 -33.5 -92.5t-92.5 -32.5zM146 83q22 0 22 26v318q0 26 -22 26t-22 -24v-320q0 -26 22 -26z" />
    <glyph glyph-name="divide" unicode="&#xf7;" horiz-adv-x="300" 
d="M111 134v106h78v-106h-78zM32 278v81h235v-81h-235zM111 395v106h78v-106h-78z" />
    <glyph glyph-name="oslash" unicode="&#xf8;" horiz-adv-x="293" 
d="M99 -38l-41 7l9 43q-46 32 -46 104v310q0 56 35.5 89t90.5 33q18 0 40 -5l9 39l40 -6l-12 -51q48 -33 48 -96v-313q0 -60 -33.5 -92.5t-92.5 -32.5q-20 0 -40 5zM124 429v-167l40 180q-5 11 -18 11q-22 0 -22 -24zM146 83q22 0 22 26v162l-40 -179q4 -9 18 -9z" />
    <glyph glyph-name="ugrave" unicode="&#xf9;" horiz-adv-x="293" 
d="M92 -10q-36 0 -54 21.5t-18 58.5v468h102v-427q0 -26 21 -26q24 0 24 32v421h103v-538h-100v42h-1q-11 -25 -32.5 -38.5t-44.5 -13.5zM110 586l-83 140h107l48 -140h-72z" />
    <glyph glyph-name="uacute" unicode="&#xfa;" horiz-adv-x="293" 
d="M100 586l49 140h106l-82 -140h-73zM92 -10q-36 0 -54 21.5t-18 58.5v468h102v-427q0 -26 21 -26q24 0 24 32v421h103v-538h-100v42h-1q-11 -25 -32.5 -38.5t-44.5 -13.5z" />
    <glyph glyph-name="ucircumflex" unicode="&#xfb;" horiz-adv-x="293" 
d="M38 586l70 140h77l69 -140h-82l-27 65l-26 -65h-81zM92 -10q-36 0 -54 21.5t-18 58.5v468h102v-427q0 -26 21 -26q24 0 24 32v421h103v-538h-100v42h-1q-11 -25 -32.5 -38.5t-44.5 -13.5z" />
    <glyph glyph-name="udieresis" unicode="&#xfc;" horiz-adv-x="293" 
d="M46 587v137h83v-137h-83zM163 587v137h83v-137h-83zM92 -10q-36 0 -54 21.5t-18 58.5v468h102v-427q0 -26 21 -26q24 0 24 32v421h103v-538h-100v42h-1q-11 -25 -32.5 -38.5t-44.5 -13.5z" />
    <glyph glyph-name="yacute" unicode="&#xfd;" horiz-adv-x="271" 
d="M70 -167q-21 0 -41 4v80q14 -2 29 -2q25 0 29 28l6 36l-90 559h105l33 -337h2l30 337h95l-86 -574q-24 -131 -112 -131zM108 586l49 140h106l-82 -140h-73z" />
    <glyph glyph-name="thorn" unicode="&#xfe;" horiz-adv-x="292" 
d="M23 -160v873h103v-208h1q10 18 31 30.5t40 12.5q75 0 75 -101v-363q0 -39 -19.5 -66t-64.5 -27q-38 0 -61 30h-2v-181h-103zM149 84q21 0 21 26v323q0 25 -21 25q-23 0 -23 -33v-315q0 -26 23 -26z" />
    <glyph glyph-name="ydieresis" unicode="&#xff;" horiz-adv-x="271" 
d="M70 -167q-21 0 -41 4v80q14 -2 29 -2q25 0 29 28l6 36l-90 559h105l33 -337h2l30 337h95l-86 -574q-24 -131 -112 -131zM40 587v137h83v-137h-83zM157 587v137h83v-137h-83z" />
    <glyph glyph-name="Amacron" unicode="&#x100;" horiz-adv-x="347" 
d="M10 0l82 713h163l82 -713h-111l-18 171h-82l-19 -171h-97zM137 269h61l-28 294h-4zM82 771v83h184v-83h-184z" />
    <glyph glyph-name="amacron" unicode="&#x101;" horiz-adv-x="284" 
d="M104 -9q-88 0 -88 170q0 77 35 125t103 49h4v94q0 25 -20 25q-21 0 -21 -26v-62h-93v60q0 55 31 89t88 34q61 0 89 -34.5t28 -91.5v-302q0 -89 4 -121h-90q0 1 -1.5 9.5t-3 19.5t-1.5 16h-2q-6 -27 -24 -40.5t-38 -13.5zM139 81q19 0 19 32v146h-6q-16 0 -25.5 -24.5
t-9.5 -66.5q0 -87 22 -87zM49 601v83h184v-83h-184z" />
    <glyph glyph-name="Abreve" unicode="&#x102;" horiz-adv-x="347" 
d="M10 0l82 713h163l82 -713h-111l-18 171h-82l-19 -171h-97zM137 269h61l-28 294h-4zM173 756q-49 0 -79.5 32t-30.5 100h69q3 -69 43 -69q39 0 41 69h68q0 -69 -31.5 -100.5t-79.5 -31.5z" />
    <glyph glyph-name="abreve" unicode="&#x103;" horiz-adv-x="284" 
d="M104 -9q-88 0 -88 170q0 77 35 125t103 49h4v94q0 25 -20 25q-21 0 -21 -26v-62h-93v60q0 55 31 89t88 34q61 0 89 -34.5t28 -91.5v-302q0 -89 4 -121h-90q0 1 -1.5 9.5t-3 19.5t-1.5 16h-2q-6 -27 -24 -40.5t-38 -13.5zM139 81q19 0 19 32v146h-6q-16 0 -25.5 -24.5
t-9.5 -66.5q0 -87 22 -87zM141 586q-49 0 -79.5 32t-30.5 100h69q3 -69 43 -69q39 0 41 69h68q0 -69 -31.5 -100.5t-79.5 -31.5z" />
    <glyph glyph-name="Aogonek" unicode="&#x104;" horiz-adv-x="347" 
d="M306 -176q-39 0 -62.5 22.5t-23.5 60.5q0 56 37 93h-31l-18 171h-82l-19 -171h-97l82 713h163l82 -713h-5q-41 -25 -41 -65q0 -16 9.5 -26.5t26.5 -10.5q14 0 34 11l23 -65q-35 -20 -78 -20zM137 269h61l-28 294h-4z" />
    <glyph glyph-name="aogonek" unicode="&#x105;" horiz-adv-x="284" 
d="M220 -176q-39 0 -62.5 22.5t-23.5 60.5q0 58 40 95q0 2 -2.5 19.5t-3.5 23.5h-2q-6 -27 -24 -40.5t-38 -13.5q-88 0 -88 170q0 77 35 125t103 49h4v94q0 25 -20 25q-21 0 -21 -26v-62h-93v60q0 55 31 89t88 34q61 0 89 -34.5t28 -91.5v-302q0 -89 4 -121h-18
q-41 -25 -41 -65q0 -16 9.5 -26.5t26.5 -10.5q14 0 34 11l23 -65q-35 -20 -78 -20zM139 81q19 0 19 32v146h-6q-16 0 -25.5 -24.5t-9.5 -66.5q0 -87 22 -87z" />
    <glyph glyph-name="Cacute" unicode="&#x106;" horiz-adv-x="316" 
d="M116 756l49 140h106l-82 -140h-73zM162 -9q-69 0 -105 36t-36 100v458q0 63 39.5 100.5t104.5 37.5q62 0 97 -36t35 -97v-130h-104v119q0 38 -30 38q-29 0 -29 -36v-444q0 -39 30 -39q29 0 29 39v115h104v-119q0 -63 -35.5 -102.5t-99.5 -39.5z" />
    <glyph glyph-name="cacute" unicode="&#x107;" horiz-adv-x="280" 
d="M103 586l49 140h106l-82 -140h-73zM141 -9q-58 0 -89 33.5t-31 88.5v312q0 55 34.5 89t89.5 34t86 -33t31 -83v-64h-93v59q0 26 -23 26q-22 0 -22 -27v-313q0 -30 22 -30q23 0 23 29v62h93v-63q0 -58 -31.5 -89t-89.5 -31z" />
    <glyph glyph-name="Ccircumflex" unicode="&#x108;" horiz-adv-x="316" 
d="M51 756l70 140h77l69 -140h-82l-27 65l-26 -65h-81zM162 -9q-69 0 -105 36t-36 100v458q0 63 39.5 100.5t104.5 37.5q62 0 97 -36t35 -97v-130h-104v119q0 38 -30 38q-29 0 -29 -36v-444q0 -39 30 -39q29 0 29 39v115h104v-119q0 -63 -35.5 -102.5t-99.5 -39.5z" />
    <glyph glyph-name="ccircumflex" unicode="&#x109;" horiz-adv-x="280" 
d="M32 586l70 140h77l69 -140h-82l-27 65l-26 -65h-81zM141 -9q-58 0 -89 33.5t-31 88.5v312q0 55 34.5 89t89.5 34t86 -33t31 -83v-64h-93v59q0 26 -23 26q-22 0 -22 -27v-313q0 -30 22 -30q23 0 23 29v62h93v-63q0 -58 -31.5 -89t-89.5 -31z" />
    <glyph glyph-name="Cdotaccent" unicode="&#x10a;" horiz-adv-x="316" 
d="M162 -9q-69 0 -105 36t-36 100v458q0 63 39.5 100.5t104.5 37.5q62 0 97 -36t35 -97v-130h-104v119q0 38 -30 38q-29 0 -29 -36v-444q0 -39 30 -39q29 0 29 39v115h104v-119q0 -63 -35.5 -102.5t-99.5 -39.5zM119 757v137h79v-137h-79z" />
    <glyph glyph-name="cdotaccent" unicode="&#x10b;" horiz-adv-x="280" 
d="M141 -9q-58 0 -89 33.5t-31 88.5v312q0 55 34.5 89t89.5 34t86 -33t31 -83v-64h-93v59q0 26 -23 26q-22 0 -22 -27v-313q0 -30 22 -30q23 0 23 29v62h93v-63q0 -58 -31.5 -89t-89.5 -31zM101 587v137h79v-137h-79z" />
    <glyph glyph-name="Ccaron" unicode="&#x10c;" horiz-adv-x="316" 
d="M121 756l-70 140h83l26 -65l27 65h80l-69 -140h-77zM162 -9q-69 0 -105 36t-36 100v458q0 63 39.5 100.5t104.5 37.5q62 0 97 -36t35 -97v-130h-104v119q0 38 -30 38q-29 0 -29 -36v-444q0 -39 30 -39q29 0 29 39v115h104v-119q0 -63 -35.5 -102.5t-99.5 -39.5z" />
    <glyph glyph-name="ccaron" unicode="&#x10d;" horiz-adv-x="280" 
d="M103 586l-70 140h83l26 -65l27 65h80l-69 -140h-77zM141 -9q-58 0 -89 33.5t-31 88.5v312q0 55 34.5 89t89.5 34t86 -33t31 -83v-64h-93v59q0 26 -23 26q-22 0 -22 -27v-313q0 -30 22 -30q23 0 23 29v62h93v-63q0 -58 -31.5 -89t-89.5 -31z" />
    <glyph glyph-name="Dcaron" unicode="&#x10e;" horiz-adv-x="324" 
d="M123 761l-70 140h83l26 -65l27 65h80l-69 -140h-77zM25 0v713h141q60 0 98.5 -34.5t38.5 -95.5v-449q0 -65 -38.5 -99.5t-100.5 -34.5h-139zM135 104h20q37 0 37 43v425q0 38 -37 38h-20v-506z" />
    <glyph glyph-name="dcaron" unicode="&#x10f;" horiz-adv-x="294" 
d="M95 -10q-45 0 -59.5 27t-14.5 74v365q0 38 18.5 65t61.5 27q44 0 65 -35h1v200h104v-713h-94l-4 47h-2q-8 -26 -32 -41.5t-44 -15.5zM144 86q24 0 24 31v315q0 28 -23 28q-22 0 -22 -26v-322q0 -26 21 -26zM294 557l5 156h89l-27 -156h-67z" />
    <glyph glyph-name="Dcroat" unicode="&#x110;" horiz-adv-x="334" 
d="M36 0v325h-22v93h22v295h153q59 0 91.5 -34t32.5 -96v-449q0 -66 -33 -100t-94 -34h-150zM147 104h18q37 0 37 43v425q0 38 -37 38h-18v-192h33v-93h-33v-221z" />
    <glyph glyph-name="dcroat" unicode="&#x111;" horiz-adv-x="294" 
d="M103 601v61h64v51h104v-51h19v-61h-19v-601h-94l-4 47h-2q-8 -26 -32 -41.5t-44 -15.5q-45 0 -59.5 27t-14.5 74v365q0 38 18.5 65t61.5 27q44 0 65 -35h1v88h-64zM144 86q24 0 24 31v315q0 28 -23 28q-22 0 -22 -26v-322q0 -26 21 -26z" />
    <glyph glyph-name="Emacron" unicode="&#x112;" horiz-adv-x="268" 
d="M25 0v713h223v-103h-113v-189h91v-105h-91v-212h115v-104h-225zM46 771v83h184v-83h-184z" />
    <glyph glyph-name="emacron" unicode="&#x113;" horiz-adv-x="282" 
d="M151 -10q-60 0 -95 34t-35 90v309q0 55 33.5 90t89.5 35t87 -34t31 -86v-200h-138v-83q0 -58 49 -58q26 0 70 12l20 -88q-57 -21 -112 -21zM124 312h42v112q0 29 -20 29q-22 0 -22 -29v-112zM49 601v83h184v-83h-184z" />
    <glyph glyph-name="Ebreve" unicode="&#x114;" horiz-adv-x="268" 
d="M26 0v713h223v-103h-113v-189h91v-105h-91v-212h115v-104h-225zM138 756q-49 0 -79.5 32t-30.5 100h69q3 -69 43 -69q39 0 41 69h68q0 -69 -31.5 -100.5t-79.5 -31.5z" />
    <glyph glyph-name="ebreve" unicode="&#x115;" horiz-adv-x="282" 
d="M151 -10q-60 0 -95 34t-35 90v309q0 55 33.5 90t89.5 35t87 -34t31 -86v-200h-138v-83q0 -58 49 -58q26 0 70 12l20 -88q-57 -21 -112 -21zM124 312h42v112q0 29 -20 29q-22 0 -22 -29v-112zM141 586q-49 0 -79.5 32t-30.5 100h69q3 -69 43 -69q39 0 41 69h68
q0 -69 -31.5 -100.5t-79.5 -31.5z" />
    <glyph glyph-name="Edotaccent" unicode="&#x116;" horiz-adv-x="268" 
d="M25 0v713h223v-103h-113v-189h91v-105h-91v-212h115v-104h-225zM97 757v137h79v-137h-79z" />
    <glyph glyph-name="edotaccent" unicode="&#x117;" horiz-adv-x="282" 
d="M151 -10q-60 0 -95 34t-35 90v309q0 55 33.5 90t89.5 35t87 -34t31 -86v-200h-138v-83q0 -58 49 -58q26 0 70 12l20 -88q-57 -21 -112 -21zM124 312h42v112q0 29 -20 29q-22 0 -22 -29v-112zM101 587v137h79v-137h-79z" />
    <glyph glyph-name="Eogonek" unicode="&#x118;" horiz-adv-x="268" 
d="M25 0v713h223v-103h-113v-189h91v-105h-91v-212h115v-104h-6q-41 -25 -41 -65q0 -16 9.5 -26.5t26.5 -10.5q14 0 34 11l23 -65q-35 -20 -78 -20q-39 0 -62.5 22.5t-23.5 60.5q0 56 37 93h-144z" />
    <glyph glyph-name="eogonek" unicode="&#x119;" horiz-adv-x="282" 
d="M151 -10q-60 0 -95 34t-35 90v309q0 55 33.5 90t89.5 35t87 -34t31 -86v-200h-138v-83q0 -58 49 -58q26 0 70 12l20 -88l-17 -6q-46 -28 -46 -68q0 -16 9 -26t26 -10q16 0 34 11l25 -69q-35 -19 -75 -19q-39 0 -64.5 22.5t-25.5 58.5q0 50 33 85h-11zM124 312h42v112
q0 29 -20 29q-22 0 -22 -29v-112z" />
    <glyph glyph-name="Ecaron" unicode="&#x11a;" horiz-adv-x="268" 
d="M99 756l-70 140h83l26 -65l27 65h80l-69 -140h-77zM25 0v713h223v-103h-113v-189h91v-105h-91v-212h115v-104h-225z" />
    <glyph glyph-name="ecaron" unicode="&#x11b;" horiz-adv-x="282" 
d="M102 586l-70 140h83l26 -65l27 65h80l-69 -140h-77zM151 -10q-60 0 -95 34t-35 90v309q0 55 33.5 90t89.5 35t87 -34t31 -86v-200h-138v-83q0 -58 49 -58q26 0 70 12l20 -88q-57 -21 -112 -21zM124 312h42v112q0 29 -20 29q-22 0 -22 -29v-112z" />
    <glyph glyph-name="Gcircumflex" unicode="&#x11c;" horiz-adv-x="318" 
d="M51 757l70 140h77l69 -140h-82l-27 65l-26 -65h-81zM162 -9q-69 0 -105 36t-36 100v458q0 63 38.5 100.5t104.5 37.5q62 0 97.5 -36t35.5 -97v-120h-104v111q0 35 -30 35q-29 0 -29 -37v-444q0 -37 30 -37q29 0 29 39v151h-33v96h137v-251q0 -63 -35.5 -102.5
t-99.5 -39.5z" />
    <glyph glyph-name="gcircumflex" unicode="&#x11d;" horiz-adv-x="294" 
d="M37 586l70 140h77l69 -140h-82l-27 65l-26 -65h-81zM133 -173q-59 0 -104 15l20 91q46 -12 72 -12q47 0 47 48v78h-2q-11 -22 -30 -34t-36 -12q-78 0 -78 89v360q0 98 82 98q21 0 40 -11.5t28 -31.5h2l4 36h93v-577q0 -66 -36.5 -101.5t-101.5 -35.5zM146 88
q10 0 16.5 7.5t6.5 19.5v317q0 28 -24 28q-20 0 -20 -26v-320q0 -26 21 -26z" />
    <glyph glyph-name="Gbreve" unicode="&#x11e;" horiz-adv-x="318" 
d="M162 -9q-69 0 -105 36t-36 100v458q0 63 38.5 100.5t104.5 37.5q62 0 97.5 -36t35.5 -97v-120h-104v111q0 35 -30 35q-29 0 -29 -37v-444q0 -37 30 -37q29 0 29 39v151h-33v96h137v-251q0 -63 -35.5 -102.5t-99.5 -39.5zM158 757q-49 0 -79.5 32t-30.5 100h69
q3 -69 43 -69q39 0 41 69h68q0 -69 -31.5 -100.5t-79.5 -31.5z" />
    <glyph glyph-name="gbreve" unicode="&#x11f;" horiz-adv-x="294" 
d="M133 -173q-59 0 -104 15l20 91q46 -12 72 -12q47 0 47 48v78h-2q-11 -22 -30 -34t-36 -12q-78 0 -78 89v360q0 98 82 98q21 0 40 -11.5t28 -31.5h2l4 36h93v-577q0 -66 -36.5 -101.5t-101.5 -35.5zM146 88q10 0 16.5 7.5t6.5 19.5v317q0 28 -24 28q-20 0 -20 -26v-320
q0 -26 21 -26zM146 586q-49 0 -79.5 32t-30.5 100h69q3 -69 43 -69q39 0 41 69h68q0 -69 -31.5 -100.5t-79.5 -31.5z" />
    <glyph glyph-name="Gdotaccent" unicode="&#x120;" horiz-adv-x="318" 
d="M162 -9q-69 0 -105 36t-36 100v458q0 63 38.5 100.5t104.5 37.5q62 0 97.5 -36t35.5 -97v-120h-104v111q0 35 -30 35q-29 0 -29 -37v-444q0 -37 30 -37q29 0 29 39v151h-33v96h137v-251q0 -63 -35.5 -102.5t-99.5 -39.5zM119 758v137h79v-137h-79z" />
    <glyph glyph-name="gdotaccent" unicode="&#x121;" horiz-adv-x="294" 
d="M133 -173q-59 0 -104 15l20 91q46 -12 72 -12q47 0 47 48v78h-2q-11 -22 -30 -34t-36 -12q-78 0 -78 89v360q0 98 82 98q21 0 40 -11.5t28 -31.5h2l4 36h93v-577q0 -66 -36.5 -101.5t-101.5 -35.5zM146 88q10 0 16.5 7.5t6.5 19.5v317q0 28 -24 28q-20 0 -20 -26v-320
q0 -26 21 -26zM107 587v137h79v-137h-79z" />
    <glyph glyph-name="Gcommaaccent" unicode="&#x122;" horiz-adv-x="318" 
d="M112 -174l5 147h87l-26 -147h-66zM162 -9q-69 0 -105 36t-36 100v458q0 63 38.5 100.5t104.5 37.5q62 0 97.5 -36t35.5 -97v-120h-104v111q0 35 -30 35q-29 0 -29 -37v-444q0 -37 30 -37q29 0 29 39v151h-33v96h137v-251q0 -63 -35.5 -102.5t-99.5 -39.5z" />
    <glyph glyph-name="gcommaaccent" unicode="&#x123;" horiz-adv-x="294" 
d="M133 -173q-59 0 -104 15l20 91q46 -12 72 -12q47 0 47 48v78h-2q-11 -22 -30 -34t-36 -12q-78 0 -78 89v360q0 98 82 98q21 0 40 -11.5t28 -31.5h2l4 36h93v-577q0 -66 -36.5 -101.5t-101.5 -35.5zM146 88q10 0 16.5 7.5t6.5 19.5v317q0 28 -24 28q-20 0 -20 -26v-320
q0 -26 21 -26zM101 587v63l30 92h49l-15 -72h30v-83h-94z" />
    <glyph glyph-name="Hcircumflex" unicode="&#x124;" horiz-adv-x="330" 
d="M56 761l70 140h77l69 -140h-82l-27 65l-26 -65h-81zM25 0v713h111v-302h59v302h110v-713h-110v305h-59v-305h-111z" />
    <glyph glyph-name="hcircumflex" unicode="&#x125;" horiz-adv-x="294" 
d="M-28 751l70 140h77l69 -140h-82l-27 65l-26 -65h-81zM23 0v713h103v-211h1q23 46 75 46q35 0 52.5 -22t17.5 -56v-470h-102v428q0 25 -20 25q-24 0 -24 -32v-421h-103z" />
    <glyph glyph-name="Hbar" unicode="&#x126;" horiz-adv-x="361" 
d="M15 558v59h25v96h111v-96h59v96h110v-96h26v-59h-26v-558h-110v305h-59v-305h-111v558h-25zM151 411h59v147h-59v-147z" />
    <glyph glyph-name="hbar" unicode="&#x127;" horiz-adv-x="294" 
d="M4 601v61h19v51h103v-51h69v-61h-69v-99h1q23 46 75 46q35 0 52.5 -22t17.5 -56v-470h-102v428q0 25 -20 25q-24 0 -24 -32v-421h-103v601h-19z" />
    <glyph glyph-name="Itilde" unicode="&#x128;" horiz-adv-x="160" 
d="M25 0v713h111v-713h-111zM15 764l-54 17q18 96 70 96q17 0 46 -11.5t41 -11.5q10 0 15.5 5t11.5 22l52 -14q-7 -42 -26.5 -70.5t-48.5 -28.5q-13 0 -45 11.5t-37 11.5q-7 0 -10 -1t-7.5 -7t-7.5 -19z" />
    <glyph glyph-name="itilde" unicode="&#x129;" horiz-adv-x="149" 
d="M23 0v538h103v-538h-103zM11 594l-54 17q18 96 70 96q17 0 46 -11.5t41 -11.5q10 0 15.5 5t11.5 22l52 -14q-7 -42 -26.5 -70.5t-48.5 -28.5q-13 0 -45 11.5t-37 11.5q-7 0 -10 -1t-7.5 -7t-7.5 -19z" />
    <glyph glyph-name="Imacron" unicode="&#x12a;" horiz-adv-x="160" 
d="M25 0v713h111v-713h-111zM-11 771v83h184v-83h-184z" />
    <glyph glyph-name="imacron" unicode="&#x12b;" horiz-adv-x="149" 
d="M23 0v538h103v-538h-103zM-16 601v83h184v-83h-184z" />
    <glyph glyph-name="Ibreve" unicode="&#x12c;" horiz-adv-x="160" 
d="M25 0v713h111v-713h-111zM80 756q-49 0 -79.5 32t-30.5 100h69q3 -69 43 -69q39 0 41 69h68q0 -69 -31.5 -100.5t-79.5 -31.5z" />
    <glyph glyph-name="ibreve" unicode="&#x12d;" horiz-adv-x="149" 
d="M23 0v538h103v-538h-103zM74 586q-49 0 -79.5 32t-30.5 100h69q3 -69 43 -69q39 0 41 69h68q0 -69 -31.5 -100.5t-79.5 -31.5z" />
    <glyph glyph-name="Iogonek" unicode="&#x12e;" horiz-adv-x="160" 
d="M25 0v713h111v-713h-9q-40 -23 -40 -63q0 -36 32 -36q6 0 26 5l16 -69q-24 -11 -57 -11q-36 0 -60.5 19t-24.5 62q0 54 41 93h-35z" />
    <glyph glyph-name="iogonek" unicode="&#x12f;" horiz-adv-x="149" 
d="M23 0v538h103v-538h-103zM23 586v127h103v-127h-103z" />
    <glyph glyph-name="Idotaccent" unicode="&#x130;" horiz-adv-x="160" 
d="M25 0v713h111v-713h-111zM41 757v137h79v-137h-79z" />
    <glyph glyph-name="dotlessi" unicode="&#x131;" horiz-adv-x="149" 
d="M23 0v538h103v-538h-103z" />
    <glyph glyph-name="IJ" unicode="&#x132;" horiz-adv-x="464" 
d="M25 0v713h111v-713h-111zM301 -10q-65 0 -98 40.5t-33 109.5v115h105v-121q0 -39 28 -39q27 0 27 41v577h111v-574q0 -71 -37 -110t-103 -39z" />
    <glyph glyph-name="ij" unicode="&#x133;" horiz-adv-x="294" 
d="M23 0v538h103v-538h-103zM23 586v127h103v-127h-103zM176 -164q-23 0 -42 4v89h13q13 0 17.5 6t4.5 23v580h101v-597q0 -49 -23 -77t-71 -28zM168 586v127h103v-127h-103z" />
    <glyph glyph-name="Jcircumflex" unicode="&#x134;" horiz-adv-x="308" 
d="M111 756l70 140h77l69 -140h-82l-27 65l-26 -65h-81zM146 -10q-65 0 -98 40.5t-33 109.5v115h105v-121q0 -39 28 -39q27 0 27 41v577h111v-574q0 -71 -37 -110t-103 -39z" />
    <glyph glyph-name="jcircumflex" unicode="&#x135;" horiz-adv-x="150" 
d="M32 -164q-23 0 -42 4v89h13q13 0 17.5 6t4.5 23v580h101v-597q0 -49 -23 -77t-71 -28zM-33 586l70 140h77l69 -140h-82l-27 65l-26 -65h-81z" />
    <glyph glyph-name="Kcommaaccent" unicode="&#x136;" horiz-adv-x="327" 
d="M117 -174l5 147h87l-26 -147h-66zM25 0v713h111v-303l69 303h111l-75 -272l78 -441h-112l-47 327l-24 -80v-247h-111z" />
    <glyph glyph-name="kcommaaccent" unicode="&#x137;" horiz-adv-x="299" 
d="M100 -174l5 147h87l-26 -147h-66zM23 0v713h103v-380l63 205h102l-65 -187l62 -351h-107l-38 245l-17 -50v-195h-103z" />
    <glyph glyph-name="kgreenlandic" unicode="&#x138;" horiz-adv-x="299" 
d="M23 0v538h103v-205l63 205h102l-65 -187l62 -351h-107l-38 245l-17 -50v-195h-103z" />
    <glyph glyph-name="Lacute" unicode="&#x139;" horiz-adv-x="264" 
d="M54 756l49 140h106l-82 -140h-73zM25 0v713h110v-609h115v-104h-225z" />
    <glyph glyph-name="lacute" unicode="&#x13a;" horiz-adv-x="168" 
d="M38 748l49 140h106l-82 -140h-73zM104 -6q-48 0 -64.5 22.5t-16.5 61.5v635h103v-601q0 -14 13 -14q8 0 15 1v-96q-22 -9 -50 -9z" />
    <glyph glyph-name="Lcommaaccent" unicode="&#x13b;" horiz-adv-x="264" 
d="M90 -174l5 147h87l-26 -147h-66zM25 0v713h110v-609h115v-104h-225z" />
    <glyph glyph-name="lcommaaccent" unicode="&#x13c;" horiz-adv-x="168" 
d="M40 -174l5 147h87l-26 -147h-66zM104 -6q-48 0 -64.5 22.5t-16.5 61.5v635h103v-601q0 -14 13 -14q8 0 15 1v-96q-22 -9 -50 -9z" />
    <glyph glyph-name="Lcaron" unicode="&#x13d;" horiz-adv-x="277" 
d="M159 540l5 173h89l-27 -173h-67zM25 0v713h110v-609h115v-104h-225z" />
    <glyph glyph-name="lcaron" unicode="&#x13e;" horiz-adv-x="168" 
d="M104 -6q-48 0 -64.5 22.5t-16.5 61.5v635h103v-601q0 -14 13 -14q8 0 15 1v-96q-22 -9 -50 -9zM148 557l5 156h89l-27 -156h-67z" />
    <glyph glyph-name="Ldot" unicode="&#x13f;" horiz-adv-x="264" 
d="M25 0v713h110v-609h115v-104h-225zM160 337v125h83v-125h-83z" />
    <glyph glyph-name="ldot" unicode="&#x140;" horiz-adv-x="241" 
d="M104 -6q-48 0 -64.5 22.5t-16.5 61.5v635h103v-601q0 -14 13 -14q8 0 15 1v-96q-22 -9 -50 -9zM144 327v124h82v-124h-82z" />
    <glyph glyph-name="Lslash" unicode="&#x141;" horiz-adv-x="281" 
d="M14 275v94l27 21v323h111v-235l57 45v-94l-57 -45v-280h115v-104h-226v296z" />
    <glyph glyph-name="lslash" unicode="&#x142;" horiz-adv-x="178" 
d="M13 268v96l23 23v326h103v-223l27 27v-95l-27 -27v-283q0 -14 13 -14q8 0 15 1v-96q-23 -9 -50 -9q-48 0 -64.5 22.5t-16.5 61.5v213z" />
    <glyph glyph-name="Nacute" unicode="&#x143;" horiz-adv-x="355" 
d="M140 756l49 140h106l-82 -140h-73zM25 0v713h119l86 -379h3v379h97v-713h-110l-96 425h-4v-425h-95z" />
    <glyph glyph-name="nacute" unicode="&#x144;" horiz-adv-x="294" 
d="M109 586l49 140h106l-82 -140h-73zM23 0v538h100v-41h1q26 51 77 51q35 0 53 -21.5t18 -56.5v-470h-102v428q0 25 -20 25q-24 0 -24 -32v-421h-103z" />
    <glyph glyph-name="Ncommaaccent" unicode="&#x145;" horiz-adv-x="355" 
d="M130 -174l5 147h87l-26 -147h-66zM25 0v713h119l86 -379h3v379h97v-713h-110l-96 425h-4v-425h-95z" />
    <glyph glyph-name="ncommaaccent" unicode="&#x146;" horiz-adv-x="294" 
d="M100 -174l5 147h87l-26 -147h-66zM23 0v538h100v-41h1q26 51 77 51q35 0 53 -21.5t18 -56.5v-470h-102v428q0 25 -20 25q-24 0 -24 -32v-421h-103z" />
    <glyph glyph-name="Ncaron" unicode="&#x147;" horiz-adv-x="355" 
d="M139 756l-70 140h83l26 -65l27 65h80l-69 -140h-77zM25 0v713h119l86 -379h3v379h97v-713h-110l-96 425h-4v-425h-95z" />
    <glyph glyph-name="ncaron" unicode="&#x148;" horiz-adv-x="294" 
d="M108 586l-70 140h83l26 -65l27 65h80l-69 -140h-77zM23 0v538h100v-41h1q26 51 77 51q35 0 53 -21.5t18 -56.5v-470h-102v428q0 25 -20 25q-24 0 -24 -32v-421h-103z" />
    <glyph glyph-name="Eng" unicode="&#x14a;" horiz-adv-x="355" 
d="M236 -164q-23 0 -42 4v89h12q13 0 17.5 6t4.5 23v7l-104 460h-4v-425h-95v713h119l86 -379h3v379h97v-772q0 -49 -23 -77t-71 -28z" />
    <glyph glyph-name="eng" unicode="&#x14b;" horiz-adv-x="294" 
d="M178 -164q-23 0 -42 4v89h12q13 0 17.5 6t4.5 23v470q0 25 -20 25q-24 0 -24 -32v-421h-103v538h100v-41h1q26 51 77 51q35 0 53 -21.5t18 -56.5v-529q0 -49 -23 -77t-71 -28z" />
    <glyph glyph-name="Omacron" unicode="&#x14c;" horiz-adv-x="327" 
d="M72 771v83h184v-83h-184zM163 -9q-142 0 -142 148v439q0 68 38.5 106.5t104.5 38.5t104 -38t38 -105v-441q0 -69 -38.5 -108.5t-104.5 -39.5zM164 98q29 0 29 36v450q0 31 -30 31q-29 0 -29 -31v-451q0 -14 7.5 -24.5t22.5 -10.5z" />
    <glyph glyph-name="omacron" unicode="&#x14d;" horiz-adv-x="293" 
d="M54 601v83h184v-83h-184zM146 -9q-61 0 -93 33t-32 92v310q0 56 35.5 89t90.5 33q54 0 89.5 -32.5t35.5 -86.5v-313q0 -60 -33.5 -92.5t-92.5 -32.5zM146 83q22 0 22 26v318q0 26 -22 26t-22 -24v-320q0 -26 22 -26z" />
    <glyph glyph-name="Obreve" unicode="&#x14e;" horiz-adv-x="327" 
d="M163 -9q-142 0 -142 148v439q0 68 38.5 106.5t104.5 38.5t104 -38t38 -105v-441q0 -69 -38.5 -108.5t-104.5 -39.5zM164 98q29 0 29 36v450q0 31 -30 31q-29 0 -29 -31v-451q0 -14 7.5 -24.5t22.5 -10.5zM163 756q-49 0 -79.5 32t-30.5 100h69q3 -69 43 -69q39 0 41 69
h68q0 -69 -31.5 -100.5t-79.5 -31.5z" />
    <glyph glyph-name="obreve" unicode="&#x14f;" horiz-adv-x="293" 
d="M146 -9q-61 0 -93 33t-32 92v310q0 56 35.5 89t90.5 33q54 0 89.5 -32.5t35.5 -86.5v-313q0 -60 -33.5 -92.5t-92.5 -32.5zM146 83q22 0 22 26v318q0 26 -22 26t-22 -24v-320q0 -26 22 -26zM145 586q-49 0 -79.5 32t-30.5 100h69q3 -69 43 -69q39 0 41 69h68
q0 -69 -31.5 -100.5t-79.5 -31.5z" />
    <glyph glyph-name="Ohungarumlaut" unicode="&#x150;" horiz-adv-x="327" 
d="M61 759l43 135h88l-57 -135h-74zM179 759l43 135h88l-57 -135h-74zM163 -9q-142 0 -142 148v439q0 68 38.5 106.5t104.5 38.5t104 -38t38 -105v-441q0 -69 -38.5 -108.5t-104.5 -39.5zM164 98q29 0 29 36v450q0 31 -30 31q-29 0 -29 -31v-451q0 -14 7.5 -24.5t22.5 -10.5
z" />
    <glyph glyph-name="ohungarumlaut" unicode="&#x151;" horiz-adv-x="293" 
d="M36 589l43 135h88l-57 -135h-74zM154 589l43 135h88l-57 -135h-74zM146 -9q-61 0 -93 33t-32 92v310q0 56 35.5 89t90.5 33q54 0 89.5 -32.5t35.5 -86.5v-313q0 -60 -33.5 -92.5t-92.5 -32.5zM146 83q22 0 22 26v318q0 26 -22 26t-22 -24v-320q0 -26 22 -26z" />
    <glyph glyph-name="OE" unicode="&#x152;" horiz-adv-x="442" 
d="M140 -5q-70 0 -94.5 36t-24.5 112v431q0 145 124 145q33 0 52 -12v6h225v-103h-115v-189h93v-105h-93v-212h117v-104h-227v11q-24 -16 -57 -16zM165 102q31 0 31 36v442q0 32 -32 32q-14 0 -22 -9.5t-8 -21.5v-444q0 -13 8 -24t23 -11z" />
    <glyph glyph-name="oe" unicode="&#x153;" horiz-adv-x="430" 
d="M146 -9q-61 0 -93 33t-32 92v310q0 56 35.5 89t90.5 33q42 0 73 -22q30 22 71 22q56 0 87 -34t31 -86v-200h-137v-86q0 -55 48 -55q26 0 70 12l20 -87q-55 -21 -112 -21q-46 0 -77 22q-31 -22 -75 -22zM146 83q22 0 22 26v320q0 24 -22 24t-22 -24v-320q0 -26 22 -26z
M272 312h41v112q0 29 -20 29q-19 0 -21 -24v-117z" />
    <glyph glyph-name="Racute" unicode="&#x154;" horiz-adv-x="327" 
d="M114 756l49 140h106l-82 -140h-73zM25 0v713h133q150 0 150 -204q0 -51 -9 -87.5t-16.5 -49t-20.5 -28.5l50 -344h-111l-40 310h-25v-310h-111zM136 394h20q38 0 38 109q0 108 -42 108h-16v-217z" />
    <glyph glyph-name="racute" unicode="&#x155;" horiz-adv-x="224" 
d="M77 586l49 140h106l-82 -140h-73zM23 0v538h100v-47h1q8 22 25 37t37 15q18 0 27 -4v-108q-18 2 -33 2q-28 0 -41 -12t-13 -29v-392h-103z" />
    <glyph glyph-name="Rcommaaccent" unicode="&#x156;" horiz-adv-x="327" 
d="M117 -174l5 147h87l-26 -147h-66zM25 0v713h133q150 0 150 -204q0 -51 -9 -87.5t-16.5 -49t-20.5 -28.5l50 -344h-111l-40 310h-25v-310h-111zM136 394h20q38 0 38 109q0 108 -42 108h-16v-217z" />
    <glyph glyph-name="rcommaaccent" unicode="&#x157;" horiz-adv-x="224" 
d="M28 -174l5 147h87l-26 -147h-66zM23 0v538h100v-47h1q8 22 25 37t37 15q18 0 27 -4v-108q-18 2 -33 2q-28 0 -41 -12t-13 -29v-392h-103z" />
    <glyph glyph-name="Rcaron" unicode="&#x158;" horiz-adv-x="327" 
d="M127 756l-70 140h83l26 -65l27 65h80l-69 -140h-77zM25 0v713h133q150 0 150 -204q0 -51 -9 -87.5t-16.5 -49t-20.5 -28.5l50 -344h-111l-40 310h-25v-310h-111zM136 394h20q38 0 38 109q0 108 -42 108h-16v-217z" />
    <glyph glyph-name="rcaron" unicode="&#x159;" horiz-adv-x="224" 
d="M80 586l-70 140h83l26 -65l27 65h80l-69 -140h-77zM23 0v538h100v-47h1q8 22 25 37t37 15q18 0 27 -4v-108q-18 2 -33 2q-28 0 -41 -12t-13 -29v-392h-103z" />
    <glyph glyph-name="Sacute" unicode="&#x15a;" horiz-adv-x="308" 
d="M113 756l49 140h106l-82 -140h-73zM156 -9q-148 0 -137 217h104q0 -64 8 -90.5t27 -26.5q25 0 25 45q0 47 -48 137l-50 94q-64 120 -64 205q0 66 33 108.5t102 42.5q71 0 101 -47.5t29 -155.5h-101q-2 107 -30 107q-26 0 -26 -46q0 -51 54 -150l37 -70q70 -133 70 -218
q0 -64 -34.5 -108t-99.5 -44z" />
    <glyph glyph-name="sacute" unicode="&#x15b;" horiz-adv-x="266" 
d="M92 586l49 140h106l-82 -140h-73zM137 -9q-66 0 -93 41t-25 121h87q1 -77 28 -77q19 0 19 30q0 9 -2.5 19t-8.5 22l-9.5 19t-11 20t-8.5 14l-46 86q-45 73 -45 140q0 52 29 86.5t87 34.5q110 0 109 -156l-86 -1q-4 73 -27 73q-19 0 -19 -27q0 -11 36 -83l41 -76
q56 -107 56 -163q0 -50 -26 -86.5t-85 -36.5z" />
    <glyph glyph-name="Scircumflex" unicode="&#x15c;" horiz-adv-x="308" 
d="M45 756l70 140h77l69 -140h-82l-27 65l-26 -65h-81zM156 -9q-148 0 -137 217h104q0 -64 8 -90.5t27 -26.5q25 0 25 45q0 47 -48 137l-50 94q-64 120 -64 205q0 66 33 108.5t102 42.5q71 0 101 -47.5t29 -155.5h-101q-2 107 -30 107q-26 0 -26 -46q0 -51 54 -150l37 -70
q70 -133 70 -218q0 -64 -34.5 -108t-99.5 -44z" />
    <glyph glyph-name="scircumflex" unicode="&#x15d;" horiz-adv-x="266" 
d="M24 586l70 140h77l69 -140h-82l-27 65l-26 -65h-81zM137 -9q-66 0 -93 41t-25 121h87q1 -77 28 -77q19 0 19 30q0 9 -2.5 19t-8.5 22l-9.5 19t-11 20t-8.5 14l-46 86q-45 73 -45 140q0 52 29 86.5t87 34.5q110 0 109 -156l-86 -1q-4 73 -27 73q-19 0 -19 -27
q0 -11 36 -83l41 -76q56 -107 56 -163q0 -50 -26 -86.5t-85 -36.5z" />
    <glyph glyph-name="Scedilla" unicode="&#x15e;" horiz-adv-x="308" 
d="M155 -175q-35 0 -67 9v52q40 -9 62 -9q26 0 26 18q0 15 -29 17l-30 2l15 79q-123 17 -113 215h104q0 -64 8 -90.5t27 -26.5q25 0 25 45q0 47 -48 137l-50 94q-64 120 -64 205q0 66 33 108.5t102 42.5q71 0 101 -47.5t29 -155.5h-101q-2 107 -30 107q-26 0 -26 -46
q0 -51 54 -150l37 -70q70 -133 70 -218q0 -58 -29.5 -101t-84.5 -50l-7 -37q79 0 79 -57q0 -34 -27 -53.5t-66 -19.5z" />
    <glyph glyph-name="scedilla" unicode="&#x15f;" horiz-adv-x="266" 
d="M137 -175q-35 0 -67 9v52q40 -9 62 -9q26 0 26 18q0 15 -29 17l-30 2l15 79q-53 6 -75 46.5t-20 113.5h87q1 -77 28 -77q19 0 19 30q0 9 -2.5 19t-8.5 22l-9.5 19t-11 20t-8.5 14l-46 86q-45 73 -45 140q0 52 29 86.5t87 34.5q110 0 109 -156l-86 -1q-4 73 -27 73
q-19 0 -19 -27q0 -11 36 -83l41 -76q56 -107 56 -163q0 -45 -21 -80t-69 -41l-7 -38q79 0 79 -57q0 -34 -27 -53.5t-66 -19.5z" />
    <glyph glyph-name="Scaron" unicode="&#x160;" horiz-adv-x="308" 
d="M115 756l-70 140h83l26 -65l27 65h80l-69 -140h-77zM156 -9q-148 0 -137 217h104q0 -64 8 -90.5t27 -26.5q25 0 25 45q0 47 -48 137l-50 94q-64 120 -64 205q0 66 33 108.5t102 42.5q71 0 101 -47.5t29 -155.5h-101q-2 107 -30 107q-26 0 -26 -46q0 -51 54 -150l37 -70
q70 -133 70 -218q0 -64 -34.5 -108t-99.5 -44z" />
    <glyph glyph-name="scaron" unicode="&#x161;" horiz-adv-x="266" 
d="M94 586l-70 140h83l26 -65l27 65h80l-69 -140h-77zM137 -9q-66 0 -93 41t-25 121h87q1 -77 28 -77q19 0 19 30q0 9 -2.5 19t-8.5 22l-9.5 19t-11 20t-8.5 14l-46 86q-45 73 -45 140q0 52 29 86.5t87 34.5q110 0 109 -156l-86 -1q-4 73 -27 73q-19 0 -19 -27q0 -11 36 -83
l41 -76q56 -107 56 -163q0 -50 -26 -86.5t-85 -36.5z" />
    <glyph glyph-name="Tcommaaccent" unicode="&#x162;" horiz-adv-x="309" 
d="M108 -174l5 147h87l-26 -147h-66zM100 0v610h-88v103h285v-103h-86v-610h-111z" />
    <glyph glyph-name="tcommaaccent" unicode="&#x163;" horiz-adv-x="209" 
d="M67 -174l5 147h87l-26 -147h-66zM137 -5q-44 0 -68.5 22t-24.5 60v370h-32v88h32v105h103v-105h54v-87h-54v-334q0 -22 20 -22q9 0 27 3v-93q-24 -7 -57 -7z" />
    <glyph glyph-name="Tcaron" unicode="&#x164;" horiz-adv-x="309" 
d="M114 756l-70 140h83l26 -65l27 65h80l-69 -140h-77zM100 0v610h-88v103h285v-103h-86v-610h-111z" />
    <glyph glyph-name="tcaron" unicode="&#x165;" horiz-adv-x="209" 
d="M137 -5q-44 0 -68.5 22t-24.5 60v370h-32v88h32v105h103v-105h54v-87h-54v-334q0 -22 20 -22q9 0 27 3v-93q-24 -7 -57 -7zM169 557l5 156h89l-27 -156h-67z" />
    <glyph glyph-name="Tbar" unicode="&#x166;" horiz-adv-x="309" 
d="M61 316v58h39v236h-88v103h285v-103h-86v-236h37v-58h-37v-316h-111v316h-39z" />
    <glyph glyph-name="tbar" unicode="&#x167;" horiz-adv-x="209" 
d="M19 263v60h25v124h-32v88h32v105h103v-105h54v-87h-54v-125h33v-60h-33v-149q0 -22 20 -22q9 0 27 3v-93q-24 -7 -57 -7q-44 0 -68.5 22t-24.5 60v186h-25z" />
    <glyph glyph-name="Utilde" unicode="&#x168;" horiz-adv-x="319" 
d="M156 -9q-65 0 -99.5 35t-34.5 105v582h113v-580q0 -36 28 -36q29 0 29 38v578h105v-577q0 -68 -38 -106.5t-103 -38.5zM94 764l-54 17q18 96 70 96q17 0 46 -11.5t41 -11.5q11 0 16 5t11 22l52 -14q-7 -42 -26.5 -70.5t-48.5 -28.5q-13 0 -45 11.5t-37 11.5q-7 0 -10 -1
t-7.5 -7t-7.5 -19z" />
    <glyph glyph-name="utilde" unicode="&#x169;" horiz-adv-x="293" 
d="M92 -10q-36 0 -54 21.5t-18 58.5v468h102v-427q0 -26 21 -26q24 0 24 32v421h103v-538h-100v42h-1q-11 -25 -32.5 -38.5t-44.5 -13.5zM82 594l-54 17q18 96 70 96q17 0 46 -11.5t41 -11.5q11 0 16 5t11 22l52 -14q-7 -42 -26.5 -70.5t-48.5 -28.5q-13 0 -45 11.5
t-37 11.5q-7 0 -10 -1t-7.5 -7t-7.5 -19z" />
    <glyph glyph-name="Umacron" unicode="&#x16a;" horiz-adv-x="319" 
d="M156 -9q-65 0 -99.5 35t-34.5 105v582h113v-580q0 -36 28 -36q29 0 29 38v578h105v-577q0 -68 -38 -106.5t-103 -38.5zM68 771v83h184v-83h-184z" />
    <glyph glyph-name="umacron" unicode="&#x16b;" horiz-adv-x="293" 
d="M92 -10q-36 0 -54 21.5t-18 58.5v468h102v-427q0 -26 21 -26q24 0 24 32v421h103v-538h-100v42h-1q-11 -25 -32.5 -38.5t-44.5 -13.5zM54 601v83h184v-83h-184z" />
    <glyph glyph-name="Ubreve" unicode="&#x16c;" horiz-adv-x="319" 
d="M156 -9q-65 0 -99.5 35t-34.5 105v582h113v-580q0 -36 28 -36q29 0 29 38v578h105v-577q0 -68 -38 -106.5t-103 -38.5zM159 756q-49 0 -79.5 32t-30.5 100h69q3 -69 43 -69q39 0 41 69h68q0 -69 -31.5 -100.5t-79.5 -31.5z" />
    <glyph glyph-name="ubreve" unicode="&#x16d;" horiz-adv-x="293" 
d="M92 -10q-36 0 -54 21.5t-18 58.5v468h102v-427q0 -26 21 -26q24 0 24 32v421h103v-538h-100v42h-1q-11 -25 -32.5 -38.5t-44.5 -13.5zM145 586q-49 0 -79.5 32t-30.5 100h69q3 -69 43 -69q39 0 41 69h68q0 -69 -31.5 -100.5t-79.5 -31.5z" />
    <glyph glyph-name="Uring" unicode="&#x16e;" horiz-adv-x="319" 
d="M159 755q-36 0 -58.5 22.5t-22.5 57.5t23 58.5t60 23.5q35 0 57 -23t22 -58t-23.5 -58t-57.5 -23zM160 797q35 0 35 40t-35 40q-34 0 -34 -41q0 -17 9.5 -28t24.5 -11zM156 -9q-65 0 -99.5 35t-34.5 105v582h113v-580q0 -36 28 -36q29 0 29 38v578h105v-577
q0 -68 -38 -106.5t-103 -38.5z" />
    <glyph glyph-name="uring" unicode="&#x16f;" horiz-adv-x="293" 
d="M146 585q-36 0 -58.5 22.5t-22.5 57.5t23 58.5t60 23.5q35 0 57 -23t22 -58t-23.5 -58t-57.5 -23zM147 627q35 0 35 40t-35 40q-34 0 -34 -41q0 -17 9.5 -28t24.5 -11zM92 -10q-36 0 -54 21.5t-18 58.5v468h102v-427q0 -26 21 -26q24 0 24 32v421h103v-538h-100v42h-1
q-11 -25 -32.5 -38.5t-44.5 -13.5z" />
    <glyph glyph-name="Uhungarumlaut" unicode="&#x170;" horiz-adv-x="319" 
d="M156 -9q-65 0 -99.5 35t-34.5 105v582h113v-580q0 -36 28 -36q29 0 29 38v578h105v-577q0 -68 -38 -106.5t-103 -38.5zM59 759l43 135h88l-57 -135h-74zM177 759l43 135h88l-57 -135h-74z" />
    <glyph glyph-name="uhungarumlaut" unicode="&#x171;" horiz-adv-x="293" 
d="M92 -10q-36 0 -54 21.5t-18 58.5v468h102v-427q0 -26 21 -26q24 0 24 32v421h103v-538h-100v42h-1q-11 -25 -32.5 -38.5t-44.5 -13.5zM46 589l43 135h88l-57 -135h-74zM164 589l43 135h88l-57 -135h-74z" />
    <glyph glyph-name="Uogonek" unicode="&#x172;" horiz-adv-x="319" 
d="M199 -176q-38 0 -61.5 22.5t-23.5 60.5q0 50 36 84q-128 3 -128 140v582h113v-580q0 -36 28 -36q29 0 29 38v578h105v-577q0 -100 -79 -134q-33 -24 -33 -67q0 -16 9.5 -26.5t26.5 -10.5q14 0 34 11l23 -66q-38 -19 -79 -19z" />
    <glyph glyph-name="uogonek" unicode="&#x173;" horiz-adv-x="293" 
d="M92 -10q-36 0 -54 21.5t-18 58.5v468h102v-427q0 -26 21 -26q24 0 24 32v421h103v-538h-26q-41 -25 -41 -65q0 -16 9.5 -26.5t26.5 -10.5q14 0 34 11l23 -65q-35 -20 -78 -20q-39 0 -62.5 22.5t-23.5 60.5q0 57 38 93v42h-1q-11 -25 -32.5 -38.5t-44.5 -13.5z" />
    <glyph glyph-name="Wcircumflex" unicode="&#x174;" horiz-adv-x="486" 
d="M134 757l70 140h77l69 -140h-82l-27 65l-26 -65h-81zM93 -2l-83 715h110l34 -426h3l38 426h113l37 -423h3l34 423h94l-81 -715h-102l-42 456h-4l-43 -456h-111z" />
    <glyph glyph-name="wcircumflex" unicode="&#x175;" horiz-adv-x="412" 
d="M105 586l70 140h77l69 -140h-82l-27 65l-26 -65h-81zM82 -1l-78 539h110l24 -285h3l26 285h90l24 -285h3l27 285h97l-79 -539h-85l-34 296h-4l-33 -296h-91z" />
    <glyph glyph-name="Ycircumflex" unicode="&#x176;" horiz-adv-x="319" 
d="M104 0v279l-99 434h119l41 -256l40 256h109l-98 -435v-278h-112zM51 756l70 140h77l69 -140h-82l-27 65l-26 -65h-81z" />
    <glyph glyph-name="ycircumflex" unicode="&#x177;" horiz-adv-x="271" 
d="M70 -167q-21 0 -41 4v80q14 -2 29 -2q25 0 29 28l6 36l-90 559h105l33 -337h2l30 337h95l-86 -574q-24 -131 -112 -131zM33 586l70 140h77l69 -140h-82l-27 65l-26 -65h-81z" />
    <glyph glyph-name="Ydieresis" unicode="&#x178;" horiz-adv-x="319" 
d="M104 0v279l-99 434h119l41 -256l40 256h109l-98 -435v-278h-112zM59 757v137h83v-137h-83zM176 757v137h83v-137h-83z" />
    <glyph glyph-name="Zacute" unicode="&#x179;" horiz-adv-x="271" 
d="M98 756l49 140h106l-82 -140h-73zM16 0v80l131 530h-126v103h237v-90l-128 -519h122v-104h-236z" />
    <glyph glyph-name="zacute" unicode="&#x17a;" horiz-adv-x="239" 
d="M78 586l49 140h106l-82 -140h-73zM15 0v83l99 360h-98v95h207v-88l-97 -353h96v-97h-207z" />
    <glyph glyph-name="Zdotaccent" unicode="&#x17b;" horiz-adv-x="271" 
d="M16 0v80l131 530h-126v103h237v-90l-128 -519h122v-104h-236zM97 757v137h79v-137h-79z" />
    <glyph glyph-name="zdotaccent" unicode="&#x17c;" horiz-adv-x="239" 
d="M15 0v83l99 360h-98v95h207v-88l-97 -353h96v-97h-207zM80 587v137h79v-137h-79z" />
    <glyph glyph-name="Zcaron" unicode="&#x17d;" horiz-adv-x="271" 
d="M98 756l-70 140h83l26 -65l27 65h80l-69 -140h-77zM16 0v80l131 530h-126v103h237v-90l-128 -519h122v-104h-236z" />
    <glyph glyph-name="zcaron" unicode="&#x17e;" horiz-adv-x="239" 
d="M82 586l-70 140h83l26 -65l27 65h80l-69 -140h-77zM15 0v83l99 360h-98v95h207v-88l-97 -353h96v-97h-207z" />
    <glyph glyph-name="florin" unicode="&#x192;" horiz-adv-x="243" 
d="M44 -151q-24 0 -45 6l6 86h17q7 0 10.5 3.5t4.5 8t2 16.5l32 440h-32l7 96h31l8 115q7 101 107 101q28 0 52 -7l-7 -87h-29q-20 0 -21 -24l-7 -98h37l-6 -96h-37l-33 -455q-7 -105 -97 -105z" />
    <glyph glyph-name="Aringacute" unicode="&#x1fa;" horiz-adv-x="347" 
d="M10 0l82 713h163l82 -713h-111l-18 171h-82l-19 -171h-97zM137 269h61l-28 294h-4zM173 755q-35 0 -58 23t-23 56q0 16 8 38l45 98h97l-54 -59q29 -4 48 -26t19 -50q0 -34 -23.5 -57t-58.5 -23zM174 797q35 0 35 40t-35 40q-34 0 -34 -41q0 -17 9.5 -28t24.5 -11z" />
    <glyph glyph-name="aringacute" unicode="&#x1fb;" horiz-adv-x="284" 
d="M104 -9q-88 0 -88 170q0 77 35 125t103 49h4v94q0 25 -20 25q-21 0 -21 -26v-62h-93v60q0 55 31 89t88 34q61 0 89 -34.5t28 -91.5v-302q0 -89 4 -121h-90q0 1 -1.5 9.5t-3 19.5t-1.5 16h-2q-6 -27 -24 -40.5t-38 -13.5zM139 81q19 0 19 32v146h-6q-16 0 -25.5 -24.5
t-9.5 -66.5q0 -87 22 -87zM142 585q-35 0 -58 23t-23 56q0 16 8 38l45 98h97l-54 -59q29 -4 48 -26t19 -50q0 -34 -23.5 -57t-58.5 -23zM143 627q35 0 35 40t-35 40q-34 0 -34 -41q0 -17 9.5 -28t24.5 -11z" />
    <glyph glyph-name="AEacute" unicode="&#x1fc;" horiz-adv-x="454" 
d="M238 756l49 140h106l-82 -140h-73zM8 0l124 713h303v-103h-113v-189h91v-105h-91v-212h115v-104h-226v200h-60l-30 -200h-113zM163 286h48v320h-2z" />
    <glyph glyph-name="aeacute" unicode="&#x1fd;" horiz-adv-x="420" 
d="M168 586l49 140h106l-82 -140h-73zM104 -10q-39 0 -63.5 42t-24.5 129q0 77 35 125t103 49h4v94q0 25 -20 25q-21 0 -21 -26v-62h-93v60q0 55 31 89t88 34q43 0 71 -20q30 19 70 19q52 0 84 -32.5t32 -84.5v-203h-138v-83q0 -58 49 -58q22 0 70 12l20 -88
q-58 -21 -113 -21q-64 0 -100 42q-27 -42 -84 -42zM139 81q19 0 19 29v149h-6q-16 0 -25.5 -24.5t-9.5 -66.5q0 -87 22 -87zM262 312h42v112q0 29 -20 29q-22 0 -22 -29v-112z" />
    <glyph glyph-name="Oslashacute" unicode="&#x1fe;" horiz-adv-x="327" 
d="M103 -44l-47 8l12 54q-47 37 -47 121v439q0 68 38.5 106.5t104.5 38.5q30 0 55 -9l9 41l47 -6l-13 -59q44 -38 44 -110v-441q0 -69 -38.5 -108.5t-104.5 -39.5q-29 0 -51 6zM116 756l49 140h106l-82 -140h-73zM134 584v-262l58 269q-3 24 -29 24q-29 0 -29 -31zM164 98
q29 0 29 36v237l-56 -256q9 -17 27 -17z" />
    <glyph glyph-name="oslashacute" unicode="&#x1ff;" horiz-adv-x="293" 
d="M99 -38l-41 7l9 43q-46 32 -46 104v310q0 56 35.5 89t90.5 33q18 0 40 -5l9 39l40 -6l-12 -51q48 -33 48 -96v-313q0 -60 -33.5 -92.5t-92.5 -32.5q-20 0 -40 5zM89 586l49 140h106l-82 -140h-73zM124 429v-167l40 180q-5 11 -18 11q-22 0 -22 -24zM146 83q22 0 22 26
v162l-40 -179q4 -9 18 -9z" />
    <glyph glyph-name="Scommaaccent" unicode="&#x218;" horiz-adv-x="308" 
d="M107 -174l5 147h87l-26 -147h-66zM156 -9q-148 0 -137 217h104q0 -64 8 -90.5t27 -26.5q25 0 25 45q0 47 -48 137l-50 94q-64 120 -64 205q0 66 33 108.5t102 42.5q71 0 101 -47.5t29 -155.5h-101q-2 107 -30 107q-26 0 -26 -46q0 -51 54 -150l37 -70q70 -133 70 -218
q0 -64 -34.5 -108t-99.5 -44z" />
    <glyph glyph-name="scommaaccent" unicode="&#x219;" horiz-adv-x="266" 
d="M91 -174l5 147h87l-26 -147h-66zM137 -9q-66 0 -93 41t-25 121h87q1 -77 28 -77q19 0 19 30q0 9 -2.5 19t-8.5 22l-9.5 19t-11 20t-8.5 14l-46 86q-45 73 -45 140q0 52 29 86.5t87 34.5q110 0 109 -156l-86 -1q-4 73 -27 73q-19 0 -19 -27q0 -11 36 -83l41 -76
q56 -107 56 -163q0 -50 -26 -86.5t-85 -36.5z" />
    <glyph glyph-name="uni021A" unicode="&#x21a;" horiz-adv-x="309" 
d="M108 -174l5 147h87l-26 -147h-66zM100 0v610h-88v103h285v-103h-86v-610h-111z" />
    <glyph glyph-name="uni021B" unicode="&#x21b;" horiz-adv-x="209" 
d="M67 -174l5 147h87l-26 -147h-66zM137 -5q-44 0 -68.5 22t-24.5 60v370h-32v88h32v105h103v-105h54v-87h-54v-334q0 -22 20 -22q9 0 27 3v-93q-24 -7 -57 -7z" />
    <glyph glyph-name="dotlessj" unicode="&#x237;" horiz-adv-x="150" 
d="M32 -164q-23 0 -42 4v89h13q13 0 17.5 6t4.5 23v580h101v-597q0 -49 -23 -77t-71 -28z" />
    <glyph glyph-name="circumflex" unicode="&#x2c6;" horiz-adv-x="244" 
d="M14 586l70 140h77l69 -140h-82l-27 65l-26 -65h-81z" />
    <glyph glyph-name="caron" unicode="&#x2c7;" horiz-adv-x="244" 
d="M84 586l-70 140h83l26 -65l27 65h80l-69 -140h-77z" />
    <glyph glyph-name="breve" unicode="&#x2d8;" horiz-adv-x="263" 
d="M131 586q-49 0 -79.5 32t-30.5 100h69q3 -69 43 -69q39 0 41 69h68q0 -69 -31.5 -100.5t-79.5 -31.5z" />
    <glyph glyph-name="dotaccent" unicode="&#x2d9;" horiz-adv-x="238" 
d="M79 587v137h79v-137h-79z" />
    <glyph glyph-name="ring" unicode="&#x2da;" horiz-adv-x="204" 
d="M102 585q-36 0 -58.5 22.5t-22.5 57.5t23 58.5t60 23.5q35 0 57 -23t22 -58t-23.5 -58t-57.5 -23zM103 627q35 0 35 40t-35 40q-34 0 -34 -41q0 -17 9.5 -28t24.5 -11z" />
    <glyph glyph-name="ogonek" unicode="&#x2db;" horiz-adv-x="202" 
d="M113 -176q-39 0 -62.5 22.5t-23.5 60.5q0 83 80 123l35 -28q-44 -26 -44 -67q0 -16 9.5 -26.5t26.5 -10.5q14 0 34 11l23 -65q-35 -20 -78 -20z" />
    <glyph glyph-name="tilde" unicode="&#x2dc;" horiz-adv-x="280" 
d="M76 594l-54 17q18 96 70 96q17 0 46 -11.5t41 -11.5q11 0 16 5t11 22l52 -14q-7 -42 -26.5 -70.5t-48.5 -28.5q-13 0 -45 11.5t-37 11.5q-7 0 -10 -1t-7.5 -7t-7.5 -19z" />
    <glyph glyph-name="hungarumlaut" unicode="&#x2dd;" horiz-adv-x="309" 
d="M34 589l43 135h88l-57 -135h-74zM152 589l43 135h88l-57 -135h-74z" />
    <glyph glyph-name="pi" unicode="&#x3c0;" horiz-adv-x="333" 
d="M265 -5q-79 0 -79 92v351h-37q-2 -290 -12 -438h-107q15 206 20 438h-36l7 100h299v-100l-35 1v-317q0 -21 15 -21q4 0 15 3v-99q-23 -10 -50 -10z" />
    <glyph glyph-name="Wgrave" unicode="&#x1e80;" horiz-adv-x="486" 
d="M93 -2l-83 715h110l34 -426h3l38 426h113l37 -423h3l34 423h94l-81 -715h-102l-42 456h-4l-43 -456h-111zM208 757l-83 140h107l48 -140h-72z" />
    <glyph glyph-name="wgrave" unicode="&#x1e81;" horiz-adv-x="412" 
d="M82 -1l-78 539h110l24 -285h3l26 285h90l24 -285h3l27 285h97l-79 -539h-85l-34 296h-4l-33 -296h-91zM172 586l-83 140h107l48 -140h-72z" />
    <glyph glyph-name="Wacute" unicode="&#x1e82;" horiz-adv-x="486" 
d="M202 757l49 140h106l-82 -140h-73zM93 -2l-83 715h110l34 -426h3l38 426h113l37 -423h3l34 423h94l-81 -715h-102l-42 456h-4l-43 -456h-111z" />
    <glyph glyph-name="wacute" unicode="&#x1e83;" horiz-adv-x="412" 
d="M178 586l49 140h106l-82 -140h-73zM82 -1l-78 539h110l24 -285h3l26 285h90l24 -285h3l27 285h97l-79 -539h-85l-34 296h-4l-33 -296h-91z" />
    <glyph glyph-name="Wdieresis" unicode="&#x1e84;" horiz-adv-x="486" 
d="M142 758v137h83v-137h-83zM259 758v137h83v-137h-83zM93 -2l-83 715h110l34 -426h3l38 426h113l37 -423h3l34 423h94l-81 -715h-102l-42 456h-4l-43 -456h-111z" />
    <glyph glyph-name="wdieresis" unicode="&#x1e85;" horiz-adv-x="412" 
d="M105 587v137h83v-137h-83zM222 587v137h83v-137h-83zM82 -1l-78 539h110l24 -285h3l26 285h90l24 -285h3l27 285h97l-79 -539h-85l-34 296h-4l-33 -296h-91z" />
    <glyph glyph-name="Ygrave" unicode="&#x1ef2;" horiz-adv-x="319" 
d="M104 0v279l-99 434h119l41 -256l40 256h109l-98 -435v-278h-112zM127 756l-83 140h107l48 -140h-72z" />
    <glyph glyph-name="ygrave" unicode="&#x1ef3;" horiz-adv-x="271" 
d="M70 -167q-21 0 -41 4v80q14 -2 29 -2q25 0 29 28l6 36l-90 559h105l33 -337h2l30 337h95l-86 -574q-24 -131 -112 -131zM108 586l-83 140h107l48 -140h-72z" />
    <glyph glyph-name="endash" unicode="&#x2013;" horiz-adv-x="275" 
d="M0 265v77h275v-77h-275z" />
    <glyph glyph-name="emdash" unicode="&#x2014;" horiz-adv-x="490" 
d="M0 265v77h490v-77h-490z" />
    <glyph glyph-name="quoteleft" unicode="&#x2018;" horiz-adv-x="149" 
d="M25 463v129l37 124h56l-25 -118h31v-135h-99z" />
    <glyph glyph-name="quoteright" unicode="&#x2019;" horiz-adv-x="149" 
d="M31 462l25 119h-31v134h99v-129l-37 -124h-56z" />
    <glyph glyph-name="quotesinglbase" unicode="&#x201a;" horiz-adv-x="149" 
d="M31 -111l25 118h-31v135h99v-129l-37 -124h-56z" />
    <glyph glyph-name="quotedblleft" unicode="&#x201c;" horiz-adv-x="288" 
d="M25 463v129l37 124h56l-25 -118h31v-135h-99zM163 463v129l38 124h56l-25 -118h31v-135h-100z" />
    <glyph glyph-name="quotedblright" unicode="&#x201d;" horiz-adv-x="288" 
d="M31 462l25 119h-31v134h99v-129l-37 -124h-56zM169 462l26 119h-31v134h99v-129l-38 -124h-56z" />
    <glyph glyph-name="quotedblbase" unicode="&#x201e;" horiz-adv-x="288" 
d="M31 -111l25 118h-31v135h99v-129l-37 -124h-56zM169 -111l26 118h-31v135h99v-129l-38 -124h-56z" />
    <glyph glyph-name="dagger" unicode="&#x2020;" horiz-adv-x="287" 
d="M97 -99v558h-77v90h77v164h95v-164h76v-90h-76v-558h-95z" />
    <glyph glyph-name="daggerdbl" unicode="&#x2021;" horiz-adv-x="287" 
d="M97 -99v164h-77v93h77v301h-77v90h77v164h95v-164h76v-90h-76v-301h76v-93h-76v-164h-95z" />
    <glyph glyph-name="bullet" unicode="&#x2022;" horiz-adv-x="329" 
d="M165 232q-51 0 -86.5 35.5t-35.5 87.5q0 51 35.5 86.5t86.5 35.5q50 0 85.5 -35.5t35.5 -86.5t-35 -87t-86 -36z" />
    <glyph glyph-name="ellipsis" unicode="&#x2026;" horiz-adv-x="444" 
d="M25 0v142h99v-142h-99zM173 0v142h99v-142h-99zM321 0v142h99v-142h-99z" />
    <glyph glyph-name="perthousand" unicode="&#x2030;" horiz-adv-x="697" 
d="M581 -12q-43 0 -68.5 24t-25.5 65v172q0 45 24.5 72t69.5 27q44 0 68.5 -25.5t24.5 -68.5v-177q0 -38 -25.5 -63.5t-67.5 -25.5zM581 51q22 0 22 30v175q0 27 -22 27t-22 -27v-175q0 -29 22 -30zM117 366q-43 0 -68.5 25t-25.5 65v173q0 45 24.5 71t69.5 26
q44 0 68.5 -25.5t24.5 -67.5v-177q0 -38 -26 -64t-67 -26zM116 431q23 0 23 28v176q0 28 -23 28q-22 0 -22 -28v-176q0 -28 22 -28zM362 -12q-43 0 -68 24t-25 65v172q0 45 24.5 72t68.5 27t68.5 -25.5t24.5 -68.5v-177q0 -38 -25.5 -63.5t-67.5 -25.5zM362 51q22 0 22 30
v175q0 27 -22 27t-22 -27v-175q0 -29 22 -30zM106 -2l217 722h53l-215 -722h-55z" />
    <glyph glyph-name="guilsinglleft" unicode="&#x2039;" horiz-adv-x="187" 
d="M113 137l-97 139l96 141l56 -37l-52 -104l55 -104z" />
    <glyph glyph-name="guilsinglright" unicode="&#x203a;" horiz-adv-x="187" 
d="M75 137l-56 37l52 104l-55 104l58 35l97 -139z" />
    <glyph glyph-name="fraction" unicode="&#x2044;" horiz-adv-x="66" 
d="M-104 0l222 713h52l-220 -713h-54z" />
    <glyph glyph-name="uni2070" unicode="&#x2070;" 
d="M110 371q-41 0 -65 21t-24 58v253q0 36 25.5 57t63.5 21t63.5 -20t25.5 -56v-255q0 -36 -24.5 -57.5t-64.5 -21.5zM110 433q13 0 13 14v256q0 15 -13 15t-13 -14v-257q0 -14 13 -14z" />
    <glyph glyph-name="uni2074" unicode="&#x2074;" 
d="M117 380v88h-105v58l81 255h75l-86 -248h35v61l66 54v-115h24v-65h-24v-88h-66z" />
    <glyph glyph-name="uni2075" unicode="&#x2075;" 
d="M110 370q-42 0 -65.5 22t-23.5 63v48h76v-49q0 -21 13 -21t13 21v96q0 20 -13 20t-16 -16l-69 4l6 220h155v-72h-89q0 -2 -1.5 -49t-1.5 -48q15 17 41 17q64 0 64 -72v-94q0 -45 -24.5 -67.5t-64.5 -22.5z" />
    <glyph glyph-name="uni2076" unicode="&#x2076;" 
d="M110 371q-42 0 -65.5 21.5t-23.5 60.5v245q0 38 25 60.5t65 22.5q39 0 62.5 -21t23.5 -58v-41h-74v38q0 19 -13 19q-12 0 -12 -18v-97q16 18 40 18q61 0 61 -66v-102q0 -38 -24.5 -60t-64.5 -22zM110 433q13 0 13 15v106q0 14 -13 14q-12 0 -12 -13v-108q0 -14 12 -14z
" />
    <glyph glyph-name="uni2077" unicode="&#x2077;" 
d="M50 380q1 178 70 326h-102v72h185v-59q-74 -153 -74 -339h-79z" />
    <glyph glyph-name="uni2078" unicode="&#x2078;" horiz-adv-x="221" 
d="M110 370q-41 0 -65 21t-24 64v66q0 39 24 59q-20 17 -20 52v64q0 41 23.5 64t62.5 23q38 0 61.5 -22.5t23.5 -63.5v-62q0 -37 -22 -56q26 -19 26 -54v-69q0 -41 -25 -63.5t-65 -22.5zM111 433q14 0 14 16v82q0 18 -14 18q-15 0 -15 -17v-82q0 -17 15 -17zM111 611
q14 0 14 19v73q0 16 -14 16q-15 0 -15 -15v-75q0 -18 15 -18z" />
    <glyph glyph-name="uni2079" unicode="&#x2079;" 
d="M110 371q-40 0 -63.5 21t-23.5 59v41h74v-39q0 -19 13 -19t13 19v96q-18 -18 -41 -18q-61 0 -61 67v101q0 38 24.5 60t64.5 22q42 0 65.5 -21t23.5 -60v-244q0 -39 -24.5 -62t-64.5 -23zM110 584q11 0 13 14v107q0 14 -13 14t-13 -15v-105q0 -15 13 -15z" />
    <glyph glyph-name="uni207D" unicode="&#x207d;" horiz-adv-x="132" 
d="M84 306q-26 48 -42.5 117t-16.5 137q0 147 59 249l43 -2q-21 -74 -28.5 -124t-7.5 -123q0 -124 36 -252z" />
    <glyph glyph-name="uni207E" unicode="&#x207e;" horiz-adv-x="132" 
d="M48 306l-43 2q37 125 37 252q0 74 -8 124t-29 123l43 2q60 -104 60 -249q0 -68 -16.5 -137.5t-43.5 -116.5z" />
    <glyph glyph-name="uni2080" unicode="&#x2080;" 
d="M110 -142q-41 0 -65 21t-24 58v253q0 36 25.5 57t63.5 21t63.5 -20t25.5 -56v-255q0 -36 -24.5 -57.5t-64.5 -21.5zM110 -80q13 0 13 14v256q0 15 -13 15t-13 -14v-257q0 -14 13 -14z" />
    <glyph glyph-name="uni2081" unicode="&#x2081;" horiz-adv-x="192" 
d="M64 -133v323l-22 -8l-13 56l60 31h50v-402h-75z" />
    <glyph glyph-name="uni2082" unicode="&#x2082;" 
d="M25 -133v48l66 126q31 65 31 118v8q0 30 -14 30t-14 -27v-32h-72v32q0 45 22.5 71t66.5 26q90 0 90 -103q0 -30 -11 -65t-19 -52.5t-28 -56.5l-29 -55h86v-68h-175z" />
    <glyph glyph-name="uni2083" unicode="&#x2083;" horiz-adv-x="223" 
d="M111 -143q-90 0 -90 100v32h74v-38q0 -28 14 -28q15 0 15 52q0 54 -26 54h-28v69h30q23 0 23 52q0 48 -16 48q-12 0 -12 -32v-28h-72v28q0 101 89 101q39 0 62.5 -27t23.5 -80q0 -72 -39 -94v-2q43 -18 43 -92q0 -60 -26 -87.5t-65 -27.5z" />
    <glyph glyph-name="uni2084" unicode="&#x2084;" 
d="M117 -133v88h-105v58l81 255h75l-86 -248h35v61l66 54v-115h24v-65h-24v-88h-66z" />
    <glyph glyph-name="uni2085" unicode="&#x2085;" 
d="M110 -143q-42 0 -65.5 22t-23.5 63v48h76v-49q0 -21 13 -21t13 21v96q0 20 -13 20t-16 -16l-69 4l6 220h155v-72h-89q0 -2 -1.5 -49t-1.5 -48q15 17 41 17q64 0 64 -72v-94q0 -45 -24.5 -67.5t-64.5 -22.5z" />
    <glyph glyph-name="uni2086" unicode="&#x2086;" 
d="M110 -142q-42 0 -65.5 21.5t-23.5 60.5v245q0 38 25 60.5t65 22.5q39 0 62.5 -21t23.5 -58v-41h-74v38q0 19 -13 19q-12 0 -12 -18v-97q16 18 40 18q61 0 61 -66v-102q0 -38 -24.5 -60t-64.5 -22zM110 -80q13 0 13 15v106q0 14 -13 14q-12 0 -12 -13v-108q0 -14 12 -14z
" />
    <glyph glyph-name="uni2087" unicode="&#x2087;" 
d="M50 -133q1 178 70 326h-102v72h185v-59q-74 -153 -74 -339h-79z" />
    <glyph glyph-name="uni2088" unicode="&#x2088;" horiz-adv-x="221" 
d="M110 -143q-41 0 -65 21t-24 64v66q0 40 24 59q-20 17 -20 52v64q0 41 23.5 64t62.5 23q38 0 61.5 -22.5t23.5 -63.5v-62q0 -37 -22 -56q26 -20 26 -54v-69q0 -41 -25 -63.5t-65 -22.5zM111 -80q14 0 14 16v82q0 18 -14 18q-15 0 -15 -17v-82q0 -17 15 -17zM111 98
q14 0 14 19v73q0 16 -14 16q-15 0 -15 -15v-75q0 -18 15 -18z" />
    <glyph glyph-name="uni2089" unicode="&#x2089;" 
d="M110 -142q-40 0 -63.5 21t-23.5 59v41h74v-39q0 -19 13 -19t13 19v96q-18 -18 -41 -18q-61 0 -61 67v101q0 38 24.5 60t64.5 22q42 0 65.5 -21t23.5 -60v-244q0 -39 -24.5 -62t-64.5 -23zM110 71q11 0 13 14v107q0 14 -13 14t-13 -15v-105q0 -15 13 -15z" />
    <glyph glyph-name="uni208D" unicode="&#x208d;" horiz-adv-x="132" 
d="M84 -207q-26 48 -42.5 117t-16.5 137q0 147 59 249l43 -2q-21 -74 -28.5 -124t-7.5 -123q0 -124 36 -252z" />
    <glyph glyph-name="uni208E" unicode="&#x208e;" horiz-adv-x="132" 
d="M48 -207l-43 2q37 125 37 252q0 74 -8 124t-29 123l43 2q60 -104 60 -249q0 -68 -16.5 -137.5t-43.5 -116.5z" />
    <glyph glyph-name="uni20AA" unicode="&#x20aa;" horiz-adv-x="420" 
d="M26 0v705h138q64 0 92 -29t28 -119v-435h-66v441q0 49 -29 49h-89v-612h-74zM126 0v583h65v-489h89q30 0 30 48v563h84v-542q0 -91 -29 -127t-91 -36h-148z" />
    <glyph glyph-name="Euro" unicode="&#x20ac;" horiz-adv-x="339" 
d="M190 -10q-68 0 -104.5 36.5t-36.5 100.5v131h-30v70h30v66h-30v71h30v120q0 63 39.5 101t104.5 38q62 0 94.5 -36t32.5 -98v-71h-102v60q0 38 -28 38t-28 -36v-116h95v-71h-95v-66h95v-70h-95v-121q0 -39 28 -39t28 39v57h102v-61q0 -64 -33 -103.5t-97 -39.5z" />
    <glyph glyph-name="trademark" unicode="&#x2122;" horiz-adv-x="396" 
d="M178 415v298h79l21 -129l21 129h75v-298h-54v198l-21 -117h-45l-24 117v-198h-52zM57 415v246h-43v52h145v-52h-42v-246h-60z" />
    <glyph glyph-name="Omega" unicode="&#x2126;" horiz-adv-x="332" 
d="M25 0v103l84 -2v6q-25 19 -40.5 38t-30.5 67.5t-15 116.5v237q0 79 39.5 118t103.5 39t103 -37.5t39 -113.5v-243q0 -156 -85 -222v-6l84 2v-103h-133v103q21 78 21 238v237q0 37 -30 37q-29 0 -29 -37v-239q0 -134 22 -236v-103h-133z" />
    <glyph glyph-name="uni2153" unicode="&#x2153;" horiz-adv-x="504" 
d="M71 316v323l-22 -8l-13 56l60 31h50v-402h-75zM89 0l222 713h52l-220 -713h-54zM375 -10q-90 0 -90 100v32h74v-38q0 -28 14 -28q15 0 15 52q0 54 -26 54h-28v69h30q23 0 23 52q0 48 -16 48q-12 0 -12 -32v-28h-72v28q0 101 89 101q39 0 62.5 -27t23.5 -80q0 -72 -39 -94
v-2q43 -18 43 -92q0 -60 -26 -87.5t-65 -27.5z" />
    <glyph glyph-name="uni2154" unicode="&#x2154;" horiz-adv-x="504" 
d="M1 316v48l66 126q31 65 31 118v8q0 30 -14 30t-14 -27v-32h-72v32q0 45 22.5 71t66.5 26q90 0 90 -103q0 -30 -11 -65t-19 -52.5t-28 -56.5l-29 -55h86v-68h-175zM101 0l222 713h52l-220 -713h-54zM375 -10q-90 0 -90 100v32h74v-38q0 -28 14 -28q15 0 15 52q0 54 -26 54
h-28v69h30q23 0 23 52q0 48 -16 48q-12 0 -12 -32v-28h-72v28q0 101 89 101q39 0 62.5 -27t23.5 -80q0 -72 -39 -94v-2q43 -18 43 -92q0 -60 -26 -87.5t-65 -27.5z" />
    <glyph glyph-name="uni2155" unicode="&#x2155;" horiz-adv-x="504" 
d="M71 316v323l-22 -8l-13 56l60 31h50v-402h-75zM378 -10q-42 0 -65.5 22t-23.5 63v48h76v-49q0 -21 13 -21t13 21v96q0 20 -13 20t-16 -16l-69 4l6 220h155v-72h-89q0 -2 -1.5 -49t-1.5 -48q15 17 41 17q64 0 64 -72v-94q0 -45 -24.5 -67.5t-64.5 -22.5zM98 0l222 713h52
l-220 -713h-54z" />
    <glyph glyph-name="uni2156" unicode="&#x2156;" horiz-adv-x="504" 
d="M1 316v48l66 126q31 65 31 118v8q0 30 -14 30t-14 -27v-32h-72v32q0 45 22.5 71t66.5 26q90 0 90 -103q0 -30 -11 -65t-19 -52.5t-28 -56.5l-29 -55h86v-68h-175zM378 -10q-42 0 -65.5 22t-23.5 63v48h76v-49q0 -21 13 -21t13 21v96q0 20 -13 20t-16 -16l-69 4l6 220h155
v-72h-89q0 -2 -1.5 -49t-1.5 -48q15 17 41 17q64 0 64 -72v-94q0 -45 -24.5 -67.5t-64.5 -22.5zM99 0l222 713h52l-220 -713h-54z" />
    <glyph glyph-name="uni2157" unicode="&#x2157;" horiz-adv-x="504" 
d="M87 306q-90 0 -90 100v32h74v-38q0 -28 14 -28q15 0 15 52q0 54 -26 54h-28v69h30q23 0 23 52q0 48 -16 48q-12 0 -12 -32v-28h-72v28q0 101 89 101q39 0 62.5 -27t23.5 -80q0 -72 -39 -94v-2q43 -18 43 -92q0 -60 -26 -87.5t-65 -27.5zM95 0l222 713h52l-220 -713h-54z
M378 -10q-42 0 -65.5 22t-23.5 63v48h76v-49q0 -21 13 -21t13 21v96q0 20 -13 20t-16 -16l-69 4l6 220h155v-72h-89q0 -2 -1.5 -49t-1.5 -48q15 17 41 17q64 0 64 -72v-94q0 -45 -24.5 -67.5t-64.5 -22.5z" />
    <glyph glyph-name="uni2158" unicode="&#x2158;" horiz-adv-x="504" 
d="M93 316v88h-105v58l81 255h75l-86 -248h35v61l66 54v-115h24v-65h-24v-88h-66zM378 -10q-42 0 -65.5 22t-23.5 63v48h76v-49q0 -21 13 -21t13 21v96q0 20 -13 20t-16 -16l-69 4l6 220h155v-72h-89q0 -2 -1.5 -49t-1.5 -48q15 17 41 17q64 0 64 -72v-94q0 -45 -24.5 -67.5
t-64.5 -22.5zM95 0l222 713h52l-220 -713h-54z" />
    <glyph glyph-name="uni2159" unicode="&#x2159;" horiz-adv-x="504" 
d="M71 316v323l-22 -8l-13 56l60 31h50v-402h-75zM378 -9q-42 0 -65.5 21.5t-23.5 60.5v245q0 38 25 60.5t65 22.5q39 0 62.5 -21t23.5 -58v-41h-74v38q0 19 -13 19q-12 0 -12 -18v-97q16 18 40 18q61 0 61 -66v-102q0 -38 -24.5 -60t-64.5 -22zM378 53q13 0 13 15v106
q0 14 -13 14q-12 0 -12 -13v-108q0 -14 12 -14zM95 0l222 713h52l-220 -713h-54z" />
    <glyph glyph-name="uni215A" unicode="&#x215a;" horiz-adv-x="504" 
d="M378 -9q-42 0 -65.5 21.5t-23.5 60.5v245q0 38 25 60.5t65 22.5q39 0 62.5 -21t23.5 -58v-41h-74v38q0 19 -13 19q-12 0 -12 -18v-97q16 18 40 18q61 0 61 -66v-102q0 -38 -24.5 -60t-64.5 -22zM378 53q13 0 13 15v106q0 14 -13 14q-12 0 -12 -13v-108q0 -14 12 -14z
M86 306q-42 0 -65.5 22t-23.5 63v48h76v-49q0 -21 13 -21t13 21v96q0 20 -13 20t-16 -16l-69 4l6 220h155v-72h-89q0 -2 -1.5 -49t-1.5 -48q15 17 41 17q64 0 64 -72v-94q0 -45 -24.5 -67.5t-64.5 -22.5zM95 0l222 713h52l-220 -713h-54z" />
    <glyph glyph-name="uni215B" unicode="&#x215b;" horiz-adv-x="504" 
d="M71 316v323l-22 -8l-13 56l60 31h50v-402h-75zM378 -10q-41 0 -65 21t-24 64v66q0 39 24 59q-20 17 -20 52v64q0 41 23.5 64t62.5 23q38 0 61.5 -22.5t23.5 -63.5v-62q0 -37 -22 -56q26 -20 26 -54v-69q0 -41 -25 -63.5t-65 -22.5zM379 53q14 0 14 16v82q0 18 -14 18
q-15 0 -15 -17v-82q0 -17 15 -17zM379 231q14 0 14 19v73q0 16 -14 16q-15 0 -15 -15v-75q0 -18 15 -18zM98 0l222 713h52l-220 -713h-54z" />
    <glyph glyph-name="uni215C" unicode="&#x215c;" horiz-adv-x="504" 
d="M378 -10q-41 0 -65 21t-24 64v66q0 39 24 59q-20 17 -20 52v64q0 41 23.5 64t62.5 23q38 0 61.5 -22.5t23.5 -63.5v-62q0 -37 -22 -56q26 -20 26 -54v-69q0 -41 -25 -63.5t-65 -22.5zM379 53q14 0 14 16v82q0 18 -14 18q-15 0 -15 -17v-82q0 -17 15 -17zM379 231
q14 0 14 19v73q0 16 -14 16q-15 0 -15 -15v-75q0 -18 15 -18zM87 306q-90 0 -90 100v32h74v-38q0 -28 14 -28q15 0 15 52q0 54 -26 54h-28v69h30q23 0 23 52q0 48 -16 48q-12 0 -12 -32v-28h-72v28q0 101 89 101q39 0 62.5 -27t23.5 -80q0 -72 -39 -94v-2q43 -18 43 -92
q0 -60 -26 -87.5t-65 -27.5zM95 0l222 713h52l-220 -713h-54z" />
    <glyph glyph-name="uni215D" unicode="&#x215d;" horiz-adv-x="504" 
d="M378 -10q-41 0 -65 21t-24 64v66q0 39 24 59q-20 17 -20 52v64q0 41 23.5 64t62.5 23q38 0 61.5 -22.5t23.5 -63.5v-62q0 -37 -22 -56q26 -20 26 -54v-69q0 -41 -25 -63.5t-65 -22.5zM379 53q14 0 14 16v82q0 18 -14 18q-15 0 -15 -17v-82q0 -17 15 -17zM379 231
q14 0 14 19v73q0 16 -14 16q-15 0 -15 -15v-75q0 -18 15 -18zM86 306q-42 0 -65.5 22t-23.5 63v48h76v-49q0 -21 13 -21t13 21v96q0 20 -13 20t-16 -16l-69 4l6 220h155v-72h-89q0 -2 -1.5 -49t-1.5 -48q15 17 41 17q64 0 64 -72v-94q0 -45 -24.5 -67.5t-64.5 -22.5zM95 0
l222 713h52l-220 -713h-54z" />
    <glyph glyph-name="uni215E" unicode="&#x215e;" horiz-adv-x="504" 
d="M378 -10q-41 0 -65 21t-24 64v66q0 39 24 59q-20 17 -20 52v64q0 41 23.5 64t62.5 23q38 0 61.5 -22.5t23.5 -63.5v-62q0 -37 -22 -56q26 -20 26 -54v-69q0 -41 -25 -63.5t-65 -22.5zM379 53q14 0 14 16v82q0 18 -14 18q-15 0 -15 -17v-82q0 -17 15 -17zM379 231
q14 0 14 19v73q0 16 -14 16q-15 0 -15 -15v-75q0 -18 15 -18zM44 316q1 178 70 326h-102v72h185v-59q-74 -153 -74 -339h-79zM88 0l222 713h52l-220 -713h-54z" />
    <glyph glyph-name="arrowleft" unicode="&#x2190;" horiz-adv-x="302" 
d="M146 213l-126 134v7l126 134l44 -44l-63 -60h144v-67h-144l62 -63z" />
    <glyph glyph-name="arrowup" unicode="&#x2191;" horiz-adv-x="302" 
d="M112 225v144l-60 -63l-44 44l134 126h7l134 -126l-41 -43l-63 62v-144h-67z" />
    <glyph glyph-name="arrowright" unicode="&#x2192;" horiz-adv-x="302" 
d="M145 213l-43 41l62 63h-144v67h144l-63 60l44 44l126 -134v-7z" />
    <glyph glyph-name="arrowdown" unicode="&#x2193;" horiz-adv-x="302" 
d="M142 225l-134 126l44 44l60 -63v144h67v-144l63 62l41 -43l-134 -126h-7z" />
    <glyph glyph-name="uni2196" unicode="&#x2196;" horiz-adv-x="302" 
d="M211 238l-102 102l3 -87l-63 1l5 183l5 5l183 5l2 -59l-87 -1l102 -102z" />
    <glyph glyph-name="uni2197" unicode="&#x2197;" horiz-adv-x="302" 
d="M96 238l-47 47l102 102l-87 1l1 59l184 -5l5 -5l5 -183l-63 -1l2 87z" />
    <glyph glyph-name="uni2198" unicode="&#x2198;" horiz-adv-x="302" 
d="M65 238l-1 59l87 1l-102 102l47 47l102 -102l-2 87l63 -1l-5 -183l-5 -5z" />
    <glyph glyph-name="uni2199" unicode="&#x2199;" horiz-adv-x="302" 
d="M242 238l-183 5l-5 5l-5 183l63 1l-3 -87l102 102l48 -47l-102 -102l87 -1z" />
    <glyph glyph-name="partialdiff" unicode="&#x2202;" horiz-adv-x="293" 
d="M146 -9q-61 0 -93 33t-32 92v310q0 48 26 79t70 40l-83 168h114l103 -215q21 -42 21 -93v-289q0 -60 -33.5 -92.5t-92.5 -32.5zM146 83q22 0 22 26v318q0 26 -22 26t-22 -24v-320q0 -26 22 -26z" />
    <glyph glyph-name="Delta" unicode="&#x2206;" horiz-adv-x="356" 
d="M20 0v99l79 615h158l80 -614v-100h-317zM126 103h94l-46 460h-3z" />
    <glyph glyph-name="product" unicode="&#x220f;" horiz-adv-x="373" 
d="M49 -133v744h-33v102h341v-102h-31v-744h-111v744h-55v-744h-111z" />
    <glyph glyph-name="summation" unicode="&#x2211;" horiz-adv-x="272" 
d="M22 -133v96l98 337l-100 325v88h232v-103h-110l89 -290v-35l-95 -315h116v-103h-230z" />
    <glyph glyph-name="minus" unicode="&#x2212;" horiz-adv-x="300" 
d="M32 278v81h235v-81h-235z" />
    <glyph glyph-name="radical" unicode="&#x221a;" horiz-adv-x="304" 
d="M84 -2l-79 540h108l27 -331h3l56 507h100l-108 -716h-107z" />
    <glyph glyph-name="infinity" unicode="&#x221e;" horiz-adv-x="431" 
d="M313 215q-59 0 -102 56q-48 -53 -97 -53q-46 0 -74 29.5t-28 76.5q0 48 29.5 78.5t74.5 30.5q59 0 102 -54q49 51 99 51q43 0 72.5 -27t29.5 -74q0 -51 -29.5 -82.5t-76.5 -31.5zM115 276q31 0 69 49q-30 52 -63 52q-17 0 -29.5 -14t-12.5 -34q0 -22 10 -37.5t26 -15.5z
M308 273q19 0 31.5 15t12.5 37q0 49 -38 49q-20 0 -67 -51q33 -50 61 -50z" />
    <glyph glyph-name="integral" unicode="&#x222b;" horiz-adv-x="243" 
d="M43 -151q-24 0 -45 6l6 89q9 -3 17 -3q16 0 17 31l47 656q3 39 30 69t77 30q34 0 52 -5l-7 -87h-29q-20 0 -21 -24l-47 -657q-7 -105 -97 -105z" />
    <glyph glyph-name="approxequal" unicode="&#x2248;" horiz-adv-x="300" 
d="M82 176l-51 8q13 109 70 109q17 0 49.5 -11t45.5 -11q10 0 15 7t10 25l48 -9q-4 -46 -20 -77.5t-48 -31.5q-15 0 -50.5 12.5t-42.5 12.5q-17 0 -26 -34zM82 331l-51 8q13 109 70 109q17 0 49.5 -11t45.5 -11q10 0 15 7t10 25l48 -9q-4 -46 -20 -77.5t-48 -31.5
q-15 0 -50.5 12.5t-42.5 12.5q-17 0 -26 -34z" />
    <glyph glyph-name="notequal" unicode="&#x2260;" horiz-adv-x="300" 
d="M140 117l-60 12l17 71h-72v82h93l15 62h-108v81h128l18 72l60 -13l-14 -59h58v-81h-78l-16 -62h94v-82h-115z" />
    <glyph glyph-name="lessequal" unicode="&#x2264;" horiz-adv-x="300" 
d="M236 177l-207 117v61l207 116l35 -72l-136 -75l136 -75zM25 56v82h250v-82h-250z" />
    <glyph glyph-name="greaterequal" unicode="&#x2265;" horiz-adv-x="300" 
d="M63 177l-34 72l136 75l-136 75l34 72l207 -116v-61zM25 56v82h250v-82h-250z" />
    <glyph glyph-name="blacksquare" unicode="&#x25a0;" horiz-adv-x="366" 
d="M38 0v713h289l1 -713h-290z" />
    <glyph glyph-name="whitesquare" unicode="&#x25a1;" horiz-adv-x="362" 
d="M38 0v713h285q0 -31 0.5 -356.5t0.5 -356.5h-286zM102 63h158l-1 588h-157v-588z" />
    <glyph glyph-name="blacksmallsquare" unicode="&#x25aa;" horiz-adv-x="358" 
d="M38 0v546h281l1 -546h-282z" />
    <glyph glyph-name="triagup" unicode="&#x25b2;" horiz-adv-x="302" 
d="M28 235v6l118 243h6l122 -243v-6h-246z" />
    <glyph glyph-name="triagrt" unicode="&#x25ba;" horiz-adv-x="302" 
d="M40 236h-6v246h6l243 -122v-6z" />
    <glyph glyph-name="triagdn" unicode="&#x25bc;" horiz-adv-x="302" 
d="M150 235l-122 243v6h246v-6l-118 -243h-6z" />
    <glyph glyph-name="triaglf" unicode="&#x25c4;" horiz-adv-x="302" 
d="M268 236h-6l-243 118v6l243 122h6v-246z" />
    <glyph glyph-name="lozenge" unicode="&#x25ca;" horiz-adv-x="321" 
d="M128 -5l-112 339v19l112 360h64l114 -360v-19l-114 -339h-64zM163 152l54 188l-59 206l-52 -197z" />
    <glyph glyph-name="uni25E2" unicode="&#x25e2;" horiz-adv-x="302" 
d="M287 262l-270 34l-5 3l136 201h6l136 -233z" />
    <glyph glyph-name="uni25E3" unicode="&#x25e3;" horiz-adv-x="302" 
d="M15 262l-3 5l136 233h6l136 -201l-5 -3z" />
    <glyph glyph-name="uni25E4" unicode="&#x25e4;" horiz-adv-x="302" 
d="M154 262h-6l-136 233l3 5l270 -34l5 -3z" />
    <glyph glyph-name="uni25E5" unicode="&#x25e5;" horiz-adv-x="302" 
d="M154 262h-6l-136 201l5 3l270 34l3 -5z" />
    <glyph glyph-name="I.alt" unicode="&#xe131;" horiz-adv-x="210" 
d="M14 0v104h35v505h-35v104h182v-104h-36v-505h36v-104h-182z" />
    <glyph glyph-name="I.alt" unicode="&#xe488;" horiz-adv-x="210" 
d="M14 0v104h35v505h-35v104h182v-104h-36v-505h36v-104h-182z" />
    <glyph glyph-name="Igrave.alt" unicode="&#xe132;" horiz-adv-x="210" 
d="M14 0v104h35v505h-35v104h182v-104h-36v-505h36v-104h-182zM77 756l-83 140h107l48 -140h-72z" />
    <glyph glyph-name="Iacute.alt" unicode="&#xe133;" horiz-adv-x="210" 
d="M14 0v104h35v505h-35v104h182v-104h-36v-505h36v-104h-182zM69 756l49 140h106l-82 -140h-73z" />
    <glyph glyph-name="Icircumflex.alt" unicode="&#xe134;" horiz-adv-x="210" 
d="M14 0v104h35v505h-35v104h182v-104h-36v-505h36v-104h-182zM-3 756l70 140h77l69 -140h-82l-27 65l-26 -65h-81z" />
    <glyph glyph-name="Idieresis.alt" unicode="&#xe135;" horiz-adv-x="210" 
d="M14 0v104h35v505h-35v104h182v-104h-36v-505h36v-104h-182zM5 757v137h83v-137h-83zM122 757v137h83v-137h-83z" />
    <glyph glyph-name="Itilde.alt" unicode="&#xe136;" horiz-adv-x="210" 
d="M14 0v104h35v505h-35v104h182v-104h-36v-505h36v-104h-182zM41 764l-54 17q18 96 70 96q17 0 46 -11.5t41 -11.5q10 0 15.5 5t11.5 22l52 -14q-7 -42 -26.5 -70.5t-48.5 -28.5q-13 0 -45 11.5t-37 11.5q-7 0 -10 -1t-7.5 -7t-7.5 -19z" />
    <glyph glyph-name="Imacron.alt" unicode="&#xe138;" horiz-adv-x="210" 
d="M14 0v104h35v505h-35v104h182v-104h-36v-505h36v-104h-182zM13 771v83h184v-83h-184z" />
    <glyph glyph-name="Ibreve.alt" unicode="&#xe139;" horiz-adv-x="210" 
d="M14 0v104h35v505h-35v104h182v-104h-36v-505h36v-104h-182zM105 756q-49 0 -79.5 32t-30.5 100h69q3 -69 43 -69q39 0 41 69h68q0 -69 -31.5 -100.5t-79.5 -31.5z" />
    <glyph glyph-name="Idotaccent.alt" unicode="&#xe13c;" horiz-adv-x="210" 
d="M14 0v104h35v505h-35v104h182v-104h-36v-505h36v-104h-182zM66 757v137h79v-137h-79z" />
    <glyph glyph-name="Iogonek.alt" unicode="&#xe13e;" horiz-adv-x="210" 
d="M14 0v104h35v505h-35v104h182v-104h-36v-505h36v-104h-40q-41 -25 -41 -65q0 -16 9.5 -26.5t26.5 -10.5q14 0 34 11l23 -65q-35 -20 -78 -20q-39 0 -62.5 22.5t-23.5 60.5q0 56 37 93h-67z" />
    <glyph glyph-name="zero.dnom" unicode="&#xe402;" 
d="M110 -9q-41 0 -65 21t-24 58v253q0 36 25.5 57t63.5 21t63.5 -20t25.5 -56v-255q0 -36 -24.5 -57.5t-64.5 -21.5zM110 53q13 0 13 14v256q0 15 -13 15t-13 -14v-257q0 -14 13 -14z" />
    <glyph glyph-name="one.dnom" unicode="&#xe403;" horiz-adv-x="192" 
d="M64 0v323l-22 -8l-13 56l60 31h50v-402h-75z" />
    <glyph glyph-name="two.dnom" unicode="&#xe404;" 
d="M25 0v48l66 126q31 65 31 118v8q0 30 -14 30t-14 -27v-32h-72v32q0 45 22.5 71t66.5 26q90 0 90 -103q0 -30 -11 -65t-19 -52.5t-28 -56.5l-29 -55h86v-68h-175z" />
    <glyph glyph-name="three.dnom" unicode="&#xe405;" horiz-adv-x="223" 
d="M111 -10q-90 0 -90 100v32h74v-38q0 -28 14 -28q15 0 15 52q0 54 -26 54h-28v69h30q23 0 23 52q0 48 -16 48q-12 0 -12 -32v-28h-72v28q0 101 89 101q39 0 62.5 -27t23.5 -80q0 -72 -39 -94v-2q43 -18 43 -92q0 -60 -26 -87.5t-65 -27.5z" />
    <glyph glyph-name="four.dnom" unicode="&#xe406;" 
d="M117 0v88h-105v58l81 255h75l-86 -248h35v61l66 54v-115h24v-65h-24v-88h-66z" />
    <glyph glyph-name="five.dnom" unicode="&#xe407;" 
d="M110 -10q-42 0 -65.5 22t-23.5 63v48h76v-49q0 -21 13 -21t13 21v96q0 20 -13 20t-16 -16l-69 4l6 220h155v-72h-89q0 -2 -1.5 -49t-1.5 -48q15 17 41 17q64 0 64 -72v-94q0 -45 -24.5 -67.5t-64.5 -22.5z" />
    <glyph glyph-name="six.dnom" unicode="&#xe408;" 
d="M110 -9q-42 0 -65.5 21.5t-23.5 60.5v245q0 38 25 60.5t65 22.5q39 0 62.5 -21t23.5 -58v-41h-74v38q0 19 -13 19q-12 0 -12 -18v-97q16 18 40 18q61 0 61 -66v-102q0 -38 -24.5 -60t-64.5 -22zM110 53q13 0 13 15v106q0 14 -13 14q-12 0 -12 -13v-108q0 -14 12 -14z" />
    <glyph glyph-name="seven.dnom" unicode="&#xe409;" 
d="M50 0q1 178 70 326h-102v72h185v-59q-74 -153 -74 -339h-79z" />
    <glyph glyph-name="eight.dnom" unicode="&#xe40a;" horiz-adv-x="221" 
d="M110 -10q-41 0 -65 21t-24 64v66q0 39 24 59q-20 17 -20 52v64q0 41 23.5 64t62.5 23q38 0 61.5 -22.5t23.5 -63.5v-62q0 -37 -22 -56q26 -19 26 -54v-69q0 -41 -25 -63.5t-65 -22.5zM111 53q14 0 14 16v82q0 18 -14 18q-15 0 -15 -17v-82q0 -17 15 -17zM111 231
q14 0 14 19v73q0 16 -14 16q-15 0 -15 -15v-75q0 -18 15 -18z" />
    <glyph glyph-name="nine.dnom" unicode="&#xe40b;" 
d="M110 -9q-40 0 -63.5 21t-23.5 59v41h74v-39q0 -19 13 -19t13 19v96q-18 -18 -41 -18q-61 0 -61 67v101q0 38 24.5 60t64.5 22q42 0 65.5 -21t23.5 -60v-244q0 -39 -24.5 -62t-64.5 -23zM110 204q11 0 13 14v107q0 14 -13 14t-13 -15v-105q0 -15 13 -15z" />
    <glyph glyph-name="comma.dnom" unicode="&#xe40d;" horiz-adv-x="137" 
d="M37 -86l19 86h-23v90h72v-86l-27 -90h-41z" />
    <glyph glyph-name="period.dnom" unicode="&#xe40e;" horiz-adv-x="137" 
d="M33 0v90h72v-90h-72z" />
    <glyph glyph-name="parenleft.dnom" unicode="&#xe40f;" horiz-adv-x="132" 
d="M84 -74q-26 48 -42.5 117t-16.5 137q0 147 59 249l43 -2q-21 -74 -28.5 -124t-7.5 -123q0 -124 36 -252z" />
    <glyph glyph-name="parenright.dnom" unicode="&#xe410;" horiz-adv-x="132" 
d="M48 -74l-43 2q37 125 37 252q0 74 -8 124t-29 123l43 2q60 -104 60 -249q0 -68 -16.5 -137.5t-43.5 -116.5z" />
    <glyph glyph-name="caronSlovak" unicode="&#xe413;" horiz-adv-x="174" 
d="M40 540l5 173h89l-27 -173h-67z" />
    <glyph glyph-name="commaaccent" unicode="&#xe414;" horiz-adv-x="146" 
d="M28 -174l5 147h87l-26 -147h-66z" />
    <glyph glyph-name="commaaccent" unicode="&#xf6c3;" horiz-adv-x="146" 
d="M28 -174l5 147h87l-26 -147h-66z" />
    <glyph glyph-name="zero.numr" unicode="&#xe416;" 
d="M110 309q-41 0 -65 21t-24 58v253q0 36 25.5 57t63.5 21t63.5 -20t25.5 -56v-255q0 -36 -24.5 -57.5t-64.5 -21.5zM110 371q13 0 13 14v256q0 15 -13 15t-13 -14v-257q0 -14 13 -14z" />
    <glyph glyph-name="one.numr" unicode="&#xe417;" horiz-adv-x="192" 
d="M64 318v323l-22 -8l-13 56l60 31h50v-402h-75z" />
    <glyph glyph-name="two.numr" unicode="&#xe418;" 
d="M25 318v48l66 126q31 65 31 118v8q0 30 -14 30t-14 -27v-32h-72v32q0 45 22.5 71t66.5 26q90 0 90 -103q0 -30 -11 -65t-19 -52.5t-28 -56.5l-29 -55h86v-68h-175z" />
    <glyph glyph-name="three.numr" unicode="&#xe419;" horiz-adv-x="223" 
d="M111 308q-90 0 -90 100v32h74v-38q0 -28 14 -28q15 0 15 52q0 54 -26 54h-28v69h30q23 0 23 52q0 48 -16 48q-12 0 -12 -32v-28h-72v28q0 101 89 101q39 0 62.5 -27t23.5 -80q0 -72 -39 -94v-2q43 -18 43 -92q0 -60 -26 -87.5t-65 -27.5z" />
    <glyph glyph-name="four.numr" unicode="&#xe41a;" 
d="M117 318v88h-105v58l81 255h75l-86 -248h35v61l66 54v-115h24v-65h-24v-88h-66z" />
    <glyph glyph-name="five.numr" unicode="&#xe41b;" 
d="M110 308q-42 0 -65.5 22t-23.5 63v48h76v-49q0 -21 13 -21t13 21v96q0 20 -13 20t-16 -16l-69 4l6 220h155v-72h-89q0 -2 -1.5 -49t-1.5 -48q15 17 41 17q64 0 64 -72v-94q0 -45 -24.5 -67.5t-64.5 -22.5z" />
    <glyph glyph-name="six.numr" unicode="&#xe41c;" 
d="M110 309q-42 0 -65.5 21.5t-23.5 60.5v245q0 38 25 60.5t65 22.5q39 0 62.5 -21t23.5 -58v-41h-74v38q0 19 -13 19q-12 0 -12 -18v-97q16 18 40 18q61 0 61 -66v-102q0 -38 -24.5 -60t-64.5 -22zM110 371q13 0 13 15v106q0 14 -13 14q-12 0 -12 -13v-108q0 -14 12 -14z
" />
    <glyph glyph-name="seven.numr" unicode="&#xe41d;" 
d="M50 318q1 178 70 326h-102v72h185v-59q-74 -153 -74 -339h-79z" />
    <glyph glyph-name="eight.numr" unicode="&#xe41e;" horiz-adv-x="221" 
d="M110 308q-41 0 -65 21t-24 64v66q0 39 24 59q-20 17 -20 52v64q0 41 23.5 64t62.5 23q38 0 61.5 -22.5t23.5 -63.5v-62q0 -37 -22 -56q26 -20 26 -54v-69q0 -41 -25 -63.5t-65 -22.5zM111 371q14 0 14 16v82q0 18 -14 18q-15 0 -15 -17v-82q0 -17 15 -17zM111 549
q14 0 14 19v73q0 16 -14 16q-15 0 -15 -15v-75q0 -18 15 -18z" />
    <glyph glyph-name="nine.numr" unicode="&#xe41f;" 
d="M110 309q-40 0 -63.5 21t-23.5 59v41h74v-39q0 -19 13 -19t13 19v96q-18 -18 -41 -18q-61 0 -61 67v101q0 38 24.5 60t64.5 22q42 0 65.5 -21t23.5 -60v-244q0 -39 -24.5 -62t-64.5 -23zM110 522q11 0 13 14v107q0 14 -13 14t-13 -15v-105q0 -15 13 -15z" />
    <glyph glyph-name="comma.numr" unicode="&#xe421;" horiz-adv-x="137" 
d="M37 232l19 86h-23v90h72v-86l-27 -90h-41z" />
    <glyph glyph-name="period.numr" unicode="&#xe422;" horiz-adv-x="137" 
d="M33 318v90h72v-90h-72z" />
    <glyph glyph-name="parenleft.numr" unicode="&#xe423;" horiz-adv-x="132" 
d="M84 244q-26 48 -42.5 117t-16.5 137q0 147 59 249l43 -2q-21 -74 -28.5 -124t-7.5 -123q0 -124 36 -252z" />
    <glyph glyph-name="parenright.numr" unicode="&#xe424;" horiz-adv-x="132" 
d="M48 244l-43 2q37 125 37 252q0 74 -8 124t-29 123l43 2q60 -104 60 -249q0 -68 -16.5 -137.5t-43.5 -116.5z" />
    <glyph glyph-name="numbersign.LP" unicode="&#xe533;" horiz-adv-x="300" 
d="M45 -2l11 195h-43l4 68h44l14 204h-43l2 70h44l14 182h63l-14 -182h41l14 182h63l-13 -182h44l-3 -70h-45l-14 -204h44l-4 -68h-44l-13 -195h-64l14 195h-40l-13 -195h-63zM125 261h41l13 204h-42z" />
    <glyph glyph-name="zero.LT" unicode="&#xe53f;" horiz-adv-x="300" 
d="M149 -9q-60 0 -92.5 33.5t-32.5 91.5v484q0 56 36 89.5t91 33.5q54 0 89.5 -32.5t35.5 -86.5v-487q0 -60 -33.5 -93t-93.5 -33zM149 83q24 0 24 26v493q0 25 -23 25q-22 0 -22 -24v-494q0 -26 21 -26z" />
    <glyph glyph-name="one.LT" unicode="&#xe541;" horiz-adv-x="300" 
d="M98 0v595l-30 -13l-19 82l84 50h68v-714h-103z" />
    <glyph glyph-name="two.LT" unicode="&#xe542;" horiz-adv-x="300" 
d="M27 0v77l93 236q45 122 45 225v34q0 53 -23 53t-23 -47v-67h-93v63q0 65 29 107t90 42q59 0 91 -42.5t32 -121.5q0 -146 -72 -321l-59 -137v-2h134v-99h-244z" />
    <glyph glyph-name="three.LT" unicode="&#xe543;" horiz-adv-x="300" 
d="M147 -9q-39 0 -64.5 14t-37.5 39.5t-16.5 50.5t-4.5 58v49h99v-67q0 -52 22 -52q14 0 20.5 23.5t6.5 89.5q0 63 -10 85.5t-38 22.5h-40v112h50q22 0 28.5 21.5t6.5 89.5q0 100 -26 100q-20 0 -20 -56v-60h-98v50q0 77 32 119.5t96 42.5q50 0 84.5 -44t34.5 -136
q0 -150 -72 -178v-4q76 -33 76 -166q0 -204 -129 -204z" />
    <glyph glyph-name="four.LT" unicode="&#xe544;" horiz-adv-x="300" 
d="M163 0v173h-147v84l112 456h106l-123 -446h52v117l88 79v-196h33v-94h-33v-173h-88z" />
    <glyph glyph-name="five.LT" unicode="&#xe545;" horiz-adv-x="300" 
d="M151 -10q-63 0 -94.5 36.5t-31.5 102.5v87h99v-87q0 -45 24 -45q23 0 23 47v194q0 43 -25 43q-20 0 -31 -35l-85 2l11 378h225v-96h-138q0 -24 -2.5 -95t-2.5 -94q25 28 63 28q89 0 89 -116v-204q0 -71 -33 -108.5t-91 -37.5z" />
    <glyph glyph-name="six.LT" unicode="&#xe546;" horiz-adv-x="300" 
d="M150 -9q-65 0 -95.5 37t-30.5 98v462q0 65 34.5 100.5t94.5 35.5q56 0 87 -35t31 -91v-87h-100v82q0 35 -20 35q-24 0 -24 -35v-183q27 24 57 24q91 0 91 -101v-208q0 -58 -32 -96t-93 -38zM150 83q21 0 21 37v206q0 27 -21 27t-23 -27v-210q0 -33 23 -33z" />
    <glyph glyph-name="seven.LT" unicode="&#xe547;" horiz-adv-x="300" 
d="M68 0q0 329 96 612h-133v101h238v-87q-95 -274 -97 -626h-104z" />
    <glyph glyph-name="eight.LT" unicode="&#xe548;" horiz-adv-x="300" 
d="M149 -9q-55 0 -90 32t-35 92v157q0 63 39 92q-35 27 -35 83v148q0 60 33 94.5t90 34.5q54 0 87.5 -32.5t33.5 -92.5v-144q0 -62 -39 -91q43 -28 43 -87v-158q0 -62 -35.5 -95t-91.5 -33zM151 84q23 0 23 30v179q0 32 -23 32t-23 -31v-180q0 -30 23 -30zM151 409
q23 0 23 32v159q0 28 -23 28q-22 0 -22 -27v-159q0 -33 22 -33z" />
    <glyph glyph-name="nine.LT" unicode="&#xe549;" horiz-adv-x="300" 
d="M146 -8q-55 0 -86.5 36.5t-31.5 95.5v78h100v-77q0 -37 20 -37q24 0 24 36v179q-27 -24 -57 -24q-90 0 -90 101v212q0 58 31 94t93 36q66 0 96 -37t30 -98v-446q0 -69 -34.5 -109t-94.5 -40zM149 360q21 0 23 27v210q0 33 -23 33q-21 0 -21 -36v-207q0 -27 21 -27z" />
    <glyph glyph-name="apple" unicode="&#xf8ff;" horiz-adv-x="1300" 
d="M815 -221l-198 5l-24 -4l-8 9q48 12 52 14q61 17 71 72q9 65 18 264l-126 -3l2 14l125 6q7 105 14 265l49 28q-70 4 -228 8q-1 -36 -5 -100t-4 -67q-4 -72 -25 -131.5t-49 -96t-61.5 -61.5t-62 -35t-51.5 -10q-36 0 -100 18t-93 33l30 45q2 0 43.5 -16t87.5 -29t72 -12
q62 1 112.5 76.5t46.5 163.5q6 149 7 223q-13 0 -39 1t-40 1q-75 0 -136 -52.5t-61 -125.5q23 -49 99 -81q0 -6 -8 -23t-13 -22q-85 35 -94 117q0 88 70.5 150.5t183.5 80.5h39q1 46 4 116.5t3 84.5l52 21q-245 10 -313 10q-76 0 -137.5 -51t-61.5 -124q25 -46 101 -76
q0 -5 -27 -45q-88 36 -95 116q0 84 73 144t169 82q65 0 135.5 -2.5t159 -6t145.5 -5.5q20 0 80 -2q6 0 26.5 -0.5t25.5 -0.5q16 -1 42 3q19 14 28 33l11 -3q-12 -26 -31 -41q-73 -35 -146 -35q-58 0 -180 4q-2 -14 -4 -82t-5 -81l-2 -60q11 0 208.5 -8.5t299.5 -8.5
q0 -1 38 -1.5t88 4t74 15.5l6 -7q-126 -52 -288 -52q-98 0 -190 4q-3 -24 -9 -121t-7 -105q0 -8 -1.5 -30t-1.5 -34l189 12h5l6 -3l-45 -63l-9 5l29 42q-55 -4 -176 -12q-11 -175 -17 -232q-2 -21 -25 -51.5t-46 -39.5l1 -1q38 6 113 7t100 3v-1q0 -13 -11 -27t-25 -15
q-14 -4 -55 -4z" />
    <glyph glyph-name="CR" horiz-adv-x="0" 
 />
    <glyph glyph-name="commatop" horiz-adv-x="183" 
d="M48 587v63l30 92h49l-15 -72h30v-83h-94z" />
    <glyph glyph-name="ringacute" horiz-adv-x="205" 
d="M102 585q-35 0 -58 23t-23 56q0 16 8 38l45 98h97l-54 -59q29 -4 48 -26t19 -50q0 -34 -23.5 -57t-58.5 -23zM103 627q35 0 35 40t-35 40q-34 0 -34 -41q0 -17 9.5 -28t24.5 -11z" />
    <glyph glyph-name="altogonek" horiz-adv-x="213" 
d="M122 -174q-36 0 -60.5 19t-24.5 62q0 40 24.5 73t58.5 47l29 -25q-44 -25 -44 -65q0 -36 32 -36q6 0 26 5l16 -69q-24 -11 -57 -11z" />
    <glyph glyph-name="period.sub" horiz-adv-x="137" 
d="M33 -133v90h72v-90h-72z" />
    <glyph glyph-name="comma.sub" horiz-adv-x="137" 
d="M37 -219l19 86h-23v90h72v-86l-27 -90h-41z" />
    <glyph glyph-name="period.sup" horiz-adv-x="137" 
d="M33 380v90h72v-90h-72z" />
    <glyph glyph-name="comma.sup" horiz-adv-x="137" 
d="M37 294l19 86h-23v90h72v-86l-27 -90h-41z" />
    <glyph glyph-name="ogonekplus" horiz-adv-x="202" 
d="M112 -176q-38 0 -61.5 22.5t-23.5 60.5q0 76 90 121l21 -21q-40 -24 -40 -72q0 -16 9.5 -26.5t26.5 -10.5q14 0 34 11l23 -66q-38 -19 -79 -19z" />
    <glyph glyph-name="IJ.alt" horiz-adv-x="508" 
d="M14 0v104h35v505h-35v104h182v-104h-36v-505h36v-104h-182zM346 -10q-65 0 -98 40.5t-33 109.5v115h105v-121q0 -39 28 -39q27 0 27 41v577h111v-574q0 -71 -37 -110t-103 -39z" />
    <glyph glyph-name="idotaccent" horiz-adv-x="149" 
d="M23 0v538h103v-538h-103zM23 586v127h103v-127h-103z" />
    </font>
</defs>
</svg>
