<?xml version="1.0" standalone="no"?>
<!DOCTYPE svg PUBLIC "-//W3C//DTD SVG 1.1//EN" "http://www.w3.org/Graphics/SVG/1.1/DTD/svg11.dtd" >
<svg xmlns="http://www.w3.org/2000/svg" xmlns:xlink="http://www.w3.org/1999/xlink" version="1.1">
<metadata>
Created by FontForge 20161013 at Fri Apr 11 05:21:37 2008
 By ,,,
Copyright (c) 2008 by Mrio Feliciano. All rights reserved.
</metadata>
<defs>
<font id="FlamaSemicondensed-Black" horiz-adv-x="360" >
  <font-face 
    font-family="Flama Semicondensed Black"
    font-weight="850"
    font-stretch="normal"
    units-per-em="1000"
    panose-1="2 0 0 0 0 0 0 0 0 0"
    ascent="800"
    descent="-200"
    x-height="540"
    cap-height="713"
    bbox="-184 -225 1176 1020"
    underline-thickness="50"
    underline-position="-200"
    unicode-range="U+0020-F8FF"
  />
<missing-glyph horiz-adv-x="822" 
d="M235 118l-40 40l185 185l-185 185l40 40l185 -185l185 185l40 -40l-185 -185l185 -185l-40 -40l-185 185zM55 -18v716h712v-716h-712zM115 42h592v596h-592v-596z" />
    <glyph glyph-name="fi" unicode="fi" horiz-adv-x="684" 
d="M96 0v377h-61v154h61v54q0 75 50 113.5t120 38.5q72 0 115 -14v-134q-30 5 -56 5q-39 0 -39 -25v-38h74v-154h-74v-377h-190zM445 0v540h191v-540h-191zM445 590v161h191v-161h-191z" />
    <glyph glyph-name="fl" unicode="fl" horiz-adv-x="725" 
d="M96 0v377h-61v154h61v54q0 75 50 113.5t120 38.5q72 0 115 -14v-134q-30 5 -56 5q-39 0 -39 -25v-38h74v-154h-74v-377h-190zM598 -11q-74 0 -115.5 35t-41.5 100v589h192v-528q0 -17 6.5 -25t27.5 -8q15 0 34 3v-149q-53 -17 -103 -17z" />
    <glyph glyph-name=".notdef" horiz-adv-x="822" 
d="M235 118l-40 40l185 185l-185 185l40 40l185 -185l185 185l40 -40l-185 -185l185 -185l-40 -40l-185 185zM55 -18v716h712v-716h-712zM115 42h592v596h-592v-596z" />
    <glyph glyph-name=".null" horiz-adv-x="0" 
 />
    <glyph glyph-name="nonmarkingreturn" horiz-adv-x="333" 
 />
    <glyph glyph-name="space" unicode=" " horiz-adv-x="180" 
 />
    <glyph glyph-name="exclam" unicode="!" horiz-adv-x="290" 
d="M88 233l-36 222v258h186v-258l-35 -222h-115zM57 0v187h176v-187h-176z" />
    <glyph glyph-name="quotedbl" unicode="&#x22;" horiz-adv-x="481" 
d="M78 389l-23 177v147h156v-147l-23 -177h-110zM293 389l-23 177v147h156v-147l-22 -177h-111z" />
    <glyph glyph-name="numbersign" unicode="#" horiz-adv-x="570" 
d="M100 -1l21 169h-103l15 107h100l24 179h-106l14 105h102l20 156h95l-17 -156h97l19 156h95l-19 -156h100l-12 -105h-100l-22 -179h103l-12 -107h-105l-20 -169h-95l19 169h-97l-22 -169h-94zM229 275h97l24 179h-99z" />
    <glyph glyph-name="dollar" unicode="$" horiz-adv-x="543" 
d="M202 -40v63q-122 18 -190 98l103 115q29 -29 75.5 -53.5t84.5 -24.5q63 0 63 39q0 6 -2 12t-7.5 10.5t-10 8t-12.5 7.5t-13 6l-15 6t-13 5l-100 40q-60 24 -96 70t-36 111q0 74 46 125t123 70v68h143v-64q100 -16 162 -76l-98 -115q-78 57 -129 57q-55 0 -55 -36
q0 -14 12 -25t23 -16t39 -16l83 -33q68 -26 102.5 -74t34.5 -111q0 -80 -50 -131.5t-124 -68.5v-67h-143z" />
    <glyph glyph-name="percent" unicode="%" horiz-adv-x="811" 
d="M193 316q-61 0 -108 34.5t-47 98.5v143q0 63 45 98t107 35t108.5 -35.5t46.5 -100.5v-140q0 -60 -47 -96.5t-105 -36.5zM192 412q31 0 31 30v161q0 11 -9 19t-23 8q-15 0 -23.5 -8t-8.5 -19v-163q0 -12 8.5 -20t24.5 -8zM183 -2l355 720h95l-355 -720h-95zM621 -11
q-61 0 -108 35t-47 98v137q0 64 46 101.5t107 37.5q62 0 108 -35.5t46 -100.5v-136q0 -61 -47.5 -99t-104.5 -38zM620 85q16 0 23.5 9t7.5 21v161q0 11 -8.5 19t-22.5 8q-15 0 -23.5 -8t-8.5 -19v-163q0 -28 32 -28z" />
    <glyph glyph-name="ampersand" unicode="&#x26;" horiz-adv-x="721" 
d="M250 -16q-96 0 -154 52t-58 151q0 73 41.5 126.5t105.5 81.5q-56 72 -56 140q0 81 55 135.5t164 54.5q94 0 151.5 -45.5t57.5 -126.5q0 -63 -34.5 -110.5t-91.5 -75.5l73 -97q8 20 19 86l148 -19q-7 -56 -32 -113.5t-43 -76.5l111 -147h-225l-40 54q-77 -70 -192 -70z
M300 140q33 0 60 23l-99 131q-37 -30 -37 -74q0 -34 19.5 -57t56.5 -23zM352 474q20 7 32.5 28t12.5 48q0 20 -11.5 33t-29.5 13q-23 0 -34 -14.5t-11 -32.5q0 -28 41 -75z" />
    <glyph glyph-name="quotesingle" unicode="'" horiz-adv-x="266" 
d="M78 389l-23 177v147h156v-147l-23 -177h-110z" />
    <glyph glyph-name="parenleft" unicode="(" horiz-adv-x="315" 
d="M195 -176q-64 83 -104.5 206t-40.5 248q0 122 39.5 240t105.5 203l108 -2q-49 -131 -67.5 -221.5t-18.5 -219.5q0 -224 86 -452z" />
    <glyph glyph-name="parenright" unicode=")" horiz-adv-x="315" 
d="M120 -176l-108 2q86 228 86 452q0 129 -18.5 219.5t-67.5 221.5l108 2q66 -85 105.5 -203t39.5 -240q0 -125 -40.5 -248t-104.5 -206z" />
    <glyph glyph-name="asterisk" unicode="*" horiz-adv-x="458" 
d="M146 328l-84 53l80 115l-122 68l51 83l107 -58v124h102v-125l106 59l52 -83l-124 -68l82 -115l-85 -53l-82 115z" />
    <glyph glyph-name="plus" unicode="+" horiz-adv-x="540" 
d="M213 87v173h-163v114h163v173h114v-173h163v-114h-163v-173h-114z" />
    <glyph glyph-name="comma" unicode="," horiz-adv-x="264" 
d="M73 -137l35 148h-64v176h176v-165l-58 -159h-89z" />
    <glyph glyph-name="hyphen" unicode="-" horiz-adv-x="334" 
d="M36 240v136h262v-136h-262z" />
    <glyph glyph-name="period" unicode="." horiz-adv-x="264" 
d="M44 0v187h176v-187h-176z" />
    <glyph glyph-name="slash" unicode="/" horiz-adv-x="334" 
d="M-14 -179l210 897h119l-208 -897h-121z" />
    <glyph glyph-name="zero" unicode="0" horiz-adv-x="586" 
d="M295 -12q-49 0 -92.5 11.5t-81 35t-59.5 65.5t-22 98v315q0 73 38 122.5t92.5 69.5t121.5 20q104 0 179 -53.5t75 -162.5v-311q0 -54 -22 -96t-59 -66t-80 -36t-90 -12zM294 148q27 0 41 15.5t14 35.5v320q0 20 -15.5 32.5t-40.5 12.5t-40.5 -13t-15.5 -32v-322
q0 -20 15 -34.5t42 -14.5z" />
    <glyph glyph-name="one" unicode="1" horiz-adv-x="395" 
d="M117 0v535l-67 -12l-15 148l175 44h101v-715h-194z" />
    <glyph glyph-name="two" unicode="2" horiz-adv-x="557" 
d="M38 0v113l167 203q108 134 108 182v11q0 22 -11 38t-34 16q-49 0 -49 -61v-9h-190v28q0 98 69.5 151.5t184.5 53.5q120 0 177.5 -58.5t57.5 -151.5q0 -116 -170 -294l-43 -50v-3h210v-169h-477z" />
    <glyph glyph-name="three" unicode="3" horiz-adv-x="574" 
d="M290 -12q-119 0 -185.5 51.5t-66.5 147.5v29h190v-15q0 -28 15 -45t44 -17q56 0 56 70q0 28 -17 44.5t-34 20.5t-34 4h-58v155h52q39 0 58 12.5t19 55.5q0 28 -13.5 45t-37.5 17q-52 0 -52 -58v-12h-184v27q0 93 68 149t182 56q110 0 173.5 -51t63.5 -151
q0 -57 -31.5 -99.5t-82.5 -59.5v-5q60 -15 93.5 -57t33.5 -96q0 -108 -72.5 -163t-179.5 -55z" />
    <glyph glyph-name="four" unicode="4" horiz-adv-x="621" 
d="M339 0v132h-290v148l223 433h228l-257 -424h96v70l181 112v-182h52v-157h-52v-132h-181z" />
    <glyph glyph-name="five" unicode="5" horiz-adv-x="576" 
d="M285 -12q-109 0 -179 46.5t-70 130.5v51h192v-24q0 -22 14.5 -37.5t44.5 -15.5q28 0 42 17.5t14 44.5v71q0 23 -15 37t-41 14q-29 0 -53 -29l-185 25l23 394h429v-171h-267l-7 -124q21 23 59 36t77 13q73 0 122 -39t49 -124v-106q0 -102 -71.5 -156t-177.5 -54z" />
    <glyph glyph-name="six" unicode="6" horiz-adv-x="596" 
d="M294 -12q-109 0 -180 56t-71 165v289q0 111 74 169t185 58q109 0 178.5 -52.5t69.5 -139.5v-34h-199v24q0 50 -52 50q-26 0 -40.5 -15t-14.5 -39v-122q51 57 143 57q78 0 122 -46t44 -114v-112q0 -90 -75.5 -142t-183.5 -52zM299 145q26 0 43 16t17 37v78q0 24 -17 35.5
t-38 11.5q-23 0 -41.5 -13.5t-18.5 -45.5v-65q0 -23 15 -38.5t40 -15.5z" />
    <glyph glyph-name="seven" unicode="7" horiz-adv-x="560" 
d="M129 0q2 153 61.5 309t129.5 232h-287v172h495v-146q-183 -251 -182 -567h-217z" />
    <glyph glyph-name="eight" unicode="8" horiz-adv-x="590" 
d="M296 -12q-116 0 -186.5 45t-70.5 142v55q0 42 22.5 76t56.5 53q-30 15 -49.5 48t-19.5 66v60q0 89 70 140.5t174 51.5q106 0 176.5 -49.5t70.5 -140.5v-57q0 -38 -19 -70t-49 -50q32 -16 55.5 -49.5t23.5 -71.5v-67q0 -85 -73 -133.5t-182 -48.5zM295 140q57 0 57 46v61
q0 25 -16.5 37t-41.5 12q-23 0 -39 -11t-16 -30v-70q0 -21 15.5 -33t40.5 -12zM295 422q57 0 57 46v56q0 49 -58 49q-23 0 -39 -10.5t-16 -30.5v-66q0 -44 56 -44z" />
    <glyph glyph-name="nine" unicode="9" horiz-adv-x="592" 
d="M293 -11q-111 0 -178.5 48.5t-67.5 135.5v42h194v-25q0 -23 14.5 -36t37.5 -13q26 0 40.5 14.5t14.5 37.5v128q-52 -61 -134 -61q-81 0 -126 43t-45 124v91q0 98 70.5 152.5t177.5 54.5q114 0 186 -54.5t72 -150.5v-311q0 -100 -71.5 -160t-184.5 -60zM291 392
q22 0 39.5 14.5t17.5 47.5v66q0 22 -14.5 35.5t-40.5 13.5q-27 0 -42 -14t-15 -34v-81q0 -24 17 -36t38 -12z" />
    <glyph glyph-name="colon" unicode=":" horiz-adv-x="264" 
d="M44 0v187h176v-187h-176zM44 356v187h176v-187h-176z" />
    <glyph glyph-name="semicolon" unicode=";" horiz-adv-x="264" 
d="M73 -137l35 148h-64v176h176v-165l-58 -159h-89zM44 356v187h176v-187h-176z" />
    <glyph glyph-name="less" unicode="&#x3c;" horiz-adv-x="540" 
d="M436 92l-385 183v86l384 184l51 -103l-263 -124l265 -124z" />
    <glyph glyph-name="equal" unicode="=" horiz-adv-x="540" 
d="M50 153v115h440v-115h-440zM50 353v115h440v-115h-440z" />
    <glyph glyph-name="greater" unicode="&#x3e;" horiz-adv-x="540" 
d="M103 93l-51 102l264 124l-262 123l51 103l383 -184v-86z" />
    <glyph glyph-name="question" unicode="?" horiz-adv-x="518" 
d="M153 233v22q0 79 57 138q5 5 28 27t32 32.5t19 30t10 38.5q0 22 -13.5 35t-37.5 13q-50 0 -50 -53v-28h-162v32q0 93 64 148t160 55q109 0 169 -53t60 -146q0 -97 -86 -168q-5 -4 -24 -19t-28 -23.5t-18.5 -25t-9.5 -32.5v-23h-170zM145 0v187h191v-187h-191z" />
    <glyph glyph-name="at" unicode="@" horiz-adv-x="888" 
d="M481 -122q-146 0 -250 54q-191 98 -191 344q0 196 128.5 319t318.5 123q95 0 175.5 -36t133.5 -111.5t53 -178.5q0 -110 -68.5 -201t-163.5 -113h-155l10 53h-4q-57 -64 -129 -64q-56 0 -89 29t-33 87q0 19 3 37q4 23 13.5 77.5t15.5 85.5q11 65 59.5 104.5t112.5 39.5
q76 0 106 -44h1l5 35h158l-60 -362q56 25 94 88t38 142q0 132 -83 197t-205 65q-164 0 -255 -107.5t-91 -266.5q0 -213 172 -286q77 -33 177 -33q106 0 259 41l21 -66q-53 -24 -130 -38t-147 -14zM423 186q26 0 43 18t22 46l19 110q1 4 1 14q0 20 -13 32t-33 12
q-25 0 -40.5 -18.5t-19.5 -45.5l-17 -107q-2 -8 -2 -17q0 -44 40 -44z" />
    <glyph glyph-name="A" unicode="A" horiz-adv-x="691" 
d="M12 0l205 714h262l200 -714h-212l-30 120h-205l-30 -120h-190zM274 276h122l-60 238h-3z" />
    <glyph glyph-name="B" unicode="B" horiz-adv-x="650" 
d="M50 0v713h354q96 0 150 -49t54 -131q0 -61 -31.5 -106.5t-84.5 -62.5v-3q54 -15 87.5 -60.5t34.5 -103.5q0 -87 -55 -142t-150 -55h-359zM255 158h87q28 0 45 19t17 47t-18 44t-47 16h-84v-126zM255 432h84q31 0 47.5 19t16.5 49q0 26 -17 41.5t-45 15.5h-86v-125z" />
    <glyph glyph-name="C" unicode="C" horiz-adv-x="632" 
d="M326 -12q-57 0 -106.5 14t-90 42t-64 76.5t-23.5 112.5v243q0 116 83 182.5t200 66.5q120 0 195.5 -57.5t75.5 -169.5v-53h-190v42q0 34 -22.5 53t-54.5 19q-37 0 -58 -19.5t-21 -57.5v-247q0 -39 20 -60t59 -21q32 0 54.5 19t22.5 53v42h190v-54q0 -111 -74.5 -168.5
t-195.5 -57.5z" />
    <glyph glyph-name="D" unicode="D" horiz-adv-x="648" 
d="M50 0v713h289q118 0 192.5 -56t74.5 -167v-254q0 -119 -74.5 -177.5t-191.5 -58.5h-290zM256 164h65q38 0 57.5 23.5t19.5 55.5v228q0 35 -21.5 56t-59.5 21h-61v-384z" />
    <glyph glyph-name="E" unicode="E" horiz-adv-x="585" 
d="M50 0v713h494v-163h-288v-109h228v-163h-228v-114h289v-164h-495z" />
    <glyph glyph-name="F" unicode="F" horiz-adv-x="574" 
d="M50 0v713h494v-163h-288v-119h228v-164h-228v-267h-206z" />
    <glyph glyph-name="G" unicode="G" horiz-adv-x="638" 
d="M326 -12q-78 0 -140 23.5t-103 80.5t-41 141v252q0 116 82.5 178t200.5 62q52 0 98 -11t85.5 -34t63 -65t23.5 -98v-52h-190v22q0 34 -20.5 53t-51.5 19q-38 0 -60.5 -20.5t-22.5 -57.5v-246q0 -39 20.5 -62.5t58.5 -23.5q73 0 73 70v36h-97v142h290v-196
q0 -107 -78.5 -160t-190.5 -53z" />
    <glyph glyph-name="H" unicode="H" horiz-adv-x="664" 
d="M50 0v713h206v-264h152v264h206v-713h-206v269h-152v-269h-206z" />
    <glyph glyph-name="I" unicode="I" horiz-adv-x="306" 
d="M50 0v713h206v-713h-206z" />
    <glyph glyph-name="J" unicode="J" horiz-adv-x="609" 
d="M299 -12q-134 0 -203.5 54t-69.5 177v46h203v-40q0 -74 65 -74q32 0 46.5 20.5t14.5 50.5v491h206v-478q0 -117 -69.5 -182t-192.5 -65z" />
    <glyph glyph-name="K" unicode="K" horiz-adv-x="650" 
d="M50 0v713h206v-310l178 310h200l-169 -282l171 -431h-223l-103 279l-54 -77v-202h-206z" />
    <glyph glyph-name="L" unicode="L" horiz-adv-x="577" 
d="M50 0v713h206v-549h289v-164h-495z" />
    <glyph glyph-name="M" unicode="M" horiz-adv-x="790" 
d="M50 0v713h264l87 -278h3l87 278h249v-713h-180v445h-2l-95 -318h-134l-97 318h-3v-445h-179z" />
    <glyph glyph-name="N" unicode="N" horiz-adv-x="676" 
d="M50 0v713h202l187 -312h2v312h185v-713h-172l-217 356h-2v-356h-185z" />
    <glyph glyph-name="O" unicode="O" horiz-adv-x="658" 
d="M329 -12q-126 0 -206.5 61t-80.5 192v229q0 124 81.5 189.5t203.5 65.5q59 0 109 -14t91.5 -43t65 -79.5t23.5 -118.5v-228q0 -128 -83 -191t-204 -63zM330 155q36 0 57 22t21 60v240q0 39 -23 60t-57 21q-78 0 -78 -81v-237q0 -85 80 -85z" />
    <glyph glyph-name="P" unicode="P" horiz-adv-x="631" 
d="M50 0v713h311q114 0 173 -64t59 -167q0 -109 -57.5 -179t-175.5 -70h-104v-233h-206zM256 387h67q33 0 51 23.5t18 62.5q0 37 -17.5 59t-50.5 22h-68v-167z" />
    <glyph glyph-name="Q" unicode="Q" horiz-adv-x="658" 
d="M524 -122l-159 112q-24 -2 -36 -2q-126 0 -206.5 61t-80.5 192v229q0 124 81.5 189.5t203.5 65.5q59 0 109 -14t91.5 -43t65 -79.5t23.5 -118.5v-228q0 -98 -54 -162l91 -46zM330 155q36 0 57 22t21 60v240q0 39 -23 60t-57 21q-78 0 -78 -81v-237q0 -85 80 -85z" />
    <glyph glyph-name="R" unicode="R" horiz-adv-x="651" 
d="M50 0v713h312q121 0 184 -61t63 -163q0 -148 -109 -205l129 -284h-225l-90 247h-58v-247h-206zM256 391h80q34 0 52.5 21t18.5 61q0 37 -18 59t-52 22h-81v-163z" />
    <glyph glyph-name="S" unicode="S" horiz-adv-x="615" 
d="M294 -12q-180 0 -278 101l105 129q35 -30 81 -52t88 -22q30 0 50.5 13t20.5 35q0 21 -16.5 33t-48.5 24l-94 36q-152 59 -152 207q0 97 73 164.5t191 67.5q167 0 253 -82l-97 -131q-31 25 -74 44t-76 19t-52 -13.5t-19 -36.5q0 -10 5 -18t16 -14.5t21 -10.5t27 -10.5
t26 -10.5l78 -34q158 -69 158 -205q0 -78 -43.5 -132.5t-106 -77.5t-136.5 -23z" />
    <glyph glyph-name="T" unicode="T" horiz-adv-x="602" 
d="M197 0v550h-177v163h562v-163h-177v-550h-208z" />
    <glyph glyph-name="U" unicode="U" horiz-adv-x="656" 
d="M330 -12q-135 0 -209.5 61.5t-74.5 186.5v477h206v-471q0 -44 22.5 -67t59.5 -23q34 0 55.5 24t21.5 66v471h199v-463q0 -126 -75 -194t-205 -68z" />
    <glyph glyph-name="V" unicode="V" horiz-adv-x="630" 
d="M206 -1l-192 714h212l101 -438h4l96 438h189l-192 -714h-218z" />
    <glyph glyph-name="W" unicode="W" horiz-adv-x="902" 
d="M169 -1l-157 714h202l74 -373h3l78 373h187l72 -373h1l73 373h188l-157 -714h-194l-87 401h-5l-90 -401h-188z" />
    <glyph glyph-name="X" unicode="X" horiz-adv-x="647" 
d="M12 0l187 365l-175 348h222l89 -193l85 193h203l-176 -347l188 -366h-222l-99 209l-99 -209h-203z" />
    <glyph glyph-name="Y" unicode="Y" horiz-adv-x="635" 
d="M214 0v275l-206 438h218l106 -258l102 258h193l-206 -439v-274h-207z" />
    <glyph glyph-name="Z" unicode="Z" horiz-adv-x="593" 
d="M44 0v122l268 428h-268v163h509v-142l-254 -407h252v-164h-507z" />
    <glyph glyph-name="bracketleft" unicode="[" horiz-adv-x="311" 
d="M66 -176v889h212v-102h-59v-687h58v-100h-211z" />
    <glyph glyph-name="backslash" unicode="\" horiz-adv-x="334" 
d="M227 -179l-208 897h119l210 -897h-121z" />
    <glyph glyph-name="bracketright" unicode="]" horiz-adv-x="311" 
d="M34 -176v100h57v687h-58v102h212v-889h-211z" />
    <glyph glyph-name="asciicircum" unicode="^" horiz-adv-x="540" 
d="M90 133l121 475h128l111 -475h-114l-64 320l-68 -320h-114z" />
    <glyph glyph-name="underscore" unicode="_" horiz-adv-x="461" 
d="M0 -153v118h461v-118h-461z" />
    <glyph glyph-name="grave" unicode="`" horiz-adv-x="314" 
d="M149 593l-128 163h182l83 -163h-137z" />
    <glyph glyph-name="a" unicode="a" horiz-adv-x="565" 
d="M190 -11q-68 0 -111 39.5t-43 116.5q0 50 24 86.5t63 56.5t81 29t87 9h37v48q0 21 -14 34.5t-42 13.5q-53 0 -53 -53v-16h-170v25q0 80 68.5 127t170.5 47q99 0 165 -48.5t66 -140.5v-242q0 -24 2 -52.5t4 -47.5t2 -21h-177q-4 22 -9 81h-5q-15 -36 -44.5 -58t-54 -28
t-47.5 -6zM275 122q20 0 36.5 14t16.5 45v50h-30q-71 0 -71 -57q0 -23 13 -37.5t35 -14.5z" />
    <glyph glyph-name="b" unicode="b" horiz-adv-x="580" 
d="M369 -12q-45 0 -84 22t-54 62h-2l-5 -72h-176v713h191v-247h2q22 37 62.5 61.5t76.5 24.5q81 0 120.5 -47.5t39.5 -126.5v-212q0 -73 -48 -125.5t-123 -52.5zM297 126q52 0 52 54v171q0 55 -52 55q-24 0 -41 -19t-17 -59v-143q0 -32 18 -45.5t40 -13.5z" />
    <glyph glyph-name="c" unicode="c" horiz-adv-x="536" 
d="M280 -12q-100 0 -170 50t-70 152v148q0 104 71.5 159t168.5 55t159.5 -47.5t62.5 -130.5v-46h-168v34q0 50 -48 50q-53 0 -53 -56v-171q0 -59 53 -59q48 0 48 51v34h168v-51q0 -84 -62 -128t-160 -44z" />
    <glyph glyph-name="d" unicode="d" horiz-adv-x="580" 
d="M201 -12q-81 0 -121 50.5t-40 132.5v206q0 72 46.5 123.5t123.5 51.5q86 0 130 -67h1v228h191v-713h-183l-1 78h-4q-23 -38 -62 -64t-81 -26zM284 134q23 0 40 20t17 53v148q0 31 -17.5 45t-38.5 14q-54 0 -54 -55v-170q0 -28 15 -41.5t38 -13.5z" />
    <glyph glyph-name="e" unicode="e" horiz-adv-x="554" 
d="M288 -12q-104 0 -176 55.5t-72 159.5v125q0 110 70 167t171 57q104 0 170 -54.5t66 -151.5v-128h-285v-28q0 -58 85 -58q70 0 154 27l35 -124q-99 -47 -218 -47zM232 321h103v45q0 25 -14 39t-38 14q-23 0 -37 -14.5t-14 -38.5v-45z" />
    <glyph glyph-name="f" unicode="f" horiz-adv-x="397" 
d="M96 0v377h-61v154h61v54q0 75 50 113.5t120 38.5q72 0 115 -14v-134q-30 5 -56 5q-39 0 -39 -25v-38h74v-154h-74v-377h-190z" />
    <glyph glyph-name="g" unicode="g" horiz-adv-x="581" 
d="M264 -188q-111 0 -205 37l45 138q82 -28 150 -28q46 0 67 16.5t21 52.5v86h-2q-16 -41 -53 -68t-83 -27q-80 0 -122 49t-42 128v184q0 73 48.5 122.5t126.5 49.5q38 0 77 -22t58 -53h2l6 64h175v-486q0 -119 -70 -181t-199 -62zM285 160q24 0 40 15t16 48v131
q0 31 -17.5 45.5t-38.5 14.5q-27 0 -40.5 -13.5t-13.5 -46.5v-135q0 -35 14 -47t40 -12z" />
    <glyph glyph-name="h" unicode="h" horiz-adv-x="584" 
d="M48 0v713h191v-247h2q59 86 150 86q58 0 103.5 -40.5t45.5 -110.5v-401h-191v337q0 67 -56 67q-22 0 -38 -20t-16 -56v-328h-191z" />
    <glyph glyph-name="i" unicode="i" horiz-adv-x="287" 
d="M48 0v540h191v-540h-191zM48 590v161h191v-161h-191z" />
    <glyph glyph-name="j" unicode="j" horiz-adv-x="298" 
d="M83 -188q-43 0 -77 5v161q10 -2 27 -2q18 0 24 9t6 28v527h191v-563q0 -79 -49.5 -122t-121.5 -43zM63 590v161h191v-161h-191z" />
    <glyph glyph-name="k" unicode="k" horiz-adv-x="566" 
d="M48 0v713h191v-388l123 215h190l-119 -185l126 -355h-203l-70 221l-47 -73v-148h-191z" />
    <glyph glyph-name="l" unicode="l" horiz-adv-x="328" 
d="M201 -11q-74 0 -115.5 35t-41.5 100v589h192v-528q0 -17 6.5 -25t27.5 -8q14 0 34 3v-149q-53 -17 -103 -17z" />
    <glyph glyph-name="m" unicode="m" horiz-adv-x="886" 
d="M48 0v540h184v-78h2q62 90 157 90q44 0 83.5 -22.5t55.5 -64.5h3q63 87 160 87q57 0 103 -40.5t46 -110.5v-401h-191v337q0 67 -56 67q-23 0 -39 -20t-16 -56v-328h-191v337q0 67 -56 67q-22 0 -38 -20t-16 -56v-328h-191z" />
    <glyph glyph-name="n" unicode="n" horiz-adv-x="584" 
d="M48 0v540h185v-73h2q66 85 156 85q58 0 103.5 -40.5t45.5 -110.5v-401h-191v337q0 67 -56 67q-22 0 -38 -20t-16 -56v-328h-191z" />
    <glyph glyph-name="o" unicode="o" horiz-adv-x="568" 
d="M284 -12q-48 0 -89.5 10.5t-77 33t-56.5 63.5t-21 97v147q0 104 71 158.5t171 54.5q47 0 89 -11.5t78 -34.5t57.5 -65t21.5 -98v-150q0 -71 -37.5 -119t-90.5 -67t-116 -19zM285 128q50 0 50 56v168q0 26 -14.5 42.5t-36.5 16.5q-25 0 -38 -17t-13 -44v-168q0 -54 52 -54
z" />
    <glyph glyph-name="p" unicode="p" horiz-adv-x="580" 
d="M48 -176v716h187v-78h2q22 39 63.5 64.5t79.5 25.5q81 0 120.5 -47t39.5 -127v-212q0 -72 -49 -125t-128 -53q-34 0 -69.5 17.5t-52.5 49.5h-2v-231h-191zM295 126q54 0 54 55v170q0 28 -15 41.5t-37 13.5q-24 0 -41 -18.5t-17 -59.5v-143q0 -31 17.5 -45t38.5 -14z" />
    <glyph glyph-name="q" unicode="q" horiz-adv-x="577" 
d="M341 -176v253h-2q-15 -35 -57 -62t-79 -27q-81 0 -122 50t-41 130v201q0 79 45 131t124 52q41 0 79.5 -19t61.5 -56h2l6 64h175v-717h-192zM284 134q22 0 39.5 20t17.5 53v147q0 31 -17 45.5t-39 14.5q-54 0 -54 -55v-170q0 -28 15 -41.5t38 -13.5z" />
    <glyph glyph-name="r" unicode="r" horiz-adv-x="427" 
d="M48 0v540h188v-80h1q45 87 116 87q37 0 56 -6v-178q-29 3 -57 3q-113 0 -113 -71v-295h-191z" />
    <glyph glyph-name="s" unicode="s" horiz-adv-x="510" 
d="M247 -12q-135 0 -227 58l76 124q81 -52 144 -52q57 0 57 32q0 19 -58 36l-40 12q-150 45 -150 168q0 68 52.5 127t151.5 59q117 0 212 -64l-73 -116q-73 51 -131 51q-18 0 -31.5 -7.5t-13.5 -20.5q0 -15 10.5 -22t33.5 -15l66 -22q81 -27 116 -66.5t35 -97.5
q0 -84 -64.5 -134t-165.5 -50z" />
    <glyph glyph-name="t" unicode="t" horiz-adv-x="422" 
d="M254 -10q-69 0 -115 33.5t-46 111.5v242h-65v154h65v140h192v-140h105v-154h-105v-187q0 -37 38 -37q26 0 49 4v-151q-55 -16 -118 -16z" />
    <glyph glyph-name="u" unicode="u" horiz-adv-x="584" 
d="M193 -12q-58 0 -103.5 40.5t-45.5 110.5v401h191v-337q0 -68 56 -68q22 0 38 20.5t16 55.5v329h191v-540h-177l-6 82h-2q-27 -41 -69.5 -67.5t-88.5 -26.5z" />
    <glyph glyph-name="v" unicode="v" horiz-adv-x="527" 
d="M176 -1l-170 541h204l67 -281h2l70 281h172l-164 -541h-181z" />
    <glyph glyph-name="w" unicode="w" horiz-adv-x="777" 
d="M148 -1l-138 541h195l45 -258h5l54 258h179l53 -258h5l48 258h170l-138 -541h-169l-66 300h-3l-67 -300h-173z" />
    <glyph glyph-name="x" unicode="x" horiz-adv-x="532" 
d="M0 0l153 275l-146 265h209l66 -129l58 129h183l-144 -261l153 -279h-210l-72 144l-72 -144h-178z" />
    <glyph glyph-name="y" unicode="y" horiz-adv-x="533" 
d="M157 -188q-53 0 -107 14l26 153q46 -11 81 -11q22 0 32 31l4 16l-193 525h203l85 -270h3l70 270h172l-171 -549q-30 -92 -77 -135.5t-128 -43.5z" />
    <glyph glyph-name="z" unicode="z" horiz-adv-x="504" 
d="M35 0v120l190 271h-182v149h425v-124l-186 -266h186v-150h-433z" />
    <glyph glyph-name="braceleft" unicode="{" horiz-adv-x="321" 
d="M189 -176q-49 0 -78 30.5t-29 91.5v218q0 37 -8 51t-34 17v109q29 6 35.5 15t6.5 37v197q0 62 29 92.5t78 30.5h103v-104h-35q-22 0 -22 -22v-177q0 -51 -10 -76.5t-43 -38.5v-6q36 -14 44.5 -35t8.5 -78v-227q0 -22 22 -22h35v-103h-103z" />
    <glyph glyph-name="bar" unicode="|" horiz-adv-x="312" 
d="M101 -53v778h110v-778h-110z" />
    <glyph glyph-name="braceright" unicode="}" horiz-adv-x="321" 
d="M29 -176v103h35q22 0 22 22v227q0 57 8.5 78t44.5 35v6q-33 13 -43 38.5t-10 76.5v178q0 22 -22 22h-35v104h103q49 0 78 -30.5t29 -92.5v-198q0 -28 6.5 -37t35.5 -15v-109q-26 -3 -34 -17t-8 -51v-218q0 -61 -29 -91.5t-78 -30.5h-103z" />
    <glyph glyph-name="asciitilde" unicode="~" horiz-adv-x="540" 
d="M102 225l-78 16q23 153 128 153q30 0 120 -16.5t119 -16.5q17 0 28 12t21 37l76 -18q-21 -152 -125 -152q-29 0 -120.5 16.5t-119.5 16.5q-21 0 -31 -10.5t-18 -37.5z" />
    <glyph glyph-name="uni00A0" unicode="&#xa0;" horiz-adv-x="180" 
 />
    <glyph glyph-name="exclamdown" unicode="&#xa1;" horiz-adv-x="290" 
d="M52 -157v258l35 222h115l36 -222v-258h-186zM57 369v187h176v-187h-176z" />
    <glyph glyph-name="cent" unicode="&#xa2;" horiz-adv-x="545" 
d="M215 -60v68q-77 15 -126 63.5t-49 131.5v139q0 84 49.5 135.5t125.5 69.5v74h139v-74q71 -15 113 -59t42 -110v-41h-168v29q0 28 -15 42.5t-40 14.5q-59 0 -59 -63v-162q0 -30 15.5 -47.5t43.5 -17.5q25 0 40 14.5t15 41.5v30h168v-47q0 -66 -41.5 -108t-113.5 -56v-68
h-139z" />
    <glyph glyph-name="sterling" unicode="&#xa3;" horiz-adv-x="593" 
d="M34 0v155h69v134h-50v112h50v110q0 73 37.5 123t89.5 70.5t111 20.5q89 0 148 -47.5t59 -138.5v-60h-157v55q0 49 -49 49q-23 0 -35.5 -15t-12.5 -34v-133h150v-112h-150v-134h276l-30 -155h-506z" />
    <glyph glyph-name="currency" unicode="&#xa4;" horiz-adv-x="495" 
d="M102 142l-50 50l53 53q-31 47 -31 100q0 50 25 91l-55 56l49 49l53 -53q48 33 102 33q47 0 91 -26l55 54l50 -49l-53 -54q32 -46 32 -101q0 -51 -27 -92l55 -54l-49 -50l-54 53q-43 -31 -100 -31q-52 0 -92 26zM248 235q49 0 75 32t26 78t-26.5 78.5t-74.5 32.5
q-50 0 -75.5 -32t-25.5 -79q0 -45 27.5 -77.5t73.5 -32.5z" />
    <glyph glyph-name="yen" unicode="&#xa5;" horiz-adv-x="619" 
d="M206 0v217h-159v122h126l-173 374h213l106 -252l102 252h198l-173 -374h126v-122h-159v-217h-207z" />
    <glyph glyph-name="brokenbar" unicode="&#xa6;" horiz-adv-x="319" 
d="M100 -47v364h119v-364h-119zM100 384v330h119v-330h-119z" />
    <glyph glyph-name="section" unicode="&#xa7;" horiz-adv-x="503" 
d="M238 -86q-27 0 -53 4.5t-53.5 16.5t-48 30t-33.5 48t-13 67v34h150v-9q0 -77 70 -77q29 0 40.5 17t11.5 38q0 41 -59 61l-68 21q-143 44 -143 156q0 61 56 117q-48 39 -48 114q0 79 54 125.5t147 46.5q89 0 144 -42.5t55 -123.5v-32h-138v30q0 21 -15.5 37.5t-43.5 16.5
q-29 0 -43.5 -13t-14.5 -33q0 -35 50 -50l85 -28q139 -41 139 -153q0 -64 -59 -119q57 -51 57 -113q0 -81 -63.5 -134t-162.5 -53zM282 276q14 6 22.5 18t8.5 22q0 31 -40 44q-37 11 -60 17q-27 -21 -27 -49q0 -22 47 -38z" />
    <glyph glyph-name="dieresis" unicode="&#xa8;" horiz-adv-x="416" 
d="M24 590v163h155v-163h-155zM236 590v163h155v-163h-155z" />
    <glyph glyph-name="copyright" unicode="&#xa9;" horiz-adv-x="847" 
d="M429 78q-84 0 -141.5 41t-57.5 125v205q0 80 58 122.5t140 42.5q76 0 133 -38.5t57 -112.5v-64h-143v52q0 20 -12.5 31t-31.5 11q-47 0 -47 -46v-201q0 -47 47 -47q19 0 31.5 10.5t12.5 30.5v58h143v-70q0 -74 -56.5 -112t-132.5 -38zM423 -52q-174 0 -275.5 114.5
t-101.5 284.5q0 166 106 281.5t271 115.5q171 0 274.5 -114.5t103.5 -281.5q0 -168 -104.5 -284t-273.5 -116zM423 25q116 0 199.5 90t83.5 233q0 144 -82 233.5t-201 89.5q-120 0 -200 -89t-80 -235q0 -145 81.5 -233.5t198.5 -88.5z" />
    <glyph glyph-name="ordfeminine" unicode="&#xaa;" horiz-adv-x="357" 
d="M125 394q-41 0 -67 23.5t-26 67.5q0 55 46.5 80.5t104.5 25.5h20v23q0 11 -7.5 18.5t-22.5 7.5q-29 0 -29 -26v-14h-103v18q0 47 40 74t101 27q58 0 97 -27.5t39 -81.5v-138q0 -35 6 -71h-108q0 3 -4 36q-26 -43 -87 -43zM174 473q10 0 19.5 8.5t9.5 22.5v29h-16
q-38 0 -38 -31q0 -29 25 -29zM55 272v83h260v-83h-260z" />
    <glyph glyph-name="guillemotleft" unicode="&#xab;" horiz-adv-x="534" 
d="M178 79l-156 189l156 191l91 -49l-55 -142l58 -142zM418 79l-156 189l156 191l91 -49l-55 -142l58 -142z" />
    <glyph glyph-name="logicalnot" unicode="&#xac;" horiz-adv-x="633" 
d="M445 122v139h-400v110h523v-249h-123z" />
    <glyph glyph-name="registered" unicode="&#xae;" horiz-adv-x="508" 
d="M253 297q-99 0 -159 65.5t-60 160.5q0 93 62.5 159t156.5 66q99 0 160 -65.5t61 -159.5t-62 -160t-159 -66zM253 347q65 0 113 49t48 127t-47 127t-114 49q-66 0 -112 -48.5t-46 -127.5t47 -127.5t111 -48.5zM163 406v245h109q42 0 63.5 -22t21.5 -56q0 -52 -42 -73
l49 -94h-77l-38 83h-15v-83h-71zM234 539h26q12 0 20 8.5t8 20.5t-7.5 20t-19.5 8h-27v-57z" />
    <glyph glyph-name="macron" unicode="&#xaf;" horiz-adv-x="435" 
d="M43 600v126h348v-126h-348z" />
    <glyph glyph-name="degree" unicode="&#xb0;" horiz-adv-x="320" 
d="M160 507q-55 0 -88.5 34.5t-33.5 81.5q0 49 35.5 84.5t86.5 35.5q54 0 88 -34t34 -82q0 -49 -36 -84.5t-86 -35.5zM160 576q19 0 32 14t13 34t-12 35t-33 15q-19 0 -31.5 -14t-12.5 -36q0 -20 13 -34t31 -14z" />
    <glyph glyph-name="plusminus" unicode="&#xb1;" horiz-adv-x="540" 
d="M213 179v137h-163v115h163v146h115v-146h162v-115h-162v-137h-115zM50 0v115h438v-115h-438z" />
    <glyph glyph-name="twosuperior" unicode="&#xb2;" 
d="M37 380v84l118 111q54 50 54 75v2q0 27 -28 27q-30 0 -30 -35v-15h-126v27q0 60 43 92.5t113 32.5q72 0 113 -35.5t41 -90.5q0 -28 -15.5 -56.5t-31 -44.5t-44.5 -43l-30 -29h121v-102h-298z" />
    <glyph glyph-name="threesuperior" unicode="&#xb3;" 
d="M178 368q-158 0 -158 121v16h123v-12q0 -26 31 -26q30 0 30 33q0 31 -33 31h-36v85h28q20 0 29.5 6.5t9.5 26.5q0 31 -29 31t-29 -28v-10h-121v17q0 56 40.5 89.5t111.5 33.5q70 0 112 -31t42 -85q0 -30 -17.5 -55t-48.5 -34v-2q36 -8 56.5 -31.5t20.5 -54.5
q0 -121 -162 -121z" />
    <glyph glyph-name="acute" unicode="&#xb4;" horiz-adv-x="314" 
d="M28 593l83 163h182l-128 -163h-137z" />
    <glyph glyph-name="mu" unicode="&#xb5;" horiz-adv-x="607" 
d="M44 -178v718h191v-337q0 -68 56 -68q23 0 43 21t20 55v329h191v-322q0 -44 44 -48l-2 -175q-143 2 -176 85q-29 -92 -113 -92q-79 0 -100 57l-7 -1l30 -205z" />
    <glyph glyph-name="paragraph" unicode="&#xb6;" horiz-adv-x="543" 
d="M204 -82v288q-78 14 -121 84t-43 163q0 102 57.5 181t140.5 79h270v-111h-36v-684h-103v684h-63v-684h-102z" />
    <glyph glyph-name="periodcentered" unicode="&#xb7;" horiz-adv-x="264" 
d="M44 261v187h176v-187h-176z" />
    <glyph glyph-name="periodcentered" unicode="&#x22c5;" horiz-adv-x="264" 
d="M44 261v187h176v-187h-176z" />
    <glyph glyph-name="cedilla" unicode="&#xb8;" horiz-adv-x="340" 
d="M155 -218q-63 0 -110 12v74q56 -14 102 -14q35 0 35 21q0 18 -37 21l-51 3l32 115h70l-17 -63q48 1 86.5 -14.5t38.5 -56.5q0 -45 -44 -71.5t-105 -26.5z" />
    <glyph glyph-name="onesuperior" unicode="&#xb9;" horiz-adv-x="311" 
d="M105 380v286l-50 -8l-12 92l122 28h72v-398h-132z" />
    <glyph glyph-name="ordmasculine" unicode="&#xba;" horiz-adv-x="369" 
d="M181 395q-62 0 -104.5 28t-42.5 91v87q0 61 42.5 92.5t102.5 31.5q61 0 104.5 -30t43.5 -92v-88q0 -60 -43.5 -90t-102.5 -30zM181 479q28 0 28 31v98q0 14 -8 22.5t-20 8.5q-29 0 -29 -32v-97q0 -31 29 -31zM53 272v83h261v-83h-261z" />
    <glyph glyph-name="guillemotright" unicode="&#xbb;" horiz-adv-x="535" 
d="M117 79l-93 49l55 142l-57 142l95 47l156 -189zM357 79l-93 49l55 142l-57 142l95 47l156 -189z" />
    <glyph glyph-name="onequarter" unicode="&#xbc;" horiz-adv-x="820" 
d="M127 316v286l-50 -8l-12 92l122 28h72v-398h-132zM142 -2l398 720h87l-398 -720h-87zM593 0v72h-170v90l145 233h136l-153 -225h42v33l131 88v-121h35v-98h-35v-72h-131z" />
    <glyph glyph-name="onehalf" unicode="&#xbd;" horiz-adv-x="820" 
d="M122 316v286l-50 -8l-12 92l122 28h72v-398h-132zM137 -2l398 720h87l-398 -720h-87zM470 0v84l118 111q54 50 54 75v2q0 27 -28 27q-30 0 -30 -35v-15h-126v27q0 60 43 92.5t113 32.5q72 0 113 -35.5t41 -90.5q0 -28 -15.5 -56.5t-31 -44.5t-44.5 -43l-30 -29h121v-102
h-298z" />
    <glyph glyph-name="threequarters" unicode="&#xbe;" horiz-adv-x="820" 
d="M185 304q-158 0 -158 121v16h123v-12q0 -26 31 -26q30 0 30 33q0 31 -33 31h-36v85h28q20 0 29.5 6.5t9.5 26.5q0 31 -29 31t-29 -28v-10h-121v17q0 56 40.5 89.5t111.5 33.5q70 0 112 -31t42 -85q0 -30 -17.5 -55t-48.5 -34v-2q36 -8 56.5 -31.5t20.5 -54.5
q0 -121 -162 -121zM183 -2l398 720h87l-398 -720h-87zM620 0v72h-170v90l145 233h136l-153 -225h42v33l131 88v-121h35v-98h-35v-72h-131z" />
    <glyph glyph-name="questiondown" unicode="&#xbf;" horiz-adv-x="518" 
d="M258 -167q-109 0 -169 53t-60 146q0 97 86 168q5 4 24 19t28 23.5t18.5 25t9.5 32.5v23h170v-22q0 -79 -57 -138q-5 -5 -28 -27t-32 -32.5t-19 -30t-10 -38.5q0 -22 13.5 -35t37.5 -13q50 0 50 53v28h162v-32q0 -93 -64 -148t-160 -55zM182 369v187h191v-187h-191z" />
    <glyph glyph-name="Agrave" unicode="&#xc0;" horiz-adv-x="691" 
d="M12 0l205 714h262l200 -714h-212l-30 120h-205l-30 -120h-190zM274 276h122l-60 238h-3zM284 759l-128 163h182l83 -163h-137z" />
    <glyph glyph-name="Aacute" unicode="&#xc1;" horiz-adv-x="691" 
d="M12 0l205 714h262l200 -714h-212l-30 120h-205l-30 -120h-190zM274 276h122l-60 238h-3zM274 759l83 163h182l-128 -163h-137z" />
    <glyph glyph-name="Acircumflex" unicode="&#xc2;" horiz-adv-x="691" 
d="M12 0l205 714h262l200 -714h-212l-30 120h-205l-30 -120h-190zM274 276h122l-60 238h-3zM157 760l122 172h134l121 -172h-142l-50 79l-50 -79h-135z" />
    <glyph glyph-name="Atilde" unicode="&#xc3;" horiz-adv-x="691" 
d="M12 0l205 714h262l200 -714h-212l-30 120h-205l-30 -120h-190zM274 276h122l-60 238h-3zM225 751l-89 18q9 65 42.5 109t87.5 44q28 0 82 -17.5t81 -17.5q17 0 27.5 12t19.5 38l79 -21q-8 -64 -39 -106.5t-87 -42.5q-27 0 -79.5 17t-78.5 17q-19 0 -28.5 -11t-17.5 -39z
" />
    <glyph glyph-name="Adieresis" unicode="&#xc4;" horiz-adv-x="691" 
d="M12 0l205 714h262l200 -714h-212l-30 120h-205l-30 -120h-190zM274 276h122l-60 238h-3zM162 756v163h155v-163h-155zM374 756v163h155v-163h-155z" />
    <glyph glyph-name="Aring" unicode="&#xc5;" horiz-adv-x="691" 
d="M12 0l205 714h262l200 -714h-212l-30 120h-205l-30 -120h-190zM274 276h122l-60 238h-3zM344 745q-47 0 -78 29t-31 78q0 47 32 79t77 32q48 0 79.5 -28t31.5 -77q0 -48 -32.5 -80.5t-78.5 -32.5zM344 804q42 0 42 50t-44 50q-40 0 -40 -50t42 -50z" />
    <glyph glyph-name="AE" unicode="&#xc6;" horiz-adv-x="930" 
d="M8 0l246 713h635v-163h-288v-111h228v-163h-228v-112h289v-164h-495v127h-140l-41 -127h-206zM301 279h94v304h-1z" />
    <glyph glyph-name="Ccedilla" unicode="&#xc7;" horiz-adv-x="632" 
d="M327 -218q-63 0 -110 12v74q56 -14 102 -14q35 0 35 21q0 18 -37 21l-51 3l25 90q-109 9 -179 69.5t-70 174.5v243q0 116 83 182.5t200 66.5q120 0 195.5 -57.5t75.5 -169.5v-53h-190v42q0 34 -22.5 53t-54.5 19q-37 0 -58 -19.5t-21 -57.5v-247q0 -39 20 -60t59 -21
q32 0 54.5 19t22.5 53v42h190v-54q0 -102 -64 -159t-171 -66l-10 -38q48 1 86.5 -14.5t38.5 -56.5q0 -45 -44 -71.5t-105 -26.5z" />
    <glyph glyph-name="Egrave" unicode="&#xc8;" horiz-adv-x="585" 
d="M50 0v713h494v-163h-288v-109h228v-163h-228v-114h289v-164h-495zM251 759l-128 163h182l83 -163h-137z" />
    <glyph glyph-name="Eacute" unicode="&#xc9;" horiz-adv-x="585" 
d="M50 0v713h494v-163h-288v-109h228v-163h-228v-114h289v-164h-495zM205 759l83 163h182l-128 -163h-137z" />
    <glyph glyph-name="Ecircumflex" unicode="&#xca;" horiz-adv-x="585" 
d="M50 0v713h494v-163h-288v-109h228v-163h-228v-114h289v-164h-495zM109 760l122 172h134l121 -172h-142l-50 79l-50 -79h-135z" />
    <glyph glyph-name="Edieresis" unicode="&#xcb;" horiz-adv-x="585" 
d="M50 0v713h494v-163h-288v-109h228v-163h-228v-114h289v-164h-495zM114 756v163h155v-163h-155zM326 756v163h155v-163h-155z" />
    <glyph glyph-name="Igrave" unicode="&#xcc;" horiz-adv-x="306" 
d="M50 0v713h206v-713h-206zM89 759l-128 163h182l83 -163h-137z" />
    <glyph glyph-name="Iacute" unicode="&#xcd;" horiz-adv-x="306" 
d="M50 0v713h206v-713h-206zM85 759l83 163h182l-128 -163h-137z" />
    <glyph glyph-name="Icircumflex" unicode="&#xce;" horiz-adv-x="306" 
d="M50 0v713h206v-713h-206zM-35 760l122 172h134l121 -172h-142l-50 79l-50 -79h-135z" />
    <glyph glyph-name="Idieresis" unicode="&#xcf;" horiz-adv-x="306" 
d="M50 0v713h206v-713h-206zM-30 756v163h155v-163h-155zM182 756v163h155v-163h-155z" />
    <glyph glyph-name="Eth" unicode="&#xd0;" horiz-adv-x="673" 
d="M32 287v133h43v293h289q118 0 192.5 -56t74.5 -167v-254q0 -119 -74.5 -177.5t-191.5 -58.5h-290v287h-43zM281 164h65q38 0 57.5 23.5t19.5 55.5v228q0 35 -21.5 56t-59.5 21h-61v-128h95v-133h-95v-123z" />
    <glyph glyph-name="Ntilde" unicode="&#xd1;" horiz-adv-x="676" 
d="M50 0v713h202l187 -312h2v312h185v-713h-172l-217 356h-2v-356h-185zM228 751l-89 18q9 65 42.5 109t87.5 44q28 0 82 -17.5t81 -17.5q17 0 27.5 12t19.5 38l79 -21q-8 -64 -39 -106.5t-87 -42.5q-27 0 -79.5 17t-78.5 17q-19 0 -28.5 -11t-17.5 -39z" />
    <glyph glyph-name="Ograve" unicode="&#xd2;" horiz-adv-x="658" 
d="M329 -12q-126 0 -206.5 61t-80.5 192v229q0 124 81.5 189.5t203.5 65.5q59 0 109 -14t91.5 -43t65 -79.5t23.5 -118.5v-228q0 -128 -83 -191t-204 -63zM330 155q36 0 57 22t21 60v240q0 39 -23 60t-57 21q-78 0 -78 -81v-237q0 -85 80 -85zM266 759l-128 163h182l83 -163
h-137z" />
    <glyph glyph-name="Oacute" unicode="&#xd3;" horiz-adv-x="658" 
d="M329 -12q-126 0 -206.5 61t-80.5 192v229q0 124 81.5 189.5t203.5 65.5q59 0 109 -14t91.5 -43t65 -79.5t23.5 -118.5v-228q0 -128 -83 -191t-204 -63zM330 155q36 0 57 22t21 60v240q0 39 -23 60t-57 21q-78 0 -78 -81v-237q0 -85 80 -85zM252 759l83 163h182l-128 -163
h-137z" />
    <glyph glyph-name="Ocircumflex" unicode="&#xd4;" horiz-adv-x="658" 
d="M329 -12q-126 0 -206.5 61t-80.5 192v229q0 124 81.5 189.5t203.5 65.5q59 0 109 -14t91.5 -43t65 -79.5t23.5 -118.5v-228q0 -128 -83 -191t-204 -63zM330 155q36 0 57 22t21 60v240q0 39 -23 60t-57 21q-78 0 -78 -81v-237q0 -85 80 -85zM141 760l122 172h134l121 -172
h-142l-50 79l-50 -79h-135z" />
    <glyph glyph-name="Otilde" unicode="&#xd5;" horiz-adv-x="658" 
d="M329 -12q-126 0 -206.5 61t-80.5 192v229q0 124 81.5 189.5t203.5 65.5q59 0 109 -14t91.5 -43t65 -79.5t23.5 -118.5v-228q0 -128 -83 -191t-204 -63zM330 155q36 0 57 22t21 60v240q0 39 -23 60t-57 21q-78 0 -78 -81v-237q0 -85 80 -85zM209 751l-89 18q9 65 42.5 109
t87.5 44q28 0 82 -17.5t81 -17.5q17 0 27.5 12t19.5 38l79 -21q-8 -64 -39 -106.5t-87 -42.5q-27 0 -79.5 17t-78.5 17q-19 0 -28.5 -11t-17.5 -39z" />
    <glyph glyph-name="Odieresis" unicode="&#xd6;" horiz-adv-x="658" 
d="M329 -12q-126 0 -206.5 61t-80.5 192v229q0 124 81.5 189.5t203.5 65.5q59 0 109 -14t91.5 -43t65 -79.5t23.5 -118.5v-228q0 -128 -83 -191t-204 -63zM330 155q36 0 57 22t21 60v240q0 39 -23 60t-57 21q-78 0 -78 -81v-237q0 -85 80 -85zM146 756v163h155v-163h-155z
M358 756v163h155v-163h-155z" />
    <glyph glyph-name="multiply" unicode="&#xd7;" horiz-adv-x="540" 
d="M131 91l-82 82l141 146l-145 145l82 83l145 -144l141 144l82 -83l-141 -144l141 -147l-82 -82l-141 145z" />
    <glyph glyph-name="Oslash" unicode="&#xd8;" horiz-adv-x="658" 
d="M156 -58l-68 28l39 75q-85 65 -85 196v229q0 124 81.5 189.5t203.5 65.5q77 0 137 -23l38 73l68 -28l-42 -80q88 -68 88 -197v-228q0 -128 -83 -191t-204 -63q-78 0 -138 22zM330 155q36 0 57 22t21 60v195l-134 -259q19 -18 56 -18zM250 477v-192l131 255q-23 18 -53 18
q-78 0 -78 -81z" />
    <glyph glyph-name="Ugrave" unicode="&#xd9;" horiz-adv-x="656" 
d="M330 -12q-135 0 -209.5 61.5t-74.5 186.5v477h206v-471q0 -44 22.5 -67t59.5 -23q34 0 55.5 24t21.5 66v471h199v-463q0 -126 -75 -194t-205 -68zM276 759l-128 163h182l83 -163h-137z" />
    <glyph glyph-name="Uacute" unicode="&#xda;" horiz-adv-x="656" 
d="M330 -12q-135 0 -209.5 61.5t-74.5 186.5v477h206v-471q0 -44 22.5 -67t59.5 -23q34 0 55.5 24t21.5 66v471h199v-463q0 -126 -75 -194t-205 -68zM258 759l83 163h182l-128 -163h-137z" />
    <glyph glyph-name="Ucircumflex" unicode="&#xdb;" horiz-adv-x="656" 
d="M330 -12q-135 0 -209.5 61.5t-74.5 186.5v477h206v-471q0 -44 22.5 -67t59.5 -23q34 0 55.5 24t21.5 66v471h199v-463q0 -126 -75 -194t-205 -68zM140 760l122 172h134l121 -172h-142l-50 79l-50 -79h-135z" />
    <glyph glyph-name="Udieresis" unicode="&#xdc;" horiz-adv-x="656" 
d="M330 -12q-135 0 -209.5 61.5t-74.5 186.5v477h206v-471q0 -44 22.5 -67t59.5 -23q34 0 55.5 24t21.5 66v471h199v-463q0 -126 -75 -194t-205 -68zM145 756v163h155v-163h-155zM357 756v163h155v-163h-155z" />
    <glyph glyph-name="Yacute" unicode="&#xdd;" horiz-adv-x="635" 
d="M214 0v275l-206 438h218l106 -258l102 258h193l-206 -439v-274h-207zM254 759l83 163h182l-128 -163h-137z" />
    <glyph glyph-name="Thorn" unicode="&#xde;" horiz-adv-x="631" 
d="M50 0v713h206v-126h105q114 0 173 -59t59 -155q0 -101 -57.5 -166.5t-175.5 -65.5h-104v-141h-206zM256 285h67q33 0 51 22t18 58q0 35 -17 55t-51 20h-68v-155z" />
    <glyph glyph-name="germandbls" unicode="&#xdf;" horiz-adv-x="667" 
d="M439 -8q-67 0 -118 16l14 141q4 0 15 -1.5t22.5 -2.5t20.5 -1q56 0 56 57q0 31 -30.5 52t-82.5 28v139h27q55 31 55 80q0 75 -71 75q-66 0 -66 -76v-499h-190v385h-58v145h58v2q0 30 14.5 62.5t44 64t84 51.5t125.5 20q106 0 176.5 -54.5t70.5 -140.5q0 -48 -26 -91
t-70 -61v-4q61 -25 94.5 -77t33.5 -114q0 -90 -60 -143t-139 -53z" />
    <glyph glyph-name="agrave" unicode="&#xe0;" horiz-adv-x="565" 
d="M190 -11q-68 0 -111 39.5t-43 116.5q0 50 24 86.5t63 56.5t81 29t87 9h37v48q0 21 -14 34.5t-42 13.5q-53 0 -53 -53v-16h-170v25q0 80 68.5 127t170.5 47q99 0 165 -48.5t66 -140.5v-242q0 -24 2 -52.5t4 -47.5t2 -21h-177q-4 22 -9 81h-5q-15 -36 -44.5 -58t-54 -28
t-47.5 -6zM275 122q20 0 36.5 14t16.5 45v50h-30q-71 0 -71 -57q0 -23 13 -37.5t35 -14.5zM238 593l-128 163h182l83 -163h-137z" />
    <glyph glyph-name="aacute" unicode="&#xe1;" horiz-adv-x="565" 
d="M190 -11q-68 0 -111 39.5t-43 116.5q0 50 24 86.5t63 56.5t81 29t87 9h37v48q0 21 -14 34.5t-42 13.5q-53 0 -53 -53v-16h-170v25q0 80 68.5 127t170.5 47q99 0 165 -48.5t66 -140.5v-242q0 -24 2 -52.5t4 -47.5t2 -21h-177q-4 22 -9 81h-5q-15 -36 -44.5 -58t-54 -28
t-47.5 -6zM275 122q20 0 36.5 14t16.5 45v50h-30q-71 0 -71 -57q0 -23 13 -37.5t35 -14.5zM213 593l83 163h182l-128 -163h-137z" />
    <glyph glyph-name="acircumflex" unicode="&#xe2;" horiz-adv-x="565" 
d="M190 -11q-68 0 -111 39.5t-43 116.5q0 50 24 86.5t63 56.5t81 29t87 9h37v48q0 21 -14 34.5t-42 13.5q-53 0 -53 -53v-16h-170v25q0 80 68.5 127t170.5 47q99 0 165 -48.5t66 -140.5v-242q0 -24 2 -52.5t4 -47.5t2 -21h-177q-4 22 -9 81h-5q-15 -36 -44.5 -58t-54 -28
t-47.5 -6zM275 122q20 0 36.5 14t16.5 45v50h-30q-71 0 -71 -57q0 -23 13 -37.5t35 -14.5zM87 594l122 172h134l121 -172h-142l-50 79l-50 -79h-135z" />
    <glyph glyph-name="atilde" unicode="&#xe3;" horiz-adv-x="565" 
d="M190 -11q-68 0 -111 39.5t-43 116.5q0 50 24 86.5t63 56.5t81 29t87 9h37v48q0 21 -14 34.5t-42 13.5q-53 0 -53 -53v-16h-170v25q0 80 68.5 127t170.5 47q99 0 165 -48.5t66 -140.5v-242q0 -24 2 -52.5t4 -47.5t2 -21h-177q-4 22 -9 81h-5q-15 -36 -44.5 -58t-54 -28
t-47.5 -6zM275 122q20 0 36.5 14t16.5 45v50h-30q-71 0 -71 -57q0 -23 13 -37.5t35 -14.5zM156 585l-89 18q9 65 42.5 109t87.5 44q28 0 82 -17.5t81 -17.5q17 0 27.5 12t19.5 38l79 -21q-8 -64 -39 -106.5t-87 -42.5q-27 0 -79.5 17t-78.5 17q-19 0 -28.5 -11t-17.5 -39z
" />
    <glyph glyph-name="adieresis" unicode="&#xe4;" horiz-adv-x="565" 
d="M190 -11q-68 0 -111 39.5t-43 116.5q0 50 24 86.5t63 56.5t81 29t87 9h37v48q0 21 -14 34.5t-42 13.5q-53 0 -53 -53v-16h-170v25q0 80 68.5 127t170.5 47q99 0 165 -48.5t66 -140.5v-242q0 -24 2 -52.5t4 -47.5t2 -21h-177q-4 22 -9 81h-5q-15 -36 -44.5 -58t-54 -28
t-47.5 -6zM275 122q20 0 36.5 14t16.5 45v50h-30q-71 0 -71 -57q0 -23 13 -37.5t35 -14.5zM95 590v163h155v-163h-155zM307 590v163h155v-163h-155z" />
    <glyph glyph-name="aring" unicode="&#xe5;" horiz-adv-x="565" 
d="M190 -11q-68 0 -111 39.5t-43 116.5q0 50 24 86.5t63 56.5t81 29t87 9h37v48q0 21 -14 34.5t-42 13.5q-53 0 -53 -53v-16h-170v25q0 80 68.5 127t170.5 47q99 0 165 -48.5t66 -140.5v-242q0 -24 2 -52.5t4 -47.5t2 -21h-177q-4 22 -9 81h-5q-15 -36 -44.5 -58t-54 -28
t-47.5 -6zM275 122q20 0 36.5 14t16.5 45v50h-30q-71 0 -71 -57q0 -23 13 -37.5t35 -14.5zM281 579q-47 0 -78 29t-31 78q0 47 32 79t77 32q48 0 79.5 -28t31.5 -77q0 -48 -33 -80.5t-78 -32.5zM281 638q42 0 42 50t-44 50q-40 0 -40 -50t42 -50z" />
    <glyph glyph-name="ae" unicode="&#xe6;" horiz-adv-x="841" 
d="M190 -12q-68 0 -111 40t-43 117q0 50 24 86.5t63 56.5t81 29t87 9h37v48q0 21 -14 34.5t-42 13.5q-53 0 -53 -53v-16h-170v25q0 80 68.5 127t170.5 47q84 0 141 -36q62 36 141 36q104 0 169 -54.5t65 -151.5v-128h-285v-28q0 -58 90 -58q65 0 149 27l35 -124
q-99 -47 -212 -47q-151 0 -212 86q-22 -34 -61 -55t-67 -26t-51 -5zM275 122q19 0 36 15t17 41v53h-30q-71 0 -71 -57q0 -23 13 -37.5t35 -14.5zM519 321h104v45q0 25 -14.5 39t-38.5 14q-23 0 -37 -14.5t-14 -38.5v-45z" />
    <glyph glyph-name="ccedilla" unicode="&#xe7;" horiz-adv-x="536" 
d="M281 -218q-63 0 -110 12v74q56 -14 102 -14q35 0 35 21q0 18 -37 21l-51 3l25 91q-88 8 -146.5 57.5t-58.5 142.5v148q0 104 71.5 159t168.5 55t159.5 -47.5t62.5 -130.5v-46h-168v34q0 50 -48 50q-53 0 -53 -56v-171q0 -59 53 -59q48 0 48 51v34h168v-51q0 -76 -51 -119
t-136 -51l-10 -39q48 1 86.5 -14.5t38.5 -56.5q0 -45 -44 -71.5t-105 -26.5z" />
    <glyph glyph-name="egrave" unicode="&#xe8;" horiz-adv-x="554" 
d="M288 -12q-104 0 -176 55.5t-72 159.5v125q0 110 70 167t171 57q104 0 170 -54.5t66 -151.5v-128h-285v-28q0 -58 85 -58q70 0 154 27l35 -124q-99 -47 -218 -47zM232 321h103v45q0 25 -14 39t-38 14q-23 0 -37 -14.5t-14 -38.5v-45zM238 593l-128 163h182l83 -163h-137z
" />
    <glyph glyph-name="eacute" unicode="&#xe9;" horiz-adv-x="554" 
d="M288 -12q-104 0 -176 55.5t-72 159.5v125q0 110 70 167t171 57q104 0 170 -54.5t66 -151.5v-128h-285v-28q0 -58 85 -58q70 0 154 27l35 -124q-99 -47 -218 -47zM232 321h103v45q0 25 -14 39t-38 14q-23 0 -37 -14.5t-14 -38.5v-45zM206 593l83 163h182l-128 -163h-137z
" />
    <glyph glyph-name="ecircumflex" unicode="&#xea;" horiz-adv-x="554" 
d="M288 -12q-104 0 -176 55.5t-72 159.5v125q0 110 70 167t171 57q104 0 170 -54.5t66 -151.5v-128h-285v-28q0 -58 85 -58q70 0 154 27l35 -124q-99 -47 -218 -47zM232 321h103v45q0 25 -14 39t-38 14q-23 0 -37 -14.5t-14 -38.5v-45zM96 594l122 172h134l121 -172h-142
l-50 79l-50 -79h-135z" />
    <glyph glyph-name="edieresis" unicode="&#xeb;" horiz-adv-x="554" 
d="M288 -12q-104 0 -176 55.5t-72 159.5v125q0 110 70 167t171 57q104 0 170 -54.5t66 -151.5v-128h-285v-28q0 -58 85 -58q70 0 154 27l35 -124q-99 -47 -218 -47zM232 321h103v45q0 25 -14 39t-38 14q-23 0 -37 -14.5t-14 -38.5v-45zM103 590v163h155v-163h-155zM315 590
v163h155v-163h-155z" />
    <glyph glyph-name="igrave" unicode="&#xec;" horiz-adv-x="287" 
d="M74 593l-128 163h182l83 -163h-137zM48 0v540h191v-540h-191z" />
    <glyph glyph-name="iacute" unicode="&#xed;" horiz-adv-x="287" 
d="M48 0v540h191v-540h-191zM69 593l83 163h182l-128 -163h-137z" />
    <glyph glyph-name="icircumflex" unicode="&#xee;" horiz-adv-x="287" 
d="M-54 594l122 172h134l121 -172h-142l-50 79l-50 -79h-135zM48 0v540h191v-540h-191z" />
    <glyph glyph-name="idieresis" unicode="&#xef;" horiz-adv-x="287" 
d="M-47 590v163h155v-163h-155zM165 590v163h155v-163h-155zM48 0v540h191v-540h-191z" />
    <glyph glyph-name="eth" unicode="&#xf0;" horiz-adv-x="568" 
d="M284 -12q-48 0 -89.5 10.5t-77 33t-56.5 63.5t-21 97v99q0 86 46 143.5t127 61.5l17 1l-40 55l-88 -23l-48 88l76 19l-41 64l186 44l40 -60l95 25l48 -87l-84 -23l112 -161q42 -57 42 -124v-121q0 -71 -37.5 -119t-90.5 -67t-116 -19zM285 128q50 0 50 56v139
q0 26 -14.5 42.5t-36.5 16.5q-25 0 -38 -17t-13 -44v-139q0 -54 52 -54z" />
    <glyph glyph-name="ntilde" unicode="&#xf1;" horiz-adv-x="584" 
d="M48 0v540h185v-73h2q66 85 156 85q58 0 103.5 -40.5t45.5 -110.5v-401h-191v337q0 67 -56 67q-22 0 -38 -20t-16 -56v-328h-191zM188 585l-89 18q9 65 42.5 109t87.5 44q28 0 82 -17.5t81 -17.5q17 0 27.5 12t19.5 38l79 -21q-8 -64 -39 -106.5t-87 -42.5q-27 0 -79.5 17
t-78.5 17q-19 0 -28.5 -11t-17.5 -39z" />
    <glyph glyph-name="ograve" unicode="&#xf2;" horiz-adv-x="568" 
d="M284 -12q-48 0 -89.5 10.5t-77 33t-56.5 63.5t-21 97v147q0 104 71 158.5t171 54.5q47 0 89 -11.5t78 -34.5t57.5 -65t21.5 -98v-150q0 -71 -37.5 -119t-90.5 -67t-116 -19zM285 128q50 0 50 56v168q0 26 -14.5 42.5t-36.5 16.5q-25 0 -38 -17t-13 -44v-168q0 -54 52 -54
zM232 593l-128 163h182l83 -163h-137z" />
    <glyph glyph-name="oacute" unicode="&#xf3;" horiz-adv-x="568" 
d="M284 -12q-48 0 -89.5 10.5t-77 33t-56.5 63.5t-21 97v147q0 104 71 158.5t171 54.5q47 0 89 -11.5t78 -34.5t57.5 -65t21.5 -98v-150q0 -71 -37.5 -119t-90.5 -67t-116 -19zM285 128q50 0 50 56v168q0 26 -14.5 42.5t-36.5 16.5q-25 0 -38 -17t-13 -44v-168q0 -54 52 -54
zM211 593l83 163h182l-128 -163h-137z" />
    <glyph glyph-name="ocircumflex" unicode="&#xf4;" horiz-adv-x="568" 
d="M284 -12q-48 0 -89.5 10.5t-77 33t-56.5 63.5t-21 97v147q0 104 71 158.5t171 54.5q47 0 89 -11.5t78 -34.5t57.5 -65t21.5 -98v-150q0 -71 -37.5 -119t-90.5 -67t-116 -19zM285 128q50 0 50 56v168q0 26 -14.5 42.5t-36.5 16.5q-25 0 -38 -17t-13 -44v-168q0 -54 52 -54
zM96 594l122 172h134l121 -172h-142l-50 79l-50 -79h-135z" />
    <glyph glyph-name="otilde" unicode="&#xf5;" horiz-adv-x="568" 
d="M284 -12q-48 0 -89.5 10.5t-77 33t-56.5 63.5t-21 97v147q0 104 71 158.5t171 54.5q47 0 89 -11.5t78 -34.5t57.5 -65t21.5 -98v-150q0 -71 -37.5 -119t-90.5 -67t-116 -19zM285 128q50 0 50 56v168q0 26 -14.5 42.5t-36.5 16.5q-25 0 -38 -17t-13 -44v-168q0 -54 52 -54
zM162 585l-89 18q9 65 42.5 109t87.5 44q28 0 82 -17.5t81 -17.5q17 0 27.5 12t19.5 38l79 -21q-8 -64 -39 -106.5t-87 -42.5q-27 0 -79.5 17t-78.5 17q-19 0 -28.5 -11t-17.5 -39z" />
    <glyph glyph-name="odieresis" unicode="&#xf6;" horiz-adv-x="568" 
d="M284 -12q-48 0 -89.5 10.5t-77 33t-56.5 63.5t-21 97v147q0 104 71 158.5t171 54.5q47 0 89 -11.5t78 -34.5t57.5 -65t21.5 -98v-150q0 -71 -37.5 -119t-90.5 -67t-116 -19zM285 128q50 0 50 56v168q0 26 -14.5 42.5t-36.5 16.5q-25 0 -38 -17t-13 -44v-168q0 -54 52 -54
zM99 590v163h155v-163h-155zM311 590v163h155v-163h-155z" />
    <glyph glyph-name="divide" unicode="&#xf7;" horiz-adv-x="540" 
d="M194 61v149h152v-149h-152zM51 263v114h438v-114h-438zM194 426v147h152v-147h-152z" />
    <glyph glyph-name="oslash" unicode="&#xf8;" horiz-adv-x="568" 
d="M145 -75l-58 28l37 73q-84 52 -84 166v147q0 104 71 158.5t171 54.5q54 0 103 -15l39 75l58 -28l-38 -75q84 -55 84 -166v-150q0 -71 -37.5 -119t-90.5 -67t-116 -19q-54 0 -100 13zM233 350v-112l82 162q-13 11 -31 11q-25 0 -38 -17t-13 -44zM285 128q50 0 50 56v112
l-82 -160q13 -8 32 -8z" />
    <glyph glyph-name="ugrave" unicode="&#xf9;" horiz-adv-x="584" 
d="M193 -12q-58 0 -103.5 40.5t-45.5 110.5v401h191v-337q0 -68 56 -68q22 0 38 20.5t16 55.5v329h191v-540h-177l-6 82h-2q-27 -41 -69.5 -67.5t-88.5 -26.5zM226 593l-128 163h182l83 -163h-137z" />
    <glyph glyph-name="uacute" unicode="&#xfa;" horiz-adv-x="584" 
d="M193 -12q-58 0 -103.5 40.5t-45.5 110.5v401h191v-337q0 -68 56 -68q22 0 38 20.5t16 55.5v329h191v-540h-177l-6 82h-2q-27 -41 -69.5 -67.5t-88.5 -26.5zM234 593l83 163h182l-128 -163h-137z" />
    <glyph glyph-name="ucircumflex" unicode="&#xfb;" horiz-adv-x="584" 
d="M193 -12q-58 0 -103.5 40.5t-45.5 110.5v401h191v-337q0 -68 56 -68q22 0 38 20.5t16 55.5v329h191v-540h-177l-6 82h-2q-27 -41 -69.5 -67.5t-88.5 -26.5zM103 594l122 172h134l121 -172h-142l-50 79l-50 -79h-135z" />
    <glyph glyph-name="udieresis" unicode="&#xfc;" horiz-adv-x="584" 
d="M193 -12q-58 0 -103.5 40.5t-45.5 110.5v401h191v-337q0 -68 56 -68q22 0 38 20.5t16 55.5v329h191v-540h-177l-6 82h-2q-27 -41 -69.5 -67.5t-88.5 -26.5zM107 590v163h155v-163h-155zM319 590v163h155v-163h-155z" />
    <glyph glyph-name="yacute" unicode="&#xfd;" horiz-adv-x="533" 
d="M157 -188q-53 0 -107 14l26 153q46 -11 81 -11q22 0 32 31l4 16l-193 525h203l85 -270h3l70 270h172l-171 -549q-30 -92 -77 -135.5t-128 -43.5zM220 593l83 163h182l-128 -163h-137z" />
    <glyph glyph-name="thorn" unicode="&#xfe;" horiz-adv-x="580" 
d="M48 -176v889h191v-241h2q26 35 64.5 57.5t74.5 22.5q160 0 160 -164v-235q0 -71 -48.5 -118t-128.5 -47q-34 0 -71.5 18.5t-50.5 48.5h-2v-231h-191zM295 126q54 0 54 55v170q0 28 -15 41.5t-37 13.5q-24 0 -41 -18.5t-17 -59.5v-143q0 -31 17.5 -45t38.5 -14z" />
    <glyph glyph-name="ydieresis" unicode="&#xff;" horiz-adv-x="533" 
d="M157 -188q-53 0 -107 14l26 153q46 -11 81 -11q22 0 32 31l4 16l-193 525h203l85 -270h3l70 270h172l-171 -549q-30 -92 -77 -135.5t-128 -43.5zM97 590v163h155v-163h-155zM309 590v163h155v-163h-155z" />
    <glyph glyph-name="Amacron" unicode="&#x100;" horiz-adv-x="691" 
d="M12 0l205 714h262l200 -714h-212l-30 120h-205l-30 -120h-190zM274 276h122l-60 238h-3zM171 766v126h348v-126h-348z" />
    <glyph glyph-name="amacron" unicode="&#x101;" horiz-adv-x="565" 
d="M190 -11q-68 0 -111 39.5t-43 116.5q0 50 24 86.5t63 56.5t81 29t87 9h37v48q0 21 -14 34.5t-42 13.5q-53 0 -53 -53v-16h-170v25q0 80 68.5 127t170.5 47q99 0 165 -48.5t66 -140.5v-242q0 -24 2 -52.5t4 -47.5t2 -21h-177q-4 22 -9 81h-5q-15 -36 -44.5 -58t-54 -28
t-47.5 -6zM275 122q20 0 36.5 14t16.5 45v50h-30q-71 0 -71 -57q0 -23 13 -37.5t35 -14.5zM108 600v126h348v-126h-348z" />
    <glyph glyph-name="Abreve" unicode="&#x102;" horiz-adv-x="691" 
d="M12 0l205 714h262l200 -714h-212l-30 120h-205l-30 -120h-190zM274 276h122l-60 238h-3zM352 755q-90 0 -139 49.5t-52 134.5h124q8 -42 21 -58.5t49 -16.5q30 0 42 18t14 57h119q-2 -88 -51 -136t-127 -48z" />
    <glyph glyph-name="abreve" unicode="&#x103;" horiz-adv-x="565" 
d="M190 -11q-68 0 -111 39.5t-43 116.5q0 50 24 86.5t63 56.5t81 29t87 9h37v48q0 21 -14 34.5t-42 13.5q-53 0 -53 -53v-16h-170v25q0 80 68.5 127t170.5 47q99 0 165 -48.5t66 -140.5v-242q0 -24 2 -52.5t4 -47.5t2 -21h-177q-4 22 -9 81h-5q-15 -36 -44.5 -58t-54 -28
t-47.5 -6zM275 122q20 0 36.5 14t16.5 45v50h-30q-71 0 -71 -57q0 -23 13 -37.5t35 -14.5zM289 589q-90 0 -139 49.5t-52 134.5h124q8 -42 21 -58.5t49 -16.5q30 0 42 18t14 57h119q-2 -88 -51 -136t-127 -48z" />
    <glyph glyph-name="Aogonek" unicode="&#x104;" horiz-adv-x="691" 
d="M600 -220q-53 0 -90 27t-37 82q0 65 53 111h-59l-30 120h-205l-30 -120h-190l205 714h262l200 -714h-23q-38 -12 -57 -34t-19 -48q0 -23 12.5 -34t32.5 -11q27 0 61 24l44 -79q-46 -38 -130 -38zM274 276h122l-60 238h-3z" />
    <glyph glyph-name="aogonek" unicode="&#x105;" horiz-adv-x="565" 
d="M425 -220q-53 0 -90 27t-37 82q0 65 53 111h-1q-4 22 -9 81h-5q-15 -36 -44.5 -58t-54 -28t-47.5 -6q-68 0 -111 39.5t-43 116.5q0 50 24 86.5t63 56.5t81 29t87 9h37v48q0 21 -14 34.5t-42 13.5q-53 0 -53 -53v-16h-170v25q0 80 68.5 127t170.5 47q99 0 165 -48.5
t66 -140.5v-242q0 -24 2 -52.5t4 -47.5t2 -21h-46q-38 -12 -57 -34t-19 -48q0 -23 12.5 -34t32.5 -11q27 0 61 24l44 -79q-46 -38 -130 -38zM275 122q20 0 36.5 14t16.5 45v50h-30q-71 0 -71 -57q0 -23 13 -37.5t35 -14.5z" />
    <glyph glyph-name="Cacute" unicode="&#x106;" horiz-adv-x="632" 
d="M326 -12q-57 0 -106.5 14t-90 42t-64 76.5t-23.5 112.5v243q0 116 83 182.5t200 66.5q120 0 195.5 -57.5t75.5 -169.5v-53h-190v42q0 34 -22.5 53t-54.5 19q-37 0 -58 -19.5t-21 -57.5v-247q0 -39 20 -60t59 -21q32 0 54.5 19t22.5 53v42h190v-54q0 -111 -74.5 -168.5
t-195.5 -57.5zM252 759l83 163h182l-128 -163h-137z" />
    <glyph glyph-name="cacute" unicode="&#x107;" horiz-adv-x="536" 
d="M280 -12q-100 0 -170 50t-70 152v148q0 104 71.5 159t168.5 55t159.5 -47.5t62.5 -130.5v-46h-168v34q0 50 -48 50q-53 0 -53 -56v-171q0 -59 53 -59q48 0 48 51v34h168v-51q0 -84 -62 -128t-160 -44zM207 593l83 163h182l-128 -163h-137z" />
    <glyph glyph-name="Ccircumflex" unicode="&#x108;" horiz-adv-x="632" 
d="M326 -12q-57 0 -106.5 14t-90 42t-64 76.5t-23.5 112.5v243q0 116 83 182.5t200 66.5q120 0 195.5 -57.5t75.5 -169.5v-53h-190v42q0 34 -22.5 53t-54.5 19q-37 0 -58 -19.5t-21 -57.5v-247q0 -39 20 -60t59 -21q32 0 54.5 19t22.5 53v42h190v-54q0 -111 -74.5 -168.5
t-195.5 -57.5zM135 760l122 172h134l121 -172h-142l-50 79l-50 -79h-135z" />
    <glyph glyph-name="ccircumflex" unicode="&#x109;" horiz-adv-x="536" 
d="M280 -12q-100 0 -170 50t-70 152v148q0 104 71.5 159t168.5 55t159.5 -47.5t62.5 -130.5v-46h-168v34q0 50 -48 50q-53 0 -53 -56v-171q0 -59 53 -59q48 0 48 51v34h168v-51q0 -84 -62 -128t-160 -44zM88 594l122 172h134l121 -172h-142l-50 79l-50 -79h-135z" />
    <glyph glyph-name="Cdotaccent" unicode="&#x10a;" horiz-adv-x="632" 
d="M326 -12q-57 0 -106.5 14t-90 42t-64 76.5t-23.5 112.5v243q0 116 83 182.5t200 66.5q120 0 195.5 -57.5t75.5 -169.5v-53h-190v42q0 34 -22.5 53t-54.5 19q-37 0 -58 -19.5t-21 -57.5v-247q0 -39 20 -60t59 -21q32 0 54.5 19t22.5 53v42h190v-54q0 -111 -74.5 -168.5
t-195.5 -57.5zM236 755v163h166v-163h-166z" />
    <glyph glyph-name="cdotaccent" unicode="&#x10b;" horiz-adv-x="536" 
d="M280 -12q-100 0 -170 50t-70 152v148q0 104 71.5 159t168.5 55t159.5 -47.5t62.5 -130.5v-46h-168v34q0 50 -48 50q-53 0 -53 -56v-171q0 -59 53 -59q48 0 48 51v34h168v-51q0 -84 -62 -128t-160 -44zM195 589v163h166v-163h-166z" />
    <glyph glyph-name="Ccaron" unicode="&#x10c;" horiz-adv-x="632" 
d="M326 -12q-57 0 -106.5 14t-90 42t-64 76.5t-23.5 112.5v243q0 116 83 182.5t200 66.5q120 0 195.5 -57.5t75.5 -169.5v-53h-190v42q0 34 -22.5 53t-54.5 19q-37 0 -58 -19.5t-21 -57.5v-247q0 -39 20 -60t59 -21q32 0 54.5 19t22.5 53v42h190v-54q0 -111 -74.5 -168.5
t-195.5 -57.5zM249 768l-121 172h142l50 -79l50 79h140l-127 -172h-134z" />
    <glyph glyph-name="ccaron" unicode="&#x10d;" horiz-adv-x="536" 
d="M280 -12q-100 0 -170 50t-70 152v148q0 104 71.5 159t168.5 55t159.5 -47.5t62.5 -130.5v-46h-168v34q0 50 -48 50q-53 0 -53 -56v-171q0 -59 53 -59q48 0 48 51v34h168v-51q0 -84 -62 -128t-160 -44zM198 602l-121 172h142l50 -79l50 79h140l-127 -172h-134z" />
    <glyph glyph-name="Dcaron" unicode="&#x10e;" horiz-adv-x="648" 
d="M50 0v713h289q118 0 192.5 -56t74.5 -167v-254q0 -119 -74.5 -177.5t-191.5 -58.5h-290zM256 164h65q38 0 57.5 23.5t19.5 55.5v228q0 35 -21.5 56t-59.5 21h-61v-384zM240 768l-121 172h142l50 -79l50 79h140l-127 -172h-134z" />
    <glyph glyph-name="dcaron" unicode="&#x10f;" horiz-adv-x="580" 
d="M201 -12q-81 0 -121 50.5t-40 132.5v206q0 72 46.5 123.5t123.5 51.5q86 0 130 -67h1v228h191v-713h-183l-1 78h-4q-23 -38 -62 -64t-81 -26zM284 134q23 0 40 20t17 53v148q0 31 -17.5 45t-38.5 14q-54 0 -54 -55v-170q0 -28 15 -41.5t38 -13.5zM561 491l12 222h155
l-40 -222h-127z" />
    <glyph glyph-name="Dcroat" unicode="&#x110;" horiz-adv-x="673" 
d="M32 287v133h43v293h289q118 0 192.5 -56t74.5 -167v-254q0 -119 -74.5 -177.5t-191.5 -58.5h-290v287h-43zM281 164h65q38 0 57.5 23.5t19.5 55.5v228q0 35 -21.5 56t-59.5 21h-61v-128h95v-133h-95v-123z" />
    <glyph glyph-name="dcroat" unicode="&#x111;" horiz-adv-x="580" 
d="M228 580v89h113v44h191v-44h48v-89h-48v-580h-183l-1 78h-4q-23 -38 -62 -64t-81 -26q-81 0 -121 50.5t-40 132.5v206q0 72 46.5 123.5t123.5 51.5q86 0 130 -67h1v95h-113zM284 134q23 0 40 20t17 53v148q0 31 -17.5 45t-38.5 14q-54 0 -54 -55v-170q0 -28 15 -41.5
t38 -13.5z" />
    <glyph glyph-name="Emacron" unicode="&#x112;" horiz-adv-x="585" 
d="M50 0v713h494v-163h-288v-109h228v-163h-228v-114h289v-164h-495zM123 766v126h348v-126h-348z" />
    <glyph glyph-name="emacron" unicode="&#x113;" horiz-adv-x="554" 
d="M288 -12q-104 0 -176 55.5t-72 159.5v125q0 110 70 167t171 57q104 0 170 -54.5t66 -151.5v-128h-285v-28q0 -58 85 -58q70 0 154 27l35 -124q-99 -47 -218 -47zM232 321h103v45q0 25 -14 39t-38 14q-23 0 -37 -14.5t-14 -38.5v-45zM111 600v126h348v-126h-348z" />
    <glyph glyph-name="Ebreve" unicode="&#x114;" horiz-adv-x="585" 
d="M50 0v713h494v-163h-288v-109h228v-163h-228v-114h289v-164h-495zM312 755q-90 0 -139 49.5t-52 134.5h124q8 -42 21 -58.5t49 -16.5q30 0 42 18t14 57h119q-2 -88 -51 -136t-127 -48z" />
    <glyph glyph-name="ebreve" unicode="&#x115;" horiz-adv-x="554" 
d="M288 -12q-104 0 -176 55.5t-72 159.5v125q0 110 70 167t171 57q104 0 170 -54.5t66 -151.5v-128h-285v-28q0 -58 85 -58q70 0 154 27l35 -124q-99 -47 -218 -47zM232 321h103v45q0 25 -14 39t-38 14q-23 0 -37 -14.5t-14 -38.5v-45zM283 589q-90 0 -139 49.5t-52 134.5
h124q8 -42 21 -58.5t49 -16.5q30 0 42 18t14 57h119q-2 -88 -51 -136t-127 -48z" />
    <glyph glyph-name="Edotaccent" unicode="&#x116;" horiz-adv-x="585" 
d="M50 0v713h494v-163h-288v-109h228v-163h-228v-114h289v-164h-495zM214 755v163h166v-163h-166z" />
    <glyph glyph-name="edotaccent" unicode="&#x117;" horiz-adv-x="554" 
d="M288 -12q-104 0 -176 55.5t-72 159.5v125q0 110 70 167t171 57q104 0 170 -54.5t66 -151.5v-128h-285v-28q0 -58 85 -58q70 0 154 27l35 -124q-99 -47 -218 -47zM232 321h103v45q0 25 -14 39t-38 14q-23 0 -37 -14.5t-14 -38.5v-45zM194 589v163h166v-163h-166z" />
    <glyph glyph-name="Eogonek" unicode="&#x118;" horiz-adv-x="585" 
d="M50 0v713h494v-163h-288v-109h228v-163h-228v-114h289v-164h-40q-38 -12 -57 -34t-19 -48q0 -23 12.5 -34t32.5 -11q27 0 61 24l44 -79q-46 -38 -130 -38q-53 0 -90 27t-37 82q0 65 53 111h-325z" />
    <glyph glyph-name="eogonek" unicode="&#x119;" horiz-adv-x="551" 
d="M288 -12q-104 0 -176 55.5t-72 159.5v125q0 110 70 167t171 57q104 0 170 -54.5t66 -151.5v-128h-285v-28q0 -58 85 -58q70 0 154 27l35 -124q-15 -8 -42 -17q-27 -17 -44.5 -46.5t-17.5 -53.5q0 -23 12.5 -34t32.5 -11q27 0 61 24l44 -79q-46 -38 -130 -38q-53 0 -90 27
t-37 82q0 59 43 102q-26 -3 -50 -3zM232 321h103v45q0 25 -14 39t-38 14q-23 0 -37 -14.5t-14 -38.5v-45z" />
    <glyph glyph-name="Ecaron" unicode="&#x11a;" horiz-adv-x="585" 
d="M50 0v713h494v-163h-288v-109h228v-163h-228v-114h289v-164h-495zM227 768l-121 172h142l50 -79l50 79h140l-127 -172h-134z" />
    <glyph glyph-name="ecaron" unicode="&#x11b;" horiz-adv-x="554" 
d="M288 -12q-104 0 -176 55.5t-72 159.5v125q0 110 70 167t171 57q104 0 170 -54.5t66 -151.5v-128h-285v-28q0 -58 85 -58q70 0 154 27l35 -124q-99 -47 -218 -47zM232 321h103v45q0 25 -14 39t-38 14q-23 0 -37 -14.5t-14 -38.5v-45zM207 602l-121 172h142l50 -79l50 79
h140l-127 -172h-134z" />
    <glyph glyph-name="Gcircumflex" unicode="&#x11c;" horiz-adv-x="638" 
d="M326 -12q-78 0 -140 23.5t-103 80.5t-41 141v252q0 116 82.5 178t200.5 62q52 0 98 -11t85.5 -34t63 -65t23.5 -98v-52h-190v22q0 34 -20.5 53t-51.5 19q-38 0 -60.5 -20.5t-22.5 -57.5v-246q0 -39 20.5 -62.5t58.5 -23.5q73 0 73 70v36h-97v142h290v-196
q0 -107 -78.5 -160t-190.5 -53zM129 760l122 172h134l121 -172h-142l-50 79l-50 -79h-135z" />
    <glyph glyph-name="gcircumflex" unicode="&#x11d;" horiz-adv-x="581" 
d="M264 -188q-111 0 -205 37l45 138q82 -28 150 -28q46 0 67 16.5t21 52.5v86h-2q-16 -41 -53 -68t-83 -27q-80 0 -122 49t-42 128v184q0 73 48.5 122.5t126.5 49.5q38 0 77 -22t58 -53h2l6 64h175v-486q0 -119 -70 -181t-199 -62zM285 160q24 0 40 15t16 48v131
q0 31 -17.5 45.5t-38.5 14.5q-27 0 -40.5 -13.5t-13.5 -46.5v-135q0 -35 14 -47t40 -12zM90 594l122 172h134l121 -172h-142l-50 79l-50 -79h-135z" />
    <glyph glyph-name="Gbreve" unicode="&#x11e;" horiz-adv-x="638" 
d="M326 -12q-78 0 -140 23.5t-103 80.5t-41 141v252q0 116 82.5 178t200.5 62q52 0 98 -11t85.5 -34t63 -65t23.5 -98v-52h-190v22q0 34 -20.5 53t-51.5 19q-38 0 -60.5 -20.5t-22.5 -57.5v-246q0 -39 20.5 -62.5t58.5 -23.5q73 0 73 70v36h-97v142h290v-196
q0 -107 -78.5 -160t-190.5 -53zM325 762q-90 0 -139 49.5t-52 134.5h124q8 -42 21 -58.5t49 -16.5q30 0 42 18t14 57h119q-2 -88 -51 -136t-127 -48z" />
    <glyph glyph-name="gbreve" unicode="&#x11f;" horiz-adv-x="581" 
d="M264 -188q-111 0 -205 37l45 138q82 -28 150 -28q46 0 67 16.5t21 52.5v86h-2q-16 -41 -53 -68t-83 -27q-80 0 -122 49t-42 128v184q0 73 48.5 122.5t126.5 49.5q38 0 77 -22t58 -53h2l6 64h175v-486q0 -119 -70 -181t-199 -62zM285 160q24 0 40 15t16 48v131
q0 31 -17.5 45.5t-38.5 14.5q-27 0 -40.5 -13.5t-13.5 -46.5v-135q0 -35 14 -47t40 -12zM308 589q-90 0 -139 49.5t-52 134.5h124q8 -42 21 -58.5t49 -16.5q30 0 42 18t14 57h119q-2 -88 -51 -136t-127 -48z" />
    <glyph glyph-name="Gdotaccent" unicode="&#x120;" horiz-adv-x="638" 
d="M326 -12q-78 0 -140 23.5t-103 80.5t-41 141v252q0 116 82.5 178t200.5 62q52 0 98 -11t85.5 -34t63 -65t23.5 -98v-52h-190v22q0 34 -20.5 53t-51.5 19q-38 0 -60.5 -20.5t-22.5 -57.5v-246q0 -39 20.5 -62.5t58.5 -23.5q73 0 73 70v36h-97v142h290v-196
q0 -107 -78.5 -160t-190.5 -53zM244 762v163h166v-163h-166z" />
    <glyph glyph-name="gdotaccent" unicode="&#x121;" horiz-adv-x="581" 
d="M264 -188q-111 0 -205 37l45 138q82 -28 150 -28q46 0 67 16.5t21 52.5v86h-2q-16 -41 -53 -68t-83 -27q-80 0 -122 49t-42 128v184q0 73 48.5 122.5t126.5 49.5q38 0 77 -22t58 -53h2l6 64h175v-486q0 -119 -70 -181t-199 -62zM285 160q24 0 40 15t16 48v131
q0 31 -17.5 45.5t-38.5 14.5q-27 0 -40.5 -13.5t-13.5 -46.5v-135q0 -35 14 -47t40 -12zM207 589v163h166v-163h-166z" />
    <glyph glyph-name="Gcommaaccent" unicode="&#x122;" horiz-adv-x="638" 
d="M326 -12q-78 0 -140 23.5t-103 80.5t-41 141v252q0 116 82.5 178t200.5 62q52 0 98 -11t85.5 -34t63 -65t23.5 -98v-52h-190v22q0 34 -20.5 53t-51.5 19q-38 0 -60.5 -20.5t-22.5 -57.5v-246q0 -39 20.5 -62.5t58.5 -23.5q73 0 73 70v36h-97v142h290v-196
q0 -107 -78.5 -160t-190.5 -53zM259 -218l12 185h155l-40 -185h-127z" />
    <glyph glyph-name="gcommaaccent" unicode="&#x123;" horiz-adv-x="581" 
d="M264 -188q-111 0 -205 37l45 138q82 -28 150 -28q46 0 67 16.5t21 52.5v86h-2q-16 -41 -53 -68t-83 -27q-80 0 -122 49t-42 128v184q0 73 48.5 122.5t126.5 49.5q38 0 77 -22t58 -53h2l6 64h175v-486q0 -119 -70 -181t-199 -62zM285 160q24 0 40 15t16 48v131
q0 31 -17.5 45.5t-38.5 14.5q-27 0 -40.5 -13.5t-13.5 -46.5v-135q0 -35 14 -47t40 -12zM199 588v97l53 136h79l-22 -100h55v-133h-165z" />
    <glyph glyph-name="Hcircumflex" unicode="&#x124;" horiz-adv-x="664" 
d="M50 0v713h206v-264h152v264h206v-713h-206v269h-152v-269h-206zM143 767l122 172h134l121 -172h-142l-50 79l-50 -79h-135z" />
    <glyph glyph-name="hcircumflex" unicode="&#x125;" horiz-adv-x="584" 
d="M48 0v713h191v-247h2q59 86 150 86q58 0 103.5 -40.5t45.5 -110.5v-401h-191v337q0 67 -56 67q-22 0 -38 -20t-16 -56v-328h-191zM-37 757l122 172h134l121 -172h-142l-50 79l-50 -79h-135z" />
    <glyph glyph-name="Hbar" unicode="&#x126;" horiz-adv-x="691" 
d="M12 543v77h51v93h206v-93h152v93h206v-93h52v-77h-52v-543h-206v269h-152v-269h-206v543h-51zM269 449h152v94h-152v-94z" />
    <glyph glyph-name="hbar" unicode="&#x127;" horiz-adv-x="584" 
d="M0 580v89h48v44h191v-44h111v-89h-111v-114h2q59 86 150 86q58 0 103.5 -40.5t45.5 -110.5v-401h-191v337q0 67 -56 67q-22 0 -38 -20t-16 -56v-328h-191v580h-48z" />
    <glyph glyph-name="Itilde" unicode="&#x128;" horiz-adv-x="306" 
d="M50 0v713h206v-713h-206zM33 751l-89 18q9 65 42.5 109t87.5 44q28 0 82 -17.5t81 -17.5q17 0 27.5 12t19.5 38l79 -21q-8 -64 -39 -106.5t-87 -42.5q-27 0 -79.5 17t-78.5 17q-19 0 -28.5 -11t-17.5 -39z" />
    <glyph glyph-name="itilde" unicode="&#x129;" horiz-adv-x="287" 
d="M48 0v540h191v-540h-191zM23 585l-89 18q9 65 42.5 109t87.5 44q28 0 82 -17.5t81 -17.5q17 0 27.5 12t19.5 38l79 -21q-8 -64 -39 -106.5t-87 -42.5q-27 0 -79.5 17t-78.5 17q-19 0 -28.5 -11t-17.5 -39z" />
    <glyph glyph-name="Imacron" unicode="&#x12a;" horiz-adv-x="306" 
d="M50 0v713h206v-713h-206zM-21 766v126h348v-126h-348z" />
    <glyph glyph-name="imacron" unicode="&#x12b;" horiz-adv-x="287" 
d="M48 0v540h191v-540h-191zM-30 600v126h348v-126h-348z" />
    <glyph glyph-name="Ibreve" unicode="&#x12c;" horiz-adv-x="306" 
d="M50 0v713h206v-713h-206zM160 755q-90 0 -139 49.5t-52 134.5h124q8 -42 21 -58.5t49 -16.5q30 0 42 18t14 57h119q-2 -88 -51 -136t-127 -48z" />
    <glyph glyph-name="ibreve" unicode="&#x12d;" horiz-adv-x="287" 
d="M48 0v540h191v-540h-191zM150 589q-90 0 -139 49.5t-52 134.5h124q8 -42 21 -58.5t49 -16.5q30 0 42 18t14 57h119q-2 -88 -51 -136t-127 -48z" />
    <glyph glyph-name="Iogonek" unicode="&#x12e;" horiz-adv-x="306" 
d="M50 0v713h206v-713h-37q-63 -24 -63 -80q0 -40 47 -40q16 0 44 17l38 -78q-47 -32 -116 -32q-47 0 -82.5 28.5t-35.5 81.5q0 60 48 103h-49z" />
    <glyph glyph-name="iogonek" unicode="&#x12f;" horiz-adv-x="287" 
d="M48 0v540h191v-540h-13q-63 -24 -63 -80q0 -40 47 -40q16 0 44 17l38 -78q-47 -32 -116 -32q-47 0 -82.5 28.5t-35.5 81.5q0 60 48 103h-58zM48 590v161h191v-161h-191z" />
    <glyph glyph-name="Idotaccent" unicode="&#x130;" horiz-adv-x="306" 
d="M50 0v713h206v-713h-206zM70 755v163h166v-163h-166z" />
    <glyph glyph-name="dotlessi" unicode="&#x131;" horiz-adv-x="287" 
d="M48 0v540h191v-540h-191z" />
    <glyph glyph-name="IJ" unicode="&#x132;" horiz-adv-x="887" 
d="M50 0v713h206v-713h-206zM577 -12q-134 0 -203.5 54t-69.5 177v46h203v-40q0 -74 65 -74q32 0 46.5 20.5t14.5 50.5v491h206v-478q0 -117 -69.5 -182t-192.5 -65z" />
    <glyph glyph-name="ij" unicode="&#x133;" horiz-adv-x="554" 
d="M48 0v540h191v-540h-191zM48 590v161h191v-161h-191zM339 -188q-43 0 -77 5v161q10 -2 27 -2q18 0 24 9t6 28v527h191v-563q0 -79 -49.5 -122t-121.5 -43zM319 590v161h191v-161h-191z" />
    <glyph glyph-name="Jcircumflex" unicode="&#x134;" horiz-adv-x="609" 
d="M299 -12q-134 0 -203.5 54t-69.5 177v46h203v-40q0 -74 65 -74q32 0 46.5 20.5t14.5 50.5v491h206v-478q0 -117 -69.5 -182t-192.5 -65zM261 760l122 172h134l121 -172h-142l-50 79l-50 -79h-135z" />
    <glyph glyph-name="jcircumflex" unicode="&#x135;" horiz-adv-x="298" 
d="M83 -188q-43 0 -77 5v161q10 -2 27 -2q18 0 24 9t6 28v527h191v-563q0 -79 -49.5 -122t-121.5 -43zM-39 594l122 172h134l121 -172h-142l-50 79l-50 -79h-135z" />
    <glyph glyph-name="Kcommaaccent" unicode="&#x136;" horiz-adv-x="650" 
d="M50 0v713h206v-310l178 310h200l-169 -282l171 -431h-223l-103 279l-54 -77v-202h-206zM243 -218l12 185h155l-40 -185h-127z" />
    <glyph glyph-name="kcommaaccent" unicode="&#x137;" horiz-adv-x="566" 
d="M48 0v713h191v-388l123 215h190l-119 -185l126 -355h-203l-70 221l-47 -73v-148h-191zM201 -218l12 185h155l-40 -185h-127z" />
    <glyph glyph-name="kgreenlandic" unicode="&#x138;" horiz-adv-x="566" 
d="M48 0v540h191v-215l123 215h190l-119 -185l126 -355h-203l-70 221l-47 -73v-148h-191z" />
    <glyph glyph-name="Lacute" unicode="&#x139;" horiz-adv-x="577" 
d="M50 0v713h206v-549h289v-164h-495zM95 759l83 163h182l-128 -163h-137z" />
    <glyph glyph-name="lacute" unicode="&#x13a;" horiz-adv-x="328" 
d="M201 -11q-74 0 -115.5 35t-41.5 100v589h192v-528q0 -17 6.5 -25t27.5 -8q14 0 34 3v-149q-53 -17 -103 -17zM71 756l83 163h182l-128 -163h-137z" />
    <glyph glyph-name="Lcommaaccent" unicode="&#x13b;" horiz-adv-x="577" 
d="M50 0v713h206v-549h289v-164h-495zM223 -218l12 185h155l-40 -185h-127z" />
    <glyph glyph-name="lcommaaccent" unicode="&#x13c;" horiz-adv-x="328" 
d="M201 -11q-74 0 -115.5 35t-41.5 100v589h192v-528q0 -17 6.5 -25t27.5 -8q14 0 34 3v-149q-53 -17 -103 -17zM82 -218l12 185h155l-40 -185h-127z" />
    <glyph glyph-name="Lcaron" unicode="&#x13d;" horiz-adv-x="577" 
d="M50 0v713h206v-549h289v-164h-495zM296 492l12 222h155l-40 -222h-127z" />
    <glyph glyph-name="lcaron" unicode="&#x13e;" horiz-adv-x="328" 
d="M201 -11q-74 0 -115.5 35t-41.5 100v589h192v-528q0 -17 6.5 -25t27.5 -8q14 0 34 3v-149q-53 -17 -103 -17zM267 491l12 222h155l-40 -222h-127z" />
    <glyph glyph-name="Ldot" unicode="&#x13f;" horiz-adv-x="577" 
d="M50 0v713h206v-549h289v-164h-495zM310 349v163h166v-163h-166z" />
    <glyph glyph-name="ldot" unicode="&#x140;" horiz-adv-x="448" 
d="M201 -11q-74 0 -115.5 35t-41.5 100v589h192v-528q0 -17 6.5 -25t27.5 -8q14 0 34 3v-149q-53 -17 -103 -17zM270 314v170h166v-170h-166z" />
    <glyph glyph-name="Lslash" unicode="&#x141;" horiz-adv-x="609" 
d="M32 232v115l50 28v338h206v-220l84 48v-115l-84 -48v-214h289v-164h-495v260z" />
    <glyph glyph-name="lslash" unicode="&#x142;" horiz-adv-x="356" 
d="M22 258v117l49 26v312h192v-209l69 37v-117l-69 -37v-202q0 -17 6.5 -25t27.5 -8q15 0 34 3v-149q-53 -17 -103 -17q-74 0 -115.5 35t-41.5 100v160z" />
    <glyph glyph-name="Nacute" unicode="&#x143;" horiz-adv-x="676" 
d="M50 0v713h202l187 -312h2v312h185v-713h-172l-217 356h-2v-356h-185zM258 759l83 163h182l-128 -163h-137z" />
    <glyph glyph-name="nacute" unicode="&#x144;" horiz-adv-x="584" 
d="M48 0v540h185v-73h2q66 85 156 85q58 0 103.5 -40.5t45.5 -110.5v-401h-191v337q0 67 -56 67q-22 0 -38 -20t-16 -56v-328h-191zM230 593l83 163h182l-128 -163h-137z" />
    <glyph glyph-name="Ncommaaccent" unicode="&#x145;" horiz-adv-x="676" 
d="M50 0v713h202l187 -312h2v312h185v-713h-172l-217 356h-2v-356h-185zM272 -218l12 185h155l-40 -185h-127z" />
    <glyph glyph-name="ncommaaccent" unicode="&#x146;" horiz-adv-x="584" 
d="M48 0v540h185v-73h2q66 85 156 85q58 0 103.5 -40.5t45.5 -110.5v-401h-191v337q0 67 -56 67q-22 0 -38 -20t-16 -56v-328h-191zM210 -218l12 185h155l-40 -185h-127z" />
    <glyph glyph-name="Ncaron" unicode="&#x147;" horiz-adv-x="676" 
d="M50 0v713h202l187 -312h2v312h185v-713h-172l-217 356h-2v-356h-185zM268 768l-121 172h142l50 -79l50 79h140l-127 -172h-134z" />
    <glyph glyph-name="ncaron" unicode="&#x148;" horiz-adv-x="584" 
d="M48 0v540h185v-73h2q66 85 156 85q58 0 103.5 -40.5t45.5 -110.5v-401h-191v337q0 67 -56 67q-22 0 -38 -20t-16 -56v-328h-191zM222 602l-121 172h142l50 -79l50 79h140l-127 -172h-134z" />
    <glyph glyph-name="Eng" unicode="&#x14a;" horiz-adv-x="676" 
d="M455 -188q-43 0 -77 5v161q10 -2 27 -2q18 0 24 9t6 28v18l-198 325h-2v-356h-185v713h202l187 -312h2v312h185v-736q0 -79 -49.5 -122t-121.5 -43z" />
    <glyph glyph-name="eng" unicode="&#x14b;" horiz-adv-x="584" 
d="M369 -188q-43 0 -77 5v161q10 -2 27 -2q18 0 24 9t6 28v324q0 67 -56 67q-22 0 -38 -20t-16 -56v-328h-191v540h185v-73h2q66 85 156 85q58 0 103.5 -40.5t45.5 -110.5v-424q0 -79 -49.5 -122t-121.5 -43z" />
    <glyph glyph-name="Omacron" unicode="&#x14c;" horiz-adv-x="658" 
d="M329 -12q-126 0 -206.5 61t-80.5 192v229q0 124 81.5 189.5t203.5 65.5q59 0 109 -14t91.5 -43t65 -79.5t23.5 -118.5v-228q0 -128 -83 -191t-204 -63zM330 155q36 0 57 22t21 60v240q0 39 -23 60t-57 21q-78 0 -78 -81v-237q0 -85 80 -85zM155 766v126h348v-126h-348z
" />
    <glyph glyph-name="omacron" unicode="&#x14d;" horiz-adv-x="568" 
d="M284 -12q-48 0 -89.5 10.5t-77 33t-56.5 63.5t-21 97v147q0 104 71 158.5t171 54.5q47 0 89 -11.5t78 -34.5t57.5 -65t21.5 -98v-150q0 -71 -37.5 -119t-90.5 -67t-116 -19zM285 128q50 0 50 56v168q0 26 -14.5 42.5t-36.5 16.5q-25 0 -38 -17t-13 -44v-168q0 -54 52 -54
zM110 600v126h348v-126h-348z" />
    <glyph glyph-name="Obreve" unicode="&#x14e;" horiz-adv-x="658" 
d="M329 -12q-126 0 -206.5 61t-80.5 192v229q0 124 81.5 189.5t203.5 65.5q59 0 109 -14t91.5 -43t65 -79.5t23.5 -118.5v-228q0 -128 -83 -191t-204 -63zM330 155q36 0 57 22t21 60v240q0 39 -23 60t-57 21q-78 0 -78 -81v-237q0 -85 80 -85zM336 755q-90 0 -139 49.5
t-52 134.5h124q8 -42 21 -58.5t49 -16.5q30 0 42 18t14 57h119q-2 -88 -51 -136t-127 -48z" />
    <glyph glyph-name="obreve" unicode="&#x14f;" horiz-adv-x="568" 
d="M284 -12q-48 0 -89.5 10.5t-77 33t-56.5 63.5t-21 97v147q0 104 71 158.5t171 54.5q47 0 89 -11.5t78 -34.5t57.5 -65t21.5 -98v-150q0 -71 -37.5 -119t-90.5 -67t-116 -19zM285 128q50 0 50 56v168q0 26 -14.5 42.5t-36.5 16.5q-25 0 -38 -17t-13 -44v-168q0 -54 52 -54
zM290 589q-90 0 -139 49.5t-52 134.5h124q8 -42 21 -58.5t49 -16.5q30 0 42 18t14 57h119q-2 -88 -51 -136t-127 -48z" />
    <glyph glyph-name="Ohungarumlaut" unicode="&#x150;" horiz-adv-x="658" 
d="M329 -12q-126 0 -206.5 61t-80.5 192v229q0 124 81.5 189.5t203.5 65.5q59 0 109 -14t91.5 -43t65 -79.5t23.5 -118.5v-228q0 -128 -83 -191t-204 -63zM330 155q36 0 57 22t21 60v240q0 39 -23 60t-57 21q-78 0 -78 -81v-237q0 -85 80 -85zM153 757l61 161h151l-85 -161
h-127zM358 757l69 161h151l-97 -161h-123z" />
    <glyph glyph-name="ohungarumlaut" unicode="&#x151;" horiz-adv-x="568" 
d="M284 -12q-48 0 -89.5 10.5t-77 33t-56.5 63.5t-21 97v147q0 104 71 158.5t171 54.5q47 0 89 -11.5t78 -34.5t57.5 -65t21.5 -98v-150q0 -71 -37.5 -119t-90.5 -67t-116 -19zM285 128q50 0 50 56v168q0 26 -14.5 42.5t-36.5 16.5q-25 0 -38 -17t-13 -44v-168q0 -54 52 -54
zM118 591l61 161h151l-85 -161h-127zM323 591l69 161h151l-97 -161h-123z" />
    <glyph glyph-name="OE" unicode="&#x152;" horiz-adv-x="943" 
d="M306 -11q-264 0 -264 253v227q0 126 71.5 190.5t190.5 64.5q61 0 104 -30v19h495v-163h-289v-111h229v-163h-229v-112h289v-164h-495v17q-43 -28 -102 -28zM330 156q36 0 57 22t21 60v244q0 38 -22.5 56.5t-57.5 18.5q-78 0 -78 -81v-235q0 -85 80 -85z" />
    <glyph glyph-name="oe" unicode="&#x153;" horiz-adv-x="849" 
d="M278 -12q-48 0 -88.5 10.5t-75 33t-54.5 63.5t-20 97v147q0 104 71 158.5t171 54.5q88 0 151 -38q60 38 142 38q105 0 171 -54.5t66 -151.5v-128h-286v-28q0 -34 24.5 -46t69.5 -12q62 0 146 27l35 -124q-99 -47 -224 -47q-82 0 -144 38q-70 -38 -155 -38zM285 128
q50 0 50 56v168q0 26 -14.5 42.5t-36.5 16.5q-25 0 -38 -17t-13 -44v-168q0 -54 52 -54zM526 321h104v45q0 25 -14.5 39t-38.5 14q-23 0 -37 -14.5t-14 -38.5v-45z" />
    <glyph glyph-name="Racute" unicode="&#x154;" horiz-adv-x="651" 
d="M50 0v713h312q121 0 184 -61t63 -163q0 -148 -109 -205l129 -284h-225l-90 247h-58v-247h-206zM256 391h80q34 0 52.5 21t18.5 61q0 37 -18 59t-52 22h-81v-163zM227 759l83 163h182l-128 -163h-137z" />
    <glyph glyph-name="racute" unicode="&#x155;" horiz-adv-x="433" 
d="M48 0v540h188v-80h1q45 87 116 87q37 0 56 -6v-178q-29 3 -57 3q-113 0 -113 -71v-295h-191zM142 593l83 163h182l-128 -163h-137z" />
    <glyph glyph-name="Rcommaaccent" unicode="&#x156;" horiz-adv-x="651" 
d="M50 0v713h312q121 0 184 -61t63 -163q0 -148 -109 -205l129 -284h-225l-90 247h-58v-247h-206zM256 391h80q34 0 52.5 21t18.5 61q0 37 -18 59t-52 22h-81v-163zM243 -218l12 185h155l-40 -185h-127z" />
    <glyph glyph-name="rcommaaccent" unicode="&#x157;" horiz-adv-x="427" 
d="M48 0v540h188v-80h1q45 87 116 87q37 0 56 -6v-178q-29 3 -57 3q-113 0 -113 -71v-295h-191zM75 -218l12 185h155l-40 -185h-127z" />
    <glyph glyph-name="Rcaron" unicode="&#x158;" horiz-adv-x="651" 
d="M50 0v713h312q121 0 184 -61t63 -163q0 -148 -109 -205l129 -284h-225l-90 247h-58v-247h-206zM256 391h80q34 0 52.5 21t18.5 61q0 37 -18 59t-52 22h-81v-163zM242 768l-121 172h142l50 -79l50 79h140l-127 -172h-134z" />
    <glyph glyph-name="rcaron" unicode="&#x159;" horiz-adv-x="427" 
d="M48 0v540h188v-80h1q45 87 116 87q37 0 56 -6v-178q-29 3 -57 3q-113 0 -113 -71v-295h-191zM143 602l-121 172h142l50 -79l50 79h140l-127 -172h-134z" />
    <glyph glyph-name="Sacute" unicode="&#x15a;" horiz-adv-x="615" 
d="M294 -12q-180 0 -278 101l105 129q35 -30 81 -52t88 -22q30 0 50.5 13t20.5 35q0 21 -16.5 33t-48.5 24l-94 36q-152 59 -152 207q0 97 73 164.5t191 67.5q167 0 253 -82l-97 -131q-31 25 -74 44t-76 19t-52 -13.5t-19 -36.5q0 -10 5 -18t16 -14.5t21 -10.5t27 -10.5
t26 -10.5l78 -34q158 -69 158 -205q0 -78 -43.5 -132.5t-106 -77.5t-136.5 -23zM227 759l83 163h182l-128 -163h-137z" />
    <glyph glyph-name="sacute" unicode="&#x15b;" horiz-adv-x="511" 
d="M247 -12q-135 0 -227 58l76 124q81 -52 144 -52q57 0 57 32q0 19 -58 36l-40 12q-150 45 -150 168q0 68 52.5 127t151.5 59q117 0 212 -64l-73 -116q-73 51 -131 51q-18 0 -31.5 -7.5t-13.5 -20.5q0 -15 10.5 -22t33.5 -15l66 -22q81 -27 116 -66.5t35 -97.5
q0 -84 -64.5 -134t-165.5 -50zM173 593l83 163h182l-128 -163h-137z" />
    <glyph glyph-name="Scircumflex" unicode="&#x15c;" horiz-adv-x="615" 
d="M294 -12q-180 0 -278 101l105 129q35 -30 81 -52t88 -22q30 0 50.5 13t20.5 35q0 21 -16.5 33t-48.5 24l-94 36q-152 59 -152 207q0 97 73 164.5t191 67.5q167 0 253 -82l-97 -131q-31 25 -74 44t-76 19t-52 -13.5t-19 -36.5q0 -10 5 -18t16 -14.5t21 -10.5t27 -10.5
t26 -10.5l78 -34q158 -69 158 -205q0 -78 -43.5 -132.5t-106 -77.5t-136.5 -23zM110 760l122 172h134l121 -172h-142l-50 79l-50 -79h-135z" />
    <glyph glyph-name="scircumflex" unicode="&#x15d;" horiz-adv-x="510" 
d="M247 -12q-135 0 -227 58l76 124q81 -52 144 -52q57 0 57 32q0 19 -58 36l-40 12q-150 45 -150 168q0 68 52.5 127t151.5 59q117 0 212 -64l-73 -116q-73 51 -131 51q-18 0 -31.5 -7.5t-13.5 -20.5q0 -15 10.5 -22t33.5 -15l66 -22q81 -27 116 -66.5t35 -97.5
q0 -84 -64.5 -134t-165.5 -50zM66 594l122 172h134l121 -172h-142l-50 79l-50 -79h-135z" />
    <glyph glyph-name="Scedilla" unicode="&#x15e;" horiz-adv-x="615" 
d="M288 -218q-63 0 -110 12v74q56 -14 102 -14q35 0 35 21q0 18 -37 21l-51 3l25 91q-152 12 -236 99l105 129q35 -30 81 -52t88 -22q30 0 50.5 13t20.5 35q0 21 -16.5 33t-48.5 24l-94 36q-152 59 -152 207q0 97 73 164.5t191 67.5q167 0 253 -82l-97 -131q-31 25 -74 44
t-76 19t-52 -13.5t-19 -36.5q0 -10 5 -18t16 -14.5t21 -10.5t27 -10.5t26 -10.5l78 -34q158 -69 158 -205q0 -107 -75 -166t-183 -66l-10 -38q48 1 86.5 -14.5t38.5 -56.5q0 -45 -44 -71.5t-105 -26.5z" />
    <glyph glyph-name="scedilla" unicode="&#x15f;" horiz-adv-x="510" 
d="M255 -218q-63 0 -110 12v74q56 -14 102 -14q35 0 35 21q0 18 -37 21l-51 3l25 90q-117 4 -199 57l76 124q81 -52 144 -52q57 0 57 32q0 19 -58 36l-40 12q-150 45 -150 168q0 68 52.5 127t151.5 59q117 0 212 -64l-73 -116q-73 51 -131 51q-18 0 -31.5 -7.5t-13.5 -20.5
q0 -15 10.5 -22t33.5 -15l66 -22q81 -27 116 -66.5t35 -97.5q0 -74 -51.5 -122.5t-136.5 -58.5l-10 -40q48 1 86.5 -14.5t38.5 -56.5q0 -45 -44 -71.5t-105 -26.5z" />
    <glyph glyph-name="Scaron" unicode="&#x160;" horiz-adv-x="615" 
d="M294 -12q-180 0 -278 101l105 129q35 -30 81 -52t88 -22q30 0 50.5 13t20.5 35q0 21 -16.5 33t-48.5 24l-94 36q-152 59 -152 207q0 97 73 164.5t191 67.5q167 0 253 -82l-97 -131q-31 25 -74 44t-76 19t-52 -13.5t-19 -36.5q0 -10 5 -18t16 -14.5t21 -10.5t27 -10.5
t26 -10.5l78 -34q158 -69 158 -205q0 -78 -43.5 -132.5t-106 -77.5t-136.5 -23zM228 768l-121 172h142l50 -79l50 79h140l-127 -172h-134z" />
    <glyph glyph-name="scaron" unicode="&#x161;" horiz-adv-x="510" 
d="M247 -12q-135 0 -227 58l76 124q81 -52 144 -52q57 0 57 32q0 19 -58 36l-40 12q-150 45 -150 168q0 68 52.5 127t151.5 59q117 0 212 -64l-73 -116q-73 51 -131 51q-18 0 -31.5 -7.5t-13.5 -20.5q0 -15 10.5 -22t33.5 -15l66 -22q81 -27 116 -66.5t35 -97.5
q0 -84 -64.5 -134t-165.5 -50zM188 602l-121 172h142l50 -79l50 79h140l-127 -172h-134z" />
    <glyph glyph-name="Tcommaaccent" unicode="&#x162;" horiz-adv-x="602" 
d="M197 0v550h-177v163h562v-163h-177v-550h-208zM219 -218l12 185h155l-40 -185h-127z" />
    <glyph glyph-name="tcommaaccent" unicode="&#x163;" horiz-adv-x="422" 
d="M254 -10q-69 0 -115 33.5t-46 111.5v242h-65v154h65v140h192v-140h105v-154h-105v-187q0 -37 38 -37q26 0 49 4v-151q-55 -16 -118 -16zM158 -218l12 185h155l-40 -185h-127z" />
    <glyph glyph-name="Tcaron" unicode="&#x164;" horiz-adv-x="602" 
d="M197 0v550h-177v163h562v-163h-177v-550h-208zM231 768l-121 172h142l50 -79l50 79h140l-127 -172h-134z" />
    <glyph glyph-name="tcaron" unicode="&#x165;" horiz-adv-x="445" 
d="M324 559l8 152h155l-36 -152h-127zM254 -10q-69 0 -115 33.5t-46 111.5v242h-65v154h65v140h192v-140h105v-154h-105v-187q0 -37 38 -37q26 0 49 4v-151q-55 -16 -118 -16z" />
    <glyph glyph-name="Tbar" unicode="&#x166;" horiz-adv-x="602" 
d="M84 303v85h113v162h-177v163h562v-163h-177v-162h112v-85h-112v-303h-208v303h-113z" />
    <glyph glyph-name="tbar" unicode="&#x167;" horiz-adv-x="422" 
d="M56 237v80h37v60h-65v154h65v140h192v-140h105v-154h-105v-60h52v-80h-52v-47q0 -37 38 -37q26 0 49 4v-151q-55 -16 -118 -16q-69 0 -115 33.5t-46 111.5v102h-37z" />
    <glyph glyph-name="Utilde" unicode="&#x168;" horiz-adv-x="656" 
d="M330 -12q-135 0 -209.5 61.5t-74.5 186.5v477h206v-471q0 -44 22.5 -67t59.5 -23q34 0 55.5 24t21.5 66v471h199v-463q0 -126 -75 -194t-205 -68zM228 751l-89 18q9 65 42.5 109t87.5 44q28 0 82 -17.5t81 -17.5q17 0 27.5 12t19.5 38l79 -21q-8 -64 -39 -106.5
t-87 -42.5q-27 0 -79.5 17t-78.5 17q-19 0 -28.5 -11t-17.5 -39z" />
    <glyph glyph-name="utilde" unicode="&#x169;" horiz-adv-x="584" 
d="M193 -12q-58 0 -103.5 40.5t-45.5 110.5v401h191v-337q0 -68 56 -68q22 0 38 20.5t16 55.5v329h191v-540h-177l-6 82h-2q-27 -41 -69.5 -67.5t-88.5 -26.5zM171 585l-89 18q9 65 42.5 109t87.5 44q28 0 82 -17.5t81 -17.5q17 0 27.5 12t19.5 38l79 -21q-8 -64 -39 -106.5
t-87 -42.5q-27 0 -79.5 17t-78.5 17q-19 0 -28.5 -11t-17.5 -39z" />
    <glyph glyph-name="Umacron" unicode="&#x16a;" horiz-adv-x="656" 
d="M330 -12q-135 0 -209.5 61.5t-74.5 186.5v477h206v-471q0 -44 22.5 -67t59.5 -23q34 0 55.5 24t21.5 66v471h199v-463q0 -126 -75 -194t-205 -68zM154 766v126h348v-126h-348z" />
    <glyph glyph-name="umacron" unicode="&#x16b;" horiz-adv-x="584" 
d="M193 -12q-58 0 -103.5 40.5t-45.5 110.5v401h191v-337q0 -68 56 -68q22 0 38 20.5t16 55.5v329h191v-540h-177l-6 82h-2q-27 -41 -69.5 -67.5t-88.5 -26.5zM118 600v126h348v-126h-348z" />
    <glyph glyph-name="Ubreve" unicode="&#x16c;" horiz-adv-x="656" 
d="M330 -12q-135 0 -209.5 61.5t-74.5 186.5v477h206v-471q0 -44 22.5 -67t59.5 -23q34 0 55.5 24t21.5 66v471h199v-463q0 -126 -75 -194t-205 -68zM335 755q-90 0 -139 49.5t-52 134.5h124q8 -42 21 -58.5t49 -16.5q30 0 42 18t14 57h119q-2 -88 -51 -136t-127 -48z" />
    <glyph glyph-name="ubreve" unicode="&#x16d;" horiz-adv-x="584" 
d="M193 -12q-58 0 -103.5 40.5t-45.5 110.5v401h191v-337q0 -68 56 -68q22 0 38 20.5t16 55.5v329h191v-540h-177l-6 82h-2q-27 -41 -69.5 -67.5t-88.5 -26.5zM298 589q-90 0 -139 49.5t-52 134.5h124q8 -42 21 -58.5t49 -16.5q30 0 42 18t14 57h119q-2 -88 -51 -136
t-127 -48z" />
    <glyph glyph-name="Uring" unicode="&#x16e;" horiz-adv-x="656" 
d="M330 -12q-135 0 -209.5 61.5t-74.5 186.5v477h206v-471q0 -44 22.5 -67t59.5 -23q34 0 55.5 24t21.5 66v471h199v-463q0 -126 -75 -194t-205 -68zM327 745q-47 0 -78 29t-31 78q0 47 32 79t77 32q48 0 79.5 -28t31.5 -77q0 -48 -33 -80.5t-78 -32.5zM327 804q42 0 42 50
t-44 50q-40 0 -40 -50t42 -50z" />
    <glyph glyph-name="uring" unicode="&#x16f;" horiz-adv-x="584" 
d="M193 -12q-58 0 -103.5 40.5t-45.5 110.5v401h191v-337q0 -68 56 -68q22 0 38 20.5t16 55.5v329h191v-540h-177l-6 82h-2q-27 -41 -69.5 -67.5t-88.5 -26.5zM291 579q-47 0 -78 29t-31 78q0 47 32 79t77 32q48 0 79.5 -28t31.5 -77q0 -48 -33 -80.5t-78 -32.5zM291 638
q42 0 42 50t-44 50q-40 0 -40 -50t42 -50z" />
    <glyph glyph-name="Uhungarumlaut" unicode="&#x170;" horiz-adv-x="656" 
d="M330 -12q-135 0 -209.5 61.5t-74.5 186.5v477h206v-471q0 -44 22.5 -67t59.5 -23q34 0 55.5 24t21.5 66v471h199v-463q0 -126 -75 -194t-205 -68zM161 757l61 161h151l-85 -161h-127zM366 757l69 161h151l-97 -161h-123z" />
    <glyph glyph-name="uhungarumlaut" unicode="&#x171;" horiz-adv-x="584" 
d="M193 -12q-58 0 -103.5 40.5t-45.5 110.5v401h191v-337q0 -68 56 -68q22 0 38 20.5t16 55.5v329h191v-540h-177l-6 82h-2q-27 -41 -69.5 -67.5t-88.5 -26.5zM70 591l61 161h151l-85 -161h-127zM275 591l69 161h151l-97 -161h-123z" />
    <glyph glyph-name="Uogonek" unicode="&#x172;" horiz-adv-x="656" 
d="M391 -220q-53 0 -90 27t-37 82q0 57 41 100q-124 5 -191.5 66.5t-67.5 180.5v477h206v-471q0 -44 22.5 -67t59.5 -23q34 0 55.5 24t21.5 66v471h199v-463q0 -102 -49.5 -166.5t-139.5 -85.5q-50 -34 -50 -80q0 -23 12.5 -34t32.5 -11q27 0 61 24l44 -79q-46 -38 -130 -38
z" />
    <glyph glyph-name="uogonek" unicode="&#x173;" horiz-adv-x="584" 
d="M403 -220q-53 0 -90 27t-37 82q0 82 81 131l-4 62h-2q-27 -41 -69.5 -67.5t-88.5 -26.5q-58 0 -103.5 40.5t-45.5 110.5v401h191v-337q0 -68 56 -68q22 0 38 20.5t16 55.5v329h191v-540h-77q-38 -12 -57 -34t-19 -48q0 -23 12.5 -34t32.5 -11q27 0 61 24l44 -79
q-46 -38 -130 -38z" />
    <glyph glyph-name="Wcircumflex" unicode="&#x174;" horiz-adv-x="902" 
d="M169 -1l-157 714h202l74 -373h3l78 373h187l72 -373h1l73 373h188l-157 -714h-194l-87 401h-5l-90 -401h-188zM263 760l122 172h134l121 -172h-142l-50 79l-50 -79h-135z" />
    <glyph glyph-name="wcircumflex" unicode="&#x175;" horiz-adv-x="777" 
d="M148 -1l-138 541h195l45 -258h5l54 258h179l53 -258h5l48 258h170l-138 -541h-169l-66 300h-3l-67 -300h-173zM200 594l122 172h134l121 -172h-142l-50 79l-50 -79h-135z" />
    <glyph glyph-name="Ycircumflex" unicode="&#x176;" horiz-adv-x="635" 
d="M214 0v275l-206 438h218l106 -258l102 258h193l-206 -439v-274h-207zM129 760l122 172h134l121 -172h-142l-50 79l-50 -79h-135z" />
    <glyph glyph-name="ycircumflex" unicode="&#x177;" horiz-adv-x="533" 
d="M157 -188q-53 0 -107 14l26 153q46 -11 81 -11q22 0 32 31l4 16l-193 525h203l85 -270h3l70 270h172l-171 -549q-30 -92 -77 -135.5t-128 -43.5zM78 594l122 172h134l121 -172h-142l-50 79l-50 -79h-135z" />
    <glyph glyph-name="Ydieresis" unicode="&#x178;" horiz-adv-x="635" 
d="M214 0v275l-206 438h218l106 -258l102 258h193l-206 -439v-274h-207zM134 756v163h155v-163h-155zM346 756v163h155v-163h-155z" />
    <glyph glyph-name="Zacute" unicode="&#x179;" horiz-adv-x="593" 
d="M44 0v122l268 428h-268v163h509v-142l-254 -407h252v-164h-507zM226 759l83 163h182l-128 -163h-137z" />
    <glyph glyph-name="zacute" unicode="&#x17a;" horiz-adv-x="504" 
d="M35 0v120l190 271h-182v149h425v-124l-186 -266h186v-150h-433zM184 593l83 163h182l-128 -163h-137z" />
    <glyph glyph-name="Zdotaccent" unicode="&#x17b;" horiz-adv-x="593" 
d="M44 0v122l268 428h-268v163h509v-142l-254 -407h252v-164h-507zM215 755v163h166v-163h-166z" />
    <glyph glyph-name="zdotaccent" unicode="&#x17c;" horiz-adv-x="504" 
d="M35 0v120l190 271h-182v149h425v-124l-186 -266h186v-150h-433zM179 589v163h166v-163h-166z" />
    <glyph glyph-name="Zcaron" unicode="&#x17d;" horiz-adv-x="593" 
d="M44 0v122l268 428h-268v163h509v-142l-254 -407h252v-164h-507zM228 768l-121 172h142l50 -79l50 79h140l-127 -172h-134z" />
    <glyph glyph-name="zcaron" unicode="&#x17e;" horiz-adv-x="504" 
d="M35 0v120l190 271h-182v149h425v-124l-186 -266h186v-150h-433zM187 602l-121 172h142l50 -79l50 79h140l-127 -172h-134z" />
    <glyph glyph-name="florin" unicode="&#x192;" horiz-adv-x="418" 
d="M117 -188q-53 0 -89 10l10 138q10 -2 27 -2q18 0 23.5 9t6.5 28l19 344h-65l7 129h65l6 98q5 77 53.5 121t115.5 44q62 0 107 -15l-8 -128q-18 3 -52 3q-15 0 -25 -9t-10 -24l-5 -90h81l-6 -129h-81l-18 -360q0 -80 -46 -123.5t-116 -43.5z" />
    <glyph glyph-name="Aringacute" unicode="&#x1fa;" horiz-adv-x="691" 
d="M12 0l205 714h262l200 -714h-212l-30 120h-205l-30 -120h-190zM274 276h122l-60 238h-3zM344 745q-54 0 -82.5 28.5t-28.5 69.5q0 51 41 88l101 89l93 -49l-64 -37q53 -25 53 -86q0 -45 -32 -74t-81 -29zM344 796q21 0 32 13.5t11 36.5t-11 36t-30 13q-20 0 -31.5 -14
t-11.5 -36q0 -49 41 -49z" />
    <glyph glyph-name="aringacute" unicode="&#x1fb;" horiz-adv-x="565" 
d="M190 -11q-68 0 -111 39.5t-43 116.5q0 50 24 86.5t63 56.5t81 29t87 9h37v48q0 21 -14 34.5t-42 13.5q-53 0 -53 -53v-16h-170v25q0 80 68.5 127t170.5 47q99 0 165 -48.5t66 -140.5v-242q0 -24 2 -52.5t4 -47.5t2 -21h-177q-4 22 -9 81h-5q-15 -36 -44.5 -58t-54 -28
t-47.5 -6zM275 122q20 0 36.5 14t16.5 45v50h-30q-71 0 -71 -57q0 -23 13 -37.5t35 -14.5zM281 579q-54 0 -82.5 28.5t-28.5 69.5q0 51 41 88l101 89l93 -49l-64 -37q53 -25 53 -86q0 -45 -32 -74t-81 -29zM281 630q21 0 32 13.5t11 36.5t-11 36t-30 13q-20 0 -31.5 -14
t-11.5 -36q0 -49 41 -49z" />
    <glyph glyph-name="AEacute" unicode="&#x1fc;" horiz-adv-x="930" 
d="M8 0l246 713h635v-163h-288v-111h228v-163h-228v-112h289v-164h-495v127h-140l-41 -127h-206zM301 279h94v304h-1zM439 759l83 163h182l-128 -163h-137z" />
    <glyph glyph-name="aeacute" unicode="&#x1fd;" horiz-adv-x="841" 
d="M190 -12q-68 0 -111 40t-43 117q0 50 24 86.5t63 56.5t81 29t87 9h37v48q0 21 -14 34.5t-42 13.5q-53 0 -53 -53v-16h-170v25q0 80 68.5 127t170.5 47q84 0 141 -36q62 36 141 36q104 0 169 -54.5t65 -151.5v-128h-285v-28q0 -58 90 -58q65 0 149 27l35 -124
q-99 -47 -212 -47q-151 0 -212 86q-22 -34 -61 -55t-67 -26t-51 -5zM275 122q19 0 36 15t17 41v53h-30q-71 0 -71 -57q0 -23 13 -37.5t35 -14.5zM519 321h104v45q0 25 -14.5 39t-38.5 14q-23 0 -37 -14.5t-14 -38.5v-45zM335 593l83 163h182l-128 -163h-137z" />
    <glyph glyph-name="Oslashacute" unicode="&#x1fe;" horiz-adv-x="658" 
d="M156 -58l-68 28l39 75q-85 65 -85 196v229q0 124 81.5 189.5t203.5 65.5q80 0 139 -24l41 80l68 -28l-45 -87q86 -68 86 -196v-228q0 -128 -83 -191t-204 -63q-76 0 -138 22zM252 759l83 163h182l-128 -163h-137zM330 155q36 0 57 22t21 60v193l-133 -258q20 -17 55 -17z
M250 477v-194l132 256q-22 19 -54 19q-78 0 -78 -81z" />
    <glyph glyph-name="oslashacute" unicode="&#x1ff;" horiz-adv-x="568" 
d="M145 -75l-58 28l37 73q-84 52 -84 166v147q0 104 71 158.5t171 54.5q54 0 103 -15l39 75l58 -28l-38 -75q84 -55 84 -166v-150q0 -71 -37.5 -119t-90.5 -67t-116 -19q-54 0 -100 13zM190 593l83 163h182l-128 -163h-137zM233 350v-112l82 162q-13 11 -31 11
q-25 0 -38 -17t-13 -44zM285 128q50 0 50 56v112l-82 -160q13 -8 32 -8z" />
    <glyph glyph-name="Scommaaccent" unicode="&#x218;" horiz-adv-x="615" 
d="M294 -12q-180 0 -278 101l105 129q35 -30 81 -52t88 -22q30 0 50.5 13t20.5 35q0 21 -16.5 33t-48.5 24l-94 36q-152 59 -152 207q0 97 73 164.5t191 67.5q167 0 253 -82l-97 -131q-31 25 -74 44t-76 19t-52 -13.5t-19 -36.5q0 -10 5 -18t16 -14.5t21 -10.5t27 -10.5
t26 -10.5l78 -34q158 -69 158 -205q0 -78 -43.5 -132.5t-106 -77.5t-136.5 -23zM225 -218l12 185h155l-40 -185h-127z" />
    <glyph glyph-name="scommaaccent" unicode="&#x219;" horiz-adv-x="510" 
d="M247 -12q-135 0 -227 58l76 124q81 -52 144 -52q57 0 57 32q0 19 -58 36l-40 12q-150 45 -150 168q0 68 52.5 127t151.5 59q117 0 212 -64l-73 -116q-73 51 -131 51q-18 0 -31.5 -7.5t-13.5 -20.5q0 -15 10.5 -22t33.5 -15l66 -22q81 -27 116 -66.5t35 -97.5
q0 -84 -64.5 -134t-165.5 -50zM173 -218l12 185h155l-40 -185h-127z" />
    <glyph glyph-name="uni021A" unicode="&#x21a;" horiz-adv-x="602" 
d="M197 0v550h-177v163h562v-163h-177v-550h-208zM219 -218l12 185h155l-40 -185h-127z" />
    <glyph glyph-name="uni021B" unicode="&#x21b;" horiz-adv-x="422" 
d="M254 -10q-69 0 -115 33.5t-46 111.5v242h-65v154h65v140h192v-140h105v-154h-105v-187q0 -37 38 -37q26 0 49 4v-151q-55 -16 -118 -16zM158 -218l12 185h155l-40 -185h-127z" />
    <glyph glyph-name="dotlessj" unicode="&#x237;" horiz-adv-x="298" 
d="M83 -188q-43 0 -77 5v161q10 -2 27 -2q18 0 24 9t6 28v527h191v-563q0 -79 -49.5 -122t-121.5 -43z" />
    <glyph glyph-name="circumflex" unicode="&#x2c6;" horiz-adv-x="393" 
d="M12 594l122 172h134l121 -172h-142l-50 79l-50 -79h-135z" />
    <glyph glyph-name="caron" unicode="&#x2c7;" horiz-adv-x="412" 
d="M136 602l-121 172h142l50 -79l50 79h140l-127 -172h-134z" />
    <glyph glyph-name="breve" unicode="&#x2d8;" horiz-adv-x="427" 
d="M220 589q-90 0 -139 49.5t-52 134.5h124q8 -42 21 -58.5t49 -16.5q30 0 42 18t14 57h119q-2 -88 -51 -136t-127 -48z" />
    <glyph glyph-name="dotaccent" unicode="&#x2d9;" horiz-adv-x="262" 
d="M48 589v163h166v-163h-166z" />
    <glyph glyph-name="ring" unicode="&#x2da;" horiz-adv-x="306" 
d="M152 579q-47 0 -78 29t-31 78q0 47 32 79t77 32q48 0 79.5 -28t31.5 -77q0 -48 -32.5 -80.5t-78.5 -32.5zM152 638q42 0 42 50t-44 50q-40 0 -40 -50t42 -50z" />
    <glyph glyph-name="ogonek" unicode="&#x2db;" horiz-adv-x="312" 
d="M152 -220q-53 0 -90 27t-37 82q0 59 41 99.5t98 55.5l51 -42q-41 -11 -62 -34t-21 -50q0 -23 12.5 -34t32.5 -11q27 0 61 24l44 -79q-46 -38 -130 -38z" />
    <glyph glyph-name="tilde" unicode="&#x2dc;" horiz-adv-x="465" 
d="M117 585l-89 18q9 65 42.5 109t87.5 44q28 0 82 -17.5t81 -17.5q17 0 27.5 12t19.5 38l79 -21q-8 -64 -39 -106.5t-87 -42.5q-27 0 -79.5 17t-78.5 17q-19 0 -28.5 -11t-17.5 -39z" />
    <glyph glyph-name="hungarumlaut" unicode="&#x2dd;" horiz-adv-x="523" 
d="M41 591l61 161h151l-85 -161h-127zM246 591l69 161h151l-97 -161h-123z" />
    <glyph glyph-name="pi" unicode="&#x3c0;" horiz-adv-x="644" 
d="M513 -10q-143 0 -143 145v244h-80q-8 -188 -27 -379h-179q27 219 32 379h-86l19 161h555v-161h-64v-186q0 -23 8.5 -31.5t29.5 -8.5q14 0 33 7v-152q-56 -18 -98 -18z" />
    <glyph glyph-name="Wgrave" unicode="&#x1e80;" horiz-adv-x="902" 
d="M169 -1l-157 714h202l74 -373h3l78 373h187l72 -373h1l73 373h188l-157 -714h-194l-87 401h-5l-90 -401h-188zM398 759l-128 163h182l83 -163h-137z" />
    <glyph glyph-name="wgrave" unicode="&#x1e81;" horiz-adv-x="777" 
d="M148 -1l-138 541h195l45 -258h5l54 258h179l53 -258h5l48 258h170l-138 -541h-169l-66 300h-3l-67 -300h-173zM324 593l-128 163h182l83 -163h-137z" />
    <glyph glyph-name="Wacute" unicode="&#x1e82;" horiz-adv-x="902" 
d="M169 -1l-157 714h202l74 -373h3l78 373h187l72 -373h1l73 373h188l-157 -714h-194l-87 401h-5l-90 -401h-188zM398 759l83 163h182l-128 -163h-137z" />
    <glyph glyph-name="wacute" unicode="&#x1e83;" horiz-adv-x="777" 
d="M148 -1l-138 541h195l45 -258h5l54 258h179l53 -258h5l48 258h170l-138 -541h-169l-66 300h-3l-67 -300h-173zM333 593l83 163h182l-128 -163h-137z" />
    <glyph glyph-name="Wdieresis" unicode="&#x1e84;" horiz-adv-x="902" 
d="M169 -1l-157 714h202l74 -373h3l78 373h187l72 -373h1l73 373h188l-157 -714h-194l-87 401h-5l-90 -401h-188zM268 756v163h155v-163h-155zM480 756v163h155v-163h-155z" />
    <glyph glyph-name="wdieresis" unicode="&#x1e85;" horiz-adv-x="777" 
d="M148 -1l-138 541h195l45 -258h5l54 258h179l53 -258h5l48 258h170l-138 -541h-169l-66 300h-3l-67 -300h-173zM205 590v163h155v-163h-155zM417 590v163h155v-163h-155z" />
    <glyph glyph-name="Ygrave" unicode="&#x1ef2;" horiz-adv-x="635" 
d="M214 0v275l-206 438h218l106 -258l102 258h193l-206 -439v-274h-207zM263 759l-128 163h182l83 -163h-137z" />
    <glyph glyph-name="ygrave" unicode="&#x1ef3;" horiz-adv-x="533" 
d="M157 -188q-53 0 -107 14l26 153q46 -11 81 -11q22 0 32 31l4 16l-193 525h203l85 -270h3l70 270h172l-171 -549q-30 -92 -77 -135.5t-128 -43.5zM218 593l-128 163h182l83 -163h-137z" />
    <glyph glyph-name="endash" unicode="&#x2013;" horiz-adv-x="461" 
d="M0 258v110h461v-110h-461z" />
    <glyph glyph-name="emdash" unicode="&#x2014;" horiz-adv-x="779" 
d="M0 258v110h779v-110h-779z" />
    <glyph glyph-name="quoteleft" unicode="&#x2018;" horiz-adv-x="264" 
d="M44 389v165l58 159h89l-35 -148h64v-176h-176z" />
    <glyph glyph-name="quoteright" unicode="&#x2019;" horiz-adv-x="264" 
d="M73 389l35 148h-64v176h176v-165l-58 -159h-89z" />
    <glyph glyph-name="quotesinglbase" unicode="&#x201a;" horiz-adv-x="264" 
d="M73 -137l35 148h-64v176h176v-165l-58 -159h-89z" />
    <glyph glyph-name="quotedblleft" unicode="&#x201c;" horiz-adv-x="500" 
d="M44 389v165l58 159h89l-35 -148h64v-176h-176zM280 389v165l58 159h89l-35 -148h64v-176h-176z" />
    <glyph glyph-name="quotedblright" unicode="&#x201d;" horiz-adv-x="500" 
d="M73 389l35 148h-64v176h176v-165l-58 -159h-89zM309 389l35 148h-64v176h176v-165l-58 -159h-89z" />
    <glyph glyph-name="quotedblbase" unicode="&#x201e;" horiz-adv-x="500" 
d="M73 -137l35 148h-64v176h176v-165l-58 -159h-89zM309 -137l35 148h-64v176h176v-165l-58 -159h-89z" />
    <glyph glyph-name="dagger" unicode="&#x2020;" horiz-adv-x="506" 
d="M185 -137v563h-148v123h148v164h136v-164h147v-123h-147v-563h-136z" />
    <glyph glyph-name="daggerdbl" unicode="&#x2021;" horiz-adv-x="506" 
d="M185 -137v185h-148v123h148v255h-148v123h148v164h136v-164h147v-123h-147v-255h147v-123h-147v-185h-136z" />
    <glyph glyph-name="bullet" unicode="&#x2022;" horiz-adv-x="454" 
d="M228 187q-72 0 -123 51.5t-51 122.5q0 73 51 123.5t123 50.5q71 0 121.5 -50.5t50.5 -123.5q0 -71 -50.5 -122.5t-121.5 -51.5z" />
    <glyph glyph-name="ellipsis" unicode="&#x2026;" horiz-adv-x="742" 
d="M44 0v187h176v-187h-176zM283 0v187h176v-187h-176zM522 0v187h176v-187h-176z" />
    <glyph glyph-name="perthousand" unicode="&#x2030;" horiz-adv-x="1154" 
d="M964 -11q-61 0 -108 35t-47 98v137q0 64 46 101.5t107 37.5q62 0 108 -35.5t46 -100.5v-136q0 -61 -47.5 -99t-104.5 -38zM963 85q16 0 23.5 9t7.5 21v161q0 11 -8.5 19t-22.5 8q-15 0 -23.5 -8t-8.5 -19v-163q0 -28 32 -28zM193 316q-61 0 -108 34.5t-47 98.5v143
q0 63 45 98t107 35t108.5 -35.5t46.5 -100.5v-140q0 -60 -47 -96.5t-105 -36.5zM192 412q31 0 31 30v161q0 11 -9 19t-23 8q-15 0 -23.5 -8t-8.5 -19v-163q0 -12 8.5 -20t24.5 -8zM183 -2l355 720h95l-355 -720h-95zM621 -11q-61 0 -108 35t-47 98v137q0 64 46 101.5
t107 37.5q62 0 108 -35.5t46 -100.5v-136q0 -61 -47.5 -99t-104.5 -38zM620 85q16 0 23.5 9t7.5 21v161q0 11 -8.5 19t-22.5 8q-15 0 -23.5 -8t-8.5 -19v-163q0 -28 32 -28z" />
    <glyph glyph-name="guilsinglleft" unicode="&#x2039;" horiz-adv-x="294" 
d="M178 79l-156 189l156 191l91 -49l-55 -142l58 -142z" />
    <glyph glyph-name="guilsinglright" unicode="&#x203a;" horiz-adv-x="295" 
d="M117 79l-93 49l55 142l-57 142l95 47l156 -189z" />
    <glyph glyph-name="fraction" unicode="&#x2044;" horiz-adv-x="117" 
d="M-184 -2l398 720h87l-398 -720h-87z" />
    <glyph glyph-name="uni2070" unicode="&#x2070;" 
d="M181 368q-65 0 -112.5 31t-47.5 99v153q0 67 46 99t112 32t113 -32.5t47 -101.5v-150q0 -66 -47.5 -98t-110.5 -32zM180 469q15 0 23 9t8 22v155q0 25 -31 25q-15 0 -23.5 -7t-8.5 -18v-157q0 -12 8 -20.5t24 -8.5z" />
    <glyph glyph-name="uni2074" unicode="&#x2074;" 
d="M182 380v72h-170v90l145 233h136l-153 -225h42v33l131 88v-121h35v-98h-35v-72h-131z" />
    <glyph glyph-name="uni2075" unicode="&#x2075;" 
d="M173 368q-67 0 -110 27.5t-43 78.5v31h123v-8q0 -27 32 -27q31 0 31 32v23q0 14 -9 22t-24 8t-30 -17l-118 12l9 224h279v-106h-170q0 -9 -1 -24.5t-1 -26.5q33 19 79 19q47 0 83.5 -24t36.5 -75v-49q0 -56 -51 -88t-116 -32z" />
    <glyph glyph-name="uni2076" unicode="&#x2076;" 
d="M180 368q-66 0 -115 33.5t-49 91.5v155q0 70 48.5 102t120.5 32q69 0 110 -32.5t41 -86.5v-19h-124v11q0 25 -31 25q-29 0 -29 -24v-55q36 25 84 25q50 0 78.5 -26.5t28.5 -67.5v-41q0 -56 -48 -89.5t-115 -33.5zM183 467q28 0 28 26v32q0 27 -29 27q-30 0 -30 -35v-23
q0 -12 8.5 -19.5t22.5 -7.5z" />
    <glyph glyph-name="uni2077" unicode="&#x2077;" 
d="M70 380q1 72 38 150t90 138h-176v106h315v-89q-52 -46 -88.5 -127.5t-35.5 -177.5h-143z" />
    <glyph glyph-name="uni2078" unicode="&#x2078;" 
d="M180 368q-161 0 -161 114v19q0 51 42 75q-16 9 -26 29t-10 39v22q0 54 44 85t110 31q67 0 111.5 -30t44.5 -85v-21q0 -46 -36 -70q18 -11 30 -31t12 -40v-27q0 -51 -45.5 -80.5t-115.5 -29.5zM180 460q31 0 31 26v18q0 28 -32 28q-13 0 -22 -6t-9 -17v-24q0 -25 32 -25z
M180 617q31 0 31 26v18q0 28 -32 28q-13 0 -22 -6t-9 -16v-25q0 -25 32 -25z" />
    <glyph glyph-name="uni2079" unicode="&#x2079;" 
d="M174 368q-69 0 -110 32.5t-41 86.5v12h124v-4q0 -25 31 -25q29 0 29 24v48q-36 -25 -84 -25q-50 0 -78.5 26.5t-28.5 67.5v48q0 56 48 89.5t115 33.5q66 0 115 -33.5t49 -91.5v-155q0 -70 -48.5 -102t-120.5 -32zM177 598q30 0 30 35v23q0 12 -8.5 19.5t-22.5 7.5
q-28 0 -28 -26v-32q0 -27 29 -27z" />
    <glyph glyph-name="uni207D" unicode="&#x207d;" horiz-adv-x="220" 
d="M149 314q-44 46 -71 113.5t-27 139.5q0 67 26.5 132.5t71.5 111.5l53 -1q-31 -70 -43.5 -122.5t-12.5 -120.5q0 -134 56 -252z" />
    <glyph glyph-name="uni207E" unicode="&#x207e;" horiz-adv-x="220" 
d="M104 314l-53 1q56 118 56 252q0 68 -12.5 120.5t-43.5 122.5l53 1q45 -46 71.5 -111.5t26.5 -132.5q0 -72 -27 -139.5t-71 -113.5z" />
    <glyph glyph-name="uni2080" unicode="&#x2080;" 
d="M181 -145q-65 0 -112.5 31t-47.5 99v153q0 67 46 99t112 32t113 -32.5t47 -101.5v-150q0 -66 -47.5 -98t-110.5 -32zM180 -44q15 0 23 9t8 22v155q0 25 -31 25q-15 0 -23.5 -7t-8.5 -18v-157q0 -12 8 -20.5t24 -8.5z" />
    <glyph glyph-name="uni2081" unicode="&#x2081;" horiz-adv-x="311" 
d="M105 -133v286l-50 -8l-12 92l122 28h72v-398h-132z" />
    <glyph glyph-name="uni2082" unicode="&#x2082;" 
d="M37 -133v84l118 111q54 50 54 75v2q0 27 -28 27q-30 0 -30 -35v-15h-126v27q0 60 43 92.5t113 32.5q72 0 113 -35t41 -91q0 -28 -15.5 -56.5t-31 -44.5t-44.5 -43l-30 -29h121v-102h-298z" />
    <glyph glyph-name="uni2083" unicode="&#x2083;" 
d="M178 -145q-158 0 -158 121v16h123v-12q0 -26 31 -26q30 0 30 33q0 31 -33 31h-36v85h28q20 0 29.5 6.5t9.5 26.5q0 31 -29 31t-29 -28v-10h-121v17q0 56 40.5 89.5t111.5 33.5q70 0 112 -31t42 -85q0 -30 -17.5 -55t-48.5 -34v-2q36 -8 56.5 -31.5t20.5 -54.5
q0 -121 -162 -121z" />
    <glyph glyph-name="uni2084" unicode="&#x2084;" 
d="M182 -133v72h-170v90l145 233h136l-153 -225h42v33l131 88v-121h35v-98h-35v-72h-131z" />
    <glyph glyph-name="uni2085" unicode="&#x2085;" 
d="M173 -145q-67 0 -110 27.5t-43 78.5v31h123v-8q0 -27 32 -27q31 0 31 32v23q0 14 -9 22t-24 8t-30 -17l-118 12l9 224h279v-106h-170q0 -9 -1 -24.5t-1 -26.5q33 19 79 19q47 0 83.5 -24t36.5 -75v-49q0 -56 -51 -88t-116 -32z" />
    <glyph glyph-name="uni2086" unicode="&#x2086;" 
d="M180 -145q-66 0 -115 33.5t-49 91.5v155q0 70 48.5 102t120.5 32q69 0 110 -32.5t41 -86.5v-19h-124v11q0 25 -31 25q-29 0 -29 -24v-55q36 25 84 25q50 0 78.5 -26.5t28.5 -67.5v-41q0 -56 -48 -89.5t-115 -33.5zM183 -46q28 0 28 26v32q0 27 -29 27q-30 0 -30 -35v-23
q0 -12 8.5 -19.5t22.5 -7.5z" />
    <glyph glyph-name="uni2087" unicode="&#x2087;" 
d="M70 -133q1 72 38 150t90 138h-176v106h315v-89q-52 -46 -88.5 -127.5t-35.5 -177.5h-143z" />
    <glyph glyph-name="uni2088" unicode="&#x2088;" 
d="M180 -145q-161 0 -161 114v19q0 51 42 75q-16 9 -26 29t-10 39v22q0 54 44 85t110 31q67 0 111.5 -30t44.5 -85v-21q0 -46 -36 -70q18 -11 30 -31t12 -40v-27q0 -51 -45.5 -80.5t-115.5 -29.5zM180 -53q31 0 31 26v18q0 28 -32 28q-13 0 -22 -6t-9 -17v-24q0 -25 32 -25z
M180 104q31 0 31 26v18q0 28 -32 28q-13 0 -22 -6t-9 -16v-25q0 -25 32 -25z" />
    <glyph glyph-name="uni2089" unicode="&#x2089;" 
d="M174 -145q-69 0 -110 32.5t-41 86.5v12h124v-4q0 -25 31 -25q29 0 29 24v48q-36 -25 -84 -25q-50 0 -78.5 26.5t-28.5 67.5v48q0 56 48 89.5t115 33.5q66 0 115 -33.5t49 -91.5v-155q0 -70 -48.5 -102t-120.5 -32zM177 85q30 0 30 35v23q0 12 -8.5 19.5t-22.5 7.5
q-28 0 -28 -26v-32q0 -27 29 -27z" />
    <glyph glyph-name="uni208D" unicode="&#x208d;" horiz-adv-x="220" 
d="M149 -199q-44 46 -71 113.5t-27 139.5q0 67 26.5 132.5t71.5 111.5l53 -1q-31 -70 -43.5 -122.5t-12.5 -120.5q0 -134 56 -252z" />
    <glyph glyph-name="uni208E" unicode="&#x208e;" horiz-adv-x="220" 
d="M104 -199l-53 1q56 118 56 252q0 68 -12.5 120.5t-43.5 122.5l53 1q45 -46 71.5 -111.5t26.5 -132.5q0 -72 -27 -139.5t-71 -113.5z" />
    <glyph glyph-name="uni20AA" unicode="&#x20aa;" horiz-adv-x="420" 
d="M26 0v705h138q64 0 92 -29t28 -119v-435h-66v441q0 49 -29 49h-89v-612h-74zM126 0v583h65v-489h89q30 0 30 48v563h84v-542q0 -91 -29 -127t-91 -36h-148z" />
    <glyph glyph-name="Euro" unicode="&#x20ac;" horiz-adv-x="676" 
d="M374 -12q-115 0 -194.5 58t-79.5 170v25h-64v88h64v51h-64v87h64v30q0 103 81.5 165.5t191.5 62.5q69 0 127.5 -21t99 -72t40.5 -125v-18h-187v17q0 34 -22.5 53t-54.5 19q-28 0 -48 -19.5t-20 -45.5v-46h136v-87h-136v-51h136v-88h-136v-35q0 -34 21 -52.5t55 -18.5
q31 0 50 18.5t19 53.5v10h187v-11q0 -73 -40 -124t-98 -72.5t-128 -21.5z" />
    <glyph glyph-name="trademark" unicode="&#x2122;" horiz-adv-x="669" 
d="M312 399v314h118l32 -116l31 116h118v-314h-88v163l-30 -112h-64l-30 111v-162h-87zM113 399v232h-75v82h247v-82h-75v-232h-97z" />
    <glyph glyph-name="Omega" unicode="&#x2126;" horiz-adv-x="644" 
d="M46 0v167l146 -7v12q-27 10 -51 25.5t-50 43.5t-41.5 73.5t-15.5 103.5v38q0 127 71.5 198t214.5 71q146 0 218 -70t72 -195v-42q0 -56 -15 -100.5t-41 -73t-51 -45.5t-52 -27v-12l148 7v-167h-253v174q25 24 33 35t14.5 45t6.5 101v126q0 35 -22 56t-58 21
q-78 0 -78 -97v-97q0 -99 6 -121q9 -33 50 -69v-174h-252z" />
    <glyph glyph-name="uni2153" unicode="&#x2153;" horiz-adv-x="820" 
d="M122 316v286l-50 -8l-12 92l122 28h72v-398h-132zM137 -2l398 720h87l-398 -720h-87zM611 -12q-158 0 -158 121v16h123v-12q0 -26 31 -26q30 0 30 33q0 31 -33 31h-36v85h28q20 0 29.5 6.5t9.5 26.5q0 31 -29 31t-29 -28v-10h-121v17q0 56 40.5 89.5t111.5 33.5
q70 0 112 -31t42 -85q0 -30 -17.5 -55t-48.5 -34v-2q36 -8 56.5 -31.5t20.5 -54.5q0 -121 -162 -121z" />
    <glyph glyph-name="uni2154" unicode="&#x2154;" horiz-adv-x="820" 
d="M29 316v84l118 111q54 50 54 75v2q0 27 -28 27q-30 0 -30 -35v-15h-126v27q0 60 43 92.5t113 32.5q72 0 113 -35.5t41 -90.5q0 -28 -15.5 -56.5t-31 -44.5t-44.5 -43l-30 -29h121v-102h-298zM181 -2l398 720h87l-398 -720h-87zM643 -12q-158 0 -158 121v16h123v-12
q0 -26 31 -26q30 0 30 33q0 31 -33 31h-36v85h28q20 0 29.5 6.5t9.5 26.5q0 31 -29 31t-29 -28v-10h-121v17q0 56 40.5 89.5t111.5 33.5q70 0 112 -31t42 -85q0 -30 -17.5 -55t-48.5 -34v-2q36 -8 56.5 -31.5t20.5 -54.5q0 -121 -162 -121z" />
    <glyph glyph-name="uni2155" unicode="&#x2155;" horiz-adv-x="820" 
d="M96 316v286l-50 -8l-12 92l122 28h72v-398h-132zM129 -2l398 720h87l-398 -720h-87zM620 -12q-67 0 -110 27.5t-43 78.5v31h123v-8q0 -27 32 -27q31 0 31 32v23q0 14 -9 22t-24 8t-30 -17l-118 12l9 224h279v-106h-170q0 -9 -1 -24.5t-1 -26.5q33 19 79 19q47 0 83.5 -24
t36.5 -75v-49q0 -56 -51 -88t-116 -32z" />
    <glyph glyph-name="uni2156" unicode="&#x2156;" horiz-adv-x="820" 
d="M30 316v84l118 111q54 50 54 75v2q0 27 -28 27q-30 0 -30 -35v-15h-126v27q0 60 43 92.5t113 32.5q72 0 113 -35.5t41 -90.5q0 -28 -15.5 -56.5t-31 -44.5t-44.5 -43l-30 -29h121v-102h-298zM170 -2l398 720h87l-398 -720h-87zM641 -12q-67 0 -110 27.5t-43 78.5v31h123
v-8q0 -27 32 -27q31 0 31 32v23q0 14 -9 22t-24 8t-30 -17l-118 12l9 224h279v-106h-170q0 -9 -1 -24.5t-1 -26.5q33 19 79 19q47 0 83.5 -24t36.5 -75v-49q0 -56 -51 -88t-116 -32z" />
    <glyph glyph-name="uni2157" unicode="&#x2157;" horiz-adv-x="820" 
d="M176 304q-158 0 -158 121v16h123v-12q0 -26 31 -26q30 0 30 33q0 31 -33 31h-36v85h28q20 0 29.5 6.5t9.5 26.5q0 31 -29 31t-29 -28v-10h-121v17q0 56 40.5 89.5t111.5 33.5q70 0 112 -31t42 -85q0 -30 -17.5 -55t-48.5 -34v-2q36 -8 56.5 -31.5t20.5 -54.5
q0 -121 -162 -121zM170 -2l398 720h87l-398 -720h-87zM641 -12q-67 0 -110 27.5t-43 78.5v31h123v-8q0 -27 32 -27q31 0 31 32v23q0 14 -9 22t-24 8t-30 -17l-118 12l9 224h279v-106h-170q0 -9 -1 -24.5t-1 -26.5q33 19 79 19q47 0 83.5 -24t36.5 -75v-49q0 -56 -51 -88
t-116 -32z" />
    <glyph glyph-name="uni2158" unicode="&#x2158;" horiz-adv-x="820" 
d="M175 316v72h-170v90l145 233h136l-153 -225h42v33l131 88v-121h35v-98h-35v-72h-131zM172 -2l398 720h87l-398 -720h-87zM641 -12q-67 0 -110 27.5t-43 78.5v31h123v-8q0 -27 32 -27q31 0 31 32v23q0 14 -9 22t-24 8t-30 -17l-118 12l9 224h279v-106h-170q0 -9 -1 -24.5
t-1 -26.5q33 19 79 19q47 0 83.5 -24t36.5 -75v-49q0 -56 -51 -88t-116 -32z" />
    <glyph glyph-name="uni2159" unicode="&#x2159;" horiz-adv-x="820" 
d="M122 316v286l-50 -8l-12 92l122 28h72v-398h-132zM137 -2l398 720h87l-398 -720h-87zM613 -12q-66 0 -115 33.5t-49 91.5v155q0 70 48.5 102t120.5 32q69 0 110 -32.5t41 -86.5v-19h-124v11q0 25 -31 25q-29 0 -29 -24v-55q36 25 84 25q50 0 78.5 -26.5t28.5 -67.5v-41
q0 -56 -48 -89.5t-115 -33.5zM616 87q28 0 28 26v32q0 27 -29 27q-30 0 -30 -35v-23q0 -12 8.5 -19.5t22.5 -7.5z" />
    <glyph glyph-name="uni215A" unicode="&#x215a;" horiz-adv-x="820" 
d="M158 -2l398 720h87l-398 -720h-87zM616 -12q-66 0 -115 33.5t-49 91.5v155q0 70 48.5 102t120.5 32q69 0 110 -32.5t41 -86.5v-19h-124v11q0 25 -31 25q-29 0 -29 -24v-55q36 25 84 25q50 0 78.5 -26.5t28.5 -67.5v-41q0 -56 -48 -89.5t-115 -33.5zM619 87q28 0 28 26v32
q0 27 -29 27q-30 0 -30 -35v-23q0 -12 8.5 -19.5t22.5 -7.5zM181 304q-67 0 -110 27.5t-43 78.5v31h123v-8q0 -27 32 -27q31 0 31 32v23q0 14 -9 22t-24 8t-30 -17l-118 12l9 224h279v-106h-170q0 -9 -1 -24.5t-1 -26.5q33 19 79 19q47 0 83.5 -24t36.5 -75v-49
q0 -56 -51 -88t-116 -32z" />
    <glyph glyph-name="uni215B" unicode="&#x215b;" horiz-adv-x="820" 
d="M122 316v286l-50 -8l-12 92l122 28h72v-398h-132zM137 -2l398 720h87l-398 -720h-87zM613 -12q-161 0 -161 114v19q0 51 42 75q-16 9 -26 29t-10 39v22q0 54 44 85t110 31q67 0 111.5 -30t44.5 -85v-21q0 -46 -36 -70q18 -11 30 -31t12 -40v-27q0 -51 -45.5 -80.5
t-115.5 -29.5zM613 80q31 0 31 26v18q0 28 -32 28q-13 0 -22 -6t-9 -17v-24q0 -25 32 -25zM613 237q31 0 31 26v18q0 28 -32 28q-13 0 -22 -6t-9 -16v-25q0 -25 32 -25z" />
    <glyph glyph-name="uni215C" unicode="&#x215c;" horiz-adv-x="820" 
d="M187 304q-158 0 -158 121v16h123v-12q0 -26 31 -26q30 0 30 33q0 31 -33 31h-36v85h28q20 0 29.5 6.5t9.5 26.5q0 31 -29 31t-29 -28v-10h-121v17q0 56 40.5 89.5t111.5 33.5q70 0 112 -31t42 -85q0 -30 -17.5 -55t-48.5 -34v-2q36 -8 56.5 -31.5t20.5 -54.5
q0 -121 -162 -121zM169 -2l398 720h87l-398 -720h-87zM619 -12q-161 0 -161 114v19q0 51 42 75q-16 9 -26 29t-10 39v22q0 54 44 85t110 31q67 0 111.5 -30t44.5 -85v-21q0 -46 -36 -70q18 -11 30 -31t12 -40v-27q0 -51 -45.5 -80.5t-115.5 -29.5zM619 80q31 0 31 26v18
q0 28 -32 28q-13 0 -22 -6t-9 -17v-24q0 -25 32 -25zM619 237q31 0 31 26v18q0 28 -32 28q-13 0 -22 -6t-9 -16v-25q0 -25 32 -25z" />
    <glyph glyph-name="uni215D" unicode="&#x215d;" horiz-adv-x="820" 
d="M183 304q-67 0 -110 27.5t-43 78.5v31h123v-8q0 -27 32 -27q31 0 31 32v23q0 14 -9 22t-24 8t-30 -17l-118 12l9 224h279v-106h-170q0 -9 -1 -24.5t-1 -26.5q33 19 79 19q47 0 83.5 -24t36.5 -75v-49q0 -56 -51 -88t-116 -32zM158 -2l398 720h87l-398 -720h-87zM613 -12
q-161 0 -161 114v19q0 51 42 75q-16 9 -26 29t-10 39v22q0 54 44 85t110 31q67 0 111.5 -30t44.5 -85v-21q0 -46 -36 -70q18 -11 30 -31t12 -40v-27q0 -51 -45.5 -80.5t-115.5 -29.5zM613 80q31 0 31 26v18q0 28 -32 28q-13 0 -22 -6t-9 -17v-24q0 -25 32 -25zM613 237
q31 0 31 26v18q0 28 -32 28q-13 0 -22 -6t-9 -16v-25q0 -25 32 -25z" />
    <glyph glyph-name="uni215E" unicode="&#x215e;" horiz-adv-x="820" 
d="M87 316q1 72 38 150t90 138h-176v106h315v-89q-52 -46 -88.5 -127.5t-35.5 -177.5h-143zM137 -2l398 720h87l-398 -720h-87zM613 -12q-161 0 -161 114v19q0 51 42 75q-16 9 -26 29t-10 39v22q0 54 44 85t110 31q67 0 111.5 -30t44.5 -85v-21q0 -46 -36 -70q18 -11 30 -31
t12 -40v-27q0 -51 -45.5 -80.5t-115.5 -29.5zM613 80q31 0 31 26v18q0 28 -32 28q-13 0 -22 -6t-9 -17v-24q0 -25 32 -25zM613 237q31 0 31 26v18q0 28 -32 28q-13 0 -22 -6t-9 -16v-25q0 -25 32 -25z" />
    <glyph glyph-name="arrowleft" unicode="&#x2190;" horiz-adv-x="606" 
d="M253 106l-219 236v13l219 235l84 -83l-102 -95h319v-127h-319l100 -103z" />
    <glyph glyph-name="arrowup" unicode="&#x2191;" horiz-adv-x="606" 
d="M243 88v319l-94 -103l-84 85l235 219h13l236 -219l-76 -82l-102 100v-319h-128z" />
    <glyph glyph-name="arrowright" unicode="&#x2192;" horiz-adv-x="606" 
d="M348 106l-82 76l100 103h-319v127h319l-102 95l84 83l219 -235v-13z" />
    <glyph glyph-name="arrowdown" unicode="&#x2193;" horiz-adv-x="606" 
d="M301 88l-236 219l78 82l101 -100v319h127v-319l96 102l82 -84l-235 -219h-13z" />
    <glyph glyph-name="uni2196" unicode="&#x2196;" horiz-adv-x="606" 
d="M446 119l-226 225l6 -139h-118l10 322l9 8l323 12l3 -111l-143 -2l226 -226z" />
    <glyph glyph-name="uni2197" unicode="&#x2197;" horiz-adv-x="606" 
d="M198 119l-90 89l226 226l-143 2l3 111l323 -12l9 -8l10 -322h-118l6 139z" />
    <glyph glyph-name="uni2198" unicode="&#x2198;" horiz-adv-x="606" 
d="M194 119l-3 111l143 2l-226 226l90 89l226 -225l-6 139h118l-10 -322l-9 -8z" />
    <glyph glyph-name="uni2199" unicode="&#x2199;" horiz-adv-x="606" 
d="M450 119l-323 12l-9 8l-10 322h118l-6 -139l226 225l90 -89l-226 -226l143 -2z" />
    <glyph glyph-name="partialdiff" unicode="&#x2202;" horiz-adv-x="568" 
d="M284 -12q-48 0 -89.5 10.5t-77 33t-56.5 63.5t-21 97v118q0 79 42.5 130t112.5 72l21 5l-141 196l214 14l197 -289q42 -57 42 -124v-121q0 -71 -37.5 -119t-90.5 -67t-116 -19zM285 128q50 0 50 56v139q0 26 -14.5 42.5t-36.5 16.5q-25 0 -38 -17t-13 -44v-139
q0 -54 52 -54z" />
    <glyph glyph-name="Delta" unicode="&#x2206;" horiz-adv-x="706" 
d="M25 0v84l205 630h243l208 -629v-85h-656zM240 168h220l-112 363h-4z" />
    <glyph glyph-name="product" unicode="&#x220f;" horiz-adv-x="725" 
d="M125 -133v666h-91v180h657v-180h-91v-666h-178v666h-119v-666h-178z" />
    <glyph glyph-name="summation" unicode="&#x2211;" horiz-adv-x="601" 
d="M43 -133v146l210 287l-216 267v146h518v-174h-246l174 -216v-36l-182 -247h254v-173h-512z" />
    <glyph glyph-name="minus" unicode="&#x2212;" horiz-adv-x="540" 
d="M50 260v114h440v-114h-440z" />
    <glyph glyph-name="radical" unicode="&#x221a;" horiz-adv-x="606" 
d="M192 -1l-173 541h199l70 -274h2l119 447h182l-221 -714h-178z" />
    <glyph glyph-name="infinity" unicode="&#x221e;" horiz-adv-x="824" 
d="M588 148q-104 0 -181 89q-85 -83 -178 -83q-83 0 -134 48.5t-51 121.5q0 76 54.5 126.5t133.5 50.5q105 0 185 -90q83 83 178 83q85 0 135 -42.5t50 -119.5q0 -80 -54 -132t-138 -52zM224 255q54 0 122 74q-52 74 -112 74q-32 0 -54.5 -21t-22.5 -49q0 -33 19 -55.5
t48 -22.5zM586 250q35 0 58 21.5t23 53.5t-17 51.5t-53 19.5q-44 0 -119 -75q26 -34 50 -52.5t58 -18.5z" />
    <glyph glyph-name="integral" unicode="&#x222b;" horiz-adv-x="445" 
d="M109 -187q-62 0 -107 15l13 128q18 -3 52 -3q33 0 36 33l49 580q7 78 52 121.5t110 43.5q62 0 107 -15l-13 -130q-30 5 -52 5q-33 0 -36 -33l-49 -579q-7 -78 -51.5 -122t-110.5 -44z" />
    <glyph glyph-name="approxequal" unicode="&#x2248;" horiz-adv-x="540" 
d="M102 106l-78 16q23 153 128 153q30 0 120 -16.5t119 -16.5q17 0 28 12t21 37l76 -18q-21 -152 -125 -152q-29 0 -120.5 16.5t-119.5 16.5q-21 0 -31 -10.5t-18 -37.5zM102 343l-78 16q23 153 128 153q30 0 120 -16.5t119 -16.5q17 0 28 12t21 37l76 -18
q-21 -152 -125 -152q-29 0 -120.5 16.5t-119.5 16.5q-21 0 -31 -10.5t-18 -37.5z" />
    <glyph glyph-name="notequal" unicode="&#x2260;" horiz-adv-x="540" 
d="M200 37l-93 42l36 74h-93v115h150l42 85h-192v115h248l52 105l93 -42l-31 -63h78v-115h-135l-42 -85h177v-115h-233z" />
    <glyph glyph-name="lessequal" unicode="&#x2264;" horiz-adv-x="540" 
d="M436 172l-386 168v86l391 166l51 -103l-281 -106l277 -109zM48 0v115h438v-115h-438z" />
    <glyph glyph-name="greaterequal" unicode="&#x2265;" horiz-adv-x="540" 
d="M104 172l-52 102l277 109l-281 106l51 103l391 -166v-86zM54 0v115h438v-115h-438z" />
    <glyph glyph-name="blacksquare" unicode="&#x25a0;" horiz-adv-x="715" 
d="M46 0v715h623v-715h-623z" />
    <glyph glyph-name="whitesquare" unicode="&#x25a1;" horiz-adv-x="716" 
d="M47 0v713h622v-713h-622zM146 97h424v519h-424v-519z" />
    <glyph glyph-name="blacksmallsquare" unicode="&#x25aa;" horiz-adv-x="597" 
d="M52 0v553h493v-553h-493z" />
    <glyph glyph-name="triagup" unicode="&#x25b2;" horiz-adv-x="561" 
d="M50 145v10l219 414h9l233 -414v-10h-461z" />
    <glyph glyph-name="triagrt" unicode="&#x25ba;" horiz-adv-x="561" 
d="M70 126v461h9l415 -220v-9q-187 -106 -415 -232h-9z" />
    <glyph glyph-name="triagdn" unicode="&#x25bc;" horiz-adv-x="561" 
d="M283 145l-233 415v9h461v-9l-219 -415h-9z" />
    <glyph glyph-name="triaglf" unicode="&#x25c4;" horiz-adv-x="561" 
d="M480 126l-415 232v9q229 121 415 220h9v-461h-9z" />
    <glyph glyph-name="lozenge" unicode="&#x25ca;" horiz-adv-x="556" 
d="M232 0l-189 339v12l189 362h92l188 -362v-12l-188 -339h-92zM282 147l99 193l-107 209l-99 -197z" />
    <glyph glyph-name="uni25E2" unicode="&#x25e2;" horiz-adv-x="561" 
d="M520 100l-460 93l-3 8l317 346l7 -1l146 -439z" />
    <glyph glyph-name="uni25E3" unicode="&#x25e3;" horiz-adv-x="561" 
d="M64 100l-7 7l146 439l7 1l317 -346l-3 -8z" />
    <glyph glyph-name="uni25E4" unicode="&#x25e4;" horiz-adv-x="561" 
d="M210 99q-2 0 -4 0.5t-4 0.5q-64 195 -146 439l8 7l459 -93l4 -8z" />
    <glyph glyph-name="uni25E5" unicode="&#x25e5;" horiz-adv-x="561" 
d="M374 99l-318 346l4 8l460 93l7 -7l-146 -439q-2 0 -4 -0.5t-3 -0.5z" />
    <glyph glyph-name="I.alt" unicode="&#xe131;" horiz-adv-x="450" 
d="M30 549v164h390v-164h-92v-385h92v-164h-390v164h92v385h-92z" />
    <glyph glyph-name="I.alt" unicode="&#xe488;" horiz-adv-x="450" 
d="M30 549v164h390v-164h-92v-385h92v-164h-390v164h92v385h-92z" />
    <glyph glyph-name="Igrave.alt" unicode="&#xe132;" horiz-adv-x="450" 
d="M30 549v164h390v-164h-92v-385h92v-164h-390v164h92v385h-92zM173 759l-128 163h182l83 -163h-137z" />
    <glyph glyph-name="Iacute.alt" unicode="&#xe133;" horiz-adv-x="450" 
d="M30 549v164h390v-164h-92v-385h92v-164h-390v164h92v385h-92zM156 759l83 163h182l-128 -163h-137z" />
    <glyph glyph-name="Icircumflex.alt" unicode="&#xe134;" horiz-adv-x="450" 
d="M30 549v164h390v-164h-92v-385h92v-164h-390v164h92v385h-92zM37 760l122 172h134l121 -172h-142l-50 79l-50 -79h-135z" />
    <glyph glyph-name="Idieresis.alt" unicode="&#xe135;" horiz-adv-x="450" 
d="M30 549v164h390v-164h-92v-385h92v-164h-390v164h92v385h-92zM42 756v163h155v-163h-155zM254 756v163h155v-163h-155z" />
    <glyph glyph-name="Itilde.alt" unicode="&#xe136;" horiz-adv-x="450" 
d="M30 549v164h390v-164h-92v-385h92v-164h-390v164h92v385h-92zM105 751l-89 18q9 65 42.5 109t87.5 44q28 0 82 -17.5t81 -17.5q17 0 27.5 12t19.5 38l79 -21q-8 -64 -39 -106.5t-87 -42.5q-27 0 -79.5 17t-78.5 17q-19 0 -28.5 -11t-17.5 -39z" />
    <glyph glyph-name="Imacron.alt" unicode="&#xe138;" horiz-adv-x="450" 
d="M30 549v164h390v-164h-92v-385h92v-164h-390v164h92v385h-92zM51 766v126h348v-126h-348z" />
    <glyph glyph-name="Ibreve.alt" unicode="&#xe139;" horiz-adv-x="450" 
d="M30 549v164h390v-164h-92v-385h92v-164h-390v164h92v385h-92zM232 755q-90 0 -139 49.5t-52 134.5h124q8 -42 21 -58.5t49 -16.5q30 0 42 18t14 57h119q-2 -88 -51 -136t-127 -48z" />
    <glyph glyph-name="Idotaccent.alt" unicode="&#xe13c;" horiz-adv-x="450" 
d="M30 549v164h390v-164h-92v-385h92v-164h-390v164h92v385h-92zM142 755v163h166v-163h-166z" />
    <glyph glyph-name="Iogonek.alt" unicode="&#xe13e;" horiz-adv-x="450" 
d="M324 -220q-53 0 -90 27t-37 82q0 65 53 111h-220v164h92v385h-92v164h390v-164h-92v-385h92v-164h-40q-38 -12 -57 -34t-19 -48q0 -23 12.5 -34t32.5 -11q27 0 61 24l44 -79q-46 -38 -130 -38z" />
    <glyph glyph-name="zero.dnom" unicode="&#xe402;" 
d="M181 -12q-65 0 -112.5 31t-47.5 99v153q0 67 46 99t112 32t113 -32.5t47 -101.5v-150q0 -66 -47.5 -98t-110.5 -32zM180 89q15 0 23 9t8 22v155q0 25 -31 25q-15 0 -23.5 -7t-8.5 -18v-157q0 -12 8 -20.5t24 -8.5z" />
    <glyph glyph-name="one.dnom" unicode="&#xe403;" horiz-adv-x="311" 
d="M105 0v286l-50 -8l-12 92l122 28h72v-398h-132z" />
    <glyph glyph-name="two.dnom" unicode="&#xe404;" 
d="M37 0v84l118 111q54 50 54 75v2q0 27 -28 27q-30 0 -30 -35v-15h-126v27q0 60 43 92.5t113 32.5q72 0 113 -35.5t41 -90.5q0 -28 -15.5 -56.5t-31 -44.5t-44.5 -43l-30 -29h121v-102h-298z" />
    <glyph glyph-name="three.dnom" unicode="&#xe405;" 
d="M178 -12q-158 0 -158 121v16h123v-12q0 -26 31 -26q30 0 30 33q0 31 -33 31h-36v85h28q20 0 29.5 6.5t9.5 26.5q0 31 -29 31t-29 -28v-10h-121v17q0 56 40.5 89.5t111.5 33.5q70 0 112 -31t42 -85q0 -30 -17.5 -55t-48.5 -34v-2q36 -8 56.5 -31.5t20.5 -54.5
q0 -121 -162 -121z" />
    <glyph glyph-name="four.dnom" unicode="&#xe406;" 
d="M182 0v72h-170v90l145 233h136l-153 -225h42v33l131 88v-121h35v-98h-35v-72h-131z" />
    <glyph glyph-name="five.dnom" unicode="&#xe407;" 
d="M173 -12q-67 0 -110 27.5t-43 78.5v31h123v-8q0 -27 32 -27q31 0 31 32v23q0 14 -9 22t-24 8t-30 -17l-118 12l9 224h279v-106h-170q0 -9 -1 -24.5t-1 -26.5q33 19 79 19q47 0 83.5 -24t36.5 -75v-49q0 -56 -51 -88t-116 -32z" />
    <glyph glyph-name="six.dnom" unicode="&#xe408;" 
d="M180 -12q-66 0 -115 33.5t-49 91.5v155q0 70 48.5 102t120.5 32q69 0 110 -32.5t41 -86.5v-19h-124v11q0 25 -31 25q-29 0 -29 -24v-55q36 25 84 25q50 0 78.5 -26.5t28.5 -67.5v-41q0 -56 -48 -89.5t-115 -33.5zM183 87q28 0 28 26v32q0 27 -29 27q-30 0 -30 -35v-23
q0 -12 8.5 -19.5t22.5 -7.5z" />
    <glyph glyph-name="seven.dnom" unicode="&#xe409;" 
d="M70 0q1 72 38 150t90 138h-176v106h315v-89q-52 -46 -88.5 -127.5t-35.5 -177.5h-143z" />
    <glyph glyph-name="eight.dnom" unicode="&#xe40a;" 
d="M180 -12q-161 0 -161 114v19q0 51 42 75q-16 9 -26 29t-10 39v22q0 54 44 85t110 31q67 0 111.5 -30t44.5 -85v-21q0 -46 -36 -70q18 -11 30 -31t12 -40v-27q0 -51 -45.5 -80.5t-115.5 -29.5zM180 80q31 0 31 26v18q0 28 -32 28q-13 0 -22 -6t-9 -17v-24q0 -25 32 -25z
M180 237q31 0 31 26v18q0 28 -32 28q-13 0 -22 -6t-9 -16v-25q0 -25 32 -25z" />
    <glyph glyph-name="nine.dnom" unicode="&#xe40b;" 
d="M174 -12q-69 0 -110 32.5t-41 86.5v12h124v-4q0 -25 31 -25q29 0 29 24v48q-36 -25 -84 -25q-50 0 -78.5 26.5t-28.5 67.5v48q0 56 48 89.5t115 33.5q66 0 115 -33.5t49 -91.5v-155q0 -70 -48.5 -102t-120.5 -32zM177 218q30 0 30 35v23q0 12 -8.5 19.5t-22.5 7.5
q-28 0 -28 -26v-32q0 -27 29 -27z" />
    <glyph glyph-name="comma.dnom" unicode="&#xe40d;" horiz-adv-x="216" 
d="M64 -92l32 99h-52v125h128v-118l-55 -106h-53z" />
    <glyph glyph-name="period.dnom" unicode="&#xe40e;" horiz-adv-x="216" 
d="M44 0v132h128v-132h-128z" />
    <glyph glyph-name="parenleft.dnom" unicode="&#xe40f;" horiz-adv-x="220" 
d="M149 -66q-44 46 -71 113.5t-27 139.5q0 67 26.5 132.5t71.5 111.5l53 -1q-31 -70 -43.5 -122.5t-12.5 -120.5q0 -134 56 -252z" />
    <glyph glyph-name="parenright.dnom" unicode="&#xe410;" horiz-adv-x="220" 
d="M104 -66l-53 1q56 118 56 252q0 68 -12.5 120.5t-43.5 122.5l53 1q45 -46 71.5 -111.5t26.5 -132.5q0 -72 -27 -139.5t-71 -113.5z" />
    <glyph glyph-name="caronSlovak" unicode="&#xe413;" horiz-adv-x="264" 
d="M44 491l12 222h155l-40 -222h-127z" />
    <glyph glyph-name="commaaccent" unicode="&#xe414;" horiz-adv-x="264" 
d="M44 -218l12 185h155l-40 -185h-127z" />
    <glyph glyph-name="commaaccent" unicode="&#xf6c3;" horiz-adv-x="264" 
d="M44 -218l12 185h155l-40 -185h-127z" />
    <glyph glyph-name="zero.numr" unicode="&#xe416;" 
d="M181 306q-65 0 -112.5 31t-47.5 99v153q0 67 46 99t112 32t113 -32.5t47 -101.5v-150q0 -66 -47.5 -98t-110.5 -32zM180 407q15 0 23 9t8 22v155q0 25 -31 25q-15 0 -23.5 -7t-8.5 -18v-157q0 -12 8 -20.5t24 -8.5z" />
    <glyph glyph-name="one.numr" unicode="&#xe417;" horiz-adv-x="311" 
d="M105 318v286l-50 -8l-12 92l122 28h72v-398h-132z" />
    <glyph glyph-name="two.numr" unicode="&#xe418;" 
d="M37 318v84l118 111q54 50 54 75v2q0 27 -28 27q-30 0 -30 -35v-15h-126v27q0 60 43 92.5t113 32.5q72 0 113 -35.5t41 -90.5q0 -28 -15.5 -56.5t-31 -44.5t-44.5 -43l-30 -29h121v-102h-298z" />
    <glyph glyph-name="three.numr" unicode="&#xe419;" 
d="M178 306q-158 0 -158 121v16h123v-12q0 -26 31 -26q30 0 30 33q0 31 -33 31h-36v85h28q20 0 29.5 6.5t9.5 26.5q0 31 -29 31t-29 -28v-10h-121v17q0 56 40.5 89.5t111.5 33.5q70 0 112 -31t42 -85q0 -30 -17.5 -55t-48.5 -34v-2q36 -8 56.5 -31.5t20.5 -54.5
q0 -121 -162 -121z" />
    <glyph glyph-name="four.numr" unicode="&#xe41a;" 
d="M182 318v72h-170v90l145 233h136l-153 -225h42v33l131 88v-121h35v-98h-35v-72h-131z" />
    <glyph glyph-name="five.numr" unicode="&#xe41b;" 
d="M173 306q-67 0 -110 27.5t-43 78.5v31h123v-8q0 -27 32 -27q31 0 31 32v23q0 14 -9 22t-24 8t-30 -17l-118 12l9 224h279v-106h-170q0 -9 -1 -24.5t-1 -26.5q33 19 79 19q47 0 83.5 -24t36.5 -75v-49q0 -56 -51 -88t-116 -32z" />
    <glyph glyph-name="six.numr" unicode="&#xe41c;" 
d="M180 306q-66 0 -115 33.5t-49 91.5v155q0 70 48.5 102t120.5 32q69 0 110 -32.5t41 -86.5v-19h-124v11q0 25 -31 25q-29 0 -29 -24v-55q36 25 84 25q50 0 78.5 -26.5t28.5 -67.5v-41q0 -56 -48 -89.5t-115 -33.5zM183 405q28 0 28 26v32q0 27 -29 27q-30 0 -30 -35v-23
q0 -12 8.5 -19.5t22.5 -7.5z" />
    <glyph glyph-name="seven.numr" unicode="&#xe41d;" 
d="M70 318q1 72 38 150t90 138h-176v106h315v-89q-52 -46 -88.5 -127.5t-35.5 -177.5h-143z" />
    <glyph glyph-name="eight.numr" unicode="&#xe41e;" 
d="M180 306q-161 0 -161 114v19q0 51 42 75q-16 9 -26 29t-10 39v22q0 54 44 85t110 31q67 0 111.5 -30t44.5 -85v-21q0 -46 -36 -70q18 -11 30 -31t12 -40v-27q0 -51 -45.5 -80.5t-115.5 -29.5zM180 398q31 0 31 26v18q0 28 -32 28q-13 0 -22 -6t-9 -17v-24q0 -25 32 -25z
M180 555q31 0 31 26v18q0 28 -32 28q-13 0 -22 -6t-9 -16v-25q0 -25 32 -25z" />
    <glyph glyph-name="nine.numr" unicode="&#xe41f;" 
d="M174 306q-69 0 -110 32.5t-41 86.5v12h124v-4q0 -25 31 -25q29 0 29 24v48q-36 -25 -84 -25q-50 0 -78.5 26.5t-28.5 67.5v48q0 56 48 89.5t115 33.5q66 0 115 -33.5t49 -91.5v-155q0 -70 -48.5 -102t-120.5 -32zM177 536q30 0 30 35v23q0 12 -8.5 19.5t-22.5 7.5
q-28 0 -28 -26v-32q0 -27 29 -27z" />
    <glyph glyph-name="comma.numr" unicode="&#xe421;" horiz-adv-x="216" 
d="M64 226l32 99h-52v125h128v-118l-55 -106h-53z" />
    <glyph glyph-name="period.numr" unicode="&#xe422;" horiz-adv-x="216" 
d="M44 318v132h128v-132h-128z" />
    <glyph glyph-name="parenleft.numr" unicode="&#xe423;" horiz-adv-x="220" 
d="M149 252q-44 46 -71 113.5t-27 139.5q0 67 26.5 132.5t71.5 111.5l53 -1q-31 -70 -43.5 -122.5t-12.5 -120.5q0 -134 56 -252z" />
    <glyph glyph-name="parenright.numr" unicode="&#xe424;" horiz-adv-x="220" 
d="M104 252l-53 1q56 118 56 252q0 68 -12.5 120.5t-43.5 122.5l53 1q45 -46 71.5 -111.5t26.5 -132.5q0 -72 -27 -139.5t-71 -113.5z" />
    <glyph glyph-name="numbersign.LP" unicode="&#xe533;" horiz-adv-x="540" 
d="M82 -1l21 169h-87l15 107h84l24 179h-90l14 105h86l20 156h95l-17 -156h97l19 156h95l-19 -156h84l-12 -105h-84l-22 -179h87l-12 -107h-89l-20 -169h-95l19 169h-97l-22 -169h-94zM211 275h97l24 179h-99z" />
    <glyph glyph-name="zero.LT" unicode="&#xe53f;" horiz-adv-x="540" 
d="M272 -12q-49 0 -92.5 11.5t-81 35t-59.5 65.5t-22 98v315q0 73 38 122.5t92.5 69.5t121.5 20q104 0 179 -53.5t75 -162.5v-311q0 -54 -22 -96t-59 -66t-80 -36t-90 -12zM271 148q27 0 41 15.5t14 35.5v320q0 20 -15.5 32.5t-40.5 12.5t-40.5 -13t-15.5 -32v-322
q0 -20 15 -34.5t42 -14.5z" />
    <glyph glyph-name="one.LT" unicode="&#xe541;" horiz-adv-x="540" 
d="M182 0v535l-67 -12l-15 148l175 44h101v-715h-194z" />
    <glyph glyph-name="two.LT" unicode="&#xe542;" horiz-adv-x="540" 
d="M35 0v113l167 203q108 134 108 182v11q0 22 -11 38t-34 16q-49 0 -49 -61v-9h-190v28q0 98 69.5 151.5t184.5 53.5q120 0 177.5 -58.5t57.5 -151.5q0 -116 -170 -294l-43 -50v-3h210v-169h-477z" />
    <glyph glyph-name="three.LT" unicode="&#xe543;" horiz-adv-x="540" 
d="M271 -12q-119 0 -185.5 51.5t-66.5 147.5v29h190v-15q0 -28 15 -45t44 -17q56 0 56 70q0 28 -17 44.5t-34 20.5t-34 4h-58v155h52q39 0 58 12.5t19 55.5q0 28 -13.5 45t-37.5 17q-52 0 -52 -58v-12h-184v27q0 93 68 149t182 56q110 0 173.5 -51t63.5 -151
q0 -57 -31.5 -99.5t-82.5 -59.5v-5q60 -15 93.5 -57t33.5 -96q0 -108 -72.5 -163t-179.5 -55z" />
    <glyph glyph-name="four.LT" unicode="&#xe544;" horiz-adv-x="540" 
d="M299 0v132h-290v148l223 433h228l-257 -424h96v70l181 112v-182h52v-157h-52v-132h-181z" />
    <glyph glyph-name="five.LT" unicode="&#xe545;" horiz-adv-x="540" 
d="M269 -12q-109 0 -179 46.5t-70 130.5v51h192v-24q0 -22 14.5 -37.5t44.5 -15.5q28 0 42 17.5t14 44.5v71q0 23 -15 37t-41 14q-29 0 -53 -29l-185 25l23 394h429v-171h-267l-7 -124q21 23 59 36t77 13q73 0 122 -39t49 -124v-106q0 -102 -71.5 -156t-177.5 -54z" />
    <glyph glyph-name="six.LT" unicode="&#xe546;" horiz-adv-x="540" 
d="M266 -12q-109 0 -180 56t-71 165v289q0 111 74 169t185 58q109 0 178.5 -52.5t69.5 -139.5v-34h-199v24q0 50 -52 50q-26 0 -40.5 -15t-14.5 -39v-122q51 57 143 57q78 0 122 -46t44 -114v-112q0 -90 -75.5 -142t-183.5 -52zM271 145q26 0 43 16t17 37v78q0 24 -17 35.5
t-38 11.5q-23 0 -41.5 -13.5t-18.5 -45.5v-65q0 -23 15 -38.5t40 -15.5z" />
    <glyph glyph-name="seven.LT" unicode="&#xe547;" horiz-adv-x="540" 
d="M119 0q2 153 61.5 309t129.5 232h-287v172h495v-146q-183 -251 -182 -567h-217z" />
    <glyph glyph-name="eight.LT" unicode="&#xe548;" horiz-adv-x="540" 
d="M271 -12q-116 0 -186.5 45t-70.5 142v55q0 42 22.5 76t56.5 53q-30 15 -49.5 48t-19.5 66v60q0 89 70 140.5t174 51.5q106 0 176.5 -49.5t70.5 -140.5v-57q0 -38 -19 -70t-49 -50q32 -16 55.5 -49.5t23.5 -71.5v-67q0 -85 -73 -133.5t-182 -48.5zM270 140q57 0 57 46v61
q0 25 -16.5 37t-41.5 12q-23 0 -39 -11t-16 -30v-70q0 -21 15.5 -33t40.5 -12zM270 422q57 0 57 46v56q0 49 -58 49q-23 0 -39 -10.5t-16 -30.5v-66q0 -44 56 -44z" />
    <glyph glyph-name="nine.LT" unicode="&#xe549;" horiz-adv-x="540" 
d="M267 -11q-111 0 -178.5 48.5t-67.5 135.5v42h194v-25q0 -23 14.5 -36t37.5 -13q26 0 40.5 14.5t14.5 37.5v128q-52 -61 -134 -61q-81 0 -126 43t-45 124v91q0 98 70.5 152.5t177.5 54.5q114 0 186 -54.5t72 -150.5v-311q0 -100 -71.5 -160t-184.5 -60zM265 392
q22 0 39.5 14.5t17.5 47.5v66q0 22 -14.5 35.5t-40.5 13.5q-27 0 -42 -14t-15 -34v-81q0 -24 17 -36t38 -12z" />
    <glyph glyph-name="apple" unicode="&#xf8ff;" horiz-adv-x="1198" 
d="M749 -171l-182 5l-22 -4l-8 9q27 7 38 10t31 12.5t30 23.5t15 34q9 78 16 249l-116 -3l2 13l115 6q3 48 13 249l45 26q-60 3 -210 7q0 -2 -8 -157q-4 -68 -23 -123.5t-45 -89.5t-57 -57.5t-57 -33t-48 -9.5q-33 0 -93 16.5t-85 30.5l28 43q1 0 40 -15t81 -27.5t66 -11.5
q57 1 103.5 72.5t43.5 153.5q3 83 6 209q-12 0 -36 1t-37 1q-69 0 -125.5 -49.5t-56.5 -117.5q22 -47 92 -76q0 -6 -7.5 -22t-12.5 -20q-79 34 -86 109q0 83 65 141.5t169 76.5h36l6 188l48 20q-225 10 -288 10q-71 0 -127.5 -48.5t-56.5 -116.5q23 -43 93 -71
q0 -11 -25 -42q-80 32 -87 109q0 78 67 134.5t156 77.5q176 0 480 -15q88 0 112 34l10 -4q-31 -72 -163 -72q-54 0 -166 4q-3 -14 -4.5 -78t-3.5 -75l-2 -56q46 -2 142 -6.5t176.5 -7t150.5 -2.5q10 0 38.5 1.5t75 6.5t71.5 13l4 -11q-116 -49 -265 -49q-91 0 -175 4
q-3 -17 -6 -63.5t-6 -95t-3 -54.5q0 -8 -1.5 -28t-1.5 -32l179 13l5 -4l-41 -60l-9 5l27 40q-79 -7 -162 -11q-12 -184 -16 -219q-2 -20 -23 -48t-42 -37l1 -1q35 6 105 6.5t91 2.5v-1q0 -43 -84 -43z" />
    <glyph glyph-name="CR" horiz-adv-x="0" 
 />
    <glyph glyph-name="ringacute" horiz-adv-x="306" 
d="M152 579q-54 0 -82.5 28.5t-28.5 69.5q0 51 41 88l101 89l93 -49l-64 -37q53 -25 53 -86q0 -45 -32 -74t-81 -29zM152 630q21 0 32 13.5t11 36.5t-11 36t-30 13q-20 0 -31.5 -14t-11.5 -36q0 -49 41 -49z" />
    <glyph glyph-name="altogonek" horiz-adv-x="312" 
d="M159 -213q-47 0 -82.5 28.5t-35.5 81.5q0 56 36.5 92t84.5 53l53 -40q-69 -24 -69 -82q0 -40 47 -40q16 0 44 17l38 -78q-47 -32 -116 -32z" />
    <glyph glyph-name="commatop" horiz-adv-x="264" 
d="M49 579v97l53 136h79l-22 -100h55v-133h-165z" />
    <glyph glyph-name="period.sub" horiz-adv-x="216" 
d="M44 -133v132h128v-132h-128z" />
    <glyph glyph-name="comma.sub" horiz-adv-x="216" 
d="M64 -225l32 99h-52v125h128v-118l-55 -106h-53z" />
    <glyph glyph-name="period.sup" horiz-adv-x="216" 
d="M44 380v132h128v-132h-128z" />
    <glyph glyph-name="comma.sup" horiz-adv-x="216" 
d="M64 288l32 99h-52v125h128v-118l-55 -106h-53z" />
    <glyph glyph-name="ogonekplus" horiz-adv-x="312" 
d="M152 -220q-53 0 -90 27t-37 82q0 59 41 99.5t98 55.5l40 -33q-33 -16 -52.5 -42t-19.5 -51q0 -23 12.5 -34t32.5 -11q27 0 61 24l44 -79q-46 -38 -130 -38z" />
    <glyph glyph-name="IJ.alt" horiz-adv-x="1021" 
d="M30 549v164h390v-164h-92v-385h92v-164h-390v164h92v385h-92zM711 -12q-134 0 -203.5 54t-69.5 177v46h203v-40q0 -74 65 -74q32 0 46.5 20.5t14.5 50.5v491h206v-478q0 -117 -69.5 -182t-192.5 -65z" />
    <glyph glyph-name="idotaccent" horiz-adv-x="287" 
d="M48 0v540h191v-540h-191zM48 590v161h191v-161h-191z" />
    </font>
</defs>
</svg>
