<?xml version="1.0" standalone="no"?>
<!DOCTYPE svg PUBLIC "-//W3C//DTD SVG 1.1//EN" "http://www.w3.org/Graphics/SVG/1.1/DTD/svg11.dtd" >
<svg xmlns="http://www.w3.org/2000/svg" xmlns:xlink="http://www.w3.org/1999/xlink" version="1.1">
<metadata>
Created by FontForge 20161013 at Fri Apr 11 05:21:20 2008
 By ,,,
Copyright (c) 2008 by Mrio Feliciano. All rights reserved.
</metadata>
<defs>
<font id="FlamaCondensed-Semibold" horiz-adv-x="421" >
  <font-face 
    font-family="Flama Condensed Semibold"
    font-weight="700"
    font-stretch="normal"
    units-per-em="1000"
    panose-1="2 0 0 0 0 0 0 0 0 0"
    ascent="800"
    descent="-200"
    x-height="532"
    cap-height="713"
    bbox="-136 -216 843 987"
    underline-thickness="50"
    underline-position="-200"
    unicode-range="U+0020-E549"
  />
<missing-glyph horiz-adv-x="959" 
d="M235 118l-40 40l185 185l-185 185l40 40l185 -185l185 185l40 -40l-185 -185l185 -185l-40 -40l-185 185zM55 -18v716h712v-716h-712zM115 42h592v596h-592v-596z" />
    <glyph glyph-name="fi" unicode="fi" horiz-adv-x="473" 
d="M314 0v532h118v-532h-118zM314 602v129h118v-129h-118zM78 0v437h-49v91h49v78q0 54 33.5 85t89.5 31q39 0 68 -7v-89q-16 4 -40 4q-15 0 -24.5 -10.5t-9.5 -29.5v-62h61v-91h-61v-437h-117z" />
    <glyph glyph-name="fl" unicode="fl" horiz-adv-x="504" 
d="M418 -8q-105 0 -105 100v621h118v-584q0 -29 28 -29q11 0 25 3v-99q-30 -12 -66 -12zM78 0v437h-49v91h49v78q0 54 33.5 85t89.5 31q39 0 68 -7v-89q-16 4 -40 4q-15 0 -24.5 -10.5t-9.5 -29.5v-62h61v-91h-61v-437h-117z" />
    <glyph glyph-name=".notdef" horiz-adv-x="959" 
d="M235 118l-40 40l185 185l-185 185l40 40l185 -185l185 185l40 -40l-185 -185l185 -185l-40 -40l-185 185zM55 -18v716h712v-716h-712zM115 42h592v596h-592v-596z" />
    <glyph glyph-name=".null" horiz-adv-x="0" 
 />
    <glyph glyph-name="nonmarkingreturn" horiz-adv-x="333" 
 />
    <glyph glyph-name="space" unicode=" " horiz-adv-x="146" 
 />
    <glyph glyph-name="exclam" unicode="!" horiz-adv-x="209" 
d="M66 205l-19 245v264h116v-264l-18 -245h-79zM49 0v146h112v-146h-112z" />
    <glyph glyph-name="quotedbl" unicode="&#x22;" horiz-adv-x="346" 
d="M57 454l-16 140v120h105v-120l-16 -140h-73zM216 454l-16 140v120h105v-120l-16 -140h-73z" />
    <glyph glyph-name="numbersign" unicode="#" horiz-adv-x="427" 
d="M74 -2l17 189h-70l7 73h70l22 208h-72l7 73h70l19 175h67l-17 -175h79l18 175h66l-17 -175h70l-6 -73h-70l-21 -208h71l-6 -73h-72l-18 -189h-68l18 189h-79l-18 -189h-67zM166 260h80l21 208h-80z" />
    <glyph glyph-name="dollar" unicode="$" horiz-adv-x="402" 
d="M179 -35v63q-62 8 -105.5 49t-46.5 116l114 4q7 -78 66 -78q26 0 40 17t14 43q0 48 -62 108l-65 65q-47 46 -71 86t-24 86q0 62 36.5 105t103.5 52v62h79v-63q112 -20 119 -157l-102 -2q-7 76 -63 76q-27 0 -41.5 -17t-14.5 -44q0 -16 10.5 -35t20.5 -31t31 -33l64 -65
q45 -48 70 -90t25 -90q0 -58 -32 -101t-87 -56v-70h-79z" />
    <glyph glyph-name="percent" unicode="%" horiz-adv-x="609" 
d="M147 352q-49 0 -81.5 28.5t-32.5 77.5v156q0 52 31.5 81.5t81.5 29.5t82.5 -29t32.5 -81v-157q0 -48 -33 -77t-81 -29zM147 419q35 0 35 37v165q0 15 -9 26t-27 11q-17 0 -26 -11t-9 -26v-165q0 -37 36 -37zM134 -1l283 717h63l-282 -717h-64zM462 -11q-49 0 -81.5 28.5
t-32.5 77.5v152q0 52 32 83.5t82 31.5t82.5 -29.5t32.5 -80.5v-156q0 -47 -34 -77t-81 -30zM462 56q18 0 26.5 11t8.5 26v166q0 14 -9 25t-26 11t-25.5 -10.5t-8.5 -25.5v-166q0 -37 34 -37z" />
    <glyph glyph-name="ampersand" unicode="&#x26;" horiz-adv-x="517" 
d="M195 -13q-80 0 -121.5 54.5t-41.5 146.5q0 139 114 206q-58 102 -58 166q0 70 41 117.5t120 47.5q72 0 112.5 -42.5t40.5 -113.5q0 -126 -112 -196q2 -5 38.5 -66t39.5 -66q12 41 20 98l94 -11q-16 -104 -58 -192q3 -6 39.5 -67t39.5 -69h-132l-34 58q-59 -71 -142 -71z
M220 92q40 0 71 46q-3 7 -49 84.5t-49 86.5q-43 -32 -43 -111q0 -44 17.5 -75t52.5 -31zM245 452q54 39 54 116q0 30 -13 49t-35 19q-24 0 -36.5 -19t-12.5 -46q0 -41 43 -119z" />
    <glyph glyph-name="quotesingle" unicode="'" horiz-adv-x="189" 
d="M57 454l-16 140v120h105v-120l-16 -140h-73z" />
    <glyph glyph-name="parenleft" unicode="(" horiz-adv-x="231" 
d="M153 -172q-50 85 -79.5 209.5t-29.5 241.5q0 119 29 237.5t80 206.5l68 -6q-41 -134 -57.5 -220.5t-16.5 -218.5q0 -209 74 -444z" />
    <glyph glyph-name="parenright" unicode=")" horiz-adv-x="231" 
d="M78 -172l-68 6q74 235 74 444q0 132 -16.5 218.5t-57.5 220.5l68 6q51 -88 80 -206.5t29 -237.5q0 -117 -29.5 -241.5t-79.5 -209.5z" />
    <glyph glyph-name="asterisk" unicode="*" horiz-adv-x="347" 
d="M108 421l-56 36l63 93l-96 56l34 56l87 -50v101h67v-102l87 51l34 -56l-97 -56l64 -93l-56 -36l-65 95z" />
    <glyph glyph-name="plus" unicode="+" horiz-adv-x="429" 
d="M174 137v140h-133v82h133v142h82l-1 -142h134v-82h-133v-140h-82z" />
    <glyph glyph-name="comma" unicode="," horiz-adv-x="189" 
d="M50 -121l31 128h-42v139h112v-132l-41 -135h-60z" />
    <glyph glyph-name="hyphen" unicode="-" horiz-adv-x="237" 
d="M24 253v93h189v-93h-189z" />
    <glyph glyph-name="period" unicode="." horiz-adv-x="189" 
d="M39 0v146h112v-146h-112z" />
    <glyph glyph-name="slash" unicode="/" horiz-adv-x="254" 
d="M-6 -163l160 880h78l-157 -880h-81z" />
    <glyph glyph-name="zero" unicode="0" horiz-adv-x="431" 
d="M216 -10q-77 0 -126 41t-49 118v418q0 76 50.5 116.5t124.5 40.5t124.5 -40.5t50.5 -115.5v-419q0 -77 -49.5 -118t-125.5 -41zM216 92q27 0 41 16t14 38v424q0 22 -15 36.5t-40 14.5t-39.5 -15t-14.5 -36v-425q0 -22 14 -37.5t40 -15.5z" />
    <glyph glyph-name="one" unicode="1" horiz-adv-x="286" 
d="M94 0v590l-53 -13l-16 91l119 46h69v-714h-119z" />
    <glyph glyph-name="two" unicode="2" horiz-adv-x="391" 
d="M38 0v78l121 207q80 142 80 243v20q-2 74 -49 74q-48 0 -48 -64v-44h-108v44q0 76 43 121.5t120 45.5q79 0 119 -48t40 -132q0 -140 -117 -334l-61 -103v-3h181v-105h-321z" />
    <glyph glyph-name="three" unicode="3" horiz-adv-x="403" 
d="M199 -10q-88 0 -128.5 46t-40.5 123v41h112v-45q0 -65 52 -65q27 0 41 24.5t14 86.5q0 106 -73 106h-49v109h51q34 0 49.5 24t15.5 83q0 98 -52 98q-47 0 -47 -66v-42h-111v40q0 81 43.5 126t124.5 45q74 0 116.5 -48.5t42.5 -136.5q0 -142 -86 -171v-4q48 -16 72 -60.5
t24 -105.5q0 -104 -49.5 -156t-121.5 -52z" />
    <glyph glyph-name="four" unicode="4" horiz-adv-x="417" 
d="M228 0v166h-203v94l164 453h126l-181 -445h94v115l109 75v-190h51v-102h-51v-166h-109z" />
    <glyph glyph-name="five" unicode="5" horiz-adv-x="412" 
d="M201 -11q-79 0 -121.5 41t-42.5 112v64h110v-54q0 -27 14.5 -43.5t40.5 -16.5q53 0 53 72v137q0 66 -54 66q-31 0 -54 -38l-103 7l13 377h294v-105h-195q0 -77 -7 -182q41 33 97 33q57 0 92.5 -34t35.5 -106v-160q0 -80 -48.5 -125t-124.5 -45z" />
    <glyph glyph-name="six" unicode="6" 
d="M211 -10q-79 0 -125.5 44.5t-46.5 117.5v406q0 79 50 123t128 44q74 0 117 -40.5t43 -106.5v-58h-113v51q0 22 -12.5 37t-36.5 15q-27 0 -40.5 -16.5t-13.5 -40.5v-168q40 42 100 42q59 0 91.5 -33t32.5 -90v-171q0 -70 -48 -113t-126 -43zM214 90q26 0 39 16.5t13 39.5
v160q0 24 -13.5 36.5t-34.5 12.5q-24 0 -40 -17t-17 -42v-150q0 -23 13.5 -39.5t39.5 -16.5z" />
    <glyph glyph-name="seven" unicode="7" horiz-adv-x="385" 
d="M92 0q1 168 42 331t100 276h-205v106h331v-91q-145 -264 -147 -622h-121z" />
    <glyph glyph-name="eight" unicode="8" horiz-adv-x="415" 
d="M207 -10q-77 0 -125 38t-48 111v114q0 77 62 111q-26 14 -40.5 41.5t-14.5 58.5v109q0 71 47 111.5t120 40.5t119.5 -38.5t46.5 -109.5v-106q0 -76 -56 -107q63 -32 63 -106v-118q0 -71 -49 -110.5t-125 -39.5zM208 87q26 0 40 14.5t14 37.5v127q0 25 -15.5 40t-38.5 15
t-38 -14.5t-15 -37.5v-130q0 -23 14 -37.5t39 -14.5zM209 409q24 0 38 15t14 38v114q0 23 -15 36.5t-38 13.5t-37.5 -13t-14.5 -35v-116q0 -23 15 -38t38 -15z" />
    <glyph glyph-name="nine" unicode="9" horiz-adv-x="419" 
d="M208 -10q-76 0 -120.5 40.5t-44.5 108.5v56h113v-48q0 -25 13 -39.5t36 -14.5q26 0 39.5 16t13.5 42v171q-37 -47 -97 -47q-59 0 -92 33t-33 90v170q0 71 47.5 113.5t125.5 42.5q79 0 125.5 -44.5t46.5 -117.5v-396q0 -80 -48 -128t-125 -48zM203 360q22 0 38.5 16.5
t16.5 42.5v152q0 23 -13.5 39t-38.5 16q-26 0 -39 -17t-13 -40v-159q0 -24 14 -37t35 -13z" />
    <glyph glyph-name="colon" unicode=":" horiz-adv-x="189" 
d="M39 0v146h112v-146h-112zM39 385v145h112v-145h-112z" />
    <glyph glyph-name="semicolon" unicode=";" horiz-adv-x="189" 
d="M50 -121l31 128h-42v139h112v-132l-41 -135h-60zM39 385v145h112v-145h-112z" />
    <glyph glyph-name="less" unicode="&#x3c;" horiz-adv-x="424" 
d="M341 144l-296 144l1 63l296 143l36 -74l-217 -101q180 -82 217 -102z" />
    <glyph glyph-name="equal" unicode="=" horiz-adv-x="424" 
d="M41 192v83h343v-83h-343zM41 351v83h343v-83h-343z" />
    <glyph glyph-name="greater" unicode="&#x3e;" horiz-adv-x="424" 
d="M83 145l-36 73l216 102q-8 4 -107.5 50.5t-109.5 50.5l37 73l296 -143v-63z" />
    <glyph glyph-name="question" unicode="?" horiz-adv-x="376" 
d="M123 205v27q1 87 48 161q1 2 10 16t11 17.5t9.5 16t10 18.5t7 18.5t6.5 21.5t3.5 21.5t1.5 25.5q0 31 -12 52t-37 21q-48 0 -48 -65v-51h-102v51q0 77 42.5 122t115.5 45q75 0 116.5 -47t42.5 -130q0 -86 -67 -183q-42 -66 -49 -101q-3 -11 -3 -23v-34h-106zM122 0v146
h112v-146h-112z" />
    <glyph glyph-name="at" unicode="@" horiz-adv-x="708" 
d="M378 -76q-122 0 -203 54q-141 91 -141 311q0 187 99 298.5t254 111.5q57 0 107.5 -18.5t91.5 -54t65 -95.5t24 -137q0 -119 -60 -204t-142 -101h-95l8 57h-3q-43 -67 -108 -67q-44 0 -69.5 25.5t-25.5 71.5q0 22 3 37q16 122 32 210q9 56 46 88.5t87 32.5q63 0 84 -49h2
l6 42h99l-56 -392q56 16 94 87t38 160q0 132 -66 196t-168 64q-136 0 -211.5 -101.5t-75.5 -260.5q0 -198 126 -273q66 -41 157 -41q83 0 190 31l12 -43q-85 -40 -201 -40zM329 168q26 0 45 22.5t24 56.5l20 143q0 2 0.5 7t0.5 8q0 26 -13 40.5t-34 14.5q-49 0 -59 -66
l-22 -162q-2 -8 -2 -23q0 -41 40 -41z" />
    <glyph glyph-name="A" unicode="A" horiz-adv-x="500" 
d="M22 0l145 714h172l139 -714h-127l-33 173h-147l-32 -173h-117zM191 275h107l-51 296h-3z" />
    <glyph glyph-name="B" unicode="B" horiz-adv-x="462" 
d="M47 0v713h214q77 0 118.5 -45.5t41.5 -135.5q0 -70 -25.5 -112t-68.5 -54v-4q47 -12 72.5 -54t25.5 -108q0 -100 -43 -150t-116 -50h-219zM172 103h63q63 0 63 105q0 101 -70 101h-56v-206zM172 412h55q69 0 69 104q0 95 -61 95h-63v-199z" />
    <glyph glyph-name="C" unicode="C" horiz-adv-x="454" 
d="M236 -10q-89 0 -143 46t-54 133v376q0 83 55.5 131t142.5 48q81 0 132 -45t51 -121v-79h-114v67q0 32 -18.5 50.5t-50.5 18.5q-70 0 -70 -73v-366q0 -75 71 -75q31 0 49.5 18.5t18.5 48.5v67h114v-74q0 -79 -51 -125t-133 -46z" />
    <glyph glyph-name="D" unicode="D" horiz-adv-x="470" 
d="M47 0v713h197q82 0 134.5 -42.5t52.5 -123.5v-371q0 -86 -52.5 -131t-136.5 -45h-195zM172 108h59q37 0 54.5 22t17.5 53v351q0 32 -18.5 51.5t-54.5 19.5h-58v-497z" />
    <glyph glyph-name="E" unicode="E" horiz-adv-x="408" 
d="M47 0v713h327v-107h-202v-184h161v-108h-161v-206h203v-108h-328z" />
    <glyph glyph-name="F" unicode="F" horiz-adv-x="400" 
d="M47 0v713h327v-107h-202v-188h161v-109h-161v-309h-125z" />
    <glyph glyph-name="G" unicode="G" horiz-adv-x="465" 
d="M238 -10q-89 0 -144 47t-55 134v374q0 83 55.5 131t141.5 48q82 0 136 -43.5t54 -119.5v-76h-116v66q0 30 -20 48t-52 18q-35 0 -53 -21t-18 -55v-367q0 -35 18.5 -55t52.5 -20q67 0 67 67v115h-78v96h200v-217q0 -80 -50.5 -125t-138.5 -45z" />
    <glyph glyph-name="H" unicode="H" horiz-adv-x="483" 
d="M47 0v713h126v-294h138v294h125v-713h-125v304h-138v-304h-126z" />
    <glyph glyph-name="I" unicode="I" horiz-adv-x="220" 
d="M47 0v713h126v-713h-126z" />
    <glyph glyph-name="J" unicode="J" horiz-adv-x="442" 
d="M213 -11q-89 0 -136 45.5t-47 132.5v97h120v-98q0 -68 61 -68t61 69v546h126v-539q0 -86 -48.5 -135.5t-136.5 -49.5z" />
    <glyph glyph-name="K" unicode="K" horiz-adv-x="467" 
d="M47 0v713h126v-324l147 324h125l-130 -277l132 -436h-135l-90 329l-49 -92v-237h-126z" />
    <glyph glyph-name="L" unicode="L" horiz-adv-x="399" 
d="M47 0v713h125v-605h203v-108h-328z" />
    <glyph glyph-name="M" unicode="M" horiz-adv-x="581" 
d="M47 0v713h159l86 -290h2l88 290h152v-713h-112v517h-2l-86 -302h-86l-88 301h-2v-516h-111z" />
    <glyph glyph-name="N" unicode="N" horiz-adv-x="496" 
d="M47 0v713h130l158 -412h3v412h112v-713h-114l-175 457h-2v-457h-112z" />
    <glyph glyph-name="O" unicode="O" horiz-adv-x="475" 
d="M237 -10q-92 0 -145 47.5t-53 140.5v358q0 89 55.5 138.5t143.5 49.5q87 0 142.5 -47t55.5 -137v-359q0 -93 -55.5 -142t-143.5 -49zM238 101q34 0 52 21t18 54v367q0 33 -19 52t-52 19q-34 0 -52 -20t-18 -53v-365q0 -33 18.5 -54t52.5 -21z" />
    <glyph glyph-name="P" unicode="P" horiz-adv-x="454" 
d="M47 0v713h201q86 0 129 -55.5t43 -159.5q0 -231 -177 -231h-70v-267h-126zM173 371h52q72 0 72 124q0 113 -70 113h-54v-237z" />
    <glyph glyph-name="Q" unicode="Q" horiz-adv-x="475" 
d="M384 -86l-107 80q-16 -4 -39 -4q-92 0 -145.5 47.5t-53.5 140.5v358q0 89 55.5 138.5t143.5 49.5t143.5 -47t55.5 -137v-359q0 -79 -44 -123l70 -46zM239 101q34 0 52.5 21t18.5 54v367q0 33 -20 52t-53 19q-34 0 -52 -20t-18 -53v-365q0 -34 18.5 -54.5t53.5 -20.5z" />
    <glyph glyph-name="R" unicode="R" horiz-adv-x="465" 
d="M47 0v713h193q90 0 138.5 -52t48.5 -156q0 -146 -87 -187l95 -318h-131l-78 290h-53v-290h-126zM173 384h57q70 0 70 112q0 111 -71 111h-56v-223z" />
    <glyph glyph-name="S" unicode="S" horiz-adv-x="426" 
d="M215 -10q-84 0 -133 52.5t-54 145.5l118 4q10 -100 70 -100q31 0 45 22t14 53q0 50 -66 114l-71 74q-99 96 -99 192q0 76 47 127t133 51q73 0 120 -45t51 -148l-111 -4q-5 46 -19.5 70.5t-46.5 24.5q-27 0 -42 -18.5t-15 -48.5q0 -18 12.5 -39.5t24 -34t36.5 -37.5
l66 -67q103 -101 103 -205q0 -79 -49.5 -131t-133.5 -52z" />
    <glyph glyph-name="T" unicode="T" horiz-adv-x="434" 
d="M154 0v606h-135v107h396v-107h-134v-606h-127z" />
    <glyph glyph-name="U" unicode="U" horiz-adv-x="473" 
d="M233 -11q-90 0 -140 46t-50 137v541h128v-535q0 -38 19.5 -58t50.5 -20q33 0 50.5 21t17.5 56v536h120v-537q1 -88 -54 -137.5t-142 -49.5z" />
    <glyph glyph-name="V" unicode="V" horiz-adv-x="427" 
d="M148 -4l-139 717h126l82 -484h4l83 484h114l-137 -717h-133z" />
    <glyph glyph-name="W" unicode="W" horiz-adv-x="642" 
d="M128 -4l-113 717h125l59 -450h2l68 450h121l65 -448h2l58 448h112l-111 -717h-118l-72 477h-4l-74 -477h-120z" />
    <glyph glyph-name="X" unicode="X" horiz-adv-x="436" 
d="M9 0l139 359l-132 354h133l75 -214l76 214h119l-132 -344l139 -369h-131l-83 226l-82 -226h-121z" />
    <glyph glyph-name="Y" unicode="Y" horiz-adv-x="435" 
d="M155 0v286l-147 427h134l84 -277l81 277h120l-146 -427v-286h-126z" />
    <glyph glyph-name="Z" unicode="Z" horiz-adv-x="399" 
d="M30 0v83l203 523h-199v107h339v-92l-199 -513h195v-108h-339z" />
    <glyph glyph-name="bracketleft" unicode="[" horiz-adv-x="233" 
d="M55 -168v881h157v-66h-61v-751h61v-64h-157z" />
    <glyph glyph-name="backslash" unicode="\" horiz-adv-x="254" 
d="M180 -169l-166 885h78l168 -885h-80z" />
    <glyph glyph-name="bracketright" unicode="]" horiz-adv-x="233" 
d="M21 -168v65h60v750h-60v66h157v-881h-157z" />
    <glyph glyph-name="asciicircum" unicode="^" horiz-adv-x="391" 
d="M61 181l93 377h82l84 -377h-82l-45 224l-49 -224h-83z" />
    <glyph glyph-name="underscore" unicode="_" horiz-adv-x="392" 
d="M0 -134v80h392v-80h-392z" />
    <glyph glyph-name="grave" unicode="`" horiz-adv-x="241" 
d="M125 586l-100 147h119l67 -147h-86z" />
    <glyph glyph-name="a" unicode="a" horiz-adv-x="400" 
d="M146 -10q-51 0 -84 40.5t-33 120.5q0 81 51.5 126.5t128.5 47.5h31v81q0 44 -47 44q-46 0 -46 -44v-45h-107v47q0 61 44.5 98.5t116.5 37.5t114 -38t42 -104v-279q0 -25 2.5 -72.5t2.5 -50.5h-108q0 1 -1 8.5t-2 20t-2 25.5h-3q-14 -33 -43 -48.5t-57 -15.5zM190 82
q20 0 35 18t15 43v110h-28q-29 0 -47 -22t-18 -66q0 -83 43 -83z" />
    <glyph glyph-name="b" unicode="b" horiz-adv-x="418" 
d="M247 -9q-28 0 -53 14t-38 38h-2l-2 -43h-106v713h118v-223h2q34 55 97 55q59 0 88 -35t29 -88v-301q0 -58 -36.5 -94t-96.5 -36zM218 84q45 0 45 51v262q0 51 -46 51q-23 0 -38 -19t-15 -52v-228q0 -29 15.5 -47t38.5 -18z" />
    <glyph glyph-name="c" unicode="c" horiz-adv-x="389" 
d="M201 -10q-73 0 -118 40.5t-45 114.5v239q0 75 47 117.5t118 42.5q70 0 112 -38t42 -98v-50h-105v42q0 21 -12 34.5t-35 13.5q-24 0 -36.5 -15.5t-12.5 -40.5v-250q0 -58 49 -58q25 0 36 14.5t11 34.5v42h105v-48q0 -65 -42 -101t-114 -36z" />
    <glyph glyph-name="d" unicode="d" horiz-adv-x="417" 
d="M156 -9q-60 0 -89 35t-29 91v302q0 54 33.5 89.5t90.5 35.5q59 0 92 -46h1v215h117v-713h-109l-2 52h-3q-17 -30 -45.5 -45.5t-56.5 -15.5zM200 86q23 0 39.5 20.5t16.5 51.5v228q0 28 -16.5 47t-38.5 19q-46 0 -46 -55v-257q0 -25 12 -39.5t33 -14.5z" />
    <glyph glyph-name="e" unicode="e" horiz-adv-x="391" 
d="M207 -11q-77 0 -123 40.5t-46 117.5v231q0 77 47 121.5t119 44.5t112.5 -42t40.5 -113v-164h-202v-64q0 -76 75 -76q41 0 99 21l22 -85q-66 -32 -144 -32zM155 309h97v86q0 55 -48 55q-24 0 -36.5 -16t-12.5 -40v-85z" />
    <glyph glyph-name="f" unicode="f" horiz-adv-x="285" 
d="M79 0v437h-49v91h49v78q0 54 33.5 85t89.5 31q39 0 68 -7v-89q-16 4 -40 4q-15 0 -24.5 -10.5t-9.5 -29.5v-62h61v-91h-61v-437h-117z" />
    <glyph glyph-name="g" unicode="g" horiz-adv-x="417" 
d="M189 -170q-77 0 -139 27l29 91q56 -22 103 -22q73 0 73 71v84h-2q-16 -30 -43 -47t-55 -17q-58 0 -87.5 34.5t-29.5 88.5v271q0 58 35 95t91 37q27 0 54 -14t41 -39h1l1 45h111v-530q0 -86 -48 -130.5t-135 -44.5zM201 111q22 0 37.5 18.5t15.5 47.5v209q0 28 -17 46.5
t-38 18.5q-20 0 -32 -15t-12 -41v-232q0 -52 46 -52z" />
    <glyph glyph-name="h" unicode="h" 
d="M46 0v713h118v-231h1q38 62 108 62q46 0 76 -29t30 -78v-437h-117v391q0 54 -45 54q-23 0 -38 -21.5t-15 -51.5v-372h-118z" />
    <glyph glyph-name="i" unicode="i" horiz-adv-x="209" 
d="M46 0v532h118v-532h-118zM46 602v129h118v-129h-118z" />
    <glyph glyph-name="j" unicode="j" horiz-adv-x="212" 
d="M48 -169q-21 0 -51 5v92q3 -1 20 -1q19 0 26.5 10t7.5 31v564h117v-579q0 -58 -32.5 -90t-87.5 -32zM50 602v129h118v-129h-118z" />
    <glyph glyph-name="k" unicode="k" horiz-adv-x="402" 
d="M46 0v713h118v-402l107 221h117l-95 -182l95 -350h-124l-61 252l-39 -71v-181h-118z" />
    <glyph glyph-name="l" unicode="l" horiz-adv-x="233" 
d="M149 -8q-105 0 -105 100v621h118v-584q0 -29 28 -29q12 0 25 3v-99q-30 -12 -66 -12z" />
    <glyph glyph-name="m" unicode="m" horiz-adv-x="638" 
d="M46 0v532h115v-50h1q38 62 111 62q76 0 99 -64h1q45 64 117 64q45 0 75.5 -29.5t30.5 -77.5v-437h-117v391q0 54 -46 54q-23 0 -38 -20t-15 -49v-376h-118v392q0 53 -45 53q-23 0 -38 -21.5t-15 -50.5v-373h-118z" />
    <glyph glyph-name="n" unicode="n" 
d="M46 0v532h115v-49h1q38 61 111 61q46 0 76 -29t30 -78v-437h-117v391q0 54 -45 54q-23 0 -38 -21.5t-15 -50.5v-373h-118z" />
    <glyph glyph-name="o" unicode="o" horiz-adv-x="410" 
d="M205 -10q-75 0 -121 40t-46 117v238q0 75 48 117t119 42q72 0 120 -40t48 -115v-241q0 -77 -47.5 -117.5t-120.5 -40.5zM206 84q49 0 49 57v250q0 24 -13 40.5t-37 16.5q-25 0 -37 -16.5t-12 -41.5v-250q0 -24 12.5 -40t37.5 -16z" />
    <glyph glyph-name="p" unicode="p" horiz-adv-x="418" 
d="M46 -161v693h115v-50h2q16 28 45.5 44.5t57.5 16.5q58 0 86 -35.5t28 -91.5v-300q0 -54 -33.5 -90t-91.5 -36q-59 0 -90 46h-1v-197h-118zM217 84q46 0 46 52v261q0 51 -46 51q-23 0 -38 -18t-15 -51v-233q0 -28 15 -45t38 -17z" />
    <glyph glyph-name="q" unicode="q" horiz-adv-x="418" 
d="M255 -161v204h-2q-38 -54 -97 -54t-88.5 35t-29.5 89v301q0 57 35.5 93t95.5 36q65 0 95 -53h1l1 44h106v-695h-117zM202 86q22 0 37.5 19t15.5 48v234q0 29 -16.5 47.5t-38.5 18.5q-21 0 -33 -15t-12 -42v-255q0 -25 12.5 -40t34.5 -15z" />
    <glyph glyph-name="r" unicode="r" horiz-adv-x="306" 
d="M46 0v532h116v-60h1q29 66 91 66q22 0 35 -4v-111q-21 4 -47 4q-33 0 -55.5 -16.5t-22.5 -50.5v-360h-118z" />
    <glyph glyph-name="s" unicode="s" horiz-adv-x="359" 
d="M181 -10q-63 0 -106 37t-49 114l109 3q5 -65 49 -65q39 0 39 45q0 36 -61 89l-43 40q-81 71 -81 148q0 58 37.5 100t112.5 42q64 0 102.5 -36.5t42.5 -113.5l-101 -3q-6 66 -46 66q-41 0 -41 -42q0 -27 51 -73l51 -48q87 -82 87 -159q0 -60 -38.5 -102t-114.5 -42z" />
    <glyph glyph-name="t" unicode="t" horiz-adv-x="291" 
d="M186 -7q-49 0 -80 25t-31 75v343h-49v92h49v121h117v-121h76v-92h-76v-308q0 -33 30 -33q25 0 43 5v-94q-35 -13 -79 -13z" />
    <glyph glyph-name="u" unicode="u" 
d="M148 -11q-45 0 -75 29.5t-30 78.5v435h116v-392q0 -52 46 -52q23 0 38.5 21.5t15.5 50.5v372h116v-532h-114v53h-1q-39 -64 -112 -64z" />
    <glyph glyph-name="v" unicode="v" horiz-adv-x="375" 
d="M127 -2l-119 534h125l60 -349h2l64 349h107l-117 -534h-122z" />
    <glyph glyph-name="w" unicode="w" horiz-adv-x="562" 
d="M119 -1l-102 533h122l43 -307h4l50 307h109l49 -307h3l46 307h108l-103 -533h-103l-58 331h-3l-59 -331h-106z" />
    <glyph glyph-name="x" unicode="x" horiz-adv-x="374" 
d="M7 1l116 270l-109 261h123l59 -153l57 153h106l-108 -255l116 -276h-123l-64 166l-66 -166h-107z" />
    <glyph glyph-name="y" unicode="y" horiz-adv-x="376" 
d="M103 -171q-36 0 -68 8l12 93q32 -6 42 -6q32 0 42 33l11 48l-133 527h122l68 -335h3l58 335h107l-128 -566q-34 -137 -136 -137z" />
    <glyph glyph-name="z" unicode="z" horiz-adv-x="343" 
d="M27 0v82l158 353h-154v97h286v-86l-155 -348h155v-98h-290z" />
    <glyph glyph-name="braceleft" unicode="{" horiz-adv-x="239" 
d="M146 -168q-84 0 -84 89v284q0 31 -7 43.5t-28 14.5v69q22 5 28.5 15t6.5 33v240q0 93 85 93h73v-67h-42q-19 0 -19 -22v-229q0 -39 -9.5 -60.5t-36.5 -32.5v-5q29 -12 37.5 -31t8.5 -62v-284q0 -23 19 -23h42v-65h-74z" />
    <glyph glyph-name="bar" unicode="|" horiz-adv-x="253" 
d="M89 -105v822h76v-822h-76z" />
    <glyph glyph-name="braceright" unicode="}" horiz-adv-x="239" 
d="M18 -168v65h42q19 0 19 23v284q0 43 8.5 62t36.5 31v5q-26 11 -35.5 32.5t-9.5 60.5v230q0 22 -19 22h-42v67h74q83 0 83 -93v-241q0 -23 7 -33t29 -15v-69q-21 -2 -28.5 -15t-7.5 -43v-284q0 -89 -83 -89h-74z" />
    <glyph glyph-name="asciitilde" unicode="~" horiz-adv-x="409" 
d="M89 250l-55 10q15 114 88 114q22 0 83.5 -13.5t81.5 -13.5q14 0 21 9t14 30l53 -11q-14 -115 -85 -115q-21 0 -85 14.5t-80 14.5q-15 0 -22.5 -9t-13.5 -30z" />
    <glyph glyph-name="uni00A0" unicode="&#xa0;" horiz-adv-x="146" 
 />
    <glyph glyph-name="exclamdown" unicode="&#xa1;" horiz-adv-x="209" 
d="M144 357l19 -245v-264h-116v264l18 245h79zM161 562v-146h-112v146h112z" />
    <glyph glyph-name="cent" unicode="&#xa2;" horiz-adv-x="388" 
d="M151 -57v76q-55 11 -86.5 49t-31.5 99v230q0 61 32.5 99.5t85.5 51.5v76h98v-76q50 -11 78 -46t28 -84v-55h-105v50q0 49 -49 49q-26 0 -38.5 -16t-12.5 -42v-239q0 -27 12.5 -44t38.5 -17t37.5 15t11.5 37v52h105v-59q0 -51 -27.5 -84.5t-78.5 -44.5v-77h-98z" />
    <glyph glyph-name="sterling" unicode="&#xa3;" horiz-adv-x="454" 
d="M35 0v101h50v213h-43v83h43v161q0 82 50 124t124 42q70 0 112 -38.5t42 -107.5v-64h-105v62q0 50 -50 50q-22 0 -36.5 -14t-14.5 -41v-174h129v-83h-129v-213h217l-18 -101h-371z" />
    <glyph glyph-name="currency" unicode="&#xa4;" horiz-adv-x="385" 
d="M80 191l-37 37l40 40q-26 35 -26 79q0 38 22 73l-41 41l36 36l40 -39q36 26 78 26q39 0 74 -22l40 40l37 -37l-40 -39q27 -39 27 -80q0 -38 -23 -74l40 -40l-36 -36l-40 39q-34 -25 -78 -25q-40 0 -73 22zM193 258q40 0 61.5 25t21.5 64q0 38 -23 63.5t-60 25.5
q-40 0 -61.5 -25t-21.5 -65q0 -36 22.5 -62t60.5 -26z" />
    <glyph glyph-name="yen" unicode="&#xa5;" horiz-adv-x="430" 
d="M152 0v236h-113v80h100l-133 397h132l84 -275l80 275h122l-132 -397h99v-80h-113v-236h-126z" />
    <glyph glyph-name="brokenbar" unicode="&#xa6;" horiz-adv-x="292" 
d="M94 -46v360h84v-360h-84zM94 385v331h84v-331h-84z" />
    <glyph glyph-name="section" unicode="&#xa7;" horiz-adv-x="398" 
d="M195 -43q-29 0 -55 6.5t-50 22t-38 44.5t-14 70v36h96v-25q0 -75 68 -75q30 0 44 20.5t14 48.5q0 51 -58 77q-39 16 -53 21q-110 43 -110 140q0 59 58 112q-56 43 -56 118q0 66 42 106.5t117 40.5q69 0 110.5 -36.5t41.5 -104.5v-35h-92v30q0 29 -15.5 47.5t-44.5 18.5
q-28 0 -43.5 -17.5t-15.5 -44.5q0 -50 54 -73l58 -24q110 -49 110 -134q0 -69 -58 -117q61 -45 60 -117q0 -70 -47 -113t-123 -43zM226 276q38 19 38 57q0 36 -46 56q-39 17 -47 19q-35 -24 -35 -61q0 -36 49 -55z" />
    <glyph glyph-name="dieresis" unicode="&#xa8;" horiz-adv-x="320" 
d="M40 591v137h93v-137h-93zM188 591v137h93v-137h-93z" />
    <glyph glyph-name="copyright" unicode="&#xa9;" horiz-adv-x="723" 
d="M364 71q-69 0 -111.5 36.5t-42.5 103.5v270q0 67 43 105.5t111 38.5q66 0 106.5 -35.5t40.5 -95.5v-82h-96v76q0 20 -12.5 34t-36.5 14q-51 0 -51 -57v-262q0 -57 50 -57q26 0 38 13.5t12 33.5v78h96v-81q0 -62 -40.5 -97.5t-106.5 -35.5zM361 -44q-155 0 -239 111
t-84 282q0 108 37.5 195.5t112 141t173.5 53.5q152 0 237.5 -112t85.5 -278q0 -168 -85.5 -280.5t-237.5 -112.5zM362 14q111 0 182 91.5t71 243.5q0 154 -70 245.5t-184 91.5t-183.5 -91.5t-69.5 -245.5q0 -155 71 -245t183 -90z" />
    <glyph glyph-name="ordfeminine" unicode="&#xaa;" horiz-adv-x="274" 
d="M99 390q-32 0 -52 23.5t-20 71.5q0 47 32.5 74t79.5 27h17v45q0 25 -26 25t-26 -25v-26h-70v27q0 37 28 59.5t73 22.5q46 0 72 -22.5t26 -62.5v-162q0 -43 4 -71h-72q-1 3 -4 31q-19 -37 -62 -37zM129 448q11 0 19 9t8 22v61h-16q-36 0 -36 -47q0 -45 25 -45zM43 294v65
h190v-65h-190z" />
    <glyph glyph-name="guillemotleft" unicode="&#xab;" horiz-adv-x="395" 
d="M135 118l-115 156l114 157l62 -37l-57 -120l59 -121zM303 121l-114 153l114 153l62 -37l-57 -116l59 -117z" />
    <glyph glyph-name="logicalnot" unicode="&#xac;" horiz-adv-x="468" 
d="M343 161v115h-310v80h394v-195h-84z" />
    <glyph glyph-name="registered" unicode="&#xae;" horiz-adv-x="423" 
d="M212 308q-84 0 -133.5 62.5t-49.5 154.5t52 154.5t132 62.5q82 0 133 -62t51 -155q0 -91 -51 -154t-134 -63zM212 348q58 0 98.5 48.5t40.5 128.5t-40 129t-99 49q-57 0 -96.5 -49t-39.5 -129t40 -128.5t96 -48.5zM140 402v254h83q34 0 53.5 -20.5t19.5 -56.5
q0 -54 -38 -72l45 -105h-56l-38 96h-17v-96h-52zM192 538h22q30 0 30 37q0 38 -30 38h-22v-75z" />
    <glyph glyph-name="macron" unicode="&#xaf;" horiz-adv-x="334" 
d="M54 598v84h225v-84h-225z" />
    <glyph glyph-name="degree" unicode="&#xb0;" horiz-adv-x="248" 
d="M124 546q-40 0 -66 26t-26 63q0 36 26.5 62.5t65.5 26.5t65.5 -26t26.5 -63t-27 -63t-65 -26zM124 591q17 0 29 12.5t12 31.5q0 18 -11.5 30.5t-29.5 12.5t-29.5 -12t-11.5 -31t12 -31.5t29 -12.5z" />
    <glyph glyph-name="plusminus" unicode="&#xb1;" horiz-adv-x="429" 
d="M174 188v123h-133v83h133v128h82v-128h133v-83h-133v-123h-82zM43 47v82h342v-82h-342z" />
    <glyph glyph-name="twosuperior" unicode="&#xb2;" horiz-adv-x="274" 
d="M34 380v54l83 115q47 73 47 117v5q0 38 -27 38q-29 0 -29 -37v-23h-80v27q0 49 29.5 77t80.5 28q53 0 82 -29.5t29 -81.5q0 -30 -12.5 -63t-24.5 -52t-37 -54l-34 -50h109v-71h-216z" />
    <glyph glyph-name="threesuperior" unicode="&#xb3;" horiz-adv-x="279" 
d="M138 369q-56 0 -84.5 28.5t-28.5 77.5v23h81v-25q0 -35 31 -35q29 0 29 53q0 28 -11 40.5t-25 12.5h-32v65h29q37 0 37 53q0 47 -29 47q-28 0 -28 -37v-19h-80v22q0 49 29 77.5t82 28.5q51 0 80 -28.5t29 -79.5q0 -73 -51 -93v-2q28 -9 43 -34.5t15 -57.5q0 -61 -32 -89
t-84 -28z" />
    <glyph glyph-name="acute" unicode="&#xb4;" horiz-adv-x="248" 
d="M40 586l67 147h119l-100 -147h-86z" />
    <glyph glyph-name="mu" unicode="&#xb5;" horiz-adv-x="433" 
d="M40 -179v711h118v-389q0 -54 48 -54q23 0 39.5 18.5t16.5 51.5v373h119v-364q0 -25 7.5 -37.5t25.5 -16.5l-1 -117q-90 7 -107 71q-26 -79 -94 -79q-30 0 -56 16t-34 45l-5 -2l37 -217z" />
    <glyph glyph-name="paragraph" unicode="&#xb6;" horiz-adv-x="438" 
d="M163 -65v294q-130 28 -130 233q0 113 46 182.5t136 69.5h194v-66h-43v-713h-73v713h-56v-713h-74z" />
    <glyph glyph-name="periodcentered" unicode="&#xb7;" horiz-adv-x="189" 
d="M39 281v146h112v-146h-112z" />
    <glyph glyph-name="periodcentered" unicode="&#x22c5;" horiz-adv-x="189" 
d="M39 281v146h112v-146h-112z" />
    <glyph glyph-name="cedilla" unicode="&#xb8;" horiz-adv-x="274" 
d="M122 -192q-46 0 -81 11v55q42 -11 76 -11t34 22q0 20 -37 22l-36 3l24 103h49l-15 -63q96 0 96 -62q0 -36 -32 -58t-78 -22z" />
    <glyph glyph-name="onesuperior" unicode="&#xb9;" horiz-adv-x="212" 
d="M72 380v319l-36 -9l-11 62l81 28h48v-400h-82z" />
    <glyph glyph-name="ordmasculine" unicode="&#xba;" horiz-adv-x="275" 
d="M137 391q-48 0 -77 23.5t-29 69.5v137q0 45 30 69.5t76 24.5q45 0 75.5 -23.5t30.5 -68.5v-139q0 -45 -30 -69t-76 -24zM136 450q29 0 29 30v144q0 30 -29 30q-27 0 -27 -30v-144q0 -30 27 -30zM44 294v64h189v-64h-189z" />
    <glyph glyph-name="guillemotright" unicode="&#xbb;" horiz-adv-x="395" 
d="M84 122l-62 37l56 116l-58 117l63 35l114 -151zM252 118l-62 37l57 120l-59 120l63 36l116 -155z" />
    <glyph glyph-name="onequarter" unicode="&#xbc;" horiz-adv-x="632" 
d="M100 316v319l-36 -9l-11 62l81 28h48v-400h-82zM473 0v88h-132v62l111 249h87l-117 -244h51v57l81 60v-117h32v-67h-32v-88h-81zM118 -1l303 717h60l-303 -717h-60z" />
    <glyph glyph-name="onehalf" unicode="&#xbd;" horiz-adv-x="632" 
d="M99 316v319l-36 -9l-11 62l81 28h48v-400h-82zM369 0v54l83 115q47 73 47 117v5q0 38 -27 38q-29 0 -29 -37v-23h-80v27q0 49 29.5 77t80.5 28q53 0 82 -29.5t29 -81.5q0 -30 -12.5 -63t-24.5 -52t-37 -54l-34 -50h109v-71h-216zM110 -1l303 717h60l-303 -717h-60z" />
    <glyph glyph-name="threequarters" unicode="&#xbe;" horiz-adv-x="632" 
d="M486 0v88h-132v62l111 249h87l-117 -244h51v57l81 60v-117h32v-67h-32v-88h-81zM141 305q-56 0 -84.5 28.5t-28.5 77.5v23h81v-25q0 -35 31 -35q29 0 29 53q0 28 -11 40.5t-25 12.5h-32v65h29q37 0 37 53q0 47 -29 47q-28 0 -28 -37v-19h-80v22q0 49 29 77.5t82 28.5
q51 0 80 -28.5t29 -79.5q0 -73 -51 -93v-2q28 -9 43 -34.5t15 -57.5q0 -61 -32 -89t-84 -28zM145 -1l303 717h60l-303 -717h-60z" />
    <glyph glyph-name="questiondown" unicode="&#xbf;" horiz-adv-x="378" 
d="M257 357v-27q-1 -87 -48 -161q-1 -2 -10 -16t-11 -17.5t-9.5 -16t-10 -18.5t-7 -18.5t-6.5 -21.5t-3.5 -21.5t-1.5 -25.5q0 -31 12 -52t37 -21q48 0 48 65v51h102v-51q0 -77 -42.5 -122t-115.5 -45q-75 0 -116.5 47t-42.5 130q0 86 67 183q42 66 49 101q3 11 3 23v34h106
zM258 562v-146h-112v146h112z" />
    <glyph glyph-name="Agrave" unicode="&#xc0;" horiz-adv-x="500" 
d="M22 0l145 714h172l139 -714h-127l-33 173h-147l-32 -173h-117zM191 275h107l-51 296h-3zM209 762l-100 147h119l67 -147h-86z" />
    <glyph glyph-name="Aacute" unicode="&#xc1;" horiz-adv-x="500" 
d="M22 0l145 714h172l139 -714h-127l-33 173h-147l-32 -173h-117zM191 275h107l-51 296h-3zM207 762l67 147h119l-100 -147h-86z" />
    <glyph glyph-name="Acircumflex" unicode="&#xc2;" horiz-adv-x="500" 
d="M22 0l145 714h172l139 -714h-127l-33 173h-147l-32 -173h-117zM191 275h107l-51 296h-3zM122 762l88 151h86l87 -151h-92l-40 78l-40 -78h-89z" />
    <glyph glyph-name="Atilde" unicode="&#xc3;" horiz-adv-x="500" 
d="M22 0l145 714h172l139 -714h-127l-33 173h-147l-32 -173h-117zM191 275h107l-51 296h-3zM158 765l-61 14q8 49 31 79.5t60 30.5q21 0 60.5 -14.5t58.5 -14.5q14 0 22 8.5t15 28.5l56 -14q-7 -47 -30.5 -78.5t-60.5 -31.5q-20 0 -60.5 14.5t-55.5 14.5t-22.5 -7.5
t-12.5 -29.5z" />
    <glyph glyph-name="Adieresis" unicode="&#xc4;" horiz-adv-x="500" 
d="M22 0l145 714h172l139 -714h-127l-33 173h-147l-32 -173h-117zM191 275h107l-51 296h-3zM129 767v137h93v-137h-93zM277 767v137h93v-137h-93z" />
    <glyph glyph-name="Aring" unicode="&#xc5;" horiz-adv-x="500" 
d="M22 0l145 714h172l139 -714h-127l-33 173h-147l-32 -173h-117zM191 275h107l-51 296h-3zM254 747q-40 0 -66 25.5t-26 64.5q0 40 26.5 66.5t66.5 26.5q41 0 66.5 -24.5t25.5 -64.5t-27 -67t-66 -27zM255 793q19 0 31 13t12 33q0 21 -11.5 34t-31.5 13q-19 0 -30.5 -13
t-11.5 -34t12 -33.5t30 -12.5z" />
    <glyph glyph-name="AE" unicode="&#xc6;" horiz-adv-x="680" 
d="M16 0l231 713h399v-107h-201v-185h160v-108h-160v-205h202v-108h-328v187h-126l-52 -187h-125zM227 283h92v302h-4z" />
    <glyph glyph-name="Ccedilla" unicode="&#xc7;" horiz-adv-x="454" 
d="M236 -192q-46 0 -81 11v55q42 -11 76 -11t34 22q0 20 -37 22l-36 3l19 81q-79 6 -125.5 51.5t-46.5 126.5v376q0 83 55.5 131t142.5 48q81 0 132 -45t51 -121v-79h-114v67q0 32 -18.5 50.5t-50.5 18.5q-70 0 -70 -73v-366q0 -75 71 -75q31 0 49.5 18.5t18.5 48.5v67h114
v-74q0 -73 -44 -118t-116 -52l-10 -41q96 0 96 -62q0 -36 -32 -58t-78 -22z" />
    <glyph glyph-name="Egrave" unicode="&#xc8;" horiz-adv-x="408" 
d="M47 0v713h327v-107h-202v-184h161v-108h-161v-206h203v-108h-328zM185 762l-100 147h119l67 -147h-86z" />
    <glyph glyph-name="Eacute" unicode="&#xc9;" horiz-adv-x="408" 
d="M162 762l67 147h119l-100 -147h-86zM47 0v713h327v-107h-202v-184h161v-108h-161v-206h203v-108h-328z" />
    <glyph glyph-name="Ecircumflex" unicode="&#xca;" horiz-adv-x="408" 
d="M74 762l88 151h86l87 -151h-92l-40 78l-40 -78h-89zM47 0v713h327v-107h-202v-184h161v-108h-161v-206h203v-108h-328z" />
    <glyph glyph-name="Edieresis" unicode="&#xcb;" horiz-adv-x="408" 
d="M98 767v137h93v-137h-93zM246 767v137h93v-137h-93zM47 0v713h327v-107h-202v-184h161v-108h-161v-206h203v-108h-328z" />
    <glyph glyph-name="Igrave" unicode="&#xcc;" horiz-adv-x="220" 
d="M47 0v713h126v-713h-126zM66 762l-100 147h119l67 -147h-86z" />
    <glyph glyph-name="Iacute" unicode="&#xcd;" horiz-adv-x="220" 
d="M47 0v713h126v-713h-126zM64 762l67 147h119l-100 -147h-86z" />
    <glyph glyph-name="Icircumflex" unicode="&#xce;" horiz-adv-x="220" 
d="M47 0v713h126v-713h-126zM-20 762l88 151h86l87 -151h-92l-40 78l-40 -78h-89z" />
    <glyph glyph-name="Idieresis" unicode="&#xcf;" horiz-adv-x="220" 
d="M47 0v713h126v-713h-126zM-10 767v137h93v-137h-93zM138 767v137h93v-137h-93z" />
    <glyph glyph-name="Eth" unicode="&#xd0;" horiz-adv-x="485" 
d="M21 331v80h41v302h197q82 0 134.5 -42.5t52.5 -123.5v-371q0 -86 -52.5 -131t-136.5 -45h-195v331h-41zM187 108h59q37 0 54.5 22t17.5 53v351q0 32 -18.5 51.5t-54.5 19.5h-58v-194h94v-80h-94v-223z" />
    <glyph glyph-name="Ntilde" unicode="&#xd1;" horiz-adv-x="496" 
d="M47 0v713h130l158 -412h3v412h112v-713h-114l-175 457h-2v-457h-112zM167 765l-61 14q8 49 31 79.5t60 30.5q21 0 60.5 -14.5t58.5 -14.5q14 0 22 8.5t15 28.5l56 -14q-7 -47 -30.5 -78.5t-60.5 -31.5q-20 0 -60.5 14.5t-55.5 14.5t-22.5 -7.5t-12.5 -29.5z" />
    <glyph glyph-name="Ograve" unicode="&#xd2;" horiz-adv-x="475" 
d="M237 -10q-92 0 -145 47.5t-53 140.5v358q0 89 55.5 138.5t143.5 49.5q87 0 142.5 -47t55.5 -137v-359q0 -93 -55.5 -142t-143.5 -49zM238 101q34 0 52 21t18 54v367q0 33 -19 52t-52 19q-34 0 -52 -20t-18 -53v-365q0 -33 18.5 -54t52.5 -21zM199 762l-100 147h119
l67 -147h-86z" />
    <glyph glyph-name="Oacute" unicode="&#xd3;" horiz-adv-x="475" 
d="M195 762l67 147h119l-100 -147h-86zM237 -10q-92 0 -145 47.5t-53 140.5v358q0 89 55.5 138.5t143.5 49.5q87 0 142.5 -47t55.5 -137v-359q0 -93 -55.5 -142t-143.5 -49zM238 101q34 0 52 21t18 54v367q0 33 -19 52t-52 19q-34 0 -52 -20t-18 -53v-365q0 -33 18.5 -54
t52.5 -21z" />
    <glyph glyph-name="Ocircumflex" unicode="&#xd4;" horiz-adv-x="475" 
d="M105 762l88 151h86l87 -151h-92l-40 78l-40 -78h-89zM237 -10q-92 0 -145 47.5t-53 140.5v358q0 89 55.5 138.5t143.5 49.5q87 0 142.5 -47t55.5 -137v-359q0 -93 -55.5 -142t-143.5 -49zM238 101q34 0 52 21t18 54v367q0 33 -19 52t-52 19q-34 0 -52 -20t-18 -53v-365
q0 -33 18.5 -54t52.5 -21z" />
    <glyph glyph-name="Otilde" unicode="&#xd5;" horiz-adv-x="475" 
d="M237 -10q-92 0 -145 47.5t-53 140.5v358q0 89 55.5 138.5t143.5 49.5q87 0 142.5 -47t55.5 -137v-359q0 -93 -55.5 -142t-143.5 -49zM238 101q34 0 52 21t18 54v367q0 33 -19 52t-52 19q-34 0 -52 -20t-18 -53v-365q0 -33 18.5 -54t52.5 -21zM143 765l-61 14
q8 49 31 79.5t60 30.5q21 0 60.5 -14.5t58.5 -14.5q14 0 22 8.5t15 28.5l56 -14q-7 -47 -30.5 -78.5t-60.5 -31.5q-20 0 -60.5 14.5t-55.5 14.5t-22.5 -7.5t-12.5 -29.5z" />
    <glyph glyph-name="Odieresis" unicode="&#xd6;" horiz-adv-x="475" 
d="M116 767v137h93v-137h-93zM264 767v137h93v-137h-93zM237 -10q-92 0 -145 47.5t-53 140.5v358q0 89 55.5 138.5t143.5 49.5q87 0 142.5 -47t55.5 -137v-359q0 -93 -55.5 -142t-143.5 -49zM238 101q34 0 52 21t18 54v367q0 33 -19 52t-52 19q-34 0 -52 -20t-18 -53v-365
q0 -33 18.5 -54t52.5 -21z" />
    <glyph glyph-name="multiply" unicode="&#xd7;" horiz-adv-x="429" 
d="M101 145l-58 58l115 117l-116 116l58 58l116 -115q15 16 114 115l58 -59l-114 -114q12 -13 59.5 -61.5t54.5 -55.5l-58 -58l-114 115q-48 -46 -115 -116z" />
    <glyph glyph-name="Oslash" unicode="&#xd8;" horiz-adv-x="475" 
d="M123 -49l-52 15l24 68q-56 48 -56 144v358q0 89 55.5 138.5t143.5 49.5q54 0 97 -18l20 56l52 -15l-25 -71q54 -51 54 -136v-359q0 -93 -55.5 -142t-143.5 -49q-54 0 -95 16zM167 541v-306l126 354q-19 25 -56 25q-34 0 -52 -20t-18 -53zM238 101q34 0 52 21t18 54v293
l-124 -346q19 -22 54 -22z" />
    <glyph glyph-name="Ugrave" unicode="&#xd9;" horiz-adv-x="473" 
d="M233 -11q-90 0 -140 46t-50 137v541h128v-535q0 -38 19.5 -58t50.5 -20q33 0 50.5 21t17.5 56v536h120v-537q1 -88 -54 -137.5t-142 -49.5zM206 762l-100 147h119l67 -147h-86z" />
    <glyph glyph-name="Uacute" unicode="&#xda;" horiz-adv-x="473" 
d="M197 762l67 147h119l-100 -147h-86zM233 -11q-90 0 -140 46t-50 137v541h128v-535q0 -38 19.5 -58t50.5 -20q33 0 50.5 21t17.5 56v536h120v-537q1 -88 -54 -137.5t-142 -49.5z" />
    <glyph glyph-name="Ucircumflex" unicode="&#xdb;" horiz-adv-x="473" 
d="M109 762l88 151h86l87 -151h-92l-40 78l-40 -78h-89zM233 -11q-90 0 -140 46t-50 137v541h128v-535q0 -38 19.5 -58t50.5 -20q33 0 50.5 21t17.5 56v536h120v-537q1 -88 -54 -137.5t-142 -49.5z" />
    <glyph glyph-name="Udieresis" unicode="&#xdc;" horiz-adv-x="473" 
d="M120 767v137h93v-137h-93zM268 767v137h93v-137h-93zM233 -11q-90 0 -140 46t-50 137v541h128v-535q0 -38 19.5 -58t50.5 -20q33 0 50.5 21t17.5 56v536h120v-537q1 -88 -54 -137.5t-142 -49.5z" />
    <glyph glyph-name="Yacute" unicode="&#xdd;" horiz-adv-x="435" 
d="M155 0v286l-147 427h134l84 -277l81 277h120l-146 -427v-286h-126zM182 762l67 147h119l-100 -147h-86z" />
    <glyph glyph-name="Thorn" unicode="&#xde;" horiz-adv-x="450" 
d="M43 0v713h127v-132h78q172 0 172 -209q0 -107 -44 -166.5t-134 -59.5h-72v-146h-127zM170 246h54q72 0 72 123q0 110 -69 110h-57v-233z" />
    <glyph glyph-name="germandbls" unicode="&#xdf;" horiz-adv-x="468" 
d="M306 -6q-50 0 -85 11l12 94q24 -8 45 -8q50 0 50 76q0 48 -25 87.5t-64 58.5v92h11q24 25 39 64t15 73q0 36 -15 59.5t-42 23.5q-28 0 -42 -21t-14 -55v-549h-117v437h-48v91h48v19q0 78 46 126t137 48q81 0 124 -45.5t43 -116.5q0 -54 -19.5 -104.5t-57.5 -80.5v-2
q46 -40 72 -96t26 -111q0 -73 -36 -122t-103 -49z" />
    <glyph glyph-name="agrave" unicode="&#xe0;" horiz-adv-x="400" 
d="M146 -10q-51 0 -84 40.5t-33 120.5q0 81 51.5 126.5t128.5 47.5h31v81q0 44 -47 44q-46 0 -46 -44v-45h-107v47q0 61 44.5 98.5t116.5 37.5t114 -38t42 -104v-279q0 -25 2.5 -72.5t2.5 -50.5h-108q0 1 -1 8.5t-2 20t-2 25.5h-3q-14 -33 -43 -48.5t-57 -15.5zM190 82
q20 0 35 18t15 43v110h-28q-29 0 -47 -22t-18 -66q0 -83 43 -83zM164 586l-100 147h119l67 -147h-86z" />
    <glyph glyph-name="aacute" unicode="&#xe1;" horiz-adv-x="400" 
d="M146 -10q-51 0 -84 40.5t-33 120.5q0 81 51.5 126.5t128.5 47.5h31v81q0 44 -47 44q-46 0 -46 -44v-45h-107v47q0 61 44.5 98.5t116.5 37.5t114 -38t42 -104v-279q0 -25 2.5 -72.5t2.5 -50.5h-108q0 1 -1 8.5t-2 20t-2 25.5h-3q-14 -33 -43 -48.5t-57 -15.5zM190 82
q20 0 35 18t15 43v110h-28q-29 0 -47 -22t-18 -66q0 -83 43 -83zM147 586l67 147h119l-100 -147h-86z" />
    <glyph glyph-name="acircumflex" unicode="&#xe2;" horiz-adv-x="400" 
d="M146 -10q-51 0 -84 40.5t-33 120.5q0 81 51.5 126.5t128.5 47.5h31v81q0 44 -47 44q-46 0 -46 -44v-45h-107v47q0 61 44.5 98.5t116.5 37.5t114 -38t42 -104v-279q0 -25 2.5 -72.5t2.5 -50.5h-108q0 1 -1 8.5t-2 20t-2 25.5h-3q-14 -33 -43 -48.5t-57 -15.5zM190 82
q20 0 35 18t15 43v110h-28q-29 0 -47 -22t-18 -66q0 -83 43 -83zM66 586l88 151h86l87 -151h-92l-40 78l-40 -78h-89z" />
    <glyph glyph-name="atilde" unicode="&#xe3;" horiz-adv-x="400" 
d="M146 -10q-51 0 -84 40.5t-33 120.5q0 81 51.5 126.5t128.5 47.5h31v81q0 44 -47 44q-46 0 -46 -44v-45h-107v47q0 61 44.5 98.5t116.5 37.5t114 -38t42 -104v-279q0 -25 2.5 -72.5t2.5 -50.5h-108q0 1 -1 8.5t-2 20t-2 25.5h-3q-14 -33 -43 -48.5t-57 -15.5zM190 82
q20 0 35 18t15 43v110h-28q-29 0 -47 -22t-18 -66q0 -83 43 -83zM108 589l-61 14q8 49 31 79.5t60 30.5q21 0 60.5 -14.5t58.5 -14.5q14 0 22 8.5t15 28.5l56 -14q-7 -47 -30.5 -78.5t-60.5 -31.5q-20 0 -60.5 14.5t-55.5 14.5t-22.5 -7.5t-12.5 -29.5z" />
    <glyph glyph-name="adieresis" unicode="&#xe4;" horiz-adv-x="400" 
d="M146 -10q-51 0 -84 40.5t-33 120.5q0 81 51.5 126.5t128.5 47.5h31v81q0 44 -47 44q-46 0 -46 -44v-45h-107v47q0 61 44.5 98.5t116.5 37.5t114 -38t42 -104v-279q0 -25 2.5 -72.5t2.5 -50.5h-108q0 1 -1 8.5t-2 20t-2 25.5h-3q-14 -33 -43 -48.5t-57 -15.5zM190 82
q20 0 35 18t15 43v110h-28q-29 0 -47 -22t-18 -66q0 -83 43 -83zM78 591v137h93v-137h-93zM226 591v137h93v-137h-93z" />
    <glyph glyph-name="aring" unicode="&#xe5;" horiz-adv-x="400" 
d="M146 -10q-51 0 -84 40.5t-33 120.5q0 81 51.5 126.5t128.5 47.5h31v81q0 44 -47 44q-46 0 -46 -44v-45h-107v47q0 61 44.5 98.5t116.5 37.5t114 -38t42 -104v-279q0 -25 2.5 -72.5t2.5 -50.5h-108q0 1 -1 8.5t-2 20t-2 25.5h-3q-14 -33 -43 -48.5t-57 -15.5zM190 82
q20 0 35 18t15 43v110h-28q-29 0 -47 -22t-18 -66q0 -83 43 -83zM199 577q-40 0 -66 25.5t-26 64.5q0 40 26.5 66.5t66.5 26.5q41 0 66.5 -24.5t25.5 -64.5t-27 -67t-66 -27zM200 623q19 0 31 13t12 33q0 21 -11.5 34t-31.5 13q-19 0 -30.5 -13t-11.5 -34t12 -33.5t30 -12.5
z" />
    <glyph glyph-name="ae" unicode="&#xe6;" horiz-adv-x="594" 
d="M146 -11q-51 0 -84 40.5t-33 121.5t52 127t128 47h31v81q0 44 -47 44q-46 0 -46 -44v-45h-107v47q0 61 44.5 98.5t116.5 37.5q67 0 103 -34q44 34 104 34q70 0 111 -41t41 -112v-166h-201v-64q0 -76 73 -76q45 0 100 21l22 -85q-63 -32 -143 -32q-100 0 -143 66
q-38 -66 -122 -66zM192 82q20 0 34 16t14 41v114h-28q-29 0 -47 -22t-18 -66q0 -83 45 -83zM359 309h96v86q0 55 -48 55q-24 0 -36 -16t-12 -39v-86z" />
    <glyph glyph-name="ccedilla" unicode="&#xe7;" horiz-adv-x="389" 
d="M202 -192q-46 0 -81 11v55q42 -11 76 -11t34 22q0 20 -37 22l-36 3l19 81q-64 7 -101.5 46.5t-37.5 107.5v239q0 75 47 117.5t118 42.5q70 0 112 -38t42 -98v-50h-105v42q0 21 -12 34.5t-35 13.5q-24 0 -36.5 -15.5t-12.5 -40.5v-250q0 -58 49 -58q25 0 36 14.5t11 34.5
v42h105v-48q0 -59 -35 -94t-96 -41l-10 -42q96 0 96 -62q0 -36 -32 -58t-78 -22z" />
    <glyph glyph-name="egrave" unicode="&#xe8;" horiz-adv-x="391" 
d="M207 -11q-77 0 -123 40.5t-46 117.5v231q0 77 47 121.5t119 44.5t112.5 -42t40.5 -113v-164h-202v-64q0 -76 75 -76q41 0 99 21l22 -85q-66 -32 -144 -32zM155 309h97v86q0 55 -48 55q-24 0 -36.5 -16t-12.5 -40v-85zM173 586l-100 147h119l67 -147h-86z" />
    <glyph glyph-name="eacute" unicode="&#xe9;" horiz-adv-x="391" 
d="M156 586l67 147h119l-100 -147h-86zM207 -11q-77 0 -123 40.5t-46 117.5v231q0 77 47 121.5t119 44.5t112.5 -42t40.5 -113v-164h-202v-64q0 -76 75 -76q41 0 99 21l22 -85q-66 -32 -144 -32zM155 309h97v86q0 55 -48 55q-24 0 -36.5 -16t-12.5 -40v-85z" />
    <glyph glyph-name="ecircumflex" unicode="&#xea;" horiz-adv-x="391" 
d="M79 586l88 151h86l87 -151h-92l-40 78l-40 -78h-89zM207 -11q-77 0 -123 40.5t-46 117.5v231q0 77 47 121.5t119 44.5t112.5 -42t40.5 -113v-164h-202v-64q0 -76 75 -76q41 0 99 21l22 -85q-66 -32 -144 -32zM155 309h97v86q0 55 -48 55q-24 0 -36.5 -16t-12.5 -40v-85z
" />
    <glyph glyph-name="edieresis" unicode="&#xeb;" horiz-adv-x="391" 
d="M83 591v137h93v-137h-93zM231 591v137h93v-137h-93zM207 -11q-77 0 -123 40.5t-46 117.5v231q0 77 47 121.5t119 44.5t112.5 -42t40.5 -113v-164h-202v-64q0 -76 75 -76q41 0 99 21l22 -85q-66 -32 -144 -32zM155 309h97v86q0 55 -48 55q-24 0 -36.5 -16t-12.5 -40v-85z
" />
    <glyph glyph-name="igrave" unicode="&#xec;" horiz-adv-x="209" 
d="M46 0v532h117v-532h-117zM61 586l-100 147h119l67 -147h-86z" />
    <glyph glyph-name="iacute" unicode="&#xed;" horiz-adv-x="209" 
d="M60 586l67 147h119l-100 -147h-86zM46 0v532h117v-532h-117z" />
    <glyph glyph-name="icircumflex" unicode="&#xee;" horiz-adv-x="209" 
d="M-25 586l88 151h86l87 -151h-92l-40 78l-40 -78h-89zM46 0v532h117v-532h-117z" />
    <glyph glyph-name="idieresis" unicode="&#xef;" horiz-adv-x="209" 
d="M-14 591v137h93v-137h-93zM134 591v137h93v-137h-93zM46 0v532h117v-532h-117z" />
    <glyph glyph-name="eth" unicode="&#xf0;" horiz-adv-x="407" 
d="M67 571l-29 64l72 15l-33 56l119 25l32 -57l71 15l30 -63l-65 -14l87 -152q22 -37 22 -80v-233q0 -77 -47 -117t-121 -40q-76 0 -121.5 39t-45.5 117v230q0 65 34.5 106t95.5 47q12 0 15 -2l-36 61zM206 84q49 0 49 56v241q0 25 -12.5 40.5t-36.5 15.5t-37 -16t-13 -40
v-243q0 -23 12.5 -38.5t37.5 -15.5z" />
    <glyph glyph-name="ntilde" unicode="&#xf1;" 
d="M46 0v532h115v-49h1q38 61 111 61q46 0 76 -29t30 -78v-437h-117v391q0 54 -45 54q-23 0 -38 -21.5t-15 -50.5v-373h-118zM135 589l-61 14q8 49 31 79.5t60 30.5q21 0 60.5 -14.5t58.5 -14.5q14 0 22 8.5t15 28.5l56 -14q-7 -47 -30.5 -78.5t-60.5 -31.5
q-20 0 -60.5 14.5t-55.5 14.5t-22.5 -7.5t-12.5 -29.5z" />
    <glyph glyph-name="ograve" unicode="&#xf2;" horiz-adv-x="410" 
d="M205 -10q-75 0 -121 40t-46 117v238q0 75 48 117t119 42q72 0 120 -40t48 -115v-241q0 -77 -47.5 -117.5t-120.5 -40.5zM206 84q49 0 49 57v250q0 24 -13 40.5t-37 16.5q-25 0 -37 -16.5t-12 -41.5v-250q0 -24 12.5 -40t37.5 -16zM166 586l-100 147h119l67 -147h-86z" />
    <glyph glyph-name="oacute" unicode="&#xf3;" horiz-adv-x="410" 
d="M157 586l67 147h119l-100 -147h-86zM205 -10q-75 0 -121 40t-46 117v238q0 75 48 117t119 42q72 0 120 -40t48 -115v-241q0 -77 -47.5 -117.5t-120.5 -40.5zM206 84q49 0 49 57v250q0 24 -13 40.5t-37 16.5q-25 0 -37 -16.5t-12 -41.5v-250q0 -24 12.5 -40t37.5 -16z" />
    <glyph glyph-name="ocircumflex" unicode="&#xf4;" horiz-adv-x="410" 
d="M78 586l88 151h86l87 -151h-92l-40 78l-40 -78h-89zM205 -10q-75 0 -121 40t-46 117v238q0 75 48 117t119 42q72 0 120 -40t48 -115v-241q0 -77 -47.5 -117.5t-120.5 -40.5zM206 84q49 0 49 57v250q0 24 -13 40.5t-37 16.5q-25 0 -37 -16.5t-12 -41.5v-250
q0 -24 12.5 -40t37.5 -16z" />
    <glyph glyph-name="otilde" unicode="&#xf5;" horiz-adv-x="410" 
d="M205 -10q-75 0 -121 40t-46 117v238q0 75 48 117t119 42q72 0 120 -40t48 -115v-241q0 -77 -47.5 -117.5t-120.5 -40.5zM206 84q49 0 49 57v250q0 24 -13 40.5t-37 16.5q-25 0 -37 -16.5t-12 -41.5v-250q0 -24 12.5 -40t37.5 -16zM115 589l-61 14q8 49 31 79.5t60 30.5
q21 0 60.5 -14.5t58.5 -14.5q14 0 22 8.5t15 28.5l56 -14q-7 -47 -30.5 -78.5t-60.5 -31.5q-20 0 -60.5 14.5t-55.5 14.5t-22.5 -7.5t-12.5 -29.5z" />
    <glyph glyph-name="odieresis" unicode="&#xf6;" horiz-adv-x="410" 
d="M86 591v137h93v-137h-93zM234 591v137h93v-137h-93zM205 -10q-75 0 -121 40t-46 117v238q0 75 48 117t119 42q72 0 120 -40t48 -115v-241q0 -77 -47.5 -117.5t-120.5 -40.5zM206 84q49 0 49 57v250q0 24 -13 40.5t-37 16.5q-25 0 -37 -16.5t-12 -41.5v-250
q0 -24 12.5 -40t37.5 -16z" />
    <glyph glyph-name="divide" unicode="&#xf7;" horiz-adv-x="429" 
d="M168 111v115h94v-115h-94zM48 278v82h334v-82h-334zM168 408v115h94v-115h-94z" />
    <glyph glyph-name="oslash" unicode="&#xf8;" horiz-adv-x="410" 
d="M116 -51l-45 15l21 58q-54 41 -54 125v238q0 75 48 117t119 42q40 0 73 -13l19 53l45 -15l-22 -61q53 -43 53 -119v-241q0 -77 -47.5 -117.5t-120.5 -40.5q-35 0 -70 10zM156 390v-193l85 235q-14 16 -36 16q-25 0 -37 -16.5t-12 -41.5zM206 84q49 0 49 57v189l-85 -233
q13 -13 36 -13z" />
    <glyph glyph-name="ugrave" unicode="&#xf9;" 
d="M148 -11q-45 0 -75 29.5t-30 78.5v435h116v-392q0 -52 46 -52q23 0 38.5 21.5t15.5 50.5v372h116v-532h-114v53h-1q-39 -64 -112 -64zM167 586l-100 147h119l67 -147h-86z" />
    <glyph glyph-name="uacute" unicode="&#xfa;" 
d="M165 586l67 147h119l-100 -147h-86zM148 -11q-45 0 -75 29.5t-30 78.5v435h116v-392q0 -52 46 -52q23 0 38.5 21.5t15.5 50.5v372h116v-532h-114v53h-1q-39 -64 -112 -64z" />
    <glyph glyph-name="ucircumflex" unicode="&#xfb;" 
d="M82 586l88 151h86l87 -151h-92l-40 78l-40 -78h-89zM148 -11q-45 0 -75 29.5t-30 78.5v435h116v-392q0 -52 46 -52q23 0 38.5 21.5t15.5 50.5v372h116v-532h-114v53h-1q-39 -64 -112 -64z" />
    <glyph glyph-name="udieresis" unicode="&#xfc;" 
d="M90 591v137h93v-137h-93zM238 591v137h93v-137h-93zM148 -11q-45 0 -75 29.5t-30 78.5v435h116v-392q0 -52 46 -52q23 0 38.5 21.5t15.5 50.5v372h116v-532h-114v53h-1q-39 -64 -112 -64z" />
    <glyph glyph-name="yacute" unicode="&#xfd;" horiz-adv-x="376" 
d="M103 -171q-36 0 -68 8l12 93q32 -6 42 -6q32 0 42 33l11 48l-133 527h122l68 -335h3l58 335h107l-128 -566q-34 -137 -136 -137zM153 586l67 147h119l-100 -147h-86z" />
    <glyph glyph-name="thorn" unicode="&#xfe;" horiz-adv-x="410" 
d="M42 -161v874h117v-231h2q17 28 46 44.5t58 16.5q57 0 84 -35t27 -92v-301q0 -54 -33.5 -89.5t-91.5 -35.5q-59 0 -90 46h-1v-197h-118zM211 83q22 0 35 13.5t13 39.5v261q0 24 -12.5 38t-33.5 14q-24 0 -38.5 -17t-14.5 -49v-240q0 -28 15 -44t36 -16z" />
    <glyph glyph-name="ydieresis" unicode="&#xff;" horiz-adv-x="376" 
d="M103 -171q-36 0 -68 8l12 93q32 -6 42 -6q32 0 42 33l11 48l-133 527h122l68 -335h3l58 335h107l-128 -566q-34 -137 -136 -137zM76 591v137h93v-137h-93zM224 591v137h93v-137h-93z" />
    <glyph glyph-name="Amacron" unicode="&#x100;" horiz-adv-x="500" 
d="M22 0l145 714h172l139 -714h-127l-33 173h-147l-32 -173h-117zM191 275h107l-51 296h-3zM137 774v84h225v-84h-225z" />
    <glyph glyph-name="amacron" unicode="&#x101;" horiz-adv-x="400" 
d="M146 -10q-51 0 -84 40.5t-33 120.5q0 81 51.5 126.5t128.5 47.5h31v81q0 44 -47 44q-46 0 -46 -44v-45h-107v47q0 61 44.5 98.5t116.5 37.5t114 -38t42 -104v-279q0 -25 2.5 -72.5t2.5 -50.5h-108q0 1 -1 8.5t-2 20t-2 25.5h-3q-14 -33 -43 -48.5t-57 -15.5zM190 82
q20 0 35 18t15 43v110h-28q-29 0 -47 -22t-18 -66q0 -83 43 -83zM87 598v84h225v-84h-225z" />
    <glyph glyph-name="Abreve" unicode="&#x102;" horiz-adv-x="500" 
d="M22 0l145 714h172l139 -714h-127l-33 173h-147l-32 -173h-117zM191 275h107l-51 296h-3zM251 762q-63 0 -99 37t-37 107h79q5 -38 17 -55.5t43 -17.5q50 0 52 73h77q-1 -72 -38 -108t-94 -36z" />
    <glyph glyph-name="abreve" unicode="&#x103;" horiz-adv-x="400" 
d="M146 -10q-51 0 -84 40.5t-33 120.5q0 81 51.5 126.5t128.5 47.5h31v81q0 44 -47 44q-46 0 -46 -44v-45h-107v47q0 61 44.5 98.5t116.5 37.5t114 -38t42 -104v-279q0 -25 2.5 -72.5t2.5 -50.5h-108q0 1 -1 8.5t-2 20t-2 25.5h-3q-14 -33 -43 -48.5t-57 -15.5zM190 82
q20 0 35 18t15 43v110h-28q-29 0 -47 -22t-18 -66q0 -83 43 -83zM201 586q-63 0 -99 37t-37 107h79q5 -38 17 -55.5t43 -17.5q50 0 52 73h77q-1 -72 -38 -108t-94 -36z" />
    <glyph glyph-name="Aogonek" unicode="&#x104;" horiz-adv-x="500" 
d="M433 -196q-45 0 -74.5 23t-29.5 69q0 61 52 104h-30l-33 173h-147l-32 -173h-117l145 714h172l139 -714h-9q-65 -25 -65 -81q0 -22 12 -33t32 -11q27 0 52 18l31 -58q-43 -31 -98 -31zM191 275h107l-51 296h-3z" />
    <glyph glyph-name="aogonek" unicode="&#x105;" horiz-adv-x="400" 
d="M306 -196q-45 0 -74.5 23t-29.5 69q0 61 52 104q0 1 -1 8.5t-2 20t-2 25.5h-3q-14 -33 -43 -48.5t-57 -15.5q-51 0 -84 40.5t-33 120.5q0 81 51.5 126.5t128.5 47.5h31v81q0 44 -47 44q-46 0 -46 -44v-45h-107v47q0 61 44.5 98.5t116.5 37.5t114 -38t42 -104v-279
q0 -25 2.5 -72.5t2.5 -50.5h-20q-65 -25 -65 -81q0 -22 12 -33t32 -11q27 0 52 18l31 -58q-43 -31 -98 -31zM190 82q20 0 35 18t15 43v110h-28q-29 0 -47 -22t-18 -66q0 -83 43 -83z" />
    <glyph glyph-name="Cacute" unicode="&#x106;" horiz-adv-x="454" 
d="M181 762l67 147h119l-100 -147h-86zM236 -10q-89 0 -143 46t-54 133v376q0 83 55.5 131t142.5 48q81 0 132 -45t51 -121v-79h-114v67q0 32 -18.5 50.5t-50.5 18.5q-70 0 -70 -73v-366q0 -75 71 -75q31 0 49.5 18.5t18.5 48.5v67h114v-74q0 -79 -51 -125t-133 -46z" />
    <glyph glyph-name="cacute" unicode="&#x107;" horiz-adv-x="389" 
d="M153 586l67 147h119l-100 -147h-86zM201 -10q-73 0 -118 40.5t-45 114.5v239q0 75 47 117.5t118 42.5q70 0 112 -38t42 -98v-50h-105v42q0 21 -12 34.5t-35 13.5q-24 0 -36.5 -15.5t-12.5 -40.5v-250q0 -58 49 -58q25 0 36 14.5t11 34.5v42h105v-48q0 -65 -42 -101
t-114 -36z" />
    <glyph glyph-name="Ccircumflex" unicode="&#x108;" horiz-adv-x="454" 
d="M95 762l88 151h86l87 -151h-92l-40 78l-40 -78h-89zM236 -10q-89 0 -143 46t-54 133v376q0 83 55.5 131t142.5 48q81 0 132 -45t51 -121v-79h-114v67q0 32 -18.5 50.5t-50.5 18.5q-70 0 -70 -73v-366q0 -75 71 -75q31 0 49.5 18.5t18.5 48.5v67h114v-74q0 -79 -51 -125
t-133 -46z" />
    <glyph glyph-name="ccircumflex" unicode="&#x109;" horiz-adv-x="389" 
d="M66 586l88 151h86l87 -151h-92l-40 78l-40 -78h-89zM201 -10q-73 0 -118 40.5t-45 114.5v239q0 75 47 117.5t118 42.5q70 0 112 -38t42 -98v-50h-105v42q0 21 -12 34.5t-35 13.5q-24 0 -36.5 -15.5t-12.5 -40.5v-250q0 -58 49 -58q25 0 36 14.5t11 34.5v42h105v-48
q0 -65 -42 -101t-114 -36z" />
    <glyph glyph-name="Cdotaccent" unicode="&#x10a;" horiz-adv-x="454" 
d="M236 -10q-89 0 -143 46t-54 133v376q0 83 55.5 131t142.5 48q81 0 132 -45t51 -121v-79h-114v67q0 32 -18.5 50.5t-50.5 18.5q-70 0 -70 -73v-366q0 -75 71 -75q31 0 49.5 18.5t18.5 48.5v67h114v-74q0 -79 -51 -125t-133 -46zM180 767v137h99v-137h-99z" />
    <glyph glyph-name="cdotaccent" unicode="&#x10b;" horiz-adv-x="389" 
d="M201 -10q-73 0 -118 40.5t-45 114.5v239q0 75 47 117.5t118 42.5q70 0 112 -38t42 -98v-50h-105v42q0 21 -12 34.5t-35 13.5q-24 0 -36.5 -15.5t-12.5 -40.5v-250q0 -58 49 -58q25 0 36 14.5t11 34.5v42h105v-48q0 -65 -42 -101t-114 -36zM146 591v137h99v-137h-99z" />
    <glyph glyph-name="Ccaron" unicode="&#x10c;" horiz-adv-x="454" 
d="M183 764l-88 152h93l40 -78l40 78h90l-89 -152h-86zM236 -10q-89 0 -143 46t-54 133v376q0 83 55.5 131t142.5 48q81 0 132 -45t51 -121v-79h-114v67q0 32 -18.5 50.5t-50.5 18.5q-70 0 -70 -73v-366q0 -75 71 -75q31 0 49.5 18.5t18.5 48.5v67h114v-74q0 -79 -51 -125
t-133 -46z" />
    <glyph glyph-name="ccaron" unicode="&#x10d;" horiz-adv-x="389" 
d="M153 588l-88 152h93l40 -78l40 78h90l-89 -152h-86zM201 -10q-73 0 -118 40.5t-45 114.5v239q0 75 47 117.5t118 42.5q70 0 112 -38t42 -98v-50h-105v42q0 21 -12 34.5t-35 13.5q-24 0 -36.5 -15.5t-12.5 -40.5v-250q0 -58 49 -58q25 0 36 14.5t11 34.5v42h105v-48
q0 -65 -42 -101t-114 -36z" />
    <glyph glyph-name="Dcaron" unicode="&#x10e;" horiz-adv-x="470" 
d="M180 764l-88 152h93l40 -78l40 78h90l-89 -152h-86zM47 0v713h197q82 0 134.5 -42.5t52.5 -123.5v-371q0 -86 -52.5 -131t-136.5 -45h-195zM172 108h59q37 0 54.5 22t17.5 53v351q0 32 -18.5 51.5t-54.5 19.5h-58v-497z" />
    <glyph glyph-name="dcaron" unicode="&#x10f;" horiz-adv-x="417" 
d="M398 533l6 180h94l-33 -180h-67zM156 -9q-60 0 -89 35t-29 91v302q0 54 33.5 89.5t90.5 35.5q59 0 92 -46h1v215h117v-713h-109l-2 52h-3q-17 -30 -45.5 -45.5t-56.5 -15.5zM200 86q23 0 39.5 20.5t16.5 51.5v228q0 28 -16.5 47t-38.5 19q-46 0 -46 -55v-257
q0 -25 12 -39.5t33 -14.5z" />
    <glyph glyph-name="Dcroat" unicode="&#x110;" horiz-adv-x="485" 
d="M21 331v80h41v302h197q82 0 134.5 -42.5t52.5 -123.5v-371q0 -86 -52.5 -131t-136.5 -45h-195v331h-41zM187 108h59q37 0 54.5 22t17.5 53v351q0 32 -18.5 51.5t-54.5 19.5h-58v-194h94v-80h-94v-223z" />
    <glyph glyph-name="dcroat" unicode="&#x111;" horiz-adv-x="417" 
d="M176 589v73h79v51h117v-51h34v-73h-34v-589h-109l-2 52h-3q-17 -30 -45.5 -45.5t-56.5 -15.5q-60 0 -89 35t-29 91v302q0 54 33.5 89.5t90.5 35.5q59 0 92 -46h1v91h-79zM200 86q23 0 39.5 20.5t16.5 51.5v228q0 28 -16.5 47t-38.5 19q-46 0 -46 -55v-257q0 -25 12 -39.5
t33 -14.5z" />
    <glyph glyph-name="Emacron" unicode="&#x112;" horiz-adv-x="408" 
d="M47 0v713h327v-107h-202v-184h161v-108h-161v-206h203v-108h-328zM100 774v84h225v-84h-225z" />
    <glyph glyph-name="emacron" unicode="&#x113;" horiz-adv-x="391" 
d="M207 -11q-77 0 -123 40.5t-46 117.5v231q0 77 47 121.5t119 44.5t112.5 -42t40.5 -113v-164h-202v-64q0 -76 75 -76q41 0 99 21l22 -85q-66 -32 -144 -32zM155 309h97v86q0 55 -48 55q-24 0 -36.5 -16t-12.5 -40v-85zM85 598v84h225v-84h-225z" />
    <glyph glyph-name="Ebreve" unicode="&#x114;" horiz-adv-x="408" 
d="M47 0v713h327v-107h-202v-184h161v-108h-161v-206h203v-108h-328zM212 762q-63 0 -99 37t-37 107h79q5 -38 17 -55.5t43 -17.5q50 0 52 73h77q-1 -72 -38 -108t-94 -36z" />
    <glyph glyph-name="ebreve" unicode="&#x115;" horiz-adv-x="391" 
d="M207 -11q-77 0 -123 40.5t-46 117.5v231q0 77 47 121.5t119 44.5t112.5 -42t40.5 -113v-164h-202v-64q0 -76 75 -76q41 0 99 21l22 -85q-66 -32 -144 -32zM155 309h97v86q0 55 -48 55q-24 0 -36.5 -16t-12.5 -40v-85zM200 586q-63 0 -99 37t-37 107h79q5 -38 17 -55.5
t43 -17.5q50 0 52 73h77q-1 -72 -38 -108t-94 -36z" />
    <glyph glyph-name="Edotaccent" unicode="&#x116;" horiz-adv-x="408" 
d="M47 0v713h327v-107h-202v-184h161v-108h-161v-206h203v-108h-328zM161 767v137h99v-137h-99z" />
    <glyph glyph-name="edotaccent" unicode="&#x117;" horiz-adv-x="391" 
d="M207 -11q-77 0 -123 40.5t-46 117.5v231q0 77 47 121.5t119 44.5t112.5 -42t40.5 -113v-164h-202v-64q0 -76 75 -76q41 0 99 21l22 -85q-66 -32 -144 -32zM155 309h97v86q0 55 -48 55q-24 0 -36.5 -16t-12.5 -40v-85zM148 591v137h99v-137h-99z" />
    <glyph glyph-name="Eogonek" unicode="&#x118;" horiz-adv-x="408" 
d="M47 0v713h327v-107h-202v-184h161v-108h-161v-206h203v-108h-6q-65 -25 -65 -81q0 -22 12 -33t32 -11q27 0 52 18l31 -58q-43 -31 -98 -31q-45 0 -74.5 23t-29.5 69q0 61 52 104h-234z" />
    <glyph glyph-name="eogonek" unicode="&#x119;" horiz-adv-x="391" 
d="M207 -11q-77 0 -123 40.5t-46 117.5v231q0 77 47 121.5t119 44.5t112.5 -42t40.5 -113v-164h-202v-64q0 -76 75 -76q41 0 99 21l22 -85q-12 -6 -18 -8q-57 -34 -57 -94q0 -21 12.5 -32.5t31.5 -11.5q26 0 53 16l30 -57q-39 -30 -98 -30q-44 0 -74 24.5t-30 70.5
q0 51 39 92q-22 -2 -33 -2zM155 309h97v86q0 55 -48 55q-24 0 -36.5 -16t-12.5 -40v-85z" />
    <glyph glyph-name="Ecaron" unicode="&#x11a;" horiz-adv-x="408" 
d="M159 764l-88 152h93l40 -78l40 78h90l-89 -152h-86zM47 0v713h327v-107h-202v-184h161v-108h-161v-206h203v-108h-328z" />
    <glyph glyph-name="ecaron" unicode="&#x11b;" horiz-adv-x="391" 
d="M151 588l-88 152h93l40 -78l40 78h90l-89 -152h-86zM207 -11q-77 0 -123 40.5t-46 117.5v231q0 77 47 121.5t119 44.5t112.5 -42t40.5 -113v-164h-202v-64q0 -76 75 -76q41 0 99 21l22 -85q-66 -32 -144 -32zM155 309h97v86q0 55 -48 55q-24 0 -36.5 -16t-12.5 -40v-85z
" />
    <glyph glyph-name="Gcircumflex" unicode="&#x11c;" horiz-adv-x="465" 
d="M101 762l88 151h86l87 -151h-92l-40 78l-40 -78h-89zM238 -10q-89 0 -144 47t-55 134v374q0 83 55.5 131t141.5 48q82 0 136 -43.5t54 -119.5v-76h-116v66q0 30 -20 48t-52 18q-35 0 -53 -21t-18 -55v-367q0 -35 18.5 -55t52.5 -20q67 0 67 67v115h-78v96h200v-217
q0 -80 -50.5 -125t-138.5 -45z" />
    <glyph glyph-name="gcircumflex" unicode="&#x11d;" horiz-adv-x="417" 
d="M80 586l88 151h86l87 -151h-92l-40 78l-40 -78h-89zM189 -170q-77 0 -139 27l29 91q56 -22 103 -22q73 0 73 71v84h-2q-16 -30 -43 -47t-55 -17q-58 0 -87.5 34.5t-29.5 88.5v271q0 58 35 95t91 37q27 0 54 -14t41 -39h1l1 45h111v-530q0 -86 -48 -130.5t-135 -44.5z
M201 111q22 0 37.5 18.5t15.5 47.5v209q0 28 -17 46.5t-38 18.5q-20 0 -32 -15t-12 -41v-232q0 -52 46 -52z" />
    <glyph glyph-name="Gbreve" unicode="&#x11e;" horiz-adv-x="465" 
d="M238 -10q-89 0 -144 47t-55 134v374q0 83 55.5 131t141.5 48q82 0 136 -43.5t54 -119.5v-76h-116v66q0 30 -20 48t-52 18q-35 0 -53 -21t-18 -55v-367q0 -35 18.5 -55t52.5 -20q67 0 67 67v115h-78v96h200v-217q0 -80 -50.5 -125t-138.5 -45zM239 762q-63 0 -99 37
t-37 107h79q5 -38 17 -55.5t43 -17.5q50 0 52 73h77q-1 -72 -38 -108t-94 -36z" />
    <glyph glyph-name="gbreve" unicode="&#x11f;" horiz-adv-x="417" 
d="M189 -170q-77 0 -139 27l29 91q56 -22 103 -22q73 0 73 71v84h-2q-16 -30 -43 -47t-55 -17q-58 0 -87.5 34.5t-29.5 88.5v271q0 58 35 95t91 37q27 0 54 -14t41 -39h1l1 45h111v-530q0 -86 -48 -130.5t-135 -44.5zM201 111q22 0 37.5 18.5t15.5 47.5v209q0 28 -17 46.5
t-38 18.5q-20 0 -32 -15t-12 -41v-232q0 -52 46 -52zM206 586q-63 0 -99 37t-37 107h79q5 -38 17 -55.5t43 -17.5q50 0 52 73h77q-1 -72 -38 -108t-94 -36z" />
    <glyph glyph-name="Gdotaccent" unicode="&#x120;" horiz-adv-x="465" 
d="M238 -10q-89 0 -144 47t-55 134v374q0 83 55.5 131t141.5 48q82 0 136 -43.5t54 -119.5v-76h-116v66q0 30 -20 48t-52 18q-35 0 -53 -21t-18 -55v-367q0 -35 18.5 -55t52.5 -20q67 0 67 67v115h-78v96h200v-217q0 -80 -50.5 -125t-138.5 -45zM187 767v137h99v-137h-99z
" />
    <glyph glyph-name="gdotaccent" unicode="&#x121;" horiz-adv-x="417" 
d="M189 -170q-77 0 -139 27l29 91q56 -22 103 -22q73 0 73 71v84h-2q-16 -30 -43 -47t-55 -17q-58 0 -87.5 34.5t-29.5 88.5v271q0 58 35 95t91 37q27 0 54 -14t41 -39h1l1 45h111v-530q0 -86 -48 -130.5t-135 -44.5zM201 111q22 0 37.5 18.5t15.5 47.5v209q0 28 -17 46.5
t-38 18.5q-20 0 -32 -15t-12 -41v-232q0 -52 46 -52zM154 591v137h99v-137h-99z" />
    <glyph glyph-name="Gcommaaccent" unicode="&#x122;" horiz-adv-x="465" 
d="M184 -185l8 150h105l-32 -150h-81zM238 -10q-89 0 -144 47t-55 134v374q0 83 55.5 131t141.5 48q82 0 136 -43.5t54 -119.5v-76h-116v66q0 30 -20 48t-52 18q-35 0 -53 -21t-18 -55v-367q0 -35 18.5 -55t52.5 -20q67 0 67 67v115h-78v96h200v-217q0 -80 -50.5 -125
t-138.5 -45z" />
    <glyph glyph-name="gcommaaccent" unicode="&#x123;" horiz-adv-x="417" 
d="M189 -170q-77 0 -139 27l29 91q56 -22 103 -22q73 0 73 71v84h-2q-16 -30 -43 -47t-55 -17q-58 0 -87.5 34.5t-29.5 88.5v271q0 58 35 95t91 37q27 0 54 -14t41 -39h1l1 45h111v-530q0 -86 -48 -130.5t-135 -44.5zM201 111q22 0 37.5 18.5t15.5 47.5v209q0 28 -17 46.5
t-38 18.5q-20 0 -32 -15t-12 -41v-232q0 -52 46 -52zM159 590v69l34 93h52l-18 -74h33v-88h-101z" />
    <glyph glyph-name="Hcircumflex" unicode="&#x124;" horiz-adv-x="483" 
d="M110 762l88 151h86l87 -151h-92l-40 78l-40 -78h-89zM47 0v713h126v-294h138v294h125v-713h-125v304h-138v-304h-126z" />
    <glyph glyph-name="hcircumflex" unicode="&#x125;" 
d="M-19 760l88 151h86l87 -151h-92l-40 78l-40 -78h-89zM46 0v713h118v-231h1q38 62 108 62q46 0 76 -29t30 -78v-437h-117v391q0 54 -45 54q-23 0 -38 -21.5t-15 -51.5v-372h-118z" />
    <glyph glyph-name="Hbar" unicode="&#x126;" horiz-adv-x="510" 
d="M17 555v60h43v98h126v-98h138v98h125v-98h44v-60h-44v-555h-125v304h-138v-304h-126v555h-43zM186 419h138v136h-138v-136z" />
    <glyph glyph-name="hbar" unicode="&#x127;" horiz-adv-x="424" 
d="M15 589v73h33v51h118v-51h76v-73h-76v-107h1q38 62 108 62q46 0 76 -29t30 -78v-437h-117v391q0 54 -45 54q-23 0 -38 -21.5t-15 -51.5v-372h-118v589h-33z" />
    <glyph glyph-name="Itilde" unicode="&#x128;" horiz-adv-x="220" 
d="M47 0v713h126v-713h-126zM20 765l-61 14q8 49 31 79.5t60 30.5q21 0 60.5 -14.5t58.5 -14.5q14 0 22 8.5t15 28.5l56 -14q-7 -47 -30.5 -78.5t-60.5 -31.5q-20 0 -60.5 14.5t-55.5 14.5t-22.5 -7.5t-12.5 -29.5z" />
    <glyph glyph-name="itilde" unicode="&#x129;" horiz-adv-x="209" 
d="M46 0v532h117v-532h-117zM14 589l-61 14q8 49 31 79.5t60 30.5q21 0 60.5 -14.5t58.5 -14.5q14 0 22 8.5t15 28.5l56 -14q-7 -47 -30.5 -78.5t-60.5 -31.5q-20 0 -60.5 14.5t-55.5 14.5t-22.5 -7.5t-12.5 -29.5z" />
    <glyph glyph-name="Imacron" unicode="&#x12a;" horiz-adv-x="220" 
d="M47 0v713h126v-713h-126zM-2 774v84h225v-84h-225z" />
    <glyph glyph-name="imacron" unicode="&#x12b;" horiz-adv-x="209" 
d="M46 0v532h117v-532h-117zM-8 598v84h225v-84h-225z" />
    <glyph glyph-name="Ibreve" unicode="&#x12c;" horiz-adv-x="220" 
d="M47 0v713h126v-713h-126zM113 762q-63 0 -99 37t-37 107h79q5 -38 17 -55.5t43 -17.5q50 0 52 73h77q-1 -72 -38 -108t-94 -36z" />
    <glyph glyph-name="ibreve" unicode="&#x12d;" horiz-adv-x="209" 
d="M46 0v532h117v-532h-117zM107 586q-63 0 -99 37t-37 107h79q5 -38 17 -55.5t43 -17.5q50 0 52 73h77q-1 -72 -38 -108t-94 -36z" />
    <glyph glyph-name="Iogonek" unicode="&#x12e;" horiz-adv-x="220" 
d="M47 0v713h126v-709h1l-1 -1v-3h-7q-57 -28 -57 -81q0 -42 42 -42q19 0 43 13l28 -60q-38 -25 -90 -25q-41 0 -69.5 24t-28.5 69q0 57 49 102h-36z" />
    <glyph glyph-name="iogonek" unicode="&#x12f;" horiz-adv-x="209" 
d="M46 0v532h118v-532h-13q-57 -28 -57 -81q0 -42 42 -42q19 0 43 13l28 -60q-38 -25 -90 -25q-41 0 -69.5 24t-28.5 69q0 57 49 102h-22zM46 602v129h118v-129h-118z" />
    <glyph glyph-name="Idotaccent" unicode="&#x130;" horiz-adv-x="220" 
d="M47 0v713h126v-713h-126zM61 767v137h99v-137h-99z" />
    <glyph glyph-name="dotlessi" unicode="&#x131;" horiz-adv-x="209" 
d="M46 0v532h117v-532h-117z" />
    <glyph glyph-name="IJ" unicode="&#x132;" horiz-adv-x="639" 
d="M47 0v713h126v-713h-126zM410 -11q-89 0 -136 45.5t-47 132.5v97h120v-98q0 -68 61 -68t61 69v546h126v-539q0 -86 -48.5 -135.5t-136.5 -49.5z" />
    <glyph glyph-name="ij" unicode="&#x133;" horiz-adv-x="403" 
d="M46 0v532h118v-532h-118zM46 602v129h118v-129h-118zM238 -169q-21 0 -51 5v92q3 -1 20 -1q19 0 26.5 10t7.5 31v564h117v-579q0 -58 -32.5 -90t-87.5 -32zM240 602v129h118v-129h-118z" />
    <glyph glyph-name="Jcircumflex" unicode="&#x134;" horiz-adv-x="442" 
d="M177 762l88 151h86l87 -151h-92l-40 78l-40 -78h-89zM213 -11q-89 0 -136 45.5t-47 132.5v97h120v-98q0 -68 61 -68t61 69v546h126v-539q0 -86 -48.5 -135.5t-136.5 -49.5z" />
    <glyph glyph-name="jcircumflex" unicode="&#x135;" horiz-adv-x="212" 
d="M48 -169q-21 0 -51 5v92q3 -1 20 -1q19 0 26.5 10t7.5 31v564h117v-579q0 -58 -32.5 -90t-87.5 -32zM-25 586l88 151h86l87 -151h-92l-40 78l-40 -78h-89z" />
    <glyph glyph-name="Kcommaaccent" unicode="&#x136;" horiz-adv-x="467" 
d="M180 -185l8 150h105l-32 -150h-81zM47 0v713h126v-324l147 324h125l-130 -277l132 -436h-135l-90 329l-49 -92v-237h-126z" />
    <glyph glyph-name="kcommaaccent" unicode="&#x137;" horiz-adv-x="402" 
d="M157 -185l8 150h105l-32 -150h-81zM46 0v713h118v-402l107 221h117l-95 -182l95 -350h-124l-61 252l-39 -71v-181h-118z" />
    <glyph glyph-name="kgreenlandic" unicode="&#x138;" horiz-adv-x="402" 
d="M46 0v532h118v-221l107 221h117l-95 -182l95 -350h-124l-61 252l-39 -71v-181h-118z" />
    <glyph glyph-name="Lacute" unicode="&#x139;" horiz-adv-x="399" 
d="M73 762l67 147h119l-100 -147h-86zM47 0v713h125v-605h203v-108h-328z" />
    <glyph glyph-name="lacute" unicode="&#x13a;" horiz-adv-x="233" 
d="M60 760l67 147h119l-100 -147h-86zM149 -8q-105 0 -105 100v621h118v-584q0 -29 28 -29q12 0 25 3v-99q-30 -12 -66 -12z" />
    <glyph glyph-name="Lcommaaccent" unicode="&#x13b;" horiz-adv-x="399" 
d="M164 -185l8 150h105l-32 -150h-81zM47 0v713h125v-605h203v-108h-328z" />
    <glyph glyph-name="lcommaaccent" unicode="&#x13c;" horiz-adv-x="233" 
d="M60 -185l8 150h105l-32 -150h-81zM149 -8q-105 0 -105 100v621h118v-584q0 -29 28 -29q12 0 25 3v-99q-30 -12 -66 -12z" />
    <glyph glyph-name="Lcaron" unicode="&#x13d;" horiz-adv-x="399" 
d="M219 533l6 180h94l-33 -180h-67zM47 0v713h125v-605h203v-108h-328z" />
    <glyph glyph-name="lcaron" unicode="&#x13e;" horiz-adv-x="233" 
d="M190 533l6 180h94l-33 -180h-67zM149 -8q-105 0 -105 100v621h118v-584q0 -29 28 -29q12 0 25 3v-99q-30 -12 -66 -12z" />
    <glyph glyph-name="Ldot" unicode="&#x13f;" horiz-adv-x="399" 
d="M47 0v713h125v-605h203v-108h-328zM240 334v132h100v-132h-100z" />
    <glyph glyph-name="ldot" unicode="&#x140;" horiz-adv-x="298" 
d="M149 -8q-105 0 -105 100v621h118v-584q0 -29 28 -29q12 0 25 3v-99q-30 -12 -66 -12zM199 322v131h100v-131h-100z" />
    <glyph glyph-name="Lslash" unicode="&#x141;" horiz-adv-x="416" 
d="M21 258v87l42 30v338h125v-247l87 63v-87l-87 -63v-271h203v-108h-328v288z" />
    <glyph glyph-name="lslash" unicode="&#x142;" horiz-adv-x="246" 
d="M19 257v94l37 32v330h118v-229l49 43v-93l-49 -43v-262q0 -29 28 -29q12 0 25 3v-99q-30 -12 -66 -12q-105 0 -105 100v197z" />
    <glyph glyph-name="Nacute" unicode="&#x143;" horiz-adv-x="496" 
d="M211 762l67 147h119l-100 -147h-86zM47 0v713h130l158 -412h3v412h112v-713h-114l-175 457h-2v-457h-112z" />
    <glyph glyph-name="nacute" unicode="&#x144;" 
d="M171 586l67 147h119l-100 -147h-86zM46 0v532h115v-49h1q38 61 111 61q46 0 76 -29t30 -78v-437h-117v391q0 54 -45 54q-23 0 -38 -21.5t-15 -50.5v-373h-118z" />
    <glyph glyph-name="Ncommaaccent" unicode="&#x145;" horiz-adv-x="496" 
d="M191 -185l8 150h105l-32 -150h-81zM47 0v713h130l158 -412h3v412h112v-713h-114l-175 457h-2v-457h-112z" />
    <glyph glyph-name="ncommaaccent" unicode="&#x146;" 
d="M154 -185l8 150h105l-32 -150h-81zM46 0v532h115v-49h1q38 61 111 61q46 0 76 -29t30 -78v-437h-117v391q0 54 -45 54q-23 0 -38 -21.5t-15 -50.5v-373h-118z" />
    <glyph glyph-name="Ncaron" unicode="&#x147;" horiz-adv-x="496" 
d="M204 764l-88 152h93l40 -78l40 78h90l-89 -152h-86zM47 0v713h130l158 -412h3v412h112v-713h-114l-175 457h-2v-457h-112z" />
    <glyph glyph-name="ncaron" unicode="&#x148;" 
d="M166 588l-88 152h93l40 -78l40 78h90l-89 -152h-86zM46 0v532h115v-49h1q38 61 111 61q46 0 76 -29t30 -78v-437h-117v391q0 54 -45 54q-23 0 -38 -21.5t-15 -50.5v-373h-118z" />
    <glyph glyph-name="Eng" unicode="&#x14a;" horiz-adv-x="496" 
d="M330 -169q-21 0 -51 5v92q3 -1 20 -1q19 0 26.5 10t7.5 31v40l-172 449h-2v-457h-112v713h130l158 -412h3v412h112v-760q0 -58 -32.5 -90t-87.5 -32z" />
    <glyph glyph-name="eng" unicode="&#x14b;" 
d="M259 -169q-21 0 -51 5v92q3 -1 20 -1q19 0 26.5 10t7.5 31v423q0 54 -45 54q-23 0 -38 -21.5t-15 -50.5v-373h-118v532h115v-49h1q38 61 111 61q46 0 76 -29t30 -78v-484q0 -58 -32.5 -90t-87.5 -32z" />
    <glyph glyph-name="Omacron" unicode="&#x14c;" horiz-adv-x="475" 
d="M124 774v84h225v-84h-225zM237 -10q-92 0 -145 47.5t-53 140.5v358q0 89 55.5 138.5t143.5 49.5q87 0 142.5 -47t55.5 -137v-359q0 -93 -55.5 -142t-143.5 -49zM238 101q34 0 52 21t18 54v367q0 33 -19 52t-52 19q-34 0 -52 -20t-18 -53v-365q0 -33 18.5 -54t52.5 -21z
" />
    <glyph glyph-name="omacron" unicode="&#x14d;" horiz-adv-x="410" 
d="M92 598v84h225v-84h-225zM205 -10q-75 0 -121 40t-46 117v238q0 75 48 117t119 42q72 0 120 -40t48 -115v-241q0 -77 -47.5 -117.5t-120.5 -40.5zM206 84q49 0 49 57v250q0 24 -13 40.5t-37 16.5q-25 0 -37 -16.5t-12 -41.5v-250q0 -24 12.5 -40t37.5 -16z" />
    <glyph glyph-name="Obreve" unicode="&#x14e;" horiz-adv-x="475" 
d="M237 -10q-92 0 -145 47.5t-53 140.5v358q0 89 55.5 138.5t143.5 49.5q87 0 142.5 -47t55.5 -137v-359q0 -93 -55.5 -142t-143.5 -49zM238 101q34 0 52 21t18 54v367q0 33 -19 52t-52 19q-34 0 -52 -20t-18 -53v-365q0 -33 18.5 -54t52.5 -21zM239 762q-63 0 -99 37
t-37 107h79q5 -38 17 -55.5t43 -17.5q50 0 52 73h77q-1 -72 -38 -108t-94 -36z" />
    <glyph glyph-name="obreve" unicode="&#x14f;" horiz-adv-x="410" 
d="M205 -10q-75 0 -121 40t-46 117v238q0 75 48 117t119 42q72 0 120 -40t48 -115v-241q0 -77 -47.5 -117.5t-120.5 -40.5zM206 84q49 0 49 57v250q0 24 -13 40.5t-37 16.5q-25 0 -37 -16.5t-12 -41.5v-250q0 -24 12.5 -40t37.5 -16zM207 586q-63 0 -99 37t-37 107h79
q5 -38 17 -55.5t43 -17.5q50 0 52 73h77q-1 -72 -38 -108t-94 -36z" />
    <glyph glyph-name="Ohungarumlaut" unicode="&#x150;" horiz-adv-x="475" 
d="M107 762l51 142h99l-67 -142h-83zM251 762l54 142h98l-71 -142h-81zM237 -10q-92 0 -145 47.5t-53 140.5v358q0 89 55.5 138.5t143.5 49.5q87 0 142.5 -47t55.5 -137v-359q0 -93 -55.5 -142t-143.5 -49zM238 101q34 0 52 21t18 54v367q0 33 -19 52t-52 19q-34 0 -52 -20
t-18 -53v-365q0 -33 18.5 -54t52.5 -21z" />
    <glyph glyph-name="ohungarumlaut" unicode="&#x151;" horiz-adv-x="410" 
d="M92 586l51 142h99l-67 -142h-83zM236 586l54 142h98l-71 -142h-81zM205 -10q-75 0 -121 40t-46 117v238q0 75 48 117t119 42q72 0 120 -40t48 -115v-241q0 -77 -47.5 -117.5t-120.5 -40.5zM206 84q49 0 49 57v250q0 24 -13 40.5t-37 16.5q-25 0 -37 -16.5t-12 -41.5v-250
q0 -24 12.5 -40t37.5 -16z" />
    <glyph glyph-name="OE" unicode="&#x152;" horiz-adv-x="672" 
d="M218 -8q-179 0 -179 188v354q0 92 48 140.5t134 48.5q57 0 89 -32v22h328v-107h-202v-185h161v-108h-161v-205h203v-108h-329v27q-33 -35 -92 -35zM239 102q34 0 52.5 21.5t18.5 54.5v364q0 33 -20 51.5t-53 18.5q-34 0 -52 -20t-18 -52v-362q0 -34 18.5 -55t53.5 -21z
" />
    <glyph glyph-name="oe" unicode="&#x153;" horiz-adv-x="609" 
d="M205 -11q-75 0 -121 40.5t-46 117.5v238q0 75 48 117t119 42q67 0 111 -36q44 36 107 36q72 0 112 -42t40 -113v-164h-201v-64q0 -76 74 -76q38 0 99 21l23 -85q-64 -32 -143 -32q-71 0 -113 35q-42 -35 -109 -35zM206 84q49 0 49 57v250q0 24 -13 40.5t-37 16.5
q-25 0 -37 -16.5t-12 -41.5v-250q0 -24 12.5 -40t37.5 -16zM374 309h97v86q0 55 -49 55q-23 0 -35.5 -16t-12.5 -39v-86z" />
    <glyph glyph-name="Racute" unicode="&#x154;" horiz-adv-x="465" 
d="M163 762l67 147h119l-100 -147h-86zM47 0v713h193q90 0 138.5 -52t48.5 -156q0 -146 -87 -187l95 -318h-131l-78 290h-53v-290h-126zM173 384h57q70 0 70 112q0 111 -71 111h-56v-223z" />
    <glyph glyph-name="racute" unicode="&#x155;" horiz-adv-x="306" 
d="M85 586l67 147h119l-100 -147h-86zM46 0v532h116v-60h1q29 66 91 66q22 0 35 -4v-111q-21 4 -47 4q-33 0 -55.5 -16.5t-22.5 -50.5v-360h-118z" />
    <glyph glyph-name="Rcommaaccent" unicode="&#x156;" horiz-adv-x="465" 
d="M175 -185l8 150h105l-32 -150h-81zM47 0v713h193q90 0 138.5 -52t48.5 -156q0 -146 -87 -187l95 -318h-131l-78 290h-53v-290h-126zM173 384h57q70 0 70 112q0 111 -71 111h-56v-223z" />
    <glyph glyph-name="rcommaaccent" unicode="&#x157;" horiz-adv-x="306" 
d="M49 -185l8 150h105l-32 -150h-81zM46 0v532h116v-60h1q29 66 91 66q22 0 35 -4v-111q-21 4 -47 4q-33 0 -55.5 -16.5t-22.5 -50.5v-360h-118z" />
    <glyph glyph-name="Rcaron" unicode="&#x158;" horiz-adv-x="465" 
d="M179 764l-88 152h93l40 -78l40 78h90l-89 -152h-86zM47 0v713h193q90 0 138.5 -52t48.5 -156q0 -146 -87 -187l95 -318h-131l-78 290h-53v-290h-126zM173 384h57q70 0 70 112q0 111 -71 111h-56v-223z" />
    <glyph glyph-name="rcaron" unicode="&#x159;" horiz-adv-x="306" 
d="M114 588l-88 152h93l40 -78l40 78h90l-89 -152h-86zM46 0v532h116v-60h1q29 66 91 66q22 0 35 -4v-111q-21 4 -47 4q-33 0 -55.5 -16.5t-22.5 -50.5v-360h-118z" />
    <glyph glyph-name="Sacute" unicode="&#x15a;" horiz-adv-x="426" 
d="M168 762l67 147h119l-100 -147h-86zM215 -10q-84 0 -133 52.5t-54 145.5l118 4q10 -100 70 -100q31 0 45 22t14 53q0 50 -66 114l-71 74q-99 96 -99 192q0 76 47 127t133 51q73 0 120 -45t51 -148l-111 -4q-5 46 -19.5 70.5t-46.5 24.5q-27 0 -42 -18.5t-15 -48.5
q0 -18 12.5 -39.5t24 -34t36.5 -37.5l66 -67q103 -101 103 -205q0 -79 -49.5 -131t-133.5 -52z" />
    <glyph glyph-name="sacute" unicode="&#x15b;" horiz-adv-x="359" 
d="M137 586l67 147h119l-100 -147h-86zM181 -10q-63 0 -106 37t-49 114l109 3q5 -65 49 -65q39 0 39 45q0 36 -61 89l-43 40q-81 71 -81 148q0 58 37.5 100t112.5 42q64 0 102.5 -36.5t42.5 -113.5l-101 -3q-6 66 -46 66q-41 0 -41 -42q0 -27 51 -73l51 -48q87 -82 87 -159
q0 -60 -38.5 -102t-114.5 -42z" />
    <glyph glyph-name="Scircumflex" unicode="&#x15c;" horiz-adv-x="426" 
d="M82 762l88 151h86l87 -151h-92l-40 78l-40 -78h-89zM215 -10q-84 0 -133 52.5t-54 145.5l118 4q10 -100 70 -100q31 0 45 22t14 53q0 50 -66 114l-71 74q-99 96 -99 192q0 76 47 127t133 51q73 0 120 -45t51 -148l-111 -4q-5 46 -19.5 70.5t-46.5 24.5q-27 0 -42 -18.5
t-15 -48.5q0 -18 12.5 -39.5t24 -34t36.5 -37.5l66 -67q103 -101 103 -205q0 -79 -49.5 -131t-133.5 -52z" />
    <glyph glyph-name="scircumflex" unicode="&#x15d;" horiz-adv-x="359" 
d="M51 586l88 151h86l87 -151h-92l-40 78l-40 -78h-89zM181 -10q-63 0 -106 37t-49 114l109 3q5 -65 49 -65q39 0 39 45q0 36 -61 89l-43 40q-81 71 -81 148q0 58 37.5 100t112.5 42q64 0 102.5 -36.5t42.5 -113.5l-101 -3q-6 66 -46 66q-41 0 -41 -42q0 -27 51 -73l51 -48
q87 -82 87 -159q0 -60 -38.5 -102t-114.5 -42z" />
    <glyph glyph-name="Scedilla" unicode="&#x15e;" horiz-adv-x="426" 
d="M221 -192q-46 0 -81 11v55q42 -11 76 -11t34 22q0 20 -37 22l-36 3l19 81q-76 6 -119.5 57.5t-48.5 139.5l118 4q10 -100 70 -100q31 0 45 22t14 53q0 50 -66 114l-71 74q-99 96 -99 192q0 76 47 127t133 51q73 0 120 -45t51 -148l-111 -4q-5 46 -19.5 70.5t-46.5 24.5
q-27 0 -42 -18.5t-15 -48.5q0 -18 12.5 -39.5t24 -34t36.5 -37.5l66 -67q103 -101 103 -205q0 -72 -41 -121.5t-112 -59.5l-10 -42q96 0 96 -62q0 -36 -32 -58t-78 -22z" />
    <glyph glyph-name="scedilla" unicode="&#x15f;" horiz-adv-x="359" 
d="M193 -192q-46 0 -81 11v55q42 -11 76 -11t34 22q0 20 -37 22l-36 3l18 81q-58 3 -97 40.5t-44 109.5l109 3q5 -65 49 -65q39 0 39 45q0 36 -61 89l-43 40q-81 71 -81 148q0 58 37.5 100t112.5 42q64 0 102.5 -36.5t42.5 -113.5l-101 -3q-6 66 -46 66q-41 0 -41 -42
q0 -27 51 -73l51 -48q87 -82 87 -159q0 -53 -29.5 -92t-87.5 -49l-10 -43q96 0 96 -62q0 -36 -32 -58t-78 -22z" />
    <glyph glyph-name="Scaron" unicode="&#x160;" horiz-adv-x="426" 
d="M164 764l-88 152h93l40 -78l40 78h90l-89 -152h-86zM215 -10q-84 0 -133 52.5t-54 145.5l118 4q10 -100 70 -100q31 0 45 22t14 53q0 50 -66 114l-71 74q-99 96 -99 192q0 76 47 127t133 51q73 0 120 -45t51 -148l-111 -4q-5 46 -19.5 70.5t-46.5 24.5q-27 0 -42 -18.5
t-15 -48.5q0 -18 12.5 -39.5t24 -34t36.5 -37.5l66 -67q103 -101 103 -205q0 -79 -49.5 -131t-133.5 -52z" />
    <glyph glyph-name="scaron" unicode="&#x161;" horiz-adv-x="360" 
d="M145 588l-88 152h93l40 -78l40 78h90l-89 -152h-86zM181 -10q-63 0 -106 37t-49 114l109 3q5 -65 49 -65q39 0 39 45q0 36 -61 89l-43 40q-81 71 -81 148q0 58 37.5 100t112.5 42q64 0 102.5 -36.5t42.5 -113.5l-101 -3q-6 66 -46 66q-41 0 -41 -42q0 -27 51 -73l51 -48
q87 -82 87 -159q0 -60 -38.5 -102t-114.5 -42z" />
    <glyph glyph-name="Tcommaaccent" unicode="&#x162;" horiz-adv-x="434" 
d="M160 -185l8 150h105l-32 -150h-81zM154 0v606h-135v107h396v-107h-134v-606h-127z" />
    <glyph glyph-name="tcommaaccent" unicode="&#x163;" horiz-adv-x="291" 
d="M98 -185l8 150h105l-32 -150h-81zM186 -7q-49 0 -80 25t-31 75v343h-49v92h49v121h117v-121h76v-92h-76v-308q0 -33 30 -33q25 0 43 5v-94q-35 -13 -79 -13z" />
    <glyph glyph-name="Tcaron" unicode="&#x164;" horiz-adv-x="434" 
d="M172 764l-88 152h93l40 -78l40 78h90l-89 -152h-86zM154 0v606h-135v107h396v-107h-134v-606h-127z" />
    <glyph glyph-name="tcaron" unicode="&#x165;" horiz-adv-x="291" 
d="M222 564l5 150h89l-28 -150h-66zM186 -7q-49 0 -80 25t-31 75v343h-49v92h49v121h117v-121h76v-92h-76v-308q0 -33 30 -33q25 0 43 5v-94q-35 -13 -79 -13z" />
    <glyph glyph-name="Tbar" unicode="&#x166;" horiz-adv-x="434" 
d="M98 298v78h56v230h-135v107h396v-107h-134v-230h55v-78h-55v-298h-127v298h-56z" />
    <glyph glyph-name="tbar" unicode="&#x167;" horiz-adv-x="291" 
d="M46 252v72h29v112h-49v92h49v121h117v-121h76v-92h-76v-112h43v-72h-43v-124q0 -33 30 -33q25 0 43 5v-94q-35 -13 -79 -13q-49 0 -80 25t-31 75v159h-29z" />
    <glyph glyph-name="Utilde" unicode="&#x168;" horiz-adv-x="473" 
d="M233 -11q-90 0 -140 46t-50 137v541h128v-535q0 -38 19.5 -58t50.5 -20q33 0 50.5 21t17.5 56v536h120v-537q1 -88 -54 -137.5t-142 -49.5zM149 765l-61 14q8 49 31 79.5t60 30.5q21 0 60.5 -14.5t58.5 -14.5q14 0 22 8.5t15 28.5l56 -14q-7 -47 -30.5 -78.5t-60.5 -31.5
q-20 0 -60.5 14.5t-55.5 14.5t-22.5 -7.5t-12.5 -29.5z" />
    <glyph glyph-name="utilde" unicode="&#x169;" 
d="M148 -11q-45 0 -75 29.5t-30 78.5v435h116v-392q0 -52 46 -52q23 0 38.5 21.5t15.5 50.5v372h116v-532h-114v53h-1q-39 -64 -112 -64zM119 589l-61 14q8 49 31 79.5t60 30.5q21 0 60.5 -14.5t58.5 -14.5q14 0 22 8.5t15 28.5l56 -14q-7 -47 -30.5 -78.5t-60.5 -31.5
q-20 0 -60.5 14.5t-55.5 14.5t-22.5 -7.5t-12.5 -29.5z" />
    <glyph glyph-name="Umacron" unicode="&#x16a;" horiz-adv-x="473" 
d="M233 -11q-90 0 -140 46t-50 137v541h128v-535q0 -38 19.5 -58t50.5 -20q33 0 50.5 21t17.5 56v536h120v-537q1 -88 -54 -137.5t-142 -49.5zM128 774v84h225v-84h-225z" />
    <glyph glyph-name="umacron" unicode="&#x16b;" 
d="M148 -11q-45 0 -75 29.5t-30 78.5v435h116v-392q0 -52 46 -52q23 0 38.5 21.5t15.5 50.5v372h116v-532h-114v53h-1q-39 -64 -112 -64zM97 598v84h225v-84h-225z" />
    <glyph glyph-name="Ubreve" unicode="&#x16c;" horiz-adv-x="473" 
d="M233 -11q-90 0 -140 46t-50 137v541h128v-535q0 -38 19.5 -58t50.5 -20q33 0 50.5 21t17.5 56v536h120v-537q1 -88 -54 -137.5t-142 -49.5zM238 762q-63 0 -99 37t-37 107h79q5 -38 17 -55.5t43 -17.5q50 0 52 73h77q-1 -72 -38 -108t-94 -36z" />
    <glyph glyph-name="ubreve" unicode="&#x16d;" 
d="M148 -11q-45 0 -75 29.5t-30 78.5v435h116v-392q0 -52 46 -52q23 0 38.5 21.5t15.5 50.5v372h116v-532h-114v53h-1q-39 -64 -112 -64zM212 586q-63 0 -99 37t-37 107h79q5 -38 17 -55.5t43 -17.5q50 0 52 73h77q-1 -72 -38 -108t-94 -36z" />
    <glyph glyph-name="Uring" unicode="&#x16e;" horiz-adv-x="473" 
d="M235 753q-40 0 -66 25.5t-26 64.5q0 40 26.5 66.5t66.5 26.5q41 0 66.5 -24.5t25.5 -64.5t-27 -67t-66 -27zM236 799q19 0 31 13t12 33q0 21 -11.5 34t-31.5 13q-19 0 -30.5 -13t-11.5 -34t12 -33.5t30 -12.5zM233 -11q-90 0 -140 46t-50 137v541h128v-535
q0 -38 19.5 -58t50.5 -20q33 0 50.5 21t17.5 56v536h120v-537q1 -88 -54 -137.5t-142 -49.5z" />
    <glyph glyph-name="uring" unicode="&#x16f;" 
d="M209 577q-40 0 -66 25.5t-26 64.5q0 40 26.5 66.5t66.5 26.5q41 0 66.5 -24.5t25.5 -64.5t-27 -67t-66 -27zM210 623q19 0 31 13t12 33q0 21 -11.5 34t-31.5 13q-19 0 -30.5 -13t-11.5 -34t12 -33.5t30 -12.5zM148 -11q-45 0 -75 29.5t-30 78.5v435h116v-392
q0 -52 46 -52q23 0 38.5 21.5t15.5 50.5v372h116v-532h-114v53h-1q-39 -64 -112 -64z" />
    <glyph glyph-name="Uhungarumlaut" unicode="&#x170;" horiz-adv-x="473" 
d="M233 -11q-90 0 -140 46t-50 137v541h128v-535q0 -38 19.5 -58t50.5 -20q33 0 50.5 21t17.5 56v536h120v-537q1 -88 -54 -137.5t-142 -49.5zM124 762l51 142h99l-67 -142h-83zM268 762l54 142h98l-71 -142h-81z" />
    <glyph glyph-name="uhungarumlaut" unicode="&#x171;" 
d="M148 -11q-45 0 -75 29.5t-30 78.5v435h116v-392q0 -52 46 -52q23 0 38.5 21.5t15.5 50.5v372h116v-532h-114v53h-1q-39 -64 -112 -64zM99 586l51 142h99l-67 -142h-83zM243 586l54 142h98l-71 -142h-81z" />
    <glyph glyph-name="Uogonek" unicode="&#x172;" horiz-adv-x="473" 
d="M299 -196q-44 0 -74 24.5t-30 70.5q0 52 38 90q-90 0 -140 46t-50 137v541h128v-535q0 -38 19.5 -58t50.5 -20q33 0 50.5 21t17.5 56v536h120v-537q1 -66 -32 -111.5t-89 -64.5q-38 -31 -38 -81q0 -22 12 -33t32 -11q27 0 52 16l31 -57q-41 -30 -98 -30z" />
    <glyph glyph-name="uogonek" unicode="&#x173;" 
d="M148 -11q-45 0 -75 29.5t-30 78.5v435h116v-392q0 -52 46 -52q23 0 38.5 21.5t15.5 50.5v372h116v-532h-114v53h-1q-39 -64 -112 -64z" />
    <glyph glyph-name="Wcircumflex" unicode="&#x174;" horiz-adv-x="642" 
d="M190 762l88 151h86l87 -151h-92l-40 78l-40 -78h-89zM128 -4l-113 717h125l59 -450h2l68 450h121l65 -448h2l58 448h112l-111 -717h-118l-72 477h-4l-74 -477h-120z" />
    <glyph glyph-name="wcircumflex" unicode="&#x175;" horiz-adv-x="562" 
d="M149 586l88 151h86l87 -151h-92l-40 78l-40 -78h-89zM119 -1l-102 533h122l43 -307h4l50 307h109l49 -307h3l46 307h108l-103 -533h-103l-58 331h-3l-59 -331h-106z" />
    <glyph glyph-name="Ycircumflex" unicode="&#x176;" horiz-adv-x="435" 
d="M155 0v286l-147 427h134l84 -277l81 277h120l-146 -427v-286h-126zM96 762l88 151h86l87 -151h-92l-40 78l-40 -78h-89z" />
    <glyph glyph-name="ycircumflex" unicode="&#x177;" horiz-adv-x="376" 
d="M103 -171q-36 0 -68 8l12 93q32 -6 42 -6q32 0 42 33l11 48l-133 527h122l68 -335h3l58 335h107l-128 -566q-34 -137 -136 -137zM64 586l88 151h86l87 -151h-92l-40 78l-40 -78h-89z" />
    <glyph glyph-name="Ydieresis" unicode="&#x178;" horiz-adv-x="435" 
d="M155 0v286l-147 427h134l84 -277l81 277h120l-146 -427v-286h-126zM103 767v137h93v-137h-93zM251 767v137h93v-137h-93z" />
    <glyph glyph-name="Zacute" unicode="&#x179;" horiz-adv-x="399" 
d="M156 762l67 147h119l-100 -147h-86zM30 0v83l203 523h-199v107h339v-92l-199 -513h195v-108h-339z" />
    <glyph glyph-name="zacute" unicode="&#x17a;" horiz-adv-x="343" 
d="M131 586l67 147h119l-100 -147h-86zM27 0v82l158 353h-154v97h286v-86l-155 -348h155v-98h-290z" />
    <glyph glyph-name="Zdotaccent" unicode="&#x17b;" horiz-adv-x="399" 
d="M30 0v83l203 523h-199v107h339v-92l-199 -513h195v-108h-339zM157 767v137h99v-137h-99z" />
    <glyph glyph-name="zdotaccent" unicode="&#x17c;" horiz-adv-x="343" 
d="M27 0v82l158 353h-154v97h286v-86l-155 -348h155v-98h-290zM124 591v137h99v-137h-99z" />
    <glyph glyph-name="Zcaron" unicode="&#x17d;" horiz-adv-x="399" 
d="M168 764l-88 152h93l40 -78l40 78h90l-89 -152h-86zM30 0v83l203 523h-199v107h339v-92l-199 -513h195v-108h-339z" />
    <glyph glyph-name="zcaron" unicode="&#x17e;" horiz-adv-x="343" 
d="M133 588l-88 152h93l40 -78l40 78h90l-89 -152h-86zM27 0v82l158 353h-154v97h286v-86l-155 -348h155v-98h-290z" />
    <glyph glyph-name="florin" unicode="&#x192;" horiz-adv-x="315" 
d="M67 -170q-23 0 -57 6l6 93q1 0 10.5 -0.5t12.5 -0.5q18 0 23.5 9.5t7.5 31.5l30 425h-53l6 93h52l8 115q4 57 38 90t89 33q38 0 69 -9l-6 -89q-8 2 -39 2q-35 0 -36 -37l-8 -105h63l-5 -93h-63l-29 -438q-2 -59 -33 -92.5t-86 -33.5z" />
    <glyph glyph-name="Aringacute" unicode="&#x1fa;" horiz-adv-x="500" 
d="M22 0l145 714h172l139 -714h-127l-33 173h-147l-32 -173h-117zM191 275h107l-51 296h-3zM254 749q-42 0 -65.5 24.5t-23.5 59.5q0 33 21 59l70 95l84 -18l-60 -53q30 -7 48 -28.5t18 -50.5q0 -38 -26.5 -63t-65.5 -25zM255 790q19 0 29.5 12.5t10.5 33.5t-10.5 33.5
t-28.5 12.5q-19 0 -29.5 -13t-10.5 -34q0 -45 39 -45z" />
    <glyph glyph-name="aringacute" unicode="&#x1fb;" horiz-adv-x="400" 
d="M146 -10q-51 0 -84 40.5t-33 120.5q0 81 51.5 126.5t128.5 47.5h31v81q0 44 -47 44q-46 0 -46 -44v-45h-107v47q0 61 44.5 98.5t116.5 37.5t114 -38t42 -104v-279q0 -25 2.5 -72.5t2.5 -50.5h-108q0 1 -1 8.5t-2 20t-2 25.5h-3q-14 -33 -43 -48.5t-57 -15.5zM190 82
q20 0 35 18t15 43v110h-28q-29 0 -47 -22t-18 -66q0 -83 43 -83zM202 579q-42 0 -65.5 24.5t-23.5 59.5q0 33 21 59l70 95l84 -18l-60 -53q30 -7 48 -28.5t18 -50.5q0 -38 -26.5 -63t-65.5 -25zM203 620q19 0 29.5 12.5t10.5 33.5t-10.5 33.5t-28.5 12.5q-19 0 -29.5 -13
t-10.5 -34q0 -45 39 -45z" />
    <glyph glyph-name="AEacute" unicode="&#x1fc;" horiz-adv-x="680" 
d="M346 762l67 147h119l-100 -147h-86zM16 0l231 713h399v-107h-201v-185h160v-108h-160v-205h202v-108h-328v187h-126l-52 -187h-125zM227 283h92v302h-4z" />
    <glyph glyph-name="aeacute" unicode="&#x1fd;" horiz-adv-x="594" 
d="M251 586l67 147h119l-100 -147h-86zM146 -11q-51 0 -84 40.5t-33 121.5t52 127t128 47h31v81q0 44 -47 44q-46 0 -46 -44v-45h-107v47q0 61 44.5 98.5t116.5 37.5q67 0 103 -34q44 34 104 34q70 0 111 -41t41 -112v-166h-201v-64q0 -76 73 -76q45 0 100 21l22 -85
q-63 -32 -143 -32q-100 0 -143 66q-38 -66 -122 -66zM192 82q20 0 34 16t14 41v114h-28q-29 0 -47 -22t-18 -66q0 -83 45 -83zM359 309h96v86q0 55 -48 55q-24 0 -36 -16t-12 -39v-86z" />
    <glyph glyph-name="Oslashacute" unicode="&#x1fe;" horiz-adv-x="475" 
d="M123 -49l-52 15l24 68q-56 48 -56 144v358q0 89 55.5 138.5t143.5 49.5q54 0 97 -18l20 56l52 -15l-25 -71q54 -51 54 -136v-359q0 -93 -55.5 -142t-143.5 -49q-54 0 -95 16zM167 541v-306l126 354q-19 25 -56 25q-34 0 -52 -20t-18 -53zM238 101q34 0 52 21t18 54v293
l-124 -346q19 -22 54 -22zM195 762l67 147h119l-100 -147h-86z" />
    <glyph glyph-name="oslashacute" unicode="&#x1ff;" horiz-adv-x="410" 
d="M116 -51l-45 15l21 58q-54 41 -54 125v238q0 75 48 117t119 42q40 0 73 -13l19 53l45 -15l-22 -61q53 -43 53 -119v-241q0 -77 -47.5 -117.5t-120.5 -40.5q-35 0 -70 10zM156 390v-193l85 235q-14 16 -36 16q-25 0 -37 -16.5t-12 -41.5zM206 84q49 0 49 57v189l-85 -233
q13 -13 36 -13z" />
    <glyph glyph-name="Scommaaccent" unicode="&#x218;" horiz-adv-x="426" 
d="M168 -185l8 150h105l-32 -150h-81zM215 -10q-84 0 -133 52.5t-54 145.5l118 4q10 -100 70 -100q31 0 45 22t14 53q0 50 -66 114l-71 74q-99 96 -99 192q0 76 47 127t133 51q73 0 120 -45t51 -148l-111 -4q-5 46 -19.5 70.5t-46.5 24.5q-27 0 -42 -18.5t-15 -48.5
q0 -18 12.5 -39.5t24 -34t36.5 -37.5l66 -67q103 -101 103 -205q0 -79 -49.5 -131t-133.5 -52z" />
    <glyph glyph-name="scommaaccent" unicode="&#x219;" horiz-adv-x="359" 
d="M136 -185l8 150h105l-32 -150h-81zM181 -10q-63 0 -106 37t-49 114l109 3q5 -65 49 -65q39 0 39 45q0 36 -61 89l-43 40q-81 71 -81 148q0 58 37.5 100t112.5 42q64 0 102.5 -36.5t42.5 -113.5l-101 -3q-6 66 -46 66q-41 0 -41 -42q0 -27 51 -73l51 -48q87 -82 87 -159
q0 -60 -38.5 -102t-114.5 -42z" />
    <glyph glyph-name="uni021A" unicode="&#x21a;" horiz-adv-x="434" 
d="M160 -185l8 150h105l-32 -150h-81zM154 0v606h-135v107h396v-107h-134v-606h-127z" />
    <glyph glyph-name="uni021B" unicode="&#x21b;" horiz-adv-x="291" 
d="M98 -185l8 150h105l-32 -150h-81zM186 -7q-49 0 -80 25t-31 75v343h-49v92h49v121h117v-121h76v-92h-76v-308q0 -33 30 -33q25 0 43 5v-94q-35 -13 -79 -13z" />
    <glyph glyph-name="dotlessj" unicode="&#x237;" horiz-adv-x="212" 
d="M48 -169q-21 0 -51 5v92q3 -1 20 -1q19 0 26.5 10t7.5 31v564h117v-579q0 -58 -32.5 -90t-87.5 -32z" />
    <glyph glyph-name="circumflex" unicode="&#x2c6;" horiz-adv-x="306" 
d="M23 586l88 151h86l87 -151h-92l-40 78l-40 -78h-89z" />
    <glyph glyph-name="caron" unicode="&#x2c7;" horiz-adv-x="296" 
d="M114 588l-88 152h93l40 -78l40 78h90l-89 -152h-86z" />
    <glyph glyph-name="breve" unicode="&#x2d8;" horiz-adv-x="330" 
d="M167 586q-63 0 -99 37t-37 107h79q5 -38 17 -55.5t43 -17.5q50 0 52 73h77q-1 -72 -38 -108t-94 -36z" />
    <glyph glyph-name="dotaccent" unicode="&#x2d9;" horiz-adv-x="229" 
d="M65 591v137h99v-137h-99z" />
    <glyph glyph-name="ring" unicode="&#x2da;" horiz-adv-x="247" 
d="M124 577q-40 0 -66 25.5t-26 64.5q0 40 26.5 66.5t66.5 26.5q41 0 66.5 -24.5t25.5 -64.5t-27 -67t-66 -27zM125 623q19 0 31 13t12 33q0 21 -11.5 34t-31.5 13q-19 0 -30.5 -13t-11.5 -34t12 -33.5t30 -12.5z" />
    <glyph glyph-name="ogonek" unicode="&#x2db;" horiz-adv-x="274" 
d="M147 -196q-45 0 -74.5 23t-29.5 69q0 47 31 83t75 54l40 -31q-71 -25 -71 -83q0 -22 12 -33t32 -11q27 0 52 18l31 -58q-43 -31 -98 -31z" />
    <glyph glyph-name="tilde" unicode="&#x2dc;" horiz-adv-x="353" 
d="M89 589l-61 14q8 49 31 79.5t60 30.5q21 0 60.5 -14.5t58.5 -14.5q14 0 22 8.5t15 28.5l56 -14q-7 -47 -30.5 -78.5t-60.5 -31.5q-20 0 -60.5 14.5t-55.5 14.5t-22.5 -7.5t-12.5 -29.5z" />
    <glyph glyph-name="hungarumlaut" unicode="&#x2dd;" horiz-adv-x="390" 
d="M45 586l51 142h99l-67 -142h-83zM189 586l54 142h98l-71 -142h-81z" />
    <glyph glyph-name="pi" unicode="&#x3c0;" horiz-adv-x="425" 
d="M389 -4q-28 0 -50 4.5t-44.5 18t-35 42.5t-12.5 73v293h-77q-5 -257 -19 -427h-111q20 207 24 427h-48l10 105h374v-105h-44v-278q0 -46 33 -46v-107z" />
    <glyph glyph-name="Wgrave" unicode="&#x1e80;" horiz-adv-x="642" 
d="M128 -4l-113 717h125l59 -450h2l68 450h121l65 -448h2l58 448h112l-111 -717h-118l-72 477h-4l-74 -477h-120zM284 762l-100 147h119l67 -147h-86z" />
    <glyph glyph-name="wgrave" unicode="&#x1e81;" horiz-adv-x="562" 
d="M119 -1l-102 533h122l43 -307h4l50 307h109l49 -307h3l46 307h108l-103 -533h-103l-58 331h-3l-59 -331h-106zM271 586l-100 147h119l67 -147h-86z" />
    <glyph glyph-name="Wacute" unicode="&#x1e82;" horiz-adv-x="642" 
d="M293 762l67 147h119l-100 -147h-86zM128 -4l-113 717h125l59 -450h2l68 450h121l65 -448h2l58 448h112l-111 -717h-118l-72 477h-4l-74 -477h-120z" />
    <glyph glyph-name="wacute" unicode="&#x1e83;" horiz-adv-x="562" 
d="M246 586l67 147h119l-100 -147h-86zM119 -1l-102 533h122l43 -307h4l50 307h109l49 -307h3l46 307h108l-103 -533h-103l-58 331h-3l-59 -331h-106z" />
    <glyph glyph-name="Wdieresis" unicode="&#x1e84;" horiz-adv-x="642" 
d="M204 767v137h93v-137h-93zM352 767v137h93v-137h-93zM128 -4l-113 717h125l59 -450h2l68 450h121l65 -448h2l58 448h112l-111 -717h-118l-72 477h-4l-74 -477h-120z" />
    <glyph glyph-name="wdieresis" unicode="&#x1e85;" horiz-adv-x="562" 
d="M160 591v137h93v-137h-93zM308 591v137h93v-137h-93zM119 -1l-102 533h122l43 -307h4l50 307h109l49 -307h3l46 307h108l-103 -533h-103l-58 331h-3l-59 -331h-106z" />
    <glyph glyph-name="Ygrave" unicode="&#x1ef2;" horiz-adv-x="435" 
d="M155 0v286l-147 427h134l84 -277l81 277h120l-146 -427v-286h-126zM184 762l-100 147h119l67 -147h-86z" />
    <glyph glyph-name="ygrave" unicode="&#x1ef3;" horiz-adv-x="376" 
d="M103 -171q-36 0 -68 8l12 93q32 -6 42 -6q32 0 42 33l11 48l-133 527h122l68 -335h3l58 335h107l-128 -566q-34 -137 -136 -137zM158 586l-100 147h119l67 -147h-86z" />
    <glyph glyph-name="endash" unicode="&#x2013;" horiz-adv-x="367" 
d="M0 266v78h367v-78h-367z" />
    <glyph glyph-name="emdash" unicode="&#x2014;" horiz-adv-x="630" 
d="M0 266v78h630v-78h-630z" />
    <glyph glyph-name="quoteleft" unicode="&#x2018;" horiz-adv-x="188" 
d="M38 454v132l43 128h57l-27 -122h38v-138h-111z" />
    <glyph glyph-name="quoteright" unicode="&#x2019;" horiz-adv-x="188" 
d="M51 453l25 122h-37v138h111v-131l-43 -129h-56z" />
    <glyph glyph-name="quotesinglbase" unicode="&#x201a;" horiz-adv-x="188" 
d="M53 -101l22 108l-37 14l5 125l107 -13l-2 -133l-44 -115z" />
    <glyph glyph-name="quotedblleft" unicode="&#x201c;" horiz-adv-x="352" 
d="M38 454v132l43 128h57l-27 -122h38v-138h-111zM202 454v132l43 128h57l-26 -122h38v-138h-112z" />
    <glyph glyph-name="quotedblright" unicode="&#x201d;" horiz-adv-x="352" 
d="M51 453l25 122h-38v138h112v-131l-43 -129h-56zM215 453l26 122h-38v138h112v-131l-44 -129h-56z" />
    <glyph glyph-name="quotedblbase" unicode="&#x201e;" horiz-adv-x="352" 
d="M51 -115l25 122h-38v139h112v-132l-43 -129h-56zM215 -115l26 122h-38v139h112v-132l-44 -129h-56z" />
    <glyph glyph-name="dagger" unicode="&#x2020;" horiz-adv-x="391" 
d="M148 -117v574h-115v89h115v167h96v-167h114v-89h-114v-574h-96z" />
    <glyph glyph-name="daggerdbl" unicode="&#x2021;" horiz-adv-x="391" 
d="M148 -117v177h-115v90h115v307h-115v89h115v167h96v-167h114v-89h-114v-307h114v-90h-114v-177h-96z" />
    <glyph glyph-name="bullet" unicode="&#x2022;" horiz-adv-x="376" 
d="M189 220q-56 0 -95.5 39.5t-39.5 95.5t39.5 95.5t95.5 39.5q55 0 94 -39.5t39 -95.5t-39 -95.5t-94 -39.5z" />
    <glyph glyph-name="ellipsis" unicode="&#x2026;" horiz-adv-x="545" 
d="M39 0v146h111v-146h-111zM217 0v146h112v-146h-112zM395 0v146h112v-146h-112z" />
    <glyph glyph-name="perthousand" unicode="&#x2030;" horiz-adv-x="876" 
d="M729 -11q-49 0 -81.5 28.5t-32.5 77.5v152q0 52 32 83.5t82 31.5t82 -29.5t32 -80.5v-156q0 -47 -33.5 -77t-80.5 -30zM729 56q18 0 26.5 11t8.5 26v166q0 14 -9 25t-26 11t-26 -11t-9 -25v-166q0 -37 35 -37zM147 352q-49 0 -81.5 28.5t-32.5 77.5v156q0 52 31.5 81.5
t81.5 29.5t82.5 -29t32.5 -81v-157q0 -48 -33 -77t-81 -29zM147 419q35 0 35 37v165q0 15 -9 26t-27 11q-17 0 -26 -11t-9 -26v-165q0 -37 36 -37zM134 -1l283 717h63l-282 -717h-64zM462 -11q-49 0 -81.5 28.5t-32.5 77.5v152q0 52 32 83.5t82 31.5t82.5 -29.5t32.5 -80.5
v-156q0 -47 -34 -77t-81 -30zM462 56q18 0 26.5 11t8.5 26v166q0 14 -9 25t-26 11t-25.5 -10.5t-8.5 -25.5v-166q0 -37 34 -37z" />
    <glyph glyph-name="guilsinglleft" unicode="&#x2039;" horiz-adv-x="227" 
d="M138 118l-116 156l115 157l62 -37l-58 -120l60 -121z" />
    <glyph glyph-name="guilsinglright" unicode="&#x203a;" horiz-adv-x="228" 
d="M87 118l-63 37l57 120l-59 120l64 36l116 -155z" />
    <glyph glyph-name="fraction" unicode="&#x2044;" horiz-adv-x="91" 
d="M-136 -1l303 717h60l-303 -717h-60z" />
    <glyph glyph-name="uni2070" unicode="&#x2070;" horiz-adv-x="278" 
d="M140 369q-50 0 -82 25t-32 74v215q0 48 33 73.5t81 25.5q47 0 80 -25t33 -74v-214q0 -48 -33 -74t-80 -26zM140 438q29 0 29 30v217q0 12 -8 20t-22 8t-22 -8t-8 -20v-218q0 -12 8 -20.5t23 -8.5z" />
    <glyph glyph-name="uni2074" unicode="&#x2074;" horiz-adv-x="274" 
d="M147 380v88h-132v62l111 249h87l-117 -244h51v57l81 60v-117h32v-67h-32v-88h-81z" />
    <glyph glyph-name="uni2075" unicode="&#x2075;" horiz-adv-x="278" 
d="M136 369q-51 0 -81 24.5t-30 67.5v37h83v-29q0 -32 29 -32q30 0 30 37v63q0 35 -30 35q-19 0 -30 -20l-77 7l8 217h197v-74h-125q0 -4 -2 -46t-2 -47q24 21 60 21q37 0 62 -20.5t25 -64.5v-73q0 -49 -34 -76t-83 -27z" />
    <glyph glyph-name="uni2076" unicode="&#x2076;" horiz-adv-x="278" 
d="M138 369q-50 0 -82 26.5t-32 72.5v211q0 49 33.5 76t83.5 27q49 0 79 -25.5t30 -67.5v-30h-81v25q0 29 -30 29q-28 0 -28 -30v-85q23 25 62 25q38 0 59.5 -21.5t21.5 -56.5v-78q0 -45 -33 -71.5t-83 -26.5zM140 437q28 0 28 29v76q0 27 -27 27q-12 0 -21 -9t-9 -23v-72
q0 -12 7.5 -20t21.5 -8z" />
    <glyph glyph-name="uni2077" unicode="&#x2077;" horiz-adv-x="270" 
d="M62 380q1 87 28.5 173t67.5 149h-136v74h227v-62q-44 -64 -70.5 -151.5t-26.5 -182.5h-90z" />
    <glyph glyph-name="uni2078" unicode="&#x2078;" horiz-adv-x="279" 
d="M139 369q-52 0 -83 23.5t-31 71.5v48q0 44 37 67q-32 18 -32 61v47q0 44 31 69.5t78 25.5q48 0 79 -24.5t31 -69.5v-46q0 -42 -32 -63q37 -23 37 -64v-52q0 -44 -32 -69t-83 -25zM140 434q29 0 29 29v55q0 14 -8.5 22t-21.5 8q-12 0 -21 -7.5t-9 -19.5v-59q0 -28 31 -28z
M140 610q13 0 21 8t8 21v50q0 13 -8.5 20.5t-21.5 7.5q-12 0 -21 -7t-9 -19v-53q0 -28 31 -28z" />
    <glyph glyph-name="uni2079" unicode="&#x2079;" horiz-adv-x="278" 
d="M136 369q-49 0 -78.5 25.5t-29.5 68.5v28h81v-23q0 -30 30 -30q28 0 28 31v82q-25 -25 -63 -25t-59 21.5t-21 56.5v80q0 45 32.5 71.5t82.5 26.5t82.5 -26.5t32.5 -71.5v-210q0 -51 -33.5 -78t-84.5 -27zM137 582q12 0 20.5 9t9.5 23v72q0 12 -8 20.5t-22 8.5
q-28 0 -28 -29v-76q0 -28 28 -28z" />
    <glyph glyph-name="uni207D" unicode="&#x207d;" horiz-adv-x="166" 
d="M112 309q-33 47 -53 116.5t-20 137.5q0 145 73 247l42 -1q-26 -72 -36 -123.5t-10 -122.5q0 -131 46 -252z" />
    <glyph glyph-name="uni207E" unicode="&#x207e;" horiz-adv-x="166" 
d="M66 309l-43 2q47 124 47 252q0 72 -10.5 123t-36.5 123l43 1q34 -48 53 -114t19 -133q0 -68 -20 -137t-52 -117z" />
    <glyph glyph-name="uni2080" unicode="&#x2080;" horiz-adv-x="278" 
d="M140 -144q-50 0 -82 25t-32 74v215q0 48 33 73.5t81 25.5q47 0 80 -25t33 -74v-214q0 -48 -33 -74t-80 -26zM140 -75q29 0 29 30v217q0 12 -8 20t-22 8t-22 -8t-8 -20v-218q0 -12 8 -20.5t23 -8.5z" />
    <glyph glyph-name="uni2081" unicode="&#x2081;" horiz-adv-x="212" 
d="M72 -133v319l-36 -9l-11 62l81 28h48v-400h-82z" />
    <glyph glyph-name="uni2082" unicode="&#x2082;" horiz-adv-x="274" 
d="M34 -133v54l83 115q47 73 47 117v5q0 38 -27 38q-29 0 -29 -37v-23h-80v27q0 49 29.5 77t80.5 28q53 0 82 -29.5t29 -81.5q0 -30 -12.5 -63t-24.5 -52t-37 -54l-34 -50h109v-71h-216z" />
    <glyph glyph-name="uni2083" unicode="&#x2083;" horiz-adv-x="279" 
d="M138 -144q-56 0 -84.5 28.5t-28.5 77.5v23h81v-25q0 -35 31 -35q29 0 29 53q0 28 -11 40.5t-25 12.5h-32v65h29q37 0 37 53q0 47 -29 47q-28 0 -28 -37v-19h-80v22q0 49 29 77.5t82 28.5q51 0 80 -28.5t29 -79.5q0 -73 -51 -93v-2q28 -9 43 -34.5t15 -57.5q0 -61 -32 -89
t-84 -28z" />
    <glyph glyph-name="uni2084" unicode="&#x2084;" horiz-adv-x="274" 
d="M147 -133v88h-132v62l111 249h87l-117 -244h51v57l81 60v-117h32v-67h-32v-88h-81z" />
    <glyph glyph-name="uni2085" unicode="&#x2085;" horiz-adv-x="278" 
d="M136 -144q-51 0 -81 24.5t-30 67.5v37h83v-29q0 -32 29 -32q30 0 30 37v63q0 35 -30 35q-19 0 -30 -20l-77 7l8 217h197v-74h-125q0 -4 -2 -46t-2 -47q24 21 60 21q37 0 62 -20.5t25 -64.5v-73q0 -49 -34 -76t-83 -27z" />
    <glyph glyph-name="uni2086" unicode="&#x2086;" horiz-adv-x="278" 
d="M138 -144q-50 0 -82 26.5t-32 72.5v211q0 49 33.5 76t83.5 27q49 0 79 -25.5t30 -67.5v-30h-81v25q0 29 -30 29q-28 0 -28 -30v-85q23 25 62 25q38 0 59.5 -21.5t21.5 -56.5v-78q0 -45 -33 -71.5t-83 -26.5zM140 -76q28 0 28 29v76q0 27 -27 27q-12 0 -21 -9t-9 -23v-72
q0 -12 7.5 -20t21.5 -8z" />
    <glyph glyph-name="uni2087" unicode="&#x2087;" horiz-adv-x="270" 
d="M62 -133q1 87 28.5 173t67.5 149h-136v74h227v-62q-44 -64 -70.5 -151.5t-26.5 -182.5h-90z" />
    <glyph glyph-name="uni2088" unicode="&#x2088;" horiz-adv-x="279" 
d="M139 -144q-52 0 -83 23.5t-31 71.5v48q0 44 37 67q-32 18 -32 61v47q0 44 31 69.5t78 25.5q48 0 79 -24.5t31 -69.5v-46q0 -42 -32 -63q37 -23 37 -64v-52q0 -44 -32 -69t-83 -25zM140 -79q29 0 29 29v55q0 14 -8.5 22t-21.5 8q-12 0 -21 -7.5t-9 -19.5v-59q0 -28 31 -28
zM140 97q13 0 21 8t8 21v50q0 13 -8.5 20.5t-21.5 7.5q-12 0 -21 -7t-9 -19v-53q0 -28 31 -28z" />
    <glyph glyph-name="uni2089" unicode="&#x2089;" horiz-adv-x="278" 
d="M136 -144q-49 0 -78.5 25.5t-29.5 68.5v28h81v-23q0 -30 30 -30q28 0 28 31v82q-25 -25 -63 -25t-59 21.5t-21 56.5v80q0 45 32.5 71.5t82.5 26.5t82.5 -26.5t32.5 -71.5v-210q0 -51 -33.5 -78t-84.5 -27zM137 69q12 0 20.5 9t9.5 23v72q0 12 -8 20.5t-22 8.5
q-28 0 -28 -29v-76q0 -28 28 -28z" />
    <glyph glyph-name="uni208D" unicode="&#x208d;" horiz-adv-x="166" 
d="M112 -204q-33 47 -53 116.5t-20 137.5q0 145 73 247l42 -1q-26 -72 -36 -123.5t-10 -122.5q0 -131 46 -252z" />
    <glyph glyph-name="uni208E" unicode="&#x208e;" horiz-adv-x="166" 
d="M66 -204l-43 2q47 124 47 252q0 72 -10.5 123t-36.5 123l43 1q34 -48 53 -114t19 -133q0 -68 -20 -137t-52 -117z" />
    <glyph glyph-name="uni20AA" unicode="&#x20aa;" horiz-adv-x="420" 
d="M26 0v705h138q64 0 92 -29t28 -119v-435h-66v441q0 49 -29 49h-89v-612h-74zM126 0v583h65v-489h89q30 0 30 48v563h84v-542q0 -91 -29 -127t-91 -36h-148z" />
    <glyph glyph-name="Euro" unicode="&#x20ac;" horiz-adv-x="480" 
d="M269 -11q-86 0 -139 45.5t-53 127.5v92h-50v72h50v65h-50v70h50v89q0 78 55 126.5t138 48.5q81 0 131.5 -44t50.5 -120v-58h-114v51q0 31 -18.5 49t-50.5 18q-31 0 -47.5 -19.5t-16.5 -49.5v-91h131v-70h-131v-65h131v-72h-131v-88q0 -33 18 -52.5t50 -19.5q31 0 48 18.5
t17 49.5v45h114v-48q0 -79 -50.5 -124.5t-132.5 -45.5z" />
    <glyph glyph-name="trademark" unicode="&#x2122;" horiz-adv-x="510" 
d="M238 407v309h82l36 -130l34 130h80v-309h-59v201l-33 -120h-47l-34 120v-201h-59zM86 407v253h-61v56h187v-56h-61v-253h-65z" />
    <glyph glyph-name="Omega" unicode="&#x2126;" horiz-adv-x="474" 
d="M38 0v111l111 -4v8q-114 87 -115 257v136q0 105 53 160.5t149 55.5q99 0 151 -56t52 -156v-140q1 -97 -34 -162.5t-80 -94.5v-8l111 4v-111h-180v108q27 45 40.5 98t13.5 151v169q0 39 -19.5 62.5t-54.5 23.5q-73 0 -73 -93v-160q0 -98 12.5 -150.5t42.5 -100.5v-108
h-180z" />
    <glyph glyph-name="uni2153" unicode="&#x2153;" horiz-adv-x="632" 
d="M99 316v319l-36 -9l-11 62l81 28h48v-400h-82zM110 -1l303 717h60l-303 -717h-60zM471 -11q-56 0 -84.5 28.5t-28.5 77.5v23h81v-25q0 -35 31 -35q29 0 29 53q0 28 -11 40.5t-25 12.5h-32v65h29q37 0 37 53q0 47 -29 47q-28 0 -28 -37v-19h-80v22q0 49 29 77.5t82 28.5
q51 0 80 -28.5t29 -79.5q0 -73 -51 -93v-2q28 -9 43 -34.5t15 -57.5q0 -61 -32 -89t-84 -28z" />
    <glyph glyph-name="uni2154" unicode="&#x2154;" horiz-adv-x="632" 
d="M20 316v54l83 115q47 73 47 117v5q0 38 -27 38q-29 0 -29 -37v-23h-80v27q0 49 29.5 77t80.5 28q53 0 82 -29.5t29 -81.5q0 -30 -12.5 -63t-24.5 -52t-37 -54l-34 -50h109v-71h-216zM134 -1l303 717h60l-303 -717h-60zM482 -11q-56 0 -84.5 28.5t-28.5 77.5v23h81v-25
q0 -35 31 -35q29 0 29 53q0 28 -11 40.5t-25 12.5h-32v65h29q37 0 37 53q0 47 -29 47q-28 0 -28 -37v-19h-80v22q0 49 29 77.5t82 28.5q51 0 80 -28.5t29 -79.5q0 -73 -51 -93v-2q28 -9 43 -34.5t15 -57.5q0 -61 -32 -89t-84 -28z" />
    <glyph glyph-name="uni2155" unicode="&#x2155;" horiz-adv-x="632" 
d="M96 316v319l-36 -9l-11 62l81 28h48v-400h-82zM477 -11q-51 0 -81 24.5t-30 67.5v37h83v-29q0 -32 29 -32q30 0 30 37v63q0 35 -30 35q-19 0 -30 -20l-77 7l8 217h197v-74h-125q0 -4 -2 -46t-2 -47q24 21 60 21q37 0 62 -20.5t25 -64.5v-73q0 -49 -34 -76t-83 -27z
M114 -1l303 717h60l-303 -717h-60z" />
    <glyph glyph-name="uni2156" unicode="&#x2156;" horiz-adv-x="632" 
d="M20 316v54l83 115q47 73 47 117v5q0 38 -27 38q-29 0 -29 -37v-23h-80v27q0 49 29.5 77t80.5 28q53 0 82 -29.5t29 -81.5q0 -30 -12.5 -63t-24.5 -52t-37 -54l-34 -50h109v-71h-216zM484 -11q-51 0 -81 24.5t-30 67.5v37h83v-29q0 -32 29 -32q30 0 30 37v63q0 35 -30 35
q-19 0 -30 -20l-77 7l8 217h197v-74h-125q0 -4 -2 -46t-2 -47q24 21 60 21q37 0 62 -20.5t25 -64.5v-73q0 -49 -34 -76t-83 -27zM129 -1l303 717h60l-303 -717h-60z" />
    <glyph glyph-name="uni2157" unicode="&#x2157;" horiz-adv-x="632" 
d="M128 305q-56 0 -84.5 28.5t-28.5 77.5v23h81v-25q0 -35 31 -35q29 0 29 53q0 28 -11 40.5t-25 12.5h-32v65h29q37 0 37 53q0 47 -29 47q-28 0 -28 -37v-19h-80v22q0 49 29 77.5t82 28.5q51 0 80 -28.5t29 -79.5q0 -73 -51 -93v-2q28 -9 43 -34.5t15 -57.5q0 -61 -32 -89
t-84 -28zM127 -1l303 717h60l-303 -717h-60zM484 -11q-51 0 -81 24.5t-30 67.5v37h83v-29q0 -32 29 -32q30 0 30 37v63q0 35 -30 35q-19 0 -30 -20l-77 7l8 217h197v-74h-125q0 -4 -2 -46t-2 -47q24 21 60 21q37 0 62 -20.5t25 -64.5v-73q0 -49 -34 -76t-83 -27z" />
    <glyph glyph-name="uni2158" unicode="&#x2158;" horiz-adv-x="632" 
d="M136 316v88h-132v62l111 249h87l-117 -244h51v57l81 60v-117h32v-67h-32v-88h-81zM484 -11q-51 0 -81 24.5t-30 67.5v37h83v-29q0 -32 29 -32q30 0 30 37v63q0 35 -30 35q-19 0 -30 -20l-77 7l8 217h197v-74h-125q0 -4 -2 -46t-2 -47q24 21 60 21q37 0 62 -20.5t25 -64.5
v-73q0 -49 -34 -76t-83 -27zM127 -1l303 717h60l-303 -717h-60z" />
    <glyph glyph-name="uni2159" unicode="&#x2159;" horiz-adv-x="632" 
d="M105 316v319l-36 -9l-11 62l81 28h48v-400h-82zM474 -11q-50 0 -82 26.5t-32 72.5v211q0 49 33.5 76t83.5 27q49 0 79 -25.5t30 -67.5v-30h-81v25q0 29 -30 29q-28 0 -28 -30v-85q23 25 62 25q38 0 59.5 -21.5t21.5 -56.5v-78q0 -45 -33 -71.5t-83 -26.5zM476 57
q28 0 28 29v76q0 27 -27 27q-12 0 -21 -9t-9 -23v-72q0 -12 7.5 -20t21.5 -8zM115 -1l303 717h60l-303 -717h-60z" />
    <glyph glyph-name="uni215A" unicode="&#x215a;" horiz-adv-x="632" 
d="M477 -11q-50 0 -82 26.5t-32 72.5v211q0 49 33.5 76t83.5 27q49 0 79 -25.5t30 -67.5v-30h-81v25q0 29 -30 29q-28 0 -28 -30v-85q23 25 62 25q38 0 59.5 -21.5t21.5 -56.5v-78q0 -45 -33 -71.5t-83 -26.5zM479 57q28 0 28 29v76q0 27 -27 27q-12 0 -21 -9t-9 -23v-72
q0 -12 7.5 -20t21.5 -8zM136 305q-51 0 -81 24.5t-30 67.5v37h83v-29q0 -32 29 -32q30 0 30 37v63q0 35 -30 35q-19 0 -30 -20l-77 7l8 217h197v-74h-125q0 -4 -2 -46t-2 -47q24 21 60 21q37 0 62 -20.5t25 -64.5v-73q0 -49 -34 -76t-83 -27zM127 -1l303 717h60l-303 -717
h-60z" />
    <glyph glyph-name="uni215B" unicode="&#x215b;" horiz-adv-x="632" 
d="M105 316v319l-36 -9l-11 62l81 28h48v-400h-82zM475 -11q-52 0 -83 23.5t-31 71.5v48q0 44 37 67q-32 18 -32 61v47q0 44 31 69.5t78 25.5q48 0 79 -24.5t31 -69.5v-46q0 -42 -32 -63q37 -23 37 -64v-52q0 -44 -32 -69t-83 -25zM476 54q29 0 29 29v55q0 14 -8.5 22
t-21.5 8q-12 0 -21 -7.5t-9 -19.5v-59q0 -28 31 -28zM476 230q13 0 21 8t8 21v50q0 13 -8.5 20.5t-21.5 7.5q-12 0 -21 -7t-9 -19v-53q0 -28 31 -28zM117 -1l303 717h60l-303 -717h-60z" />
    <glyph glyph-name="uni215C" unicode="&#x215c;" horiz-adv-x="632" 
d="M480 -11q-52 0 -83 23.5t-31 71.5v48q0 44 37 67q-32 18 -32 61v47q0 44 31 69.5t78 25.5q48 0 79 -24.5t31 -69.5v-46q0 -42 -32 -63q37 -23 37 -64v-52q0 -44 -32 -69t-83 -25zM481 54q29 0 29 29v55q0 14 -8.5 22t-21.5 8q-12 0 -21 -7.5t-9 -19.5v-59q0 -28 31 -28z
M481 230q13 0 21 8t8 21v50q0 13 -8.5 20.5t-21.5 7.5q-12 0 -21 -7t-9 -19v-53q0 -28 31 -28zM138 305q-56 0 -84.5 28.5t-28.5 77.5v23h81v-25q0 -35 31 -35q29 0 29 53q0 28 -11 40.5t-25 12.5h-32v65h29q37 0 37 53q0 47 -29 47q-28 0 -28 -37v-19h-80v22q0 49 29 77.5
t82 28.5q51 0 80 -28.5t29 -79.5q0 -73 -51 -93v-2q28 -9 43 -34.5t15 -57.5q0 -61 -32 -89t-84 -28zM130 -1l303 717h60l-303 -717h-60z" />
    <glyph glyph-name="uni215D" unicode="&#x215d;" horiz-adv-x="632" 
d="M477 -11q-52 0 -83 23.5t-31 71.5v48q0 44 37 67q-32 18 -32 61v47q0 44 31 69.5t78 25.5q48 0 79 -24.5t31 -69.5v-46q0 -42 -32 -63q37 -23 37 -64v-52q0 -44 -32 -69t-83 -25zM478 54q29 0 29 29v55q0 14 -8.5 22t-21.5 8q-12 0 -21 -7.5t-9 -19.5v-59q0 -28 31 -28z
M478 230q13 0 21 8t8 21v50q0 13 -8.5 20.5t-21.5 7.5q-12 0 -21 -7t-9 -19v-53q0 -28 31 -28zM136 305q-51 0 -81 24.5t-30 67.5v37h83v-29q0 -32 29 -32q30 0 30 37v63q0 35 -30 35q-19 0 -30 -20l-77 7l8 217h197v-74h-125q0 -4 -2 -46t-2 -47q24 21 60 21q37 0 62 -20.5
t25 -64.5v-73q0 -49 -34 -76t-83 -27zM127 -1l303 717h60l-303 -717h-60z" />
    <glyph glyph-name="uni215E" unicode="&#x215e;" horiz-adv-x="632" 
d="M477 -11q-52 0 -83 23.5t-31 71.5v48q0 44 37 67q-32 18 -32 61v47q0 44 31 69.5t78 25.5q48 0 79 -24.5t31 -69.5v-46q0 -42 -32 -63q37 -23 37 -64v-52q0 -44 -32 -69t-83 -25zM478 54q29 0 29 29v55q0 14 -8.5 22t-21.5 8q-12 0 -21 -7.5t-9 -19.5v-59q0 -28 31 -28z
M478 230q13 0 21 8t8 21v50q0 13 -8.5 20.5t-21.5 7.5q-12 0 -21 -7t-9 -19v-53q0 -28 31 -28zM79 316q1 87 28.5 173t67.5 149h-136v74h227v-62q-44 -64 -70.5 -151.5t-26.5 -182.5h-90zM115 -1l303 717h60l-303 -717h-60z" />
    <glyph glyph-name="arrowleft" unicode="&#x2190;" horiz-adv-x="441" 
d="M192 180l-159 169v8l159 168l53 -52l-85 -81h236v-79h-236l83 -85z" />
    <glyph glyph-name="arrowup" unicode="&#x2191;" horiz-adv-x="441" 
d="M180 170v237l-81 -85l-52 53l168 159h8l169 -159l-48 -52l-85 84v-237h-79z" />
    <glyph glyph-name="arrowright" unicode="&#x2192;" horiz-adv-x="441" 
d="M242 180l-52 48l84 85h-237v79h237l-85 81l53 52l159 -168v-8z" />
    <glyph glyph-name="arrowdown" unicode="&#x2193;" horiz-adv-x="441" 
d="M215 170l-168 160l50 52l83 -84v236h79v-236l83 84l50 -52l-168 -160h-9z" />
    <glyph glyph-name="uni2196" unicode="&#x2196;" horiz-adv-x="441" 
d="M320 196l-167 167l3 -117h-75l6 232l6 5l232 7l2 -70l-118 -1l167 -168z" />
    <glyph glyph-name="uni2197" unicode="&#x2197;" horiz-adv-x="441" 
d="M137 196l-56 55l168 168l-119 1l2 70l232 -7l6 -5l6 -232h-74l3 117z" />
    <glyph glyph-name="uni2198" unicode="&#x2198;" horiz-adv-x="441" 
d="M132 196l-2 70l119 1l-168 167l56 56l168 -167q0 5 -1.5 59t-1.5 58h74q0 -6 -3 -116t-3 -116l-6 -6z" />
    <glyph glyph-name="uni2199" unicode="&#x2199;" horiz-adv-x="441" 
d="M325 196l-232 6l-6 6l-6 232h75l-3 -117l167 167l56 -56l-167 -167l118 -1z" />
    <glyph glyph-name="partialdiff" unicode="&#x2202;" horiz-adv-x="405" 
d="M204 -10q-75 0 -121 39t-46 117v230q0 61 32.5 99t85.5 51q9 3 26 1l-110 182l127 11l147 -248q27 -46 27 -101v-224q0 -78 -46.5 -117.5t-121.5 -39.5zM205 84q49 0 49 56v241q0 56 -49 56q-24 0 -37 -16t-13 -40v-243q0 -23 12.5 -38.5t37.5 -15.5z" />
    <glyph glyph-name="Delta" unicode="&#x2206;" horiz-adv-x="495" 
d="M25 0v77l143 637h163l145 -636v-78h-451zM153 110h187l-93 465h-3z" />
    <glyph glyph-name="product" unicode="&#x220f;" horiz-adv-x="521" 
d="M87 -133v732h-61v114h468v-114h-58v-732h-118v732h-112v-732h-119z" />
    <glyph glyph-name="summation" unicode="&#x2211;" horiz-adv-x="409" 
d="M34 -133v97l169 338l-172 317v94h345v-112h-189l151 -279v-35l-156 -308h194v-112h-342z" />
    <glyph glyph-name="minus" unicode="&#x2212;" horiz-adv-x="429" 
d="M47 277v82h336v-82h-336z" />
    <glyph glyph-name="radical" unicode="&#x221a;" horiz-adv-x="437" 
d="M135 -3l-121 535h124l58 -336h2l115 518h115l-179 -717h-114z" />
    <glyph glyph-name="infinity" unicode="&#x221e;" horiz-adv-x="628" 
d="M455 185q-79 0 -145 79q-70 -76 -142 -76q-63 0 -101.5 38.5t-38.5 96.5q0 60 41 100t101 40q80 0 147 -79q73 73 144 73q62 0 100.5 -34t38.5 -94q0 -63 -40.5 -103.5t-104.5 -40.5zM166 255q47 0 108 70q-49 73 -101 73q-29 0 -49 -20t-20 -47q0 -32 17 -54t45 -22z
M453 252q30 0 50.5 21t20.5 51q0 31 -16 50t-48 19q-38 0 -105 -71q51 -70 98 -70z" />
    <glyph glyph-name="integral" unicode="&#x222b;" horiz-adv-x="324" 
d="M64 -170q-32 0 -64 9l7 90q12 -3 32 -3q30 0 33 41l45 638q4 54 37 88.5t87 34.5q40 0 69 -8l-8 -90q-24 3 -39 3q-34 0 -37 -37l-45 -640q-4 -59 -34 -92.5t-83 -33.5z" />
    <glyph glyph-name="approxequal" unicode="&#x2248;" horiz-adv-x="409" 
d="M89 168l-55 10q15 115 88 115q22 0 83.5 -13.5t81.5 -13.5q14 0 21 9t14 30l53 -11q-14 -116 -85 -116q-21 0 -85 15t-80 15q-15 0 -23 -9t-13 -31zM89 347l-55 10q15 115 88 115q22 0 83.5 -13.5t81.5 -13.5q14 0 21 9t14 29l53 -11q-14 -115 -85 -115q-21 0 -85 14.5
t-80 14.5q-15 0 -22.5 -9t-13.5 -30z" />
    <glyph glyph-name="notequal" unicode="&#x2260;" horiz-adv-x="429" 
d="M180 99l-63 19l25 74h-99v82h129l28 78h-157v82h187l30 82l64 -20l-22 -62h84v-82h-114q-1 -3 -14 -39t-15 -39h143v-82h-172q-1 -3 -17 -46.5t-17 -46.5z" />
    <glyph glyph-name="lessequal" unicode="&#x2264;" horiz-adv-x="429" 
d="M344 183l-295 138v63l298 137l36 -73l-224 -96q7 -4 111 -49t111 -48zM43 47v82h342v-82h-342z" />
    <glyph glyph-name="greaterequal" unicode="&#x2265;" horiz-adv-x="429" 
d="M85 183l-37 72l222 97q-9 5 -109.5 47.5t-114.5 48.5l37 73l298 -137v-63zM45 47v82h341v-82h-341z" />
    <glyph glyph-name="blacksquare" unicode="&#x25a0;" horiz-adv-x="539" 
d="M42 0v714h454l1 -714h-455z" />
    <glyph glyph-name="whitesquare" unicode="&#x25a1;" horiz-adv-x="536" 
d="M43 0v713h450v-713h-450zM112 68h312v578h-312v-578z" />
    <glyph glyph-name="blacksmallsquare" unicode="&#x25aa;" horiz-adv-x="474" 
d="M45 0v549h384v-549h-384z" />
    <glyph glyph-name="triagup" unicode="&#x25b2;" horiz-adv-x="414" 
d="M39 198v8l161 313h6l169 -313v-8h-336z" />
    <glyph glyph-name="triagrt" unicode="&#x25ba;" horiz-adv-x="414" 
d="M46 190v336h8l313 -169v-6l-313 -161h-8z" />
    <glyph glyph-name="triagdn" unicode="&#x25bc;" horiz-adv-x="414" 
d="M208 198l-169 314v7h336v-7l-160 -314h-7z" />
    <glyph glyph-name="triaglf" unicode="&#x25c4;" horiz-adv-x="414" 
d="M360 190l-314 161v6l314 169h7v-336h-7z" />
    <glyph glyph-name="lozenge" unicode="&#x25ca;" horiz-adv-x="422" 
d="M178 -3l-148 340v16l148 360h66l148 -360v-16l-148 -340h-66zM214 127l87 214l-93 232l-86 -223z" />
    <glyph glyph-name="uni25E2" unicode="&#x25e2;" horiz-adv-x="414" 
d="M377 179l-337 107l-4 5l237 238l6 -6l103 -338z" />
    <glyph glyph-name="uni25E3" unicode="&#x25e3;" horiz-adv-x="414" 
d="M41 179l-5 6l104 338l5 6l237 -238l-4 -5z" />
    <glyph glyph-name="uni25E4" unicode="&#x25e4;" horiz-adv-x="414" 
d="M145 179l-5 6l-104 338l5 6l337 -107l4 -5z" />
    <glyph glyph-name="uni25E5" unicode="&#x25e5;" horiz-adv-x="414" 
d="M273 179l-237 238l4 5l337 107l5 -6l-103 -338z" />
    <glyph glyph-name="I.alt" unicode="&#xe131;" horiz-adv-x="380" 
d="M253 107h92v-107h-311v107h93v499h-92v107h311v-107h-93v-499z" />
    <glyph glyph-name="I.alt" unicode="&#xe488;" horiz-adv-x="380" 
d="M253 107h92v-107h-311v107h93v499h-92v107h311v-107h-93v-499z" />
    <glyph glyph-name="Igrave.alt" unicode="&#xe132;" horiz-adv-x="380" 
d="M345 107v-107h-311v107h93v499h-92v107h311v-107h-93v-499h92zM146 762l-100 147h119l67 -147h-86z" />
    <glyph glyph-name="Iacute.alt" unicode="&#xe133;" horiz-adv-x="380" 
d="M35 0v107h92v499h-93v107h311v-107h-92v-499h93v-107h-311zM144 762l67 147h119l-100 -147h-86z" />
    <glyph glyph-name="Icircumflex.alt" unicode="&#xe134;" horiz-adv-x="380" 
d="M346 0h-311v107h92v499h-93v107h311v-107h-92v-499h93v-107zM60 762l88 151h86l87 -151h-92l-40 78l-40 -78h-89z" />
    <glyph glyph-name="Idieresis.alt" unicode="&#xe135;" horiz-adv-x="380" 
d="M35 0v107h92v499h-93v107h311v-107h-92v-499h93v-107h-311zM70 767v137h93v-137h-93zM218 767v137h93v-137h-93z" />
    <glyph glyph-name="Itilde.alt" unicode="&#xe136;" horiz-adv-x="380" 
d="M345 606h-92v-499h93v-107h-311v107h92v499h-93v107h311v-107zM100 765l-61 14q8 49 31 79.5t60 30.5q21 0 60.5 -14.5t58.5 -14.5q14 0 22 8.5t15 28.5l56 -14q-7 -47 -30.5 -78.5t-60.5 -31.5q-20 0 -60.5 14.5t-55.5 14.5t-22.5 -7.5t-12.5 -29.5z" />
    <glyph glyph-name="Imacron.alt" unicode="&#xe138;" horiz-adv-x="380" 
d="M34 713h311v-107h-92v-499h93v-107h-311v107h92v499h-93v107zM78 774v84h225v-84h-225z" />
    <glyph glyph-name="Ibreve.alt" unicode="&#xe139;" horiz-adv-x="380" 
d="M35 0v107h92v499h-93v107h311v-107h-92v-499h93v-107h-311zM193 762q-63 0 -99 37t-37 107h79q5 -38 17 -55.5t43 -17.5q50 0 52 73h77q-1 -72 -38 -108t-94 -36z" />
    <glyph glyph-name="Idotaccent.alt" unicode="&#xe13c;" horiz-adv-x="380" 
d="M345 606h-92v-499h93v-107h-311v107h92v499h-93v107h311v-107zM141 767v137h99v-137h-99z" />
    <glyph glyph-name="Iogonek.alt" unicode="&#xe13e;" horiz-adv-x="380" 
d="M35 0v107h92v499h-93v107h311v-107h-92v-499h93v-107h-12q-57 -28 -57 -81q0 -42 42 -42q19 0 43 13l28 -60q-38 -25 -90 -25q-41 0 -69.5 24t-28.5 69q0 57 49 102h-216z" />
    <glyph glyph-name="zero.dnom" unicode="&#xe402;" horiz-adv-x="278" 
d="M140 -11q-50 0 -82 25t-32 74v215q0 48 33 73.5t81 25.5q47 0 80 -25t33 -74v-214q0 -48 -33 -74t-80 -26zM140 58q29 0 29 30v217q0 12 -8 20t-22 8t-22 -8t-8 -20v-218q0 -12 8 -20.5t23 -8.5z" />
    <glyph glyph-name="one.dnom" unicode="&#xe403;" horiz-adv-x="212" 
d="M72 0v319l-36 -9l-11 62l81 28h48v-400h-82z" />
    <glyph glyph-name="two.dnom" unicode="&#xe404;" horiz-adv-x="274" 
d="M34 0v54l83 115q47 73 47 117v5q0 38 -27 38q-29 0 -29 -37v-23h-80v27q0 49 29.5 77t80.5 28q53 0 82 -29.5t29 -81.5q0 -30 -12.5 -63t-24.5 -52t-37 -54l-34 -50h109v-71h-216z" />
    <glyph glyph-name="three.dnom" unicode="&#xe405;" horiz-adv-x="279" 
d="M138 -11q-56 0 -84.5 28.5t-28.5 77.5v23h81v-25q0 -35 31 -35q29 0 29 53q0 28 -11 40.5t-25 12.5h-32v65h29q37 0 37 53q0 47 -29 47q-28 0 -28 -37v-19h-80v22q0 49 29 77.5t82 28.5q51 0 80 -28.5t29 -79.5q0 -73 -51 -93v-2q28 -9 43 -34.5t15 -57.5q0 -61 -32 -89
t-84 -28z" />
    <glyph glyph-name="four.dnom" unicode="&#xe406;" horiz-adv-x="274" 
d="M147 0v88h-132v62l111 249h87l-117 -244h51v57l81 60v-117h32v-67h-32v-88h-81z" />
    <glyph glyph-name="five.dnom" unicode="&#xe407;" horiz-adv-x="278" 
d="M136 -11q-51 0 -81 24.5t-30 67.5v37h83v-29q0 -32 29 -32q30 0 30 37v63q0 35 -30 35q-19 0 -30 -20l-77 7l8 217h197v-74h-125q0 -4 -2 -46t-2 -47q24 21 60 21q37 0 62 -20.5t25 -64.5v-73q0 -49 -34 -76t-83 -27z" />
    <glyph glyph-name="six.dnom" unicode="&#xe408;" horiz-adv-x="278" 
d="M138 -11q-50 0 -82 26.5t-32 72.5v211q0 49 33.5 76t83.5 27q49 0 79 -25.5t30 -67.5v-30h-81v25q0 29 -30 29q-28 0 -28 -30v-85q23 25 62 25q38 0 59.5 -21.5t21.5 -56.5v-78q0 -45 -33 -71.5t-83 -26.5zM140 57q28 0 28 29v76q0 27 -27 27q-12 0 -21 -9t-9 -23v-72
q0 -12 7.5 -20t21.5 -8z" />
    <glyph glyph-name="seven.dnom" unicode="&#xe409;" horiz-adv-x="270" 
d="M62 0q1 87 28.5 173t67.5 149h-136v74h227v-62q-44 -64 -70.5 -151.5t-26.5 -182.5h-90z" />
    <glyph glyph-name="eight.dnom" unicode="&#xe40a;" horiz-adv-x="279" 
d="M139 -11q-52 0 -83 23.5t-31 71.5v48q0 44 37 67q-32 18 -32 61v47q0 44 31 69.5t78 25.5q48 0 79 -24.5t31 -69.5v-46q0 -42 -32 -63q37 -23 37 -64v-52q0 -44 -32 -69t-83 -25zM140 54q29 0 29 29v55q0 14 -8.5 22t-21.5 8q-12 0 -21 -7.5t-9 -19.5v-59q0 -28 31 -28z
M140 230q13 0 21 8t8 21v50q0 13 -8.5 20.5t-21.5 7.5q-12 0 -21 -7t-9 -19v-53q0 -28 31 -28z" />
    <glyph glyph-name="nine.dnom" unicode="&#xe40b;" horiz-adv-x="278" 
d="M136 -11q-49 0 -78.5 25.5t-29.5 68.5v28h81v-23q0 -30 30 -30q28 0 28 31v82q-25 -25 -63 -25t-59 21.5t-21 56.5v80q0 45 32.5 71.5t82.5 26.5t82.5 -26.5t32.5 -71.5v-210q0 -51 -33.5 -78t-84.5 -27zM137 202q12 0 20.5 9t9.5 23v72q0 12 -8 20.5t-22 8.5
q-28 0 -28 -29v-76q0 -28 28 -28z" />
    <glyph glyph-name="comma.dnom" unicode="&#xe40d;" horiz-adv-x="160" 
d="M48 -83l22 86h-31v96h83v-92l-34 -90h-40z" />
    <glyph glyph-name="period.dnom" unicode="&#xe40e;" horiz-adv-x="160" 
d="M39 0v99h83v-99h-83z" />
    <glyph glyph-name="parenleft.dnom" unicode="&#xe40f;" horiz-adv-x="166" 
d="M112 -71q-33 47 -53 116.5t-20 137.5q0 145 73 247l42 -1q-26 -72 -36 -123.5t-10 -122.5q0 -131 46 -252z" />
    <glyph glyph-name="parenright.dnom" unicode="&#xe410;" horiz-adv-x="166" 
d="M66 -71l-43 2q47 124 47 252q0 72 -10.5 123t-36.5 123l43 1q34 -48 53 -114t19 -133q0 -68 -20 -137t-52 -117z" />
    <glyph glyph-name="caronSlovak" unicode="&#xe413;" horiz-adv-x="204" 
d="M44 533l6 180h94l-33 -180h-67z" />
    <glyph glyph-name="commaaccent" unicode="&#xe414;" horiz-adv-x="188" 
d="M38 -185l8 150h105l-32 -150h-81z" />
    <glyph glyph-name="commaaccent" unicode="&#xf6c3;" horiz-adv-x="188" 
d="M38 -185l8 150h105l-32 -150h-81z" />
    <glyph glyph-name="zero.numr" unicode="&#xe416;" horiz-adv-x="278" 
d="M140 307q-50 0 -82 25t-32 74v215q0 48 33 73.5t81 25.5q47 0 80 -25t33 -74v-214q0 -48 -33 -74t-80 -26zM140 376q29 0 29 30v217q0 12 -8 20t-22 8t-22 -8t-8 -20v-218q0 -12 8 -20.5t23 -8.5z" />
    <glyph glyph-name="one.numr" unicode="&#xe417;" horiz-adv-x="212" 
d="M72 318v319l-36 -9l-11 62l81 28h48v-400h-82z" />
    <glyph glyph-name="two.numr" unicode="&#xe418;" horiz-adv-x="274" 
d="M34 318v54l83 115q47 73 47 117v5q0 38 -27 38q-29 0 -29 -37v-23h-80v27q0 49 29.5 77t80.5 28q53 0 82 -29.5t29 -81.5q0 -30 -12.5 -63t-24.5 -52t-37 -54l-34 -50h109v-71h-216z" />
    <glyph glyph-name="three.numr" unicode="&#xe419;" horiz-adv-x="279" 
d="M138 307q-56 0 -84.5 28.5t-28.5 77.5v23h81v-25q0 -35 31 -35q29 0 29 53q0 28 -11 40.5t-25 12.5h-32v65h29q37 0 37 53q0 47 -29 47q-28 0 -28 -37v-19h-80v22q0 49 29 77.5t82 28.5q51 0 80 -28.5t29 -79.5q0 -73 -51 -93v-2q28 -9 43 -34.5t15 -57.5q0 -61 -32 -89
t-84 -28z" />
    <glyph glyph-name="four.numr" unicode="&#xe41a;" horiz-adv-x="274" 
d="M147 318v88h-132v62l111 249h87l-117 -244h51v57l81 60v-117h32v-67h-32v-88h-81z" />
    <glyph glyph-name="five.numr" unicode="&#xe41b;" horiz-adv-x="278" 
d="M136 307q-51 0 -81 24.5t-30 67.5v37h83v-29q0 -32 29 -32q30 0 30 37v63q0 35 -30 35q-19 0 -30 -20l-77 7l8 217h197v-74h-125q0 -4 -2 -46t-2 -47q24 21 60 21q37 0 62 -20.5t25 -64.5v-73q0 -49 -34 -76t-83 -27z" />
    <glyph glyph-name="six.numr" unicode="&#xe41c;" horiz-adv-x="278" 
d="M138 307q-50 0 -82 26.5t-32 72.5v211q0 49 33.5 76t83.5 27q49 0 79 -25.5t30 -67.5v-30h-81v25q0 29 -30 29q-28 0 -28 -30v-85q23 25 62 25q38 0 59.5 -21.5t21.5 -56.5v-78q0 -45 -33 -71.5t-83 -26.5zM140 375q28 0 28 29v76q0 27 -27 27q-12 0 -21 -9t-9 -23v-72
q0 -12 7.5 -20t21.5 -8z" />
    <glyph glyph-name="seven.numr" unicode="&#xe41d;" horiz-adv-x="270" 
d="M62 318q1 87 28.5 173t67.5 149h-136v74h227v-62q-44 -64 -70.5 -151.5t-26.5 -182.5h-90z" />
    <glyph glyph-name="eight.numr" unicode="&#xe41e;" horiz-adv-x="279" 
d="M139 307q-52 0 -83 23.5t-31 71.5v48q0 44 37 67q-32 18 -32 61v47q0 44 31 69.5t78 25.5q48 0 79 -24.5t31 -69.5v-46q0 -42 -32 -63q37 -23 37 -64v-52q0 -44 -32 -69t-83 -25zM140 372q29 0 29 29v55q0 14 -8.5 22t-21.5 8q-12 0 -21 -7.5t-9 -19.5v-59q0 -28 31 -28z
M140 548q13 0 21 8t8 21v50q0 13 -8.5 20.5t-21.5 7.5q-12 0 -21 -7t-9 -19v-53q0 -28 31 -28z" />
    <glyph glyph-name="nine.numr" unicode="&#xe41f;" horiz-adv-x="278" 
d="M136 307q-49 0 -78.5 25.5t-29.5 68.5v28h81v-23q0 -30 30 -30q28 0 28 31v82q-25 -25 -63 -25t-59 21.5t-21 56.5v80q0 45 32.5 71.5t82.5 26.5t82.5 -26.5t32.5 -71.5v-210q0 -51 -33.5 -78t-84.5 -27zM137 520q12 0 20.5 9t9.5 23v72q0 12 -8 20.5t-22 8.5
q-28 0 -28 -29v-76q0 -28 28 -28z" />
    <glyph glyph-name="comma.numr" unicode="&#xe421;" horiz-adv-x="160" 
d="M48 235l22 86h-31v96h83v-92l-34 -90h-40z" />
    <glyph glyph-name="period.numr" unicode="&#xe422;" horiz-adv-x="160" 
d="M39 318v99h83v-99h-83z" />
    <glyph glyph-name="parenleft.numr" unicode="&#xe423;" horiz-adv-x="166" 
d="M112 247q-33 47 -53 116.5t-20 137.5q0 145 73 247l42 -1q-26 -72 -36 -123.5t-10 -122.5q0 -131 46 -252z" />
    <glyph glyph-name="parenright.numr" unicode="&#xe424;" horiz-adv-x="166" 
d="M66 247l-43 2q47 124 47 252q0 72 -10.5 123t-36.5 123l43 1q34 -48 53 -114t19 -133q0 -68 -20 -137t-52 -117z" />
    <glyph glyph-name="numbersign.LP" unicode="&#xe533;" horiz-adv-x="417" 
d="M68 -2l17 189h-65l8 73h64l22 208h-66l6 73h65l19 175h67l-17 -175h79l18 175h66l-17 -175h65l-7 -73h-64l-21 -208h65l-6 -73h-66l-18 -189h-68l18 189h-79l-18 -189h-67zM160 260h79l22 208h-81z" />
    <glyph glyph-name="zero.LT" unicode="&#xe53f;" horiz-adv-x="429" 
d="M215 -10q-77 0 -126 41t-49 118v418q0 76 50.5 116.5t124.5 40.5t124.5 -40.5t50.5 -115.5v-419q0 -77 -49.5 -118t-125.5 -41zM215 92q27 0 41 16t14 38v424q0 22 -15 36.5t-40 14.5t-39.5 -15t-14.5 -36v-425q0 -22 14 -37.5t40 -15.5z" />
    <glyph glyph-name="one.LT" unicode="&#xe541;" horiz-adv-x="429" 
d="M160 0v590l-53 -13l-16 91l119 46h69v-714h-119z" />
    <glyph glyph-name="two.LT" unicode="&#xe542;" horiz-adv-x="429" 
d="M55 0v78l121 207q80 142 80 243v20q-2 74 -49 74q-48 0 -48 -64v-44h-108v44q0 76 43 121.5t120 45.5q79 0 119 -48t40 -132q0 -140 -117 -334l-61 -103v-3h181v-105h-321z" />
    <glyph glyph-name="three.LT" unicode="&#xe543;" horiz-adv-x="429" 
d="M213 -10q-88 0 -128.5 46t-40.5 123v41h112v-45q0 -65 52 -65q27 0 41 24.5t14 86.5q0 106 -73 106h-49v109h51q34 0 49.5 24t15.5 83q0 98 -52 98q-47 0 -47 -66v-42h-111v40q0 81 43.5 126t124.5 45q74 0 116.5 -48.5t42.5 -136.5q0 -142 -86 -171v-4q48 -16 72 -60.5
t24 -105.5q0 -104 -49.5 -156t-121.5 -52z" />
    <glyph glyph-name="four.LT" unicode="&#xe544;" horiz-adv-x="429" 
d="M236 0v166h-203v94l164 453h126l-181 -445h94v115l109 75v-190h51v-102h-51v-166h-109z" />
    <glyph glyph-name="five.LT" unicode="&#xe545;" horiz-adv-x="429" 
d="M210 -11q-79 0 -121.5 41t-42.5 112v64h110v-54q0 -27 14.5 -43.5t40.5 -16.5q53 0 53 72v137q0 66 -54 66q-31 0 -54 -38l-103 7l13 377h294v-105h-195q0 -77 -7 -182q41 33 97 33q57 0 92.5 -34t35.5 -106v-160q0 -80 -48.5 -125t-124.5 -45z" />
    <glyph glyph-name="six.LT" unicode="&#xe546;" horiz-adv-x="429" 
d="M213 -10q-79 0 -125.5 44.5t-46.5 117.5v406q0 79 50 123t128 44q74 0 117 -40.5t43 -106.5v-58h-113v51q0 22 -12.5 37t-36.5 15q-27 0 -40.5 -16.5t-13.5 -40.5v-168q40 42 100 42q59 0 91.5 -33t32.5 -90v-171q0 -70 -48 -113t-126 -43zM216 90q26 0 39 16.5t13 39.5
v160q0 24 -13.5 36.5t-34.5 12.5q-24 0 -40 -17t-17 -42v-150q0 -23 13.5 -39.5t39.5 -16.5z" />
    <glyph glyph-name="seven.LT" unicode="&#xe547;" horiz-adv-x="429" 
d="M112 0q1 168 42 331t100 276h-205v106h331v-91q-145 -264 -147 -622h-121z" />
    <glyph glyph-name="eight.LT" unicode="&#xe548;" horiz-adv-x="429" 
d="M214 -10q-77 0 -125 38t-48 111v114q0 77 62 111q-26 14 -40.5 41.5t-14.5 58.5v109q0 71 47 111.5t120 40.5t119.5 -38.5t46.5 -109.5v-106q0 -76 -56 -107q63 -32 63 -106v-118q0 -71 -49 -110.5t-125 -39.5zM215 87q26 0 40 14.5t14 37.5v127q0 25 -15.5 40t-38.5 15
t-38 -14.5t-15 -37.5v-130q0 -23 14 -37.5t39 -14.5zM216 409q24 0 38 15t14 38v114q0 23 -15 36.5t-38 13.5t-37.5 -13t-14.5 -35v-116q0 -23 15 -38t38 -15z" />
    <glyph glyph-name="nine.LT" unicode="&#xe549;" horiz-adv-x="429" 
d="M214 -10q-76 0 -120.5 40.5t-44.5 108.5v56h113v-48q0 -25 13 -39.5t36 -14.5q26 0 39.5 16t13.5 42v171q-37 -47 -97 -47q-59 0 -92 33t-33 90v170q0 71 47.5 113.5t125.5 42.5q79 0 125.5 -44.5t46.5 -117.5v-396q0 -80 -48 -128t-125 -48zM209 360q22 0 38.5 16.5
t16.5 42.5v152q0 23 -13.5 39t-38.5 16q-26 0 -39 -17t-13 -40v-159q0 -24 14 -37t35 -13z" />
    <glyph glyph-name="CR" horiz-adv-x="162" 
 />
    <glyph glyph-name="LF" horiz-adv-x="35" 
 />
    <glyph glyph-name="RS" horiz-adv-x="35" 
 />
    <glyph glyph-name="US" horiz-adv-x="33" 
 />
    <glyph glyph-name="DEL" horiz-adv-x="0" 
 />
    <glyph glyph-name="period.sub" horiz-adv-x="160" 
d="M39 -133v99h83v-99h-83z" />
    <glyph glyph-name="comma.sub" horiz-adv-x="160" 
d="M48 -216l22 86h-31v96h83v-92l-34 -90h-40z" />
    <glyph glyph-name="period.sup" horiz-adv-x="160" 
d="M39 380v99h83v-99h-83z" />
    <glyph glyph-name="comma.sup" horiz-adv-x="160" 
d="M48 297l22 86h-31v96h83v-92l-34 -90h-40z" />
    <glyph glyph-name="commatop" horiz-adv-x="204" 
d="M51 590v69l34 93h52l-18 -74h33v-88h-101z" />
    <glyph glyph-name="ringacute" horiz-adv-x="248" 
d="M124 579q-42 0 -65.5 24.5t-23.5 59.5q0 33 21 59l70 95l84 -18l-60 -53q30 -7 48 -28.5t18 -50.5q0 -38 -26.5 -63t-65.5 -25zM125 620q19 0 29.5 12.5t10.5 33.5t-10.5 33.5t-28.5 12.5q-19 0 -29.5 -13t-10.5 -34q0 -45 39 -45z" />
    <glyph glyph-name="altogonek" horiz-adv-x="253" 
d="M147 -195q-41 0 -69.5 24t-28.5 69q0 46 30.5 82t69.5 54l40 -30q-65 -28 -65 -85q0 -42 42 -42q19 0 43 13l28 -60q-38 -25 -90 -25z" />
    <glyph glyph-name="ogonekplus" horiz-adv-x="274" 
d="M147 -196q-44 0 -74 24.5t-30 70.5q0 47 31 82t75 53l25 -21q-56 -34 -56 -94q0 -22 12 -33t32 -11q27 0 52 16l31 -57q-41 -30 -98 -30z" />
    <glyph glyph-name="idotaccent" horiz-adv-x="209" 
d="M46 0v532h118v-532h-118zM46 602v129h118v-129h-118z" />
    <glyph glyph-name="IJ.alt" horiz-adv-x="779" 
d="M35 0v107h92v499h-93v107h312v-107h-93v-499h92v-107h-310zM550 -11q-89 0 -136 45.5t-47 132.5v97h120v-98q0 -68 61 -68t61 69v546h126v-539q0 -86 -48.5 -135.5t-136.5 -49.5z" />
    </font>
</defs>
</svg>
