<?xml version="1.0" standalone="no"?>
<!DOCTYPE svg PUBLIC "-//W3C//DTD SVG 1.1//EN" "http://www.w3.org/Graphics/SVG/1.1/DTD/svg11.dtd" >
<svg xmlns="http://www.w3.org/2000/svg" xmlns:xlink="http://www.w3.org/1999/xlink" version="1.1">
<metadata>
Created by FontForge 20161013 at Fri Apr 11 05:21:38 2008
 By ,,,
Copyright (c) 2008 by Mrio Feliciano. All rights reserved.
</metadata>
<defs>
<font id="FlamaSemicondensed-Medium" horiz-adv-x="540" >
  <font-face 
    font-family="Flama Semicondensed Medium"
    font-weight="650"
    font-stretch="normal"
    units-per-em="1000"
    panose-1="2 0 0 0 0 0 0 0 0 0"
    ascent="800"
    descent="-200"
    x-height="519"
    cap-height="713"
    bbox="-165 -209 1060 1004"
    underline-thickness="50"
    underline-position="-200"
    unicode-range="U+0020-F8FF"
  />
<missing-glyph horiz-adv-x="822" 
d="M235 118l-40 40l185 185l-185 185l40 40l185 -185l185 185l40 -40l-185 -185l185 -185l-40 -40l-185 185zM55 -18v716h712v-716h-712zM115 42h592v596h-592v-596z" />
    <glyph glyph-name="fi" unicode="fi" horiz-adv-x="573" 
d="M98 0v427h-69v88h69v66q0 69 38.5 105t105.5 36q39 0 70 -7v-86q-15 5 -52 5q-53 0 -53 -53v-66h94v-88h-94v-427h-109zM399 0v519h109v-519h-109zM399 589v124h109v-124h-109z" />
    <glyph glyph-name="fl" unicode="fl" horiz-adv-x="621" 
d="M98 0v427h-69v88h69v66q0 69 38.5 105t105.5 36q39 0 70 -7v-86q-15 5 -52 5q-53 0 -53 -53v-66h94v-88h-94v-427h-109zM518 -8q-58 0 -90.5 30t-32.5 86v605h110v-580q0 -49 52 -49q15 0 39 4v-83q-38 -13 -78 -13z" />
    <glyph glyph-name=".notdef" horiz-adv-x="822" 
d="M235 118l-40 40l185 185l-185 185l40 40l185 -185l185 185l40 -40l-185 -185l185 -185l-40 -40l-185 185zM55 -18v716h712v-716h-712zM115 42h592v596h-592v-596z" />
    <glyph glyph-name=".null" horiz-adv-x="0" 
 />
    <glyph glyph-name="nonmarkingreturn" horiz-adv-x="333" 
 />
    <glyph glyph-name="space" unicode=" " horiz-adv-x="180" 
 />
    <glyph glyph-name="exclam" unicode="!" horiz-adv-x="251" 
d="M91 208l-19 255v250h107v-250l-20 -255h-68zM73 0v135h104v-135h-104z" />
    <glyph glyph-name="quotedbl" unicode="&#x22;" horiz-adv-x="397" 
d="M78 467l-15 133v114h105v-114l-14 -133h-76zM243 467l-14 133v114h105v-114l-14 -133h-77z" />
    <glyph glyph-name="numbersign" unicode="#" horiz-adv-x="531" 
d="M95 -2l25 189h-94l9 68h92l32 221h-97l9 66h95l25 173h60l-22 -173h126l23 173h61l-23 -173h93l-8 -66h-92l-31 -221h96l-7 -68h-97l-24 -189h-63l24 189h-125l-25 -189h-62zM190 255h125l33 221h-127z" />
    <glyph glyph-name="dollar" unicode="$" horiz-adv-x="511" 
d="M212 -48v79q-106 9 -186 81l67 73q41 -32 76 -47.5t89 -15.5q47 0 73.5 21t26.5 58q0 35 -21 56.5t-62 37.5q0 1 -42.5 19.5t-43.5 18.5q-123 58 -123 170q0 63 39 111t107 63v76h96v-70q88 -9 154 -59l-57 -79q-77 49 -138 49q-42 0 -68.5 -20t-26.5 -56q0 -54 82 -89
l82 -37q135 -61 135 -174q0 -75 -44.5 -123t-118.5 -61v-82h-96z" />
    <glyph glyph-name="percent" unicode="%" horiz-adv-x="737" 
d="M177 343q-57 0 -94.5 32t-37.5 90v139q0 58 38 90t93 32q56 0 94.5 -31.5t38.5 -91.5v-140q0 -55 -39.5 -87.5t-92.5 -32.5zM177 405q26 0 41 15.5t15 37.5v155q0 21 -15 36t-41 15q-27 0 -41.5 -15t-14.5 -36v-156q0 -23 14.5 -37.5t41.5 -14.5zM159 -3l363 724h63
l-362 -724h-64zM554 -11q-55 0 -93 31.5t-38 88.5v136q0 58 38.5 92.5t92.5 34.5q56 0 94 -31.5t38 -90.5v-139q0 -56 -39.5 -89t-92.5 -33zM554 52q27 0 41.5 16t14.5 37v155q0 21 -15 36t-41 15t-40.5 -15t-14.5 -36v-156q0 -23 14 -37.5t41 -14.5z" />
    <glyph glyph-name="ampersand" unicode="&#x26;" horiz-adv-x="685" 
d="M261 -15q-95 0 -152.5 55.5t-57.5 144.5q0 67 41.5 124t113.5 85q-69 84 -69 160q0 31 10.5 60t32 55t60.5 41.5t91 15.5q82 0 135 -44t53 -110q0 -68 -42 -118.5t-115 -80.5l129 -165q19 39 38 130l99 -15q-20 -103 -79 -187l111 -136h-140l-57 73q-82 -88 -202 -88z
M286 80q72 0 125 53l-156 199q-48 -19 -71.5 -55.5t-23.5 -78.5q0 -52 35 -85t91 -33zM316 431q98 44 98 133q0 38 -23 59.5t-63 21.5q-39 0 -60.5 -24t-21.5 -59q0 -17 10.5 -39.5t21 -37.5t38.5 -54z" />
    <glyph glyph-name="quotesingle" unicode="'" horiz-adv-x="231" 
d="M78 467l-15 133v114h105v-114l-14 -133h-76z" />
    <glyph glyph-name="parenleft" unicode="(" horiz-adv-x="258" 
d="M180 -180q-59 86 -93 212t-34 242q0 119 33 237t94 210l65 -2q-51 -130 -72.5 -222t-21.5 -223q0 -232 95 -451z" />
    <glyph glyph-name="parenright" unicode=")" horiz-adv-x="258" 
d="M78 -180l-66 3q95 219 95 451q0 131 -21.5 223t-72.5 222l65 2q61 -92 94 -210t33 -237q0 -116 -34 -242t-93 -212z" />
    <glyph glyph-name="asterisk" unicode="*" horiz-adv-x="394" 
d="M115 383l-54 35l77 110l-117 68l33 52l111 -64v129h64v-129l110 64l34 -52l-118 -68l78 -110l-54 -35l-82 115z" />
    <glyph glyph-name="plus" unicode="+" 
d="M235 109v173h-166v71h166v173h71v-173h165v-71h-165v-173h-71z" />
    <glyph glyph-name="comma" unicode="," horiz-adv-x="242" 
d="M68 -133l41 139h-45v129h113v-124l-55 -144h-54z" />
    <glyph glyph-name="hyphen" unicode="-" horiz-adv-x="311" 
d="M44 258v84h223v-84h-223z" />
    <glyph glyph-name="period" unicode="." horiz-adv-x="242" 
d="M64 0v135h113v-135h-113z" />
    <glyph glyph-name="slash" unicode="/" horiz-adv-x="313" 
d="M-6 -179l218 897h74l-215 -897h-77z" />
    <glyph glyph-name="zero" unicode="0" horiz-adv-x="554" 
d="M278 -12q-95 0 -160 49t-65 142v353q0 93 65.5 143t157.5 50q98 0 160.5 -48.5t62.5 -143.5v-353q0 -92 -65 -142t-156 -50zM278 82q53 0 78.5 27.5t25.5 72.5v355q0 39 -28.5 67t-76.5 28q-49 0 -78 -28t-29 -69v-352q0 -48 28 -74.5t80 -26.5z" />
    <glyph glyph-name="one" unicode="1" horiz-adv-x="350" 
d="M129 0v607l-78 -21l-9 87l137 42h63v-715h-113z" />
    <glyph glyph-name="two" unicode="2" horiz-adv-x="491" 
d="M56 0v65l142 192q61 88 92 150.5t31 116.5v15q0 92 -92 92q-88 0 -88 -82v-28h-105v25q0 87 57.5 133t149.5 46q96 0 144 -51.5t48 -137.5q0 -83 -40.5 -163.5t-115.5 -176.5l-71 -94v-2h241v-100h-393z" />
    <glyph glyph-name="three" unicode="3" horiz-adv-x="521" 
d="M264 -12q-103 0 -158.5 46t-55.5 124v35h107v-24q0 -42 29.5 -66t74.5 -24q56 0 77.5 29.5t21.5 92.5q0 34 -12 59t-31.5 36.5t-36.5 16.5t-33 5h-64v92h57q109 0 109 115q0 53 -27 79.5t-69 26.5q-93 0 -93 -84v-27h-105v28q0 82 56.5 129.5t151.5 47.5t145 -52t50 -133
q0 -61 -27 -108t-80 -62v-3q56 -13 90.5 -61.5t34.5 -108.5q0 -96 -62 -152.5t-150 -56.5z" />
    <glyph glyph-name="four" unicode="4" 
d="M322 0v169h-281v88l233 456h121l-243 -451h170v119l108 62v-181h76v-93h-76v-169h-108z" />
    <glyph glyph-name="five" unicode="5" horiz-adv-x="523" 
d="M260 -12q-94 0 -148.5 46t-54.5 117v42h108v-27q0 -39 28.5 -63.5t72.5 -24.5q100 0 100 108v84q0 97 -99 97q-49 0 -94 -43l-101 10l19 380h352v-101h-263l-9 -206q56 50 139 50q71 0 119.5 -43t48.5 -128v-114q0 -86 -62.5 -135t-155.5 -49z" />
    <glyph glyph-name="six" unicode="6" horiz-adv-x="535" 
d="M265 -12q-92 0 -151.5 51.5t-59.5 137.5v355q0 92 62.5 143t156.5 51q92 0 147.5 -44.5t55.5 -119.5v-40h-114v32q0 38 -26 59.5t-69 21.5q-47 0 -71.5 -26.5t-24.5 -68.5v-173q21 38 61.5 60t89.5 22q70 0 114.5 -47.5t44.5 -114.5v-115q0 -84 -61.5 -134t-154.5 -50z
M271 79q47 0 73 26t26 63v109q0 48 -26.5 68.5t-65.5 20.5q-44 0 -75.5 -33.5t-31.5 -82.5v-75q0 -39 26.5 -67.5t73.5 -28.5z" />
    <glyph glyph-name="seven" unicode="7" horiz-adv-x="484" 
d="M116 0q1 187 65.5 359.5t135.5 254.5h-296v100h414v-82q-98 -116 -148.5 -288.5t-49.5 -343.5h-121z" />
    <glyph glyph-name="eight" unicode="8" horiz-adv-x="547" 
d="M273 -12q-99 0 -159 44.5t-60 128.5v65q0 47 26.5 83.5t68.5 53.5q-40 14 -63.5 49.5t-23.5 74.5v65q0 82 61 127.5t150 45.5q91 0 151 -43.5t60 -125.5v-63q0 -42 -23.5 -78t-64.5 -51q42 -15 69.5 -51t27.5 -83v-70q0 -81 -62 -126.5t-158 -45.5zM273 78
q48 0 76.5 23.5t28.5 65.5v65q0 44 -31.5 68t-73.5 24t-73 -24t-31 -64v-72q0 -39 29.5 -62.5t74.5 -23.5zM274 403q41 0 71 24.5t30 62.5v62q0 40 -31 61.5t-73 21.5q-38 0 -68 -23t-30 -60v-63q0 -41 30.5 -63.5t70.5 -22.5z" />
    <glyph glyph-name="nine" unicode="9" horiz-adv-x="534" 
d="M262 -12q-92 0 -148 44.5t-56 118.5v42h114v-32q0 -38 26 -59.5t69 -21.5q47 0 72 26t25 68v168q-50 -78 -151 -78q-73 0 -116 49.5t-43 118.5v115q0 84 60.5 131.5t154.5 47.5q92 0 151.5 -51.5t59.5 -137.5v-353q0 -92 -62 -144t-156 -52zM256 348q44 0 76 33.5
t32 82.5v76q0 39 -27 67.5t-73 28.5q-47 0 -73.5 -26.5t-26.5 -63.5v-108q0 -49 27 -69.5t65 -20.5z" />
    <glyph glyph-name="colon" unicode=":" horiz-adv-x="242" 
d="M64 0v135h113v-135h-113zM64 374v135h113v-135h-113z" />
    <glyph glyph-name="semicolon" unicode=";" horiz-adv-x="242" 
d="M68 -133l41 139h-45v129h113v-124l-55 -144h-54zM64 374v135h113v-135h-113z" />
    <glyph glyph-name="less" unicode="&#x3c;" 
d="M430 115l-357 172v63l359 168l35 -74l-267 -125l267 -130z" />
    <glyph glyph-name="equal" unicode="=" 
d="M66 190v85h407v-85h-407zM66 357v84h407v-84h-407z" />
    <glyph glyph-name="greater" unicode="&#x3e;" 
d="M110 116l-37 74l268 130l-269 124l37 74l358 -168v-63z" />
    <glyph glyph-name="question" unicode="?" horiz-adv-x="486" 
d="M176 208v32q3 47 19.5 80.5t48.5 69.5q2 3 15 16.5t16 17t13.5 16t13.5 18.5t10 17.5t9 20t4.5 20t2.5 23.5q0 44 -24.5 69t-67.5 25q-37 0 -62 -23t-25 -66v-13h-96v11q0 86 54 133.5t138 47.5q91 0 141 -47.5t50 -133.5q1 -97 -88 -182q-4 -5 -15.5 -16.5l-17 -17
t-14 -17t-13 -20.5t-8.5 -21t-5 -25v-35h-99zM171 0v135h112v-135h-112z" />
    <glyph glyph-name="at" unicode="@" horiz-adv-x="884" 
d="M467 -150q-139 0 -239 53q-182 97 -179 331q1 192 121 315.5t306 123.5q163 0 261.5 -88.5t98.5 -242.5q0 -137 -76.5 -216.5t-178.5 -92.5h-96l14 78h-3q-58 -89 -141 -89q-56 0 -87.5 28.5t-31.5 80.5q0 19 3 32q9 64 32 197q12 70 60.5 108.5t110.5 38.5
q38 0 67.5 -18t38.5 -54h1l11 66h99l-65 -392q73 14 118.5 79t45.5 160q0 67 -25.5 118.5t-68.5 80t-91.5 42.5t-101.5 14q-150 0 -243.5 -102t-93.5 -263q0 -192 139 -269q79 -43 195 -43q22 0 42.5 1.5t34 2.5t35 5t28 5.5t32 7t29.5 6.5l14 -68q-93 -36 -216 -36zM396 99
q40 0 75 35.5t44 86.5l16 101q2 16 2 24q0 42 -19.5 65t-52.5 23q-39 0 -63 -26.5t-31 -71.5l-23 -149q-3 -18 -3 -26q0 -32 11 -47t44 -15z" />
    <glyph glyph-name="A" unicode="A" horiz-adv-x="607" 
d="M23 0l212 715h140l210 -715h-118l-53 191h-229l-53 -191h-109zM210 282h178l-87 316h-2z" />
    <glyph glyph-name="B" unicode="B" horiz-adv-x="592" 
d="M72 0v713h274q87 0 136 -47t49 -129q0 -63 -34 -110.5t-89 -59.5v-2q62 -12 97.5 -59.5t35.5 -110.5q0 -92 -53 -143.5t-139 -51.5h-277zM189 93h124q50 0 79 30t29 86q0 54 -32.5 80t-85.5 26h-114v-222zM189 410h110q50 0 82.5 28t32.5 83q0 50 -28.5 75.5t-75.5 25.5
h-121v-212z" />
    <glyph glyph-name="C" unicode="C" horiz-adv-x="587" 
d="M305 -12q-110 0 -180 56t-70 165v296q0 102 70.5 161t178.5 59q100 0 165.5 -53.5t65.5 -142.5v-47h-105v33q0 51 -33.5 82.5t-93.5 31.5q-61 0 -95.5 -34.5t-34.5 -93.5v-284q0 -66 35.5 -99t97.5 -33q57 0 90.5 30t33.5 79v38h105v-46q0 -92 -65 -145t-165 -53z" />
    <glyph glyph-name="D" unicode="D" horiz-adv-x="608" 
d="M72 0v713h250q104 0 168 -51.5t64 -152.5v-293q0 -106 -64 -161t-168 -55h-250zM190 96h119q62 0 94 37t32 86v276q0 54 -32 88t-94 34h-119v-521z" />
    <glyph glyph-name="E" unicode="E" horiz-adv-x="545" 
d="M72 0v713h422v-99h-304v-200h242v-98h-242v-216h305v-100h-423z" />
    <glyph glyph-name="F" unicode="F" horiz-adv-x="529" 
d="M72 0v713h422v-96h-304v-207h241v-96h-241v-314h-118z" />
    <glyph glyph-name="G" unicode="G" horiz-adv-x="596" 
d="M304 -12q-109 0 -179 56t-70 165v293q0 103 70.5 163.5t178.5 60.5q101 0 168 -52t67 -141v-46h-107v34q0 50 -35 80.5t-92 30.5q-62 0 -97.5 -36.5t-35.5 -95.5v-286q0 -61 35.5 -96t98.5 -35q124 0 124 112v100h-128v88h239v-196q-1 -92 -67.5 -145.5t-169.5 -53.5z
" />
    <glyph glyph-name="H" unicode="H" horiz-adv-x="635" 
d="M72 0v713h118v-294h256v294h117v-713h-117v314h-256v-314h-118z" />
    <glyph glyph-name="I" unicode="I" horiz-adv-x="262" 
d="M72 0v713h118v-713h-118z" />
    <glyph glyph-name="J" unicode="J" horiz-adv-x="545" 
d="M254 -12q-109 0 -168.5 50.5t-59.5 154.5v63h112v-59q0 -114 113 -114q59 0 85.5 33t26.5 81v516h117v-502q0 -102 -58.5 -162.5t-167.5 -60.5z" />
    <glyph glyph-name="K" unicode="K" horiz-adv-x="601" 
d="M72 0v713h118v-350l256 350h125l-207 -277l203 -436h-130l-158 343l-89 -122v-221h-118z" />
    <glyph glyph-name="L" unicode="L" horiz-adv-x="534" 
d="M72 0v713h118v-613h305v-100h-423z" />
    <glyph glyph-name="M" unicode="M" horiz-adv-x="728" 
d="M72 0v713h152l144 -340h3l144 340h141v-713h-105v557h-2l-145 -349h-79l-146 348h-3v-556h-104z" />
    <glyph glyph-name="N" unicode="N" horiz-adv-x="636" 
d="M72 0v713h117l270 -477h2v477h105v-713h-100l-287 511h-2v-511h-105z" />
    <glyph glyph-name="O" unicode="O" horiz-adv-x="611" 
d="M306 -12q-112 0 -181.5 56.5t-69.5 170.5v276q0 111 70 173t180 62q111 0 181.5 -57t70.5 -170v-276q0 -114 -70.5 -174.5t-180.5 -60.5zM307 87q61 0 96 36.5t35 95.5v282q0 59 -36.5 93t-98.5 34t-96 -37t-34 -99v-273q0 -61 35 -96.5t99 -35.5z" />
    <glyph glyph-name="P" unicode="P" horiz-adv-x="577" 
d="M72 0v713h247q103 0 157 -60.5t54 -155.5q0 -103 -57 -166.5t-165 -63.5h-118v-267h-118zM190 358h95q62 0 96 35t34 100q0 56 -30.5 91t-85.5 35h-109v-261z" />
    <glyph glyph-name="Q" unicode="Q" horiz-adv-x="611" 
d="M519 -102l-164 95q-27 -5 -49 -5q-112 0 -181.5 56.5t-69.5 170.5v276q0 111 70 173t180 62q111 0 181.5 -57t70.5 -170v-276q0 -123 -81 -175l102 -51zM307 87q61 0 96 36.5t35 95.5v282q0 59 -36.5 93t-98.5 34t-96 -37t-34 -99v-273q0 -61 35 -96.5t99 -35.5z" />
    <glyph glyph-name="R" unicode="R" horiz-adv-x="601" 
d="M72 0v713h245q108 0 165 -57t57 -153q0 -77 -36 -130.5t-105 -70.5l162 -302h-127l-146 282h-97v-282h-118zM190 373h107q126 0 126 124q0 58 -30 90t-91 32h-112v-246z" />
    <glyph glyph-name="S" unicode="S" horiz-adv-x="562" 
d="M275 -12q-152 0 -243 83l60 84q45 -33 87.5 -50.5t105.5 -17.5q50 0 83.5 27t33.5 69t-26.5 68t-74.5 45l-100 40q-135 54 -135 188q0 85 61 143t164 58q126 0 206 -68l-61 -84q-81 58 -151 58q-49 0 -79 -23.5t-30 -67.5q0 -36 22 -59.5t69 -43.5l94 -40
q158 -67 158 -194q0 -97 -70.5 -156t-173.5 -59z" />
    <glyph glyph-name="T" unicode="T" horiz-adv-x="554" 
d="M219 0v617h-195v96h506v-96h-193v-617h-118z" />
    <glyph glyph-name="U" unicode="U" horiz-adv-x="625" 
d="M309 -12q-109 0 -176 55t-67 168v502h118v-493q0 -70 37.5 -103t94.5 -33q60 0 95 36t33 97v496h113v-498q1 -107 -69 -167t-179 -60z" />
    <glyph glyph-name="V" unicode="V" horiz-adv-x="566" 
d="M220 -3l-198 716h120l146 -568h2l145 568h109l-199 -716h-125z" />
    <glyph glyph-name="W" unicode="W" horiz-adv-x="808" 
d="M176 -3l-149 716h115l97 -509h3l107 509h123l103 -507h2l95 507h109l-150 -716h-114l-110 531h-4l-112 -531h-115z" />
    <glyph glyph-name="X" unicode="X" horiz-adv-x="546" 
d="M17 0l184 367l-170 346h127l121 -256l120 256h116l-172 -345l186 -368h-123l-139 278l-135 -278h-115z" />
    <glyph glyph-name="Y" unicode="Y" horiz-adv-x="552" 
d="M217 0v294l-196 419h124l138 -311l137 311h111l-196 -420v-293h-118z" />
    <glyph glyph-name="Z" unicode="Z" horiz-adv-x="525" 
d="M45 0v72l300 547h-294v94h432v-81l-297 -536h293v-96h-434z" />
    <glyph glyph-name="bracketleft" unicode="[" horiz-adv-x="289" 
d="M86 -176v889h180v-71h-80v-748h80v-70h-180z" />
    <glyph glyph-name="backslash" unicode="\" horiz-adv-x="313" 
d="M240 -179l-215 897h74l217 -897h-76z" />
    <glyph glyph-name="bracketright" unicode="]" horiz-adv-x="289" 
d="M22 -176v70h80v748h-80v71h181v-889h-181z" />
    <glyph glyph-name="asciicircum" unicode="^" horiz-adv-x="459" 
d="M95 172l100 399h79l90 -399h-71l-60 298q-65 -296 -66 -298h-72z" />
    <glyph glyph-name="underscore" unicode="_" horiz-adv-x="461" 
d="M0 -110v73h461v-73h-461z" />
    <glyph glyph-name="grave" unicode="`" horiz-adv-x="278" 
d="M139 580l-115 152h111l87 -152h-83z" />
    <glyph glyph-name="a" unicode="a" horiz-adv-x="498" 
d="M186 -11q-62 0 -104 38.5t-42 110.5q0 59 34.5 99t80 55.5t95.5 15.5h75v71q0 36 -22.5 55t-62.5 19q-39 0 -62.5 -19t-23.5 -52v-26h-99v31q0 67 55.5 105.5t139.5 38.5q81 0 133.5 -38.5t52.5 -114.5v-252q0 -21 5 -126h-101q0 4 -0.5 13.5t-1.5 27.5t-2 33h-4
q-23 -47 -64 -66t-82 -19zM230 71q39 0 67 30.5t28 75.5v60h-66q-108 0 -108 -83q0 -41 22 -62t57 -21z" />
    <glyph glyph-name="b" unicode="b" horiz-adv-x="518" 
d="M307 -12q-40 0 -82 25t-58 65h-2l-3 -78h-96v713h109v-269h3q21 41 62 64.5t81 23.5q72 0 109 -48t37 -118v-204q0 -76 -45.5 -125t-114.5 -49zM282 67q36 0 56 23.5t20 68.5v202q0 84 -82 84q-38 0 -69.5 -35t-31.5 -91v-127q0 -52 33 -88.5t74 -36.5z" />
    <glyph glyph-name="c" unicode="c" horiz-adv-x="478" 
d="M248 -12q-88 0 -142.5 47.5t-54.5 139.5v164q0 91 56 141.5t141 50.5q86 0 137.5 -43t51.5 -115v-30h-101v23q0 32 -20.5 55.5t-63.5 23.5q-91 0 -91 -98v-175q0 -99 94 -99q44 0 62.5 26t18.5 58v20h101v-33q0 -70 -52 -113t-137 -43z" />
    <glyph glyph-name="d" unicode="d" horiz-adv-x="518" 
d="M197 -12q-72 0 -109 47t-37 118v208q0 74 46.5 122t114.5 48q37 0 72 -19.5t57 -51.5h1v253h110v-713h-100l-5 83h-3q-25 -46 -63.5 -70.5t-83.5 -24.5zM239 74q41 0 72.5 36t31.5 89v133q0 50 -34 85t-73 35q-76 0 -76 -95v-198q0 -85 79 -85z" />
    <glyph glyph-name="e" unicode="e" horiz-adv-x="493" 
d="M256 -12q-93 0 -149 47t-56 144v144q0 98 58 153t145 55q88 0 140 -51t52 -139v-111h-285v-50q0 -102 114 -102q53 0 129 34l29 -74q-67 -50 -177 -50zM161 307h180v43q0 42 -21.5 70.5t-68.5 28.5q-43 0 -66.5 -28t-23.5 -68v-46z" />
    <glyph glyph-name="f" unicode="f" horiz-adv-x="333" 
d="M98 0v427h-69v88h69v66q0 69 38.5 105t105.5 36q39 0 70 -7v-86q-15 5 -52 5q-53 0 -53 -53v-66h94v-88h-94v-427h-109z" />
    <glyph glyph-name="g" unicode="g" horiz-adv-x="515" 
d="M241 -188q-114 0 -186 38l33 87q77 -36 144 -36q111 0 111 97v110h-1q-21 -45 -59 -68t-80 -23q-73 0 -112.5 42t-39.5 110v203q0 72 48.5 116t116.5 44q41 0 80.5 -22.5t57.5 -61.5h1l4 72h93v-500q0 -100 -55 -154t-156 -54zM238 99q40 0 72 39.5t32 94.5v105
q0 49 -32.5 82t-69.5 33q-80 0 -80 -98v-168q0 -88 78 -88z" />
    <glyph glyph-name="h" unicode="h" horiz-adv-x="526" 
d="M66 0v713h109v-270h2q22 43 63.5 65.5t89.5 22.5q59 0 96.5 -40.5t37.5 -102.5v-388h-109v363q0 42 -17 62t-57 20t-73 -34t-33 -83v-328h-109z" />
    <glyph glyph-name="i" unicode="i" horiz-adv-x="240" 
d="M66 0v519h109v-519h-109zM66 589v124h109v-124h-109z" />
    <glyph glyph-name="j" unicode="j" horiz-adv-x="247" 
d="M53 -188q-32 0 -55 4v89q10 -2 26 -2q31 0 40.5 16t9.5 49v551h109v-571q0 -68 -34.5 -102t-95.5 -34zM74 589v124h109v-124h-109z" />
    <glyph glyph-name="k" unicode="k" horiz-adv-x="486" 
d="M66 0v713h109v-424l166 230h122l-133 -174l134 -345h-116l-98 263l-75 -101v-162h-109z" />
    <glyph glyph-name="l" unicode="l" horiz-adv-x="288" 
d="M185 -8q-58 0 -90.5 30t-32.5 86v605h110v-580q0 -49 52 -49q15 0 39 4v-83q-38 -13 -78 -13z" />
    <glyph glyph-name="m" unicode="m" horiz-adv-x="813" 
d="M66 0v519h104v-83h2q46 95 158 95q46 0 80.5 -27t46.5 -66h2q51 93 158 93q57 0 96.5 -39t39.5 -101v-391h-109v368q0 77 -74 77q-39 0 -72 -32.5t-34 -80.5v-332h-109v371q-1 74 -74 74q-40 0 -73 -34t-33 -83v-328h-109z" />
    <glyph glyph-name="n" unicode="n" horiz-adv-x="524" 
d="M66 0v519h104v-82h2q48 94 158 94q56 0 95 -41t39 -102v-388h-109v366q0 41 -18 60t-56 19q-40 0 -73 -34t-33 -83v-328h-109z" />
    <glyph glyph-name="o" unicode="o" horiz-adv-x="506" 
d="M253 -12q-89 0 -145.5 48t-56.5 142v159q0 92 56.5 143t143.5 51q90 0 147 -48.5t57 -142.5v-160q0 -95 -57 -143.5t-145 -48.5zM254 74q91 0 91 102v170q0 45 -23.5 72.5t-69.5 27.5t-68.5 -28.5t-22.5 -75.5v-167q0 -47 23 -74t70 -27z" />
    <glyph glyph-name="p" unicode="p" horiz-adv-x="518" 
d="M66 -179v698h104v-82h2q24 47 65 71t83 24q71 0 109 -47t38 -117v-203q0 -77 -44 -127t-116 -50q-39 0 -76.5 21.5t-53.5 57.5h-2v-246h-109zM282 67q76 0 76 91v202q0 85 -82 85q-42 0 -71.5 -36.5t-29.5 -94.5v-118q0 -55 33 -92t74 -37z" />
    <glyph glyph-name="q" unicode="q" horiz-adv-x="515" 
d="M343 -179v258h-2q-26 -44 -65.5 -67.5t-78.5 -23.5q-71 0 -108.5 47t-37.5 118v208q0 76 47 123t116 47q40 0 80 -22.5t58 -60.5h2l5 72h93v-699h-109zM234 74q39 0 74 36t35 91v126q0 53 -32.5 89t-74.5 36q-76 0 -76 -95v-203q0 -80 74 -80z" />
    <glyph glyph-name="r" unicode="r" horiz-adv-x="363" 
d="M66 0v519h104v-86h1q25 49 55.5 70.5t75.5 21.5q25 0 41 -4v-96q-22 3 -47 3q-48 0 -84 -26.5t-37 -85.5v-316h-109z" />
    <glyph glyph-name="s" unicode="s" horiz-adv-x="452" 
d="M224 -12q-128 0 -197 75l58 73q72 -62 141 -62q41 0 64 17t23 46q0 31 -21 47t-63 29l-50 16q-122 38 -122 148q0 61 46 107.5t128 46.5q106 0 168 -59l-52 -74q-62 46 -117 46q-34 0 -54 -13.5t-20 -38.5q0 -26 14.5 -40t48.5 -26l67 -23q62 -22 96 -62.5t34 -93.5
q0 -72 -56 -115.5t-136 -43.5z" />
    <glyph glyph-name="t" unicode="t" horiz-adv-x="367" 
d="M236 -9q-127 0 -127 114v322h-77v87h77v139h110v-139h125v-87h-125v-288q0 -52 57 -52q25 0 57 9v-88q-48 -17 -97 -17z" />
    <glyph glyph-name="u" unicode="u" horiz-adv-x="523" 
d="M204 -12q-59 0 -100 37.5t-41 104.5v389h109v-360q0 -43 16 -64t56 -21q44 0 76 35.5t32 86.5v323h109v-519h-102l-3 83h-2q-17 -41 -59 -68t-91 -27z" />
    <glyph glyph-name="v" unicode="v" horiz-adv-x="468" 
d="M180 -1l-160 520h117l100 -368h2l104 368h104l-163 -520h-104z" />
    <glyph glyph-name="w" unicode="w" horiz-adv-x="696" 
d="M151 -1l-125 520h113l70 -338h4l88 338h107l85 -338h3l75 338h100l-129 -520h-99l-92 385h-3l-96 -385h-101z" />
    <glyph glyph-name="x" unicode="x" horiz-adv-x="457" 
d="M12 0l157 267l-141 252h117l96 -178l93 178h106l-144 -250l149 -269h-116l-105 195l-105 -195h-107z" />
    <glyph glyph-name="y" unicode="y" horiz-adv-x="470" 
d="M115 -189q-36 0 -70 8v90q33 -7 58 -7q51 0 68 50l17 59l-169 508h115l111 -369h1l107 369h99l-179 -571q-42 -137 -158 -137z" />
    <glyph glyph-name="z" unicode="z" horiz-adv-x="445" 
d="M42 0v69l232 366h-226v84h355l-1 -72l-227 -362h228v-85h-361z" />
    <glyph glyph-name="braceleft" unicode="{" horiz-adv-x="286" 
d="M157 -176q-34 0 -54.5 20.5t-20.5 61.5v292q0 28 -9 40.5t-32 14.5v68q25 5 33 15t8 32v261q0 41 20.5 62.5t55.5 21.5h107v-64h-73q-19 0 -19 -23v-250q0 -66 -43 -83v-4q26 -11 34.5 -28.5t8.5 -54.5v-296q0 -22 19 -22h73v-64h-108z" />
    <glyph glyph-name="bar" unicode="|" horiz-adv-x="270" 
d="M101 -52v771h68v-771h-68z" />
    <glyph glyph-name="braceright" unicode="}" horiz-adv-x="286" 
d="M21 -176v64h73q19 0 19 22v296q0 37 8.5 54.5t34.5 28.5v4q-43 17 -43 83v252q0 22 -19 22h-73v64h107q35 0 55.5 -21t20.5 -62v-263q0 -22 7.5 -32t32.5 -15v-68q-23 -2 -31.5 -14.5t-8.5 -40.5v-292q0 -41 -20.5 -61.5t-55.5 -20.5h-107z" />
    <glyph glyph-name="asciitilde" unicode="~" 
d="M108 249l-52 10q8 48 31.5 79t65.5 31q26 0 117.5 -16.5t117.5 -16.5q29 0 45 46l51 -12q-18 -111 -96 -111q-25 0 -118 17t-119 17q-19 0 -27.5 -10.5t-15.5 -33.5z" />
    <glyph glyph-name="uni00A0" unicode="&#xa0;" horiz-adv-x="180" 
 />
    <glyph glyph-name="exclamdown" unicode="&#xa1;" horiz-adv-x="251" 
d="M72 -160v251l19 255h68l20 -255v-251h-107zM73 419v134h105v-134h-105z" />
    <glyph glyph-name="cent" unicode="&#xa2;" horiz-adv-x="492" 
d="M214 -64v76q-75 8 -117.5 54.5t-42.5 127.5v160q0 80 44 128.5t116 58.5v74h84v-74q69 -10 106.5 -50t37.5 -99v-37h-99v32q0 33 -21 56t-66 23q-47 0 -70 -29t-23 -75v-169q0 -106 93 -106q45 0 66 23.5t21 56.5v33h99v-41q0 -60 -37.5 -99t-106.5 -48v-76h-84z" />
    <glyph glyph-name="sterling" unicode="&#xa3;" horiz-adv-x="547" 
d="M45 0v92h71v230h-60v68h60v147q0 95 58 141.5t141 46.5q79 0 128 -41t49 -118v-49h-94v49q0 75 -84 75q-39 0 -63 -23t-24 -67v-161h175v-68h-175v-230h283l-20 -92h-445z" />
    <glyph glyph-name="currency" unicode="&#xa4;" horiz-adv-x="389" 
d="M78 187l-37 37l40 41q-27 38 -27 82q0 42 24 77l-11 11l-19 19l-11 11l36 36l40 -39q39 26 81 26t77 -23l41 41l37 -37l-40 -40q27 -38 27 -83q0 -42 -25 -78l41 -40l-36 -37l-40 40q-38 -25 -81 -25q-41 0 -77 22zM194 253q42 0 65 26.5t23 67.5q0 40 -24.5 67t-62.5 27
q-42 0 -65 -26.5t-23 -69.5q0 -37 24.5 -64.5t62.5 -27.5z" />
    <glyph glyph-name="yen" unicode="&#xa5;" horiz-adv-x="545" 
d="M213 0v254h-162v74h144l-178 385h124l138 -309l135 309h115l-178 -385h145v-74h-164v-254h-119z" />
    <glyph glyph-name="brokenbar" unicode="&#xa6;" horiz-adv-x="274" 
d="M100 -49v363h74v-363h-74zM100 381v333h74v-333h-74z" />
    <glyph glyph-name="section" unicode="&#xa7;" horiz-adv-x="473" 
d="M229 -78q-46 0 -85.5 12.5t-70.5 47.5t-31 88v29h85v-13q0 -43 29.5 -69.5t83.5 -26.5q47 0 73.5 25t26.5 61q0 25 -14.5 43t-28 24.5t-39.5 16.5q-34 10 -79 25q-126 41 -126 141q0 35 20 68.5t57 56.5q-40 22 -56.5 49.5t-16.5 68.5q0 65 47 107.5t133 42.5
q82 0 130.5 -38.5t48.5 -108.5v-26h-80v25q0 35 -26 58t-71 23t-71.5 -20.5t-26.5 -56.5q0 -51 71 -78l87 -32q58 -20 93.5 -51.5t35.5 -86.5q0 -79 -80 -124q83 -41 82 -117q0 -72 -56 -118t-145 -46zM272 239q31 10 49 31t18 48q0 46 -67 72q-60 22 -72 25
q-25 -12 -43 -34.5t-18 -50.5q0 -27 21 -44.5t46 -25.5z" />
    <glyph glyph-name="dieresis" unicode="&#xa8;" horiz-adv-x="376" 
d="M55 597v124h93v-124h-93zM228 597v124h93v-124h-93z" />
    <glyph glyph-name="copyright" unicode="&#xa9;" horiz-adv-x="840" 
d="M422 76q-82 0 -131.5 44t-49.5 127v196q0 81 50.5 126t130.5 45q77 0 125 -38.5t48 -104.5v-55h-86v51q0 28 -21 50t-64 22q-46 0 -68 -27.5t-22 -71.5v-191q0 -97 90 -97q43 0 64 22t21 50v53h86v-58q0 -66 -48.5 -104.5t-124.5 -38.5zM419 -49q-172 0 -269 111.5
t-97 286.5q0 166 102 280t264 114q113 0 198 -54t128 -143t43 -197q0 -110 -43 -199.5t-128 -144t-198 -54.5zM421 2q130 0 217 96t87 251q0 158 -88 251.5t-218 93.5q-131 0 -217 -94.5t-86 -250.5q0 -160 86 -253.5t219 -93.5z" />
    <glyph glyph-name="ordfeminine" unicode="&#xaa;" horiz-adv-x="351" 
d="M132 376q-41 0 -68.5 25t-27.5 71q0 56 43 82.5t98 26.5h44v43q0 45 -51 45q-23 0 -37 -11.5t-14 -29.5v-18h-72v19q0 45 37 70.5t93 25.5q54 0 88.5 -25.5t34.5 -75.5v-162q0 -31 4 -79h-74q0 16 -3 45q-29 -52 -95 -52zM165 433q22 0 39 17t17 43v44h-41q-62 0 -62 -53
q0 -51 47 -51zM56 259v72h245v-72h-245z" />
    <glyph glyph-name="guillemotleft" unicode="&#xab;" horiz-adv-x="487" 
d="M175 92l-138 176l137 177l60 -39l-83 -138l86 -139zM388 92l-138 176l137 177l60 -39l-83 -138l86 -139z" />
    <glyph glyph-name="logicalnot" unicode="&#xac;" horiz-adv-x="549" 
d="M415 152v127h-372v69h449v-196h-77z" />
    <glyph glyph-name="registered" unicode="&#xae;" horiz-adv-x="511" 
d="M254 296q-98 0 -156.5 65t-58.5 161t60.5 161t155.5 65q97 0 157 -64t60 -162q0 -95 -60.5 -160.5t-157.5 -65.5zM254 334q71 0 123 52t52 136q0 85 -51.5 137.5t-123.5 52.5t-121.5 -52t-49.5 -138q0 -84 51 -136t120 -52zM168 394v267h98q42 0 65 -22.5t23 -58.5
q0 -60 -55 -79l65 -107h-54l-59 100h-33v-100h-50zM218 532h39q48 0 48 45q0 19 -12.5 31.5t-35.5 12.5h-39v-89z" />
    <glyph glyph-name="macron" unicode="&#xaf;" horiz-adv-x="398" 
d="M51 602v78h296v-78h-296z" />
    <glyph glyph-name="degree" unicode="&#xb0;" horiz-adv-x="298" 
d="M148 520q-47 0 -77 31t-30 74q0 44 31 75.5t76 31.5q48 0 78.5 -31t30.5 -74q0 -44 -31.5 -75.5t-77.5 -31.5zM148 566q24 0 41 17.5t17 41.5q0 25 -16.5 43t-41.5 18q-24 0 -39.5 -17.5t-15.5 -43.5q0 -24 16 -41.5t39 -17.5z" />
    <glyph glyph-name="plusminus" unicode="&#xb1;" 
d="M235 184v154h-166v72h166v159h71v-159h165v-72h-165v-154h-71zM69 42v72h401v-72h-401z" />
    <glyph glyph-name="twosuperior" unicode="&#xb2;" horiz-adv-x="320" 
d="M45 380v50l95 105q68 83 68 129v3q0 51 -48 51q-49 0 -49 -50v-15h-75v21q0 51 34.5 79t90.5 28q59 0 91.5 -31t32.5 -82q0 -32 -14.5 -65t-29.5 -52t-46 -55l-44 -53h139v-63h-245z" />
    <glyph glyph-name="threesuperior" unicode="&#xb3;" horiz-adv-x="331" 
d="M164 368q-63 0 -96.5 28.5t-33.5 76.5v16h75v-13q0 -22 15 -34t38 -12q53 0 53 61q0 32 -18 46t-38 14h-36v54h30q57 0 57 59q0 27 -14.5 40.5t-35.5 13.5q-23 0 -36.5 -12.5t-13.5 -34.5v-11h-73v16q0 49 33.5 77t91.5 28q60 0 92.5 -29.5t32.5 -76.5q0 -32 -16 -58.5
t-47 -35.5v-2q34 -8 53.5 -34t19.5 -60q0 -58 -36.5 -87.5t-96.5 -29.5z" />
    <glyph glyph-name="acute" unicode="&#xb4;" horiz-adv-x="278" 
d="M55 580l87 152h110l-114 -152h-83z" />
    <glyph glyph-name="mu" unicode="&#xb5;" horiz-adv-x="541" 
d="M64 -178v698h111v-357q0 -41 21.5 -64t61.5 -23t70 33t30 82v329h111v-350q0 -54 48 -68l-1 -106q-105 19 -126 90q-17 -44 -50.5 -71t-82.5 -27q-77 0 -105 59l-4 -1l22 -215z" />
    <glyph glyph-name="paragraph" unicode="&#xb6;" horiz-adv-x="542" 
d="M218 -81v308q-81 11 -123.5 77.5t-42.5 159.5q0 101 53.5 175t135.5 74h259v-69h-59v-725h-65v725h-94v-725h-64z" />
    <glyph glyph-name="periodcentered" unicode="&#xb7;" horiz-adv-x="242" 
d="M64 273v135h113v-135h-113z" />
    <glyph glyph-name="periodcentered" unicode="&#x22c5;" horiz-adv-x="242" 
d="M64 273v135h113v-135h-113z" />
    <glyph glyph-name="cedilla" unicode="&#xb8;" horiz-adv-x="338" 
d="M155 -204q-50 0 -91 12v50q50 -12 88 -12q46 0 46 29q0 26 -51 30l-39 3l27 102h48l-17 -65q108 -2 108 -68q0 -36 -34 -58.5t-85 -22.5z" />
    <glyph glyph-name="onesuperior" unicode="&#xb9;" horiz-adv-x="263" 
d="M102 380v325l-49 -12l-8 59l93 26h44v-398h-80z" />
    <glyph glyph-name="ordmasculine" unicode="&#xba;" horiz-adv-x="363" 
d="M182 377q-60 0 -97 29.5t-37 90.5v105q0 60 37.5 91.5t94.5 31.5q60 0 97.5 -30t37.5 -92v-106q0 -60 -37.5 -90t-95.5 -30zM182 436q52 0 52 58v113q0 58 -52 58q-54 0 -54 -59v-112q0 -58 54 -58zM60 259v72h246v-72h-246z" />
    <glyph glyph-name="guillemotright" unicode="&#xbb;" horiz-adv-x="487" 
d="M100 93l-61 39l84 138l-86 138l62 38l138 -176zM313 93l-61 39l84 138l-86 138l62 38l138 -176z" />
    <glyph glyph-name="onequarter" unicode="&#xbc;" horiz-adv-x="749" 
d="M132 317v325l-49 -12l-8 59l93 26h44v-398h-80zM569 0v92h-159v57l143 248h83l-148 -244h81v59l80 54v-113h43v-61h-43v-92h-80zM134 -3l386 721h58l-386 -721h-58z" />
    <glyph glyph-name="onehalf" unicode="&#xbd;" horiz-adv-x="749" 
d="M129 317v325l-49 -12l-8 59l93 26h44v-398h-80zM450 0v50l95 105q68 83 68 129v3q0 51 -48 51q-49 0 -49 -50v-15h-75v21q0 51 34.5 79t90.5 28q59 0 91.5 -31t32.5 -82q0 -32 -14.5 -65t-29.5 -52t-46 -55l-44 -53h139v-63h-245zM132 -3l386 721h58l-386 -721h-58z" />
    <glyph glyph-name="threequarters" unicode="&#xbe;" horiz-adv-x="749" 
d="M583 0v92h-159v57l143 248h83l-148 -244h81v59l80 54v-113h43v-61h-43v-92h-80zM177 305q-63 0 -96.5 28.5t-33.5 76.5v16h75v-13q0 -22 15 -34t38 -12q53 0 53 61q0 32 -18 46t-38 14h-36v54h30q57 0 57 59q0 27 -14.5 40.5t-35.5 13.5q-23 0 -36.5 -12.5t-13.5 -34.5
v-11h-73v16q0 49 33.5 77t91.5 28q60 0 92.5 -29.5t32.5 -76.5q0 -32 -16 -58.5t-47 -35.5v-2q34 -8 53.5 -34t19.5 -60q0 -58 -36.5 -87.5t-96.5 -29.5zM171 -3l386 721h58l-386 -721h-58z" />
    <glyph glyph-name="questiondown" unicode="&#xbf;" horiz-adv-x="486" 
d="M242 -169q-91 0 -141.5 48t-50.5 133q-1 58 22.5 99.5t65.5 83.5l18.5 18.5t20.5 22.5t15 20.5t14 26.5t5 28v36h99v-33q-3 -79 -67 -149q-53 -56 -67 -82q-17 -32 -17 -68q0 -44 24 -69t67 -25q37 0 62.5 23t25.5 67v12h95v-11q0 -85 -54 -133t-137 -48zM204 419v135
h112v-135h-112z" />
    <glyph glyph-name="Agrave" unicode="&#xc0;" horiz-adv-x="607" 
d="M23 0l212 715h140l210 -715h-118l-53 191h-229l-53 -191h-109zM210 282h178l-87 316h-2zM253 763l-115 152h111l87 -152h-83z" />
    <glyph glyph-name="Aacute" unicode="&#xc1;" horiz-adv-x="607" 
d="M23 0l212 715h140l210 -715h-118l-53 191h-229l-53 -191h-109zM210 282h178l-87 316h-2zM280 764l87 152h110l-114 -152h-83z" />
    <glyph glyph-name="Acircumflex" unicode="&#xc2;" horiz-adv-x="607" 
d="M23 0l212 715h140l210 -715h-118l-53 191h-229l-53 -191h-109zM210 282h178l-87 316h-2zM159 765l102 156h79l100 -156h-88l-54 94l-55 -94h-84z" />
    <glyph glyph-name="Atilde" unicode="&#xc3;" horiz-adv-x="607" 
d="M23 0l212 715h140l210 -715h-118l-53 191h-229l-53 -191h-109zM210 282h178l-87 316h-2zM185 765l-56 10q6 48 31.5 80t67.5 32q25 0 75.5 -18t75.5 -18q18 0 28.5 11.5t18.5 35.5l50 -12q-7 -47 -31.5 -78.5t-65.5 -31.5q-27 0 -77 18t-73 18q-20 0 -28.5 -11t-15.5 -36
z" />
    <glyph glyph-name="Adieresis" unicode="&#xc4;" horiz-adv-x="607" 
d="M23 0l212 715h140l210 -715h-118l-53 191h-229l-53 -191h-109zM210 282h178l-87 316h-2zM178 782v124h93v-124h-93zM351 782v124h93v-124h-93z" />
    <glyph glyph-name="Aring" unicode="&#xc5;" horiz-adv-x="607" 
d="M23 0l212 715h140l210 -715h-118l-53 191h-229l-53 -191h-109zM210 282h178l-87 316h-2zM305 746q-42 0 -67.5 26t-25.5 66q0 41 26.5 68.5t65.5 27.5q43 0 68.5 -25t25.5 -66t-26.5 -69t-66.5 -28zM304 787q22 0 34.5 14t12.5 39q0 53 -48 53q-21 0 -32.5 -15t-11.5 -39
t12 -38t33 -14z" />
    <glyph glyph-name="AE" unicode="&#xc6;" horiz-adv-x="890" 
d="M21 0l327 713h492v-98h-305v-202h242v-98h-242v-216h305v-99h-422v184l-196 1l-83 -185h-118zM259 273h159v346h-2z" />
    <glyph glyph-name="Ccedilla" unicode="&#xc7;" horiz-adv-x="587" 
d="M301 -204q-50 0 -91 12v50q50 -12 88 -12q46 0 46 29q0 26 -51 30l-39 3l21 81q-99 8 -159.5 63.5t-60.5 156.5v296q0 102 70.5 161t178.5 59q100 0 165.5 -53.5t65.5 -142.5v-47h-105v33q0 51 -33.5 82.5t-93.5 31.5q-61 0 -95.5 -34.5t-34.5 -93.5v-284q0 -66 35.5 -99
t97.5 -33q57 0 90.5 30t33.5 79v38h105v-46q0 -87 -59.5 -139.5t-152.5 -57.5l-11 -44q108 -2 108 -68q0 -36 -34 -58.5t-85 -22.5z" />
    <glyph glyph-name="Egrave" unicode="&#xc8;" horiz-adv-x="545" 
d="M72 0v713h422v-99h-304v-200h242v-98h-242v-216h305v-100h-423zM264 764l-115 152h111l87 -152h-83z" />
    <glyph glyph-name="Eacute" unicode="&#xc9;" horiz-adv-x="545" 
d="M242 764l87 152h110l-114 -152h-83zM72 0v713h422v-99h-304v-200h242v-98h-242v-216h305v-100h-423z" />
    <glyph glyph-name="Ecircumflex" unicode="&#xca;" horiz-adv-x="545" 
d="M152 765l102 156h79l100 -156h-88l-54 94l-55 -94h-84zM72 0v713h422v-99h-304v-200h242v-98h-242v-216h305v-100h-423z" />
    <glyph glyph-name="Edieresis" unicode="&#xcb;" horiz-adv-x="545" 
d="M167 781v124h93v-124h-93zM340 781v124h93v-124h-93zM72 0v713h422v-99h-304v-200h242v-98h-242v-216h305v-100h-423z" />
    <glyph glyph-name="Igrave" unicode="&#xcc;" horiz-adv-x="255" 
d="M69 0v713h118v-713h-118zM75 764l-115 152h111l87 -152h-83z" />
    <glyph glyph-name="Iacute" unicode="&#xcd;" horiz-adv-x="255" 
d="M69 0v713h118v-713h-118zM100 764l87 152h110l-114 -152h-83z" />
    <glyph glyph-name="Icircumflex" unicode="&#xce;" horiz-adv-x="255" 
d="M69 0v713h118v-713h-118zM-9 765l102 156h79l100 -156h-88l-54 94l-55 -94h-84z" />
    <glyph glyph-name="Idieresis" unicode="&#xcf;" horiz-adv-x="255" 
d="M69 0v713h118v-713h-118zM5 781v124h93v-124h-93zM178 781v124h93v-124h-93z" />
    <glyph glyph-name="Eth" unicode="&#xd0;" horiz-adv-x="624" 
d="M32 326v79h56v308h250q104 0 168 -51.5t64 -152.5v-293q0 -106 -64 -161t-168 -55h-250v326h-56zM206 96h119q62 0 94 37t32 86v276q0 54 -32 88t-94 34h-119v-212h142v-79h-142v-230z" />
    <glyph glyph-name="Ntilde" unicode="&#xd1;" horiz-adv-x="636" 
d="M72 0v713h117l270 -477h2v477h105v-713h-100l-287 511h-2v-511h-105zM215 765l-56 10q6 48 31.5 80t67.5 32q26 0 76 -18t75 -18q18 0 28.5 11.5t18.5 35.5l50 -12q-7 -47 -31.5 -78.5t-65.5 -31.5q-27 0 -77 18t-73 18q-20 0 -28.5 -11t-15.5 -36z" />
    <glyph glyph-name="Ograve" unicode="&#xd2;" horiz-adv-x="611" 
d="M306 -12q-112 0 -181.5 56.5t-69.5 170.5v276q0 111 70 173t180 62q111 0 181.5 -57t70.5 -170v-276q0 -114 -70.5 -174.5t-180.5 -60.5zM307 87q61 0 96 36.5t35 95.5v282q0 59 -36.5 93t-98.5 34t-96 -37t-34 -99v-273q0 -61 35 -96.5t99 -35.5zM265 764l-115 152h111
l87 -152h-83z" />
    <glyph glyph-name="Oacute" unicode="&#xd3;" horiz-adv-x="611" 
d="M256 764l87 152h110l-114 -152h-83zM306 -12q-112 0 -181.5 56.5t-69.5 170.5v276q0 111 70 173t180 62q111 0 181.5 -57t70.5 -170v-276q0 -114 -70.5 -174.5t-180.5 -60.5zM307 87q61 0 96 36.5t35 95.5v282q0 59 -36.5 93t-98.5 34t-96 -37t-34 -99v-273
q0 -61 35 -96.5t99 -35.5z" />
    <glyph glyph-name="Ocircumflex" unicode="&#xd4;" horiz-adv-x="611" 
d="M163 765l102 156h79l100 -156h-88l-54 94l-55 -94h-84zM306 -12q-112 0 -181.5 56.5t-69.5 170.5v276q0 111 70 173t180 62q111 0 181.5 -57t70.5 -170v-276q0 -114 -70.5 -174.5t-180.5 -60.5zM307 87q61 0 96 36.5t35 95.5v282q0 59 -36.5 93t-98.5 34t-96 -37t-34 -99
v-273q0 -61 35 -96.5t99 -35.5z" />
    <glyph glyph-name="Otilde" unicode="&#xd5;" horiz-adv-x="611" 
d="M306 -12q-112 0 -181.5 56.5t-69.5 170.5v276q0 111 70 173t180 62q111 0 181.5 -57t70.5 -170v-276q0 -114 -70.5 -174.5t-180.5 -60.5zM307 87q61 0 96 36.5t35 95.5v282q0 59 -36.5 93t-98.5 34t-96 -37t-34 -99v-273q0 -61 35 -96.5t99 -35.5zM182 765l-56 10
q6 48 31.5 80t67.5 32q25 0 75 -18t76 -18q18 0 28.5 11.5t18.5 35.5l50 -12q-7 -47 -31.5 -78.5t-65.5 -31.5q-27 0 -77 18t-73 18q-20 0 -28.5 -11t-15.5 -36z" />
    <glyph glyph-name="Odieresis" unicode="&#xd6;" horiz-adv-x="611" 
d="M178 781v124h93v-124h-93zM351 781v124h93v-124h-93zM306 -12q-112 0 -181.5 56.5t-69.5 170.5v276q0 111 70 173t180 62q111 0 181.5 -57t70.5 -170v-276q0 -114 -70.5 -174.5t-180.5 -60.5zM307 87q61 0 96 36.5t35 95.5v282q0 59 -36.5 93t-98.5 34t-96 -37t-34 -99
v-273q0 -61 35 -96.5t99 -35.5z" />
    <glyph glyph-name="multiply" unicode="&#xd7;" 
d="M129 123l-50 51l142 145l-144 144l51 52l144 -144l141 143l51 -51l-142 -143q25 -26 80 -82t62 -63l-51 -51l-141 144q-24 -24 -75.5 -76.5t-67.5 -68.5z" />
    <glyph glyph-name="Oslash" unicode="&#xd8;" horiz-adv-x="607" 
d="M141 -69l-58 26l42 85q-72 59 -72 173v276q0 111 70 173t180 62q83 0 143 -32l34 68l58 -26l-40 -80q57 -59 57 -157v-276q0 -114 -70.5 -174.5t-180.5 -60.5q-71 0 -124 22zM171 219q0 -38 11 -61l216 437q-38 33 -97 33q-62 0 -96 -37t-34 -99v-273zM305 87
q61 0 96 36.5t35 95.5v282q0 8 -2 24l-207 -419q33 -19 78 -19z" />
    <glyph glyph-name="Ugrave" unicode="&#xd9;" horiz-adv-x="625" 
d="M309 -12q-109 0 -176 55t-67 168v502h118v-493q0 -70 37.5 -103t94.5 -33q60 0 95 36t33 97v496h113v-498q1 -107 -69 -167t-179 -60zM280 760l-115 152h111l87 -152h-83z" />
    <glyph glyph-name="Uacute" unicode="&#xda;" horiz-adv-x="625" 
d="M286 762l87 152h110l-114 -152h-83zM309 -12q-109 0 -176 55t-67 168v502h118v-493q0 -70 37.5 -103t94.5 -33q60 0 95 36t33 97v496h113v-498q1 -107 -69 -167t-179 -60z" />
    <glyph glyph-name="Ucircumflex" unicode="&#xdb;" horiz-adv-x="625" 
d="M181 763l102 156h79l100 -156h-88l-54 94l-55 -94h-84zM309 -12q-109 0 -176 55t-67 168v502h118v-493q0 -70 37.5 -103t94.5 -33q60 0 95 36t33 97v496h113v-498q1 -107 -69 -167t-179 -60z" />
    <glyph glyph-name="Udieresis" unicode="&#xdc;" horiz-adv-x="625" 
d="M196 781v124h93v-124h-93zM369 781v124h93v-124h-93zM309 -12q-109 0 -176 55t-67 168v502h118v-493q0 -70 37.5 -103t94.5 -33q60 0 95 36t33 97v496h113v-498q1 -107 -69 -167t-179 -60z" />
    <glyph glyph-name="Yacute" unicode="&#xdd;" horiz-adv-x="552" 
d="M217 0v294l-196 419h124l138 -311l137 311h111l-196 -420v-293h-118zM253 759l87 152h110l-114 -152h-83z" />
    <glyph glyph-name="Thorn" unicode="&#xde;" horiz-adv-x="578" 
d="M72 0v713h117v-134h130q104 0 157.5 -58t53.5 -150q0 -99 -57 -159.5t-165 -60.5h-119v-151h-117zM189 237h96q63 0 96.5 33.5t33.5 96.5q0 55 -30 90t-85 35h-111v-255z" />
    <glyph glyph-name="germandbls" unicode="&#xdf;" horiz-adv-x="634" 
d="M417 -12q-105 0 -169 67l56 72q25 -20 37 -28.5t34 -18t44 -9.5q37 0 56.5 21t19.5 54q0 64 -54.5 105t-129.5 57v91l24 1q41 20 64 57t23 79q0 102 -104 102q-51 0 -77 -29t-26 -77v-532h-109v427h-69v88h69v11q0 81 56.5 139.5t161.5 58.5q98 0 153 -51t55 -129
q0 -54 -27.5 -103t-79.5 -74v-1q88 -35 129 -91.5t41 -109.5q0 -84 -50.5 -130.5t-127.5 -46.5z" />
    <glyph glyph-name="agrave" unicode="&#xe0;" horiz-adv-x="498" 
d="M186 -11q-62 0 -104 38.5t-42 110.5q0 59 34.5 99t80 55.5t95.5 15.5h75v71q0 36 -22.5 55t-62.5 19q-39 0 -62.5 -19t-23.5 -52v-26h-99v31q0 67 55.5 105.5t139.5 38.5q81 0 133.5 -38.5t52.5 -114.5v-252q0 -21 5 -126h-101q0 4 -0.5 13.5t-1.5 27.5t-2 33h-4
q-23 -47 -64 -66t-82 -19zM230 71q39 0 67 30.5t28 75.5v60h-66q-108 0 -108 -83q0 -41 22 -62t57 -21zM212 580l-115 152h111l87 -152h-83z" />
    <glyph glyph-name="aacute" unicode="&#xe1;" horiz-adv-x="498" 
d="M186 -11q-62 0 -104 38.5t-42 110.5q0 59 34.5 99t80 55.5t95.5 15.5h75v71q0 36 -22.5 55t-62.5 19q-39 0 -62.5 -19t-23.5 -52v-26h-99v31q0 67 55.5 105.5t139.5 38.5q81 0 133.5 -38.5t52.5 -114.5v-252q0 -21 5 -126h-101q0 4 -0.5 13.5t-1.5 27.5t-2 33h-4
q-23 -47 -64 -66t-82 -19zM230 71q39 0 67 30.5t28 75.5v60h-66q-108 0 -108 -83q0 -41 22 -62t57 -21zM193 580l87 152h110l-114 -152h-83z" />
    <glyph glyph-name="acircumflex" unicode="&#xe2;" horiz-adv-x="498" 
d="M186 -11q-62 0 -104 38.5t-42 110.5q0 59 34.5 99t80 55.5t95.5 15.5h75v71q0 36 -22.5 55t-62.5 19q-39 0 -62.5 -19t-23.5 -52v-26h-99v31q0 67 55.5 105.5t139.5 38.5q81 0 133.5 -38.5t52.5 -114.5v-252q0 -21 5 -126h-101q0 4 -0.5 13.5t-1.5 27.5t-2 33h-4
q-23 -47 -64 -66t-82 -19zM230 71q39 0 67 30.5t28 75.5v60h-66q-108 0 -108 -83q0 -41 22 -62t57 -21zM99 581l102 156h79l100 -156h-88l-54 94l-55 -94h-84z" />
    <glyph glyph-name="atilde" unicode="&#xe3;" horiz-adv-x="498" 
d="M186 -11q-62 0 -104 38.5t-42 110.5q0 59 34.5 99t80 55.5t95.5 15.5h75v71q0 36 -22.5 55t-62.5 19q-39 0 -62.5 -19t-23.5 -52v-26h-99v31q0 67 55.5 105.5t139.5 38.5q81 0 133.5 -38.5t52.5 -114.5v-252q0 -21 5 -126h-101q0 4 -0.5 13.5t-1.5 27.5t-2 33h-4
q-23 -47 -64 -66t-82 -19zM230 71q39 0 67 30.5t28 75.5v60h-66q-108 0 -108 -83q0 -41 22 -62t57 -21zM124 581l-56 10q6 48 31.5 80t67.5 32q25 0 75 -18t76 -18q18 0 28.5 11.5t18.5 35.5l50 -12q-7 -47 -31.5 -78.5t-65.5 -31.5q-27 0 -77 18t-73 18q-20 0 -28.5 -11
t-15.5 -36z" />
    <glyph glyph-name="adieresis" unicode="&#xe4;" horiz-adv-x="498" 
d="M186 -11q-62 0 -104 38.5t-42 110.5q0 59 34.5 99t80 55.5t95.5 15.5h75v71q0 36 -22.5 55t-62.5 19q-39 0 -62.5 -19t-23.5 -52v-26h-99v31q0 67 55.5 105.5t139.5 38.5q81 0 133.5 -38.5t52.5 -114.5v-252q0 -21 5 -126h-101q0 4 -0.5 13.5t-1.5 27.5t-2 33h-4
q-23 -47 -64 -66t-82 -19zM230 71q39 0 67 30.5t28 75.5v60h-66q-108 0 -108 -83q0 -41 22 -62t57 -21zM117 597v124h93v-124h-93zM290 597v124h93v-124h-93z" />
    <glyph glyph-name="aring" unicode="&#xe5;" horiz-adv-x="498" 
d="M186 -11q-62 0 -104 38.5t-42 110.5q0 59 34.5 99t80 55.5t95.5 15.5h75v71q0 36 -22.5 55t-62.5 19q-39 0 -62.5 -19t-23.5 -52v-26h-99v31q0 67 55.5 105.5t139.5 38.5q81 0 133.5 -38.5t52.5 -114.5v-252q0 -21 5 -126h-101q0 4 -0.5 13.5t-1.5 27.5t-2 33h-4
q-23 -47 -64 -66t-82 -19zM230 71q39 0 67 30.5t28 75.5v60h-66q-108 0 -108 -83q0 -41 22 -62t57 -21zM246 569q-42 0 -67.5 26t-25.5 66q0 41 26.5 68.5t65.5 27.5q43 0 68.5 -25t25.5 -66t-26.5 -69t-66.5 -28zM245 610q22 0 34.5 14t12.5 39q0 53 -48 53
q-21 0 -32.5 -15t-11.5 -39t12 -38t33 -14z" />
    <glyph glyph-name="ae" unicode="&#xe6;" horiz-adv-x="766" 
d="M192 -12q-63 0 -107.5 39t-44.5 111q0 59 34.5 99t80 55.5t95.5 15.5h75v71q0 36 -22.5 55t-62.5 19q-38 0 -62 -19t-24 -52v-26h-99v31q0 68 55 106t140 38q103 0 138 -59q50 59 143 59q86 0 138 -49.5t52 -137.5v-114h-285v-52q0 -100 116 -100q64 0 127 34l29 -74
q-63 -50 -176 -50q-128 0 -172 94q-27 -53 -75.5 -73.5t-92.5 -20.5zM230 71q39 0 67 28.5t28 73.5v64h-55q-119 0 -119 -83q0 -41 22 -62t57 -21zM436 307h180v43q0 42 -21.5 70.5t-68.5 28.5q-44 0 -67 -27.5t-23 -68.5v-46z" />
    <glyph glyph-name="ccedilla" unicode="&#xe7;" horiz-adv-x="478" 
d="M254 -204q-50 0 -91 12v50q50 -12 88 -12q46 0 46 29q0 26 -51 30l-39 3l21 81q-80 5 -128.5 52t-48.5 134v164q0 91 56 141.5t141 50.5q86 0 137.5 -43t51.5 -115v-30h-101v23q0 32 -20.5 55.5t-63.5 23.5q-91 0 -91 -98v-175q0 -99 94 -99q44 0 62.5 26t18.5 58v20h101
v-33q0 -64 -43.5 -105.5t-117.5 -48.5l-11 -45q108 -2 108 -68q0 -36 -34 -58.5t-85 -22.5z" />
    <glyph glyph-name="egrave" unicode="&#xe8;" horiz-adv-x="493" 
d="M256 -12q-93 0 -149 47t-56 144v144q0 98 58 153t145 55q88 0 140 -51t52 -139v-111h-285v-50q0 -102 114 -102q53 0 129 34l29 -74q-67 -50 -177 -50zM161 307h180v43q0 42 -21.5 70.5t-68.5 28.5q-43 0 -66.5 -28t-23.5 -68v-46zM224 580l-115 152h111l87 -152h-83z
" />
    <glyph glyph-name="eacute" unicode="&#xe9;" horiz-adv-x="493" 
d="M217 580l87 152h110l-114 -152h-83zM256 -12q-93 0 -149 47t-56 144v144q0 98 58 153t145 55q88 0 140 -51t52 -139v-111h-285v-50q0 -102 114 -102q53 0 129 34l29 -74q-67 -50 -177 -50zM161 307h180v43q0 42 -21.5 70.5t-68.5 28.5q-43 0 -66.5 -28t-23.5 -68v-46z
" />
    <glyph glyph-name="ecircumflex" unicode="&#xea;" horiz-adv-x="493" 
d="M113 581l102 156h79l100 -156h-88l-54 94l-55 -94h-84zM256 -12q-93 0 -149 47t-56 144v144q0 98 58 153t145 55q88 0 140 -51t52 -139v-111h-285v-50q0 -102 114 -102q53 0 129 34l29 -74q-67 -50 -177 -50zM161 307h180v43q0 42 -21.5 70.5t-68.5 28.5q-43 0 -66.5 -28
t-23.5 -68v-46z" />
    <glyph glyph-name="edieresis" unicode="&#xeb;" horiz-adv-x="493" 
d="M122 597v124h93v-124h-93zM295 597v124h93v-124h-93zM256 -12q-93 0 -149 47t-56 144v144q0 98 58 153t145 55q88 0 140 -51t52 -139v-111h-285v-50q0 -102 114 -102q53 0 129 34l29 -74q-67 -50 -177 -50zM161 307h180v43q0 42 -21.5 70.5t-68.5 28.5q-43 0 -66.5 -28
t-23.5 -68v-46z" />
    <glyph glyph-name="igrave" unicode="&#xec;" horiz-adv-x="240" 
d="M66 0v519h109v-519h-109zM70 580l-115 152h111l87 -152h-83z" />
    <glyph glyph-name="iacute" unicode="&#xed;" horiz-adv-x="240" 
d="M76 580l87 152h110l-114 -152h-83zM66 0v519h109v-519h-109z" />
    <glyph glyph-name="icircumflex" unicode="&#xee;" horiz-adv-x="240" 
d="M-21 581l102 156h79l100 -156h-88l-54 94l-55 -94h-84zM66 0v519h109v-519h-109z" />
    <glyph glyph-name="idieresis" unicode="&#xef;" horiz-adv-x="240" 
d="M-4 597v124h93v-124h-93zM169 597v124h93v-124h-93zM66 0v519h109v-519h-109z" />
    <glyph glyph-name="eth" unicode="&#xf0;" horiz-adv-x="506" 
d="M253 -12q-91 0 -146.5 45t-55.5 139v160q0 83 49 132t121 50q25 0 38 -6l-50 74l-119 -35l-29 62l108 32l-42 64l114 29l39 -60l104 32l29 -62l-93 -29q65 -97 100 -153q35 -54 35 -123v-162q0 -94 -56 -141.5t-146 -47.5zM254 73q90 0 90 102v158q0 45 -22.5 73
t-67.5 28q-47 0 -70 -28.5t-23 -75.5v-157q0 -45 23 -72.5t70 -27.5z" />
    <glyph glyph-name="ntilde" unicode="&#xf1;" horiz-adv-x="524" 
d="M66 0v519h104v-82h2q48 94 158 94q56 0 95 -41t39 -102v-388h-109v366q0 41 -18 60t-56 19q-40 0 -73 -34t-33 -83v-328h-109zM163 581l-56 10q6 48 31.5 80t67.5 32q25 0 75.5 -18t75.5 -18q18 0 28.5 11.5t18.5 35.5l50 -12q-7 -47 -31.5 -78.5t-65.5 -31.5
q-27 0 -77 18t-73 18q-20 0 -28.5 -11t-15.5 -36z" />
    <glyph glyph-name="ograve" unicode="&#xf2;" horiz-adv-x="506" 
d="M253 -12q-89 0 -145.5 48t-56.5 142v159q0 92 56.5 143t143.5 51q90 0 147 -48.5t57 -142.5v-160q0 -95 -57 -143.5t-145 -48.5zM254 74q91 0 91 102v170q0 45 -23.5 72.5t-69.5 27.5t-68.5 -28.5t-22.5 -75.5v-167q0 -47 23 -74t70 -27zM216 580l-115 152h111l87 -152
h-83z" />
    <glyph glyph-name="oacute" unicode="&#xf3;" horiz-adv-x="506" 
d="M204 580l87 152h110l-114 -152h-83zM253 -12q-89 0 -145.5 48t-56.5 142v159q0 92 56.5 143t143.5 51q90 0 147 -48.5t57 -142.5v-160q0 -95 -57 -143.5t-145 -48.5zM254 74q91 0 91 102v170q0 45 -23.5 72.5t-69.5 27.5t-68.5 -28.5t-22.5 -75.5v-167q0 -47 23 -74
t70 -27z" />
    <glyph glyph-name="ocircumflex" unicode="&#xf4;" horiz-adv-x="506" 
d="M116 581l102 156h79l100 -156h-88l-54 94l-55 -94h-84zM253 -12q-89 0 -145.5 48t-56.5 142v159q0 92 56.5 143t143.5 51q90 0 147 -48.5t57 -142.5v-160q0 -95 -57 -143.5t-145 -48.5zM254 74q91 0 91 102v170q0 45 -23.5 72.5t-69.5 27.5t-68.5 -28.5t-22.5 -75.5v-167
q0 -47 23 -74t70 -27z" />
    <glyph glyph-name="otilde" unicode="&#xf5;" horiz-adv-x="506" 
d="M253 -12q-89 0 -145.5 48t-56.5 142v159q0 92 56.5 143t143.5 51q90 0 147 -48.5t57 -142.5v-160q0 -95 -57 -143.5t-145 -48.5zM254 74q91 0 91 102v170q0 45 -23.5 72.5t-69.5 27.5t-68.5 -28.5t-22.5 -75.5v-167q0 -47 23 -74t70 -27zM133 581l-56 10q6 48 31.5 80
t67.5 32q25 0 75.5 -18t75.5 -18q18 0 28.5 11.5t18.5 35.5l50 -12q-7 -47 -31.5 -78.5t-65.5 -31.5q-27 0 -77 18t-73 18q-20 0 -28.5 -11t-15.5 -36z" />
    <glyph glyph-name="odieresis" unicode="&#xf6;" horiz-adv-x="506" 
d="M126 597v124h93v-124h-93zM299 597v124h93v-124h-93zM253 -12q-89 0 -145.5 48t-56.5 142v159q0 92 56.5 143t143.5 51q90 0 147 -48.5t57 -142.5v-160q0 -95 -57 -143.5t-145 -48.5zM254 74q91 0 91 102v170q0 45 -23.5 72.5t-69.5 27.5t-68.5 -28.5t-22.5 -75.5v-167
q0 -47 23 -74t70 -27z" />
    <glyph glyph-name="divide" unicode="&#xf7;" 
d="M224 95v115h96v-115h-96zM70 283v72h400v-72h-400zM224 419v114h96v-114h-96z" />
    <glyph glyph-name="oslash" unicode="&#xf8;" horiz-adv-x="506" 
d="M136 -72l-52 26l35 72q-68 49 -68 152v159q0 92 56.5 143t143.5 51q60 0 105 -22l32 65l53 -26l-36 -73q50 -50 50 -135v-160q0 -95 -57 -143.5t-145 -48.5q-45 0 -82 12zM161 175q0 -30 8 -49l146 299q-24 21 -63 21q-46 0 -68.5 -28.5t-22.5 -75.5v-167zM254 74
q91 0 91 102v177l-134 -272q17 -7 43 -7z" />
    <glyph glyph-name="ugrave" unicode="&#xf9;" horiz-adv-x="523" 
d="M204 -12q-59 0 -100 37.5t-41 104.5v389h109v-360q0 -43 16 -64t56 -21q44 0 76 35.5t32 86.5v323h109v-519h-102l-3 83h-2q-17 -41 -59 -68t-91 -27zM224 580l-115 152h111l87 -152h-83z" />
    <glyph glyph-name="uacute" unicode="&#xfa;" horiz-adv-x="523" 
d="M224 580l87 152h110l-114 -152h-83zM204 -12q-59 0 -100 37.5t-41 104.5v389h109v-360q0 -43 16 -64t56 -21q44 0 76 35.5t32 86.5v323h109v-519h-102l-3 83h-2q-17 -41 -59 -68t-91 -27z" />
    <glyph glyph-name="ucircumflex" unicode="&#xfb;" horiz-adv-x="523" 
d="M127 581l102 156h79l100 -156h-88l-54 94l-55 -94h-84zM204 -12q-59 0 -100 37.5t-41 104.5v389h109v-360q0 -43 16 -64t56 -21q44 0 76 35.5t32 86.5v323h109v-519h-102l-3 83h-2q-17 -41 -59 -68t-91 -27z" />
    <glyph glyph-name="udieresis" unicode="&#xfc;" horiz-adv-x="523" 
d="M139 597v124h93v-124h-93zM312 597v124h93v-124h-93zM204 -12q-59 0 -100 37.5t-41 104.5v389h109v-360q0 -43 16 -64t56 -21q44 0 76 35.5t32 86.5v323h109v-519h-102l-3 83h-2q-17 -41 -59 -68t-91 -27z" />
    <glyph glyph-name="yacute" unicode="&#xfd;" horiz-adv-x="470" 
d="M115 -189q-36 0 -70 8v90q33 -7 58 -7q51 0 68 50l17 59l-169 508h115l111 -369h1l107 369h99l-179 -571q-42 -137 -158 -137zM205 580l87 152h110l-114 -152h-83z" />
    <glyph glyph-name="thorn" unicode="&#xfe;" horiz-adv-x="518" 
d="M66 -179v892h109v-268h3q21 42 61.5 64.5t82.5 22.5q70 0 107.5 -47t37.5 -117v-207q0 -75 -45 -124t-113 -49q-39 0 -77.5 20.5t-54.5 55.5h-2v-243h-109zM282 67q76 0 76 91v202q0 85 -82 85q-42 0 -71.5 -36.5t-29.5 -94.5v-118q0 -55 33 -92t74 -37z" />
    <glyph glyph-name="ydieresis" unicode="&#xff;" horiz-adv-x="470" 
d="M115 -189q-36 0 -70 8v90q33 -7 58 -7q51 0 68 50l17 59l-169 508h115l111 -369h1l107 369h99l-179 -571q-42 -137 -158 -137zM126 597v124h93v-124h-93zM299 597v124h93v-124h-93z" />
    <glyph glyph-name="Amacron" unicode="&#x100;" horiz-adv-x="607" 
d="M23 0l212 715h140l210 -715h-118l-53 191h-229l-53 -191h-109zM210 282h178l-87 316h-2zM155 786v78h296v-78h-296z" />
    <glyph glyph-name="amacron" unicode="&#x101;" horiz-adv-x="498" 
d="M186 -11q-62 0 -104 38.5t-42 110.5q0 59 34.5 99t80 55.5t95.5 15.5h75v71q0 36 -22.5 55t-62.5 19q-39 0 -62.5 -19t-23.5 -52v-26h-99v31q0 67 55.5 105.5t139.5 38.5q81 0 133.5 -38.5t52.5 -114.5v-252q0 -21 5 -126h-101q0 4 -0.5 13.5t-1.5 27.5t-2 33h-4
q-23 -47 -64 -66t-82 -19zM230 71q39 0 67 30.5t28 75.5v60h-66q-108 0 -108 -83q0 -41 22 -62t57 -21zM101 602v78h296v-78h-296z" />
    <glyph glyph-name="Abreve" unicode="&#x102;" horiz-adv-x="607" 
d="M23 0l212 715h140l210 -715h-118l-53 191h-229l-53 -191h-109zM210 282h178l-87 316h-2zM306 767q-72 0 -114.5 39.5t-45.5 108.5h76q6 -40 25.5 -60.5t62.5 -20.5q70 0 77 81h73q-3 -71 -46.5 -109.5t-107.5 -38.5z" />
    <glyph glyph-name="abreve" unicode="&#x103;" horiz-adv-x="498" 
d="M186 -11q-62 0 -104 38.5t-42 110.5q0 59 34.5 99t80 55.5t95.5 15.5h75v71q0 36 -22.5 55t-62.5 19q-39 0 -62.5 -19t-23.5 -52v-26h-99v31q0 67 55.5 105.5t139.5 38.5q81 0 133.5 -38.5t52.5 -114.5v-252q0 -21 5 -126h-101q0 4 -0.5 13.5t-1.5 27.5t-2 33h-4
q-23 -47 -64 -66t-82 -19zM230 71q39 0 67 30.5t28 75.5v60h-66q-108 0 -108 -83q0 -41 22 -62t57 -21zM252 583q-72 0 -114.5 39.5t-45.5 108.5h76q6 -40 25.5 -60.5t62.5 -20.5q70 0 77 81h73q-3 -71 -46.5 -109.5t-107.5 -38.5z" />
    <glyph glyph-name="Aogonek" unicode="&#x104;" horiz-adv-x="607" 
d="M514 -202q-43 0 -72.5 23.5t-29.5 68.5q0 65 59 110h-4l-53 191h-229l-53 -191h-109l212 715h140l210 -715h-33q-32 -13 -52 -38t-20 -55q0 -50 49 -50q26 0 54 18l27 -50q-36 -27 -96 -27zM210 282h178l-87 316h-2z" />
    <glyph glyph-name="aogonek" unicode="&#x105;" horiz-adv-x="498" 
d="M380 -202q-43 0 -72.5 23.5t-29.5 68.5q0 66 62 112q0 5 -0.5 14.5t-1.5 27t-2 30.5h-4q-23 -47 -64 -66t-82 -19q-62 0 -104 38.5t-42 110.5q0 59 34.5 99t80 55.5t95.5 15.5h75v71q0 36 -22.5 55t-62.5 19q-39 0 -62.5 -19t-23.5 -52v-26h-99v31q0 67 55.5 105.5
t139.5 38.5q81 0 133.5 -38.5t52.5 -114.5v-252q0 -21 5 -126h-23q-32 -13 -52 -38t-20 -55q0 -50 49 -50q26 0 54 18l27 -50q-36 -27 -96 -27zM230 71q39 0 67 30.5t28 75.5v60h-66q-108 0 -108 -83q0 -41 22 -62t57 -21z" />
    <glyph glyph-name="Cacute" unicode="&#x106;" horiz-adv-x="587" 
d="M305 -12q-110 0 -180 56t-70 165v296q0 102 70.5 161t178.5 59q100 0 165.5 -53.5t65.5 -142.5v-47h-105v33q0 51 -33.5 82.5t-93.5 31.5q-61 0 -95.5 -34.5t-34.5 -93.5v-284q0 -66 35.5 -99t97.5 -33q57 0 90.5 30t33.5 79v38h105v-46q0 -92 -65 -145t-165 -53z
M257 764l87 152h110l-114 -152h-83z" />
    <glyph glyph-name="cacute" unicode="&#x107;" horiz-adv-x="478" 
d="M248 -12q-88 0 -142.5 47.5t-54.5 139.5v164q0 91 56 141.5t141 50.5q86 0 137.5 -43t51.5 -115v-30h-101v23q0 32 -20.5 55.5t-63.5 23.5q-91 0 -91 -98v-175q0 -99 94 -99q44 0 62.5 26t18.5 58v20h101v-33q0 -70 -52 -113t-137 -43zM197 580l87 152h110l-114 -152h-83
z" />
    <glyph glyph-name="Ccircumflex" unicode="&#x108;" horiz-adv-x="587" 
d="M305 -12q-110 0 -180 56t-70 165v296q0 102 70.5 161t178.5 59q100 0 165.5 -53.5t65.5 -142.5v-47h-105v33q0 51 -33.5 82.5t-93.5 31.5q-61 0 -95.5 -34.5t-34.5 -93.5v-284q0 -66 35.5 -99t97.5 -33q57 0 90.5 30t33.5 79v38h105v-46q0 -92 -65 -145t-165 -53z
M153 765l102 156h79l100 -156h-88l-54 94l-55 -94h-84z" />
    <glyph glyph-name="ccircumflex" unicode="&#x109;" horiz-adv-x="478" 
d="M248 -12q-88 0 -142.5 47.5t-54.5 139.5v164q0 91 56 141.5t141 50.5q86 0 137.5 -43t51.5 -115v-30h-101v23q0 32 -20.5 55.5t-63.5 23.5q-91 0 -91 -98v-175q0 -99 94 -99q44 0 62.5 26t18.5 58v20h101v-33q0 -70 -52 -113t-137 -43zM98 581l102 156h79l100 -156h-88
l-54 94l-55 -94h-84z" />
    <glyph glyph-name="Cdotaccent" unicode="&#x10a;" horiz-adv-x="587" 
d="M305 -12q-110 0 -180 56t-70 165v296q0 102 70.5 161t178.5 59q100 0 165.5 -53.5t65.5 -142.5v-47h-105v33q0 51 -33.5 82.5t-93.5 31.5q-61 0 -95.5 -34.5t-34.5 -93.5v-284q0 -66 35.5 -99t97.5 -33q57 0 90.5 30t33.5 79v38h105v-46q0 -92 -65 -145t-165 -53z
M244 781v126h99v-126h-99z" />
    <glyph glyph-name="cdotaccent" unicode="&#x10b;" horiz-adv-x="478" 
d="M248 -12q-88 0 -142.5 47.5t-54.5 139.5v164q0 91 56 141.5t141 50.5q86 0 137.5 -43t51.5 -115v-30h-101v23q0 32 -20.5 55.5t-63.5 23.5q-91 0 -91 -98v-175q0 -99 94 -99q44 0 62.5 26t18.5 58v20h101v-33q0 -70 -52 -113t-137 -43zM199 597v126h99v-126h-99z" />
    <glyph glyph-name="Ccaron" unicode="&#x10c;" horiz-adv-x="587" 
d="M305 -12q-110 0 -180 56t-70 165v296q0 102 70.5 161t178.5 59q100 0 165.5 -53.5t65.5 -142.5v-47h-105v33q0 51 -33.5 82.5t-93.5 31.5q-61 0 -95.5 -34.5t-34.5 -93.5v-284q0 -66 35.5 -99t97.5 -33q57 0 90.5 30t33.5 79v38h105v-46q0 -92 -65 -145t-165 -53z
M251 769l-99 156h87l55 -94l55 94h86l-104 -156h-80z" />
    <glyph glyph-name="ccaron" unicode="&#x10d;" horiz-adv-x="478" 
d="M248 -12q-88 0 -142.5 47.5t-54.5 139.5v164q0 91 56 141.5t141 50.5q86 0 137.5 -43t51.5 -115v-30h-101v23q0 32 -20.5 55.5t-63.5 23.5q-91 0 -91 -98v-175q0 -99 94 -99q44 0 62.5 26t18.5 58v20h101v-33q0 -70 -52 -113t-137 -43zM212 585l-99 156h87l55 -94l55 94
h86l-104 -156h-80z" />
    <glyph glyph-name="Dcaron" unicode="&#x10e;" horiz-adv-x="608" 
d="M72 0v713h250q104 0 168 -51.5t64 -152.5v-293q0 -106 -64 -161t-168 -55h-250zM190 96h119q62 0 94 37t32 86v276q0 54 -32 88t-94 34h-119v-521zM261 769l-99 156h87l55 -94l55 94h86l-104 -156h-80z" />
    <glyph glyph-name="dcaron" unicode="&#x10f;" horiz-adv-x="518" 
d="M197 -12q-72 0 -109 47t-37 118v208q0 74 46.5 122t114.5 48q37 0 72 -19.5t57 -51.5h1v253h110v-713h-100l-5 83h-3q-25 -46 -63.5 -70.5t-83.5 -24.5zM239 74q41 0 72.5 36t31.5 89v133q0 50 -34 85t-73 35q-76 0 -76 -95v-198q0 -85 79 -85zM486 531l8 182h93
l-26 -182h-75z" />
    <glyph glyph-name="Dcroat" unicode="&#x110;" horiz-adv-x="624" 
d="M32 326v79h56v308h250q104 0 168 -51.5t64 -152.5v-293q0 -106 -64 -161t-168 -55h-250v326h-56zM206 96h119q62 0 94 37t32 86v276q0 54 -32 88t-94 34h-119v-212h142v-79h-142v-230z" />
    <glyph glyph-name="dcroat" unicode="&#x111;" horiz-adv-x="518" 
d="M212 579v63h130v71h110v-71h52v-63h-52v-579h-100l-5 83h-3q-25 -46 -63.5 -70.5t-83.5 -24.5q-72 0 -109 47t-37 118v208q0 74 46.5 122t114.5 48q37 0 72 -19.5t57 -51.5h1v119h-130zM239 74q41 0 72.5 36t31.5 89v133q0 50 -34 85t-73 35q-76 0 -76 -95v-198
q0 -85 79 -85z" />
    <glyph glyph-name="Emacron" unicode="&#x112;" horiz-adv-x="545" 
d="M72 0v713h422v-99h-304v-200h242v-98h-242v-216h305v-100h-423zM133 786v78h296v-78h-296z" />
    <glyph glyph-name="emacron" unicode="&#x113;" horiz-adv-x="493" 
d="M256 -12q-93 0 -149 47t-56 144v144q0 98 58 153t145 55q88 0 140 -51t52 -139v-111h-285v-50q0 -102 114 -102q53 0 129 34l29 -74q-67 -50 -177 -50zM161 307h180v43q0 42 -21.5 70.5t-68.5 28.5q-43 0 -66.5 -28t-23.5 -68v-46zM98 602v78h296v-78h-296z" />
    <glyph glyph-name="Ebreve" unicode="&#x114;" horiz-adv-x="545" 
d="M72 0v713h422v-99h-304v-200h242v-98h-242v-216h305v-100h-423zM295 767q-72 0 -114.5 39.5t-45.5 108.5h76q6 -40 25.5 -60.5t62.5 -20.5q70 0 77 81h73q-3 -71 -46.5 -109.5t-107.5 -38.5z" />
    <glyph glyph-name="ebreve" unicode="&#x115;" horiz-adv-x="493" 
d="M256 -12q-93 0 -149 47t-56 144v144q0 98 58 153t145 55q88 0 140 -51t52 -139v-111h-285v-50q0 -102 114 -102q53 0 129 34l29 -74q-67 -50 -177 -50zM161 307h180v43q0 42 -21.5 70.5t-68.5 28.5q-43 0 -66.5 -28t-23.5 -68v-46zM249 583q-72 0 -114.5 39.5
t-45.5 108.5h76q6 -40 25.5 -60.5t62.5 -20.5q70 0 77 81h73q-3 -71 -46.5 -109.5t-107.5 -38.5z" />
    <glyph glyph-name="Edotaccent" unicode="&#x116;" horiz-adv-x="545" 
d="M72 0v713h422v-99h-304v-200h242v-98h-242v-216h305v-100h-423zM249 781v126h99v-126h-99z" />
    <glyph glyph-name="edotaccent" unicode="&#x117;" horiz-adv-x="493" 
d="M256 -12q-93 0 -149 47t-56 144v144q0 98 58 153t145 55q88 0 140 -51t52 -139v-111h-285v-50q0 -102 114 -102q53 0 129 34l29 -74q-67 -50 -177 -50zM161 307h180v43q0 42 -21.5 70.5t-68.5 28.5q-43 0 -66.5 -28t-23.5 -68v-46zM197 597v126h99v-126h-99z" />
    <glyph glyph-name="Eogonek" unicode="&#x118;" horiz-adv-x="545" 
d="M72 0v713h422v-99h-304v-200h242v-98h-242v-216h305v-100h-39q-32 -13 -52 -38t-20 -55q0 -50 49 -50q26 0 54 18l27 -50q-36 -27 -96 -27q-43 0 -72.5 23.5t-29.5 68.5q0 65 59 110h-303z" />
    <glyph glyph-name="eogonek" unicode="&#x119;" horiz-adv-x="493" 
d="M256 -12q-93 0 -149 47t-56 144v144q0 98 58 153t145 55q88 0 140 -51t52 -139v-111h-285v-50q0 -102 114 -102q53 0 129 34l29 -74q-19 -14 -38 -23q-29 -17 -46.5 -47t-17.5 -61q0 -24 13 -37.5t36 -13.5q24 0 54 19l27 -50q-36 -27 -96 -27q-43 0 -72.5 23.5
t-29.5 68.5q0 55 43 101q-26 -3 -50 -3zM161 307h180v43q0 42 -21.5 70.5t-68.5 28.5q-43 0 -66.5 -28t-23.5 -68v-46z" />
    <glyph glyph-name="Ecaron" unicode="&#x11a;" horiz-adv-x="545" 
d="M72 0v713h422v-99h-304v-200h242v-98h-242v-216h305v-100h-423zM252 769l-99 156h87l55 -94l55 94h86l-104 -156h-80z" />
    <glyph glyph-name="ecaron" unicode="&#x11b;" horiz-adv-x="493" 
d="M256 -12q-93 0 -149 47t-56 144v144q0 98 58 153t145 55q88 0 140 -51t52 -139v-111h-285v-50q0 -102 114 -102q53 0 129 34l29 -74q-67 -50 -177 -50zM161 307h180v43q0 42 -21.5 70.5t-68.5 28.5q-43 0 -66.5 -28t-23.5 -68v-46zM204 585l-99 156h87l55 -94l55 94h86
l-104 -156h-80z" />
    <glyph glyph-name="Gcircumflex" unicode="&#x11c;" horiz-adv-x="596" 
d="M304 -12q-109 0 -179 56t-70 165v293q0 103 70.5 163.5t178.5 60.5q101 0 168 -52t67 -141v-46h-107v34q0 50 -35 80.5t-92 30.5q-62 0 -97.5 -36.5t-35.5 -95.5v-286q0 -61 35.5 -96t98.5 -35q124 0 124 112v100h-128v88h239v-196q-1 -92 -67.5 -145.5t-169.5 -53.5z
M157 765l102 156h79l100 -156h-88l-54 94l-55 -94h-84z" />
    <glyph glyph-name="gcircumflex" unicode="&#x11d;" horiz-adv-x="515" 
d="M241 -188q-114 0 -186 38l33 87q77 -36 144 -36q111 0 111 97v110h-1q-21 -45 -59 -68t-80 -23q-73 0 -112.5 42t-39.5 110v203q0 72 48.5 116t116.5 44q41 0 80.5 -22.5t57.5 -61.5h1l4 72h93v-500q0 -100 -55 -154t-156 -54zM238 99q40 0 72 39.5t32 94.5v105
q0 49 -32.5 82t-69.5 33q-80 0 -80 -98v-168q0 -88 78 -88zM117 581l102 156h79l100 -156h-88l-54 94l-55 -94h-84z" />
    <glyph glyph-name="Gbreve" unicode="&#x11e;" horiz-adv-x="596" 
d="M304 -12q-109 0 -179 56t-70 165v293q0 103 70.5 163.5t178.5 60.5q101 0 168 -52t67 -141v-46h-107v34q0 50 -35 80.5t-92 30.5q-62 0 -97.5 -36.5t-35.5 -95.5v-286q0 -61 35.5 -96t98.5 -35q124 0 124 112v100h-128v88h239v-196q-1 -92 -67.5 -145.5t-169.5 -53.5z
M301 767q-72 0 -114.5 39.5t-45.5 108.5h76q6 -40 25.5 -60.5t62.5 -20.5q70 0 77 81h73q-3 -71 -46.5 -109.5t-107.5 -38.5z" />
    <glyph glyph-name="gbreve" unicode="&#x11f;" horiz-adv-x="515" 
d="M241 -188q-114 0 -186 38l33 87q77 -36 144 -36q111 0 111 97v110h-1q-21 -45 -59 -68t-80 -23q-73 0 -112.5 42t-39.5 110v203q0 72 48.5 116t116.5 44q41 0 80.5 -22.5t57.5 -61.5h1l4 72h93v-500q0 -100 -55 -154t-156 -54zM238 99q40 0 72 39.5t32 94.5v105
q0 49 -32.5 82t-69.5 33q-80 0 -80 -98v-168q0 -88 78 -88zM244 583q-72 0 -114.5 39.5t-45.5 108.5h76q6 -40 25.5 -60.5t62.5 -20.5q70 0 77 81h73q-3 -71 -46.5 -109.5t-107.5 -38.5z" />
    <glyph glyph-name="Gdotaccent" unicode="&#x120;" horiz-adv-x="596" 
d="M304 -12q-109 0 -179 56t-70 165v293q0 103 70.5 163.5t178.5 60.5q101 0 168 -52t67 -141v-46h-107v34q0 50 -35 80.5t-92 30.5q-62 0 -97.5 -36.5t-35.5 -95.5v-286q0 -61 35.5 -96t98.5 -35q124 0 124 112v100h-128v88h239v-196q-1 -92 -67.5 -145.5t-169.5 -53.5z
M248 781v126h99v-126h-99z" />
    <glyph glyph-name="gdotaccent" unicode="&#x121;" horiz-adv-x="515" 
d="M241 -188q-114 0 -186 38l33 87q77 -36 144 -36q111 0 111 97v110h-1q-21 -45 -59 -68t-80 -23q-73 0 -112.5 42t-39.5 110v203q0 72 48.5 116t116.5 44q41 0 80.5 -22.5t57.5 -61.5h1l4 72h93v-500q0 -100 -55 -154t-156 -54zM238 99q40 0 72 39.5t32 94.5v105
q0 49 -32.5 82t-69.5 33q-80 0 -80 -98v-168q0 -88 78 -88zM208 597v126h99v-126h-99z" />
    <glyph glyph-name="Gcommaaccent" unicode="&#x122;" horiz-adv-x="596" 
d="M304 -12q-109 0 -179 56t-70 165v293q0 103 70.5 163.5t178.5 60.5q101 0 168 -52t67 -141v-46h-107v34q0 50 -35 80.5t-92 30.5q-62 0 -97.5 -36.5t-35.5 -95.5v-286q0 -61 35.5 -96t98.5 -35q124 0 124 112v100h-128v88h239v-196q-1 -92 -67.5 -145.5t-169.5 -53.5z
M253 -201l8 165h94l-27 -165h-75z" />
    <glyph glyph-name="gcommaaccent" unicode="&#x123;" horiz-adv-x="515" 
d="M241 -188q-114 0 -186 38l33 87q77 -36 144 -36q111 0 111 97v110h-1q-21 -45 -59 -68t-80 -23q-73 0 -112.5 42t-39.5 110v203q0 72 48.5 116t116.5 44q41 0 80.5 -22.5t57.5 -61.5h1l4 72h93v-500q0 -100 -55 -154t-156 -54zM238 99q40 0 72 39.5t32 94.5v105
q0 49 -32.5 82t-69.5 33q-80 0 -80 -98v-168q0 -88 78 -88zM189 584v79l33 100h48l-16 -81h33v-98h-98z" />
    <glyph glyph-name="Hcircumflex" unicode="&#x124;" horiz-adv-x="635" 
d="M72 0v713h118v-294h256v294h117v-713h-117v314h-256v-314h-118zM177 765l102 156h79l100 -156h-88l-54 94l-55 -94h-84z" />
    <glyph glyph-name="hcircumflex" unicode="&#x125;" horiz-adv-x="526" 
d="M66 0v713h109v-270h2q22 43 63.5 65.5t89.5 22.5q59 0 96.5 -40.5t37.5 -102.5v-388h-109v363q0 42 -17 62t-57 20t-73 -34t-33 -83v-328h-109zM-17 764l102 156h79l100 -156h-88l-54 94l-55 -94h-84z" />
    <glyph glyph-name="Hbar" unicode="&#x126;" horiz-adv-x="657" 
d="M22 544v65h61v104h118v-104h256v104h117v-104h61v-65h-61v-544h-117v314h-256v-314h-118v544h-61zM201 419h256v125h-256v-125z" />
    <glyph glyph-name="hbar" unicode="&#x127;" horiz-adv-x="526" 
d="M17 579v63h49v71h109v-71h130v-63h-130v-136h2q22 43 63.5 65.5t89.5 22.5q59 0 96.5 -40.5t37.5 -102.5v-388h-109v363q0 42 -17 62t-57 20t-73 -34t-33 -83v-328h-109v579h-49z" />
    <glyph glyph-name="Itilde" unicode="&#x128;" horiz-adv-x="262" 
d="M72 0v713h118v-713h-118zM14 765l-56 10q6 48 31.5 80t67.5 32q25 0 75 -18t76 -18q18 0 28.5 11.5t18.5 35.5l50 -12q-7 -47 -31.5 -78.5t-65.5 -31.5q-27 0 -77 18t-73 18q-20 0 -28.5 -11t-15.5 -36z" />
    <glyph glyph-name="itilde" unicode="&#x129;" horiz-adv-x="240" 
d="M66 0v519h109v-519h-109zM3 581l-56 10q6 48 31.5 80t67.5 32q25 0 75.5 -18t75.5 -18q18 0 28.5 11.5t18.5 35.5l50 -12q-7 -47 -31.5 -78.5t-65.5 -31.5q-27 0 -77 18t-73 18q-20 0 -28.5 -11t-15.5 -36z" />
    <glyph glyph-name="Imacron" unicode="&#x12a;" horiz-adv-x="262" 
d="M72 0v713h118v-713h-118zM-17 786v78h296v-78h-296z" />
    <glyph glyph-name="imacron" unicode="&#x12b;" horiz-adv-x="240" 
d="M66 0v519h109v-519h-109zM-28 602v78h296v-78h-296z" />
    <glyph glyph-name="Ibreve" unicode="&#x12c;" horiz-adv-x="262" 
d="M72 0v713h118v-713h-118zM134 767q-72 0 -114.5 39.5t-45.5 108.5h76q6 -40 25.5 -60.5t62.5 -20.5q70 0 77 81h73q-3 -71 -46.5 -109.5t-107.5 -38.5z" />
    <glyph glyph-name="ibreve" unicode="&#x12d;" horiz-adv-x="240" 
d="M66 0v519h109v-519h-109zM123 583q-72 0 -114.5 39.5t-45.5 108.5h76q6 -40 25.5 -60.5t62.5 -20.5q70 0 77 81h73q-3 -71 -46.5 -109.5t-107.5 -38.5z" />
    <glyph glyph-name="Iogonek" unicode="&#x12e;" horiz-adv-x="262" 
d="M72 0v713h118v-713h-19q-58 -29 -58 -91q0 -49 49 -49q18 0 35 11l22 -50q-31 -20 -77 -20q-39 0 -68 24.5t-29 68.5q0 61 51 106h-24z" />
    <glyph glyph-name="iogonek" unicode="&#x12f;" horiz-adv-x="240" 
d="M66 0v519h109v-519h-2q-58 -29 -58 -91q0 -49 49 -49q18 0 35 11l22 -50q-31 -20 -77 -20q-39 0 -68 24.5t-29 68.5q0 61 51 106h-32zM66 589v124h109v-124h-109z" />
    <glyph glyph-name="Idotaccent" unicode="&#x130;" horiz-adv-x="262" 
d="M72 0v713h118v-713h-118zM81 781v126h99v-126h-99z" />
    <glyph glyph-name="dotlessi" unicode="&#x131;" horiz-adv-x="240" 
d="M66 0v519h109v-519h-109z" />
    <glyph glyph-name="IJ" unicode="&#x132;" horiz-adv-x="784" 
d="M72 0v713h118v-713h-118zM493 -12q-109 0 -168.5 50.5t-59.5 154.5v63h112v-59q0 -114 113 -114q59 0 85.5 33t26.5 81v516h117v-502q0 -102 -58.5 -162.5t-167.5 -60.5z" />
    <glyph glyph-name="ij" unicode="&#x133;" horiz-adv-x="455" 
d="M66 0v519h109v-519h-109zM66 589v124h109v-124h-109zM261 -188q-32 0 -55 4v89q10 -2 26 -2q31 0 40.5 16t9.5 49v551h109v-571q0 -68 -34.5 -102t-95.5 -34zM282 589v124h109v-124h-109z" />
    <glyph glyph-name="Jcircumflex" unicode="&#x134;" horiz-adv-x="545" 
d="M254 -12q-109 0 -168.5 50.5t-59.5 154.5v63h112v-59q0 -114 113 -114q59 0 85.5 33t26.5 81v516h117v-502q0 -102 -58.5 -162.5t-167.5 -60.5zM259 765l102 156h79l100 -156h-88l-54 94l-55 -94h-84z" />
    <glyph glyph-name="jcircumflex" unicode="&#x135;" horiz-adv-x="247" 
d="M53 -188q-32 0 -55 4v89q10 -2 26 -2q31 0 40.5 16t9.5 49v551h109v-571q0 -68 -34.5 -102t-95.5 -34zM-17 581l102 156h79l100 -156h-88l-54 94l-55 -94h-84z" />
    <glyph glyph-name="Kcommaaccent" unicode="&#x136;" horiz-adv-x="601" 
d="M72 0v713h118v-350l256 350h125l-207 -277l203 -436h-130l-158 343l-89 -122v-221h-118zM247 -201l8 165h94l-27 -165h-75z" />
    <glyph glyph-name="kcommaaccent" unicode="&#x137;" horiz-adv-x="486" 
d="M66 0v713h109v-424l166 230h122l-133 -174l134 -345h-116l-98 263l-75 -101v-162h-109zM190 -201l8 165h94l-27 -165h-75z" />
    <glyph glyph-name="kgreenlandic" unicode="&#x138;" horiz-adv-x="486" 
d="M66 0v519h109v-230l166 230h122l-133 -174l134 -345h-116l-98 263l-75 -101v-162h-109z" />
    <glyph glyph-name="Lacute" unicode="&#x139;" horiz-adv-x="534" 
d="M72 0v713h118v-613h305v-100h-423zM93 764l87 152h110l-114 -152h-83z" />
    <glyph glyph-name="lacute" unicode="&#x13a;" horiz-adv-x="288" 
d="M185 -8q-58 0 -90.5 30t-32.5 86v605h110v-580q0 -49 52 -49q15 0 39 4v-83q-38 -13 -78 -13zM82 761l87 152h110l-114 -152h-83z" />
    <glyph glyph-name="Lcommaaccent" unicode="&#x13b;" horiz-adv-x="534" 
d="M72 0v713h118v-613h305v-100h-423zM214 -201l8 165h94l-27 -165h-75z" />
    <glyph glyph-name="lcommaaccent" unicode="&#x13c;" horiz-adv-x="288" 
d="M185 -8q-58 0 -90.5 30t-32.5 86v605h110v-580q0 -49 52 -49q15 0 39 4v-83q-38 -13 -78 -13zM103 -201l8 165h94l-27 -165h-75z" />
    <glyph glyph-name="Lcaron" unicode="&#x13d;" horiz-adv-x="534" 
d="M72 0v713h118v-613h305v-100h-423zM273 532l8 182h93l-26 -182h-75z" />
    <glyph glyph-name="lcaron" unicode="&#x13e;" horiz-adv-x="288" 
d="M185 -8q-58 0 -90.5 30t-32.5 86v605h110v-580q0 -49 52 -49q15 0 39 4v-83q-38 -13 -78 -13zM222 531l8 182h93l-26 -182h-75z" />
    <glyph glyph-name="Ldot" unicode="&#x13f;" horiz-adv-x="534" 
d="M72 0v713h118v-613h305v-100h-423zM290 347v128h109v-128h-109z" />
    <glyph glyph-name="ldot" unicode="&#x140;" horiz-adv-x="342" 
d="M185 -8q-58 0 -90.5 30t-32.5 86v605h110v-580q0 -49 52 -49q15 0 39 4v-83q-38 -13 -78 -13zM224 339v118h107v-118h-107z" />
    <glyph glyph-name="Lslash" unicode="&#x141;" horiz-adv-x="543" 
d="M32 217v88l49 36v372h118v-285l96 71v-88l-96 -71v-240h305v-100h-423v253z" />
    <glyph glyph-name="lslash" unicode="&#x142;" horiz-adv-x="313" 
d="M27 249v78l56 45v341h110v-251l71 58v-78l-71 -58v-251q0 -49 52 -49q15 0 39 4v-83q-38 -13 -78 -13q-58 0 -90.5 30t-32.5 86v186z" />
    <glyph glyph-name="Nacute" unicode="&#x143;" horiz-adv-x="636" 
d="M72 0v713h117l270 -477h2v477h105v-713h-100l-287 511h-2v-511h-105zM287 764l87 152h110l-114 -152h-83z" />
    <glyph glyph-name="nacute" unicode="&#x144;" horiz-adv-x="524" 
d="M66 0v519h104v-82h2q48 94 158 94q56 0 95 -41t39 -102v-388h-109v366q0 41 -18 60t-56 19q-40 0 -73 -34t-33 -83v-328h-109zM213 580l87 152h110l-114 -152h-83z" />
    <glyph glyph-name="Ncommaaccent" unicode="&#x145;" horiz-adv-x="636" 
d="M72 0v713h117l270 -477h2v477h105v-713h-100l-287 511h-2v-511h-105zM265 -201l8 165h94l-27 -165h-75z" />
    <glyph glyph-name="ncommaaccent" unicode="&#x146;" horiz-adv-x="524" 
d="M66 0v519h104v-82h2q48 94 158 94q56 0 95 -41t39 -102v-388h-109v366q0 41 -18 60t-56 19q-40 0 -73 -34t-33 -83v-328h-109zM209 -201l8 165h94l-27 -165h-75z" />
    <glyph glyph-name="Ncaron" unicode="&#x147;" horiz-adv-x="636" 
d="M72 0v713h117l270 -477h2v477h105v-713h-100l-287 511h-2v-511h-105zM275 769l-99 156h87l55 -94l55 94h86l-104 -156h-80z" />
    <glyph glyph-name="ncaron" unicode="&#x148;" horiz-adv-x="524" 
d="M66 0v519h104v-82h2q48 94 158 94q56 0 95 -41t39 -102v-388h-109v366q0 41 -18 60t-56 19q-40 0 -73 -34t-33 -83v-328h-109zM219 585l-99 156h87l55 -94l55 94h86l-104 -156h-80z" />
    <glyph glyph-name="Eng" unicode="&#x14a;" horiz-adv-x="636" 
d="M436 -188q-32 0 -55 4v89q10 -2 26 -2q31 0 40.5 16t9.5 49v48l-278 495h-2v-511h-105v713h117l270 -477h2v477h105v-765q0 -68 -34 -102t-96 -34z" />
    <glyph glyph-name="eng" unicode="&#x14b;" horiz-adv-x="524" 
d="M334 -188q-32 0 -55 4v89q10 -2 26 -2q31 0 40.5 16t9.5 49v398q0 41 -18 60t-56 19q-40 0 -73 -34t-33 -83v-328h-109v519h104v-82h2q48 94 158 94q56 0 95 -41t39 -102v-440q0 -68 -34 -102t-96 -34z" />
    <glyph glyph-name="Omacron" unicode="&#x14c;" horiz-adv-x="611" 
d="M306 -12q-112 0 -181.5 56.5t-69.5 170.5v276q0 111 70 173t180 62q111 0 181.5 -57t70.5 -170v-276q0 -114 -70.5 -174.5t-180.5 -60.5zM307 87q61 0 96 36.5t35 95.5v282q0 59 -36.5 93t-98.5 34t-96 -37t-34 -99v-273q0 -61 35 -96.5t99 -35.5zM157 786v78h296v-78
h-296z" />
    <glyph glyph-name="omacron" unicode="&#x14d;" horiz-adv-x="506" 
d="M253 -12q-89 0 -145.5 48t-56.5 142v159q0 92 56.5 143t143.5 51q90 0 147 -48.5t57 -142.5v-160q0 -95 -57 -143.5t-145 -48.5zM254 74q91 0 91 102v170q0 45 -23.5 72.5t-69.5 27.5t-68.5 -28.5t-22.5 -75.5v-167q0 -47 23 -74t70 -27zM105 602v78h296v-78h-296z" />
    <glyph glyph-name="Obreve" unicode="&#x14e;" horiz-adv-x="611" 
d="M306 -12q-112 0 -181.5 56.5t-69.5 170.5v276q0 111 70 173t180 62q111 0 181.5 -57t70.5 -170v-276q0 -114 -70.5 -174.5t-180.5 -60.5zM307 87q61 0 96 36.5t35 95.5v282q0 59 -36.5 93t-98.5 34t-96 -37t-34 -99v-273q0 -61 35 -96.5t99 -35.5zM308 767
q-72 0 -114.5 39.5t-45.5 108.5h76q6 -40 25.5 -60.5t62.5 -20.5q70 0 77 81h73q-3 -71 -46.5 -109.5t-107.5 -38.5z" />
    <glyph glyph-name="obreve" unicode="&#x14f;" horiz-adv-x="506" 
d="M253 -12q-89 0 -145.5 48t-56.5 142v159q0 92 56.5 143t143.5 51q90 0 147 -48.5t57 -142.5v-160q0 -95 -57 -143.5t-145 -48.5zM254 74q91 0 91 102v170q0 45 -23.5 72.5t-69.5 27.5t-68.5 -28.5t-22.5 -75.5v-167q0 -47 23 -74t70 -27zM256 583q-72 0 -114.5 39.5
t-45.5 108.5h76q6 -40 25.5 -60.5t62.5 -20.5q70 0 77 81h73q-3 -71 -46.5 -109.5t-107.5 -38.5z" />
    <glyph glyph-name="Ohungarumlaut" unicode="&#x150;" horiz-adv-x="611" 
d="M306 -12q-112 0 -181.5 56.5t-69.5 170.5v276q0 111 70 173t180 62q111 0 181.5 -57t70.5 -170v-276q0 -114 -70.5 -174.5t-180.5 -60.5zM307 87q61 0 96 36.5t35 95.5v282q0 59 -36.5 93t-98.5 34t-96 -37t-34 -99v-273q0 -61 35 -96.5t99 -35.5zM178 762l57 144h94
l-74 -144h-77zM333 762l61 144h94l-80 -144h-75z" />
    <glyph glyph-name="ohungarumlaut" unicode="&#x151;" horiz-adv-x="506" 
d="M253 -12q-89 0 -145.5 48t-56.5 142v159q0 92 56.5 143t143.5 51q90 0 147 -48.5t57 -142.5v-160q0 -95 -57 -143.5t-145 -48.5zM254 74q91 0 91 102v170q0 45 -23.5 72.5t-69.5 27.5t-68.5 -28.5t-22.5 -75.5v-167q0 -47 23 -74t70 -27zM125 578l57 144h94l-74 -144h-77
zM280 578l61 144h94l-80 -144h-75z" />
    <glyph glyph-name="OE" unicode="&#x152;" horiz-adv-x="911" 
d="M292 -11q-109 0 -173 55.5t-64 171.5v275q0 112 65 173t173 61q101 0 145 -64v52h423v-99h-305v-201h242v-98h-242v-215h305v-100h-423v57q-21 -32 -59.5 -50t-86.5 -18zM307 86q61 0 96 36.5t35 95.5v284q0 59 -36.5 92.5t-98.5 33.5t-96 -37t-34 -99v-273q0 -61 35 -97
t99 -36z" />
    <glyph glyph-name="oe" unicode="&#x153;" horiz-adv-x="787" 
d="M253 -12q-89 0 -145.5 48t-56.5 142v159q0 92 56.5 143t143.5 51q95 0 150 -60q52 60 147 60q87 0 139.5 -52t52.5 -141v-108h-285v-50q0 -102 117 -102q64 0 126 33l29 -73q-67 -50 -177 -50q-103 0 -152 57q-52 -57 -145 -57zM254 74q91 0 91 102v170q0 45 -23.5 72.5
t-69.5 27.5t-68.5 -28.5t-22.5 -75.5v-163q0 -48 23 -76.5t70 -28.5zM455 307h180v43q0 42 -21.5 70.5t-68.5 28.5q-43 0 -66.5 -28t-23.5 -68v-46z" />
    <glyph glyph-name="Racute" unicode="&#x154;" horiz-adv-x="601" 
d="M72 0v713h245q108 0 165 -57t57 -153q0 -77 -36 -130.5t-105 -70.5l162 -302h-127l-146 282h-97v-282h-118zM190 373h107q126 0 126 124q0 58 -30 90t-91 32h-112v-246zM225 764l87 152h110l-114 -152h-83z" />
    <glyph glyph-name="racute" unicode="&#x155;" horiz-adv-x="363" 
d="M66 0v519h104v-86h1q25 49 55.5 70.5t75.5 21.5q25 0 41 -4v-96q-22 3 -47 3q-48 0 -84 -26.5t-37 -85.5v-316h-109zM146 580l87 152h110l-114 -152h-83z" />
    <glyph glyph-name="Rcommaaccent" unicode="&#x156;" horiz-adv-x="601" 
d="M72 0v713h245q108 0 165 -57t57 -153q0 -77 -36 -130.5t-105 -70.5l162 -302h-127l-146 282h-97v-282h-118zM190 373h107q126 0 126 124q0 58 -30 90t-91 32h-112v-246zM247 -201l8 165h94l-27 -165h-75z" />
    <glyph glyph-name="rcommaaccent" unicode="&#x157;" horiz-adv-x="363" 
d="M66 0v519h104v-86h1q25 49 55.5 70.5t75.5 21.5q25 0 41 -4v-96q-22 3 -47 3q-48 0 -84 -26.5t-37 -85.5v-316h-109zM81 -201l8 165h94l-27 -165h-75z" />
    <glyph glyph-name="Rcaron" unicode="&#x158;" horiz-adv-x="601" 
d="M72 0v713h245q108 0 165 -57t57 -153q0 -77 -36 -130.5t-105 -70.5l162 -302h-127l-146 282h-97v-282h-118zM190 373h107q126 0 126 124q0 58 -30 90t-91 32h-112v-246zM244 769l-99 156h87l55 -94l55 94h86l-104 -156h-80z" />
    <glyph glyph-name="rcaron" unicode="&#x159;" horiz-adv-x="363" 
d="M66 0v519h104v-86h1q25 49 55.5 70.5t75.5 21.5q25 0 41 -4v-96q-22 3 -47 3q-48 0 -84 -26.5t-37 -85.5v-316h-109zM150 585l-99 156h87l55 -94l55 94h86l-104 -156h-80z" />
    <glyph glyph-name="Sacute" unicode="&#x15a;" horiz-adv-x="562" 
d="M275 -12q-152 0 -243 83l60 84q45 -33 87.5 -50.5t105.5 -17.5q50 0 83.5 27t33.5 69t-26.5 68t-74.5 45l-100 40q-135 54 -135 188q0 85 61 143t164 58q126 0 206 -68l-61 -84q-81 58 -151 58q-49 0 -79 -23.5t-30 -67.5q0 -36 22 -59.5t69 -43.5l94 -40
q158 -67 158 -194q0 -97 -70.5 -156t-173.5 -59zM246 764l87 152h110l-114 -152h-83z" />
    <glyph glyph-name="sacute" unicode="&#x15b;" horiz-adv-x="452" 
d="M224 -12q-128 0 -197 75l58 73q72 -62 141 -62q41 0 64 17t23 46q0 31 -21 47t-63 29l-50 16q-122 38 -122 148q0 61 46 107.5t128 46.5q106 0 168 -59l-52 -74q-62 46 -117 46q-34 0 -54 -13.5t-20 -38.5q0 -26 14.5 -40t48.5 -26l67 -23q62 -22 96 -62.5t34 -93.5
q0 -72 -56 -115.5t-136 -43.5zM175 580l87 152h110l-114 -152h-83z" />
    <glyph glyph-name="Scircumflex" unicode="&#x15c;" horiz-adv-x="562" 
d="M275 -12q-152 0 -243 83l60 84q45 -33 87.5 -50.5t105.5 -17.5q50 0 83.5 27t33.5 69t-26.5 68t-74.5 45l-100 40q-135 54 -135 188q0 85 61 143t164 58q126 0 206 -68l-61 -84q-81 58 -151 58q-49 0 -79 -23.5t-30 -67.5q0 -36 22 -59.5t69 -43.5l94 -40
q158 -67 158 -194q0 -97 -70.5 -156t-173.5 -59zM140 765l102 156h79l100 -156h-88l-54 94l-55 -94h-84z" />
    <glyph glyph-name="scircumflex" unicode="&#x15d;" horiz-adv-x="452" 
d="M224 -12q-128 0 -197 75l58 73q72 -62 141 -62q41 0 64 17t23 46q0 31 -21 47t-63 29l-50 16q-122 38 -122 148q0 61 46 107.5t128 46.5q106 0 168 -59l-52 -74q-62 46 -117 46q-34 0 -54 -13.5t-20 -38.5q0 -26 14.5 -40t48.5 -26l67 -23q62 -22 96 -62.5t34 -93.5
q0 -72 -56 -115.5t-136 -43.5zM93 581l102 156h79l100 -156h-88l-54 94l-55 -94h-84z" />
    <glyph glyph-name="Scedilla" unicode="&#x15e;" horiz-adv-x="562" 
d="M267 -204q-50 0 -91 12v50q50 -12 88 -12q46 0 46 29q0 26 -51 30l-39 3l21 81q-128 8 -209 82l60 84q45 -33 87.5 -50.5t105.5 -17.5q50 0 83.5 27t33.5 69t-26.5 68t-74.5 45l-100 40q-135 54 -135 188q0 85 61 143t164 58q126 0 206 -68l-61 -84q-81 58 -151 58
q-49 0 -79 -23.5t-30 -67.5q0 -36 22 -59.5t69 -43.5l94 -40q158 -67 158 -194q0 -93 -66 -151.5t-164 -63.5l-11 -43q108 -2 108 -68q0 -36 -34 -58.5t-85 -22.5z" />
    <glyph glyph-name="scedilla" unicode="&#x15f;" horiz-adv-x="452" 
d="M223 -204q-50 0 -91 12v50q50 -12 88 -12q46 0 46 29q0 26 -51 30l-39 3l21 81q-112 8 -170 74l58 73q72 -62 141 -62q41 0 64 17t23 46q0 31 -21 47t-63 29l-50 16q-122 38 -122 148q0 61 46 107.5t128 46.5q106 0 168 -59l-52 -74q-62 46 -117 46q-34 0 -54 -13.5
t-20 -38.5q0 -26 14.5 -40t48.5 -26l67 -23q62 -22 96 -62.5t34 -93.5q0 -67 -49 -109.5t-122 -48.5l-11 -44q108 -2 108 -68q0 -36 -34 -58.5t-85 -22.5z" />
    <glyph glyph-name="Scaron" unicode="&#x160;" horiz-adv-x="562" 
d="M257 769l-99 156h87l55 -94l55 94h86l-104 -156h-80zM275 -12q-152 0 -243 83l60 84q45 -33 87.5 -50.5t105.5 -17.5q50 0 83.5 27t33.5 69t-26.5 68t-74.5 45l-100 40q-135 54 -135 188q0 85 61 143t164 58q126 0 206 -68l-61 -84q-81 58 -151 58q-49 0 -79 -23.5
t-30 -67.5q0 -36 22 -59.5t69 -43.5l94 -40q158 -67 158 -194q0 -97 -70.5 -156t-173.5 -59z" />
    <glyph glyph-name="scaron" unicode="&#x161;" horiz-adv-x="452" 
d="M198 585l-99 156h87l55 -94l55 94h86l-104 -156h-80zM229 -12q-128 0 -197 75l58 73q72 -62 141 -62q41 0 64 17t23 46q0 31 -21 47t-63 29l-50 16q-122 38 -122 148q0 61 46 107.5t128 46.5q106 0 168 -59l-52 -74q-62 46 -117 46q-34 0 -54 -13.5t-20 -38.5
q0 -26 14.5 -40t48.5 -26l67 -23q62 -22 96 -62.5t34 -93.5q0 -72 -56 -115.5t-136 -43.5z" />
    <glyph glyph-name="Tcommaaccent" unicode="&#x162;" horiz-adv-x="554" 
d="M219 0v617h-195v96h506v-96h-193v-617h-118zM224 -201l8 165h94l-27 -165h-75z" />
    <glyph glyph-name="tcommaaccent" unicode="&#x163;" horiz-adv-x="367" 
d="M236 -9q-127 0 -127 114v322h-77v87h77v139h110v-139h125v-87h-125v-288q0 -52 57 -52q25 0 57 9v-88q-48 -17 -97 -17zM138 -201l8 165h94l-27 -165h-75z" />
    <glyph glyph-name="Tcaron" unicode="&#x164;" horiz-adv-x="554" 
d="M219 0v617h-195v96h506v-96h-193v-617h-118zM234 769l-99 156h87l55 -94l55 94h86l-104 -156h-80z" />
    <glyph glyph-name="tcaron" unicode="&#x165;" horiz-adv-x="367" 
d="M266 553l8 160h93l-26 -160h-75zM236 -9q-127 0 -127 114v322h-77v87h77v139h110v-139h125v-87h-125v-288q0 -52 57 -52q25 0 57 9v-88q-48 -17 -97 -17z" />
    <glyph glyph-name="Tbar" unicode="&#x166;" horiz-adv-x="554" 
d="M107 305v70h112v242h-195v96h506v-96h-193v-242h109v-70h-109v-305h-118v305h-112z" />
    <glyph glyph-name="tbar" unicode="&#x167;" horiz-adv-x="367" 
d="M64 260v59h45v108h-77v87h77v139h110v-139h125v-87h-125v-108h60v-59h-60v-121q0 -52 57 -52q25 0 57 9v-88q-48 -17 -97 -17q-127 0 -127 114v155h-45z" />
    <glyph glyph-name="Utilde" unicode="&#x168;" horiz-adv-x="625" 
d="M309 -12q-109 0 -176 55t-67 168v502h118v-493q0 -70 37.5 -103t94.5 -33q60 0 95 36t33 97v496h113v-498q1 -107 -69 -167t-179 -60zM195 775l-56 10q6 48 31.5 80t67.5 32q26 0 76 -18t75 -18q18 0 28.5 11.5t18.5 35.5l50 -12q-7 -47 -31.5 -78.5t-65.5 -31.5
q-27 0 -77 18t-73 18q-20 0 -28.5 -11t-15.5 -36z" />
    <glyph glyph-name="utilde" unicode="&#x169;" horiz-adv-x="523" 
d="M204 -12q-59 0 -100 37.5t-41 104.5v389h109v-360q0 -43 16 -64t56 -21q44 0 76 35.5t32 86.5v323h109v-519h-102l-3 83h-2q-17 -41 -59 -68t-91 -27zM144 581l-56 10q6 48 31.5 80t67.5 32q25 0 75 -18t76 -18q18 0 28.5 11.5t18.5 35.5l50 -12q-7 -47 -31.5 -78.5
t-65.5 -31.5q-27 0 -77 18t-73 18q-20 0 -28.5 -11t-15.5 -36z" />
    <glyph glyph-name="Umacron" unicode="&#x16a;" horiz-adv-x="625" 
d="M309 -12q-109 0 -176 55t-67 168v502h118v-493q0 -70 37.5 -103t94.5 -33q60 0 95 36t33 97v496h113v-498q1 -107 -69 -167t-179 -60zM164 796v78h296v-78h-296z" />
    <glyph glyph-name="umacron" unicode="&#x16b;" horiz-adv-x="523" 
d="M204 -12q-59 0 -100 37.5t-41 104.5v389h109v-360q0 -43 16 -64t56 -21q44 0 76 35.5t32 86.5v323h109v-519h-102l-3 83h-2q-17 -41 -59 -68t-91 -27zM113 602v78h296v-78h-296z" />
    <glyph glyph-name="Ubreve" unicode="&#x16c;" horiz-adv-x="625" 
d="M309 -12q-109 0 -176 55t-67 168v502h118v-493q0 -70 37.5 -103t94.5 -33q60 0 95 36t33 97v496h113v-498q1 -107 -69 -167t-179 -60zM315 777q-72 0 -114.5 39.5t-45.5 108.5h76q6 -40 25.5 -60.5t62.5 -20.5q70 0 77 81h73q-3 -71 -46.5 -109.5t-107.5 -38.5z" />
    <glyph glyph-name="ubreve" unicode="&#x16d;" horiz-adv-x="523" 
d="M204 -12q-59 0 -100 37.5t-41 104.5v389h109v-360q0 -43 16 -64t56 -21q44 0 76 35.5t32 86.5v323h109v-519h-102l-3 83h-2q-17 -41 -59 -68t-91 -27zM264 583q-72 0 -114.5 39.5t-45.5 108.5h76q6 -40 25.5 -60.5t62.5 -20.5q70 0 77 81h73q-3 -71 -46.5 -109.5
t-107.5 -38.5z" />
    <glyph glyph-name="Uring" unicode="&#x16e;" horiz-adv-x="625" 
d="M309 -12q-109 0 -176 55t-67 168v502h118v-493q0 -70 37.5 -103t94.5 -33q60 0 95 36t33 97v496h113v-498q1 -107 -69 -167t-179 -60zM312 763q-42 0 -67.5 26t-25.5 66q0 41 26.5 68.5t65.5 27.5q43 0 68.5 -25t25.5 -66t-26.5 -69t-66.5 -28zM311 804q22 0 34.5 14
t12.5 39q0 53 -48 53q-21 0 -32.5 -15t-11.5 -39t12 -38t33 -14z" />
    <glyph glyph-name="uring" unicode="&#x16f;" horiz-adv-x="523" 
d="M204 -12q-59 0 -100 37.5t-41 104.5v389h109v-360q0 -43 16 -64t56 -21q44 0 76 35.5t32 86.5v323h109v-519h-102l-3 83h-2q-17 -41 -59 -68t-91 -27zM261 569q-42 0 -67.5 26t-25.5 66q0 41 26.5 68.5t65.5 27.5q43 0 68.5 -25t25.5 -66t-26.5 -69t-66.5 -28zM260 610
q22 0 34.5 14t12.5 39q0 53 -48 53q-21 0 -32.5 -15t-11.5 -39t12 -38t33 -14z" />
    <glyph glyph-name="Uhungarumlaut" unicode="&#x170;" horiz-adv-x="625" 
d="M309 -12q-109 0 -176 55t-67 168v502h118v-493q0 -70 37.5 -103t94.5 -33q60 0 95 36t33 97v496h113v-498q1 -107 -69 -167t-179 -60zM157 772l57 144h94l-74 -144h-77zM312 772l61 144h94l-80 -144h-75z" />
    <glyph glyph-name="uhungarumlaut" unicode="&#x171;" horiz-adv-x="523" 
d="M204 -12q-59 0 -100 37.5t-41 104.5v389h109v-360q0 -43 16 -64t56 -21q44 0 76 35.5t32 86.5v323h109v-519h-102l-3 83h-2q-17 -41 -59 -68t-91 -27zM147 578l57 144h94l-74 -144h-77zM302 578l61 144h94l-80 -144h-75z" />
    <glyph glyph-name="Uogonek" unicode="&#x172;" horiz-adv-x="625" 
d="M309 -12q-109 0 -176 55t-67 168v502h118v-493q0 -70 37.5 -103t94.5 -33q60 0 95 36t33 97v496h113v-498q1 -86 -45.5 -142.5t-124.5 -75.5q-50 -39 -50 -90q0 -24 13 -37.5t36 -13.5q24 0 54 19l27 -50q-36 -27 -96 -27q-43 0 -72.5 23.5t-29.5 68.5q0 54 44 98h-4z
" />
    <glyph glyph-name="uogonek" unicode="&#x173;" horiz-adv-x="523" 
d="M401 -202q-43 0 -72.5 23.5t-29.5 68.5q0 65 60 110l-3 83h-2q-17 -41 -59 -68t-91 -27q-59 0 -100 37.5t-41 104.5v389h109v-360q0 -43 16 -64t56 -21q44 0 76 35.5t32 86.5v323h109v-519h-22q-32 -13 -52 -38t-20 -55q0 -50 49 -50q26 0 54 18l27 -50q-36 -27 -96 -27z
" />
    <glyph glyph-name="Wcircumflex" unicode="&#x174;" horiz-adv-x="808" 
d="M176 -3l-149 716h115l97 -509h3l107 509h123l103 -507h2l95 507h109l-150 -716h-114l-110 531h-4l-112 -531h-115zM263 765l102 156h79l100 -156h-88l-54 94l-55 -94h-84z" />
    <glyph glyph-name="wcircumflex" unicode="&#x175;" horiz-adv-x="696" 
d="M151 -1l-125 520h113l70 -338h4l88 338h107l85 -338h3l75 338h100l-129 -520h-99l-92 385h-3l-96 -385h-101zM207 581l102 156h79l100 -156h-88l-54 94l-55 -94h-84z" />
    <glyph glyph-name="Ycircumflex" unicode="&#x176;" horiz-adv-x="552" 
d="M217 0v294l-196 419h124l138 -311l137 311h111l-196 -420v-293h-118zM143 765l102 156h79l100 -156h-88l-54 94l-55 -94h-84z" />
    <glyph glyph-name="ycircumflex" unicode="&#x177;" horiz-adv-x="470" 
d="M115 -189q-36 0 -70 8v90q33 -7 58 -7q51 0 68 50l17 59l-169 508h115l111 -369h1l107 369h99l-179 -571q-42 -137 -158 -137zM94 581l102 156h79l100 -156h-88l-54 94l-55 -94h-84z" />
    <glyph glyph-name="Ydieresis" unicode="&#x178;" horiz-adv-x="552" 
d="M217 0v294l-196 419h124l138 -311l137 311h111l-196 -420v-293h-118zM158 780v124h93v-124h-93zM331 780v124h93v-124h-93z" />
    <glyph glyph-name="Zacute" unicode="&#x179;" horiz-adv-x="525" 
d="M45 0v72l300 547h-294v94h432v-81l-297 -536h293v-96h-434zM227 764l87 152h110l-114 -152h-83z" />
    <glyph glyph-name="zacute" unicode="&#x17a;" horiz-adv-x="445" 
d="M42 0v69l232 366h-226v84h355l-1 -72l-227 -362h228v-85h-361zM180 580l87 152h110l-114 -152h-83z" />
    <glyph glyph-name="Zdotaccent" unicode="&#x17b;" horiz-adv-x="525" 
d="M45 0v72l300 547h-294v94h432v-81l-297 -536h293v-96h-434zM226 781v126h99v-126h-99z" />
    <glyph glyph-name="zdotaccent" unicode="&#x17c;" horiz-adv-x="445" 
d="M42 0v69l232 366h-226v84h355l-1 -72l-227 -362h228v-85h-361zM173 597v126h99v-126h-99z" />
    <glyph glyph-name="Zcaron" unicode="&#x17d;" horiz-adv-x="525" 
d="M226 769l-99 156h87l55 -94l55 94h86l-104 -156h-80zM45 0v72l300 547h-294v94h432v-81l-297 -536h293v-96h-434z" />
    <glyph glyph-name="zcaron" unicode="&#x17e;" horiz-adv-x="445" 
d="M189 585l-99 156h87l55 -94l55 94h86l-104 -156h-80zM42 0v69l232 366h-226v84h355l-1 -72l-227 -362h228v-85h-361z" />
    <glyph glyph-name="florin" unicode="&#x192;" horiz-adv-x="382" 
d="M79 -189q-35 0 -62 6l5 84q12 -2 28 -2q31 0 42 16t14 49l30 424h-78l4 78h78l9 122q5 66 45 103.5t98 37.5q44 0 77 -10l-5 -78q-22 5 -49 5q-24 0 -40.5 -15t-19.5 -45l-8 -120h94l-4 -78h-94l-30 -436q-2 -67 -37.5 -104t-96.5 -37z" />
    <glyph glyph-name="Aringacute" unicode="&#x1fa;" horiz-adv-x="607" 
d="M23 0l212 715h140l210 -715h-118l-53 191h-229l-53 -191h-109zM210 282h178l-87 316h-2zM305 746q-46 0 -70 25.5t-24 61.5q0 42 29 71l92 100l65 -30l-65 -55q33 -6 50 -28t17 -53q0 -40 -26.5 -66t-67.5 -26zM304 783q22 0 35 14t13 39q0 24 -13 38t-34 14t-33.5 -15
t-12.5 -39q0 -51 45 -51z" />
    <glyph glyph-name="aringacute" unicode="&#x1fb;" horiz-adv-x="498" 
d="M186 -11q-62 0 -104 38.5t-42 110.5q0 59 34.5 99t80 55.5t95.5 15.5h75v71q0 36 -22.5 55t-62.5 19q-39 0 -62.5 -19t-23.5 -52v-26h-99v31q0 67 55.5 105.5t139.5 38.5q81 0 133.5 -38.5t52.5 -114.5v-252q0 -21 5 -126h-101q0 4 -0.5 13.5t-1.5 27.5t-2 33h-4
q-23 -47 -64 -66t-82 -19zM230 71q39 0 67 30.5t28 75.5v60h-66q-108 0 -108 -83q0 -41 22 -62t57 -21zM246 569q-46 0 -70 25.5t-24 61.5q0 42 29 71l92 100l65 -30l-65 -55q33 -6 50 -28t17 -53q0 -40 -26.5 -66t-67.5 -26zM245 606q22 0 35 14t13 39q0 24 -13 38t-34 14
t-33.5 -15t-12.5 -39q0 -51 45 -51z" />
    <glyph glyph-name="AEacute" unicode="&#x1fc;" horiz-adv-x="890" 
d="M21 0l327 713h492v-98h-305v-202h242v-98h-242v-216h305v-99h-422v184l-196 1l-83 -185h-118zM259 273h159v346h-2zM442 774l87 152h110l-114 -152h-83z" />
    <glyph glyph-name="aeacute" unicode="&#x1fd;" horiz-adv-x="766" 
d="M192 -12q-63 0 -107.5 39t-44.5 111q0 59 34.5 99t80 55.5t95.5 15.5h75v71q0 36 -22.5 55t-62.5 19q-38 0 -62 -19t-24 -52v-26h-99v31q0 68 55 106t140 38q103 0 138 -59q50 59 143 59q86 0 138 -49.5t52 -137.5v-114h-285v-52q0 -100 116 -100q64 0 127 34l29 -74
q-63 -50 -176 -50q-128 0 -172 94q-27 -53 -75.5 -73.5t-92.5 -20.5zM230 71q39 0 67 28.5t28 73.5v64h-55q-119 0 -119 -83q0 -41 22 -62t57 -21zM436 307h180v43q0 42 -21.5 70.5t-68.5 28.5q-44 0 -67 -27.5t-23 -68.5v-46zM342 580l87 152h110l-114 -152h-83z" />
    <glyph glyph-name="Oslashacute" unicode="&#x1fe;" horiz-adv-x="607" 
d="M141 -69l-58 26l42 85q-72 59 -72 173v276q0 111 70 173t180 62q83 0 143 -32l34 68l58 -26l-40 -80q57 -59 57 -157v-276q0 -114 -70.5 -174.5t-180.5 -60.5q-71 0 -124 22zM171 219q0 -38 11 -61l216 437q-38 33 -97 33q-62 0 -96 -37t-34 -99v-273zM305 87
q61 0 96 36.5t35 95.5v282q0 8 -2 24l-207 -419q33 -19 78 -19zM264 764l87 152h110l-114 -152h-83z" />
    <glyph glyph-name="oslashacute" unicode="&#x1ff;" horiz-adv-x="506" 
d="M136 -72l-52 26l35 72q-68 49 -68 152v159q0 92 56.5 143t143.5 51q60 0 105 -22l32 65l53 -26l-36 -73q50 -50 50 -135v-160q0 -95 -57 -143.5t-145 -48.5q-45 0 -82 12zM161 175q0 -30 8 -49l146 299q-24 21 -63 21q-46 0 -68.5 -28.5t-22.5 -75.5v-167zM254 74
q91 0 91 102v177l-134 -272q17 -7 43 -7zM204 580l87 152h110l-114 -152h-83z" />
    <glyph glyph-name="Scommaaccent" unicode="&#x218;" horiz-adv-x="562" 
d="M275 -12q-152 0 -243 83l60 84q45 -33 87.5 -50.5t105.5 -17.5q50 0 83.5 27t33.5 69t-26.5 68t-74.5 45l-100 40q-135 54 -135 188q0 85 61 143t164 58q126 0 206 -68l-61 -84q-81 58 -151 58q-49 0 -79 -23.5t-30 -67.5q0 -36 22 -59.5t69 -43.5l94 -40
q158 -67 158 -194q0 -97 -70.5 -156t-173.5 -59zM229 -201l8 165h94l-27 -165h-75z" />
    <glyph glyph-name="scommaaccent" unicode="&#x219;" horiz-adv-x="452" 
d="M224 -12q-128 0 -197 75l58 73q72 -62 141 -62q41 0 64 17t23 46q0 31 -21 47t-63 29l-50 16q-122 38 -122 148q0 61 46 107.5t128 46.5q106 0 168 -59l-52 -74q-62 46 -117 46q-34 0 -54 -13.5t-20 -38.5q0 -26 14.5 -40t48.5 -26l67 -23q62 -22 96 -62.5t34 -93.5
q0 -72 -56 -115.5t-136 -43.5zM186 -201l8 165h94l-27 -165h-75z" />
    <glyph glyph-name="uni021A" unicode="&#x21a;" horiz-adv-x="554" 
d="M219 0v617h-195v96h506v-96h-193v-617h-118zM224 -201l8 165h94l-27 -165h-75z" />
    <glyph glyph-name="uni021B" unicode="&#x21b;" horiz-adv-x="367" 
d="M236 -9q-127 0 -127 114v322h-77v87h77v139h110v-139h125v-87h-125v-288q0 -52 57 -52q25 0 57 9v-88q-48 -17 -97 -17zM138 -201l8 165h94l-27 -165h-75z" />
    <glyph glyph-name="dotlessj" unicode="&#x237;" horiz-adv-x="247" 
d="M53 -188q-32 0 -55 4v89q10 -2 26 -2q31 0 40.5 16t9.5 49v551h109v-571q0 -68 -34.5 -102t-95.5 -34z" />
    <glyph glyph-name="circumflex" unicode="&#x2c6;" horiz-adv-x="371" 
d="M48 581l102 156h79l100 -156h-88l-54 94l-55 -94h-84z" />
    <glyph glyph-name="caron" unicode="&#x2c7;" horiz-adv-x="378" 
d="M149 585l-99 156h87l55 -94l55 94h86l-104 -156h-80z" />
    <glyph glyph-name="breve" unicode="&#x2d8;" horiz-adv-x="386" 
d="M196 583q-72 0 -114.5 39.5t-45.5 108.5h76q6 -40 25.5 -60.5t62.5 -20.5q70 0 77 81h73q-3 -71 -46.5 -109.5t-107.5 -38.5z" />
    <glyph glyph-name="dotaccent" unicode="&#x2d9;" horiz-adv-x="215" 
d="M58 597v126h99v-126h-99z" />
    <glyph glyph-name="ring" unicode="&#x2da;" horiz-adv-x="284" 
d="M145 569q-42 0 -67.5 26t-25.5 66q0 41 26.5 68.5t65.5 27.5q43 0 68.5 -25t25.5 -66t-26.5 -69t-66.5 -28zM144 610q22 0 34.5 14t12.5 39q0 53 -48 53q-21 0 -32.5 -15t-11.5 -39t12 -38t33 -14z" />
    <glyph glyph-name="ogonek" unicode="&#x2db;" horiz-adv-x="324" 
d="M157 -202q-43 0 -72.5 23.5t-29.5 68.5q0 49 34.5 87t77.5 51l33 -26q-33 -13 -55 -38t-22 -57q0 -50 49 -50q26 0 54 18l27 -50q-36 -27 -96 -27z" />
    <glyph glyph-name="tilde" unicode="&#x2dc;" horiz-adv-x="410" 
d="M94 581l-56 10q6 48 31.5 80t67.5 32q25 0 75 -18t76 -18q18 0 28.5 11.5t18.5 35.5l50 -12q-7 -47 -31.5 -78.5t-65.5 -31.5q-27 0 -77 18t-73 18q-20 0 -28.5 -11t-15.5 -36z" />
    <glyph glyph-name="hungarumlaut" unicode="&#x2dd;" horiz-adv-x="420" 
d="M55 578l57 144h94l-74 -144h-77zM210 578l61 144h94l-80 -144h-75z" />
    <glyph glyph-name="pi" unicode="&#x3c0;" horiz-adv-x="564" 
d="M459 -7q-53 0 -83 29.5t-30 90.5v315h-131q-11 -266 -25 -428h-106q21 208 27 428h-81l12 92h482v-92h-77v-286q0 -53 47 -53q17 0 39 6v-89q-36 -13 -74 -13z" />
    <glyph glyph-name="Wgrave" unicode="&#x1e80;" horiz-adv-x="808" 
d="M176 -3l-149 716h115l97 -509h3l107 509h123l103 -507h2l95 507h109l-150 -716h-114l-110 531h-4l-112 -531h-115zM367 764l-115 152h111l87 -152h-83z" />
    <glyph glyph-name="wgrave" unicode="&#x1e81;" horiz-adv-x="696" 
d="M151 -1l-125 520h113l70 -338h4l88 338h107l85 -338h3l75 338h100l-129 -520h-99l-92 385h-3l-96 -385h-101zM312 580l-115 152h111l87 -152h-83z" />
    <glyph glyph-name="Wacute" unicode="&#x1e82;" horiz-adv-x="808" 
d="M176 -3l-149 716h115l97 -509h3l107 509h123l103 -507h2l95 507h109l-150 -716h-114l-110 531h-4l-112 -531h-115zM366 764l87 152h110l-114 -152h-83z" />
    <glyph glyph-name="wacute" unicode="&#x1e83;" horiz-adv-x="696" 
d="M151 -1l-125 520h113l70 -338h4l88 338h107l85 -338h3l75 338h100l-129 -520h-99l-92 385h-3l-96 -385h-101zM317 580l87 152h110l-114 -152h-83z" />
    <glyph glyph-name="Wdieresis" unicode="&#x1e84;" horiz-adv-x="808" 
d="M176 -3l-149 716h115l97 -509h3l107 509h123l103 -507h2l95 507h109l-150 -716h-114l-110 531h-4l-112 -531h-115zM271 781v124h93v-124h-93zM444 781v124h93v-124h-93z" />
    <glyph glyph-name="wdieresis" unicode="&#x1e85;" horiz-adv-x="696" 
d="M151 -1l-125 520h113l70 -338h4l88 338h107l85 -338h3l75 338h100l-129 -520h-99l-92 385h-3l-96 -385h-101zM215 597v124h93v-124h-93zM388 597v124h93v-124h-93z" />
    <glyph glyph-name="Ygrave" unicode="&#x1ef2;" horiz-adv-x="552" 
d="M217 0v294l-196 419h124l138 -311l137 311h111l-196 -420v-293h-118zM240 764l-115 152h111l87 -152h-83z" />
    <glyph glyph-name="ygrave" unicode="&#x1ef3;" horiz-adv-x="470" 
d="M115 -189q-36 0 -70 8v90q33 -7 58 -7q51 0 68 50l17 59l-169 508h115l111 -369h1l107 369h99l-179 -571q-42 -137 -158 -137zM201 580l-115 152h111l87 -152h-83z" />
    <glyph glyph-name="endash" unicode="&#x2013;" horiz-adv-x="461" 
d="M0 268v71h461v-71h-461z" />
    <glyph glyph-name="emdash" unicode="&#x2014;" horiz-adv-x="779" 
d="M0 268v71h779v-71h-779z" />
    <glyph glyph-name="quoteleft" unicode="&#x2018;" horiz-adv-x="215" 
d="M55 465v124l36 125h54l-24 -119h38v-130h-104z" />
    <glyph glyph-name="quoteright" unicode="&#x2019;" horiz-adv-x="216" 
d="M70 464l24 119h-38v130h104v-124l-36 -125h-54z" />
    <glyph glyph-name="quotesinglbase" unicode="&#x201a;" horiz-adv-x="215" 
d="M76 -68l12 74l-32 43l16 88l88 -43l-8 -128l-38 -79z" />
    <glyph glyph-name="quotedblleft" unicode="&#x201c;" horiz-adv-x="387" 
d="M55 465v124l36 125h54l-24 -119h38v-130h-104zM228 465v124l37 125h53l-23 -119h37v-130h-104z" />
    <glyph glyph-name="quotedblright" unicode="&#x201d;" horiz-adv-x="387" 
d="M69 464l24 119h-37v130h104v-124l-37 -125h-54zM242 464l24 119h-38v130h105v-124l-37 -125h-54z" />
    <glyph glyph-name="quotedblbase" unicode="&#x201e;" horiz-adv-x="387" 
d="M69 -113l24 119h-37v131h104v-125l-37 -125h-54zM242 -113l24 119h-38v131h105v-125l-37 -125h-54z" />
    <glyph glyph-name="dagger" unicode="&#x2020;" horiz-adv-x="502" 
d="M210 -138v603h-157v75h157v174h83v-174h156v-75h-156v-603h-83z" />
    <glyph glyph-name="daggerdbl" unicode="&#x2021;" horiz-adv-x="502" 
d="M210 -138v189h-157v74h157v340h-157v75h157v174h83v-174h156v-75h-156v-340h156v-74h-156v-189h-83z" />
    <glyph glyph-name="bullet" unicode="&#x2022;" horiz-adv-x="407" 
d="M204 222q-55 0 -93.5 39t-38.5 93q0 55 38.5 93.5t93.5 38.5q54 0 92.5 -38.5t38.5 -93.5q0 -54 -38.5 -93t-92.5 -39z" />
    <glyph glyph-name="ellipsis" unicode="&#x2026;" horiz-adv-x="630" 
d="M64 0v135h106v-135h-106zM263 0v135h105v-135h-105zM461 0v135h105v-135h-105z" />
    <glyph glyph-name="perthousand" unicode="&#x2030;" horiz-adv-x="1052" 
d="M869 -11q-55 0 -93 31.5t-38 88.5v136q0 58 38.5 92.5t92.5 34.5q56 0 94 -31.5t38 -90.5v-139q0 -56 -39.5 -89t-92.5 -33zM869 52q27 0 41.5 16t14.5 37v155q0 21 -15 36t-41 15t-40.5 -15t-14.5 -36v-156q0 -23 14 -37.5t41 -14.5zM177 343q-57 0 -94.5 32t-37.5 90
v139q0 58 38 90t93 32q56 0 94.5 -31.5t38.5 -91.5v-140q0 -55 -39.5 -87.5t-92.5 -32.5zM177 405q26 0 41 15.5t15 37.5v155q0 21 -15 36t-41 15q-27 0 -41.5 -15t-14.5 -36v-156q0 -23 14.5 -37.5t41.5 -14.5zM159 -3l363 724h63l-362 -724h-64zM554 -11q-55 0 -93 31.5
t-38 88.5v136q0 58 38.5 92.5t92.5 34.5q56 0 94 -31.5t38 -90.5v-139q0 -56 -39.5 -89t-92.5 -33zM554 52q27 0 41.5 16t14.5 37v155q0 21 -15 36t-41 15t-40.5 -15t-14.5 -36v-156q0 -23 14 -37.5t41 -14.5z" />
    <glyph glyph-name="guilsinglleft" unicode="&#x2039;" horiz-adv-x="274" 
d="M175 92l-138 176l137 177l60 -39l-83 -138l86 -139z" />
    <glyph glyph-name="guilsinglright" unicode="&#x203a;" horiz-adv-x="274" 
d="M100 93l-61 39l84 138l-86 138l62 38l138 -176z" />
    <glyph glyph-name="fraction" unicode="&#x2044;" horiz-adv-x="115" 
d="M-165 -3l386 721h58l-386 -721h-58z" />
    <glyph glyph-name="uni2070" unicode="&#x2070;" horiz-adv-x="333" 
d="M168 368q-57 0 -95 28.5t-38 86.5v182q0 58 38 87t94 29t94 -29t38 -87v-181q0 -57 -38.5 -86.5t-92.5 -29.5zM167 431q27 0 40 15t13 39v184q0 21 -14 35t-39 14q-26 0 -40.5 -14t-14.5 -36v-184q0 -23 14 -38t41 -15z" />
    <glyph glyph-name="uni2074" unicode="&#x2074;" horiz-adv-x="318" 
d="M179 380v92h-159v57l143 248h83l-148 -244h81v59l80 54v-113h43v-61h-43v-92h-80z" />
    <glyph glyph-name="uni2075" unicode="&#x2075;" horiz-adv-x="331" 
d="M160 368q-57 0 -91.5 27t-34.5 69v25h75v-13q0 -21 14.5 -33.5t38.5 -12.5q55 0 55 60v34q0 27 -15 41t-39 14q-26 0 -50 -26l-73 8l11 213h224v-65h-159q0 -4 -3 -51.5t-3 -52.5q33 26 80 26q44 0 75.5 -25t31.5 -74v-52q0 -52 -40.5 -82t-96.5 -30z" />
    <glyph glyph-name="uni2076" unicode="&#x2076;" horiz-adv-x="331" 
d="M165 368q-56 0 -94.5 30.5t-38.5 81.5v183q0 58 39 88.5t98 30.5q57 0 90.5 -28t33.5 -74v-20h-74v14q0 22 -15 33.5t-39 11.5t-37 -13.5t-13 -35.5v-83q30 37 86 37q44 0 70.5 -25t26.5 -63v-58q0 -50 -38.5 -80t-94.5 -30zM168 429q25 0 38 14.5t13 34.5v52
q0 46 -49 46q-20 0 -37.5 -15.5t-17.5 -40.5v-41q0 -21 14.5 -35.5t38.5 -14.5z" />
    <glyph glyph-name="uni2077" unicode="&#x2077;" horiz-adv-x="306" 
d="M76 380q1 96 37.5 185t85.5 144h-174v65h258v-55q-55 -55 -88.5 -149t-32.5 -190h-86z" />
    <glyph glyph-name="uni2078" unicode="&#x2078;" horiz-adv-x="333" 
d="M166 368q-60 0 -96 26t-36 77v29q0 54 53 78q-22 9 -35 29.5t-13 41.5v30q0 48 36.5 75t90.5 27q55 0 91.5 -25.5t36.5 -74.5v-30q0 -23 -13.5 -42.5t-35.5 -29.5q23 -10 38.5 -31t15.5 -45v-34q0 -47 -37.5 -74t-95.5 -27zM166 426q25 0 39.5 12.5t14.5 34.5v30
q0 23 -16 35t-38 12t-38 -12t-16 -33v-33q0 -21 15.5 -33.5t38.5 -12.5zM167 605q22 0 36.5 12.5t14.5 32.5v29q0 21 -15.5 33t-37.5 12q-20 0 -35.5 -12t-15.5 -31v-32q0 -21 15.5 -32.5t37.5 -11.5z" />
    <glyph glyph-name="uni2079" unicode="&#x2079;" horiz-adv-x="331" 
d="M162 368q-57 0 -90.5 28t-33.5 74v16h74v-10q0 -22 15 -33.5t39 -11.5q23 0 36.5 13.5t13.5 35.5v79q-30 -37 -87 -37q-44 0 -70.5 25t-26.5 64v61q0 50 38.5 80t95.5 30q55 0 93.5 -30.5t38.5 -81.5v-183q0 -58 -39 -88.5t-97 -30.5zM160 574q20 0 38 15.5t18 40.5v41
q0 21 -14.5 35.5t-39.5 14.5t-37.5 -14t-12.5 -35v-52q0 -46 48 -46z" />
    <glyph glyph-name="uni207D" unicode="&#x207d;" horiz-adv-x="193" 
d="M136 312q-38 48 -60 117.5t-22 135.5q0 141 82 247l38 -1q-31 -70 -44 -122.5t-13 -123.5q0 -130 58 -251z" />
    <glyph glyph-name="uni207E" unicode="&#x207e;" horiz-adv-x="193" 
d="M74 312l-39 2q58 121 58 251q0 71 -13 123.5t-44 122.5l38 1q82 -106 82 -247q0 -66 -22 -135.5t-60 -117.5z" />
    <glyph glyph-name="uni2080" unicode="&#x2080;" horiz-adv-x="333" 
d="M168 -145q-57 0 -95 28.5t-38 86.5v182q0 58 38 87t94 29t94 -29t38 -87v-181q0 -57 -38.5 -86.5t-92.5 -29.5zM167 -82q27 0 40 15t13 39v184q0 21 -14 35t-39 14q-26 0 -40.5 -14t-14.5 -36v-184q0 -23 14 -38t41 -15z" />
    <glyph glyph-name="uni2081" unicode="&#x2081;" horiz-adv-x="263" 
d="M102 -133v325l-49 -12l-8 59l93 26h44v-398h-80z" />
    <glyph glyph-name="uni2082" unicode="&#x2082;" horiz-adv-x="320" 
d="M45 -133v50l95 105q68 83 68 129v3q0 51 -48 51q-49 0 -49 -50v-15h-75v21q0 51 34.5 79t90.5 28q59 0 91.5 -31t32.5 -82q0 -32 -14.5 -65t-29.5 -52t-46 -55l-44 -53h139v-63h-245z" />
    <glyph glyph-name="uni2083" unicode="&#x2083;" horiz-adv-x="331" 
d="M164 -145q-63 0 -96.5 28.5t-33.5 76.5v16h75v-13q0 -22 15 -34t38 -12q53 0 53 61q0 32 -18 46t-38 14h-36v54h30q57 0 57 59q0 27 -14.5 40.5t-35.5 13.5q-23 0 -36.5 -12.5t-13.5 -34.5v-11h-73v16q0 49 33.5 77t91.5 28q60 0 92.5 -29.5t32.5 -76.5q0 -32 -16 -58.5
t-47 -35.5v-2q34 -8 53.5 -34t19.5 -60q0 -58 -36.5 -87.5t-96.5 -29.5z" />
    <glyph glyph-name="uni2084" unicode="&#x2084;" horiz-adv-x="318" 
d="M179 -133v92h-159v57l143 248h83l-148 -244h81v59l80 54v-113h43v-61h-43v-92h-80z" />
    <glyph glyph-name="uni2085" unicode="&#x2085;" horiz-adv-x="331" 
d="M160 -145q-57 0 -91.5 27t-34.5 69v25h75v-13q0 -21 14.5 -33.5t38.5 -12.5q55 0 55 60v34q0 27 -15 41t-39 14q-26 0 -50 -26l-73 8l11 213h224v-65h-159q0 -4 -3 -51.5t-3 -52.5q33 26 80 26q44 0 75.5 -25t31.5 -74v-52q0 -52 -40.5 -82t-96.5 -30z" />
    <glyph glyph-name="uni2086" unicode="&#x2086;" horiz-adv-x="331" 
d="M165 -145q-56 0 -94.5 30.5t-38.5 81.5v183q0 58 39 88.5t98 30.5q57 0 90.5 -28t33.5 -74v-20h-74v14q0 22 -15 33.5t-39 11.5t-37 -13.5t-13 -35.5v-83q30 37 86 37q44 0 70.5 -25t26.5 -63v-58q0 -50 -38.5 -80t-94.5 -30zM168 -84q25 0 38 14.5t13 34.5v52
q0 46 -49 46q-20 0 -37.5 -15.5t-17.5 -40.5v-41q0 -21 14.5 -35.5t38.5 -14.5z" />
    <glyph glyph-name="uni2087" unicode="&#x2087;" horiz-adv-x="306" 
d="M76 -133q1 96 37.5 185t85.5 144h-174v65h258v-55q-55 -55 -88.5 -149t-32.5 -190h-86z" />
    <glyph glyph-name="uni2088" unicode="&#x2088;" horiz-adv-x="333" 
d="M166 -145q-60 0 -96 26t-36 77v29q0 54 53 78q-22 9 -35 29.5t-13 41.5v30q0 48 36.5 75t90.5 27q55 0 91.5 -25.5t36.5 -74.5v-30q0 -23 -13.5 -42.5t-35.5 -29.5q23 -10 38.5 -31t15.5 -45v-34q0 -47 -37.5 -74t-95.5 -27zM166 -87q25 0 39.5 12.5t14.5 34.5v30
q0 23 -16 35t-38 12t-38 -12t-16 -33v-33q0 -21 15.5 -33.5t38.5 -12.5zM167 92q22 0 36.5 12.5t14.5 32.5v29q0 21 -15.5 33t-37.5 12q-20 0 -35.5 -12t-15.5 -31v-32q0 -21 15.5 -32.5t37.5 -11.5z" />
    <glyph glyph-name="uni2089" unicode="&#x2089;" horiz-adv-x="331" 
d="M162 -145q-57 0 -90.5 28t-33.5 74v16h74v-10q0 -22 15 -33.5t39 -11.5q23 0 36.5 13.5t13.5 35.5v79q-30 -37 -87 -37q-44 0 -70.5 25t-26.5 64v61q0 50 38.5 80t95.5 30q55 0 93.5 -30.5t38.5 -81.5v-183q0 -58 -39 -88.5t-97 -30.5zM160 61q20 0 38 15.5t18 40.5v41
q0 21 -14.5 35.5t-39.5 14.5t-37.5 -14t-12.5 -35v-52q0 -46 48 -46z" />
    <glyph glyph-name="uni208D" unicode="&#x208d;" horiz-adv-x="193" 
d="M136 -201q-38 48 -60 117.5t-22 135.5q0 141 82 247l38 -1q-31 -70 -44 -122.5t-13 -123.5q0 -130 58 -251z" />
    <glyph glyph-name="uni208E" unicode="&#x208e;" horiz-adv-x="193" 
d="M74 -201l-39 2q58 121 58 251q0 71 -13 123.5t-44 122.5l38 1q82 -106 82 -247q0 -66 -22 -135.5t-60 -117.5z" />
    <glyph glyph-name="uni20AA" unicode="&#x20aa;" horiz-adv-x="420" 
d="M26 0v705h138q64 0 92 -29t28 -119v-435h-66v441q0 49 -29 49h-89v-612h-74zM126 0v583h65v-489h89q30 0 30 48v563h84v-542q0 -91 -29 -127t-91 -36h-148z" />
    <glyph glyph-name="Euro" unicode="&#x20ac;" horiz-adv-x="644" 
d="M366 -12q-105 0 -173 55t-68 158v50h-75v72h75v69h-75v71h75v45q0 96 69 157t172 61q100 0 165 -52t65 -141v-32h-106v28q0 51 -32 80.5t-92 29.5q-57 0 -89 -35.5t-32 -89.5v-51h201v-71h-201v-69h201v-72h-201v-49q0 -60 33.5 -94t93.5 -34q58 0 88 30.5t30 81.5v21
h106v-25q0 -92 -64.5 -143t-165.5 -51z" />
    <glyph glyph-name="trademark" unicode="&#x2122;" horiz-adv-x="618" 
d="M299 398v317h73l59 -139l58 139h72v-317h-56l-1 216l-53 -129h-42l-54 131v-218h-56zM118 398v263h-83v54h226v-54h-82v-263h-61z" />
    <glyph glyph-name="Omega" unicode="&#x2126;" horiz-adv-x="608" 
d="M52 0v101l137 -6v8q-63 55 -101.5 135t-39.5 176v21q0 141 65.5 215.5t189.5 74.5q128 0 192.5 -78t64.5 -209v-23q1 -109 -42.5 -191t-98.5 -121v-8l138 6v-101h-218v90q26 30 38.5 47.5t29.5 52t24 82t7 111.5v79q0 74 -36 119.5t-100 45.5q-62 0 -97.5 -45.5
t-35.5 -128.5v-63q0 -119 25 -182.5t77 -117.5v-90h-219z" />
    <glyph glyph-name="uni2153" unicode="&#x2153;" horiz-adv-x="749" 
d="M129 317v325l-49 -12l-8 59l93 26h44v-398h-80zM132 -3l386 721h58l-386 -721h-58zM563 -12q-63 0 -96.5 28.5t-33.5 76.5v16h75v-13q0 -22 15 -34t38 -12q53 0 53 61q0 32 -18 46t-38 14h-36v54h30q57 0 57 59q0 27 -14.5 40.5t-35.5 13.5q-23 0 -36.5 -12.5
t-13.5 -34.5v-11h-73v16q0 49 33.5 77t91.5 28q60 0 92.5 -29.5t32.5 -76.5q0 -32 -16 -58.5t-47 -35.5v-2q34 -8 53.5 -34t19.5 -60q0 -58 -36.5 -87.5t-96.5 -29.5z" />
    <glyph glyph-name="uni2154" unicode="&#x2154;" horiz-adv-x="749" 
d="M41 317v50l95 105q68 83 68 129v3q0 51 -48 51q-49 0 -49 -50v-15h-75v21q0 51 34.5 79t90.5 28q59 0 91.5 -31t32.5 -82q0 -32 -14.5 -65t-29.5 -52t-46 -55l-44 -53h139v-63h-245zM164 -3l386 721h58l-386 -721h-58zM579 -12q-63 0 -96.5 28.5t-33.5 76.5v16h75v-13
q0 -22 15 -34t38 -12q53 0 53 61q0 32 -18 46t-38 14h-36v54h30q57 0 57 59q0 27 -14.5 40.5t-35.5 13.5q-23 0 -36.5 -12.5t-13.5 -34.5v-11h-73v16q0 49 33.5 77t91.5 28q60 0 92.5 -29.5t32.5 -76.5q0 -32 -16 -58.5t-47 -35.5v-2q34 -8 53.5 -34t19.5 -60
q0 -58 -36.5 -87.5t-96.5 -29.5z" />
    <glyph glyph-name="uni2155" unicode="&#x2155;" horiz-adv-x="749" 
d="M136 317v325l-49 -12l-8 59l93 26h44v-398h-80zM569 -12q-57 0 -91.5 27t-34.5 69v25h75v-13q0 -21 14.5 -33.5t38.5 -12.5q55 0 55 60v34q0 27 -15 41t-39 14q-26 0 -50 -26l-73 8l11 213h224v-65h-159q0 -4 -3 -51.5t-3 -52.5q33 26 80 26q44 0 75.5 -25t31.5 -74v-52
q0 -52 -40.5 -82t-96.5 -30zM138 -3l386 721h58l-386 -721h-58z" />
    <glyph glyph-name="uni2156" unicode="&#x2156;" horiz-adv-x="749" 
d="M42 317v50l95 105q68 83 68 129v3q0 51 -48 51q-49 0 -49 -50v-15h-75v21q0 51 34.5 79t90.5 28q59 0 91.5 -31t32.5 -82q0 -32 -14.5 -65t-29.5 -52t-46 -55l-44 -53h139v-63h-245zM580 -12q-57 0 -91.5 27t-34.5 69v25h75v-13q0 -21 14.5 -33.5t38.5 -12.5q55 0 55 60
v34q0 27 -15 41t-39 14q-26 0 -50 -26l-73 8l11 213h224v-65h-159q0 -4 -3 -51.5t-3 -52.5q33 26 80 26q44 0 75.5 -25t31.5 -74v-52q0 -52 -40.5 -82t-96.5 -30zM159 -3l386 721h58l-386 -721h-58z" />
    <glyph glyph-name="uni2157" unicode="&#x2157;" horiz-adv-x="749" 
d="M171 305q-63 0 -96.5 28.5t-33.5 76.5v16h75v-13q0 -22 15 -34t38 -12q53 0 53 61q0 32 -18 46t-38 14h-36v54h30q57 0 57 59q0 27 -14.5 40.5t-35.5 13.5q-23 0 -36.5 -12.5t-13.5 -34.5v-11h-73v16q0 49 33.5 77t91.5 28q60 0 92.5 -29.5t32.5 -76.5q0 -32 -16 -58.5
t-47 -35.5v-2q34 -8 53.5 -34t19.5 -60q0 -58 -36.5 -87.5t-96.5 -29.5zM159 -3l386 721h58l-386 -721h-58zM580 -12q-57 0 -91.5 27t-34.5 69v25h75v-13q0 -21 14.5 -33.5t38.5 -12.5q55 0 55 60v34q0 27 -15 41t-39 14q-26 0 -50 -26l-73 8l11 213h224v-65h-159
q0 -4 -3 -51.5t-3 -52.5q33 26 80 26q44 0 75.5 -25t31.5 -74v-52q0 -52 -40.5 -82t-96.5 -30z" />
    <glyph glyph-name="uni2158" unicode="&#x2158;" horiz-adv-x="749" 
d="M183 317v92h-159v57l143 248h83l-148 -244h81v59l80 54v-113h43v-61h-43v-92h-80zM580 -12q-57 0 -91.5 27t-34.5 69v25h75v-13q0 -21 14.5 -33.5t38.5 -12.5q55 0 55 60v34q0 27 -15 41t-39 14q-26 0 -50 -26l-73 8l11 213h224v-65h-159q0 -4 -3 -51.5t-3 -52.5
q33 26 80 26q44 0 75.5 -25t31.5 -74v-52q0 -52 -40.5 -82t-96.5 -30zM160 -3l386 721h58l-386 -721h-58z" />
    <glyph glyph-name="uni2159" unicode="&#x2159;" horiz-adv-x="749" 
d="M149 317v325l-49 -12l-8 59l93 26h44v-398h-80zM567 -12q-56 0 -94.5 30.5t-38.5 81.5v183q0 58 39 88.5t98 30.5q57 0 90.5 -28t33.5 -74v-20h-74v14q0 22 -15 33.5t-39 11.5t-37 -13.5t-13 -35.5v-83q30 37 86 37q44 0 70.5 -25t26.5 -63v-58q0 -50 -38.5 -80
t-94.5 -30zM570 49q25 0 38 14.5t13 34.5v52q0 46 -49 46q-20 0 -37.5 -15.5t-17.5 -40.5v-41q0 -21 14.5 -35.5t38.5 -14.5zM142 -3l386 721h58l-386 -721h-58z" />
    <glyph glyph-name="uni215A" unicode="&#x215a;" horiz-adv-x="749" 
d="M576 -12q-56 0 -94.5 30.5t-38.5 81.5v183q0 58 39 88.5t98 30.5q57 0 90.5 -28t33.5 -74v-20h-74v14q0 22 -15 33.5t-39 11.5t-37 -13.5t-13 -35.5v-83q30 37 86 37q44 0 70.5 -25t26.5 -63v-58q0 -50 -38.5 -80t-94.5 -30zM579 49q25 0 38 14.5t13 34.5v52q0 46 -49 46
q-20 0 -37.5 -15.5t-17.5 -40.5v-41q0 -21 14.5 -35.5t38.5 -14.5zM191 305q-57 0 -91.5 27t-34.5 69v25h75v-13q0 -21 14.5 -33.5t38.5 -12.5q55 0 55 60v34q0 27 -15 41t-39 14q-26 0 -50 -26l-73 8l11 213h224v-65h-159q0 -4 -3 -51.5t-3 -52.5q33 26 80 26
q44 0 75.5 -25t31.5 -74v-52q0 -52 -40.5 -82t-96.5 -30zM166 -3l386 721h58l-386 -721h-58z" />
    <glyph glyph-name="uni215B" unicode="&#x215b;" horiz-adv-x="749" 
d="M149 317v325l-49 -12l-8 59l93 26h44v-398h-80zM568 -12q-60 0 -96 26t-36 77v29q0 54 53 78q-22 9 -35 29.5t-13 41.5v30q0 48 36.5 75t90.5 27q55 0 91.5 -25.5t36.5 -74.5v-30q0 -23 -13.5 -42.5t-35.5 -29.5q23 -10 38.5 -31t15.5 -45v-34q0 -47 -37.5 -74t-95.5 -27
zM568 46q25 0 39.5 12.5t14.5 34.5v30q0 23 -16 35t-38 12t-38 -12t-16 -33v-33q0 -21 15.5 -33.5t38.5 -12.5zM569 225q22 0 36.5 12.5t14.5 32.5v29q0 21 -15.5 33t-37.5 12q-20 0 -35.5 -12t-15.5 -31v-32q0 -21 15.5 -32.5t37.5 -11.5zM142 -3l386 721h58l-386 -721h-58
z" />
    <glyph glyph-name="uni215C" unicode="&#x215c;" horiz-adv-x="749" 
d="M578 -12q-60 0 -96 26t-36 77v29q0 54 53 78q-22 9 -35 29.5t-13 41.5v30q0 48 36.5 75t90.5 27q55 0 91.5 -25.5t36.5 -74.5v-30q0 -23 -13.5 -42.5t-35.5 -29.5q23 -10 38.5 -31t15.5 -45v-34q0 -47 -37.5 -74t-95.5 -27zM578 46q25 0 39.5 12.5t14.5 34.5v30
q0 23 -16 35t-38 12t-38 -12t-16 -33v-33q0 -21 15.5 -33.5t38.5 -12.5zM579 225q22 0 36.5 12.5t14.5 32.5v29q0 21 -15.5 33t-37.5 12q-20 0 -35.5 -12t-15.5 -31v-32q0 -21 15.5 -32.5t37.5 -11.5zM195 305q-63 0 -96.5 28.5t-33.5 76.5v16h75v-13q0 -22 15 -34t38 -12
q53 0 53 61q0 32 -18 46t-38 14h-36v54h30q57 0 57 59q0 27 -14.5 40.5t-35.5 13.5q-23 0 -36.5 -12.5t-13.5 -34.5v-11h-73v16q0 49 33.5 77t91.5 28q60 0 92.5 -29.5t32.5 -76.5q0 -32 -16 -58.5t-47 -35.5v-2q34 -8 53.5 -34t19.5 -60q0 -58 -36.5 -87.5t-96.5 -29.5z
M171 -3l386 721h58l-386 -721h-58z" />
    <glyph glyph-name="uni215D" unicode="&#x215d;" horiz-adv-x="749" 
d="M575 -12q-60 0 -96 26t-36 77v29q0 54 53 78q-22 9 -35 29.5t-13 41.5v30q0 48 36.5 75t90.5 27q55 0 91.5 -25.5t36.5 -74.5v-30q0 -23 -13.5 -42.5t-35.5 -29.5q23 -10 38.5 -31t15.5 -45v-34q0 -47 -37.5 -74t-95.5 -27zM575 46q25 0 39.5 12.5t14.5 34.5v30
q0 23 -16 35t-38 12q-23 0 -38.5 -12t-15.5 -33v-33q0 -21 15.5 -33.5t38.5 -12.5zM576 225q22 0 36.5 12.5t14.5 32.5v29q0 21 -15.5 33t-37.5 12q-20 0 -35.5 -12t-15.5 -31v-32q0 -21 15.5 -32.5t37.5 -11.5zM192 305q-57 0 -91.5 27t-34.5 69v25h75v-13
q0 -21 14.5 -33.5t38.5 -12.5q55 0 55 60v34q0 27 -15 41t-39 14q-26 0 -50 -26l-73 8l11 213h224v-65h-159q0 -4 -3 -51.5t-3 -52.5q33 26 80 26q44 0 75.5 -25t31.5 -74v-52q0 -52 -40.5 -82t-96.5 -30zM166 -3l386 721h58l-386 -721h-58z" />
    <glyph glyph-name="uni215E" unicode="&#x215e;" horiz-adv-x="749" 
d="M575 -12q-60 0 -96 26t-36 77v29q0 54 53 78q-22 9 -35 29.5t-13 41.5v30q0 48 36.5 75t90.5 27q55 0 91.5 -25.5t36.5 -74.5v-30q0 -23 -13.5 -42.5t-35.5 -29.5q23 -10 38.5 -31t15.5 -45v-34q0 -47 -37.5 -74t-95.5 -27zM575 46q25 0 39.5 12.5t14.5 34.5v30
q0 23 -16 35t-38 12q-23 0 -38.5 -12t-15.5 -33v-33q0 -21 15.5 -33.5t38.5 -12.5zM576 225q22 0 36.5 12.5t14.5 32.5v29q0 21 -15.5 33t-37.5 12q-20 0 -35.5 -12t-15.5 -31v-32q0 -21 15.5 -32.5t37.5 -11.5zM131 317q1 96 37.5 185t85.5 144h-174v65h258v-55
q-55 -55 -88.5 -149t-32.5 -190h-86zM150 -3l386 721h58l-386 -721h-58z" />
    <glyph glyph-name="arrowleft" unicode="&#x2190;" horiz-adv-x="563" 
d="M231 161l-181 191v8l181 191l51 -50l-110 -108h332v-75h-332l109 -110z" />
    <glyph glyph-name="arrowup" unicode="&#x2191;" horiz-adv-x="563" 
d="M246 129v332l-107 -111l-50 51l190 182h8l191 -182l-46 -49l-111 109v-332h-75z" />
    <glyph glyph-name="arrowright" unicode="&#x2192;" horiz-adv-x="563" 
d="M329 161l-50 47l109 110h-332v75h332l-110 108l51 50l182 -191v-8z" />
    <glyph glyph-name="arrowdown" unicode="&#x2193;" horiz-adv-x="563" 
d="M280 129l-191 181l47 50l110 -109v332h75v-332l108 110l49 -51l-190 -181h-8z" />
    <glyph glyph-name="uni2196" unicode="&#x2196;" horiz-adv-x="563" 
d="M418 169l-235 234l2 -153h-71l5 264l6 5l264 6l2 -67l-155 -1l235 -236z" />
    <glyph glyph-name="uni2197" unicode="&#x2197;" horiz-adv-x="563" 
d="M167 169l-53 52l235 236l-154 1l1 67l264 -6l6 -5l5 -264h-71l3 153z" />
    <glyph glyph-name="uni2198" unicode="&#x2198;" horiz-adv-x="563" 
d="M196 169l-1 67l154 1l-235 235l53 53l236 -235q0 14 -1.5 77t-1.5 77h71q0 -18 -2.5 -132.5t-2.5 -131.5l-6 -5z" />
    <glyph glyph-name="uni2199" unicode="&#x2199;" horiz-adv-x="563" 
d="M389 169l-264 6l-6 5l-5 264h71l-2 -154l235 235l53 -53l-235 -235l155 -1z" />
    <glyph glyph-name="partialdiff" unicode="&#x2202;" horiz-adv-x="505" 
d="M253 -12q-91 0 -147 45.5t-56 139.5v153q0 79 44 127t117 58q25 3 47 -5l-140 208l122 12q159 -238 182 -278q33 -49 33 -120v-150q0 -94 -56.5 -142t-145.5 -48zM254 72q90 0 90 102v159q0 100 -87 100q-47 0 -71 -28.5t-24 -74.5v-163q0 -95 92 -95z" />
    <glyph glyph-name="Delta" unicode="&#x2206;" horiz-adv-x="601" 
d="M32 0v53l208 662h140l208 -661v-54h-556zM156 98h303l-151 505h-4z" />
    <glyph glyph-name="product" unicode="&#x220f;" horiz-adv-x="650" 
d="M126 -133v742h-87v104h572v-104h-82v-742h-105v742h-193v-742h-105z" />
    <glyph glyph-name="summation" unicode="&#x2211;" horiz-adv-x="530" 
d="M48 -133v84l259 354l-263 325v84h437v-101h-282l236 -289v-31l-240 -326h287v-100h-434z" />
    <glyph glyph-name="minus" unicode="&#x2212;" 
d="M69 282v71h402v-71h-402z" />
    <glyph glyph-name="radical" unicode="&#x221a;" horiz-adv-x="559" 
d="M180 -2l-158 522h116l98 -367h2l202 560h105l-263 -715h-102z" />
    <glyph glyph-name="infinity" unicode="&#x221e;" horiz-adv-x="826" 
d="M600 158q-99 0 -190 108q-99 -105 -191 -105q-78 0 -126.5 46.5t-48.5 114.5q0 72 51.5 119.5t126.5 47.5q102 0 195 -109q102 102 194 102q78 0 124.5 -41t46.5 -111q0 -76 -51 -124t-131 -48zM214 225q40 0 77 25.5t81 72.5q-73 103 -151 103q-43 0 -73.5 -27.5
t-30.5 -66.5q0 -45 26 -76t71 -31zM602 222q47 0 77.5 29t30.5 72t-25.5 70t-74.5 27q-58 0 -155 -99q35 -46 69.5 -72.5t77.5 -26.5z" />
    <glyph glyph-name="integral" unicode="&#x222b;" horiz-adv-x="396" 
d="M75 -188q-42 0 -72 9l7 78q15 -3 42 -3q29 0 40.5 16t14.5 47l41 629q4 66 42 103.5t95 37.5q45 0 77 -10l-8 -79q-26 6 -49 6q-24 0 -40.5 -15t-18.5 -45l-40 -634q-5 -67 -38.5 -103.5t-92.5 -36.5z" />
    <glyph glyph-name="approxequal" unicode="&#x2248;" 
d="M108 167l-52 10q8 48 31.5 79t65.5 31q26 0 117.5 -16.5t117.5 -16.5q29 0 45 46l51 -12q-18 -111 -96 -111q-25 0 -118 17t-119 17q-19 0 -27.5 -10.5t-15.5 -33.5zM108 348l-52 10q8 49 31.5 80t65.5 31q26 0 117.5 -17t117.5 -17q17 0 27 11.5t18 35.5l51 -12
q-17 -111 -96 -111q-25 0 -118 17t-119 17q-19 0 -27.5 -11t-15.5 -34z" />
    <glyph glyph-name="notequal" unicode="&#x2260;" 
d="M214 85l-60 24l36 84h-121v72h154q3 8 21 49.5t21 49.5h-196v71h230q0 1 19.5 44.5t21.5 50.5l61 -24l-30 -71h100v-71h-133q-42 -95 -43 -99h176v-72h-209q-2 -6 -23.5 -53.5t-24.5 -54.5z" />
    <glyph glyph-name="lessequal" unicode="&#x2264;" 
d="M429 186l-354 163v55l359 159l31 -64l-290 -122q23 -11 144 -63.5t143 -63.5zM68 41v72h401v-72h-401z" />
    <glyph glyph-name="greaterequal" unicode="&#x2265;" 
d="M111 186l-33 64l287 127q-22 10 -145.5 61t-145.5 61l32 64l359 -159v-55zM71 41v72h401v-72h-401z" />
    <glyph glyph-name="blacksquare" unicode="&#x25a0;" horiz-adv-x="715" 
d="M46 0v715h623v-715h-623z" />
    <glyph glyph-name="whitesquare" unicode="&#x25a1;" horiz-adv-x="716" 
d="M47 0v713h622v-713h-622zM112 62h492v590h-492v-590z" />
    <glyph glyph-name="blacksmallsquare" unicode="&#x25aa;" horiz-adv-x="597" 
d="M52 0v553h493v-553h-493z" />
    <glyph glyph-name="triagup" unicode="&#x25b2;" horiz-adv-x="506" 
d="M52 171v8l191 366h8l204 -366v-8h-403z" />
    <glyph glyph-name="triagrt" unicode="&#x25ba;" horiz-adv-x="506" 
d="M69 156v403h8l366 -194v-8q-30 -17 -104.5 -58t-157 -86l-104.5 -57h-8z" />
    <glyph glyph-name="triagdn" unicode="&#x25bc;" horiz-adv-x="506" 
d="M255 171l-203 365v9h403v-9l-192 -365h-8z" />
    <glyph glyph-name="triaglf" unicode="&#x25c4;" horiz-adv-x="506" 
d="M428 156l-366 201v8l366 194h8v-403h-8z" />
    <glyph glyph-name="lozenge" unicode="&#x25ca;" horiz-adv-x="513" 
d="M227 -1l-185 340v13l185 362h59l185 -362v-13l-185 -340h-59zM259 92l133 251l-138 269l-131 -263z" />
    <glyph glyph-name="uni25E2" unicode="&#x25e2;" horiz-adv-x="506" 
d="M460 137l-405 78l-4 7l272 305l6 -1l137 -383z" />
    <glyph glyph-name="uni25E3" unicode="&#x25e3;" horiz-adv-x="506" 
d="M57 137l-6 6l137 383l7 1l271 -305l-3 -7z" />
    <glyph glyph-name="uni25E4" unicode="&#x25e4;" horiz-adv-x="506" 
d="M195 136h-4l-3 1q-80 221 -137 383l6 6l405 -78q1 -1 4 -7z" />
    <glyph glyph-name="uni25E5" unicode="&#x25e5;" horiz-adv-x="506" 
d="M323 136l-272 305q3 6 4 7l405 78l6 -6q-8 -22 -66.5 -187.5t-70.5 -195.5q-1 0 -3 -0.5t-3 -0.5z" />
    <glyph glyph-name="I.alt" unicode="&#xe131;" horiz-adv-x="419" 
d="M31 617v96h357v-96h-119v-520h119v-97h-357v97h119v520h-119z" />
    <glyph glyph-name="I.alt" unicode="&#xe488;" horiz-adv-x="419" 
d="M31 617v96h357v-96h-119v-520h119v-97h-357v97h119v520h-119z" />
    <glyph glyph-name="Igrave.alt" unicode="&#xe132;" horiz-adv-x="411" 
d="M27 617v96h357v-96h-119v-520h119v-97h-357v97h119v520h-119zM175 762l-115 152h111l87 -152h-83z" />
    <glyph glyph-name="Iacute.alt" unicode="&#xe133;" horiz-adv-x="411" 
d="M27 617v96h357v-96h-119v-520h119v-97h-357v97h119v520h-119zM165 762l87 152h110l-114 -152h-83z" />
    <glyph glyph-name="Icircumflex.alt" unicode="&#xe134;" horiz-adv-x="411" 
d="M27 617v96h357v-96h-119v-520h119v-97h-357v97h119v520h-119zM65 763l102 156h79l100 -156h-88l-54 94l-55 -94h-84z" />
    <glyph glyph-name="Idieresis.alt" unicode="&#xe135;" horiz-adv-x="411" 
d="M27 617v96h357v-96h-119v-520h119v-97h-357v97h119v520h-119zM73 779v124h93v-124h-93zM246 779v124h93v-124h-93z" />
    <glyph glyph-name="Itilde.alt" unicode="&#xe136;" horiz-adv-x="411" 
d="M27 617v96h357v-96h-119v-520h119v-97h-357v97h119v520h-119zM89 763l-56 10q6 48 31.5 80t67.5 32q26 0 76 -18t75 -18q18 0 28.5 11.5t18.5 35.5l50 -12q-7 -47 -31.5 -78.5t-65.5 -31.5q-27 0 -77 18t-73 18q-20 0 -28.5 -11t-15.5 -36z" />
    <glyph glyph-name="Imacron.alt" unicode="&#xe138;" horiz-adv-x="411" 
d="M27 617v96h357v-96h-119v-520h119v-97h-357v97h119v520h-119zM57 784v78h296v-78h-296z" />
    <glyph glyph-name="Ibreve.alt" unicode="&#xe139;" horiz-adv-x="411" 
d="M27 617v96h357v-96h-119v-520h119v-97h-357v97h119v520h-119zM204 765q-72 0 -114.5 39.5t-45.5 108.5h76q6 -40 25.5 -60.5t62.5 -20.5q70 0 77 81h73q-3 -71 -46.5 -109.5t-107.5 -38.5z" />
    <glyph glyph-name="Idotaccent.alt" unicode="&#xe13c;" horiz-adv-x="411" 
d="M27 617v96h357v-96h-119v-520h119v-97h-357v97h119v520h-119zM156 779v126h99v-126h-99z" />
    <glyph glyph-name="Iogonek.alt" unicode="&#xe13e;" horiz-adv-x="411" 
d="M310 -202q-43 0 -72.5 23.5t-29.5 68.5q0 65 59 110h-240v97h119v520h-119v96h357v-96h-119v-520h119v-97h-36q-32 -13 -52 -38t-20 -55q0 -50 49 -50q26 0 54 18l27 -50q-36 -27 -96 -27z" />
    <glyph glyph-name="zero.dnom" unicode="&#xe402;" horiz-adv-x="333" 
d="M168 -12q-57 0 -95 28.5t-38 86.5v182q0 58 38 87t94 29t94 -29t38 -87v-181q0 -57 -38.5 -86.5t-92.5 -29.5zM167 51q27 0 40 15t13 39v184q0 21 -14 35t-39 14q-26 0 -40.5 -14t-14.5 -36v-184q0 -23 14 -38t41 -15z" />
    <glyph glyph-name="one.dnom" unicode="&#xe403;" horiz-adv-x="263" 
d="M102 0v325l-49 -12l-8 59l93 26h44v-398h-80z" />
    <glyph glyph-name="two.dnom" unicode="&#xe404;" horiz-adv-x="320" 
d="M45 0v50l95 105q68 83 68 129v3q0 51 -48 51q-49 0 -49 -50v-15h-75v21q0 51 34.5 79t90.5 28q59 0 91.5 -31t32.5 -82q0 -32 -14.5 -65t-29.5 -52t-46 -55l-44 -53h139v-63h-245z" />
    <glyph glyph-name="three.dnom" unicode="&#xe405;" horiz-adv-x="331" 
d="M164 -12q-63 0 -96.5 28.5t-33.5 76.5v16h75v-13q0 -22 15 -34t38 -12q53 0 53 61q0 32 -18 46t-38 14h-36v54h30q57 0 57 59q0 27 -14.5 40.5t-35.5 13.5q-23 0 -36.5 -12.5t-13.5 -34.5v-11h-73v16q0 49 33.5 77t91.5 28q60 0 92.5 -29.5t32.5 -76.5q0 -32 -16 -58.5
t-47 -35.5v-2q34 -8 53.5 -34t19.5 -60q0 -58 -36.5 -87.5t-96.5 -29.5z" />
    <glyph glyph-name="four.dnom" unicode="&#xe406;" horiz-adv-x="318" 
d="M179 0v92h-159v57l143 248h83l-148 -244h81v59l80 54v-113h43v-61h-43v-92h-80z" />
    <glyph glyph-name="five.dnom" unicode="&#xe407;" horiz-adv-x="331" 
d="M160 -12q-57 0 -91.5 27t-34.5 69v25h75v-13q0 -21 14.5 -33.5t38.5 -12.5q55 0 55 60v34q0 27 -15 41t-39 14q-26 0 -50 -26l-73 8l11 213h224v-65h-159q0 -4 -3 -51.5t-3 -52.5q33 26 80 26q44 0 75.5 -25t31.5 -74v-52q0 -52 -40.5 -82t-96.5 -30z" />
    <glyph glyph-name="six.dnom" unicode="&#xe408;" horiz-adv-x="331" 
d="M165 -12q-56 0 -94.5 30.5t-38.5 81.5v183q0 58 39 88.5t98 30.5q57 0 90.5 -28t33.5 -74v-20h-74v14q0 22 -15 33.5t-39 11.5t-37 -13.5t-13 -35.5v-83q30 37 86 37q44 0 70.5 -25t26.5 -63v-58q0 -50 -38.5 -80t-94.5 -30zM168 49q25 0 38 14.5t13 34.5v52q0 46 -49 46
q-20 0 -37.5 -15.5t-17.5 -40.5v-41q0 -21 14.5 -35.5t38.5 -14.5z" />
    <glyph glyph-name="seven.dnom" unicode="&#xe409;" horiz-adv-x="306" 
d="M76 0q1 96 37.5 185t85.5 144h-174v65h258v-55q-55 -55 -88.5 -149t-32.5 -190h-86z" />
    <glyph glyph-name="eight.dnom" unicode="&#xe40a;" horiz-adv-x="333" 
d="M166 -12q-60 0 -96 26t-36 77v29q0 54 53 78q-22 9 -35 29.5t-13 41.5v30q0 48 36.5 75t90.5 27q55 0 91.5 -25.5t36.5 -74.5v-30q0 -23 -13.5 -42.5t-35.5 -29.5q23 -10 38.5 -31t15.5 -45v-34q0 -47 -37.5 -74t-95.5 -27zM166 46q25 0 39.5 12.5t14.5 34.5v30
q0 23 -16 35t-38 12t-38 -12t-16 -33v-33q0 -21 15.5 -33.5t38.5 -12.5zM167 225q22 0 36.5 12.5t14.5 32.5v29q0 21 -15.5 33t-37.5 12q-20 0 -35.5 -12t-15.5 -31v-32q0 -21 15.5 -32.5t37.5 -11.5z" />
    <glyph glyph-name="nine.dnom" unicode="&#xe40b;" horiz-adv-x="331" 
d="M162 -12q-57 0 -90.5 28t-33.5 74v16h74v-10q0 -22 15 -33.5t39 -11.5q23 0 36.5 13.5t13.5 35.5v79q-30 -37 -87 -37q-44 0 -70.5 25t-26.5 64v61q0 50 38.5 80t95.5 30q55 0 93.5 -30.5t38.5 -81.5v-183q0 -58 -39 -88.5t-97 -30.5zM160 194q20 0 38 15.5t18 40.5v41
q0 21 -14.5 35.5t-39.5 14.5t-37.5 -14t-12.5 -35v-52q0 -46 48 -46z" />
    <glyph glyph-name="comma.dnom" unicode="&#xe40d;" horiz-adv-x="171" 
d="M56 -76l22 80h-32v91h79v-88l-34 -83h-35z" />
    <glyph glyph-name="period.dnom" unicode="&#xe40e;" horiz-adv-x="171" 
d="M46 0v95h79v-95h-79z" />
    <glyph glyph-name="parenleft.dnom" unicode="&#xe40f;" horiz-adv-x="193" 
d="M136 -68q-38 48 -60 117.5t-22 135.5q0 141 82 247l38 -1q-31 -70 -44 -122.5t-13 -123.5q0 -130 58 -251z" />
    <glyph glyph-name="parenright.dnom" unicode="&#xe410;" horiz-adv-x="193" 
d="M74 -68l-39 2q58 121 58 251q0 71 -13 123.5t-44 122.5l38 1q82 -106 82 -247q0 -66 -22 -135.5t-60 -117.5z" />
    <glyph glyph-name="caronSlovak" unicode="&#xe413;" horiz-adv-x="211" 
d="M54 531l8 182h93l-26 -182h-75z" />
    <glyph glyph-name="commaaccent" unicode="&#xe414;" horiz-adv-x="211" 
d="M52 -201l8 165h94l-27 -165h-75z" />
    <glyph glyph-name="commaaccent" unicode="&#xf6c3;" horiz-adv-x="211" 
d="M52 -201l8 165h94l-27 -165h-75z" />
    <glyph glyph-name="zero.numr" unicode="&#xe416;" horiz-adv-x="333" 
d="M168 306q-57 0 -95 28.5t-38 86.5v182q0 58 38 87t94 29t94 -29t38 -87v-181q0 -57 -38.5 -86.5t-92.5 -29.5zM167 369q27 0 40 15t13 39v184q0 21 -14 35t-39 14q-26 0 -40.5 -14t-14.5 -36v-184q0 -23 14 -38t41 -15z" />
    <glyph glyph-name="one.numr" unicode="&#xe417;" horiz-adv-x="263" 
d="M102 318v325l-49 -12l-8 59l93 26h44v-398h-80z" />
    <glyph glyph-name="two.numr" unicode="&#xe418;" horiz-adv-x="320" 
d="M45 318v50l95 105q68 83 68 129v3q0 51 -48 51q-49 0 -49 -50v-15h-75v21q0 51 34.5 79t90.5 28q59 0 91.5 -31t32.5 -82q0 -32 -14.5 -65t-29.5 -52t-46 -55l-44 -53h139v-63h-245z" />
    <glyph glyph-name="three.numr" unicode="&#xe419;" horiz-adv-x="331" 
d="M164 306q-63 0 -96.5 28.5t-33.5 76.5v16h75v-13q0 -22 15 -34t38 -12q53 0 53 61q0 32 -18 46t-38 14h-36v54h30q57 0 57 59q0 27 -14.5 40.5t-35.5 13.5q-23 0 -36.5 -12.5t-13.5 -34.5v-11h-73v16q0 49 33.5 77t91.5 28q60 0 92.5 -29.5t32.5 -76.5q0 -32 -16 -58.5
t-47 -35.5v-2q34 -8 53.5 -34t19.5 -60q0 -58 -36.5 -87.5t-96.5 -29.5z" />
    <glyph glyph-name="four.numr" unicode="&#xe41a;" horiz-adv-x="318" 
d="M179 318v92h-159v57l143 248h83l-148 -244h81v59l80 54v-113h43v-61h-43v-92h-80z" />
    <glyph glyph-name="five.numr" unicode="&#xe41b;" horiz-adv-x="331" 
d="M160 306q-57 0 -91.5 27t-34.5 69v25h75v-13q0 -21 14.5 -33.5t38.5 -12.5q55 0 55 60v34q0 27 -15 41t-39 14q-26 0 -50 -26l-73 8l11 213h224v-65h-159q0 -4 -3 -51.5t-3 -52.5q33 26 80 26q44 0 75.5 -25t31.5 -74v-52q0 -52 -40.5 -82t-96.5 -30z" />
    <glyph glyph-name="six.numr" unicode="&#xe41c;" horiz-adv-x="331" 
d="M165 306q-56 0 -94.5 30.5t-38.5 81.5v183q0 58 39 88.5t98 30.5q57 0 90.5 -28t33.5 -74v-20h-74v14q0 22 -15 33.5t-39 11.5t-37 -13.5t-13 -35.5v-83q30 37 86 37q44 0 70.5 -25t26.5 -63v-58q0 -50 -38.5 -80t-94.5 -30zM168 367q25 0 38 14.5t13 34.5v52
q0 46 -49 46q-20 0 -37.5 -15.5t-17.5 -40.5v-41q0 -21 14.5 -35.5t38.5 -14.5z" />
    <glyph glyph-name="seven.numr" unicode="&#xe41d;" horiz-adv-x="306" 
d="M76 318q1 96 37.5 185t85.5 144h-174v65h258v-55q-55 -55 -88.5 -149t-32.5 -190h-86z" />
    <glyph glyph-name="eight.numr" unicode="&#xe41e;" horiz-adv-x="333" 
d="M166 306q-60 0 -96 26t-36 77v29q0 54 53 78q-22 9 -35 29.5t-13 41.5v30q0 48 36.5 75t90.5 27q55 0 91.5 -25.5t36.5 -74.5v-30q0 -23 -13.5 -42.5t-35.5 -29.5q23 -10 38.5 -31t15.5 -45v-34q0 -47 -37.5 -74t-95.5 -27zM166 364q25 0 39.5 12.5t14.5 34.5v30
q0 23 -16 35t-38 12t-38 -12t-16 -33v-33q0 -21 15.5 -33.5t38.5 -12.5zM167 543q22 0 36.5 12.5t14.5 32.5v29q0 21 -15.5 33t-37.5 12q-20 0 -35.5 -12t-15.5 -31v-32q0 -21 15.5 -32.5t37.5 -11.5z" />
    <glyph glyph-name="nine.numr" unicode="&#xe41f;" horiz-adv-x="331" 
d="M162 306q-57 0 -90.5 28t-33.5 74v16h74v-10q0 -22 15 -33.5t39 -11.5q23 0 36.5 13.5t13.5 35.5v79q-30 -37 -87 -37q-44 0 -70.5 25t-26.5 64v61q0 50 38.5 80t95.5 30q55 0 93.5 -30.5t38.5 -81.5v-183q0 -58 -39 -88.5t-97 -30.5zM160 512q20 0 38 15.5t18 40.5v41
q0 21 -14.5 35.5t-39.5 14.5t-37.5 -14t-12.5 -35v-52q0 -46 48 -46z" />
    <glyph glyph-name="comma.numr" unicode="&#xe421;" horiz-adv-x="171" 
d="M56 242l22 80h-32v91h79v-88l-34 -83h-35z" />
    <glyph glyph-name="period.numr" unicode="&#xe422;" horiz-adv-x="171" 
d="M46 318v95h79v-95h-79z" />
    <glyph glyph-name="parenleft.numr" unicode="&#xe423;" horiz-adv-x="193" 
d="M136 250q-38 48 -60 117.5t-22 135.5q0 141 82 247l38 -1q-31 -70 -44 -122.5t-13 -123.5q0 -130 58 -251z" />
    <glyph glyph-name="parenright.numr" unicode="&#xe424;" horiz-adv-x="193" 
d="M74 250l-39 2q58 121 58 251q0 71 -13 123.5t-44 122.5l38 1q82 -106 82 -247q0 -66 -22 -135.5t-60 -117.5z" />
    <glyph glyph-name="numbersign.LP" unicode="&#xe533;" 
d="M97 -2l25 189h-86l9 68h85l32 221h-90l9 66h87l25 173h61l-23 -173h126l24 173h61l-23 -173h85l-8 -66h-85l-30 -221h87l-7 -68h-89l-24 -189h-62l24 189h-126l-25 -189h-62zM193 255h125l32 221h-127z" />
    <glyph glyph-name="zero.LT" unicode="&#xe53f;" 
d="M272 -12q-95 0 -160 49t-65 142v353q0 93 65.5 143t157.5 50q98 0 160.5 -48.5t62.5 -143.5v-353q0 -92 -65 -142t-156 -50zM272 82q53 0 78.5 27.5t25.5 72.5v355q0 39 -28.5 67t-76.5 28q-49 0 -78 -28t-29 -69v-352q0 -48 28 -74.5t80 -26.5z" />
    <glyph glyph-name="one.LT" unicode="&#xe541;" 
d="M220 0v607l-78 -21l-9 87l137 42h63v-715h-113z" />
    <glyph glyph-name="two.LT" unicode="&#xe542;" 
d="M84 0v65l142 192q61 88 92 150.5t31 116.5v15q0 92 -92 92q-88 0 -88 -82v-28h-105v25q0 87 57.5 133t149.5 46q96 0 144 -51.5t48 -137.5q0 -83 -40.5 -163.5t-115.5 -176.5l-71 -94v-2h241v-100h-393z" />
    <glyph glyph-name="three.LT" unicode="&#xe543;" 
d="M271 -12q-103 0 -158.5 46t-55.5 124v35h107v-24q0 -42 29.5 -66t74.5 -24q56 0 77.5 29.5t21.5 92.5q0 34 -12 59t-31.5 36.5t-36.5 16.5t-33 5h-64v92h57q109 0 109 115q0 53 -27 79.5t-69 26.5q-93 0 -93 -84v-27h-105v28q0 82 56.5 129.5t151.5 47.5t145 -52t50 -133
q0 -61 -27 -108t-80 -62v-3q56 -13 90.5 -61.5t34.5 -108.5q0 -96 -62 -152.5t-150 -56.5z" />
    <glyph glyph-name="four.LT" unicode="&#xe544;" 
d="M319 0v169h-281v88l233 456h121l-243 -451h170v119l108 62v-181h76v-93h-76v-169h-108z" />
    <glyph glyph-name="five.LT" unicode="&#xe545;" 
d="M263 -12q-94 0 -148.5 46t-54.5 117v42h108v-27q0 -39 28.5 -63.5t72.5 -24.5q100 0 100 108v84q0 97 -99 97q-49 0 -94 -43l-101 10l19 380h352v-101h-263l-9 -206q56 50 139 50q71 0 119.5 -43t48.5 -128v-114q0 -86 -62.5 -135t-155.5 -49z" />
    <glyph glyph-name="six.LT" unicode="&#xe546;" 
d="M268 -12q-92 0 -151.5 51.5t-59.5 137.5v355q0 92 62.5 143t156.5 51q92 0 147.5 -44.5t55.5 -119.5v-40h-114v32q0 38 -26 59.5t-69 21.5q-47 0 -71.5 -26.5t-24.5 -68.5v-173q21 38 61.5 60t89.5 22q70 0 114.5 -47.5t44.5 -114.5v-115q0 -84 -61.5 -134t-154.5 -50z
M274 79q47 0 73 26t26 63v109q0 48 -26.5 68.5t-65.5 20.5q-44 0 -75.5 -33.5t-31.5 -82.5v-75q0 -39 26.5 -67.5t73.5 -28.5z" />
    <glyph glyph-name="seven.LT" unicode="&#xe547;" 
d="M158 0q1 187 65.5 359.5t135.5 254.5h-296v100h414v-82q-98 -116 -148.5 -288.5t-49.5 -343.5h-121z" />
    <glyph glyph-name="eight.LT" unicode="&#xe548;" 
d="M270 -12q-99 0 -159 44.5t-60 128.5v65q0 47 26.5 83.5t68.5 53.5q-40 14 -63.5 49.5t-23.5 74.5v65q0 82 61 127.5t150 45.5q91 0 151 -43.5t60 -125.5v-63q0 -42 -23.5 -78t-64.5 -51q42 -15 69.5 -51t27.5 -83v-70q0 -81 -62 -126.5t-158 -45.5zM270 78
q48 0 76.5 23.5t28.5 65.5v65q0 44 -31.5 68t-73.5 24t-73 -24t-31 -64v-72q0 -39 29.5 -62.5t74.5 -23.5zM271 403q41 0 71 24.5t30 62.5v62q0 40 -31 61.5t-73 21.5q-38 0 -68 -23t-30 -60v-63q0 -41 30.5 -63.5t70.5 -22.5z" />
    <glyph glyph-name="nine.LT" unicode="&#xe549;" 
d="M265 -12q-92 0 -148 44.5t-56 118.5v42h114v-32q0 -38 26 -59.5t69 -21.5q47 0 72 26t25 68v168q-49 -78 -151 -78q-73 0 -116 49.5t-43 118.5v115q0 84 60.5 131.5t154.5 47.5q92 0 151.5 -51.5t59.5 -137.5v-353q0 -92 -62 -144t-156 -52zM259 348q44 0 76 33.5
t32 82.5v76q0 39 -27 67.5t-73 28.5q-47 0 -73.5 -26.5t-26.5 -63.5v-108q0 -49 27 -69.5t65 -20.5z" />
    <glyph glyph-name="apple" unicode="&#xf8ff;" horiz-adv-x="1082" 
d="M674 -113l-165 3l-19 -2l-7 7q13 4 25.5 7t17.5 5q49 16 59 63q8 61 15 231l-105 -3l2 11l104 6q9 138 11 231l42 24q-56 3 -191 7q-1 -31 -7 -146q-4 -77 -28.5 -137t-58 -91.5t-64.5 -46.5t-56 -15q-31 0 -84.5 15.5t-76.5 28.5l25 39q2 0 36 -13.5t72.5 -25
t60.5 -10.5q52 1 93.5 66.5t39.5 142.5l5 194q-10 0 -32 1t-33 1q-63 0 -114 -45.5t-51 -109.5q20 -44 82 -71q0 -5 -6.5 -19.5t-10.5 -19.5q-71 31 -78 102q0 76 58.5 130.5t152.5 70.5h33l6 175l43 19q-219 8 -261 8q-63 0 -114 -44.5t-51 -107.5q20 -41 84 -66
q0 -3 -5 -11.5t-11.5 -17.5t-6.5 -10q-72 30 -79 101q0 72 60.5 124t140.5 72q69 0 193.5 -5t174.5 -6q16 0 66 -2q5 0 22 -0.5t21 -0.5q14 -1 35 3q16 11 24 28l9 -3q-8 -18 -26 -36q-60 -30 -121 -30q-50 0 -150 4q-3 -14 -4.5 -73t-3.5 -69l-2 -53q16 0 178 -7t246 -7
l69 -1q70 3 97 16l5 -6q-105 -45 -240 -45q-72 0 -158 3q-3 -20 -8 -103.5t-6 -93.5q0 -9 -2 -55l158 10h4l4 -3l-37 -55l-8 5l25 36l-147 -9q-8 -141 -14 -203q-2 -19 -21 -45t-38 -34l1 -1q32 5 96 6t81 2v-1q0 -11 -9.5 -23.5t-20.5 -13.5q-12 -2 -46 -2z" />
    <glyph glyph-name="CR" horiz-adv-x="180" 
 />
    <glyph glyph-name="commatop" horiz-adv-x="211" 
d="M56 584v79l33 100h48l-16 -81h33v-98h-98z" />
    <glyph glyph-name="ringacute" horiz-adv-x="284" 
d="M145 569q-46 0 -70 25.5t-24 61.5q0 42 29 71l92 100l65 -30l-65 -55q33 -6 50 -28t17 -53q0 -40 -26.5 -66t-67.5 -26zM144 606q22 0 35 14t13 39q0 24 -13 38t-34 14t-33.5 -15t-12.5 -39q0 -51 45 -51z" />
    <glyph glyph-name="altogonek" horiz-adv-x="294" 
d="M160 -199q-39 0 -68 24.5t-29 68.5q0 48 30 83.5t65 49.5l33 -26q-60 -29 -60 -92q0 -49 49 -49q18 0 35 11l22 -50q-31 -20 -77 -20z" />
    <glyph glyph-name="period.sub" horiz-adv-x="171" 
d="M46 -133v95h79v-95h-79z" />
    <glyph glyph-name="comma.sub" horiz-adv-x="171" 
d="M56 -209l22 80h-32v91h79v-88l-34 -83h-35z" />
    <glyph glyph-name="period.sup" horiz-adv-x="171" 
d="M46 380v95h79v-95h-79z" />
    <glyph glyph-name="comma.sup" horiz-adv-x="171" 
d="M56 304l22 80h-32v91h79v-88l-34 -83h-35z" />
    <glyph glyph-name="IJ.alt" horiz-adv-x="918" 
d="M31 617v96h357v-96h-119v-520h119v-97h-357v97h119v520h-119zM618 -12q-109 0 -168.5 50.5t-59.5 154.5v63h112v-59q0 -114 113 -114q59 0 85.5 33t26.5 81v516h117v-502q0 -102 -58.5 -162.5t-167.5 -60.5z" />
    <glyph glyph-name="ogonekplus" horiz-adv-x="324" 
d="M157 -202q-43 0 -72.5 23.5t-29.5 68.5q0 49 34 87t76 52l26 -20q-28 -16 -48 -43.5t-20 -58.5q0 -24 13 -37.5t36 -13.5q24 0 54 19l27 -50q-36 -27 -96 -27z" />
    <glyph glyph-name="idotaccent" horiz-adv-x="240" 
d="M66 0v519h109v-519h-109zM66 589v124h109v-124h-109z" />
    </font>
</defs>
</svg>
