<?xml version="1.0" standalone="no"?>
<!DOCTYPE svg PUBLIC "-//W3C//DTD SVG 1.1//EN" "http://www.w3.org/Graphics/SVG/1.1/DTD/svg11.dtd" >
<svg xmlns="http://www.w3.org/2000/svg" xmlns:xlink="http://www.w3.org/1999/xlink" version="1.1">
<metadata>
Created by FontForge 20161013 at Fri Apr 11 05:21:26 2008
 By ,,,
Copyright (c) 2008 by Mrio Feliciano. All rights reserved.
</metadata>
<defs>
<font id="FlamaSemicondensed-Light" horiz-adv-x="540" >
  <font-face 
    font-family="Flama Semicondensed Light"
    font-weight="500"
    font-stretch="normal"
    units-per-em="1000"
    panose-1="2 0 0 0 0 0 0 0 0 0"
    ascent="800"
    descent="-200"
    x-height="506"
    cap-height="713"
    bbox="-152 -202 1060 994"
    underline-thickness="50"
    underline-position="-200"
    unicode-range="U+0020-F8FF"
  />
<missing-glyph horiz-adv-x="822" 
d="M235 118l-40 40l185 185l-185 185l40 40l185 -185l185 185l40 -40l-185 -185l185 -185l-40 -40l-185 185zM55 -18v716h712v-716h-712zM115 42h592v596h-592v-596z" />
    <glyph glyph-name="fi" unicode="fi" horiz-adv-x="509" 
d="M376 0v506h55v-506h-55zM376 599v101h55v-101h-55zM115 0v459h-81v46h81v95q0 59 32.5 92.5t87.5 33.5q29 0 54 -7v-47q-17 6 -50 6q-68 0 -68 -76v-97h106v-46h-106v-459h-56z" />
    <glyph glyph-name="fl" unicode="fl" horiz-adv-x="571" 
d="M475 -6q-47 0 -73.5 27t-26.5 76v616h56v-609q0 -59 61 -59q21 0 45 4v-45q-27 -10 -62 -10zM115 0v459h-81v46h81v95q0 59 32.5 92.5t87.5 33.5q29 0 54 -7v-47q-17 6 -50 6q-68 0 -68 -76v-97h106v-46h-106v-459h-56z" />
    <glyph glyph-name=".notdef" horiz-adv-x="822" 
d="M235 118l-40 40l185 185l-185 185l40 40l185 -185l185 185l40 -40l-185 -185l185 -185l-40 -40l-185 185zM55 -18v716h712v-716h-712zM115 42h592v596h-592v-596z" />
    <glyph glyph-name=".null" horiz-adv-x="11" 
 />
    <glyph glyph-name="nonmarkingreturn" horiz-adv-x="333" 
 />
    <glyph glyph-name="space" unicode=" " horiz-adv-x="180" 
 />
    <glyph glyph-name="exclam" unicode="!" horiz-adv-x="224" 
d="M94 191l-10 277v245h56v-245l-9 -277h-37zM84 0v103h56v-103h-56z" />
    <glyph glyph-name="quotedbl" unicode="&#x22;" horiz-adv-x="305" 
d="M67 516l-9 105v93h56v-93l-9 -105h-38zM202 516l-9 105v93h56v-93l-9 -105h-38z" />
    <glyph glyph-name="numbersign" unicode="#" horiz-adv-x="504" 
d="M91 -3l28 202h-88l5 42h87l38 250h-92l6 39h90l28 185h37l-26 -185h146l26 185h38l-26 -185h89l-6 -39h-87l-36 -250h90l-3 -42h-92l-27 -202h-40l27 202h-145l-27 -202h-40zM164 241h144l38 250h-146z" />
    <glyph glyph-name="dollar" unicode="$" horiz-adv-x="469" 
d="M214 -33v82q-108 7 -174 78l35 36q40 -36 76 -51.5t89 -15.5q59 0 93.5 31t34.5 82q0 46 -22.5 73.5t-70.5 47.5l-96 41q-107 51 -107 151q0 59 39.5 102.5t102.5 50.5v74h49v-73q94 -6 152 -63l-31 -38q-68 55 -144 55q-47 0 -80 -26.5t-33 -73.5q0 -77 88 -112l23 -10
q24 -11 46 -21l22 -10q59 -25 88.5 -64t29.5 -98q0 -65 -44 -111.5t-117 -52.5v-84h-49z" />
    <glyph glyph-name="percent" unicode="%" horiz-adv-x="679" 
d="M166 361q-53 0 -84.5 30.5t-31.5 83.5v137q0 55 33 84.5t84 29.5t84.5 -29t33.5 -85v-140q0 -52 -34.5 -81.5t-84.5 -29.5zM167 400q33 0 52.5 20.5t19.5 48.5v151q0 27 -19.5 47t-52.5 20q-34 0 -53 -19.5t-19 -47.5v-152q0 -30 18.5 -49t53.5 -19zM140 -4l368 727h42
l-367 -727h-43zM509 -11q-52 0 -84 29t-32 82v135q0 56 33 88t84 32t84 -29.5t33 -84.5v-141q0 -52 -34 -81.5t-84 -29.5zM509 30q35 0 54 20t19 48v151q0 27 -19.5 47.5t-53.5 20.5t-52 -19.5t-18 -48.5v-152q0 -30 18 -48.5t52 -18.5z" />
    <glyph glyph-name="ampersand" unicode="&#x26;" horiz-adv-x="640" 
d="M261 -14q-92 0 -146 54t-54 136q0 65 40.5 122t124.5 88q-89 106 -89 176q0 27 9.5 54t29 52.5t55.5 41.5t84 16q76 0 122 -45t46 -103q0 -144 -179 -208l165 -208q30 54 52 149l50 -7q-19 -91 -71 -181l98 -123h-69l-68 86q-81 -100 -200 -100zM270 35q100 0 162 85
l-181 230q-68 -23 -100 -69t-32 -102q0 -63 42 -103.5t109 -40.5zM280 403q79 31 113.5 70.5t34.5 99.5q0 49 -34 80t-84 31q-56 0 -87 -34.5t-31 -82.5q0 -21 11.5 -47t24.5 -45t41 -57q7 -10 11 -15z" />
    <glyph glyph-name="quotesingle" unicode="'" horiz-adv-x="171" 
d="M67 516l-9 105v93h56v-93l-9 -105h-38z" />
    <glyph glyph-name="parenleft" unicode="(" horiz-adv-x="219" 
d="M170 -182q-56 88 -85.5 214.5t-29.5 239.5q0 255 115 449l36 -2q-53 -128 -76.5 -221.5t-23.5 -226.5q0 -237 101 -450z" />
    <glyph glyph-name="parenright" unicode=")" horiz-adv-x="219" 
d="M49 -182l-37 3q101 213 101 450q0 133 -23.5 226.5t-76.5 221.5l36 2q115 -194 115 -449q0 -113 -29.5 -239.5t-85.5 -214.5z" />
    <glyph glyph-name="asterisk" unicode="*" horiz-adv-x="350" 
d="M93 421l-32 22l74 106l-113 68l20 32l114 -68v132h39v-132l112 68l21 -32l-114 -68l76 -106l-33 -22l-82 115z" />
    <glyph glyph-name="plus" unicode="+" 
d="M250 124v173h-168v42h168v173h41v-173h167v-42h-167v-173h-41z" />
    <glyph glyph-name="comma" unicode="," horiz-adv-x="190" 
d="M66 -103l22 106h-22v100h58v-99l-28 -107h-30z" />
    <glyph glyph-name="hyphen" unicode="-" horiz-adv-x="275" 
d="M36 272v46h203v-46h-203z" />
    <glyph glyph-name="period" unicode="." horiz-adv-x="190" 
d="M66 0v103h58v-103h-58z" />
    <glyph glyph-name="slash" unicode="/" horiz-adv-x="298" 
d="M-1 -179l223 897h44l-220 -897h-47z" />
    <glyph glyph-name="zero" unicode="0" horiz-adv-x="513" 
d="M258 -12q-87 0 -143.5 47.5t-56.5 132.5v379q0 85 58 132t142 47q87 0 142 -46t55 -131v-381q0 -85 -56.5 -132.5t-140.5 -47.5zM259 38q67 0 102 36.5t35 95.5v380q0 55 -37 91.5t-101 36.5q-66 0 -103.5 -36t-37.5 -95v-378q0 -59 37.5 -95t104.5 -36z" />
    <glyph glyph-name="one" unicode="1" horiz-adv-x="319" 
d="M137 0v656l-85 -28l-5 47l111 40h37v-715h-58z" />
    <glyph glyph-name="two" unicode="2" horiz-adv-x="446" 
d="M53 0v36l130 176q143 186 143 327v12q-1 57 -29.5 91t-87.5 34q-53 0 -84 -29t-31 -79v-36h-54v33q0 76 49 118.5t127 42.5q83 0 125.5 -48t42.5 -131q0 -97 -39.5 -181t-118.5 -185l-95 -127v-2h273v-52h-351z" />
    <glyph glyph-name="three" unicode="3" horiz-adv-x="489" 
d="M246 -12q-92 0 -140 44.5t-48 110.5v39h56v-37q0 -51 38 -79.5t93 -28.5q66 0 100.5 41t34.5 116q0 43 -14 74.5t-37 47t-45.5 22.5t-45.5 7h-66v50h63q59 0 95 37.5t36 108.5t-37.5 103.5t-90.5 32.5t-86 -26.5t-33 -83.5v-32h-54v32q0 74 48 116.5t131 42.5
q89 0 133.5 -50t44.5 -124q0 -63 -28.5 -113t-85.5 -64v-3q60 -11 95.5 -61t35.5 -120q0 -90 -54.5 -146.5t-138.5 -56.5z" />
    <glyph glyph-name="four" unicode="4" horiz-adv-x="499" 
d="M318 0v194h-275v47l252 472h61l-255 -470h217v150l56 38v-188h88v-49h-88v-194h-56z" />
    <glyph glyph-name="five" unicode="5" horiz-adv-x="483" 
d="M236 -12q-88 0 -134.5 44t-46.5 106v44h57v-38q0 -51 36.5 -79t90.5 -28q58 0 96.5 32t38.5 110v88q0 136 -128 136q-64 0 -120 -52l-54 4l19 359h309v-52h-263l-13 -264q57 52 144 52q71 0 117 -42.5t46 -128.5v-105q0 -88 -54.5 -137t-140.5 -49z" />
    <glyph glyph-name="six" unicode="6" horiz-adv-x="494" 
d="M248 -12q-84 0 -137 50t-53 130l1 381q0 83 53 130.5t137 47.5q82 0 133 -40t51 -106v-42h-56v36q0 48 -37 76t-93 28q-61 0 -95 -35t-34 -89v-201q22 43 67 68t93 25q67 0 114.5 -42t47.5 -110v-138q0 -79 -53.5 -124t-138.5 -45zM254 37q60 0 94 33t34 81v134
q0 61 -35.5 88t-86.5 27q-56 0 -99 -40t-43 -97v-100q0 -54 36.5 -90t99.5 -36z" />
    <glyph glyph-name="seven" unicode="7" horiz-adv-x="452" 
d="M145 0q0 215 62.5 398t137.5 265h-302v51h366v-41q-103 -112 -154.5 -304t-50.5 -369h-59z" />
    <glyph glyph-name="eight" unicode="8" horiz-adv-x="489" 
d="M243 -12q-83 0 -135 44.5t-52 119.5v72q0 49 29.5 87.5t76.5 55.5q-45 13 -72 50.5t-27 79.5v67q0 77 53 119t129 42q79 0 131 -39.5t52 -116.5v-66q0 -43 -27 -81.5t-75 -53.5q47 -14 78 -52t31 -91v-72q0 -77 -53.5 -121t-138.5 -44zM245 37q60 0 96 31t36 86v73
q0 56 -40 87.5t-92 31.5q-53 0 -92.5 -32t-39.5 -87v-76q0 -51 37.5 -82.5t94.5 -31.5zM246 388q49 0 87.5 32.5t38.5 81.5v71q0 50 -38.5 77.5t-91.5 27.5q-48 0 -85.5 -30.5t-37.5 -79.5v-67q0 -53 39.5 -83t87.5 -30z" />
    <glyph glyph-name="nine" unicode="9" horiz-adv-x="494" 
d="M245 -12q-81 0 -132 40t-51 106v43h56v-35q0 -48 37 -76.5t93 -28.5q61 0 94.5 35.5t33.5 88.5v200q-25 -45 -67.5 -68.5t-91.5 -23.5q-68 0 -114.5 41t-46.5 109v141q0 79 53 123t138 44q83 0 135.5 -50t52.5 -129v-380q0 -84 -53 -132t-137 -48zM234 316q56 0 99 40
t43 97v100q0 50 -37 88t-98 38q-60 0 -94 -33.5t-34 -80.5v-137q0 -60 35 -86t86 -26z" />
    <glyph glyph-name="colon" unicode=":" horiz-adv-x="190" 
d="M66 0v103h58v-103h-58zM66 389v102h58v-102h-58z" />
    <glyph glyph-name="semicolon" unicode=";" horiz-adv-x="190" 
d="M66 -103l22 106h-22v100h58v-99l-28 -107h-30zM66 389v102h58v-102h-58z" />
    <glyph glyph-name="less" unicode="&#x3c;" 
d="M425 138l-333 162v37l337 156l19 -40l-289 -134q32 -17 146 -72.5t140 -68.5z" />
    <glyph glyph-name="equal" unicode="=" 
d="M81 220v47h377v-47h-377zM81 370v46h377v-46h-377z" />
    <glyph glyph-name="greater" unicode="&#x3e;" 
d="M115 138l-21 41l287 140q-54 26 -290 134l21 40l336 -156v-37z" />
    <glyph glyph-name="question" unicode="?" horiz-adv-x="454" 
d="M187 191v41q3 49 21 82t54 75q40 45 59.5 79.5t19.5 82.5q0 59 -30.5 92.5t-85.5 33.5q-49 0 -81 -26.5t-32 -83.5v-28h-52v19q0 81 46.5 124t122.5 43q77 0 122.5 -45t45.5 -126q0 -41 -14.5 -78.5t-31 -60t-44.5 -52.5q-23 -27 -32 -38.5t-21.5 -37t-14.5 -51.5v-45
h-52zM184 0v103h59v-103h-59z" />
    <glyph glyph-name="at" unicode="@" horiz-adv-x="888" 
d="M460 -121q-122 0 -216 49q-86 46 -134.5 130.5t-46.5 203.5q0 188 116 310t299 122q155 0 253.5 -92t98.5 -244q0 -71 -24.5 -130t-63.5 -95t-84.5 -56t-91.5 -23h-47l15 93h-2q-62 -104 -157 -104q-56 0 -87 27.5t-31 76.5q0 17 3 31l34 206q13 74 62 112t109 38
q43 0 76 -23.5t39 -67.5h1l14 87h53l-73 -434q89 7 150.5 80t61.5 187q0 135 -90.5 214t-218.5 79q-164 0 -266 -111t-102 -280q0 -108 42.5 -184.5t117.5 -117.5q80 -43 191 -43q95 0 185 25l9 -37q-87 -29 -195 -29zM394 86q49 0 96.5 46.5t58.5 111.5l16 103q3 15 3 30
q0 55 -27 85.5t-70 30.5q-49 0 -83 -32t-43 -88l-29 -182q-3 -21 -3 -31q0 -74 81 -74z" />
    <glyph glyph-name="A" unicode="A" horiz-adv-x="555" 
d="M29 0l215 716h71l212 -716h-60l-69 237h-243l-70 -237h-56zM167 285h217l-107 368h-1z" />
    <glyph glyph-name="B" unicode="B" horiz-adv-x="545" 
d="M80 0v713h220q82 0 129.5 -45.5t47.5 -126.5q0 -65 -36 -114t-93 -58v-2q69 -10 108 -58.5t39 -114.5q0 -95 -54.5 -144.5t-135.5 -49.5h-225zM138 50h153q68 0 105.5 37t37.5 113q0 70 -46 105.5t-113 35.5h-137v-291zM138 391h131q62 0 105.5 36t43.5 106
q0 66 -36.5 99t-95.5 33h-148v-274z" />
    <glyph glyph-name="C" unicode="C" horiz-adv-x="553" 
d="M288 -12q-103 0 -165 53t-62 153v323q0 93 62 150.5t164 57.5q95 0 151 -49.5t56 -125.5v-59h-53v44q0 63 -39.5 101.5t-117.5 38.5t-121 -44.5t-43 -117.5v-309q0 -84 45 -124.5t123 -40.5q73 0 113 36.5t40 96.5v51h53v-56q0 -80 -56 -129.5t-150 -49.5z" />
    <glyph glyph-name="D" unicode="D" horiz-adv-x="574" 
d="M80 0v713h224q95 0 152 -49t57 -143v-317q0 -97 -57.5 -150.5t-152.5 -53.5h-223zM139 51h156q80 0 119 42.5t39 108.5v310q0 67 -39.5 109t-116.5 42h-158v-612z" />
    <glyph glyph-name="E" unicode="E" horiz-adv-x="504" 
d="M80 0v713h374v-51h-315v-265h251v-51h-251v-294h315v-52h-374z" />
    <glyph glyph-name="F" unicode="F" horiz-adv-x="487" 
d="M80 0v713h374v-50h-315v-268h250v-49h-250v-346h-59z" />
    <glyph glyph-name="G" unicode="G" horiz-adv-x="572" 
d="M288 -12q-103 0 -165 53t-62 153v318q0 94 63 154t164 60q95 0 153.5 -50.5t58.5 -125.5v-53h-55v43q0 60 -42.5 97.5t-116.5 37.5q-78 0 -122 -47t-44 -120v-309q0 -76 44.5 -118t124.5 -42q83 0 120.5 40t37.5 104v133h-156v49h213v-191q0 -81 -58.5 -133.5
t-157.5 -52.5z" />
    <glyph glyph-name="H" unicode="H" horiz-adv-x="602" 
d="M80 0v713h59v-316h325v316h58v-713h-58v343h-325v-343h-59z" />
    <glyph glyph-name="I" unicode="I" horiz-adv-x="218" 
d="M80 0v713h59v-713h-59z" />
    <glyph glyph-name="J" unicode="J" horiz-adv-x="513" 
d="M237 -12q-93 0 -146 48.5t-53 139.5v75h56v-69q0 -143 144 -143q74 0 108 41t34 99v534h58v-518q0 -93 -50.5 -150t-150.5 -57z" />
    <glyph glyph-name="K" unicode="K" horiz-adv-x="548" 
d="M80 0v713h59v-385l308 385h64l-220 -274l225 -439h-67l-200 392l-110 -136v-256h-59z" />
    <glyph glyph-name="L" unicode="L" horiz-adv-x="489" 
d="M80 0v713h59v-661h315v-52h-374z" />
    <glyph glyph-name="M" unicode="M" horiz-adv-x="673" 
d="M80 0v713h77l181 -369h2l179 369h75v-713h-56v631h-2l-178 -368h-44l-178 367h-3v-630h-53z" />
    <glyph glyph-name="N" unicode="N" horiz-adv-x="598" 
d="M80 0v713h61l324 -595h2v595h52v-713h-52l-333 617h-2v-617h-52z" />
    <glyph glyph-name="O" unicode="O" horiz-adv-x="577" 
d="M289 -12q-102 0 -165 53.5t-63 156.5v305q0 104 63 163.5t165 59.5q101 0 164 -53.5t63 -154.5v-306q0 -106 -62.5 -165t-164.5 -59zM290 42q78 0 122.5 45t44.5 119v311q0 73 -45.5 114.5t-125.5 41.5t-122.5 -45t-42.5 -126v-298q0 -75 44.5 -118.5t124.5 -43.5z" />
    <glyph glyph-name="P" unicode="P" horiz-adv-x="538" 
d="M80 0v713h204q96 0 147 -58t51 -148q0 -99 -57 -158t-159 -59h-127v-290h-59zM139 339h114q82 0 126 42.5t44 123.5q0 70 -38 114t-108 44h-138v-324z" />
    <glyph glyph-name="Q" unicode="Q" horiz-adv-x="577" 
d="M500 -91l-154 86q-32 -7 -57 -7q-102 0 -165 53.5t-63 156.5v305q0 104 63 163.5t165 59.5q101 0 164 -53.5t63 -154.5v-306q0 -140 -104 -190l119 -59zM290 42q78 0 122.5 45t44.5 119v311q0 73 -45.5 114.5t-125.5 41.5t-122.5 -45t-42.5 -126v-298q0 -75 44.5 -118.5
t124.5 -43.5z" />
    <glyph glyph-name="R" unicode="R" horiz-adv-x="556" 
d="M80 0v713h205q99 0 152 -54t53 -146q0 -82 -41.5 -136t-120.5 -63l184 -314h-66l-176 305h-131v-305h-59zM139 352h130q162 0 162 157q0 71 -38 113t-117 42h-137v-312z" />
    <glyph glyph-name="S" unicode="S" horiz-adv-x="509" 
d="M248 -12q-134 0 -216 87l39 43q43 -40 84 -58t101 -18q65 0 103.5 37.5t38.5 95.5q0 57 -31 89t-87 60l-89 43q-130 63 -130 176q0 79 54.5 131t142.5 52q123 0 189 -75l-39 -39q-35 31 -70 47t-86 16q-57 0 -94.5 -32.5t-37.5 -90.5q0 -44 26.5 -76t80.5 -58l81 -39
q73 -36 111.5 -83t38.5 -114q0 -85 -58.5 -139.5t-151.5 -54.5z" />
    <glyph glyph-name="T" unicode="T" horiz-adv-x="513" 
d="M228 0v663h-206v50h469v-50h-204v-663h-59z" />
    <glyph glyph-name="U" unicode="U" horiz-adv-x="593" 
d="M295 -12q-93 0 -156.5 51t-63.5 156v518h59v-507q0 -88 47.5 -127.5t117.5 -39.5q77 0 121 44.5t41 117.5v512h56v-515q1 -97 -60.5 -153.5t-161.5 -56.5z" />
    <glyph glyph-name="V" unicode="V" horiz-adv-x="521" 
d="M229 -3l-203 716h60l176 -641h1l177 641h56l-204 -716h-63z" />
    <glyph glyph-name="W" unicode="W" horiz-adv-x="757" 
d="M186 -3l-153 716h59l124 -614h2l131 614h65l127 -612h2l124 612h56l-153 -716h-59l-131 627h-3l-132 -627h-59z" />
    <glyph glyph-name="X" unicode="X" horiz-adv-x="483" 
d="M22 0l184 369l-168 344h64l142 -297l144 297h59l-171 -343l186 -370h-63l-160 323l-158 -323h-59z" />
    <glyph glyph-name="Y" unicode="Y" horiz-adv-x="497" 
d="M219 0v306l-189 407h61l162 -350l158 350h57l-190 -408v-305h-59z" />
    <glyph glyph-name="Z" unicode="Z" horiz-adv-x="485" 
d="M48 0v40l322 625h-313v49h381v-41l-321 -622h317v-51h-386z" />
    <glyph glyph-name="bracketleft" unicode="[" horiz-adv-x="254" 
d="M68 -176v889h164v-39h-112v-810h112v-40h-164z" />
    <glyph glyph-name="backslash" unicode="\" horiz-adv-x="298" 
d="M248 -179l-219 897h43l222 -897h-46z" />
    <glyph glyph-name="bracketright" unicode="]" horiz-adv-x="254" 
d="M22 -176v40h112v810h-112v39h165v-889h-165z" />
    <glyph glyph-name="asciicircum" unicode="^" horiz-adv-x="404" 
d="M98 199l86 347h46l76 -347h-43l-57 282q-63 -280 -64 -282h-44z" />
    <glyph glyph-name="underscore" unicode="_" horiz-adv-x="461" 
d="M0 -80v41h461v-41h-461z" />
    <glyph glyph-name="grave" unicode="`" horiz-adv-x="253" 
d="M132 575l-106 144h62l90 -144h-46z" />
    <glyph glyph-name="a" unicode="a" horiz-adv-x="459" 
d="M186 -11q-58 0 -98 37.5t-40 106.5q0 80 54.5 119t125.5 40h104v93q0 91 -105 91q-46 0 -79 -21.5t-33 -62.5v-31h-50v32q0 60 48 92.5t121 32.5q69 0 112 -32.5t43 -96.5v-259q0 -16 1 -41.5t2.5 -53t1.5 -35.5h-52l-4 84h-2q-22 -50 -64 -72.5t-86 -22.5zM203 33
q53 0 91 38t38 95v86h-94q-55 0 -93.5 -24.5t-38.5 -86.5q0 -52 28 -80t69 -28z" />
    <glyph glyph-name="b" unicode="b" horiz-adv-x="477" 
d="M268 -12q-44 0 -85 27t-54 71h-2l-1 -86h-48v713h55v-291h3q20 47 60.5 72t82.5 25q67 0 104 -41.5t37 -103.5v-227q0 -76 -44.5 -117.5t-107.5 -41.5zM261 32q47 0 75 28.5t28 83.5v226q0 46 -26.5 74t-77.5 28q-48 0 -87.5 -44t-39.5 -111v-132q0 -64 37.5 -108.5
t90.5 -44.5z" />
    <glyph glyph-name="c" unicode="c" horiz-adv-x="439" 
d="M228 -12q-82 0 -126.5 46t-44.5 132v174q0 84 46 131t123 47q79 0 120.5 -38.5t41.5 -99.5v-25h-51v24q0 35 -26 64.5t-85 29.5t-86 -36.5t-27 -94.5v-178q0 -131 118 -131q60 0 83 29t23 68v25h51v-27q0 -63 -40 -101.5t-120 -38.5z" />
    <glyph glyph-name="d" unicode="d" horiz-adv-x="475" 
d="M196 -12q-66 0 -102.5 40.5t-36.5 102.5v230q0 74 44 115.5t106 41.5q44 0 81.5 -23.5t52.5 -66.5h1v285h57v-713h-50l-2 95h-3q-24 -56 -64 -81.5t-84 -25.5zM213 35q53 0 91.5 45t38.5 117v125q0 63 -39 108.5t-88 45.5q-46 0 -74.5 -27.5t-28.5 -87.5v-221
q0 -105 100 -105z" />
    <glyph glyph-name="e" unicode="e" horiz-adv-x="452" 
d="M240 -12q-85 0 -134 45t-49 137v158q0 90 49 140t129 50q78 0 121.5 -47t43.5 -130v-96h-286v-77q0 -132 133 -132q57 0 126 38l20 -38q-61 -48 -153 -48zM114 287h233v60q0 54 -28 90.5t-90 36.5q-57 0 -86 -38.5t-29 -90.5v-58z" />
    <glyph glyph-name="f" unicode="f" horiz-adv-x="306" 
d="M115 0v459h-81v46h81v95q0 59 32.5 92.5t87.5 33.5q29 0 54 -7v-47q-17 6 -50 6q-68 0 -68 -76v-97h106v-46h-106v-459h-56z" />
    <glyph glyph-name="g" unicode="g" horiz-adv-x="474" 
d="M215 -188q-97 0 -155 40l21 44q63 -37 132 -37q61 0 95.5 32.5t34.5 94.5v118h-1q-20 -49 -59.5 -72.5t-84.5 -23.5q-67 0 -104 40t-37 102v216q0 73 45.5 113t106.5 40q42 0 82.5 -23t55.5 -70h1l3 81h48v-514q0 -87 -49.5 -134t-134.5 -47zM216 54q52 0 89.5 44
t37.5 114v122q0 62 -39 102t-87 40q-45 0 -74.5 -30.5t-29.5 -85.5v-201q0 -105 103 -105z" />
    <glyph glyph-name="h" unicode="h" horiz-adv-x="488" 
d="M78 0v714h55v-295h2q22 48 63.5 73.5t90.5 25.5q58 0 92 -36t34 -90v-392h-56v373q0 53 -23.5 76t-69.5 23q-50 0 -91.5 -44.5t-41.5 -102.5v-325h-55z" />
    <glyph glyph-name="i" unicode="i" horiz-adv-x="210" 
d="M78 0v506h55v-506h-55zM78 599v101h55v-101h-55z" />
    <glyph glyph-name="j" unicode="j" horiz-adv-x="222" 
d="M31 -189q-23 0 -42 3v48q14 -2 29 -2q41 0 56 21.5t15 62.5v562h56v-573q0 -122 -114 -122zM89 599v101h56v-101h-56z" />
    <glyph glyph-name="k" unicode="k" horiz-adv-x="430" 
d="M78 0v714h55v-468l201 260h65l-139 -174l147 -332h-59l-128 290l-87 -109v-181h-55z" />
    <glyph glyph-name="l" unicode="l" horiz-adv-x="269" 
d="M177 -6q-47 0 -73.5 27t-26.5 76v616h56v-609q0 -59 61 -59q21 0 45 4v-45q-27 -10 -62 -10z" />
    <glyph glyph-name="m" unicode="m" horiz-adv-x="770" 
d="M78 0v506h51v-90h2q22 50 64.5 76t93.5 26t83.5 -29.5t39.5 -72.5h1q23 51 65.5 76.5t93.5 25.5q57 0 91 -35.5t34 -89.5v-393h-56v374q0 98 -93 98q-49 0 -90.5 -41t-42.5 -96v-335h-56v379q-1 93 -93 93q-50 0 -91.5 -43t-41.5 -101v-328h-55z" />
    <glyph glyph-name="n" unicode="n" horiz-adv-x="488" 
d="M78 0v506h51v-88h2q22 50 64.5 75t93.5 25q58 0 92 -36t34 -90v-392h-56v374q0 98 -93 98q-50 0 -91.5 -43t-41.5 -101v-328h-55z" />
    <glyph glyph-name="o" unicode="o" horiz-adv-x="463" 
d="M232 -12q-81 0 -128 47t-47 134v167q0 85 48 133.5t126 48.5q81 0 128 -47t47 -133v-166q0 -89 -47 -136.5t-127 -47.5zM234 35q116 0 116 137v170q0 58 -29.5 94.5t-90.5 36.5t-89 -37.5t-28 -98.5v-166q0 -136 121 -136z" />
    <glyph glyph-name="p" unicode="p" horiz-adv-x="477" 
d="M78 -177v683h51v-86h2q21 49 61.5 74t83.5 25q67 0 105.5 -40.5t38.5 -101.5v-225q0 -78 -41.5 -121t-110.5 -43q-43 0 -81 25t-52 69h-2v-259h-55zM266 32q44 0 71 28.5t27 83.5v223q0 46 -26 75.5t-78 29.5q-54 0 -90.5 -45t-36.5 -113v-125q0 -67 37 -112t96 -45z" />
    <glyph glyph-name="q" unicode="q" horiz-adv-x="474" 
d="M343 -177v264h-2q-26 -51 -65 -75t-79 -24q-66 0 -103 40.5t-37 103.5v229q0 74 44 115.5t106 41.5q45 0 86.5 -25t54.5 -71h2l3 85h46v-684h-56zM211 35q49 0 90.5 44t41.5 109v134q0 64 -39 108.5t-90 44.5q-45 0 -73 -30t-28 -84v-222q0 -47 24 -75.5t74 -28.5z" />
    <glyph glyph-name="r" unicode="r" horiz-adv-x="333" 
d="M78 0v506h51v-89h1q27 55 63 75t86 20q19 0 32 -3v-51q-18 2 -41 2q-58 0 -97 -35.5t-40 -103.5v-321h-55z" />
    <glyph glyph-name="s" unicode="s" horiz-adv-x="408" 
d="M204 -12q-105 0 -169 73l35 38q59 -64 135 -64q48 0 80 24t32 66q0 41 -21.5 65t-68.5 42l-58 22q-107 42 -107 133q0 50 39 91t110 41q95 0 144 -49l-31 -41q-53 45 -114 45q-42 0 -68.5 -23t-26.5 -58q0 -36 19 -56t65 -39l60 -24q111 -43 111 -141q0 -66 -49 -105.5
t-117 -39.5z" />
    <glyph glyph-name="t" unicode="t" horiz-adv-x="339" 
d="M225 -9q-108 0 -108 95v373h-84v46h84v151h56v-151h133v-46h-133v-356q0 -61 69 -61q25 0 63 12v-47q-40 -16 -80 -16z" />
    <glyph glyph-name="u" unicode="u" horiz-adv-x="488" 
d="M202 -12q-58 0 -93 35.5t-35 89.5v393h56v-374q0 -52 23.5 -74.5t68.5 -22.5q53 0 93.5 42.5t40.5 101.5v327h56v-506h-49l-3 89h-2q-20 -47 -63 -74t-93 -27z" />
    <glyph glyph-name="v" unicode="v" horiz-adv-x="403" 
d="M171 -2l-148 508h60l118 -430h2l124 430h53l-154 -508h-55z" />
    <glyph glyph-name="w" unicode="w" horiz-adv-x="653" 
d="M158 -2l-128 508h59l98 -418h2l112 418h59l106 -418h2l103 418h53l-132 -508h-54l-109 441h-3l-115 -441h-53z" />
    <glyph glyph-name="x" unicode="x" horiz-adv-x="395" 
d="M16 0l151 262l-137 244h62l112 -207l112 207h56l-138 -243l146 -263h-60l-124 226l-124 -226h-56z" />
    <glyph glyph-name="y" unicode="y" horiz-adv-x="410" 
d="M79 -191q-34 0 -61 8l7 48q30 -7 51 -7q29 0 47 17t32 58l26 85l-157 488h59l127 -415h1l125 415h52l-177 -568q-37 -129 -132 -129z" />
    <glyph glyph-name="z" unicode="z" horiz-adv-x="397" 
d="M41 0v36l249 426h-243v44h307l-1 -38l-244 -424h245v-44h-313z" />
    <glyph glyph-name="braceleft" unicode="{" horiz-adv-x="262" 
d="M135 -176q-24 0 -38.5 14t-14.5 41v342q0 43 -40 47v40q40 7 40 43v305q0 27 15 42t40 15h109v-37h-98q-17 0 -17 -23v-301q0 -46 -37 -60v-3q37 -16 37 -63v-342q0 -23 17 -23h98v-37h-111z" />
    <glyph glyph-name="bar" unicode="|" horiz-adv-x="241" 
d="M101 -52v767h40v-767h-40z" />
    <glyph glyph-name="braceright" unicode="}" horiz-adv-x="262" 
d="M15 -176v37h99q17 0 17 23v342q0 47 36 63v3q-36 14 -36 60v303q0 22 -17 22h-99v37h110q25 0 40 -14.5t15 -41.5v-307q0 -37 39 -43v-40q-39 -4 -39 -47v-342q0 -55 -55 -55h-110z" />
    <glyph glyph-name="asciitilde" unicode="~" 
d="M112 265l-34 6q5 35 24 58t51 23q24 0 116.5 -16.5t116.5 -16.5q28 0 42 44l34 -8q-16 -83 -76 -83q-22 0 -116.5 17.5t-118.5 17.5q-12 0 -20.5 -7t-11.5 -14.5t-7 -20.5z" />
    <glyph glyph-name="nbspace" unicode="&#xa0;" horiz-adv-x="0" 
 />
    <glyph glyph-name="exclamdown" unicode="&#xa1;" horiz-adv-x="224" 
d="M84 -171v247l8 276h38l8 -276v-247h-54zM84 442v100h56v-100h-56z" />
    <glyph glyph-name="cent" unicode="&#xa2;" horiz-adv-x="456" 
d="M214 -66v80q-74 4 -112.5 49t-38.5 125v174q0 77 40.5 123t110.5 51v74h46v-74q67 -6 102 -43t35 -92v-34h-52v35q0 35 -25.5 64t-83.5 29q-61 0 -88.5 -37t-27.5 -95v-174q0 -133 115 -133q60 0 85 30t25 66v35h52v-37q0 -56 -35 -93t-102 -42v-81h-46z" />
    <glyph glyph-name="sterling" unicode="&#xa3;" horiz-adv-x="516" 
d="M53 0v49h72v295h-67v39h67v172q0 87 49 128.5t124 41.5q73 0 114 -36.5t41 -103.5v-42h-50v44q0 93 -108 93q-50 0 -81.5 -28t-31.5 -90v-179h192v-39h-192v-295h287l-13 -49h-403z" />
    <glyph glyph-name="currency" unicode="&#xa4;" horiz-adv-x="317" 
d="M61 218l-28 28l31 32q-23 32 -23 71q0 36 22 66l-31 31l28 28l30 -30q33 22 67 22q38 0 68 -21l31 31l29 -28l-32 -30q24 -35 24 -71q0 -37 -24 -69l32 -31l-27 -27l-31 31q-32 -21 -68 -21q-34 0 -67 19zM158 265q37 0 58 22.5t21 61.5q0 36 -23 59t-55 23
q-36 0 -57.5 -22.5t-21.5 -63.5q0 -32 22 -56t56 -24z" />
    <glyph glyph-name="yen" unicode="&#xa5;" horiz-adv-x="495" 
d="M218 0v279h-164v42h156l-181 392h63l159 -348l158 348h58l-181 -392h158v-42h-167v-279h-59z" />
    <glyph glyph-name="brokenbar" unicode="&#xa6;" horiz-adv-x="243" 
d="M100 -51v363h43v-363h-43zM100 379v335h43v-335h-43z" />
    <glyph glyph-name="section" unicode="&#xa7;" horiz-adv-x="452" 
d="M223 -73q-71 0 -124.5 33t-53.5 103v25h41v-15q0 -51 39 -79.5t103 -28.5q59 0 96 29t37 77q0 23 -7.5 40t-26 29t-29 16.5t-35.5 13.5q-11 4 -86 29q-115 39 -115 130q0 37 23 72t68 58q-50 24 -70 52t-20 70q0 57 42 96t124 39q78 0 121.5 -35.5t43.5 -98.5v-22h-40v21
q0 45 -33 72t-90 27q-56 0 -90 -25.5t-34 -72.5q0 -62 84 -96l89 -36q122 -45 122 -128q0 -86 -94 -127q101 -36 98 -119q0 -66 -50 -107.5t-133 -41.5zM265 213q92 28 92 107q0 56 -85 90q-77 29 -81 30q-33 -14 -58.5 -43t-25.5 -65t24.5 -59.5t56.5 -33.5z" />
    <glyph glyph-name="dieresis" unicode="&#xa8;" horiz-adv-x="348" 
d="M76 602v97h51v-97h-51zM223 602v97h51v-97h-51z" />
    <glyph glyph-name="copyright" unicode="&#xa9;" horiz-adv-x="835" 
d="M417 75q-82 0 -125 45t-43 129v189q0 83 44.5 129.5t123.5 46.5q78 0 120 -38t42 -99v-49h-47v50q0 35 -26.5 63.5t-86.5 28.5q-62 0 -90.5 -38t-28.5 -97v-184q0 -131 119 -131q60 0 86.5 29t26.5 64v49h47v-49q0 -60 -42.5 -99t-119.5 -39zM416 -47
q-170 0 -264.5 109.5t-94.5 287.5q0 165 99.5 279t259.5 114q111 0 195 -54.5t126 -143t42 -195.5q0 -110 -41.5 -199t-125 -143.5t-196.5 -54.5zM420 -15q138 0 227.5 100.5t89.5 264.5q0 167 -91.5 263.5t-229.5 96.5t-228 -98.5t-90 -261.5q0 -170 89 -267.5t233 -97.5z
" />
    <glyph glyph-name="ordfeminine" unicode="&#xaa;" horiz-adv-x="315" 
d="M127 384q-37 0 -63.5 24.5t-26.5 69.5q0 51 37 76t84 25h59v55q0 57 -62 57q-27 0 -45.5 -13t-18.5 -38v-19h-42v18q0 42 31 63.5t80 21.5q46 0 74.5 -21.5t28.5 -64.5v-168q0 -34 3 -79h-43l-1 11q0 10 -1 21.5t-1 14.5q-27 -54 -93 -54zM144 420q31 0 52 22t21 56v51
h-56q-77 0 -77 -66q0 -31 17 -47t43 -16zM52 295v44h215v-44h-215z" />
    <glyph glyph-name="guillemotleft" unicode="&#xab;" horiz-adv-x="390" 
d="M131 122l-108 152l107 154l34 -21l-77 -132l79 -132zM288 122l-108 152l107 154l34 -21l-78 -132l79 -132z" />
    <glyph glyph-name="logicalnot" unicode="&#xac;" horiz-adv-x="492" 
d="M394 172v119h-352v41h398v-160h-46z" />
    <glyph glyph-name="registered" unicode="&#xae;" horiz-adv-x="513" 
d="M255 296q-97 0 -155 64.5t-58 160.5q0 99 59.5 163t154.5 64q96 0 155.5 -63.5t59.5 -163.5q0 -94 -59.5 -159.5t-156.5 -65.5zM255 325q75 0 129.5 54t54.5 142q0 90 -54 144.5t-130 54.5t-128 -54t-52 -145q0 -89 53.5 -142.5t126.5 -53.5zM171 385v282h91q42 0 66 -23
t24 -60q0 -30 -17 -52.5t-47 -30.5l76 -116h-39l-72 113h-46v-113h-36zM207 527h48q62 0 62 56q0 24 -17 39.5t-46 15.5h-47v-111z" />
    <glyph glyph-name="macron" unicode="&#xaf;" horiz-adv-x="373" 
d="M57 604v44h260v-44h-260z" />
    <glyph glyph-name="degree" unicode="&#xb0;" horiz-adv-x="283" 
d="M140 529q-41 0 -69 28.5t-28 68.5q0 41 28.5 70t68.5 29q43 0 71.5 -29t28.5 -69q0 -41 -28.5 -69.5t-71.5 -28.5zM140 559q29 0 47.5 19.5t18.5 47.5t-18.5 48t-47.5 20q-27 0 -44.5 -19.5t-17.5 -48.5q0 -28 17.5 -47.5t44.5 -19.5z" />
    <glyph glyph-name="plusminus" unicode="&#xb1;" 
d="M250 188v165h-168v42h168v168h41v-168h167v-42h-167v-165h-41zM82 70v43h375v-43h-375z" />
    <glyph glyph-name="twosuperior" unicode="&#xb2;" horiz-adv-x="293" 
d="M50 380v27l79 100q39 52 59 90t20 76v4q-2 68 -63 68q-29 0 -45 -16.5t-16 -43.5v-16h-41v17q0 45 29 70t76 25q49 0 76 -28t27 -76q0 -35 -13.5 -70t-29.5 -58t-47 -63l-53 -69h152v-37h-210z" />
    <glyph glyph-name="threesuperior" unicode="&#xb3;" horiz-adv-x="312" 
d="M155 368q-55 0 -83 27t-28 67v16h41v-13q0 -28 20 -44.5t48 -16.5q33 0 51 21t18 60q0 42 -23.5 60.5t-48.5 18.5h-36v34h32q32 0 50.5 19t18.5 57q0 36 -18.5 53t-45.5 17q-29 0 -46.5 -15t-17.5 -45v-12h-40v16q0 43 28 68t78 25q52 0 78.5 -29t26.5 -71
q0 -34 -15 -61.5t-46 -35.5v-2q33 -8 52 -35.5t19 -63.5q0 -54 -31.5 -84.5t-81.5 -30.5z" />
    <glyph glyph-name="acute" unicode="&#xb4;" horiz-adv-x="253" 
d="M74 575l89 144h61l-105 -144h-45z" />
    <glyph glyph-name="mu" unicode="&#xb5;" horiz-adv-x="496" 
d="M77 -178v685h57v-372q0 -51 27.5 -75.5t74.5 -24.5q50 0 87.5 42t37.5 101v329h57v-369q0 -28 13 -50t37 -32l-1 -59q-80 30 -91 93q-20 -48 -58.5 -75t-88.5 -27q-76 0 -108 60h-2l17 -222z" />
    <glyph glyph-name="paragraph" unicode="&#xb6;" horiz-adv-x="541" 
d="M228 -81v323q-84 9 -126 72.5t-42 157.5q0 100 50.5 170.5t132.5 70.5h252v-41h-76v-753h-38v753h-116v-753h-37z" />
    <glyph glyph-name="periodcentered" unicode="&#xb7;" horiz-adv-x="190" 
d="M66 284v100h58v-100h-58z" />
    <glyph glyph-name="periodcentered" unicode="&#x22c5;" horiz-adv-x="190" 
d="M66 284v100h58v-100h-58z" />
    <glyph glyph-name="cedilla" unicode="&#xb8;" horiz-adv-x="337" 
d="M155 -194q-39 0 -78 11v35q41 -12 79 -12q52 0 52 35q0 32 -59 37l-32 2l24 93h33l-17 -66q97 -6 97 -66q0 -30 -27.5 -49.5t-71.5 -19.5z" />
    <glyph glyph-name="onesuperior" unicode="&#xb9;" horiz-adv-x="231" 
d="M100 380v352l-49 -15l-5 37l74 24h25v-398h-45z" />
    <glyph glyph-name="ordmasculine" unicode="&#xba;" horiz-adv-x="328" 
d="M163 385q-54 0 -84 28t-30 83v112q0 55 31 83.5t83 28.5q53 0 83.5 -28t30.5 -83v-114q0 -54 -31 -82t-83 -28zM163 421q68 0 68 75v115q0 73 -68 73q-35 0 -51.5 -20.5t-16.5 -53.5v-115q0 -74 68 -74zM56 295v44h215v-44h-215z" />
    <glyph glyph-name="guillemotright" unicode="&#xbb;" horiz-adv-x="390" 
d="M59 122l-35 22l78 132l-79 132l35 21l108 -152zM215 122l-34 22l78 132l-79 132l34 21l108 -152z" />
    <glyph glyph-name="onequarter" unicode="&#xbc;" horiz-adv-x="701" 
d="M135 317v352l-49 -15l-5 37l74 24h25v-398h-45zM553 0v105h-152v35l142 259h47l-144 -257h107v76l45 31v-107h49v-37h-49v-105h-45zM129 -4l377 722h39l-377 -722h-39z" />
    <glyph glyph-name="onehalf" unicode="&#xbd;" horiz-adv-x="701" 
d="M134 317v352l-49 -15l-5 37l74 24h25v-398h-45zM436 0v27l79 100q39 52 59 90t20 76v4q-2 68 -63 68q-29 0 -45 -16.5t-16 -43.5v-16h-41v17q0 45 29 70t76 25q49 0 76 -28t27 -76q0 -35 -13.5 -70t-29.5 -58t-47 -63l-53 -69h152v-37h-210zM128 -4l377 722h39l-377 -722
h-39z" />
    <glyph glyph-name="threequarters" unicode="&#xbe;" horiz-adv-x="701" 
d="M557 0v105h-152v35l142 259h47l-144 -257h107v76l45 31v-107h49v-37h-49v-105h-45zM172 305q-55 0 -83 27t-28 67v16h41v-13q0 -28 20 -44.5t48 -16.5q33 0 51 21t18 60q0 42 -23.5 60.5t-48.5 18.5h-36v34h32q32 0 50.5 19t18.5 57q0 36 -18.5 53t-45.5 17
q-29 0 -46.5 -15t-17.5 -45v-12h-40v16q0 43 28 68t78 25q52 0 78.5 -29t26.5 -71q0 -34 -15 -61.5t-46 -35.5v-2q33 -8 52 -35.5t19 -63.5q0 -54 -31.5 -84.5t-81.5 -30.5zM162 -4l377 722h39l-377 -722h-39z" />
    <glyph glyph-name="questiondown" unicode="&#xbf;" horiz-adv-x="454" 
d="M229 -183q-78 0 -122.5 45.5t-44.5 125.5q-1 42 14 81t30.5 60t44.5 53q22 24 32.5 37t22.5 37.5t14 50.5v46h51v-41q-3 -50 -21 -83.5t-53 -73.5q-28 -32 -41 -49.5t-25.5 -48.5t-12.5 -66q0 -59 30.5 -92.5t86.5 -33.5q45 0 79 29t34 85v25h51v-20q0 -80 -47.5 -123.5
t-122.5 -43.5zM216 441v102h59v-102h-59z" />
    <glyph glyph-name="Agrave" unicode="&#xc0;" horiz-adv-x="555" 
d="M29 0l215 716h71l212 -716h-60l-69 237h-243l-70 -237h-56zM167 285h217l-107 368h-1zM252 768l-106 144h62l90 -144h-46z" />
    <glyph glyph-name="Aacute" unicode="&#xc1;" horiz-adv-x="555" 
d="M29 0l215 716h71l212 -716h-60l-69 237h-243l-70 -237h-56zM167 285h217l-107 368h-1zM262 768l89 144h61l-105 -144h-45z" />
    <glyph glyph-name="Acircumflex" unicode="&#xc2;" horiz-adv-x="555" 
d="M29 0l215 716h71l212 -716h-60l-69 237h-243l-70 -237h-56zM167 285h217l-107 368h-1zM167 765l87 146h43l85 -146h-51l-57 105l-59 -105h-48z" />
    <glyph glyph-name="Atilde" unicode="&#xc3;" horiz-adv-x="555" 
d="M29 0l215 716h71l212 -716h-60l-69 237h-243l-70 -237h-56zM167 285h217l-107 368h-1zM161 772l-34 4q4 36 24.5 60t53.5 24q24 0 72 -18.5t72 -18.5q18 0 28 11.5t18 33.5l31 -6q-5 -36 -26 -59.5t-52 -23.5q-26 0 -75 18.5t-69 18.5q-14 0 -23 -7t-12 -14.5t-8 -22.5z
" />
    <glyph glyph-name="Adieresis" unicode="&#xc4;" horiz-adv-x="555" 
d="M29 0l215 716h71l212 -716h-60l-69 237h-243l-70 -237h-56zM167 285h217l-107 368h-1zM179 797v97h51v-97h-51zM326 797v97h51v-97h-51z" />
    <glyph glyph-name="Aring" unicode="&#xc5;" horiz-adv-x="555" 
d="M29 0l215 716h71l212 -716h-60l-69 237h-243l-70 -237h-56zM167 285h217l-107 368h-1zM280 747q-39 0 -60.5 24t-21.5 58q0 36 23 60.5t57 24.5q39 0 61 -22t22 -58q0 -37 -23 -62t-58 -25zM279 776q22 0 36 14.5t14 40.5t-13.5 40.5t-37.5 14.5q-22 0 -34.5 -15.5
t-12.5 -41.5t13.5 -39.5t34.5 -13.5z" />
    <glyph glyph-name="AE" unicode="&#xc6;" horiz-adv-x="811" 
d="M23 0l346 713h407v-51h-316v-266h252v-50h-252v-294h316v-52h-374v226l-210 1l-109 -227h-60zM214 274h188v385h-2z" />
    <glyph glyph-name="Ccedilla" unicode="&#xc7;" horiz-adv-x="553" 
d="M293 -194q-39 0 -78 11v35q41 -12 79 -12q52 0 52 35q0 32 -59 37l-32 2l19 74q-98 4 -155.5 57t-57.5 149v323q0 93 62 150.5t164 57.5q95 0 151 -49.5t56 -125.5v-59h-53v44q0 63 -39.5 101.5t-117.5 38.5t-121 -44.5t-43 -117.5v-309q0 -84 45 -124.5t123 -40.5
q73 0 113 36.5t40 96.5v51h53v-56q0 -76 -50 -124.5t-137 -53.5l-12 -48q97 -6 97 -66q0 -30 -27.5 -49.5t-71.5 -19.5z" />
    <glyph glyph-name="Egrave" unicode="&#xc8;" horiz-adv-x="504" 
d="M80 0v713h374v-51h-315v-265h251v-51h-251v-294h315v-52h-374zM264 768l-106 144h62l90 -144h-46z" />
    <glyph glyph-name="Eacute" unicode="&#xc9;" horiz-adv-x="504" 
d="M239 768l89 144h61l-105 -144h-45zM80 0v713h374v-51h-315v-265h251v-51h-251v-294h315v-52h-374z" />
    <glyph glyph-name="Ecircumflex" unicode="&#xca;" horiz-adv-x="504" 
d="M163 765l87 146h43l85 -146h-51l-57 105l-59 -105h-48zM80 0v713h374v-51h-315v-265h251v-51h-251v-294h315v-52h-374z" />
    <glyph glyph-name="Edieresis" unicode="&#xcb;" horiz-adv-x="504" 
d="M178 795v97h51v-97h-51zM325 795v97h51v-97h-51zM80 0v713h374v-51h-315v-265h251v-51h-251v-294h315v-52h-374z" />
    <glyph glyph-name="Igrave" unicode="&#xcc;" horiz-adv-x="202" 
d="M74 0v713h59v-713h-59zM75 768l-106 144h62l90 -144h-46z" />
    <glyph glyph-name="Iacute" unicode="&#xcd;" horiz-adv-x="202" 
d="M74 0v713h59v-713h-59zM84 768l89 144h61l-105 -144h-45z" />
    <glyph glyph-name="Icircumflex" unicode="&#xce;" horiz-adv-x="202" 
d="M74 0v713h59v-713h-59zM-3 765l87 146h43l85 -146h-51l-57 105l-59 -105h-48z" />
    <glyph glyph-name="Idieresis" unicode="&#xcf;" horiz-adv-x="202" 
d="M74 0v713h59v-713h-59zM7 795v97h51v-97h-51zM154 795v97h51v-97h-51z" />
    <glyph glyph-name="Eth" unicode="&#xd0;" horiz-adv-x="592" 
d="M32 352v43h66v318h224q95 0 152 -49t57 -143v-317q0 -97 -57.5 -150.5t-152.5 -53.5h-223v352h-66zM157 51h156q80 0 119 42.5t39 108.5v310q0 67 -39.5 109t-116.5 42h-158v-268h172v-43h-172v-301z" />
    <glyph glyph-name="Ntilde" unicode="&#xd1;" horiz-adv-x="598" 
d="M80 0v713h61l324 -595h2v595h52v-713h-52l-333 617h-2v-617h-52zM193 772l-34 4q4 36 24.5 60t53.5 24q24 0 72 -18.5t72 -18.5q18 0 28 11.5t18 33.5l31 -6q-5 -36 -26 -59.5t-52 -23.5q-26 0 -75 18.5t-69 18.5q-14 0 -23 -7t-12 -14.5t-8 -22.5z" />
    <glyph glyph-name="Ograve" unicode="&#xd2;" horiz-adv-x="577" 
d="M289 -12q-102 0 -165 53.5t-63 156.5v305q0 104 63 163.5t165 59.5q101 0 164 -53.5t63 -154.5v-306q0 -106 -62.5 -165t-164.5 -59zM290 42q78 0 122.5 45t44.5 119v311q0 73 -45.5 114.5t-125.5 41.5t-122.5 -45t-42.5 -126v-298q0 -75 44.5 -118.5t124.5 -43.5z
M273 768l-106 144h62l90 -144h-46z" />
    <glyph glyph-name="Oacute" unicode="&#xd3;" horiz-adv-x="577" 
d="M259 768l89 144h61l-105 -144h-45zM289 -12q-102 0 -165 53.5t-63 156.5v305q0 104 63 163.5t165 59.5q101 0 164 -53.5t63 -154.5v-306q0 -106 -62.5 -165t-164.5 -59zM290 42q78 0 122.5 45t44.5 119v311q0 73 -45.5 114.5t-125.5 41.5t-122.5 -45t-42.5 -126v-298
q0 -75 44.5 -118.5t124.5 -43.5z" />
    <glyph glyph-name="Ocircumflex" unicode="&#xd4;" horiz-adv-x="577" 
d="M180 765l87 146h43l85 -146h-51l-57 105l-59 -105h-48zM289 -12q-102 0 -165 53.5t-63 156.5v305q0 104 63 163.5t165 59.5q101 0 164 -53.5t63 -154.5v-306q0 -106 -62.5 -165t-164.5 -59zM290 42q78 0 122.5 45t44.5 119v311q0 73 -45.5 114.5t-125.5 41.5t-122.5 -45
t-42.5 -126v-298q0 -75 44.5 -118.5t124.5 -43.5z" />
    <glyph glyph-name="Otilde" unicode="&#xd5;" horiz-adv-x="577" 
d="M289 -12q-102 0 -165 53.5t-63 156.5v305q0 104 63 163.5t165 59.5q101 0 164 -53.5t63 -154.5v-306q0 -106 -62.5 -165t-164.5 -59zM290 42q78 0 122.5 45t44.5 119v311q0 73 -45.5 114.5t-125.5 41.5t-122.5 -45t-42.5 -126v-298q0 -75 44.5 -118.5t124.5 -43.5z
M169 772l-34 4q4 36 24.5 60t53.5 24q24 0 72 -18.5t72 -18.5q18 0 28 11.5t18 33.5l31 -6q-5 -36 -26 -59.5t-52 -23.5q-26 0 -75 18.5t-69 18.5q-14 0 -23 -7t-12 -14.5t-8 -22.5z" />
    <glyph glyph-name="Odieresis" unicode="&#xd6;" horiz-adv-x="577" 
d="M190 795v97h51v-97h-51zM337 795v97h51v-97h-51zM289 -12q-102 0 -165 53.5t-63 156.5v305q0 104 63 163.5t165 59.5q101 0 164 -53.5t63 -154.5v-306q0 -106 -62.5 -165t-164.5 -59zM290 42q78 0 122.5 45t44.5 119v311q0 73 -45.5 114.5t-125.5 41.5t-122.5 -45
t-42.5 -126v-298q0 -75 44.5 -118.5t124.5 -43.5z" />
    <glyph glyph-name="multiply" unicode="&#xd7;" 
d="M127 144l-28 31l143 144l-43.5 43.5t-57.5 58t-43 42.5l30 30l144 -144q3 4 70.5 71.5t70.5 71.5l29 -30l-142 -142q20 -21 71.5 -72t70.5 -72l-29 -29l-141 142q-24 -22 -77 -76t-68 -69z" />
    <glyph glyph-name="Oslash" unicode="&#xd8;" horiz-adv-x="576" 
d="M123 -50l-36 16l36 76q-62 56 -62 156v305q0 104 63 163.5t165 59.5q81 0 139 -35l30 64l37 -15l-35 -74q56 -56 56 -148v-306q0 -106 -62.5 -165t-164.5 -59q-79 0 -134 31zM121 204q0 -62 30 -102l252 536q-44 35 -117 35q-80 0 -122.5 -45t-42.5 -126v-298zM290 42
q78 0 122.5 45t44.5 119v311q0 51 -25 90l-251 -534q42 -31 109 -31z" />
    <glyph glyph-name="Ugrave" unicode="&#xd9;" horiz-adv-x="593" 
d="M295 -12q-93 0 -156.5 51t-63.5 156v518h59v-507q0 -88 47.5 -127.5t117.5 -39.5q77 0 121 44.5t41 117.5v512h56v-515q1 -97 -60.5 -153.5t-161.5 -56.5zM290 767l-106 144h62l90 -144h-46z" />
    <glyph glyph-name="Uacute" unicode="&#xda;" horiz-adv-x="593" 
d="M275 767l89 144h61l-105 -144h-45zM295 -12q-93 0 -156.5 51t-63.5 156v518h59v-507q0 -88 47.5 -127.5t117.5 -39.5q77 0 121 44.5t41 117.5v512h56v-515q1 -97 -60.5 -153.5t-161.5 -56.5z" />
    <glyph glyph-name="Ucircumflex" unicode="&#xdb;" horiz-adv-x="593" 
d="M197 764l87 146h43l85 -146h-51l-57 105l-59 -105h-48zM295 -12q-93 0 -156.5 51t-63.5 156v518h59v-507q0 -88 47.5 -127.5t117.5 -39.5q77 0 121 44.5t41 117.5v512h56v-515q1 -97 -60.5 -153.5t-161.5 -56.5z" />
    <glyph glyph-name="Udieresis" unicode="&#xdc;" horiz-adv-x="593" 
d="M209 795v97h51v-97h-51zM356 795v97h51v-97h-51zM295 -12q-93 0 -156.5 51t-63.5 156v518h59v-507q0 -88 47.5 -127.5t117.5 -39.5q77 0 121 44.5t41 117.5v512h56v-515q1 -97 -60.5 -153.5t-161.5 -56.5z" />
    <glyph glyph-name="Yacute" unicode="&#xdd;" horiz-adv-x="497" 
d="M219 0v306l-189 407h61l162 -350l158 350h57l-190 -408v-305h-59zM231 766l89 144h61l-105 -144h-45z" />
    <glyph glyph-name="Thorn" unicode="&#xde;" horiz-adv-x="535" 
d="M80 0v713h59v-139h145q96 0 147.5 -57.5t51.5 -146.5q0 -97 -57 -154.5t-159 -57.5h-128v-158h-59zM139 205h114q82 0 126 41.5t44 122.5q0 68 -39.5 113t-107.5 45h-137v-322z" />
    <glyph glyph-name="germandbls" unicode="&#xdf;" horiz-adv-x="575" 
d="M381 -12q-98 0 -160 70l32 36q59 -62 130 -62q55 0 82.5 36t27.5 93q0 76 -56.5 125t-137.5 59v45l27 1q113 53 113 154q0 62 -37.5 98t-102.5 36q-63 0 -96 -37t-33 -97v-545h-56v459h-79v46h79v36q0 80 51.5 131.5t137.5 51.5q88 0 139.5 -49.5t51.5 -120.5
q0 -119 -120 -181v-1q85 -26 128.5 -84t43.5 -120q0 -84 -45 -132t-120 -48z" />
    <glyph glyph-name="agrave" unicode="&#xe0;" horiz-adv-x="459" 
d="M186 -11q-58 0 -98 37.5t-40 106.5q0 80 54.5 119t125.5 40h104v93q0 91 -105 91q-46 0 -79 -21.5t-33 -62.5v-31h-50v32q0 60 48 92.5t121 32.5q69 0 112 -32.5t43 -96.5v-259q0 -16 1 -41.5t2.5 -53t1.5 -35.5h-52l-4 84h-2q-22 -50 -64 -72.5t-86 -22.5zM203 33
q53 0 91 38t38 95v86h-94q-55 0 -93.5 -24.5t-38.5 -86.5q0 -52 28 -80t69 -28zM214 575l-106 144h62l90 -144h-46z" />
    <glyph glyph-name="aacute" unicode="&#xe1;" horiz-adv-x="459" 
d="M186 -11q-58 0 -98 37.5t-40 106.5q0 80 54.5 119t125.5 40h104v93q0 91 -105 91q-46 0 -79 -21.5t-33 -62.5v-31h-50v32q0 60 48 92.5t121 32.5q69 0 112 -32.5t43 -96.5v-259q0 -16 1 -41.5t2.5 -53t1.5 -35.5h-52l-4 84h-2q-22 -50 -64 -72.5t-86 -22.5zM203 33
q53 0 91 38t38 95v86h-94q-55 0 -93.5 -24.5t-38.5 -86.5q0 -52 28 -80t69 -28zM193 575l89 144h61l-105 -144h-45z" />
    <glyph glyph-name="acircumflex" unicode="&#xe2;" horiz-adv-x="459" 
d="M186 -11q-58 0 -98 37.5t-40 106.5q0 80 54.5 119t125.5 40h104v93q0 91 -105 91q-46 0 -79 -21.5t-33 -62.5v-31h-50v32q0 60 48 92.5t121 32.5q69 0 112 -32.5t43 -96.5v-259q0 -16 1 -41.5t2.5 -53t1.5 -35.5h-52l-4 84h-2q-22 -50 -64 -72.5t-86 -22.5zM203 33
q53 0 91 38t38 95v86h-94q-55 0 -93.5 -24.5t-38.5 -86.5q0 -52 28 -80t69 -28zM115 572l87 146h43l85 -146h-51l-57 105l-59 -105h-48z" />
    <glyph glyph-name="atilde" unicode="&#xe3;" horiz-adv-x="459" 
d="M186 -11q-58 0 -98 37.5t-40 106.5q0 80 54.5 119t125.5 40h104v93q0 91 -105 91q-46 0 -79 -21.5t-33 -62.5v-31h-50v32q0 60 48 92.5t121 32.5q69 0 112 -32.5t43 -96.5v-259q0 -16 1 -41.5t2.5 -53t1.5 -35.5h-52l-4 84h-2q-22 -50 -64 -72.5t-86 -22.5zM203 33
q53 0 91 38t38 95v86h-94q-55 0 -93.5 -24.5t-38.5 -86.5q0 -52 28 -80t69 -28zM112 579l-34 4q4 36 24.5 60t53.5 24q24 0 72 -18.5t72 -18.5q18 0 28 11.5t18 33.5l31 -6q-5 -36 -26 -59.5t-52 -23.5q-26 0 -75 18.5t-69 18.5q-14 0 -23 -7t-12 -14.5t-8 -22.5z" />
    <glyph glyph-name="adieresis" unicode="&#xe4;" horiz-adv-x="459" 
d="M186 -11q-58 0 -98 37.5t-40 106.5q0 80 54.5 119t125.5 40h104v93q0 91 -105 91q-46 0 -79 -21.5t-33 -62.5v-31h-50v32q0 60 48 92.5t121 32.5q69 0 112 -32.5t43 -96.5v-259q0 -16 1 -41.5t2.5 -53t1.5 -35.5h-52l-4 84h-2q-22 -50 -64 -72.5t-86 -22.5zM203 33
q53 0 91 38t38 95v86h-94q-55 0 -93.5 -24.5t-38.5 -86.5q0 -52 28 -80t69 -28zM127 602v97h51v-97h-51zM274 602v97h51v-97h-51z" />
    <glyph glyph-name="aring" unicode="&#xe5;" horiz-adv-x="459" 
d="M186 -11q-58 0 -98 37.5t-40 106.5q0 80 54.5 119t125.5 40h104v93q0 91 -105 91q-46 0 -79 -21.5t-33 -62.5v-31h-50v32q0 60 48 92.5t121 32.5q69 0 112 -32.5t43 -96.5v-259q0 -16 1 -41.5t2.5 -53t1.5 -35.5h-52l-4 84h-2q-22 -50 -64 -72.5t-86 -22.5zM203 33
q53 0 91 38t38 95v86h-94q-55 0 -93.5 -24.5t-38.5 -86.5q0 -52 28 -80t69 -28zM228 562q-39 0 -60.5 24t-21.5 58q0 36 23 60.5t57 24.5q39 0 61 -22t22 -58q0 -37 -23 -62t-58 -25zM227 591q22 0 36 14.5t14 40.5t-13.5 40.5t-37.5 14.5q-22 0 -34.5 -15.5t-12.5 -41.5
t13.5 -39.5t34.5 -13.5z" />
    <glyph glyph-name="ae" unicode="&#xe6;" horiz-adv-x="723" 
d="M190 -12q-60 0 -101 38t-41 107q0 80 54.5 119.5t125.5 39.5h104v93q0 46 -29.5 68.5t-79.5 22.5q-45 0 -76.5 -21.5t-31.5 -62.5v-31h-50v32q0 60 46 92.5t120 32.5q51 0 88.5 -18.5t48.5 -57.5q44 76 144 76q77 0 120 -46.5t43 -129.5v-93h-287v-82q0 -131 136 -131
q61 0 124 38l21 -38q-61 -48 -153 -48q-63 0 -106.5 26t-58.5 79q-23 -58 -69.5 -81.5t-91.5 -23.5zM206 33q52 0 89 39t37 96v84h-89q-137 0 -137 -111q0 -53 28 -80.5t72 -27.5zM388 292h234v55q0 53 -28 90t-89 37q-57 0 -87 -38t-30 -89v-55z" />
    <glyph glyph-name="ccedilla" unicode="&#xe7;" horiz-adv-x="439" 
d="M238 -194q-39 0 -78 11v35q41 -12 79 -12q52 0 52 35q0 32 -59 37l-32 2l19 74q-78 3 -120 48.5t-42 129.5v174q0 84 46 131t123 47q79 0 120.5 -38.5t41.5 -99.5v-25h-51v24q0 35 -26 64.5t-85 29.5t-86 -36.5t-27 -94.5v-178q0 -131 118 -131q60 0 83 29t23 68v25h51
v-27q0 -58 -34 -95.5t-102 -43.5l-12 -48q97 -6 97 -66q0 -30 -27.5 -49.5t-71.5 -19.5z" />
    <glyph glyph-name="egrave" unicode="&#xe8;" horiz-adv-x="452" 
d="M240 -12q-85 0 -134 45t-49 137v158q0 90 49 140t129 50q78 0 121.5 -47t43.5 -130v-96h-286v-77q0 -132 133 -132q57 0 126 38l20 -38q-61 -48 -153 -48zM114 287h233v60q0 54 -28 90.5t-90 36.5q-57 0 -86 -38.5t-29 -90.5v-58zM221 575l-106 144h62l90 -144h-46z" />
    <glyph glyph-name="eacute" unicode="&#xe9;" horiz-adv-x="452" 
d="M208 575l89 144h61l-105 -144h-45zM240 -12q-85 0 -134 45t-49 137v158q0 90 49 140t129 50q78 0 121.5 -47t43.5 -130v-96h-286v-77q0 -132 133 -132q57 0 126 38l20 -38q-61 -48 -153 -48zM114 287h233v60q0 54 -28 90.5t-90 36.5q-57 0 -86 -38.5t-29 -90.5v-58z" />
    <glyph glyph-name="ecircumflex" unicode="&#xea;" horiz-adv-x="452" 
d="M123 572l87 146h43l85 -146h-51l-57 105l-59 -105h-48zM240 -12q-85 0 -134 45t-49 137v158q0 90 49 140t129 50q78 0 121.5 -47t43.5 -130v-96h-286v-77q0 -132 133 -132q57 0 126 38l20 -38q-61 -48 -153 -48zM114 287h233v60q0 54 -28 90.5t-90 36.5q-57 0 -86 -38.5
t-29 -90.5v-58z" />
    <glyph glyph-name="edieresis" unicode="&#xeb;" horiz-adv-x="452" 
d="M130 602v97h51v-97h-51zM277 602v97h51v-97h-51zM240 -12q-85 0 -134 45t-49 137v158q0 90 49 140t129 50q78 0 121.5 -47t43.5 -130v-96h-286v-77q0 -132 133 -132q57 0 126 38l20 -38q-61 -48 -153 -48zM114 287h233v60q0 54 -28 90.5t-90 36.5q-57 0 -86 -38.5
t-29 -90.5v-58z" />
    <glyph glyph-name="igrave" unicode="&#xec;" horiz-adv-x="210" 
d="M78 0v506h55v-506h-55zM78 575l-106 144h62l90 -144h-46z" />
    <glyph glyph-name="iacute" unicode="&#xed;" horiz-adv-x="210" 
d="M84 575l89 144h61l-105 -144h-45zM78 0v506h55v-506h-55z" />
    <glyph glyph-name="icircumflex" unicode="&#xee;" horiz-adv-x="210" 
d="M-3 572l87 146h43l85 -146h-51l-57 105l-59 -105h-48zM78 0v506h55v-506h-55z" />
    <glyph glyph-name="idieresis" unicode="&#xef;" horiz-adv-x="210" 
d="M9 602v97h51v-97h-51zM156 602v97h51v-97h-51zM78 0v506h55v-506h-55z" />
    <glyph glyph-name="eth" unicode="&#xf0;" horiz-adv-x="462" 
d="M231 -12q-82 0 -128 43.5t-46 128.5v178q0 80 47 126.5t121 47.5q33 0 63 -14l-70 112l-104 -29l-15 34l95 28l-44 69l57 16q1 -1 21.5 -33.5t21.5 -34.5l105 30l15 -34l-97 -29q78 -124 104 -167q29 -47 29 -119v-174q0 -88 -45.5 -133.5t-129.5 -45.5zM232 34
q65 0 91.5 35t26.5 97v174q0 128 -112 128q-62 0 -93.5 -36t-31.5 -96v-177q0 -58 29 -91.5t90 -33.5z" />
    <glyph glyph-name="ntilde" unicode="&#xf1;" horiz-adv-x="488" 
d="M78 0v506h51v-88h2q22 50 64.5 75t93.5 25q58 0 92 -36t34 -90v-392h-56v374q0 98 -93 98q-50 0 -91.5 -43t-41.5 -101v-328h-55zM138 579l-34 4q4 36 24.5 60t53.5 24q24 0 72 -18.5t72 -18.5q18 0 28 11.5t18 33.5l31 -6q-5 -36 -26 -59.5t-52 -23.5q-26 0 -75 18.5
t-69 18.5q-14 0 -23 -7t-12 -14.5t-8 -22.5z" />
    <glyph glyph-name="ograve" unicode="&#xf2;" horiz-adv-x="463" 
d="M232 -12q-81 0 -128 47t-47 134v167q0 85 48 133.5t126 48.5q81 0 128 -47t47 -133v-166q0 -89 -47 -136.5t-127 -47.5zM234 35q116 0 116 137v170q0 58 -29.5 94.5t-90.5 36.5t-89 -37.5t-28 -98.5v-166q0 -136 121 -136zM208 575l-106 144h62l90 -144h-46z" />
    <glyph glyph-name="oacute" unicode="&#xf3;" horiz-adv-x="463" 
d="M201 575l89 144h61l-105 -144h-45zM232 -12q-81 0 -128 47t-47 134v167q0 85 48 133.5t126 48.5q81 0 128 -47t47 -133v-166q0 -89 -47 -136.5t-127 -47.5zM234 35q116 0 116 137v170q0 58 -29.5 94.5t-90.5 36.5t-89 -37.5t-28 -98.5v-166q0 -136 121 -136z" />
    <glyph glyph-name="ocircumflex" unicode="&#xf4;" horiz-adv-x="463" 
d="M124 572l87 146h43l85 -146h-51l-57 105l-59 -105h-48zM232 -12q-81 0 -128 47t-47 134v167q0 85 48 133.5t126 48.5q81 0 128 -47t47 -133v-166q0 -89 -47 -136.5t-127 -47.5zM234 35q116 0 116 137v170q0 58 -29.5 94.5t-90.5 36.5t-89 -37.5t-28 -98.5v-166
q0 -136 121 -136z" />
    <glyph glyph-name="otilde" unicode="&#xf5;" horiz-adv-x="463" 
d="M232 -12q-81 0 -128 47t-47 134v167q0 85 48 133.5t126 48.5q81 0 128 -47t47 -133v-166q0 -89 -47 -136.5t-127 -47.5zM234 35q116 0 116 137v170q0 58 -29.5 94.5t-90.5 36.5t-89 -37.5t-28 -98.5v-166q0 -136 121 -136zM113 579l-34 4q4 36 24.5 60t53.5 24
q24 0 72 -18.5t72 -18.5q18 0 28 11.5t18 33.5l31 -6q-5 -36 -26 -59.5t-52 -23.5q-26 0 -75 18.5t-69 18.5q-14 0 -23 -7t-12 -14.5t-8 -22.5z" />
    <glyph glyph-name="odieresis" unicode="&#xf6;" horiz-adv-x="463" 
d="M132 602v97h51v-97h-51zM279 602v97h51v-97h-51zM232 -12q-81 0 -128 47t-47 134v167q0 85 48 133.5t126 48.5q81 0 128 -47t47 -133v-166q0 -89 -47 -136.5t-127 -47.5zM234 35q116 0 116 137v170q0 58 -29.5 94.5t-90.5 36.5t-89 -37.5t-28 -98.5v-166q0 -136 121 -136
z" />
    <glyph glyph-name="divide" unicode="&#xf7;" 
d="M244 118v92h58v-92h-58zM82 297v43h375v-43h-375zM244 414v92h58v-92h-58z" />
    <glyph glyph-name="oslash" unicode="&#xf8;" horiz-adv-x="463" 
d="M114 -50l-34 16l30 63q-53 47 -53 140v167q0 85 48 133.5t126 48.5q57 0 99 -25l26 55l34 -16l-30 -62q46 -49 46 -132v-166q0 -89 -47 -136.5t-127 -47.5q-51 0 -91 20zM113 171q0 -59 21 -91l174 368q-32 25 -78 25q-61 0 -89 -37.5t-28 -98.5v-166zM234 35
q116 0 116 137v170q0 42 -16 73l-171 -362q27 -18 71 -18z" />
    <glyph glyph-name="ugrave" unicode="&#xf9;" horiz-adv-x="488" 
d="M202 -12q-58 0 -93 35.5t-35 89.5v393h56v-374q0 -52 23.5 -74.5t68.5 -22.5q53 0 93.5 42.5t40.5 101.5v327h56v-506h-49l-3 89h-2q-20 -47 -63 -74t-93 -27zM226 575l-106 144h62l90 -144h-46z" />
    <glyph glyph-name="uacute" unicode="&#xfa;" horiz-adv-x="488" 
d="M221 575l89 144h61l-105 -144h-45zM202 -12q-58 0 -93 35.5t-35 89.5v393h56v-374q0 -52 23.5 -74.5t68.5 -22.5q53 0 93.5 42.5t40.5 101.5v327h56v-506h-49l-3 89h-2q-20 -47 -63 -74t-93 -27z" />
    <glyph glyph-name="ucircumflex" unicode="&#xfb;" horiz-adv-x="488" 
d="M144 572l87 146h43l85 -146h-51l-57 105l-59 -105h-48zM202 -12q-58 0 -93 35.5t-35 89.5v393h56v-374q0 -52 23.5 -74.5t68.5 -22.5q53 0 93.5 42.5t40.5 101.5v327h56v-506h-49l-3 89h-2q-20 -47 -63 -74t-93 -27z" />
    <glyph glyph-name="udieresis" unicode="&#xfc;" horiz-adv-x="488" 
d="M149 602v97h51v-97h-51zM296 602v97h51v-97h-51zM202 -12q-58 0 -93 35.5t-35 89.5v393h56v-374q0 -52 23.5 -74.5t68.5 -22.5q53 0 93.5 42.5t40.5 101.5v327h56v-506h-49l-3 89h-2q-20 -47 -63 -74t-93 -27z" />
    <glyph glyph-name="yacute" unicode="&#xfd;" horiz-adv-x="410" 
d="M79 -191q-34 0 -61 8l7 48q30 -7 51 -7q29 0 47 17t32 58l26 85l-157 488h59l127 -415h1l125 415h52l-177 -568q-37 -129 -132 -129zM200 575l89 144h61l-105 -144h-45z" />
    <glyph glyph-name="thorn" unicode="&#xfe;" horiz-adv-x="475" 
d="M78 -181v895h55v-291h3q20 48 60 72t83 24q66 0 103.5 -40.5t37.5 -101.5v-230q0 -74 -44 -116.5t-107 -42.5q-43 0 -82 24.5t-52 68.5h-2v-262h-55zM260 32q45 0 74.5 29t29.5 84v223q0 45 -27.5 74.5t-79.5 29.5q-49 0 -86.5 -44t-37.5 -112v-133q0 -64 38.5 -107.5
t88.5 -43.5z" />
    <glyph glyph-name="ydieresis" unicode="&#xff;" horiz-adv-x="410" 
d="M79 -191q-34 0 -61 8l7 48q30 -7 51 -7q29 0 47 17t32 58l26 85l-157 488h59l127 -415h1l125 415h52l-177 -568q-37 -129 -132 -129zM121 602v97h51v-97h-51zM268 602v97h51v-97h-51z" />
    <glyph glyph-name="Amacron" unicode="&#x100;" horiz-adv-x="555" 
d="M29 0l215 716h71l212 -716h-60l-69 237h-243l-70 -237h-56zM167 285h217l-107 368h-1zM147 798v44h260v-44h-260z" />
    <glyph glyph-name="amacron" unicode="&#x101;" horiz-adv-x="459" 
d="M186 -11q-58 0 -98 37.5t-40 106.5q0 80 54.5 119t125.5 40h104v93q0 91 -105 91q-46 0 -79 -21.5t-33 -62.5v-31h-50v32q0 60 48 92.5t121 32.5q69 0 112 -32.5t43 -96.5v-259q0 -16 1 -41.5t2.5 -53t1.5 -35.5h-52l-4 84h-2q-22 -50 -64 -72.5t-86 -22.5zM203 33
q53 0 91 38t38 95v86h-94q-55 0 -93.5 -24.5t-38.5 -86.5q0 -52 28 -80t69 -28zM99 604v44h260v-44h-260z" />
    <glyph glyph-name="Abreve" unicode="&#x102;" horiz-adv-x="555" 
d="M29 0l215 716h71l212 -716h-60l-69 237h-243l-70 -237h-56zM167 285h217l-107 368h-1zM278 772q-60 0 -98.5 33.5t-40.5 91.5h43q10 -85 100 -85q39 0 63 23.5t28 61.5h42q-3 -59 -43.5 -92t-93.5 -33z" />
    <glyph glyph-name="abreve" unicode="&#x103;" horiz-adv-x="459" 
d="M186 -11q-58 0 -98 37.5t-40 106.5q0 80 54.5 119t125.5 40h104v93q0 91 -105 91q-46 0 -79 -21.5t-33 -62.5v-31h-50v32q0 60 48 92.5t121 32.5q69 0 112 -32.5t43 -96.5v-259q0 -16 1 -41.5t2.5 -53t1.5 -35.5h-52l-4 84h-2q-22 -50 -64 -72.5t-86 -22.5zM203 33
q53 0 91 38t38 95v86h-94q-55 0 -93.5 -24.5t-38.5 -86.5q0 -52 28 -80t69 -28zM230 578q-60 0 -98.5 33.5t-40.5 91.5h43q10 -85 100 -85q39 0 63 23.5t28 61.5h42q-3 -59 -43.5 -92t-93.5 -33z" />
    <glyph glyph-name="Aogonek" unicode="&#x104;" horiz-adv-x="555" 
d="M489 -190q-36 0 -60.5 20.5t-24.5 59.5q0 32 18.5 61.5t44.5 48.5l-69 237h-243l-70 -237h-56l215 716h71l212 -716h-14q-68 -37 -68 -101q0 -53 51 -53q27 0 49 14l16 -30q-30 -20 -72 -20zM167 285h217l-107 368h-1z" />
    <glyph glyph-name="aogonek" unicode="&#x105;" horiz-adv-x="459" 
d="M358 -190q-36 0 -60.5 20.5t-24.5 59.5q0 34 20 65t48 49l-3 80h-2q-22 -50 -64 -72.5t-86 -22.5q-58 0 -98 37.5t-40 106.5q0 80 54.5 119t125.5 40h104v93q0 91 -105 91q-46 0 -79 -21.5t-33 -62.5v-31h-50v32q0 60 48 92.5t121 32.5q69 0 112 -32.5t43 -96.5v-259
q0 -16 1 -41.5t2.5 -53t1.5 -35.5h-12q-68 -37 -68 -101q0 -53 51 -53q27 0 49 14l16 -30q-30 -20 -72 -20zM203 33q53 0 91 38t38 95v86h-94q-55 0 -93.5 -24.5t-38.5 -86.5q0 -52 28 -80t69 -28z" />
    <glyph glyph-name="Cacute" unicode="&#x106;" horiz-adv-x="553" 
d="M261 769l89 144h61l-105 -144h-45zM288 -12q-103 0 -165 53t-62 153v323q0 93 62 150.5t164 57.5q95 0 151 -49.5t56 -125.5v-59h-53v44q0 63 -39.5 101.5t-117.5 38.5t-121 -44.5t-43 -117.5v-309q0 -84 45 -124.5t123 -40.5q73 0 113 36.5t40 96.5v51h53v-56
q0 -80 -56 -129.5t-150 -49.5z" />
    <glyph glyph-name="cacute" unicode="&#x107;" horiz-adv-x="439" 
d="M196 575l89 144h61l-105 -144h-45zM228 -12q-82 0 -126.5 46t-44.5 132v174q0 84 46 131t123 47q79 0 120.5 -38.5t41.5 -99.5v-25h-51v24q0 35 -26 64.5t-85 29.5t-86 -36.5t-27 -94.5v-178q0 -131 118 -131q60 0 83 29t23 68v25h51v-27q0 -63 -40 -101.5t-120 -38.5z
" />
    <glyph glyph-name="Ccircumflex" unicode="&#x108;" horiz-adv-x="553" 
d="M174 766l87 146h43l85 -146h-51l-57 105l-59 -105h-48zM288 -12q-103 0 -165 53t-62 153v323q0 93 62 150.5t164 57.5q95 0 151 -49.5t56 -125.5v-59h-53v44q0 63 -39.5 101.5t-117.5 38.5t-121 -44.5t-43 -117.5v-309q0 -84 45 -124.5t123 -40.5q73 0 113 36.5t40 96.5
v51h53v-56q0 -80 -56 -129.5t-150 -49.5z" />
    <glyph glyph-name="ccircumflex" unicode="&#x109;" horiz-adv-x="439" 
d="M122 572l87 146h43l85 -146h-51l-57 105l-59 -105h-48zM228 -12q-82 0 -126.5 46t-44.5 132v174q0 84 46 131t123 47q79 0 120.5 -38.5t41.5 -99.5v-25h-51v24q0 35 -26 64.5t-85 29.5t-86 -36.5t-27 -94.5v-178q0 -131 118 -131q60 0 83 29t23 68v25h51v-27
q0 -63 -40 -101.5t-120 -38.5z" />
    <glyph glyph-name="Cdotaccent" unicode="&#x10a;" horiz-adv-x="553" 
d="M288 -12q-103 0 -165 53t-62 153v323q0 93 62 150.5t164 57.5q95 0 151 -49.5t56 -125.5v-59h-53v44q0 63 -39.5 101.5t-117.5 38.5t-121 -44.5t-43 -117.5v-309q0 -84 45 -124.5t123 -40.5q73 0 113 36.5t40 96.5v51h53v-56q0 -80 -56 -129.5t-150 -49.5zM257 797v100
h53v-100h-53z" />
    <glyph glyph-name="cdotaccent" unicode="&#x10b;" horiz-adv-x="439" 
d="M228 -12q-82 0 -126.5 46t-44.5 132v174q0 84 46 131t123 47q79 0 120.5 -38.5t41.5 -99.5v-25h-51v24q0 35 -26 64.5t-85 29.5t-86 -36.5t-27 -94.5v-178q0 -131 118 -131q60 0 83 29t23 68v25h51v-27q0 -63 -40 -101.5t-120 -38.5zM202 603v100h53v-100h-53z" />
    <glyph glyph-name="Ccaron" unicode="&#x10c;" horiz-adv-x="553" 
d="M258 767l-85 146h51l57 -105l59 105h49l-88 -146h-43zM288 -12q-103 0 -165 53t-62 153v323q0 93 62 150.5t164 57.5q95 0 151 -49.5t56 -125.5v-59h-53v44q0 63 -39.5 101.5t-117.5 38.5t-121 -44.5t-43 -117.5v-309q0 -84 45 -124.5t123 -40.5q73 0 113 36.5t40 96.5
v51h53v-56q0 -80 -56 -129.5t-150 -49.5z" />
    <glyph glyph-name="ccaron" unicode="&#x10d;" horiz-adv-x="439" 
d="M208 573l-85 146h51l57 -105l59 105h49l-88 -146h-43zM228 -12q-82 0 -126.5 46t-44.5 132v174q0 84 46 131t123 47q79 0 120.5 -38.5t41.5 -99.5v-25h-51v24q0 35 -26 64.5t-85 29.5t-86 -36.5t-27 -94.5v-178q0 -131 118 -131q60 0 83 29t23 68v25h51v-27
q0 -63 -40 -101.5t-120 -38.5z" />
    <glyph glyph-name="Dcaron" unicode="&#x10e;" horiz-adv-x="574" 
d="M255 767l-85 146h51l57 -105l59 105h49l-88 -146h-43zM80 0v713h224q95 0 152 -49t57 -143v-317q0 -97 -57.5 -150.5t-152.5 -53.5h-223zM139 51h156q80 0 119 42.5t39 108.5v310q0 67 -39.5 109t-116.5 42h-158v-612z" />
    <glyph glyph-name="dcaron" unicode="&#x10f;" horiz-adv-x="475" 
d="M441 558l6 155h50l-16 -155h-40zM196 -12q-66 0 -102.5 40.5t-36.5 102.5v230q0 74 44 115.5t106 41.5q44 0 81.5 -23.5t52.5 -66.5h1v285h57v-713h-50l-2 95h-3q-24 -56 -64 -81.5t-84 -25.5zM213 35q53 0 91.5 45t38.5 117v125q0 63 -39 108.5t-88 45.5
q-46 0 -74.5 -27.5t-28.5 -87.5v-221q0 -105 100 -105z" />
    <glyph glyph-name="Dcroat" unicode="&#x110;" horiz-adv-x="592" 
d="M32 352v43h66v318h224q95 0 152 -49t57 -143v-317q0 -97 -57.5 -150.5t-152.5 -53.5h-223v352h-66zM157 51h156q80 0 119 42.5t39 108.5v310q0 67 -39.5 109t-116.5 42h-158v-268h172v-43h-172v-301z" />
    <glyph glyph-name="dcroat" unicode="&#x111;" horiz-adv-x="475" 
d="M203 587v37h139v89h57v-89h55v-37h-55v-587h-50l-2 95h-3q-24 -56 -64 -81.5t-84 -25.5q-66 0 -102.5 40.5t-36.5 102.5v230q0 74 44 115.5t106 41.5q44 0 81.5 -23.5t52.5 -66.5h1v159h-139zM213 35q53 0 91.5 45t38.5 117v125q0 63 -39 108.5t-88 45.5
q-46 0 -74.5 -27.5t-28.5 -87.5v-221q0 -105 100 -105z" />
    <glyph glyph-name="Emacron" unicode="&#x112;" horiz-adv-x="504" 
d="M80 0v713h374v-51h-315v-265h251v-51h-251v-294h315v-52h-374zM136 798v44h260v-44h-260z" />
    <glyph glyph-name="emacron" unicode="&#x113;" horiz-adv-x="452" 
d="M240 -12q-85 0 -134 45t-49 137v158q0 90 49 140t129 50q78 0 121.5 -47t43.5 -130v-96h-286v-77q0 -132 133 -132q57 0 126 38l20 -38q-61 -48 -153 -48zM114 287h233v60q0 54 -28 90.5t-90 36.5q-57 0 -86 -38.5t-29 -90.5v-58zM95 604v44h260v-44h-260z" />
    <glyph glyph-name="Ebreve" unicode="&#x114;" horiz-adv-x="504" 
d="M80 0v713h374v-51h-315v-265h251v-51h-251v-294h315v-52h-374zM274 772q-60 0 -98.5 33.5t-40.5 91.5h43q10 -85 100 -85q39 0 63 23.5t28 61.5h42q-3 -59 -43.5 -92t-93.5 -33z" />
    <glyph glyph-name="ebreve" unicode="&#x115;" horiz-adv-x="452" 
d="M240 -12q-85 0 -134 45t-49 137v158q0 90 49 140t129 50q78 0 121.5 -47t43.5 -130v-96h-286v-77q0 -132 133 -132q57 0 126 38l20 -38q-61 -48 -153 -48zM114 287h233v60q0 54 -28 90.5t-90 36.5q-57 0 -86 -38.5t-29 -90.5v-58zM226 578q-60 0 -98.5 33.5t-40.5 91.5
h43q10 -85 100 -85q39 0 63 23.5t28 61.5h42q-3 -59 -43.5 -92t-93.5 -33z" />
    <glyph glyph-name="Edotaccent" unicode="&#x116;" horiz-adv-x="504" 
d="M80 0v713h374v-51h-315v-265h251v-51h-251v-294h315v-52h-374zM251 797v100h53v-100h-53z" />
    <glyph glyph-name="edotaccent" unicode="&#x117;" horiz-adv-x="452" 
d="M240 -12q-85 0 -134 45t-49 137v158q0 90 49 140t129 50q78 0 121.5 -47t43.5 -130v-96h-286v-77q0 -132 133 -132q57 0 126 38l20 -38q-61 -48 -153 -48zM114 287h233v60q0 54 -28 90.5t-90 36.5q-57 0 -86 -38.5t-29 -90.5v-58zM213 603v100h53v-100h-53z" />
    <glyph glyph-name="Eogonek" unicode="&#x118;" horiz-adv-x="504" 
d="M80 0v713h374v-51h-315v-265h251v-51h-251v-294h315v-52h-17q-68 -37 -68 -101q0 -53 51 -53q27 0 49 14l16 -30q-30 -20 -72 -20q-36 0 -60.5 20.5t-24.5 59.5q0 65 62 110h-310z" />
    <glyph glyph-name="eogonek" unicode="&#x119;" horiz-adv-x="452" 
d="M240 -12q-85 0 -134 45t-49 137v158q0 90 49 140t129 50q78 0 121.5 -47t43.5 -130v-96h-286v-77q0 -132 133 -132q57 0 126 38l20 -38q-13 -10 -29 -20h1q-26 -18 -46 -49.5t-20 -67.5q0 -24 13 -39t38 -15t49 15l15 -30q-28 -20 -72 -20q-36 0 -60.5 21t-24.5 59
q0 59 48 105q-29 -7 -65 -7zM114 287h233v60q0 54 -28 90.5t-90 36.5q-57 0 -86 -38.5t-29 -90.5v-58z" />
    <glyph glyph-name="Ecaron" unicode="&#x11a;" horiz-adv-x="504" 
d="M250 767l-85 146h51l57 -105l59 105h49l-88 -146h-43zM80 0v713h374v-51h-315v-265h251v-51h-251v-294h315v-52h-374z" />
    <glyph glyph-name="ecaron" unicode="&#x11b;" horiz-adv-x="452" 
d="M211 573l-85 146h51l57 -105l59 105h49l-88 -146h-43zM240 -12q-85 0 -134 45t-49 137v158q0 90 49 140t129 50q78 0 121.5 -47t43.5 -130v-96h-286v-77q0 -132 133 -132q57 0 126 38l20 -38q-61 -48 -153 -48zM114 287h233v60q0 54 -28 90.5t-90 36.5q-57 0 -86 -38.5
t-29 -90.5v-58z" />
    <glyph glyph-name="Gcircumflex" unicode="&#x11c;" horiz-adv-x="572" 
d="M178 766l87 146h43l85 -146h-51l-57 105l-59 -105h-48zM288 -12q-103 0 -165 53t-62 153v318q0 94 63 154t164 60q95 0 153.5 -50.5t58.5 -125.5v-53h-55v43q0 60 -42.5 97.5t-116.5 37.5q-78 0 -122 -47t-44 -120v-309q0 -76 44.5 -118t124.5 -42q83 0 120.5 40
t37.5 104v133h-156v49h213v-191q0 -81 -58.5 -133.5t-157.5 -52.5z" />
    <glyph glyph-name="gcircumflex" unicode="&#x11d;" horiz-adv-x="474" 
d="M110 572l87 146h43l85 -146h-51l-57 105l-59 -105h-48zM215 -188q-97 0 -155 40l21 44q63 -37 132 -37q61 0 95.5 32.5t34.5 94.5v118h-1q-20 -49 -59.5 -72.5t-84.5 -23.5q-67 0 -104 40t-37 102v216q0 73 45.5 113t106.5 40q42 0 82.5 -23t55.5 -70h1l3 81h48v-514
q0 -87 -49.5 -134t-134.5 -47zM216 54q52 0 89.5 44t37.5 114v122q0 62 -39 102t-87 40q-45 0 -74.5 -30.5t-29.5 -85.5v-201q0 -105 103 -105z" />
    <glyph glyph-name="Gbreve" unicode="&#x11e;" horiz-adv-x="572" 
d="M288 -12q-103 0 -165 53t-62 153v318q0 94 63 154t164 60q95 0 153.5 -50.5t58.5 -125.5v-53h-55v43q0 60 -42.5 97.5t-116.5 37.5q-78 0 -122 -47t-44 -120v-309q0 -76 44.5 -118t124.5 -42q83 0 120.5 40t37.5 104v133h-156v49h213v-191q0 -81 -58.5 -133.5
t-157.5 -52.5zM287 772q-60 0 -98.5 33.5t-40.5 91.5h43q10 -85 100 -85q39 0 63 23.5t28 61.5h42q-3 -59 -43.5 -92t-93.5 -33z" />
    <glyph glyph-name="gbreve" unicode="&#x11f;" horiz-adv-x="474" 
d="M215 -188q-97 0 -155 40l21 44q63 -37 132 -37q61 0 95.5 32.5t34.5 94.5v118h-1q-20 -49 -59.5 -72.5t-84.5 -23.5q-67 0 -104 40t-37 102v216q0 73 45.5 113t106.5 40q42 0 82.5 -23t55.5 -70h1l3 81h48v-514q0 -87 -49.5 -134t-134.5 -47zM216 54q52 0 89.5 44
t37.5 114v122q0 62 -39 102t-87 40q-45 0 -74.5 -30.5t-29.5 -85.5v-201q0 -105 103 -105zM213 578q-60 0 -98.5 33.5t-40.5 91.5h43q10 -85 100 -85q39 0 63 23.5t28 61.5h42q-3 -59 -43.5 -92t-93.5 -33z" />
    <glyph glyph-name="Gdotaccent" unicode="&#x120;" horiz-adv-x="572" 
d="M288 -12q-103 0 -165 53t-62 153v318q0 94 63 154t164 60q95 0 153.5 -50.5t58.5 -125.5v-53h-55v43q0 60 -42.5 97.5t-116.5 37.5q-78 0 -122 -47t-44 -120v-309q0 -76 44.5 -118t124.5 -42q83 0 120.5 40t37.5 104v133h-156v49h213v-191q0 -81 -58.5 -133.5
t-157.5 -52.5zM259 797v100h53v-100h-53z" />
    <glyph glyph-name="gdotaccent" unicode="&#x121;" horiz-adv-x="474" 
d="M215 -188q-97 0 -155 40l21 44q63 -37 132 -37q61 0 95.5 32.5t34.5 94.5v118h-1q-20 -49 -59.5 -72.5t-84.5 -23.5q-67 0 -104 40t-37 102v216q0 73 45.5 113t106.5 40q42 0 82.5 -23t55.5 -70h1l3 81h48v-514q0 -87 -49.5 -134t-134.5 -47zM216 54q52 0 89.5 44
t37.5 114v122q0 62 -39 102t-87 40q-45 0 -74.5 -30.5t-29.5 -85.5v-201q0 -105 103 -105zM192 603v100h53v-100h-53z" />
    <glyph glyph-name="Gcommaaccent" unicode="&#x122;" horiz-adv-x="572" 
d="M258 -189l5 151h53l-18 -151h-40zM288 -12q-103 0 -165 53t-62 153v318q0 94 63 154t164 60q95 0 153.5 -50.5t58.5 -125.5v-53h-55v43q0 60 -42.5 97.5t-116.5 37.5q-78 0 -122 -47t-44 -120v-309q0 -76 44.5 -118t124.5 -42q83 0 120.5 40t37.5 104v133h-156v49h213
v-191q0 -81 -58.5 -133.5t-157.5 -52.5z" />
    <glyph glyph-name="gcommaaccent" unicode="&#x123;" horiz-adv-x="474" 
d="M215 -188q-97 0 -155 40l21 44q63 -37 132 -37q61 0 95.5 32.5t34.5 94.5v118h-1q-20 -49 -59.5 -72.5t-84.5 -23.5q-67 0 -104 40t-37 102v216q0 73 45.5 113t106.5 40q42 0 82.5 -23t55.5 -70h1l3 81h48v-514q0 -87 -49.5 -134t-134.5 -47zM216 54q52 0 89.5 44
t37.5 114v122q0 62 -39 102t-87 40q-45 0 -74.5 -30.5t-29.5 -85.5v-201q0 -105 103 -105zM197 587v67l20 75h27l-12 -67h18v-75h-53z" />
    <glyph glyph-name="Hcircumflex" unicode="&#x124;" horiz-adv-x="602" 
d="M193 766l87 146h43l85 -146h-51l-57 105l-59 -105h-48zM80 0v713h59v-316h325v316h58v-713h-58v343h-325v-343h-59z" />
    <glyph glyph-name="hcircumflex" unicode="&#x125;" horiz-adv-x="488" 
d="M0 766l87 146h43l85 -146h-51l-57 105l-59 -105h-48zM78 0v714h55v-295h2q22 48 63.5 73.5t90.5 25.5q58 0 92 -36t34 -90v-392h-56v373q0 53 -23.5 76t-69.5 23q-50 0 -91.5 -44.5t-41.5 -102.5v-325h-55z" />
    <glyph glyph-name="Hbar" unicode="&#x126;" horiz-adv-x="634" 
d="M29 562v40h66v111h59v-111h325v111h58v-111h68v-40h-68v-562h-58v343h-325v-343h-59v562h-66zM154 397h325v165h-325v-165z" />
    <glyph glyph-name="hbar" unicode="&#x127;" horiz-adv-x="488" 
d="M32 587v37h46v90h55v-90h142v-37h-142v-168h2q22 48 63.5 73.5t90.5 25.5q58 0 92 -36t34 -90v-392h-56v373q0 53 -23.5 76t-69.5 23q-50 0 -91.5 -44.5t-41.5 -102.5v-325h-55v587h-46z" />
    <glyph glyph-name="Itilde" unicode="&#x128;" horiz-adv-x="218" 
d="M80 0v713h59v-713h-59zM-6 773l-34 4q4 36 24.5 60t53.5 24q24 0 72 -18.5t72 -18.5q18 0 28 11.5t18 33.5l31 -6q-5 -36 -26 -59.5t-52 -23.5q-26 0 -75 18.5t-69 18.5q-14 0 -23 -7t-12 -14.5t-8 -22.5z" />
    <glyph glyph-name="itilde" unicode="&#x129;" horiz-adv-x="210" 
d="M78 0v506h55v-506h-55zM-10 579l-34 4q4 36 24.5 60t53.5 24q24 0 72 -18.5t72 -18.5q18 0 28 11.5t18 33.5l31 -6q-5 -36 -26 -59.5t-52 -23.5q-26 0 -75 18.5t-69 18.5q-14 0 -23 -7t-12 -14.5t-8 -22.5z" />
    <glyph glyph-name="Imacron" unicode="&#x12a;" horiz-adv-x="218" 
d="M80 0v713h59v-713h-59zM-20 798v44h260v-44h-260z" />
    <glyph glyph-name="imacron" unicode="&#x12b;" horiz-adv-x="210" 
d="M78 0v506h55v-506h-55zM-24 604v44h260v-44h-260z" />
    <glyph glyph-name="Ibreve" unicode="&#x12c;" horiz-adv-x="218" 
d="M80 0v713h59v-713h-59zM111 772q-60 0 -98.5 33.5t-40.5 91.5h43q10 -85 100 -85q39 0 63 23.5t28 61.5h42q-3 -59 -43.5 -92t-93.5 -33z" />
    <glyph glyph-name="ibreve" unicode="&#x12d;" horiz-adv-x="210" 
d="M78 0v506h55v-506h-55zM107 578q-60 0 -98.5 33.5t-40.5 91.5h43q10 -85 100 -85q39 0 63 23.5t28 61.5h42q-3 -59 -43.5 -92t-93.5 -33z" />
    <glyph glyph-name="Iogonek" unicode="&#x12e;" horiz-adv-x="218" 
d="M80 0v713h59v-713h-7q-52 -37 -52 -99q0 -55 50 -55q17 0 29 7l11 -31q-20 -11 -50 -11q-35 0 -59 21.5t-24 59.5q0 63 53 108h-10z" />
    <glyph glyph-name="iogonek" unicode="&#x12f;" horiz-adv-x="210" 
d="M78 0v506h55v-504l1 -1l-1 -1h-1q-52 -37 -52 -99q0 -55 50 -55q17 0 29 7l11 -31q-20 -11 -50 -11q-35 0 -59 21.5t-24 59.5q0 63 53 108h-12zM78 599v101h55v-101h-55z" />
    <glyph glyph-name="Idotaccent" unicode="&#x130;" horiz-adv-x="218" 
d="M80 0v713h59v-713h-59zM81 797v100h53v-100h-53z" />
    <glyph glyph-name="dotlessi" unicode="&#x131;" horiz-adv-x="210" 
d="M78 0v506h55v-506h-55z" />
    <glyph glyph-name="IJ" unicode="&#x132;" horiz-adv-x="701" 
d="M80 0v713h59v-713h-59zM424 -12q-93 0 -146 48.5t-53 139.5v75h56v-69q0 -143 144 -143q74 0 108 41t34 99v534h58v-518q0 -93 -50.5 -150t-150.5 -57z" />
    <glyph glyph-name="ij" unicode="&#x133;" horiz-adv-x="402" 
d="M78 0v506h55v-506h-55zM78 599v101h55v-101h-55zM211 -189q-23 0 -42 3v48q14 -2 29 -2q41 0 56 21.5t15 62.5v562h56v-573q0 -122 -114 -122zM269 599v101h56v-101h-56z" />
    <glyph glyph-name="Jcircumflex" unicode="&#x134;" horiz-adv-x="513" 
d="M190 775l87 146h43l85 -146h-51l-57 105l-59 -105h-48zM237 -12q-93 0 -146 48.5t-53 139.5v75h56v-69q0 -143 144 -143q74 0 108 41t34 99v534h58v-518q0 -93 -50.5 -150t-150.5 -57z" />
    <glyph glyph-name="jcircumflex" unicode="&#x135;" horiz-adv-x="222" 
d="M31 -189q-23 0 -42 3v48q14 -2 29 -2q41 0 56 21.5t15 62.5v562h56v-573q0 -122 -114 -122zM4 572l87 146h43l85 -146h-51l-57 105l-59 -105h-48z" />
    <glyph glyph-name="Kcommaaccent" unicode="&#x136;" horiz-adv-x="548" 
d="M243 -189l5 151h53l-18 -151h-40zM80 0v713h59v-385l308 385h64l-220 -274l225 -439h-67l-200 392l-110 -136v-256h-59z" />
    <glyph glyph-name="kcommaaccent" unicode="&#x137;" horiz-adv-x="430" 
d="M197 -189l5 151h53l-18 -151h-40zM78 0v714h55v-468l201 260h65l-139 -174l147 -332h-59l-128 290l-87 -109v-181h-55z" />
    <glyph glyph-name="kgreenlandic" unicode="&#x138;" horiz-adv-x="430" 
d="M78 0v506h55v-260l201 260h65l-139 -174l147 -332h-59l-128 290l-87 -109v-181h-55z" />
    <glyph glyph-name="Lacute" unicode="&#x139;" horiz-adv-x="489" 
d="M97 769l89 144h61l-105 -144h-45zM80 0v713h59v-661h315v-52h-374z" />
    <glyph glyph-name="lacute" unicode="&#x13a;" horiz-adv-x="269" 
d="M83 768l89 144h61l-105 -144h-45zM177 -6q-47 0 -73.5 27t-26.5 76v616h56v-609q0 -59 61 -59q21 0 45 4v-45q-27 -10 -62 -10z" />
    <glyph glyph-name="Lcommaaccent" unicode="&#x13b;" horiz-adv-x="489" 
d="M235 -189l5 151h53l-18 -151h-40zM80 0v713h59v-661h315v-52h-374z" />
    <glyph glyph-name="lcommaaccent" unicode="&#x13c;" horiz-adv-x="269" 
d="M121 -189l5 151h53l-18 -151h-40zM177 -6q-47 0 -73.5 27t-26.5 76v616h56v-609q0 -59 61 -59q21 0 45 4v-45q-27 -10 -62 -10z" />
    <glyph glyph-name="Lcaron" unicode="&#x13d;" horiz-adv-x="489" 
d="M255 558l6 155h50l-16 -155h-40zM80 0v713h59v-661h315v-52h-374z" />
    <glyph glyph-name="lcaron" unicode="&#x13e;" horiz-adv-x="269" 
d="M193 558l6 155h50l-16 -155h-40zM177 -6q-47 0 -73.5 27t-26.5 76v616h56v-609q0 -59 61 -59q21 0 45 4v-45q-27 -10 -62 -10z" />
    <glyph glyph-name="Ldot" unicode="&#x13f;" horiz-adv-x="489" 
d="M80 0v713h59v-661h315v-52h-374z" />
    <glyph glyph-name="ldot" unicode="&#x140;" horiz-adv-x="271" 
d="M177 -6q-47 0 -73.5 27t-26.5 76v616h56v-609q0 -59 61 -59q21 0 45 4v-45q-27 -10 -62 -10z" />
    <glyph glyph-name="Lslash" unicode="&#x141;" horiz-adv-x="511" 
d="M32 236v52l69 55v370h59v-322l135 108v-52l-135 -108v-287h315v-52h-374v291z" />
    <glyph glyph-name="lslash" unicode="&#x142;" horiz-adv-x="283" 
d="M31 242v53l59 66v352h56v-289l72 82v-52l-72 -82v-268q0 -59 61 -59q21 0 45 4v-45q-28 -10 -62 -10q-47 0 -73.5 27t-26.5 76v212z" />
    <glyph glyph-name="Nacute" unicode="&#x143;" horiz-adv-x="598" 
d="M245 778l89 144h61l-105 -144h-45zM80 0v713h61l324 -595h2v595h52v-713h-52l-333 617h-2v-617h-52z" />
    <glyph glyph-name="nacute" unicode="&#x144;" horiz-adv-x="488" 
d="M221 575l89 144h61l-105 -144h-45zM78 0v506h51v-88h2q22 50 64.5 75t93.5 25q58 0 92 -36t34 -90v-392h-56v374q0 98 -93 98q-50 0 -91.5 -43t-41.5 -101v-328h-55z" />
    <glyph glyph-name="Ncommaaccent" unicode="&#x145;" horiz-adv-x="598" 
d="M268 -189l5 151h53l-18 -151h-40zM80 0v713h61l324 -595h2v595h52v-713h-52l-333 617h-2v-617h-52z" />
    <glyph glyph-name="ncommaaccent" unicode="&#x146;" horiz-adv-x="488" 
d="M213 -189l5 151h53l-18 -151h-40zM78 0v506h51v-88h2q22 50 64.5 75t93.5 25q58 0 92 -36t34 -90v-392h-56v374q0 98 -93 98q-50 0 -91.5 -43t-41.5 -101v-328h-55z" />
    <glyph glyph-name="Ncaron" unicode="&#x147;" horiz-adv-x="598" 
d="M275 767l-85 146h51l57 -105l59 105h49l-88 -146h-43zM80 0v713h61l324 -595h2v595h52v-713h-52l-333 617h-2v-617h-52z" />
    <glyph glyph-name="ncaron" unicode="&#x148;" horiz-adv-x="488" 
d="M220 573l-85 146h51l57 -105l59 105h49l-88 -146h-43zM78 0v506h51v-88h2q22 50 64.5 75t93.5 25q58 0 92 -36t34 -90v-392h-56v374q0 98 -93 98q-50 0 -91.5 -43t-41.5 -101v-328h-55z" />
    <glyph glyph-name="Eng" unicode="&#x14a;" horiz-adv-x="598" 
d="M405 -189q-23 0 -42 3v48q14 -2 29 -2q41 0 56 21.5t15 62.5v63l-329 610h-2v-617h-52v713h61l324 -595h2v595h52v-780q0 -122 -114 -122z" />
    <glyph glyph-name="eng" unicode="&#x14b;" horiz-adv-x="488" 
d="M301 -189q-23 0 -42 3v48q14 -2 29 -2q41 0 56 21.5t15 62.5v430q0 98 -93 98q-50 0 -91.5 -43t-41.5 -101v-328h-55v506h51v-88h2q22 50 64.5 75t93.5 25q58 0 92 -36t34 -90v-459q0 -122 -114 -122z" />
    <glyph glyph-name="Omacron" unicode="&#x14c;" horiz-adv-x="577" 
d="M165 798v44h260v-44h-260zM289 -12q-102 0 -165 53.5t-63 156.5v305q0 104 63 163.5t165 59.5q101 0 164 -53.5t63 -154.5v-306q0 -106 -62.5 -165t-164.5 -59zM290 42q78 0 122.5 45t44.5 119v311q0 73 -45.5 114.5t-125.5 41.5t-122.5 -45t-42.5 -126v-298
q0 -75 44.5 -118.5t124.5 -43.5z" />
    <glyph glyph-name="omacron" unicode="&#x14d;" horiz-adv-x="463" 
d="M101 604v44h260v-44h-260zM232 -12q-81 0 -128 47t-47 134v167q0 85 48 133.5t126 48.5q81 0 128 -47t47 -133v-166q0 -89 -47 -136.5t-127 -47.5zM234 35q116 0 116 137v170q0 58 -29.5 94.5t-90.5 36.5t-89 -37.5t-28 -98.5v-166q0 -136 121 -136z" />
    <glyph glyph-name="Obreve" unicode="&#x14e;" horiz-adv-x="577" 
d="M289 -12q-102 0 -165 53.5t-63 156.5v305q0 104 63 163.5t165 59.5q101 0 164 -53.5t63 -154.5v-306q0 -106 -62.5 -165t-164.5 -59zM290 42q78 0 122.5 45t44.5 119v311q0 73 -45.5 114.5t-125.5 41.5t-122.5 -45t-42.5 -126v-298q0 -75 44.5 -118.5t124.5 -43.5z
M289 772q-60 0 -98.5 33.5t-40.5 91.5h43q10 -85 100 -85q39 0 63 23.5t28 61.5h42q-3 -59 -43.5 -92t-93.5 -33z" />
    <glyph glyph-name="obreve" unicode="&#x14f;" horiz-adv-x="463" 
d="M232 -12q-81 0 -128 47t-47 134v167q0 85 48 133.5t126 48.5q81 0 128 -47t47 -133v-166q0 -89 -47 -136.5t-127 -47.5zM234 35q116 0 116 137v170q0 58 -29.5 94.5t-90.5 36.5t-89 -37.5t-28 -98.5v-166q0 -136 121 -136zM232 578q-60 0 -98.5 33.5t-40.5 91.5h43
q10 -85 100 -85q39 0 63 23.5t28 61.5h42q-3 -59 -43.5 -92t-93.5 -33z" />
    <glyph glyph-name="Ohungarumlaut" unicode="&#x150;" horiz-adv-x="577" 
d="M197 763l54 133h56l-67 -133h-43zM319 763l55 133h56l-69 -133h-42zM289 -12q-102 0 -165 53.5t-63 156.5v305q0 104 63 163.5t165 59.5q101 0 164 -53.5t63 -154.5v-306q0 -106 -62.5 -165t-164.5 -59zM290 42q78 0 122.5 45t44.5 119v311q0 73 -45.5 114.5t-125.5 41.5
t-122.5 -45t-42.5 -126v-298q0 -75 44.5 -118.5t124.5 -43.5z" />
    <glyph glyph-name="ohungarumlaut" unicode="&#x151;" horiz-adv-x="463" 
d="M143 569l54 133h56l-67 -133h-43zM265 569l55 133h56l-69 -133h-42zM232 -12q-81 0 -128 47t-47 134v167q0 85 48 133.5t126 48.5q81 0 128 -47t47 -133v-166q0 -89 -47 -136.5t-127 -47.5zM234 35q116 0 116 137v170q0 58 -29.5 94.5t-90.5 36.5t-89 -37.5t-28 -98.5
v-166q0 -136 121 -136z" />
    <glyph glyph-name="OE" unicode="&#x152;" horiz-adv-x="882" 
d="M281 -11q-100 0 -160 53.5t-60 156.5v307q0 104 61 162.5t162 58.5q125 0 173 -88v75h374v-51h-316v-267h252v-50h-252v-294h317v-52h-375v84q-23 -44 -69 -69.5t-107 -25.5zM290 39q77 0 122 46.5t45 120.5v313q0 73 -45.5 114.5t-125.5 41.5q-79 0 -122 -45.5
t-43 -125.5v-300q0 -75 44.5 -120t124.5 -45z" />
    <glyph glyph-name="oe" unicode="&#x153;" horiz-adv-x="744" 
d="M232 -12q-81 0 -128 47t-47 134v167q0 85 48 133.5t126 48.5q102 0 148 -85q46 85 149 85q78 0 121.5 -47.5t43.5 -130.5v-95h-287v-79q0 -130 135 -130q61 0 124 38l21 -38q-62 -48 -153 -48q-113 0 -156 82q-43 -82 -145 -82zM234 35q116 0 116 137v170
q0 58 -29.5 94.5t-90.5 36.5t-89 -37.5t-28 -98.5v-165q0 -137 121 -137zM406 287h233v60q0 54 -27.5 90.5t-89.5 36.5q-57 0 -86.5 -38.5t-29.5 -90.5v-58z" />
    <glyph glyph-name="Racute" unicode="&#x154;" horiz-adv-x="556" 
d="M217 769l89 144h61l-105 -144h-45zM80 0v713h205q99 0 152 -54t53 -146q0 -82 -41.5 -136t-120.5 -63l184 -314h-66l-176 305h-131v-305h-59zM139 352h130q162 0 162 157q0 71 -38 113t-117 42h-137v-312z" />
    <glyph glyph-name="racute" unicode="&#x155;" horiz-adv-x="333" 
d="M148 575l89 144h61l-105 -144h-45zM78 0v506h51v-89h1q27 55 63 75t86 20q19 0 32 -3v-51q-18 2 -41 2q-58 0 -97 -35.5t-40 -103.5v-321h-55z" />
    <glyph glyph-name="Rcommaaccent" unicode="&#x156;" horiz-adv-x="556" 
d="M247 -189l5 151h53l-18 -151h-40zM80 0v713h205q99 0 152 -54t53 -146q0 -82 -41.5 -136t-120.5 -63l184 -314h-66l-176 305h-131v-305h-59zM139 352h130q162 0 162 157q0 71 -38 113t-117 42h-137v-312z" />
    <glyph glyph-name="rcommaaccent" unicode="&#x157;" horiz-adv-x="333" 
d="M80 -189l5 151h53l-18 -151h-40zM78 0v506h51v-89h1q27 55 63 75t86 20q19 0 32 -3v-51q-18 2 -41 2q-58 0 -97 -35.5t-40 -103.5v-321h-55z" />
    <glyph glyph-name="Rcaron" unicode="&#x158;" horiz-adv-x="556" 
d="M237 767l-85 146h51l57 -105l59 105h49l-88 -146h-43zM80 0v713h205q99 0 152 -54t53 -146q0 -82 -41.5 -136t-120.5 -63l184 -314h-66l-176 305h-131v-305h-59zM139 352h130q162 0 162 157q0 71 -38 113t-117 42h-137v-312z" />
    <glyph glyph-name="rcaron" unicode="&#x159;" horiz-adv-x="333" 
d="M161 573l-85 146h51l57 -105l59 105h49l-88 -146h-43zM78 0v506h51v-89h1q27 55 63 75t86 20q19 0 32 -3v-51q-18 2 -41 2q-58 0 -97 -35.5t-40 -103.5v-321h-55z" />
    <glyph glyph-name="Sacute" unicode="&#x15a;" horiz-adv-x="509" 
d="M234 769l89 144h61l-105 -144h-45zM248 -12q-134 0 -216 87l39 43q43 -40 84 -58t101 -18q65 0 103.5 37.5t38.5 95.5q0 57 -31 89t-87 60l-89 43q-130 63 -130 176q0 79 54.5 131t142.5 52q123 0 189 -75l-39 -39q-35 31 -70 47t-86 16q-57 0 -94.5 -32.5t-37.5 -90.5
q0 -44 26.5 -76t80.5 -58l81 -39q73 -36 111.5 -83t38.5 -114q0 -85 -58.5 -139.5t-151.5 -54.5z" />
    <glyph glyph-name="sacute" unicode="&#x15b;" horiz-adv-x="408" 
d="M179 575l89 144h61l-105 -144h-45zM204 -12q-105 0 -169 73l35 38q59 -64 135 -64q48 0 80 24t32 66q0 41 -21.5 65t-68.5 42l-58 22q-107 42 -107 133q0 50 39 91t110 41q95 0 144 -49l-31 -41q-53 45 -114 45q-42 0 -68.5 -23t-26.5 -58q0 -36 19 -56t65 -39l60 -24
q111 -43 111 -141q0 -66 -49 -105.5t-117 -39.5z" />
    <glyph glyph-name="Scircumflex" unicode="&#x15c;" horiz-adv-x="509" 
d="M146 766l87 146h43l85 -146h-51l-57 105l-59 -105h-48zM248 -12q-134 0 -216 87l39 43q43 -40 84 -58t101 -18q65 0 103.5 37.5t38.5 95.5q0 57 -31 89t-87 60l-89 43q-130 63 -130 176q0 79 54.5 131t142.5 52q123 0 189 -75l-39 -39q-35 31 -70 47t-86 16
q-57 0 -94.5 -32.5t-37.5 -90.5q0 -44 26.5 -76t80.5 -58l81 -39q73 -36 111.5 -83t38.5 -114q0 -85 -58.5 -139.5t-151.5 -54.5z" />
    <glyph glyph-name="scircumflex" unicode="&#x15d;" horiz-adv-x="408" 
d="M104 572l87 146h43l85 -146h-51l-57 105l-59 -105h-48zM204 -12q-105 0 -169 73l35 38q59 -64 135 -64q48 0 80 24t32 66q0 41 -21.5 65t-68.5 42l-58 22q-107 42 -107 133q0 50 39 91t110 41q95 0 144 -49l-31 -41q-53 45 -114 45q-42 0 -68.5 -23t-26.5 -58
q0 -36 19 -56t65 -39l60 -24q111 -43 111 -141q0 -66 -49 -105.5t-117 -39.5z" />
    <glyph glyph-name="Scedilla" unicode="&#x15e;" horiz-adv-x="509" 
d="M243 -194q-39 0 -78 11v35q41 -12 79 -12q52 0 52 35q0 32 -59 37l-32 2l19 75q-118 7 -192 86l39 43q43 -40 84 -58t101 -18q65 0 103.5 37.5t38.5 95.5q0 57 -31 89t-87 60l-89 43q-130 63 -130 176q0 79 54.5 131t142.5 52q123 0 189 -75l-39 -39q-35 31 -70 47
t-86 16q-57 0 -94.5 -32.5t-37.5 -90.5q0 -44 26.5 -76t80.5 -58l81 -39q73 -36 111.5 -83t38.5 -114q0 -83 -55.5 -137t-145.5 -57l-12 -47q97 -6 97 -66q0 -30 -27.5 -49.5t-71.5 -19.5z" />
    <glyph glyph-name="scedilla" unicode="&#x15f;" horiz-adv-x="408" 
d="M203 -194q-39 0 -78 11v35q41 -12 79 -12q52 0 52 35q0 32 -59 37l-32 2l19 75q-92 6 -149 72l35 38q59 -64 135 -64q48 0 80 24t32 66q0 41 -21.5 65t-68.5 42l-58 22q-107 42 -107 133q0 50 39 91t110 41q95 0 144 -49l-31 -41q-53 45 -114 45q-42 0 -68.5 -23
t-26.5 -58q0 -36 19 -56t65 -39l60 -24q111 -43 111 -141q0 -63 -44.5 -101.5t-108.5 -42.5l-12 -48q97 -6 97 -66q0 -30 -27.5 -49.5t-71.5 -19.5z" />
    <glyph glyph-name="Scaron" unicode="&#x160;" horiz-adv-x="509" 
d="M240 766l-85 146h51l57 -105l59 105h49l-88 -146h-43zM248 -12q-134 0 -216 87l39 43q43 -40 84 -58t101 -18q65 0 103.5 37.5t38.5 95.5q0 57 -31 89t-87 60l-89 43q-130 63 -130 176q0 79 54.5 131t142.5 52q123 0 189 -75l-39 -39q-35 31 -70 47t-86 16
q-57 0 -94.5 -32.5t-37.5 -90.5q0 -44 26.5 -76t80.5 -58l81 -39q73 -36 111.5 -83t38.5 -114q0 -85 -58.5 -139.5t-151.5 -54.5z" />
    <glyph glyph-name="scaron" unicode="&#x161;" horiz-adv-x="399" 
d="M186 573l-85 146h51l57 -105l59 105h49l-88 -146h-43zM205 -12q-105 0 -169 73l35 38q59 -64 135 -64q48 0 80 24t32 66q0 41 -21.5 65t-68.5 42l-58 22q-107 42 -107 133q0 50 39 91t110 41q95 0 144 -49l-31 -41q-53 45 -114 45q-42 0 -68.5 -23t-26.5 -58
q0 -36 19 -56t65 -39l60 -24q111 -43 111 -141q0 -66 -49 -105.5t-117 -39.5z" />
    <glyph glyph-name="Tcommaaccent" unicode="&#x162;" horiz-adv-x="513" 
d="M226 -189l5 151h53l-18 -151h-40zM228 0v663h-206v50h469v-50h-204v-663h-59z" />
    <glyph glyph-name="tcommaaccent" unicode="&#x163;" horiz-adv-x="339" 
d="M164 -189l5 151h53l-18 -151h-40zM225 -9q-108 0 -108 95v373h-84v46h84v151h56v-151h133v-46h-133v-356q0 -61 69 -61q25 0 63 12v-47q-40 -16 -80 -16z" />
    <glyph glyph-name="Tcaron" unicode="&#x164;" horiz-adv-x="513" 
d="M232 767l-85 146h51l57 -105l59 105h49l-88 -146h-43zM228 0v663h-206v50h469v-50h-204v-663h-59z" />
    <glyph glyph-name="tcaron" unicode="&#x165;" horiz-adv-x="339" 
d="M247 565l5 148h49l-16 -148h-38zM225 -9q-108 0 -108 95v373h-84v46h84v151h56v-151h133v-46h-133v-356q0 -61 69 -61q25 0 63 12v-47q-40 -16 -80 -16z" />
    <glyph glyph-name="Tbar" unicode="&#x166;" horiz-adv-x="513" 
d="M119 324v42h109v297h-206v50h469v-50h-204v-297h106v-42h-106v-324h-59v324h-109z" />
    <glyph glyph-name="tbar" unicode="&#x167;" horiz-adv-x="339" 
d="M70 275v35h47v149h-84v46h84v151h56v-151h133v-46h-133v-149h66v-35h-66v-172q0 -61 69 -61q25 0 63 12v-47q-40 -16 -80 -16q-108 0 -108 95v189h-47z" />
    <glyph glyph-name="Utilde" unicode="&#x168;" horiz-adv-x="593" 
d="M295 -12q-93 0 -156.5 51t-63.5 156v518h59v-507q0 -88 47.5 -127.5t117.5 -39.5q77 0 121 44.5t41 117.5v512h56v-515q1 -97 -60.5 -153.5t-161.5 -56.5zM181 777l-34 4q4 36 24.5 60t53.5 24q24 0 72 -18.5t72 -18.5q18 0 28 11.5t18 33.5l31 -6q-5 -36 -26 -59.5
t-52 -23.5q-26 0 -75 18.5t-69 18.5q-14 0 -23 -7t-12 -14.5t-8 -22.5z" />
    <glyph glyph-name="utilde" unicode="&#x169;" horiz-adv-x="488" 
d="M202 -12q-58 0 -93 35.5t-35 89.5v393h56v-374q0 -52 23.5 -74.5t68.5 -22.5q53 0 93.5 42.5t40.5 101.5v327h56v-506h-49l-3 89h-2q-20 -47 -63 -74t-93 -27zM128 579l-34 4q4 36 24.5 60t53.5 24q24 0 72 -18.5t72 -18.5q18 0 28 11.5t18 33.5l31 -6q-5 -36 -26 -59.5
t-52 -23.5q-26 0 -75 18.5t-69 18.5q-14 0 -23 -7t-12 -14.5t-8 -22.5z" />
    <glyph glyph-name="Umacron" unicode="&#x16a;" horiz-adv-x="593" 
d="M295 -12q-93 0 -156.5 51t-63.5 156v518h59v-507q0 -88 47.5 -127.5t117.5 -39.5q77 0 121 44.5t41 117.5v512h56v-515q1 -97 -60.5 -153.5t-161.5 -56.5zM166 802v44h260v-44h-260z" />
    <glyph glyph-name="umacron" unicode="&#x16b;" horiz-adv-x="488" 
d="M202 -12q-58 0 -93 35.5t-35 89.5v393h56v-374q0 -52 23.5 -74.5t68.5 -22.5q53 0 93.5 42.5t40.5 101.5v327h56v-506h-49l-3 89h-2q-20 -47 -63 -74t-93 -27zM113 604v44h260v-44h-260z" />
    <glyph glyph-name="Ubreve" unicode="&#x16c;" horiz-adv-x="593" 
d="M295 -12q-93 0 -156.5 51t-63.5 156v518h59v-507q0 -88 47.5 -127.5t117.5 -39.5q77 0 121 44.5t41 117.5v512h56v-515q1 -97 -60.5 -153.5t-161.5 -56.5zM303 776q-60 0 -98.5 33.5t-40.5 91.5h43q10 -85 100 -85q39 0 63 23.5t28 61.5h42q-3 -59 -43.5 -92t-93.5 -33z
" />
    <glyph glyph-name="ubreve" unicode="&#x16d;" horiz-adv-x="488" 
d="M202 -12q-58 0 -93 35.5t-35 89.5v393h56v-374q0 -52 23.5 -74.5t68.5 -22.5q53 0 93.5 42.5t40.5 101.5v327h56v-506h-49l-3 89h-2q-20 -47 -63 -74t-93 -27zM244 578q-60 0 -98.5 33.5t-40.5 91.5h43q10 -85 100 -85q39 0 63 23.5t28 61.5h42q-3 -59 -43.5 -92
t-93.5 -33z" />
    <glyph glyph-name="Uring" unicode="&#x16e;" horiz-adv-x="593" 
d="M296 760q-39 0 -60.5 24t-21.5 58q0 36 23 60.5t57 24.5q39 0 61 -22t22 -58q0 -37 -23 -62t-58 -25zM295 789q22 0 36 14.5t14 40.5t-13.5 40.5t-37.5 14.5q-22 0 -34.5 -15.5t-12.5 -41.5t13.5 -39.5t34.5 -13.5zM295 -12q-93 0 -156.5 51t-63.5 156v518h59v-507
q0 -88 47.5 -127.5t117.5 -39.5q77 0 121 44.5t41 117.5v512h56v-515q1 -97 -60.5 -153.5t-161.5 -56.5z" />
    <glyph glyph-name="uring" unicode="&#x16f;" horiz-adv-x="488" 
d="M244 562q-39 0 -60.5 24t-21.5 58q0 36 23 60.5t57 24.5q39 0 61 -22t22 -58q0 -37 -23 -62t-58 -25zM243 591q22 0 36 14.5t14 40.5t-13.5 40.5t-37.5 14.5q-22 0 -34.5 -15.5t-12.5 -41.5t13.5 -39.5t34.5 -13.5zM202 -12q-58 0 -93 35.5t-35 89.5v393h56v-374
q0 -52 23.5 -74.5t68.5 -22.5q53 0 93.5 42.5t40.5 101.5v327h56v-506h-49l-3 89h-2q-20 -47 -63 -74t-93 -27z" />
    <glyph glyph-name="Uhungarumlaut" unicode="&#x170;" horiz-adv-x="593" 
d="M295 -12q-93 0 -156.5 51t-63.5 156v518h59v-507q0 -88 47.5 -127.5t117.5 -39.5q77 0 121 44.5t41 117.5v512h56v-515q1 -97 -60.5 -153.5t-161.5 -56.5zM202 767l54 133h56l-67 -133h-43zM324 767l55 133h56l-69 -133h-42z" />
    <glyph glyph-name="uhungarumlaut" unicode="&#x171;" horiz-adv-x="488" 
d="M202 -12q-58 0 -93 35.5t-35 89.5v393h56v-374q0 -52 23.5 -74.5t68.5 -22.5q53 0 93.5 42.5t40.5 101.5v327h56v-506h-49l-3 89h-2q-20 -47 -63 -74t-93 -27zM158 569l54 133h56l-67 -133h-43zM280 569l55 133h56l-69 -133h-42z" />
    <glyph glyph-name="Uogonek" unicode="&#x172;" horiz-adv-x="593" 
d="M295 -12q-93 0 -156.5 51t-63.5 156v518h59v-507q0 -88 47.5 -127.5t117.5 -39.5q77 0 121 44.5t41 117.5v512h56v-515q1 -79 -41 -132t-114 -70q-50 -43 -50 -97t52 -54q24 0 48 15l16 -30q-30 -20 -72 -20q-36 0 -60.5 20.5t-24.5 59.5q0 55 46 99q-3 0 -11 -0.5
t-11 -0.5z" />
    <glyph glyph-name="uogonek" unicode="&#x173;" horiz-adv-x="488" 
d="M202 -12q-58 0 -93 35.5t-35 89.5v393h56v-374q0 -52 23.5 -74.5t68.5 -22.5q53 0 93.5 42.5t40.5 101.5v327h56v-506h-9q-27 -15 -48 -41t-21 -61q0 -53 51 -53q27 0 49 14l16 -30q-30 -20 -72 -20q-36 0 -60.5 20.5t-24.5 59.5q0 35 20.5 66t49.5 49l-3 85h-2
q-20 -47 -63 -74t-93 -27z" />
    <glyph glyph-name="Wcircumflex" unicode="&#x174;" horiz-adv-x="757" 
d="M271 766l87 146h43l85 -146h-51l-57 105l-59 -105h-48zM186 -3l-153 716h59l124 -614h2l131 614h65l127 -612h2l124 612h56l-153 -716h-59l-131 627h-3l-132 -627h-59z" />
    <glyph glyph-name="wcircumflex" unicode="&#x175;" horiz-adv-x="653" 
d="M219 572l87 146h43l85 -146h-51l-57 105l-59 -105h-48zM158 -2l-128 508h59l98 -418h2l112 418h59l106 -418h2l103 418h53l-132 -508h-54l-109 441h-3l-115 -441h-53z" />
    <glyph glyph-name="Ycircumflex" unicode="&#x176;" horiz-adv-x="497" 
d="M219 0v306l-189 407h61l162 -350l158 350h57l-190 -408v-305h-59zM143 766l87 146h43l85 -146h-51l-57 105l-59 -105h-48z" />
    <glyph glyph-name="ycircumflex" unicode="&#x177;" horiz-adv-x="410" 
d="M79 -191q-34 0 -61 8l7 48q30 -7 51 -7q29 0 47 17t32 58l26 85l-157 488h59l127 -415h1l125 415h52l-177 -568q-37 -129 -132 -129zM97 572l87 146h43l85 -146h-51l-57 105l-59 -105h-48z" />
    <glyph glyph-name="Ydieresis" unicode="&#x178;" horiz-adv-x="497" 
d="M219 0v306l-189 407h61l162 -350l158 350h57l-190 -408v-305h-59zM155 795v97h51v-97h-51zM302 795v97h51v-97h-51z" />
    <glyph glyph-name="Zacute" unicode="&#x179;" horiz-adv-x="485" 
d="M216 769l89 144h61l-105 -144h-45zM48 0v40l322 625h-313v49h381v-41l-321 -622h317v-51h-386z" />
    <glyph glyph-name="zacute" unicode="&#x17a;" horiz-adv-x="397" 
d="M141 575l89 144h61l-105 -144h-45zM41 0v36l249 426h-243v44h307l-1 -38l-244 -424h245v-44h-313z" />
    <glyph glyph-name="Zdotaccent" unicode="&#x17b;" horiz-adv-x="485" 
d="M48 0v40l322 625h-313v49h381v-41l-321 -622h317v-51h-386zM220 797v100h53v-100h-53z" />
    <glyph glyph-name="zdotaccent" unicode="&#x17c;" horiz-adv-x="397" 
d="M41 0v36l249 426h-243v44h307l-1 -38l-244 -424h245v-44h-313zM171 603v100h53v-100h-53z" />
    <glyph glyph-name="Zcaron" unicode="&#x17d;" horiz-adv-x="485" 
d="M227 766l-85 146h51l57 -105l59 105h49l-88 -146h-43zM48 0v40l322 625h-313v49h381v-41l-321 -622h317v-51h-386z" />
    <glyph glyph-name="zcaron" unicode="&#x17e;" horiz-adv-x="397" 
d="M178 573l-85 146h51l57 -105l59 105h49l-88 -146h-43zM41 0v36l249 426h-243v44h307l-1 -38l-244 -424h245v-44h-313z" />
    <glyph glyph-name="florin" unicode="&#x192;" horiz-adv-x="358" 
d="M53 -189q-25 0 -44 3l2 47q14 -2 29 -2q40 0 55 21t18 63l38 479h-87l2 43h87l11 138q5 58 39.5 91.5t86.5 33.5q30 0 55 -7l-3 -44q-19 6 -46 6q-31 0 -52 -19.5t-25 -58.5l-11 -140h104l-3 -43h-103l-38 -488q-8 -123 -115 -123z" />
    <glyph glyph-name="Aringacute" unicode="&#x1fa;" horiz-adv-x="555" 
d="M29 0l215 716h71l212 -716h-60l-69 237h-243l-70 -237h-56zM167 285h217l-107 368h-1zM280 747q-40 0 -61.5 24t-21.5 56q0 33 21 59l86 108l47 -17l-67 -67q39 -2 58.5 -23.5t19.5 -54.5q0 -36 -23 -60.5t-59 -24.5zM279 774q22 0 36.5 14.5t14.5 40.5t-14 40.5
t-38 14.5q-22 0 -34.5 -15.5t-12.5 -41.5t13.5 -39.5t34.5 -13.5z" />
    <glyph glyph-name="aringacute" unicode="&#x1fb;" horiz-adv-x="459" 
d="M186 -11q-58 0 -98 37.5t-40 106.5q0 80 54.5 119t125.5 40h104v93q0 91 -105 91q-46 0 -79 -21.5t-33 -62.5v-31h-50v32q0 60 48 92.5t121 32.5q69 0 112 -32.5t43 -96.5v-259q0 -16 1 -41.5t2.5 -53t1.5 -35.5h-52l-4 84h-2q-22 -50 -64 -72.5t-86 -22.5zM203 33
q53 0 91 38t38 95v86h-94q-55 0 -93.5 -24.5t-38.5 -86.5q0 -52 28 -80t69 -28zM228 562q-40 0 -61.5 24t-21.5 56q0 34 21 59l86 108l47 -17l-67 -67q39 -2 58.5 -23.5t19.5 -54.5q0 -36 -23 -60.5t-59 -24.5zM227 589q22 0 36.5 14.5t14.5 40.5t-14 40.5t-38 14.5
q-22 0 -34.5 -15.5t-12.5 -41.5t13.5 -39.5t34.5 -13.5z" />
    <glyph glyph-name="AEacute" unicode="&#x1fc;" horiz-adv-x="811" 
d="M414 773l89 144h61l-105 -144h-45zM23 0l346 713h407v-51h-316v-266h252v-50h-252v-294h316v-52h-374v226l-210 1l-109 -227h-60zM214 274h188v385h-2z" />
    <glyph glyph-name="aeacute" unicode="&#x1fd;" horiz-adv-x="723" 
d="M337 575l89 144h61l-105 -144h-45zM190 -12q-60 0 -101 38t-41 107q0 80 54.5 119.5t125.5 39.5h104v93q0 46 -29.5 68.5t-79.5 22.5q-45 0 -76.5 -21.5t-31.5 -62.5v-31h-50v32q0 60 46 92.5t120 32.5q51 0 88.5 -18.5t48.5 -57.5q44 76 144 76q77 0 120 -46.5
t43 -129.5v-93h-287v-82q0 -131 136 -131q61 0 124 38l21 -38q-61 -48 -153 -48q-63 0 -106.5 26t-58.5 79q-23 -58 -69.5 -81.5t-91.5 -23.5zM206 33q52 0 89 39t37 96v84h-89q-137 0 -137 -111q0 -53 28 -80.5t72 -27.5zM388 292h234v55q0 53 -28 90t-89 37q-57 0 -87 -38
t-30 -89v-55z" />
    <glyph glyph-name="Oslashacute" unicode="&#x1fe;" horiz-adv-x="576" 
d="M123 -50l-36 16l36 76q-62 56 -62 156v305q0 104 63 163.5t165 59.5q81 0 139 -35l30 64l37 -15l-35 -74q56 -56 56 -148v-306q0 -106 -62.5 -165t-164.5 -59q-79 0 -134 31zM121 204q0 -62 30 -102l252 536q-44 35 -117 35q-80 0 -122.5 -45t-42.5 -126v-298zM290 42
q78 0 122.5 45t44.5 119v311q0 51 -25 90l-251 -534q42 -31 109 -31zM261 768l89 144h61l-105 -144h-45z" />
    <glyph glyph-name="oslashacute" unicode="&#x1ff;" horiz-adv-x="463" 
d="M114 -50l-34 16l30 63q-53 47 -53 140v167q0 85 48 133.5t126 48.5q57 0 99 -25l26 55l34 -16l-30 -62q46 -49 46 -132v-166q0 -89 -47 -136.5t-127 -47.5q-51 0 -91 20zM113 171q0 -59 21 -91l174 368q-32 25 -78 25q-61 0 -89 -37.5t-28 -98.5v-166zM234 35
q116 0 116 137v170q0 42 -16 73l-171 -362q27 -18 71 -18zM201 575l89 144h61l-105 -144h-45z" />
    <glyph glyph-name="Scommaaccent" unicode="&#x218;" horiz-adv-x="509" 
d="M229 -189l5 151h53l-18 -151h-40zM248 -12q-134 0 -216 87l39 43q43 -40 84 -58t101 -18q65 0 103.5 37.5t38.5 95.5q0 57 -31 89t-87 60l-89 43q-130 63 -130 176q0 79 54.5 131t142.5 52q123 0 189 -75l-39 -39q-35 31 -70 47t-86 16q-57 0 -94.5 -32.5t-37.5 -90.5
q0 -44 26.5 -76t80.5 -58l81 -39q73 -36 111.5 -83t38.5 -114q0 -85 -58.5 -139.5t-151.5 -54.5z" />
    <glyph glyph-name="scommaaccent" unicode="&#x219;" horiz-adv-x="408" 
d="M178 -189l5 151h53l-18 -151h-40zM204 -12q-105 0 -169 73l35 38q59 -64 135 -64q48 0 80 24t32 66q0 41 -21.5 65t-68.5 42l-58 22q-107 42 -107 133q0 50 39 91t110 41q95 0 144 -49l-31 -41q-53 45 -114 45q-42 0 -68.5 -23t-26.5 -58q0 -36 19 -56t65 -39l60 -24
q111 -43 111 -141q0 -66 -49 -105.5t-117 -39.5z" />
    <glyph glyph-name="uni021A" unicode="&#x21a;" horiz-adv-x="513" 
d="M226 -189l5 151h53l-18 -151h-40zM228 0v663h-206v50h469v-50h-204v-663h-59z" />
    <glyph glyph-name="uni021B" unicode="&#x21b;" horiz-adv-x="339" 
d="M164 -189l5 151h53l-18 -151h-40zM225 -9q-108 0 -108 95v373h-84v46h84v151h56v-151h133v-46h-133v-356q0 -61 69 -61q25 0 63 12v-47q-40 -16 -80 -16z" />
    <glyph glyph-name="dotlessj" unicode="&#x237;" horiz-adv-x="222" 
d="M31 -189q-23 0 -42 3v48q14 -2 29 -2q41 0 56 21.5t15 62.5v562h56v-573q0 -122 -114 -122z" />
    <glyph glyph-name="circumflex" unicode="&#x2c6;" horiz-adv-x="356" 
d="M73 572l87 146h43l85 -146h-51l-57 105l-59 -105h-48z" />
    <glyph glyph-name="caron" unicode="&#x2c7;" horiz-adv-x="355" 
d="M158 573l-85 146h51l57 -105l59 105h49l-88 -146h-43z" />
    <glyph glyph-name="breve" unicode="&#x2d8;" horiz-adv-x="358" 
d="M180 578q-60 0 -98.5 33.5t-40.5 91.5h43q10 -85 100 -85q39 0 63 23.5t28 61.5h42q-3 -59 -43.5 -92t-93.5 -33z" />
    <glyph glyph-name="dotaccent" unicode="&#x2d9;" horiz-adv-x="183" 
d="M65 603v100h53v-100h-53z" />
    <glyph glyph-name="ring" unicode="&#x2da;" horiz-adv-x="269" 
d="M140 562q-39 0 -60.5 24t-21.5 58q0 36 23 60.5t57 24.5q39 0 61 -22t22 -58q0 -37 -23 -62t-58 -25zM139 591q22 0 36 14.5t14 40.5t-13.5 40.5t-37.5 14.5q-22 0 -34.5 -15.5t-12.5 -41.5t13.5 -39.5t34.5 -13.5z" />
    <glyph glyph-name="ogonek" unicode="&#x2db;" horiz-adv-x="332" 
d="M161 -190q-36 0 -60.5 20.5t-24.5 59.5q0 42 29.5 78t63.5 49l20 -15q-29 -15 -50.5 -41.5t-21.5 -61.5q0 -53 51 -53q27 0 49 14l16 -30q-30 -20 -72 -20z" />
    <glyph glyph-name="tilde" unicode="&#x2dc;" horiz-adv-x="373" 
d="M78 579l-34 4q4 36 24.5 60t53.5 24q24 0 72 -18.5t72 -18.5q18 0 28 11.5t18 33.5l31 -6q-5 -36 -26 -59.5t-52 -23.5q-26 0 -75 18.5t-69 18.5q-14 0 -23 -7t-12 -14.5t-8 -22.5z" />
    <glyph glyph-name="hungarumlaut" unicode="&#x2dd;" horiz-adv-x="350" 
d="M64 569l54 133h56l-67 -133h-43zM186 569l55 133h56l-69 -133h-42z" />
    <glyph glyph-name="pi" unicode="&#x3c0;" horiz-adv-x="509" 
d="M422 -5q-92 0 -92 103v364h-166q-13 -332 -24 -462h-56q19 217 24 462h-78l7 45h432v-45h-86v-355q0 -61 54 -61q25 0 43 5v-47q-26 -9 -58 -9z" />
    <glyph glyph-name="Wgrave" unicode="&#x1e80;" horiz-adv-x="757" 
d="M186 -3l-153 716h59l124 -614h2l131 614h65l127 -612h2l124 612h56l-153 -716h-59l-131 627h-3l-132 -627h-59zM357 769l-106 144h62l90 -144h-46z" />
    <glyph glyph-name="wgrave" unicode="&#x1e81;" horiz-adv-x="653" 
d="M158 -2l-128 508h59l98 -418h2l112 418h59l106 -418h2l103 418h53l-132 -508h-54l-109 441h-3l-115 -441h-53zM306 575l-106 144h62l90 -144h-46z" />
    <glyph glyph-name="Wacute" unicode="&#x1e82;" horiz-adv-x="757" 
d="M359 769l89 144h61l-105 -144h-45zM186 -3l-153 716h59l124 -614h2l131 614h65l127 -612h2l124 612h56l-153 -716h-59l-131 627h-3l-132 -627h-59z" />
    <glyph glyph-name="wacute" unicode="&#x1e83;" horiz-adv-x="653" 
d="M304 575l89 144h61l-105 -144h-45zM158 -2l-128 508h59l98 -418h2l112 418h59l106 -418h2l103 418h53l-132 -508h-54l-109 441h-3l-115 -441h-53z" />
    <glyph glyph-name="Wdieresis" unicode="&#x1e84;" horiz-adv-x="757" 
d="M279 805v97h51v-97h-51zM426 805v97h51v-97h-51zM186 -3l-153 716h59l124 -614h2l131 614h65l127 -612h2l124 612h56l-153 -716h-59l-131 627h-3l-132 -627h-59z" />
    <glyph glyph-name="wdieresis" unicode="&#x1e85;" horiz-adv-x="653" 
d="M227 602v97h51v-97h-51zM374 602v97h51v-97h-51zM158 -2l-128 508h59l98 -418h2l112 418h59l106 -418h2l103 418h53l-132 -508h-54l-109 441h-3l-115 -441h-53z" />
    <glyph glyph-name="Ygrave" unicode="&#x1ef2;" horiz-adv-x="497" 
d="M219 0v306l-189 407h61l162 -350l158 350h57l-190 -408v-305h-59zM233 769l-106 144h62l90 -144h-46z" />
    <glyph glyph-name="ygrave" unicode="&#x1ef3;" horiz-adv-x="410" 
d="M79 -191q-34 0 -61 8l7 48q30 -7 51 -7q29 0 47 17t32 58l26 85l-157 488h59l127 -415h1l125 415h52l-177 -568q-37 -129 -132 -129zM219 575l-106 144h62l90 -144h-46z" />
    <glyph glyph-name="endash" unicode="&#x2013;" horiz-adv-x="461" 
d="M0 275v40h461v-40h-461z" />
    <glyph glyph-name="emdash" unicode="&#x2014;" horiz-adv-x="779" 
d="M0 275v40h779v-40h-779z" />
    <glyph glyph-name="quoteleft" unicode="&#x2018;" horiz-adv-x="182" 
d="M62 516v97l22 101h30l-17 -98h20v-100h-55z" />
    <glyph glyph-name="quoteright" unicode="&#x2019;" horiz-adv-x="183" 
d="M68 515l16 99h-20v99h55v-97l-21 -101h-30z" />
    <glyph glyph-name="quotesinglbase" unicode="&#x201a;" horiz-adv-x="181" 
d="M78 -21l-4 24l-10 72l27 28l28 -72l-14 -103l-24 -25z" />
    <glyph glyph-name="quotedblleft" unicode="&#x201c;" horiz-adv-x="310" 
d="M62 516v97l22 101h30l-17 -98h20v-100h-55zM192 516v97l24 101h28l-15 -98h19v-100h-56z" />
    <glyph glyph-name="quotedblright" unicode="&#x201d;" horiz-adv-x="310" 
d="M67 515l16 99h-19v99h55v-97l-23 -101h-29zM197 515l16 99h-20v99h56v-97l-22 -101h-30z" />
    <glyph glyph-name="quotedblbase" unicode="&#x201e;" horiz-adv-x="310" 
d="M67 -97l16 100h-19v100h55v-98l-23 -102h-29zM197 -97l16 100h-20v100h56v-98l-22 -102h-30z" />
    <glyph glyph-name="dagger" unicode="&#x2020;" horiz-adv-x="499" 
d="M227 -139v630h-164v43h164v180h47v-180h162v-43h-162v-630h-47z" />
    <glyph glyph-name="daggerdbl" unicode="&#x2021;" horiz-adv-x="499" 
d="M227 -139v192h-164v41h164v397h-164v43h164v180h47v-180h162v-43h-162v-397h162v-41h-162v-192h-47z" />
    <glyph glyph-name="bullet" unicode="&#x2022;" horiz-adv-x="375" 
d="M188 246q-43 0 -73.5 30.5t-30.5 72.5q0 43 30.5 73.5t73.5 30.5q42 0 72 -30.5t30 -73.5q0 -42 -30 -72.5t-72 -30.5z" />
    <glyph glyph-name="ellipsis" unicode="&#x2026;" horiz-adv-x="529" 
d="M66 0v103h56v-103h-56zM237 0v103h56v-103h-56zM408 0v103h56v-103h-56z" />
    <glyph glyph-name="perthousand" unicode="&#x2030;" horiz-adv-x="973" 
d="M803 -11q-52 0 -83.5 29t-31.5 82v135q0 56 33 88t84 32t84 -29.5t33 -84.5v-141q0 -52 -34.5 -81.5t-84.5 -29.5zM804 30q34 0 53.5 20.5t19.5 47.5v151q0 27 -19.5 47.5t-53.5 20.5t-52.5 -19.5t-18.5 -48.5v-152q0 -30 18.5 -48.5t52.5 -18.5zM166 361
q-53 0 -84.5 30.5t-31.5 83.5v137q0 55 33 84.5t84 29.5t84.5 -29t33.5 -85v-140q0 -52 -34.5 -81.5t-84.5 -29.5zM167 400q33 0 52.5 20.5t19.5 48.5v151q0 27 -19.5 47t-52.5 20q-34 0 -53 -19.5t-19 -47.5v-152q0 -30 18.5 -49t53.5 -19zM140 -4l368 727h42l-367 -727
h-43zM509 -11q-52 0 -84 29t-32 82v135q0 56 33 88t84 32t84 -29.5t33 -84.5v-141q0 -52 -34 -81.5t-84 -29.5zM509 30q35 0 54 20t19 48v151q0 27 -19.5 47.5t-53.5 20.5t-52 -19.5t-18 -48.5v-152q0 -30 18 -48.5t52 -18.5z" />
    <glyph glyph-name="guilsinglleft" unicode="&#x2039;" horiz-adv-x="240" 
d="M145 122l-108 152l107 154l34 -21l-78 -132l79 -132z" />
    <glyph glyph-name="guilsinglright" unicode="&#x203a;" horiz-adv-x="240" 
d="M72 122l-34 22l78 132l-79 132l34 21l108 -152z" />
    <glyph glyph-name="fraction" unicode="&#x2044;" horiz-adv-x="114" 
d="M-152 -4l377 722h39l-377 -722h-39z" />
    <glyph glyph-name="uni2070" unicode="&#x2070;" horiz-adv-x="315" 
d="M159 368q-51 0 -83 26.5t-32 77.5v203q0 51 32.5 78.5t81.5 27.5q50 0 81.5 -26.5t31.5 -77.5v-203q0 -51 -32 -78.5t-80 -27.5zM158 405q68 0 68 70v203q0 28 -17.5 47t-50.5 19t-51.5 -19t-18.5 -49v-202q0 -30 18 -49.5t52 -19.5z" />
    <glyph glyph-name="uni2074" unicode="&#x2074;" horiz-adv-x="290" 
d="M177 380v105h-152v35l142 259h47l-144 -257h107v76l45 31v-107h49v-37h-49v-105h-45z" />
    <glyph glyph-name="uni2075" unicode="&#x2075;" horiz-adv-x="312" 
d="M151 368q-51 0 -79 25.5t-28 63.5v21h41v-17q0 -27 19.5 -42.5t48.5 -15.5q71 0 71 78v42q0 37 -18.5 55t-49.5 18q-32 0 -63 -33l-43 5l12 206h187v-37h-151q0 -1 -4.5 -70t-4.5 -71q32 32 81 32q42 0 70 -25t28 -74v-54q0 -49 -33.5 -78t-83.5 -29z" />
    <glyph glyph-name="uni2076" unicode="&#x2076;" horiz-adv-x="311" 
d="M154 368q-49 0 -80 28.5t-31 74.5v202q0 50 33 79.5t82 29.5q48 0 76.5 -25t28.5 -66v-20h-40v16q0 28 -19.5 43.5t-49.5 15.5q-29 0 -47 -19t-18 -47v-102q30 45 88 45q39 0 65 -24t26 -61v-69q0 -46 -32 -73.5t-82 -27.5zM158 403q32 0 49 19t17 45v66q0 31 -18 45.5
t-44 14.5q-25 0 -49 -21.5t-24 -49.5v-53q0 -27 18.5 -46.5t50.5 -19.5z" />
    <glyph glyph-name="uni2077" unicode="&#x2077;" horiz-adv-x="269" 
d="M80 380q1 113 37.5 209.5t82.5 147.5h-173v37h220v-32q-58 -60 -89.5 -162.5t-30.5 -199.5h-47z" />
    <glyph glyph-name="uni2078" unicode="&#x2078;" horiz-adv-x="314" 
d="M156 368q-51 0 -81.5 25t-30.5 70v37q0 26 17 47.5t44 32.5q-26 8 -41.5 29t-15.5 43v36q0 44 31.5 68.5t77.5 24.5q47 0 78 -23t31 -67v-36q0 -23 -16 -43.5t-42 -30.5q27 -9 45 -31t18 -49v-38q0 -44 -32.5 -69.5t-82.5 -25.5zM157 402q31 0 50 16.5t19 45.5v38
q0 29 -20.5 44.5t-48.5 15.5q-29 0 -49 -15.5t-20 -43.5v-40q0 -27 19.5 -44t49.5 -17zM158 596q26 0 45.5 16.5t19.5 41.5v37q0 26 -20 41t-47 15q-26 0 -46 -16t-20 -41v-37q0 -27 20.5 -42t47.5 -15z" />
    <glyph glyph-name="uni2079" unicode="&#x2079;" horiz-adv-x="311" 
d="M153 368q-48 0 -76.5 25t-28.5 66v18h40v-14q0 -28 19.5 -43.5t49.5 -15.5q29 0 47 19t18 47v101q-27 -45 -89 -45q-39 0 -64.5 24t-25.5 61v69q0 47 32 74.5t82 27.5q49 0 80 -28.5t31 -75.5v-201q0 -50 -33 -79.5t-82 -29.5zM149 557q25 0 49 21t24 50v53
q0 26 -18.5 45.5t-50.5 19.5t-49 -18.5t-17 -45.5v-65q0 -31 18 -45.5t44 -14.5z" />
    <glyph glyph-name="uni207D" unicode="&#x207d;" horiz-adv-x="175" 
d="M127 311q-34 49 -52.5 119.5t-18.5 133.5q0 140 71 249l28 -2q-31 -71 -44.5 -122.5t-13.5 -124.5q0 -130 59 -250z" />
    <glyph glyph-name="uni207E" unicode="&#x207e;" horiz-adv-x="175" 
d="M53 311l-29 3q60 122 60 250q0 73 -14 124.5t-45 122.5l28 2q71 -109 71 -249q0 -64 -18.5 -134.5t-52.5 -118.5z" />
    <glyph glyph-name="uni2080" unicode="&#x2080;" horiz-adv-x="315" 
d="M159 -145q-51 0 -83 26.5t-32 77.5v203q0 51 32.5 78.5t81.5 27.5q50 0 81.5 -26.5t31.5 -77.5v-203q0 -51 -32 -78.5t-80 -27.5zM158 -108q68 0 68 70v203q0 28 -17.5 47t-50.5 19t-51.5 -19t-18.5 -49v-202q0 -30 18 -49.5t52 -19.5z" />
    <glyph glyph-name="uni2081" unicode="&#x2081;" horiz-adv-x="231" 
d="M100 -133v352l-49 -15l-5 37l74 24h25v-398h-45z" />
    <glyph glyph-name="uni2082" unicode="&#x2082;" horiz-adv-x="293" 
d="M50 -133v27l79 100q39 52 59 90t20 76v4q-2 68 -63 68q-29 0 -45 -16.5t-16 -43.5v-16h-41v17q0 45 29 70t76 25q49 0 76 -28t27 -76q0 -35 -13.5 -70t-29.5 -58t-47 -63l-53 -69h152v-37h-210z" />
    <glyph glyph-name="uni2083" unicode="&#x2083;" horiz-adv-x="312" 
d="M155 -145q-55 0 -83 27t-28 67v16h41v-13q0 -28 20 -44.5t48 -16.5q33 0 51 21t18 60q0 42 -23.5 60.5t-48.5 18.5h-36v34h32q32 0 50.5 19t18.5 57q0 36 -18.5 53t-45.5 17q-29 0 -46.5 -15t-17.5 -45v-12h-40v16q0 43 28 68t78 25q52 0 78.5 -29t26.5 -71
q0 -34 -15 -61.5t-46 -35.5v-2q33 -8 52 -35.5t19 -63.5q0 -54 -31.5 -84.5t-81.5 -30.5z" />
    <glyph glyph-name="uni2084" unicode="&#x2084;" horiz-adv-x="290" 
d="M177 -133v105h-152v35l142 259h47l-144 -257h107v76l45 31v-107h49v-37h-49v-105h-45z" />
    <glyph glyph-name="uni2085" unicode="&#x2085;" horiz-adv-x="312" 
d="M151 -145q-51 0 -79 25.5t-28 63.5v21h41v-17q0 -27 19.5 -42.5t48.5 -15.5q71 0 71 78v42q0 37 -18.5 55t-49.5 18q-32 0 -63 -33l-43 5l12 206h187v-37h-151q0 -1 -4.5 -70t-4.5 -71q32 32 81 32q42 0 70 -25t28 -74v-54q0 -49 -33.5 -78t-83.5 -29z" />
    <glyph glyph-name="uni2086" unicode="&#x2086;" horiz-adv-x="311" 
d="M154 -145q-49 0 -80 28.5t-31 74.5v202q0 50 33 79.5t82 29.5q48 0 76.5 -25t28.5 -66v-20h-40v16q0 28 -19.5 43.5t-49.5 15.5q-29 0 -47 -19t-18 -47v-102q30 45 88 45q39 0 65 -24t26 -61v-69q0 -46 -32 -73.5t-82 -27.5zM158 -110q32 0 49 19t17 45v66q0 31 -18 45.5
t-44 14.5q-25 0 -49 -21.5t-24 -49.5v-53q0 -27 18.5 -46.5t50.5 -19.5z" />
    <glyph glyph-name="uni2087" unicode="&#x2087;" horiz-adv-x="269" 
d="M80 -133q1 113 37.5 209.5t82.5 147.5h-173v37h220v-32q-58 -60 -89.5 -162.5t-30.5 -199.5h-47z" />
    <glyph glyph-name="uni2088" unicode="&#x2088;" horiz-adv-x="314" 
d="M156 -145q-51 0 -81.5 25t-30.5 70v37q0 26 17 47.5t44 32.5q-26 8 -41.5 29t-15.5 43v36q0 44 31.5 68.5t77.5 24.5q47 0 78 -23t31 -67v-36q0 -23 -16 -43.5t-42 -30.5q27 -9 45 -31t18 -49v-38q0 -44 -32.5 -69.5t-82.5 -25.5zM157 -111q31 0 50 16.5t19 45.5v38
q0 29 -20.5 44.5t-48.5 15.5q-29 0 -49 -15.5t-20 -43.5v-40q0 -27 19.5 -44t49.5 -17zM158 83q26 0 45.5 16.5t19.5 41.5v37q0 26 -20 41t-47 15q-26 0 -46 -16t-20 -41v-37q0 -27 20.5 -42t47.5 -15z" />
    <glyph glyph-name="uni2089" unicode="&#x2089;" horiz-adv-x="311" 
d="M153 -145q-48 0 -76.5 25t-28.5 66v18h40v-14q0 -28 19.5 -43.5t49.5 -15.5q29 0 47 19t18 47v101q-27 -45 -89 -45q-39 0 -64.5 24t-25.5 61v69q0 47 32 74.5t82 27.5q49 0 80 -28.5t31 -75.5v-201q0 -50 -33 -79.5t-82 -29.5zM149 44q25 0 49 21t24 50v53
q0 26 -18.5 45.5t-50.5 19.5t-49 -18.5t-17 -45.5v-65q0 -31 18 -45.5t44 -14.5z" />
    <glyph glyph-name="uni208D" unicode="&#x208d;" horiz-adv-x="175" 
d="M127 -202q-34 49 -52.5 119.5t-18.5 133.5q0 140 71 249l28 -2q-31 -71 -44.5 -122.5t-13.5 -124.5q0 -130 59 -250z" />
    <glyph glyph-name="uni208E" unicode="&#x208e;" horiz-adv-x="175" 
d="M53 -202l-29 3q60 122 60 250q0 73 -14 124.5t-45 122.5l28 2q71 -109 71 -249q0 -64 -18.5 -134.5t-52.5 -118.5z" />
    <glyph glyph-name="uni20AA" unicode="&#x20aa;" horiz-adv-x="420" 
d="M26 0v705h138q64 0 92 -29t28 -119v-435h-66v441q0 49 -29 49h-89v-612h-74zM126 0v583h65v-489h89q30 0 30 48v563h84v-542q0 -91 -29 -127t-91 -36h-148z" />
    <glyph glyph-name="Euro" unicode="&#x20ac;" horiz-adv-x="611" 
d="M353 -12q-100 0 -160 52.5t-60 150.5v73h-83v41h83v106h-83v41h83v64q0 91 61 151t159 60q95 0 152.5 -50t57.5 -126v-57h-54v50q0 61 -40.5 98.5t-118.5 37.5q-76 0 -116 -46t-40 -118v-64h239v-41h-239v-106h239v-41h-239v-66q0 -76 42 -120t119 -44t115.5 38.5
t38.5 100.5v38h54v-45q0 -80 -57.5 -129t-152.5 -49z" />
    <glyph glyph-name="trademark" unicode="&#x2122;" horiz-adv-x="583" 
d="M290 397v319h43l77 -154l76 154h41v-319h-35l-1 252l-69 -140h-26l-71 144v-256h-35zM121 397v285h-88v34h212v-34h-87v-285h-37z" />
    <glyph glyph-name="Omega" unicode="&#x2126;" horiz-adv-x="584" 
d="M56 0v56l131 -5v5q-63 71 -96 167t-33 188v10q0 149 61 226.5t173 77.5q116 0 175 -83t59 -219v-10q1 -113 -39 -211t-90 -146v-5l132 5v-56h-195v32q32 39 47.5 62.5t38.5 69.5t33.5 104.5t10.5 133.5v47q0 100 -45.5 162.5t-128.5 62.5q-78 0 -124 -60.5t-46 -166.5
v-39q0 -76 11 -137t33.5 -106.5t41 -72.5t47.5 -60v-32h-197z" />
    <glyph glyph-name="uni2153" unicode="&#x2153;" horiz-adv-x="701" 
d="M134 317v352l-49 -15l-5 37l74 24h25v-398h-45zM128 -4l377 722h39l-377 -722h-39zM530 -12q-55 0 -83 27t-28 67v16h41v-13q0 -28 20 -44.5t48 -16.5q33 0 51 21t18 60q0 42 -23.5 60.5t-48.5 18.5h-36v34h32q32 0 50.5 19t18.5 57q0 36 -18.5 53t-45.5 17
q-29 0 -46.5 -15t-17.5 -45v-12h-40v16q0 43 28 68t78 25q52 0 78.5 -29t26.5 -71q0 -34 -15 -61.5t-46 -35.5v-2q33 -8 52 -35.5t19 -63.5q0 -54 -31.5 -84.5t-81.5 -30.5z" />
    <glyph glyph-name="uni2154" unicode="&#x2154;" horiz-adv-x="701" 
d="M49 317v27l79 100q39 52 59 90t20 76v4q-2 68 -63 68q-29 0 -45 -16.5t-16 -43.5v-16h-41v17q0 45 29 70t76 25q49 0 76 -28t27 -76q0 -35 -13.5 -70t-29.5 -58t-47 -63l-53 -69h152v-37h-210zM153 -4l377 722h39l-377 -722h-39zM536 -12q-55 0 -83 27t-28 67v16h41v-13
q0 -28 20 -44.5t48 -16.5q33 0 51 21t18 60q0 42 -23.5 60.5t-48.5 18.5h-36v34h32q32 0 50.5 19t18.5 57q0 36 -18.5 53t-45.5 17q-29 0 -46.5 -15t-17.5 -45v-12h-40v16q0 43 28 68t78 25q52 0 78.5 -29t26.5 -71q0 -34 -15 -61.5t-46 -35.5v-2q33 -8 52 -35.5t19 -63.5
q0 -54 -31.5 -84.5t-81.5 -30.5z" />
    <glyph glyph-name="uni2155" unicode="&#x2155;" horiz-adv-x="701" 
d="M163 317v352l-49 -15l-5 37l74 24h25v-398h-45zM534 -12q-51 0 -79 25.5t-28 63.5v21h41v-17q0 -27 19.5 -42.5t48.5 -15.5q71 0 71 78v42q0 37 -18.5 55t-49.5 18q-32 0 -63 -33l-43 5l12 206h187v-37h-151q0 -1 -4.5 -70t-4.5 -71q32 32 81 32q42 0 70 -25t28 -74v-54
q0 -49 -33.5 -78t-83.5 -29zM144 -4l377 722h39l-377 -722h-39z" />
    <glyph glyph-name="uni2156" unicode="&#x2156;" horiz-adv-x="701" 
d="M50 317v27l79 100q39 52 59 90t20 76v4q-2 68 -63 68q-29 0 -45 -16.5t-16 -43.5v-16h-41v17q0 45 29 70t76 25q49 0 76 -28t27 -76q0 -35 -13.5 -70t-29.5 -58t-47 -63l-53 -69h152v-37h-210zM538 -12q-51 0 -79 25.5t-28 63.5v21h41v-17q0 -27 19.5 -42.5t48.5 -15.5
q71 0 71 78v42q0 37 -18.5 55t-49.5 18q-32 0 -63 -33l-43 5l12 206h187v-37h-151q0 -1 -4.5 -70t-4.5 -71q32 32 81 32q42 0 70 -25t28 -74v-54q0 -49 -33.5 -78t-83.5 -29zM151 -4l377 722h39l-377 -722h-39z" />
    <glyph glyph-name="uni2157" unicode="&#x2157;" horiz-adv-x="701" 
d="M168 305q-55 0 -83 27t-28 67v16h41v-13q0 -28 20 -44.5t48 -16.5q33 0 51 21t18 60q0 42 -23.5 60.5t-48.5 18.5h-36v34h32q32 0 50.5 19t18.5 57q0 36 -18.5 53t-45.5 17q-29 0 -46.5 -15t-17.5 -45v-12h-40v16q0 43 28 68t78 25q52 0 78.5 -29t26.5 -71
q0 -34 -15 -61.5t-46 -35.5v-2q33 -8 52 -35.5t19 -63.5q0 -54 -31.5 -84.5t-81.5 -30.5zM151 -4l377 722h39l-377 -722h-39zM538 -12q-51 0 -79 25.5t-28 63.5v21h41v-17q0 -27 19.5 -42.5t48.5 -15.5q71 0 71 78v42q0 37 -18.5 55t-49.5 18q-32 0 -63 -33l-43 5l12 206
h187v-37h-151q0 -1 -4.5 -70t-4.5 -71q32 32 81 32q42 0 70 -25t28 -74v-54q0 -49 -33.5 -78t-83.5 -29z" />
    <glyph glyph-name="uni2158" unicode="&#x2158;" horiz-adv-x="701" 
d="M189 317v105h-152v35l142 259h47l-144 -257h107v76l45 31v-107h49v-37h-49v-105h-45zM538 -12q-51 0 -79 25.5t-28 63.5v21h41v-17q0 -27 19.5 -42.5t48.5 -15.5q71 0 71 78v42q0 37 -18.5 55t-49.5 18q-32 0 -63 -33l-43 5l12 206h187v-37h-151q0 -1 -4.5 -70t-4.5 -71
q32 32 81 32q42 0 70 -25t28 -74v-54q0 -49 -33.5 -78t-83.5 -29zM151 -4l377 722h39l-377 -722h-39z" />
    <glyph glyph-name="uni2159" unicode="&#x2159;" horiz-adv-x="701" 
d="M167 317v352l-49 -15l-5 37l74 24h25v-398h-45zM535 -12q-49 0 -80 28.5t-31 74.5v202q0 50 33 79.5t82 29.5q48 0 76.5 -25t28.5 -66v-20h-40v16q0 28 -19.5 43.5t-49.5 15.5q-29 0 -47 -19t-18 -47v-102q30 45 88 45q39 0 65 -24t26 -61v-69q0 -46 -32 -73.5t-82 -27.5
zM539 23q32 0 49 19t17 45v66q0 31 -18 45.5t-44 14.5q-25 0 -49 -21.5t-24 -49.5v-53q0 -27 18.5 -46.5t50.5 -19.5zM146 -4l377 722h39l-377 -722h-39z" />
    <glyph glyph-name="uni215A" unicode="&#x215a;" horiz-adv-x="701" 
d="M548 -12q-49 0 -80 28.5t-31 74.5v202q0 50 33 79.5t82 29.5q48 0 76.5 -25t28.5 -66v-20h-40v16q0 28 -19.5 43.5t-49.5 15.5q-29 0 -47 -19t-18 -47v-102q30 45 88 45q39 0 65 -24t26 -61v-69q0 -46 -32 -73.5t-82 -27.5zM552 23q32 0 49 19t17 45v66q0 31 -18 45.5
t-44 14.5q-25 0 -49 -21.5t-24 -49.5v-53q0 -27 18.5 -46.5t50.5 -19.5zM197 305q-51 0 -79 25.5t-28 63.5v21h41v-17q0 -27 19.5 -42.5t48.5 -15.5q71 0 71 78v42q0 37 -18.5 55t-49.5 18q-32 0 -63 -33l-43 5l12 206h187v-37h-151q0 -1 -4.5 -70t-4.5 -71q32 32 81 32
q42 0 70 -25t28 -74v-54q0 -49 -33.5 -78t-83.5 -29zM171 -4l377 722h39l-377 -722h-39z" />
    <glyph glyph-name="uni215B" unicode="&#x215b;" horiz-adv-x="701" 
d="M167 317v352l-49 -15l-5 37l74 24h25v-398h-45zM537 -12q-51 0 -81.5 25t-30.5 70v37q0 26 17 47.5t44 32.5q-26 8 -41.5 29t-15.5 43v36q0 44 31.5 68.5t77.5 24.5q47 0 78 -23t31 -67v-36q0 -23 -16 -43.5t-42 -30.5q27 -9 45 -31t18 -49v-38q0 -44 -32.5 -69.5
t-82.5 -25.5zM538 22q31 0 50 16.5t19 45.5v38q0 29 -20.5 44.5t-48.5 15.5q-29 0 -49 -15.5t-20 -43.5v-40q0 -27 19.5 -44t49.5 -17zM539 216q26 0 45.5 16.5t19.5 41.5v37q0 26 -20 41t-47 15q-26 0 -46 -16t-20 -41v-37q0 -27 20.5 -42t47.5 -15zM146 -4l377 722h39
l-377 -722h-39z" />
    <glyph glyph-name="uni215C" unicode="&#x215c;" horiz-adv-x="701" 
d="M550 -12q-51 0 -81.5 25t-30.5 70v37q0 26 17 47.5t44 32.5q-26 8 -41.5 29t-15.5 43v36q0 44 31.5 68.5t77.5 24.5q47 0 78 -23t31 -67v-36q0 -23 -16 -43.5t-42 -30.5q27 -9 45 -31t18 -49v-38q0 -44 -32.5 -69.5t-82.5 -25.5zM551 22q31 0 50 16.5t19 45.5v38
q0 29 -20.5 44.5t-48.5 15.5q-29 0 -49 -15.5t-20 -43.5v-40q0 -27 19.5 -44t49.5 -17zM552 216q26 0 45.5 16.5t19.5 41.5v37q0 26 -20 41t-47 15q-26 0 -46 -16t-20 -41v-37q0 -27 20.5 -42t47.5 -15zM201 305q-55 0 -83 27t-28 67v16h41v-13q0 -28 20 -44.5t48 -16.5
q33 0 51 21t18 60q0 42 -23.5 60.5t-48.5 18.5h-36v34h32q32 0 50.5 19t18.5 57q0 36 -18.5 53t-45.5 17q-29 0 -46.5 -15t-17.5 -45v-12h-40v16q0 43 28 68t78 25q52 0 78.5 -29t26.5 -71q0 -34 -15 -61.5t-46 -35.5v-2q33 -8 52 -35.5t19 -63.5q0 -54 -31.5 -84.5
t-81.5 -30.5zM173 -4l377 722h39l-377 -722h-39z" />
    <glyph glyph-name="uni215D" unicode="&#x215d;" horiz-adv-x="701" 
d="M549 -12q-51 0 -81.5 25t-30.5 70v37q0 26 17 47.5t44 32.5q-26 8 -41.5 29t-15.5 43v36q0 44 31.5 68.5t77.5 24.5q47 0 78 -23t31 -67v-36q0 -23 -16 -43.5t-42 -30.5q27 -9 45 -31t18 -49v-38q0 -44 -32.5 -69.5t-82.5 -25.5zM550 22q31 0 50 16.5t19 45.5v38
q0 29 -20.5 44.5t-48.5 15.5q-29 0 -49 -15.5t-20 -43.5v-40q0 -27 19.5 -44t49.5 -17zM551 216q26 0 45.5 16.5t19.5 41.5v37q0 26 -20 41t-47 15q-26 0 -46 -16t-20 -41v-37q0 -27 20.5 -42t47.5 -15zM197 305q-51 0 -79 25.5t-28 63.5v21h41v-17q0 -27 19.5 -42.5
t48.5 -15.5q71 0 71 78v42q0 37 -18.5 55t-49.5 18q-32 0 -63 -33l-43 5l12 206h187v-37h-151q0 -1 -4.5 -70t-4.5 -71q32 32 81 32q42 0 70 -25t28 -74v-54q0 -49 -33.5 -78t-83.5 -29zM171 -4l377 722h39l-377 -722h-39z" />
    <glyph glyph-name="uni215E" unicode="&#x215e;" horiz-adv-x="701" 
d="M549 -12q-51 0 -81.5 25t-30.5 70v37q0 26 17 47.5t44 32.5q-26 8 -41.5 29t-15.5 43v36q0 44 31.5 68.5t77.5 24.5q47 0 78 -23t31 -67v-36q0 -23 -16 -43.5t-42 -30.5q27 -9 45 -31t18 -49v-38q0 -44 -32.5 -69.5t-82.5 -25.5zM550 22q31 0 50 16.5t19 45.5v38
q0 29 -20.5 44.5t-48.5 15.5q-29 0 -49 -15.5t-20 -43.5v-40q0 -27 19.5 -44t49.5 -17zM551 216q26 0 45.5 16.5t19.5 41.5v37q0 26 -20 41t-47 15q-26 0 -46 -16t-20 -41v-37q0 -27 20.5 -42t47.5 -15zM160 317q1 113 37.5 209.5t82.5 147.5h-173v37h220v-32
q-58 -60 -89.5 -162.5t-30.5 -199.5h-47zM158 -4l377 722h39l-377 -722h-39z" />
    <glyph glyph-name="arrowleft" unicode="&#x2190;" horiz-adv-x="533" 
d="M216 199l-156 160v5l156 160l28 -28l-115 -116h341v-39h-341l115 -116z" />
    <glyph glyph-name="arrowup" unicode="&#x2191;" horiz-adv-x="533" 
d="M248 156v341l-116 -115l-27 27l160 157h5l160 -157l-26 -27l-117 115v-341h-39z" />
    <glyph glyph-name="arrowright" unicode="&#x2192;" horiz-adv-x="533" 
d="M316 199l-28 26l115 116h-341v39h341l-115 116l28 28l156 -160v-5z" />
    <glyph glyph-name="arrowdown" unicode="&#x2193;" horiz-adv-x="533" 
d="M265 156l-160 156l26 28l117 -115v341h39v-341l116 115l27 -28l-160 -156h-5z" />
    <glyph glyph-name="uni2196" unicode="&#x2196;" horiz-adv-x="533" 
d="M399 203l-242 240v-162h-39l2 224l4 3l224 2v-37l-163 -1l242 -242z" />
    <glyph glyph-name="uni2197" unicode="&#x2197;" horiz-adv-x="533" 
d="M146 203l-28 27l241 242l-162 1l1 37l223 -2l4 -3l2 -224h-39v162z" />
    <glyph glyph-name="uni2198" unicode="&#x2198;" horiz-adv-x="533" 
d="M198 203l-1 37l162 1l-241 241l28 28l242 -242v164h39q0 -29 -1 -112.5t-1 -111.5l-4 -4z" />
    <glyph glyph-name="uni2199" unicode="&#x2199;" horiz-adv-x="533" 
d="M348 203l-224 1l-4 4l-2 224h39v-164l242 242l28 -28l-242 -241l163 -1v-37z" />
    <glyph glyph-name="partialdiff" unicode="&#x2202;" horiz-adv-x="462" 
d="M231 -12q-82 0 -128 43.5t-46 128.5v176q0 80 45.5 125.5t119.5 49.5q36 0 64 -12l-139 216l60 11q108 -164 171 -271q28 -44 28 -117v-171q0 -88 -45.5 -133.5t-129.5 -45.5zM232 33q118 0 118 134v173q0 128 -111 128q-62 0 -94 -36t-32 -96v-179q0 -57 29 -90.5
t90 -33.5z" />
    <glyph glyph-name="Delta" unicode="&#x2206;" horiz-adv-x="530" 
d="M36 0v32l210 683h71l207 -683v-32h-488zM98 50h361l-179 602h-3z" />
    <glyph glyph-name="product" unicode="&#x220f;" horiz-adv-x="599" 
d="M127 -133v793h-84v53h514v-53h-77v-793h-54v793h-244v-793h-55z" />
    <glyph glyph-name="summation" unicode="&#x2211;" horiz-adv-x="481" 
d="M51 -133v42l293 400l-296 363v42h382v-50h-306l278 -339l1 -28l-281 -380h310v-50h-381z" />
    <glyph glyph-name="minus" unicode="&#x2212;" 
d="M82 297v42h376v-42h-376z" />
    <glyph glyph-name="radical" unicode="&#x221a;" horiz-adv-x="527" 
d="M171 -2l-147 509h59l118 -431h1l259 637h53l-292 -715h-51z" />
    <glyph glyph-name="infinity" unicode="&#x221e;" horiz-adv-x="828" 
d="M608 164q-96 0 -196 121q-108 -120 -200 -120q-75 0 -121.5 45.5t-46.5 110.5q0 69 49 114t122 45q101 0 202 -122q115 115 204 115q74 0 118.5 -40t44.5 -105q0 -72 -49.5 -118t-126.5 -46zM207 204q47 0 88.5 29.5t94.5 85.5q-88 123 -178 123q-51 0 -87 -32t-36 -78
q0 -53 31.5 -90.5t86.5 -37.5zM612 203q55 0 91 34.5t36 84.5q0 51 -31 82.5t-90 31.5q-66 0 -179 -115q43 -55 84 -86.5t89 -31.5z" />
    <glyph glyph-name="integral" unicode="&#x222b;" horiz-adv-x="362" 
d="M51 -189q-23 0 -48 5l4 44q24 -3 34 -3q39 0 52 21t16 63l36 662q3 58 36 91.5t85 33.5q30 0 55 -7l-3 -44q-21 6 -47 6q-31 0 -52 -19.5t-23 -58.5l-34 -671q-7 -123 -111 -123z" />
    <glyph glyph-name="approxequal" unicode="&#x2248;" 
d="M112 208l-34 6q5 35 24 58t51 23q24 0 116.5 -16.5t116.5 -16.5q28 0 42 44l34 -8q-16 -83 -76 -83q-22 0 -116.5 17.5t-118.5 17.5q-12 0 -20.5 -6.5t-11.5 -14t-7 -21.5zM112 352l-34 6q5 35 24 58t51 23q24 0 116.5 -17t116.5 -17q28 0 42 45l34 -8q-16 -83 -76 -83
q-22 0 -116.5 17.5t-118.5 17.5q-12 0 -20.5 -7t-11.5 -14.5t-7 -20.5z" />
    <glyph glyph-name="notequal" unicode="&#x2260;" 
d="M224 117l-38 12l36 91h-140v43h156q5 13 21.5 53.5t21.5 55.5h-199v41h217q14 32 34 88l40 -12l-30 -76h115v-41h-132l-44 -109h176v-43h-193q-3 -8 -20 -49t-21 -54z" />
    <glyph glyph-name="lessequal" unicode="&#x2264;" 
d="M424 196l-332 159v34l337 155l18 -39l-297 -133q27 -13 139.5 -65.5t154.5 -73.5zM82 69v42h375v-42h-375z" />
    <glyph glyph-name="greaterequal" unicode="&#x2265;" 
d="M115 196l-19 37l294 139q-34 16 -89 40.5t-120 53t-89 39.5l18 39l338 -155v-34zM83 69v42h375v-42h-375z" />
    <glyph glyph-name="blacksquare" unicode="&#x25a0;" horiz-adv-x="715" 
d="M46 0v715h623v-715h-623z" />
    <glyph glyph-name="whitesquare" unicode="&#x25a1;" horiz-adv-x="716" 
d="M47 0v713h622v-713h-622zM89 38h538v638h-538v-638z" />
    <glyph glyph-name="blacksmallsquare" unicode="&#x25aa;" horiz-adv-x="597" 
d="M52 0v553h493v-553h-493z" />
    <glyph glyph-name="triagup" unicode="&#x25b2;" horiz-adv-x="469" 
d="M53 188v8l173 332h7l183 -332v-8h-363z" />
    <glyph glyph-name="triagrt" unicode="&#x25ba;" horiz-adv-x="469" 
d="M68 176v364h7l333 -176v-7q-10 -6 -86.5 -47.5t-160 -86.5t-86.5 -47h-7z" />
    <glyph glyph-name="triagdn" unicode="&#x25bc;" horiz-adv-x="469" 
d="M236 188l-183 332v8h363v-8l-173 -332h-7z" />
    <glyph glyph-name="triaglf" unicode="&#x25c4;" horiz-adv-x="469" 
d="M393 176l-333 181v7l333 176h7v-364h-7z" />
    <glyph glyph-name="lozenge" unicode="&#x25ca;" horiz-adv-x="484" 
d="M223 -2l-182 341v14l182 362h37l183 -362v-14l-183 -341h-37zM244 54l155 291l-159 309l-152 -307z" />
    <glyph glyph-name="uni25E2" unicode="&#x25e2;" horiz-adv-x="469" 
d="M419 162l-368 68l-4 7l241 276h6l131 -346z" />
    <glyph glyph-name="uni25E3" unicode="&#x25e3;" horiz-adv-x="469" 
d="M52 162l-5 5l131 346h6l241 -276l-4 -7z" />
    <glyph glyph-name="uni25E4" unicode="&#x25e4;" horiz-adv-x="469" 
d="M184 161l-6 1q-64 166 -131 345l3 3t2 3l369 -69q2 -2 4 -6z" />
    <glyph glyph-name="uni25E5" unicode="&#x25e5;" horiz-adv-x="469" 
d="M288 161l-241 277q2 4 4 6l368 69l6 -6q-17 -43 -64.5 -170t-66.5 -175z" />
    <glyph glyph-name="I.alt" unicode="&#xe131;" horiz-adv-x="398" 
d="M32 663v50h334v-50h-138v-612h138v-51h-334v51h137v612h-137z" />
    <glyph glyph-name="I.alt" unicode="&#xe488;" horiz-adv-x="398" 
d="M32 663v50h334v-50h-138v-612h138v-51h-334v51h137v612h-137z" />
    <glyph glyph-name="Igrave.alt" unicode="&#xe132;" horiz-adv-x="385" 
d="M26 663v50h334v-50h-138v-612h138v-51h-334v51h137v612h-137zM176 767l-106 144h62l90 -144h-46z" />
    <glyph glyph-name="Iacute.alt" unicode="&#xe133;" horiz-adv-x="385" 
d="M26 663v50h334v-50h-138v-612h138v-51h-334v51h137v612h-137zM172 767l89 144h61l-105 -144h-45z" />
    <glyph glyph-name="Icircumflex.alt" unicode="&#xe134;" horiz-adv-x="385" 
d="M26 663v50h334v-50h-138v-612h138v-51h-334v51h137v612h-137zM85 764l87 146h43l85 -146h-51l-57 105l-59 -105h-48z" />
    <glyph glyph-name="Idieresis.alt" unicode="&#xe135;" horiz-adv-x="385" 
d="M26 663v50h334v-50h-138v-612h138v-51h-334v51h137v612h-137zM94 794v97h51v-97h-51zM241 794v97h51v-97h-51z" />
    <glyph glyph-name="Itilde.alt" unicode="&#xe136;" horiz-adv-x="385" 
d="M26 663v50h334v-50h-138v-612h138v-51h-334v51h137v612h-137zM78 771l-34 4q4 36 24.5 60t53.5 24q24 0 72 -18.5t72 -18.5q18 0 28 11.5t18 33.5l31 -6q-5 -36 -26 -59.5t-52 -23.5q-26 0 -75 18.5t-69 18.5q-14 0 -23 -7t-12 -14.5t-8 -22.5z" />
    <glyph glyph-name="Imacron.alt" unicode="&#xe138;" horiz-adv-x="385" 
d="M26 663v50h334v-50h-138v-612h138v-51h-334v51h137v612h-137zM62 796v44h260v-44h-260z" />
    <glyph glyph-name="Ibreve.alt" unicode="&#xe139;" horiz-adv-x="385" 
d="M26 663v50h334v-50h-138v-612h138v-51h-334v51h137v612h-137zM185 770q-60 0 -98.5 33.5t-40.5 91.5h43q10 -85 100 -85q39 0 63 23.5t28 61.5h42q-3 -59 -43.5 -92t-93.5 -33z" />
    <glyph glyph-name="Idotaccent.alt" unicode="&#xe13c;" horiz-adv-x="385" 
d="M26 663v50h334v-50h-138v-612h138v-51h-334v51h137v612h-137zM165 795v100h53v-100h-53z" />
    <glyph glyph-name="Iogonek.alt" unicode="&#xe13e;" horiz-adv-x="385" 
d="M301 -190q-36 0 -60.5 20.5t-24.5 59.5q0 65 62 110h-252v51h137v612h-137v50h334v-50h-138v-612h138v-51h-35q-68 -37 -68 -101q0 -53 51 -53q27 0 49 14l16 -30q-30 -20 -72 -20z" />
    <glyph glyph-name="zero.dnom" unicode="&#xe402;" horiz-adv-x="315" 
d="M159 -12q-51 0 -83 26.5t-32 77.5v203q0 51 32.5 78.5t81.5 27.5q50 0 81.5 -26.5t31.5 -77.5v-203q0 -51 -32 -78.5t-80 -27.5zM158 25q68 0 68 70v203q0 28 -17.5 47t-50.5 19t-51.5 -19t-18.5 -49v-202q0 -30 18 -49.5t52 -19.5z" />
    <glyph glyph-name="one.dnom" unicode="&#xe403;" horiz-adv-x="231" 
d="M100 0v352l-49 -15l-5 37l74 24h25v-398h-45z" />
    <glyph glyph-name="two.dnom" unicode="&#xe404;" horiz-adv-x="293" 
d="M50 0v27l79 100q39 52 59 90t20 76v4q-2 68 -63 68q-29 0 -45 -16.5t-16 -43.5v-16h-41v17q0 45 29 70t76 25q49 0 76 -28t27 -76q0 -35 -13.5 -70t-29.5 -58t-47 -63l-53 -69h152v-37h-210z" />
    <glyph glyph-name="three.dnom" unicode="&#xe405;" horiz-adv-x="312" 
d="M155 -12q-55 0 -83 27t-28 67v16h41v-13q0 -28 20 -44.5t48 -16.5q33 0 51 21t18 60q0 42 -23.5 60.5t-48.5 18.5h-36v34h32q32 0 50.5 19t18.5 57q0 36 -18.5 53t-45.5 17q-29 0 -46.5 -15t-17.5 -45v-12h-40v16q0 43 28 68t78 25q52 0 78.5 -29t26.5 -71
q0 -34 -15 -61.5t-46 -35.5v-2q33 -8 52 -35.5t19 -63.5q0 -54 -31.5 -84.5t-81.5 -30.5z" />
    <glyph glyph-name="four.dnom" unicode="&#xe406;" horiz-adv-x="290" 
d="M177 0v105h-152v35l142 259h47l-144 -257h107v76l45 31v-107h49v-37h-49v-105h-45z" />
    <glyph glyph-name="five.dnom" unicode="&#xe407;" horiz-adv-x="312" 
d="M151 -12q-51 0 -79 25.5t-28 63.5v21h41v-17q0 -27 19.5 -42.5t48.5 -15.5q71 0 71 78v42q0 37 -18.5 55t-49.5 18q-32 0 -63 -33l-43 5l12 206h187v-37h-151q0 -1 -4.5 -70t-4.5 -71q32 32 81 32q42 0 70 -25t28 -74v-54q0 -49 -33.5 -78t-83.5 -29z" />
    <glyph glyph-name="six.dnom" unicode="&#xe408;" horiz-adv-x="311" 
d="M154 -12q-49 0 -80 28.5t-31 74.5v202q0 50 33 79.5t82 29.5q48 0 76.5 -25t28.5 -66v-20h-40v16q0 28 -19.5 43.5t-49.5 15.5q-29 0 -47 -19t-18 -47v-102q30 45 88 45q39 0 65 -24t26 -61v-69q0 -46 -32 -73.5t-82 -27.5zM158 23q32 0 49 19t17 45v66q0 31 -18 45.5
t-44 14.5q-25 0 -49 -21.5t-24 -49.5v-53q0 -27 18.5 -46.5t50.5 -19.5z" />
    <glyph glyph-name="seven.dnom" unicode="&#xe409;" horiz-adv-x="269" 
d="M80 0q1 113 37.5 209.5t82.5 147.5h-173v37h220v-32q-58 -60 -89.5 -162.5t-30.5 -199.5h-47z" />
    <glyph glyph-name="eight.dnom" unicode="&#xe40a;" horiz-adv-x="314" 
d="M156 -12q-51 0 -81.5 25t-30.5 70v37q0 26 17 47.5t44 32.5q-26 8 -41.5 29t-15.5 43v36q0 44 31.5 68.5t77.5 24.5q47 0 78 -23t31 -67v-36q0 -23 -16 -43.5t-42 -30.5q27 -9 45 -31t18 -49v-38q0 -44 -32.5 -69.5t-82.5 -25.5zM157 22q31 0 50 16.5t19 45.5v38
q0 29 -20.5 44.5t-48.5 15.5q-29 0 -49 -15.5t-20 -43.5v-40q0 -27 19.5 -44t49.5 -17zM158 216q26 0 45.5 16.5t19.5 41.5v37q0 26 -20 41t-47 15q-26 0 -46 -16t-20 -41v-37q0 -27 20.5 -42t47.5 -15z" />
    <glyph glyph-name="nine.dnom" unicode="&#xe40b;" horiz-adv-x="311" 
d="M153 -12q-48 0 -76.5 25t-28.5 66v18h40v-14q0 -28 19.5 -43.5t49.5 -15.5q29 0 47 19t18 47v101q-27 -45 -89 -45q-39 0 -64.5 24t-25.5 61v69q0 47 32 74.5t82 27.5q49 0 80 -28.5t31 -75.5v-201q0 -50 -33 -79.5t-82 -29.5zM149 177q25 0 49 21t24 50v53
q0 26 -18.5 45.5t-50.5 19.5t-49 -18.5t-17 -45.5v-65q0 -31 18 -45.5t44 -14.5z" />
    <glyph glyph-name="comma.dnom" unicode="&#xe40d;" horiz-adv-x="140" 
d="M51 -65l15 67h-18v67h45v-67l-20 -67h-22z" />
    <glyph glyph-name="period.dnom" unicode="&#xe40e;" horiz-adv-x="140" 
d="M48 0v69h45v-69h-45z" />
    <glyph glyph-name="parenleft.dnom" unicode="&#xe40f;" horiz-adv-x="175" 
d="M127 -69q-34 49 -52.5 119.5t-18.5 133.5q0 140 71 249l28 -2q-31 -71 -44.5 -122.5t-13.5 -124.5q0 -130 59 -250z" />
    <glyph glyph-name="parenright.dnom" unicode="&#xe410;" horiz-adv-x="175" 
d="M53 -69l-29 3q60 122 60 250q0 73 -14 124.5t-45 122.5l28 2q71 -109 71 -249q0 -64 -18.5 -134.5t-52.5 -118.5z" />
    <glyph glyph-name="caronSlovak" unicode="&#xe413;" horiz-adv-x="175" 
d="M60 558l6 155h50l-16 -155h-40z" />
    <glyph glyph-name="commaaccent" unicode="&#xe414;" horiz-adv-x="175" 
d="M57 -189l5 151h53l-18 -151h-40z" />
    <glyph glyph-name="commaaccent" unicode="&#xf6c3;" horiz-adv-x="175" 
d="M57 -189l5 151h53l-18 -151h-40z" />
    <glyph glyph-name="zero.numr" unicode="&#xe416;" horiz-adv-x="315" 
d="M159 306q-51 0 -83 26.5t-32 77.5v203q0 51 32.5 78.5t81.5 27.5q50 0 81.5 -26.5t31.5 -77.5v-203q0 -51 -32 -78.5t-80 -27.5zM158 343q68 0 68 70v203q0 28 -17.5 47t-50.5 19t-51.5 -19t-18.5 -49v-202q0 -30 18 -49.5t52 -19.5z" />
    <glyph glyph-name="one.numr" unicode="&#xe417;" horiz-adv-x="231" 
d="M100 318v352l-49 -15l-5 37l74 24h25v-398h-45z" />
    <glyph glyph-name="two.numr" unicode="&#xe418;" horiz-adv-x="293" 
d="M50 318v27l79 100q39 52 59 90t20 76v4q-2 68 -63 68q-29 0 -45 -16.5t-16 -43.5v-16h-41v17q0 45 29 70t76 25q49 0 76 -28t27 -76q0 -35 -13.5 -70t-29.5 -58t-47 -63l-53 -69h152v-37h-210z" />
    <glyph glyph-name="three.numr" unicode="&#xe419;" horiz-adv-x="312" 
d="M155 306q-55 0 -83 27t-28 67v16h41v-13q0 -28 20 -44.5t48 -16.5q33 0 51 21t18 60q0 42 -23.5 60.5t-48.5 18.5h-36v34h32q32 0 50.5 19t18.5 57q0 36 -18.5 53t-45.5 17q-29 0 -46.5 -15t-17.5 -45v-12h-40v16q0 43 28 68t78 25q52 0 78.5 -29t26.5 -71
q0 -34 -15 -61.5t-46 -35.5v-2q33 -8 52 -35.5t19 -63.5q0 -54 -31.5 -84.5t-81.5 -30.5z" />
    <glyph glyph-name="four.numr" unicode="&#xe41a;" horiz-adv-x="290" 
d="M177 318v105h-152v35l142 259h47l-144 -257h107v76l45 31v-107h49v-37h-49v-105h-45z" />
    <glyph glyph-name="five.numr" unicode="&#xe41b;" horiz-adv-x="312" 
d="M151 306q-51 0 -79 25.5t-28 63.5v21h41v-17q0 -27 19.5 -42.5t48.5 -15.5q71 0 71 78v42q0 37 -18.5 55t-49.5 18q-32 0 -63 -33l-43 5l12 206h187v-37h-151q0 -1 -4.5 -70t-4.5 -71q32 32 81 32q42 0 70 -25t28 -74v-54q0 -49 -33.5 -78t-83.5 -29z" />
    <glyph glyph-name="six.numr" unicode="&#xe41c;" horiz-adv-x="311" 
d="M154 306q-49 0 -80 28.5t-31 74.5v202q0 50 33 79.5t82 29.5q48 0 76.5 -25t28.5 -66v-20h-40v16q0 28 -19.5 43.5t-49.5 15.5q-29 0 -47 -19t-18 -47v-102q30 45 88 45q39 0 65 -24t26 -61v-69q0 -46 -32 -73.5t-82 -27.5zM158 341q32 0 49 19t17 45v66q0 31 -18 45.5
t-44 14.5q-25 0 -49 -21.5t-24 -49.5v-53q0 -27 18.5 -46.5t50.5 -19.5z" />
    <glyph glyph-name="seven.numr" unicode="&#xe41d;" horiz-adv-x="269" 
d="M80 318q1 113 37.5 209.5t82.5 147.5h-173v37h220v-32q-58 -60 -89.5 -162.5t-30.5 -199.5h-47z" />
    <glyph glyph-name="eight.numr" unicode="&#xe41e;" horiz-adv-x="314" 
d="M156 306q-51 0 -81.5 25t-30.5 70v37q0 26 17 47.5t44 32.5q-26 8 -41.5 29t-15.5 43v36q0 44 31.5 68.5t77.5 24.5q47 0 78 -23t31 -67v-36q0 -23 -16 -43.5t-42 -30.5q27 -9 45 -31t18 -49v-38q0 -44 -32.5 -69.5t-82.5 -25.5zM157 340q31 0 50 16.5t19 45.5v38
q0 29 -20.5 44.5t-48.5 15.5q-29 0 -49 -15.5t-20 -43.5v-40q0 -27 19.5 -44t49.5 -17zM158 534q26 0 45.5 16.5t19.5 41.5v37q0 26 -20 41t-47 15q-26 0 -46 -16t-20 -41v-37q0 -27 20.5 -42t47.5 -15z" />
    <glyph glyph-name="nine.numr" unicode="&#xe41f;" horiz-adv-x="311" 
d="M153 306q-48 0 -76.5 25t-28.5 66v18h40v-14q0 -28 19.5 -43.5t49.5 -15.5q29 0 47 19t18 47v101q-27 -45 -89 -45q-39 0 -64.5 24t-25.5 61v69q0 47 32 74.5t82 27.5q49 0 80 -28.5t31 -75.5v-201q0 -50 -33 -79.5t-82 -29.5zM149 495q25 0 49 21t24 50v53
q0 26 -18.5 45.5t-50.5 19.5t-49 -18.5t-17 -45.5v-65q0 -31 18 -45.5t44 -14.5z" />
    <glyph glyph-name="comma.numr" unicode="&#xe421;" horiz-adv-x="140" 
d="M51 253l15 67h-18v67h45v-67l-20 -67h-22z" />
    <glyph glyph-name="period.numr" unicode="&#xe422;" horiz-adv-x="140" 
d="M48 318v69h45v-69h-45z" />
    <glyph glyph-name="parenleft.numr" unicode="&#xe423;" horiz-adv-x="175" 
d="M127 249q-34 49 -52.5 119.5t-18.5 133.5q0 140 71 249l28 -2q-31 -71 -44.5 -122.5t-13.5 -124.5q0 -130 59 -250z" />
    <glyph glyph-name="parenright.numr" unicode="&#xe424;" horiz-adv-x="175" 
d="M53 249l-29 3q60 122 60 250q0 73 -14 124.5t-45 122.5l28 2q71 -109 71 -249q0 -64 -18.5 -134.5t-52.5 -118.5z" />
    <glyph glyph-name="numbersign.LP" unicode="&#xe533;" 
d="M107 -3l28 202h-85l5 42h85l37 250h-89l5 39h88l29 185h37l-27 -185h146l27 185h38l-26 -185h86l-6 -39h-85l-36 -250h88l-4 -42h-89l-26 -202h-41l28 202h-145l-27 -202h-41zM180 241h144l38 250h-146z" />
    <glyph glyph-name="zero.LT" unicode="&#xe53f;" 
d="M271 -12q-87 0 -143.5 47.5t-56.5 132.5v379q0 85 58 132t142 47q87 0 142 -46t55 -131v-381q0 -85 -56.5 -132.5t-140.5 -47.5zM272 38q67 0 102 36.5t35 95.5v380q0 55 -37 91.5t-101 36.5q-66 0 -103.5 -36t-37.5 -95v-378q0 -59 37.5 -95t104.5 -36z" />
    <glyph glyph-name="one.LT" unicode="&#xe541;" 
d="M245 0v656l-85 -28l-5 47l111 40h37v-715h-58z" />
    <glyph glyph-name="two.LT" unicode="&#xe542;" 
d="M101 0v36l130 176q143 186 143 327v12q-1 57 -29.5 91t-87.5 34q-53 0 -84 -29t-31 -79v-36h-54v33q0 76 49 118.5t127 42.5q83 0 125.5 -48t42.5 -131q0 -97 -39.5 -181t-118.5 -185l-95 -127v-2h273v-52h-351z" />
    <glyph glyph-name="three.LT" unicode="&#xe543;" 
d="M270 -12q-92 0 -140 44.5t-48 110.5v39h56v-37q0 -51 38 -79.5t93 -28.5q66 0 100.5 41t34.5 116q0 43 -14 74.5t-37 47t-45.5 22.5t-45.5 7h-66v50h63q59 0 95 37.5t36 108.5t-37.5 103.5t-90.5 32.5t-86 -26.5t-33 -83.5v-32h-54v32q0 74 48 116.5t131 42.5
q89 0 133.5 -50t44.5 -124q0 -63 -28.5 -113t-85.5 -64v-3q60 -11 95.5 -61t35.5 -120q0 -90 -54.5 -146.5t-138.5 -56.5z" />
    <glyph glyph-name="four.LT" unicode="&#xe544;" 
d="M336 0v194h-275v47l252 472h61l-255 -470h217v150l56 38v-188h88v-49h-88v-194h-56z" />
    <glyph glyph-name="five.LT" unicode="&#xe545;" 
d="M263 -12q-88 0 -134.5 44t-46.5 106v44h57v-38q0 -51 36.5 -79t90.5 -28q58 0 96.5 32t38.5 110v88q0 136 -128 136q-64 0 -120 -52l-54 4l19 359h309v-52h-263l-13 -264q57 52 144 52q71 0 117 -42.5t46 -128.5v-105q0 -88 -54.5 -137t-140.5 -49z" />
    <glyph glyph-name="six.LT" unicode="&#xe546;" 
d="M269 -12q-84 0 -137 50t-53 130l1 381q0 83 53 130.5t137 47.5q82 0 133 -40t51 -106v-42h-56v36q0 48 -37 76t-93 28q-61 0 -95 -35t-34 -89v-201q22 43 67 68t93 25q67 0 114.5 -42t47.5 -110v-138q0 -79 -53.5 -124t-138.5 -45zM275 37q60 0 94 33t34 81v134
q0 61 -35.5 88t-86.5 27q-56 0 -99 -40t-43 -97v-100q0 -54 36.5 -90t99.5 -36z" />
    <glyph glyph-name="seven.LT" unicode="&#xe547;" 
d="M189 0q0 215 62.5 398t137.5 265h-302v51h366v-41q-103 -112 -154.5 -304t-50.5 -369h-59z" />
    <glyph glyph-name="eight.LT" unicode="&#xe548;" 
d="M268 -12q-83 0 -135 44.5t-52 119.5v72q0 49 29.5 87.5t76.5 55.5q-45 13 -72 50.5t-27 79.5v67q0 77 53 119t129 42q79 0 131 -39.5t52 -116.5v-66q0 -43 -27 -81.5t-75 -53.5q47 -14 78 -52t31 -91v-72q0 -77 -53.5 -121t-138.5 -44zM270 37q60 0 96 31t36 86v73
q0 56 -40 87.5t-92 31.5q-53 0 -92.5 -32t-39.5 -87v-76q0 -51 37.5 -82.5t94.5 -31.5zM271 388q49 0 87.5 32.5t38.5 81.5v71q0 50 -38.5 77.5t-91.5 27.5q-48 0 -85.5 -30.5t-37.5 -79.5v-67q0 -53 39.5 -83t87.5 -30z" />
    <glyph glyph-name="nine.LT" unicode="&#xe549;" 
d="M269 -12q-81 0 -132 40t-51 106v43h56v-35q0 -48 37 -76.5t93 -28.5q61 0 94.5 35.5t33.5 88.5v200q-25 -45 -67.5 -68.5t-91.5 -23.5q-68 0 -114.5 41t-46.5 109v141q0 79 53 123t138 44q83 0 135.5 -50t52.5 -129v-380q0 -84 -53 -132t-137 -48zM258 316q56 0 99 40
t43 97v100q0 50 -37 88t-98 38q-60 0 -94 -33.5t-34 -80.5v-137q0 -60 35 -86t86 -26z" />
    <glyph glyph-name="apple" unicode="&#xf8ff;" horiz-adv-x="1082" 
d="M674 -113l-165 3l-19 -2l-7 7q13 4 25.5 7t17.5 5q49 16 59 63q8 61 15 231l-105 -3l2 11l104 6q9 138 11 231l42 24q-56 3 -191 7q-1 -31 -7 -146q-4 -77 -28.5 -137t-58 -91.5t-64.5 -46.5t-56 -15q-31 0 -84.5 15.5t-76.5 28.5l25 39q2 0 36 -13.5t72.5 -25
t60.5 -10.5q52 1 93.5 66.5t39.5 142.5l5 194q-10 0 -32 1t-33 1q-63 0 -114 -45.5t-51 -109.5q20 -44 82 -71q0 -5 -6.5 -19.5t-10.5 -19.5q-71 31 -78 102q0 76 58.5 130.5t152.5 70.5h33l6 175l43 19q-219 8 -261 8q-63 0 -114 -44.5t-51 -107.5q20 -41 84 -66
q0 -3 -5 -11.5t-11.5 -17.5t-6.5 -10q-72 30 -79 101q0 72 60.5 124t140.5 72q69 0 193.5 -5t174.5 -6q16 0 66 -2q5 0 22 -0.5t21 -0.5q14 -1 35 3q16 11 24 28l9 -3q-8 -18 -26 -36q-60 -30 -121 -30q-50 0 -150 4q-3 -14 -4.5 -73t-3.5 -69l-2 -53q16 0 178 -7t246 -7
l69 -1q70 3 97 16l5 -6q-105 -45 -240 -45q-72 0 -158 3q-3 -20 -8 -103.5t-6 -93.5q0 -9 -2 -55l158 10h4l4 -3l-37 -55l-8 5l25 36l-147 -9q-8 -141 -14 -203q-2 -19 -21 -45t-38 -34l1 -1q32 5 96 6t81 2v-1q0 -11 -9.5 -23.5t-20.5 -13.5q-12 -2 -46 -2z" />
    <glyph glyph-name="CR" horiz-adv-x="179" 
 />
    <glyph glyph-name="uni00A0" horiz-adv-x="180" 
 />
    <glyph glyph-name="LF" horiz-adv-x="15" 
 />
    <glyph glyph-name="RS" horiz-adv-x="15" 
 />
    <glyph glyph-name="US" horiz-adv-x="15" 
 />
    <glyph glyph-name="DEL" horiz-adv-x="0" 
 />
    <glyph glyph-name="period.sub" horiz-adv-x="140" 
d="M48 -133v69h45v-69h-45z" />
    <glyph glyph-name="comma.sub" horiz-adv-x="140" 
d="M51 -198l15 67h-18v67h45v-67l-20 -67h-22z" />
    <glyph glyph-name="period.sup" horiz-adv-x="140" 
d="M48 380v69h45v-69h-45z" />
    <glyph glyph-name="comma.sup" horiz-adv-x="140" 
d="M51 315l15 67h-18v67h45v-67l-20 -67h-22z" />
    <glyph glyph-name="commatop" horiz-adv-x="175" 
d="M60 587v67l20 75h27l-12 -67h18v-75h-53z" />
    <glyph glyph-name="ringacute" horiz-adv-x="269" 
d="M140 562q-40 0 -61.5 24t-21.5 56q0 34 21 59l86 108l47 -17l-67 -67q39 -2 58.5 -23.5t19.5 -54.5q0 -36 -23 -60.5t-59 -24.5zM139 589q22 0 36.5 14.5t14.5 40.5t-14 40.5t-38 14.5q-22 0 -34.5 -15.5t-12.5 -41.5t13.5 -39.5t34.5 -13.5z" />
    <glyph glyph-name="altogonek" horiz-adv-x="281" 
d="M161 -189q-35 0 -59 21.5t-24 59.5q0 41 25.5 76.5t52.5 47.5l19 -15q-54 -37 -54 -100q0 -55 50 -55q17 0 29 7l11 -31q-20 -11 -50 -11z" />
    <glyph glyph-name="ogonekplus" horiz-adv-x="332" 
d="M161 -190q-36 0 -60.5 20.5t-24.5 59.5q0 42 28.5 78.5t61.5 49.5l16 -11q-65 -46 -65 -108q0 -54 52 -54q24 0 48 15l16 -30q-30 -20 -72 -20z" />
    <glyph glyph-name="IJ.alt" horiz-adv-x="848" 
d="M32 663v50h334v-50h-138v-612h138v-51h-334v51h137v612h-137zM569 -12q-93 0 -146 48.5t-53 139.5v75h56v-69q0 -143 144 -143q74 0 108 41t34 99v534h58v-518q0 -93 -50.5 -150t-150.5 -57z" />
    <glyph glyph-name="idotaccent" horiz-adv-x="210" 
d="M78 0v506h55v-506h-55zM78 599v101h55v-101h-55z" />
    </font>
</defs>
</svg>
